999
Inkscape export via "Better DXF Output" (bob@bobcookdev.com)
  0
SECTION
  2
HEADER
  9
$ACADVER
  1
AC1014
  9
$HANDSEED
  5
FFFF
  0
ENDSEC
  0
SECTION
  2
TABLES
  0
TABLE
  2
VPORT
  5
8
330
0
100
AcDbSymbolTable
 70
     4
  0
VPORT
  5
2E
330
8
100
AcDbSymbolTableRecord
100
AcDbViewportTableRecord
  2
*ACTIVE
 70
     0
 10
0.0
 20
0.0
 11
1.0
 21
1.0
 12
4.25
 22
5.5
 13
0.0
 23
0.0
 14
10.0
 24
10.0
 15
10.0
 25
10.0
 16
0.0
 26
0.0
 36
1.0
 17
0.0
 27
0.0
 37
0.0
 40
11
 41
1.24
 42
50.0
 43
0.0
 44
0.0
 50
0.0
 51
0.0
 71
     0
 72
   100
 73
     1
 74
     3
 75
     0
 76
     0
 77
     0
 78
     0
  0
ENDTAB
  0
TABLE
  2
LTYPE
  5
5
330
0
100
AcDbSymbolTable
 70
     1
  0
LTYPE
  5
14
330
5
100
AcDbSymbolTableRecord
100
AcDbLinetypeTableRecord
  2
BYBLOCK
 70
     0
  3

 72
    65
 73
     0
 40
0.0
  0
LTYPE
  5
15
330
5
100
AcDbSymbolTableRecord
100
AcDbLinetypeTableRecord
  2
BYLAYER
 70
     0
  3

 72
    65
 73
     0
 40
0.0
  0
LTYPE
  5
16
330
5
100
AcDbSymbolTableRecord
100
AcDbLinetypeTableRecord
  2
CONTINUOUS
 70
     0
  3
Solid line
 72
    65
 73
     0
 40
0.0
  0
ENDTAB
  0
TABLE
  2
LAYER
  5
2
330
0
100
AcDbSymbolTable
 70
1
  0
LAYER
  5
10
330
2
100
AcDbSymbolTableRecord
100
AcDbLayerTableRecord
  2
0
 70
     0
 62
     7
  6
CONTINUOUS
  0
ENDTAB
  0
TABLE
  2
STYLE
  5
3
330
0
100
AcDbSymbolTable
 70
     1
  0
STYLE
  5
11
330
3
100
AcDbSymbolTableRecord
100
AcDbTextStyleTableRecord
  2
STANDARD
 70
     0
 40
0.0
 41
1.0
 50
0.0
 71
     0
 42
2.5
  3
txt
  4

  0
ENDTAB
  0
TABLE
  2
VIEW
  5
6
330
0
100
AcDbSymbolTable
 70
     0
  0
ENDTAB
  0
TABLE
  2
UCS
  5
7
330
0
100
AcDbSymbolTable
 70
     0
  0
ENDTAB
  0
TABLE
  2
APPID
  5
9
330
0
100
AcDbSymbolTable
 70
     2
  0
APPID
  5
12
330
9
100
AcDbSymbolTableRecord
100
AcDbRegAppTableRecord
  2
ACAD
 70
     0
  0
ENDTAB
  0
TABLE
  2
DIMSTYLE
  5
A
330
0
100
AcDbSymbolTable
 70
     1
  0
DIMSTYLE
105
27
330
A
100
AcDbSymbolTableRecord
100
AcDbDimStyleTableRecord
  2
ISO-25
 70
     0
  3

  4

  5

  6

  7

 40
1.0
 41
2.5
 42
0.625
 43
3.75
 44
1.25
 45
0.0
 46
0.0
 47
0.0
 48
0.0
140
2.5
141
2.5
142
0.0
143
0.03937007874016
144
1.0
145
0.0
146
1.0
147
0.625
 71
     0
 72
     0
 73
     0
 74
     0
 75
     0
 76
     0
 77
     1
 78
     8
170
     0
171
     3
172
     1
173
     0
174
     0
175
     0
176
     0
177
     0
178
     0
270
     2
271
     2
272
     2
273
     2
274
     3
340
11
275
     0
280
     0
281
     0
282
     0
283
     0
284
     8
285
     0
286
     0
287
     3
288
     0
  0
ENDTAB
  0
TABLE
  2
BLOCK_RECORD
  5
1
330
0
100
AcDbSymbolTable
 70
     1
  0
BLOCK_RECORD
  5
1F
330
1
100
AcDbSymbolTableRecord
100
AcDbBlockTableRecord
  2
*MODEL_SPACE
  0
BLOCK_RECORD
  5
1B
330
1
100
AcDbSymbolTableRecord
100
AcDbBlockTableRecord
  2
*PAPER_SPACE
  0
ENDTAB
  0
ENDSEC
  0
SECTION
  2
BLOCKS
  0
BLOCK
  5
20
330
1F
100
AcDbEntity
  8
0
100
AcDbBlockBegin
  2
*MODEL_SPACE
 70
     0
 10
0.0
 20
0.0
 30
0.0
  3
*MODEL_SPACE
  1

  0
ENDBLK
  5
21
330
1F
100
AcDbEntity
  8
0
100
AcDbBlockEnd
  0
BLOCK
  5
1C
330
1B
100
AcDbEntity
 67
     1
  8
0
100
AcDbBlockBegin
  2
*PAPER_SPACE
  1

  0
ENDBLK
  5
1D
330
1B
100
AcDbEntity
 67
     1
  8
0
100
AcDbBlockEnd
  0
ENDSEC
  0
SECTION
  2
ENTITIES
0
LINE
8
Calque 1
62
4
5
100
100
AcDbEntity
100
AcDbLine
10
84.179289
20
78.086615
30
0.0
11
83.170136
21
78.494258
31
0.0
0
LINE
8
Calque 1
62
4
5
101
100
AcDbEntity
100
AcDbLine
10
83.170136
20
78.494258
30
0.0
11
82.023331
21
78.650003
31
0.0
0
LINE
8
Calque 1
62
4
5
102
100
AcDbEntity
100
AcDbLine
10
82.023331
20
78.650003
30
0.0
11
80.941112
21
78.788697
31
0.0
0
LINE
8
Calque 1
62
4
5
103
100
AcDbEntity
100
AcDbLine
10
80.941112
20
78.788697
30
0.0
11
80.134039
21
79.182317
31
0.0
0
LINE
8
Calque 1
62
4
5
104
100
AcDbEntity
100
AcDbLine
10
80.134039
20
79.182317
30
0.0
11
79.476662
21
79.714630
31
0.0
0
LINE
8
Calque 1
62
4
5
105
100
AcDbEntity
100
AcDbLine
10
79.476662
20
79.714630
30
0.0
11
79.961664
21
81.253233
31
0.0
0
LINE
8
Calque 1
62
4
5
106
100
AcDbEntity
100
AcDbLine
10
79.961664
20
81.253233
30
0.0
11
80.446666
21
83.155453
31
0.0
0
LINE
8
Calque 1
62
4
5
107
100
AcDbEntity
100
AcDbLine
10
80.446666
20
83.155453
30
0.0
11
81.257103
21
85.113906
31
0.0
0
LINE
8
Calque 1
62
4
5
108
100
AcDbEntity
100
AcDbLine
10
81.257103
20
85.113906
30
0.0
11
82.269587
21
87.628652
31
0.0
0
LINE
8
Calque 1
62
4
5
109
100
AcDbEntity
100
AcDbLine
10
82.269587
20
87.628652
30
0.0
11
82.471633
21
88.548564
31
0.0
0
LINE
8
Calque 1
62
4
5
10a
100
AcDbEntity
100
AcDbLine
10
82.471633
20
88.548564
30
0.0
11
80.541927
21
88.386092
31
0.0
0
LINE
8
Calque 1
62
4
5
10b
100
AcDbEntity
100
AcDbLine
10
80.541927
20
88.386092
30
0.0
11
77.572997
21
88.093199
31
0.0
0
LINE
8
Calque 1
62
4
5
10c
100
AcDbEntity
100
AcDbLine
10
77.572997
20
88.093199
30
0.0
11
76.070434
21
88.164308
31
0.0
0
LINE
8
Calque 1
62
4
5
10d
100
AcDbEntity
100
AcDbLine
10
76.070434
20
88.164308
30
0.0
11
75.495608
21
88.394074
31
0.0
0
LINE
8
Calque 1
62
4
5
10e
100
AcDbEntity
100
AcDbLine
10
75.495608
20
88.394074
30
0.0
11
75.055371
21
88.735270
31
0.0
0
LINE
8
Calque 1
62
4
5
10f
100
AcDbEntity
100
AcDbLine
10
75.055371
20
88.735270
30
0.0
11
74.762440
21
89.174365
31
0.0
0
LINE
8
Calque 1
62
4
5
110
100
AcDbEntity
100
AcDbLine
10
74.762440
20
89.174365
30
0.0
11
74.629529
21
89.697826
31
0.0
0
LINE
8
Calque 1
62
4
5
111
100
AcDbEntity
100
AcDbLine
10
74.629529
20
89.697826
30
0.0
11
74.669352
21
90.292122
31
0.0
0
LINE
8
Calque 1
62
4
5
112
100
AcDbEntity
100
AcDbLine
10
74.669352
20
90.292122
30
0.0
11
74.894626
21
90.943719
31
0.0
0
LINE
8
Calque 1
62
4
5
113
100
AcDbEntity
100
AcDbLine
10
74.894626
20
90.943719
30
0.0
11
75.366666
21
92.584277
31
0.0
0
LINE
8
Calque 1
62
4
5
114
100
AcDbEntity
100
AcDbLine
10
75.366666
20
92.584277
30
0.0
11
75.549102
21
93.133763
31
0.0
0
LINE
8
Calque 1
62
4
5
115
100
AcDbEntity
100
AcDbLine
10
75.549102
20
93.133763
30
0.0
11
76.076549
21
93.544221
31
0.0
0
LINE
8
Calque 1
62
4
5
116
100
AcDbEntity
100
AcDbLine
10
76.076549
20
93.544221
30
0.0
11
76.919208
21
93.801139
31
0.0
0
LINE
8
Calque 1
62
4
5
117
100
AcDbEntity
100
AcDbLine
10
76.919208
20
93.801139
30
0.0
11
78.047286
21
93.890003
31
0.0
0
LINE
8
Calque 1
62
4
5
118
100
AcDbEntity
100
AcDbLine
10
78.047286
20
93.890003
30
0.0
11
80.263389
21
94.176385
31
0.0
0
LINE
8
Calque 1
62
4
5
119
100
AcDbEntity
100
AcDbLine
10
80.263389
20
94.176385
30
0.0
11
82.845554
21
94.881699
31
0.0
0
LINE
8
Calque 1
62
4
5
11a
100
AcDbEntity
100
AcDbLine
10
82.845554
20
94.881699
30
0.0
11
84.072864
21
95.362181
31
0.0
0
LINE
8
Calque 1
62
4
5
11b
100
AcDbEntity
100
AcDbLine
10
84.072864
20
95.362181
30
0.0
11
84.883232
21
95.853063
31
0.0
0
LINE
8
Calque 1
62
4
5
11c
100
AcDbEntity
100
AcDbLine
10
84.883232
20
95.853063
30
0.0
11
85.450164
21
96.497350
31
0.0
0
LINE
8
Calque 1
62
4
5
11d
100
AcDbEntity
100
AcDbLine
10
85.450164
20
96.497350
30
0.0
11
85.947168
21
97.438045
31
0.0
0
LINE
8
Calque 1
62
4
5
11e
100
AcDbEntity
100
AcDbLine
10
85.947168
20
97.438045
30
0.0
11
86.655554
21
99.264418
31
0.0
0
LINE
8
Calque 1
62
4
5
11f
100
AcDbEntity
100
AcDbLine
10
86.655554
20
99.264418
30
0.0
11
86.904850
21
100.032167
31
0.0
0
LINE
8
Calque 1
62
4
5
120
100
AcDbEntity
100
AcDbLine
10
86.904850
20
100.032167
30
0.0
11
87.459247
21
101.227781
31
0.0
0
LINE
8
Calque 1
62
4
5
121
100
AcDbEntity
100
AcDbLine
10
87.459247
20
101.227781
30
0.0
11
88.926820
21
104.614448
31
0.0
0
LINE
8
Calque 1
62
4
5
122
100
AcDbEntity
100
AcDbLine
10
88.926820
20
104.614448
30
0.0
11
92.438672
21
113.222226
31
0.0
0
LINE
8
Calque 1
62
4
5
123
100
AcDbEntity
100
AcDbLine
10
92.438672
20
113.222226
30
0.0
11
93.560259
21
116.044448
31
0.0
0
LINE
8
Calque 1
62
4
5
124
100
AcDbEntity
100
AcDbLine
10
93.560259
20
116.044448
30
0.0
11
94.413965
21
118.020003
31
0.0
0
LINE
8
Calque 1
62
4
5
125
100
AcDbEntity
100
AcDbLine
10
94.413965
20
118.020003
30
0.0
11
95.294111
21
119.968364
31
0.0
0
LINE
8
Calque 1
62
4
5
126
100
AcDbEntity
100
AcDbLine
10
95.294111
20
119.968364
30
0.0
11
95.686666
21
121.066141
31
0.0
0
LINE
8
Calque 1
62
4
5
127
100
AcDbEntity
100
AcDbLine
10
95.686666
20
121.066141
30
0.0
11
95.539845
21
121.385332
31
0.0
0
LINE
8
Calque 1
62
4
5
128
100
AcDbEntity
100
AcDbLine
10
95.539845
20
121.385332
30
0.0
11
95.177201
21
121.721604
31
0.0
0
LINE
8
Calque 1
62
4
5
129
100
AcDbEntity
100
AcDbLine
10
95.177201
20
121.721604
30
0.0
11
94.271352
21
122.103251
31
0.0
0
LINE
8
Calque 1
62
4
5
12a
100
AcDbEntity
100
AcDbLine
10
94.271352
20
122.103251
30
0.0
11
93.398622
21
122.376595
31
0.0
0
LINE
8
Calque 1
62
4
5
12b
100
AcDbEntity
100
AcDbLine
10
93.398622
20
122.376595
30
0.0
11
91.938572
21
123.046482
31
0.0
0
LINE
8
Calque 1
62
4
5
12c
100
AcDbEntity
100
AcDbLine
10
91.938572
20
123.046482
30
0.0
11
88.849031
21
124.787532
31
0.0
0
LINE
8
Calque 1
62
4
5
12d
100
AcDbEntity
100
AcDbLine
10
88.849031
20
124.787532
30
0.0
11
85.211720
21
127.778034
31
0.0
0
LINE
8
Calque 1
62
4
5
12e
100
AcDbEntity
100
AcDbLine
10
85.211720
20
127.778034
30
0.0
11
82.496197
21
130.114784
31
0.0
0
LINE
8
Calque 1
62
4
5
12f
100
AcDbEntity
100
AcDbLine
10
82.496197
20
130.114784
30
0.0
11
82.249451
21
130.166990
31
0.0
0
LINE
8
Calque 1
62
4
5
130
100
AcDbEntity
100
AcDbLine
10
82.249451
20
130.166990
30
0.0
11
81.936095
21
130.061082
31
0.0
0
LINE
8
Calque 1
62
4
5
131
100
AcDbEntity
100
AcDbLine
10
81.936095
20
130.061082
30
0.0
11
81.041610
21
129.338672
31
0.0
0
LINE
8
Calque 1
62
4
5
132
100
AcDbEntity
100
AcDbLine
10
81.041610
20
129.338672
30
0.0
11
80.205511
21
128.620023
31
0.0
0
LINE
8
Calque 1
62
4
5
133
100
AcDbEntity
100
AcDbLine
10
80.205511
20
128.620023
30
0.0
11
79.658656
21
128.321115
31
0.0
0
LINE
8
Calque 1
62
4
5
134
100
AcDbEntity
100
AcDbLine
10
79.658656
20
128.321115
30
0.0
11
79.317777
21
128.108963
31
0.0
0
LINE
8
Calque 1
62
4
5
135
100
AcDbEntity
100
AcDbLine
10
79.317777
20
128.108963
30
0.0
11
77.977221
21
127.198646
31
0.0
0
LINE
8
Calque 1
62
4
5
136
100
AcDbEntity
100
AcDbLine
10
77.977221
20
127.198646
30
0.0
11
76.495554
21
126.352016
31
0.0
0
LINE
8
Calque 1
62
4
5
137
100
AcDbEntity
100
AcDbLine
10
76.495554
20
126.352016
30
0.0
11
75.429436
21
125.777929
31
0.0
0
LINE
8
Calque 1
62
4
5
138
100
AcDbEntity
100
AcDbLine
10
75.429436
20
125.777929
30
0.0
11
73.108888
21
124.882415
31
0.0
0
LINE
8
Calque 1
62
4
5
139
100
AcDbEntity
100
AcDbLine
10
73.108888
20
124.882415
30
0.0
11
71.970186
21
124.528891
31
0.0
0
LINE
8
Calque 1
62
4
5
13a
100
AcDbEntity
100
AcDbLine
10
71.970186
20
124.528891
30
0.0
11
70.741790
21
124.334860
31
0.0
0
LINE
8
Calque 1
62
4
5
13b
100
AcDbEntity
100
AcDbLine
10
70.741790
20
124.334860
30
0.0
11
66.053332
21
124.249119
31
0.0
0
LINE
8
Calque 1
62
4
5
13c
100
AcDbEntity
100
AcDbLine
10
66.053332
20
124.249119
30
0.0
11
61.341629
21
124.379114
31
0.0
0
LINE
8
Calque 1
62
4
5
13d
100
AcDbEntity
100
AcDbLine
10
61.341629
20
124.379114
30
0.0
11
59.860655
21
124.572922
31
0.0
0
LINE
8
Calque 1
62
4
5
13e
100
AcDbEntity
100
AcDbLine
10
59.860655
20
124.572922
30
0.0
11
58.433332
21
124.897686
31
0.0
0
LINE
8
Calque 1
62
4
5
13f
100
AcDbEntity
100
AcDbLine
10
58.433332
20
124.897686
30
0.0
11
55.687659
21
125.760397
31
0.0
0
LINE
8
Calque 1
62
4
5
140
100
AcDbEntity
100
AcDbLine
10
55.687659
20
125.760397
30
0.0
11
53.301065
21
126.833385
31
0.0
0
LINE
8
Calque 1
62
4
5
141
100
AcDbEntity
100
AcDbLine
10
53.301065
20
126.833385
30
0.0
11
51.178340
21
128.167473
31
0.0
0
LINE
8
Calque 1
62
4
5
142
100
AcDbEntity
100
AcDbLine
10
51.178340
20
128.167473
30
0.0
11
49.224274
21
129.813483
31
0.0
0
LINE
8
Calque 1
62
4
5
143
100
AcDbEntity
100
AcDbLine
10
49.224274
20
129.813483
30
0.0
11
48.139593
21
130.718438
31
0.0
0
LINE
8
Calque 1
62
4
5
144
100
AcDbEntity
100
AcDbLine
10
48.139593
20
130.718438
30
0.0
11
47.596496
21
130.907585
31
0.0
0
LINE
8
Calque 1
62
4
5
145
100
AcDbEntity
100
AcDbLine
10
47.596496
20
130.907585
30
0.0
11
47.157589
21
129.398306
31
0.0
0
LINE
8
Calque 1
62
4
5
146
100
AcDbEntity
100
AcDbLine
10
47.157589
20
129.398306
30
0.0
11
46.614060
21
127.192226
31
0.0
0
LINE
8
Calque 1
62
4
5
147
100
AcDbEntity
100
AcDbLine
10
46.614060
20
127.192226
30
0.0
11
46.005919
21
125.075559
31
0.0
0
LINE
8
Calque 1
62
4
5
148
100
AcDbEntity
100
AcDbLine
10
46.005919
20
125.075559
30
0.0
11
45.438263
21
122.535559
31
0.0
0
LINE
8
Calque 1
62
4
5
149
100
AcDbEntity
100
AcDbLine
10
45.438263
20
122.535559
30
0.0
11
45.002684
21
120.167974
31
0.0
0
LINE
8
Calque 1
62
4
5
14a
100
AcDbEntity
100
AcDbLine
10
45.002684
20
120.167974
30
0.0
11
44.811081
21
119.211501
31
0.0
0
LINE
8
Calque 1
62
4
5
14b
100
AcDbEntity
100
AcDbLine
10
44.811081
20
119.211501
30
0.0
11
42.458180
21
119.377546
31
0.0
0
LINE
8
Calque 1
62
4
5
14c
100
AcDbEntity
100
AcDbLine
10
42.458180
20
119.377546
30
0.0
11
40.624264
21
119.586964
31
0.0
0
LINE
8
Calque 1
62
4
5
14d
100
AcDbEntity
100
AcDbLine
10
40.624264
20
119.586964
30
0.0
11
39.519132
21
119.857290
31
0.0
0
LINE
8
Calque 1
62
4
5
14e
100
AcDbEntity
100
AcDbLine
10
39.519132
20
119.857290
30
0.0
11
38.968072
21
120.314715
31
0.0
0
LINE
8
Calque 1
62
4
5
14f
100
AcDbEntity
100
AcDbLine
10
38.968072
20
120.314715
30
0.0
11
38.648319
21
120.941591
31
0.0
0
LINE
8
Calque 1
62
4
5
150
100
AcDbEntity
100
AcDbLine
10
38.648319
20
120.941591
30
0.0
11
38.576022
21
121.681619
31
0.0
0
LINE
8
Calque 1
62
4
5
151
100
AcDbEntity
100
AcDbLine
10
38.576022
20
121.681619
30
0.0
11
38.767326
21
122.478502
31
0.0
0
LINE
8
Calque 1
62
4
5
152
100
AcDbEntity
100
AcDbLine
10
38.767326
20
122.478502
30
0.0
11
39.287865
21
124.283812
31
0.0
0
LINE
8
Calque 1
62
4
5
153
100
AcDbEntity
100
AcDbLine
10
39.287865
20
124.283812
30
0.0
11
39.809172
21
126.881188
31
0.0
0
LINE
8
Calque 1
62
4
5
154
100
AcDbEntity
100
AcDbLine
10
39.809172
20
126.881188
30
0.0
11
40.210501
21
129.577811
31
0.0
0
LINE
8
Calque 1
62
4
5
155
100
AcDbEntity
100
AcDbLine
10
40.210501
20
129.577811
30
0.0
11
40.371110
21
131.680863
31
0.0
0
LINE
8
Calque 1
62
4
5
156
100
AcDbEntity
100
AcDbLine
10
40.371110
20
131.680863
30
0.0
11
40.207323
21
132.667309
31
0.0
0
LINE
8
Calque 1
62
4
5
157
100
AcDbEntity
100
AcDbLine
10
40.207323
20
132.667309
30
0.0
11
39.392979
21
133.236511
31
0.0
0
LINE
8
Calque 1
62
4
5
158
100
AcDbEntity
100
AcDbLine
10
39.392979
20
133.236511
30
0.0
11
36.348505
21
134.352541
31
0.0
0
LINE
8
Calque 1
62
4
5
159
100
AcDbEntity
100
AcDbLine
10
36.348505
20
134.352541
30
0.0
11
32.609999
21
135.277009
31
0.0
0
LINE
8
Calque 1
62
4
5
15a
100
AcDbEntity
100
AcDbLine
10
32.609999
20
135.277009
30
0.0
11
29.815919
21
135.542731
31
0.0
0
LINE
8
Calque 1
62
4
5
15b
100
AcDbEntity
100
AcDbLine
10
29.815919
20
135.542731
30
0.0
11
26.323599
21
135.404894
31
0.0
0
LINE
8
Calque 1
62
4
5
15c
100
AcDbEntity
100
AcDbLine
10
26.323599
20
135.404894
30
0.0
11
22.164479
21
134.866276
31
0.0
0
LINE
8
Calque 1
62
4
5
15d
100
AcDbEntity
100
AcDbLine
10
22.164479
20
134.866276
30
0.0
11
17.369999
21
133.929658
31
0.0
0
LINE
8
Calque 1
62
4
5
15e
100
AcDbEntity
100
AcDbLine
10
17.369999
20
133.929658
30
0.0
11
14.339940
21
133.100695
31
0.0
0
LINE
8
Calque 1
62
4
5
15f
100
AcDbEntity
100
AcDbLine
10
14.339940
20
133.100695
30
0.0
11
13.666374
21
132.860651
31
0.0
0
LINE
8
Calque 1
62
4
5
160
100
AcDbEntity
100
AcDbLine
10
13.666374
20
132.860651
30
0.0
11
13.053898
21
132.957086
31
0.0
0
LINE
8
Calque 1
62
4
5
161
100
AcDbEntity
100
AcDbLine
10
13.053898
20
132.957086
30
0.0
11
12.415145
21
133.429736
31
0.0
0
LINE
8
Calque 1
62
4
5
162
100
AcDbEntity
100
AcDbLine
10
12.415145
20
133.429736
30
0.0
11
11.662749
21
134.318337
31
0.0
0
LINE
8
Calque 1
62
4
5
163
100
AcDbEntity
100
AcDbLine
10
11.662749
20
134.318337
30
0.0
11
10.266644
21
136.614911
31
0.0
0
LINE
8
Calque 1
62
4
5
164
100
AcDbEntity
100
AcDbLine
10
10.266644
20
136.614911
30
0.0
11
9.323658
21
139.272064
31
0.0
0
LINE
8
Calque 1
62
4
5
165
100
AcDbEntity
100
AcDbLine
10
9.323658
20
139.272064
30
0.0
11
8.797551
21
142.433326
31
0.0
0
LINE
8
Calque 1
62
4
5
166
100
AcDbEntity
100
AcDbLine
10
8.797551
20
142.433326
30
0.0
11
8.652085
21
146.242226
31
0.0
0
LINE
8
Calque 1
62
4
5
167
100
AcDbEntity
100
AcDbLine
10
8.652085
20
146.242226
30
0.0
11
8.812917
21
149.952129
31
0.0
0
LINE
8
Calque 1
62
4
5
168
100
AcDbEntity
100
AcDbLine
10
8.812917
20
149.952129
30
0.0
11
9.397754
21
152.874448
31
0.0
0
LINE
8
Calque 1
62
4
5
169
100
AcDbEntity
100
AcDbLine
10
9.397754
20
152.874448
30
0.0
11
10.804588
21
157.702258
31
0.0
0
LINE
8
Calque 1
62
4
5
16a
100
AcDbEntity
100
AcDbLine
10
10.804588
20
157.702258
30
0.0
11
11.968689
21
161.077542
31
0.0
0
LINE
8
Calque 1
62
4
5
16b
100
AcDbEntity
100
AcDbLine
10
11.968689
20
161.077542
30
0.0
11
13.796249
21
164.336845
31
0.0
0
LINE
8
Calque 1
62
4
5
16c
100
AcDbEntity
100
AcDbLine
10
13.796249
20
164.336845
30
0.0
11
14.714909
21
165.620002
31
0.0
0
LINE
8
Calque 1
62
4
5
16d
100
AcDbEntity
100
AcDbLine
10
14.714909
20
165.620002
30
0.0
11
15.286253
21
166.137476
31
0.0
0
LINE
8
Calque 1
62
4
5
16e
100
AcDbEntity
100
AcDbLine
10
15.286253
20
166.137476
30
0.0
11
16.387535
21
165.858155
31
0.0
0
LINE
8
Calque 1
62
4
5
16f
100
AcDbEntity
100
AcDbLine
10
16.387535
20
165.858155
30
0.0
11
19.345555
21
164.725975
31
0.0
0
LINE
8
Calque 1
62
4
5
170
100
AcDbEntity
100
AcDbLine
10
19.345555
20
164.725975
30
0.0
11
21.305942
21
164.058821
31
0.0
0
LINE
8
Calque 1
62
4
5
171
100
AcDbEntity
100
AcDbLine
10
21.305942
20
164.058821
30
0.0
11
23.155555
21
163.746356
31
0.0
0
LINE
8
Calque 1
62
4
5
172
100
AcDbEntity
100
AcDbLine
10
23.155555
20
163.746356
30
0.0
11
25.125580
21
163.703279
31
0.0
0
LINE
8
Calque 1
62
4
5
173
100
AcDbEntity
100
AcDbLine
10
25.125580
20
163.703279
30
0.0
11
27.674809
21
163.853791
31
0.0
0
LINE
8
Calque 1
62
4
5
174
100
AcDbEntity
100
AcDbLine
10
27.674809
20
163.853791
30
0.0
11
30.257466
21
164.150347
31
0.0
0
LINE
8
Calque 1
62
4
5
175
100
AcDbEntity
100
AcDbLine
10
30.257466
20
164.150347
30
0.0
11
32.327777
21
164.545401
31
0.0
0
LINE
8
Calque 1
62
4
5
176
100
AcDbEntity
100
AcDbLine
10
32.327777
20
164.545401
30
0.0
11
34.921675
21
164.999951
31
0.0
0
LINE
8
Calque 1
62
4
5
177
100
AcDbEntity
100
AcDbLine
10
34.921675
20
164.999951
30
0.0
11
35.608937
21
165.089954
31
0.0
0
LINE
8
Calque 1
62
4
5
178
100
AcDbEntity
100
AcDbLine
10
35.608937
20
165.089954
30
0.0
11
35.996666
21
165.292226
31
0.0
0
LINE
8
Calque 1
62
4
5
179
100
AcDbEntity
100
AcDbLine
10
35.996666
20
165.292226
30
0.0
11
36.405119
21
165.491545
31
0.0
0
LINE
8
Calque 1
62
4
5
17a
100
AcDbEntity
100
AcDbLine
10
36.405119
20
165.491545
30
0.0
11
37.142211
21
165.574448
31
0.0
0
LINE
8
Calque 1
62
4
5
17b
100
AcDbEntity
100
AcDbLine
10
37.142211
20
165.574448
30
0.0
11
37.828065
21
165.657351
31
0.0
0
LINE
8
Calque 1
62
4
5
17c
100
AcDbEntity
100
AcDbLine
10
37.828065
20
165.657351
30
0.0
11
38.113332
21
165.856670
31
0.0
0
LINE
8
Calque 1
62
4
5
17d
100
AcDbEntity
100
AcDbLine
10
38.113332
20
165.856670
30
0.0
11
38.279138
21
166.055990
31
0.0
0
LINE
8
Calque 1
62
4
5
17e
100
AcDbEntity
100
AcDbLine
10
38.279138
20
166.055990
30
0.0
11
38.677777
21
166.138892
31
0.0
0
LINE
8
Calque 1
62
4
5
17f
100
AcDbEntity
100
AcDbLine
10
38.677777
20
166.138892
30
0.0
11
39.076122
21
166.201069
31
0.0
0
LINE
8
Calque 1
62
4
5
180
100
AcDbEntity
100
AcDbLine
10
39.076122
20
166.201069
30
0.0
11
39.241222
21
166.350559
31
0.0
0
LINE
8
Calque 1
62
4
5
181
100
AcDbEntity
100
AcDbLine
10
39.241222
20
166.350559
30
0.0
11
38.861149
21
172.027783
31
0.0
0
LINE
8
Calque 1
62
4
5
182
100
AcDbEntity
100
AcDbLine
10
38.861149
20
172.027783
30
0.0
11
38.255544
21
176.863337
31
0.0
0
LINE
8
Calque 1
62
4
5
183
100
AcDbEntity
100
AcDbLine
10
38.255544
20
176.863337
30
0.0
11
37.871247
21
178.722999
31
0.0
0
LINE
8
Calque 1
62
4
5
184
100
AcDbEntity
100
AcDbLine
10
37.871247
20
178.722999
30
0.0
11
38.004618
21
179.183694
31
0.0
0
LINE
8
Calque 1
62
4
5
185
100
AcDbEntity
100
AcDbLine
10
38.004618
20
179.183694
30
0.0
11
38.367981
21
179.653767
31
0.0
0
LINE
8
Calque 1
62
4
5
186
100
AcDbEntity
100
AcDbLine
10
38.367981
20
179.653767
30
0.0
11
38.728011
21
179.985723
31
0.0
0
LINE
8
Calque 1
62
4
5
187
100
AcDbEntity
100
AcDbLine
10
38.728011
20
179.985723
30
0.0
11
39.212764
21
180.161417
31
0.0
0
LINE
8
Calque 1
62
4
5
188
100
AcDbEntity
100
AcDbLine
10
39.212764
20
180.161417
30
0.0
11
41.379778
21
180.190838
31
0.0
0
LINE
8
Calque 1
62
4
5
189
100
AcDbEntity
100
AcDbLine
10
41.379778
20
180.190838
30
0.0
11
43.589694
21
180.006517
31
0.0
0
LINE
8
Calque 1
62
4
5
18a
100
AcDbEntity
100
AcDbLine
10
43.589694
20
180.006517
30
0.0
11
44.021722
21
179.744807
31
0.0
0
LINE
8
Calque 1
62
4
5
18b
100
AcDbEntity
100
AcDbLine
10
44.021722
20
179.744807
30
0.0
11
44.350059
21
179.262226
31
0.0
0
LINE
8
Calque 1
62
4
5
18c
100
AcDbEntity
100
AcDbLine
10
44.350059
20
179.262226
30
0.0
11
44.729523
21
178.137576
31
0.0
0
LINE
8
Calque 1
62
4
5
18d
100
AcDbEntity
100
AcDbLine
10
44.729523
20
178.137576
30
0.0
11
44.870147
21
176.440003
31
0.0
0
LINE
8
Calque 1
62
4
5
18e
100
AcDbEntity
100
AcDbLine
10
44.870147
20
176.440003
30
0.0
11
45.011166
21
174.690073
31
0.0
0
LINE
8
Calque 1
62
4
5
18f
100
AcDbEntity
100
AcDbLine
10
45.011166
20
174.690073
30
0.0
11
45.315482
21
173.256977
31
0.0
0
LINE
8
Calque 1
62
4
5
190
100
AcDbEntity
100
AcDbLine
10
45.315482
20
173.256977
30
0.0
11
46.220690
21
168.953088
31
0.0
0
LINE
8
Calque 1
62
4
5
191
100
AcDbEntity
100
AcDbLine
10
46.220690
20
168.953088
30
0.0
11
46.864019
21
165.856670
31
0.0
0
LINE
8
Calque 1
62
4
5
192
100
AcDbEntity
100
AcDbLine
10
46.864019
20
165.856670
30
0.0
11
47.485218
21
166.632781
31
0.0
0
LINE
8
Calque 1
62
4
5
193
100
AcDbEntity
100
AcDbLine
10
47.485218
20
166.632781
30
0.0
11
48.601662
21
168.083387
31
0.0
0
LINE
8
Calque 1
62
4
5
194
100
AcDbEntity
100
AcDbLine
10
48.601662
20
168.083387
30
0.0
11
50.191536
21
169.631705
31
0.0
0
LINE
8
Calque 1
62
4
5
195
100
AcDbEntity
100
AcDbLine
10
50.191536
20
169.631705
30
0.0
11
51.976422
21
171.034287
31
0.0
0
LINE
8
Calque 1
62
4
5
196
100
AcDbEntity
100
AcDbLine
10
51.976422
20
171.034287
30
0.0
11
53.677905
21
172.047686
31
0.0
0
LINE
8
Calque 1
62
4
5
197
100
AcDbEntity
100
AcDbLine
10
53.677905
20
172.047686
30
0.0
11
57.607592
21
173.590923
31
0.0
0
LINE
8
Calque 1
62
4
5
198
100
AcDbEntity
100
AcDbLine
10
57.607592
20
173.590923
30
0.0
11
60.832221
21
174.475091
31
0.0
0
LINE
8
Calque 1
62
4
5
199
100
AcDbEntity
100
AcDbLine
10
60.832221
20
174.475091
30
0.0
11
65.423415
21
174.599062
31
0.0
0
LINE
8
Calque 1
62
4
5
19a
100
AcDbEntity
100
AcDbLine
10
65.423415
20
174.599062
30
0.0
11
67.713802
21
174.508454
31
0.0
0
LINE
8
Calque 1
62
4
5
19b
100
AcDbEntity
100
AcDbLine
10
67.713802
20
174.508454
30
0.0
11
69.174126
21
174.330449
31
0.0
0
LINE
8
Calque 1
62
4
5
19c
100
AcDbEntity
100
AcDbLine
10
69.174126
20
174.330449
30
0.0
11
73.179144
21
172.926185
31
0.0
0
LINE
8
Calque 1
62
4
5
19d
100
AcDbEntity
100
AcDbLine
10
73.179144
20
172.926185
30
0.0
11
74.935088
21
172.122553
31
0.0
0
LINE
8
Calque 1
62
4
5
19e
100
AcDbEntity
100
AcDbLine
10
74.935088
20
172.122553
30
0.0
11
75.931110
21
171.500666
31
0.0
0
LINE
8
Calque 1
62
4
5
19f
100
AcDbEntity
100
AcDbLine
10
75.931110
20
171.500666
30
0.0
11
76.848332
21
170.959087
31
0.0
0
LINE
8
Calque 1
62
4
5
1a0
100
AcDbEntity
100
AcDbLine
10
76.848332
20
170.959087
30
0.0
11
77.624443
21
170.324536
31
0.0
0
LINE
8
Calque 1
62
4
5
1a1
100
AcDbEntity
100
AcDbLine
10
77.624443
20
170.324536
30
0.0
11
77.737541
21
170.158897
31
0.0
0
LINE
8
Calque 1
62
4
5
1a2
100
AcDbEntity
100
AcDbLine
10
77.737541
20
170.158897
30
0.0
11
78.009459
21
170.090003
31
0.0
0
LINE
8
Calque 1
62
4
5
1a3
100
AcDbEntity
100
AcDbLine
10
78.009459
20
170.090003
30
0.0
11
78.757283
21
169.639974
31
0.0
0
LINE
8
Calque 1
62
4
5
1a4
100
AcDbEntity
100
AcDbLine
10
78.757283
20
169.639974
30
0.0
11
80.014586
21
168.557988
31
0.0
0
LINE
8
Calque 1
62
4
5
1a5
100
AcDbEntity
100
AcDbLine
10
80.014586
20
168.557988
30
0.0
11
81.267562
21
167.517739
31
0.0
0
LINE
8
Calque 1
62
4
5
1a6
100
AcDbEntity
100
AcDbLine
10
81.267562
20
167.517739
30
0.0
11
82.004975
21
167.168058
31
0.0
0
LINE
8
Calque 1
62
4
5
1a7
100
AcDbEntity
100
AcDbLine
10
82.004975
20
167.168058
30
0.0
11
82.988481
21
168.262536
31
0.0
0
LINE
8
Calque 1
62
4
5
1a8
100
AcDbEntity
100
AcDbLine
10
82.988481
20
168.262536
30
0.0
11
83.917245
21
169.884738
31
0.0
0
LINE
8
Calque 1
62
4
5
1a9
100
AcDbEntity
100
AcDbLine
10
83.917245
20
169.884738
30
0.0
11
84.195219
21
170.291894
31
0.0
0
LINE
8
Calque 1
62
4
5
1aa
100
AcDbEntity
100
AcDbLine
10
84.195219
20
170.291894
30
0.0
11
84.603042
21
170.568266
31
0.0
0
LINE
8
Calque 1
62
4
5
1ab
100
AcDbEntity
100
AcDbLine
10
84.603042
20
170.568266
30
0.0
11
86.710624
21
171.831865
31
0.0
0
LINE
8
Calque 1
62
4
5
1ac
100
AcDbEntity
100
AcDbLine
10
86.710624
20
171.831865
30
0.0
11
88.615624
21
172.912226
31
0.0
0
LINE
8
Calque 1
62
4
5
1ad
100
AcDbEntity
100
AcDbLine
10
88.615624
20
172.912226
30
0.0
11
88.915260
21
173.123892
31
0.0
0
LINE
8
Calque 1
62
4
5
1ae
100
AcDbEntity
100
AcDbLine
10
88.915260
20
173.123892
30
0.0
11
89.973593
21
174.038594
31
0.0
0
LINE
8
Calque 1
62
4
5
1af
100
AcDbEntity
100
AcDbLine
10
89.973593
20
174.038594
30
0.0
11
91.171110
21
174.885713
31
0.0
0
LINE
8
Calque 1
62
4
5
1b0
100
AcDbEntity
100
AcDbLine
10
91.171110
20
174.885713
30
0.0
11
92.088332
21
175.429809
31
0.0
0
LINE
8
Calque 1
62
4
5
1b1
100
AcDbEntity
100
AcDbLine
10
92.088332
20
175.429809
30
0.0
11
92.716147
21
175.957354
31
0.0
0
LINE
8
Calque 1
62
4
5
1b2
100
AcDbEntity
100
AcDbLine
10
92.716147
20
175.957354
30
0.0
11
92.864443
21
176.897257
31
0.0
0
LINE
8
Calque 1
62
4
5
1b3
100
AcDbEntity
100
AcDbLine
10
92.864443
20
176.897257
30
0.0
11
92.409679
21
179.601234
31
0.0
0
LINE
8
Calque 1
62
4
5
1b4
100
AcDbEntity
100
AcDbLine
10
92.409679
20
179.601234
30
0.0
11
90.710436
21
187.305559
31
0.0
0
LINE
8
Calque 1
62
4
5
1b5
100
AcDbEntity
100
AcDbLine
10
90.710436
20
187.305559
30
0.0
11
90.119694
21
189.563337
31
0.0
0
LINE
8
Calque 1
62
4
5
1b6
100
AcDbEntity
100
AcDbLine
10
90.119694
20
189.563337
30
0.0
11
89.187175
21
193.091115
31
0.0
0
LINE
8
Calque 1
62
4
5
1b7
100
AcDbEntity
100
AcDbLine
10
89.187175
20
193.091115
30
0.0
11
88.687509
21
195.128702
31
0.0
0
LINE
8
Calque 1
62
4
5
1b8
100
AcDbEntity
100
AcDbLine
10
88.687509
20
195.128702
30
0.0
11
88.180010
21
196.370723
31
0.0
0
LINE
8
Calque 1
62
4
5
1b9
100
AcDbEntity
100
AcDbLine
10
88.180010
20
196.370723
30
0.0
11
87.414607
21
197.229993
31
0.0
0
LINE
8
Calque 1
62
4
5
1ba
100
AcDbEntity
100
AcDbLine
10
87.414607
20
197.229993
30
0.0
11
86.141230
21
198.119327
31
0.0
0
LINE
8
Calque 1
62
4
5
1bb
100
AcDbEntity
100
AcDbLine
10
86.141230
20
198.119327
30
0.0
11
83.514514
21
199.949369
31
0.0
0
LINE
8
Calque 1
62
4
5
1bc
100
AcDbEntity
100
AcDbLine
10
83.514514
20
199.949369
30
0.0
11
80.951821
21
202.101813
31
0.0
0
LINE
8
Calque 1
62
4
5
1bd
100
AcDbEntity
100
AcDbLine
10
80.951821
20
202.101813
30
0.0
11
79.687296
21
203.316463
31
0.0
0
LINE
8
Calque 1
62
4
5
1be
100
AcDbEntity
100
AcDbLine
10
79.687296
20
203.316463
30
0.0
11
78.948890
21
204.405179
31
0.0
0
LINE
8
Calque 1
62
4
5
1bf
100
AcDbEntity
100
AcDbLine
10
78.948890
20
204.405179
30
0.0
11
78.727402
21
205.387813
31
0.0
0
LINE
8
Calque 1
62
4
5
1c0
100
AcDbEntity
100
AcDbLine
10
78.727402
20
205.387813
30
0.0
11
79.013631
21
206.284219
31
0.0
0
LINE
8
Calque 1
62
4
5
1c1
100
AcDbEntity
100
AcDbLine
10
79.013631
20
206.284219
30
0.0
11
79.282526
21
207.085081
31
0.0
0
LINE
8
Calque 1
62
4
5
1c2
100
AcDbEntity
100
AcDbLine
10
79.282526
20
207.085081
30
0.0
11
79.451618
21
208.246118
31
0.0
0
LINE
8
Calque 1
62
4
5
1c3
100
AcDbEntity
100
AcDbLine
10
79.451618
20
208.246118
30
0.0
11
79.605071
21
209.331472
31
0.0
0
LINE
8
Calque 1
62
4
5
1c4
100
AcDbEntity
100
AcDbLine
10
79.605071
20
209.331472
30
0.0
11
79.836374
21
209.950379
31
0.0
0
LINE
8
Calque 1
62
4
5
1c5
100
AcDbEntity
100
AcDbLine
10
79.836374
20
209.950379
30
0.0
11
80.311958
21
210.137636
31
0.0
0
LINE
8
Calque 1
62
4
5
1c6
100
AcDbEntity
100
AcDbLine
10
80.311958
20
210.137636
30
0.0
11
80.993905
21
209.955567
31
0.0
0
LINE
8
Calque 1
62
4
5
1c7
100
AcDbEntity
100
AcDbLine
10
80.993905
20
209.955567
30
0.0
11
81.881230
21
209.404636
31
0.0
0
LINE
8
Calque 1
62
4
5
1c8
100
AcDbEntity
100
AcDbLine
10
81.881230
20
209.404636
30
0.0
11
82.972950
21
208.485304
31
0.0
0
LINE
8
Calque 1
62
4
5
1c9
100
AcDbEntity
100
AcDbLine
10
82.972950
20
208.485304
30
0.0
11
84.208626
21
207.433527
31
0.0
0
LINE
8
Calque 1
62
4
5
1ca
100
AcDbEntity
100
AcDbLine
10
84.208626
20
207.433527
30
0.0
11
85.019061
21
206.901964
31
0.0
0
LINE
8
Calque 1
62
4
5
1cb
100
AcDbEntity
100
AcDbLine
10
85.019061
20
206.901964
30
0.0
11
85.526666
21
206.538501
31
0.0
0
LINE
8
Calque 1
62
4
5
1cc
100
AcDbEntity
100
AcDbLine
10
85.526666
20
206.538501
30
0.0
11
86.373332
21
205.836008
31
0.0
0
LINE
8
Calque 1
62
4
5
1cd
100
AcDbEntity
100
AcDbLine
10
86.373332
20
205.836008
30
0.0
11
87.219999
21
205.335870
31
0.0
0
LINE
8
Calque 1
62
4
5
1ce
100
AcDbEntity
100
AcDbLine
10
87.219999
20
205.335870
30
0.0
11
87.213903
21
206.974602
31
0.0
0
LINE
8
Calque 1
62
4
5
1cf
100
AcDbEntity
100
AcDbLine
10
87.213903
20
206.974602
30
0.0
11
87.045577
21
208.873884
31
0.0
0
LINE
8
Calque 1
62
4
5
1d0
100
AcDbEntity
100
AcDbLine
10
87.045577
20
208.873884
30
0.0
11
86.649458
21
211.139039
31
0.0
0
LINE
8
Calque 1
62
4
5
1d1
100
AcDbEntity
100
AcDbLine
10
86.649458
20
211.139039
30
0.0
11
86.255123
21
213.320806
31
0.0
0
LINE
8
Calque 1
62
4
5
1d2
100
AcDbEntity
100
AcDbLine
10
86.255123
20
213.320806
30
0.0
11
86.091110
21
215.019595
31
0.0
0
LINE
8
Calque 1
62
4
5
1d3
100
AcDbEntity
100
AcDbLine
10
86.091110
20
215.019595
30
0.0
11
86.198608
21
216.169139
31
0.0
0
LINE
8
Calque 1
62
4
5
1d4
100
AcDbEntity
100
AcDbLine
10
86.198608
20
216.169139
30
0.0
11
86.411560
21
216.339796
31
0.0
0
LINE
8
Calque 1
62
4
5
1d5
100
AcDbEntity
100
AcDbLine
10
86.411560
20
216.339796
30
0.0
11
86.800495
21
216.374448
31
0.0
0
LINE
8
Calque 1
62
4
5
1d6
100
AcDbEntity
100
AcDbLine
10
86.800495
20
216.374448
30
0.0
11
87.456215
21
216.277826
31
0.0
0
LINE
8
Calque 1
62
4
5
1d7
100
AcDbEntity
100
AcDbLine
10
87.456215
20
216.277826
30
0.0
11
88.036578
21
216.045521
31
0.0
0
LINE
8
Calque 1
62
4
5
1d8
100
AcDbEntity
100
AcDbLine
10
88.036578
20
216.045521
30
0.0
11
88.807786
21
215.883710
31
0.0
0
LINE
8
Calque 1
62
4
5
1d9
100
AcDbEntity
100
AcDbLine
10
88.807786
20
215.883710
30
0.0
11
90.273172
21
216.196363
31
0.0
0
LINE
8
Calque 1
62
4
5
1da
100
AcDbEntity
100
AcDbLine
10
90.273172
20
216.196363
30
0.0
11
92.300535
21
216.501903
31
0.0
0
LINE
8
Calque 1
62
4
5
1db
100
AcDbEntity
100
AcDbLine
10
92.300535
20
216.501903
30
0.0
11
93.071742
21
216.456490
31
0.0
0
LINE
8
Calque 1
62
4
5
1dc
100
AcDbEntity
100
AcDbLine
10
93.071742
20
216.456490
30
0.0
11
93.447828
21
216.273297
31
0.0
0
LINE
8
Calque 1
62
4
5
1dd
100
AcDbEntity
100
AcDbLine
10
93.447828
20
216.273297
30
0.0
11
93.608446
21
212.716202
31
0.0
0
LINE
8
Calque 1
62
4
5
1de
100
AcDbEntity
100
AcDbLine
10
93.608446
20
212.716202
30
0.0
11
93.948270
21
208.844996
31
0.0
0
LINE
8
Calque 1
62
4
5
1df
100
AcDbEntity
100
AcDbLine
10
93.948270
20
208.844996
30
0.0
11
94.085546
21
208.724479
31
0.0
0
LINE
8
Calque 1
62
4
5
1e0
100
AcDbEntity
100
AcDbLine
10
94.085546
20
208.724479
30
0.0
11
94.293439
21
208.751572
31
0.0
0
LINE
8
Calque 1
62
4
5
1e1
100
AcDbEntity
100
AcDbLine
10
94.293439
20
208.751572
30
0.0
11
94.987099
21
209.275980
31
0.0
0
LINE
8
Calque 1
62
4
5
1e2
100
AcDbEntity
100
AcDbLine
10
94.987099
20
209.275980
30
0.0
11
96.711475
21
210.614509
31
0.0
0
LINE
8
Calque 1
62
4
5
1e3
100
AcDbEntity
100
AcDbLine
10
96.711475
20
210.614509
30
0.0
11
97.364439
21
210.891406
31
0.0
0
LINE
8
Calque 1
62
4
5
1e4
100
AcDbEntity
100
AcDbLine
10
97.364439
20
210.891406
30
0.0
11
97.861476
21
210.897449
31
0.0
0
LINE
8
Calque 1
62
4
5
1e5
100
AcDbEntity
100
AcDbLine
10
97.861476
20
210.897449
30
0.0
11
98.759004
21
210.333289
31
0.0
0
LINE
8
Calque 1
62
4
5
1e6
100
AcDbEntity
100
AcDbLine
10
98.759004
20
210.333289
30
0.0
11
99.914909
21
209.299800
31
0.0
0
LINE
8
Calque 1
62
4
5
1e7
100
AcDbEntity
100
AcDbLine
10
99.914909
20
209.299800
30
0.0
11
100.945436
21
208.175675
31
0.0
0
LINE
8
Calque 1
62
4
5
1e8
100
AcDbEntity
100
AcDbLine
10
100.945436
20
208.175675
30
0.0
11
101.466833
21
207.339609
31
0.0
0
LINE
8
Calque 1
62
4
5
1e9
100
AcDbEntity
100
AcDbLine
10
101.466833
20
207.339609
30
0.0
11
101.483237
21
206.896956
31
0.0
0
LINE
8
Calque 1
62
4
5
1ea
100
AcDbEntity
100
AcDbLine
10
101.483237
20
206.896956
30
0.0
11
101.286704
21
206.350621
31
0.0
0
LINE
8
Calque 1
62
4
5
1eb
100
AcDbEntity
100
AcDbLine
10
101.286704
20
206.350621
30
0.0
11
100.037257
21
204.517386
31
0.0
0
LINE
8
Calque 1
62
4
5
1ec
100
AcDbEntity
100
AcDbLine
10
100.037257
20
204.517386
30
0.0
11
97.869036
21
201.781651
31
0.0
0
LINE
8
Calque 1
62
4
5
1ed
100
AcDbEntity
100
AcDbLine
10
97.869036
20
201.781651
30
0.0
11
97.304535
21
201.158855
31
0.0
0
LINE
8
Calque 1
62
4
5
1ee
100
AcDbEntity
100
AcDbLine
10
97.304535
20
201.158855
30
0.0
11
97.934227
21
199.523873
31
0.0
0
LINE
8
Calque 1
62
4
5
1ef
100
AcDbEntity
100
AcDbLine
10
97.934227
20
199.523873
30
0.0
11
98.800102
21
197.324448
31
0.0
0
LINE
8
Calque 1
62
4
5
1f0
100
AcDbEntity
100
AcDbLine
10
98.800102
20
197.324448
30
0.0
11
99.795103
21
194.423373
31
0.0
0
LINE
8
Calque 1
62
4
5
1f1
100
AcDbEntity
100
AcDbLine
10
99.795103
20
194.423373
30
0.0
11
100.202221
21
192.171759
31
0.0
0
LINE
8
Calque 1
62
4
5
1f2
100
AcDbEntity
100
AcDbLine
10
100.202221
20
192.171759
30
0.0
11
100.275566
21
191.304355
31
0.0
0
LINE
8
Calque 1
62
4
5
1f3
100
AcDbEntity
100
AcDbLine
10
100.275566
20
191.304355
30
0.0
11
100.451903
21
190.853448
31
0.0
0
LINE
8
Calque 1
62
4
5
1f4
100
AcDbEntity
100
AcDbLine
10
100.451903
20
190.853448
30
0.0
11
100.731598
21
190.240450
31
0.0
0
LINE
8
Calque 1
62
4
5
1f5
100
AcDbEntity
100
AcDbLine
10
100.731598
20
190.240450
30
0.0
11
101.069959
21
188.822924
31
0.0
0
LINE
8
Calque 1
62
4
5
1f6
100
AcDbEntity
100
AcDbLine
10
101.069959
20
188.822924
30
0.0
11
101.767519
21
184.342226
31
0.0
0
LINE
8
Calque 1
62
4
5
1f7
100
AcDbEntity
100
AcDbLine
10
101.767519
20
184.342226
30
0.0
11
102.233696
21
181.706753
31
0.0
0
LINE
8
Calque 1
62
4
5
1f8
100
AcDbEntity
100
AcDbLine
10
102.233696
20
181.706753
30
0.0
11
102.562104
21
180.200169
31
0.0
0
LINE
8
Calque 1
62
4
5
1f9
100
AcDbEntity
100
AcDbLine
10
102.562104
20
180.200169
30
0.0
11
103.569383
21
180.356060
31
0.0
0
LINE
8
Calque 1
62
4
5
1fa
100
AcDbEntity
100
AcDbLine
10
103.569383
20
180.356060
30
0.0
11
108.048103
21
180.872155
31
0.0
0
LINE
8
Calque 1
62
4
5
1fb
100
AcDbEntity
100
AcDbLine
10
108.048103
20
180.872155
30
0.0
11
112.301793
21
181.109593
31
0.0
0
LINE
8
Calque 1
62
4
5
1fc
100
AcDbEntity
100
AcDbLine
10
112.301793
20
181.109593
30
0.0
11
113.985817
21
181.081795
31
0.0
0
LINE
8
Calque 1
62
4
5
1fd
100
AcDbEntity
100
AcDbLine
10
113.985817
20
181.081795
30
0.0
11
115.559637
21
180.904688
31
0.0
0
LINE
8
Calque 1
62
4
5
1fe
100
AcDbEntity
100
AcDbLine
10
115.559637
20
180.904688
30
0.0
11
120.573453
21
179.738402
31
0.0
0
LINE
8
Calque 1
62
4
5
1ff
100
AcDbEntity
100
AcDbLine
10
120.573453
20
179.738402
30
0.0
11
125.512342
21
177.590787
31
0.0
0
LINE
8
Calque 1
62
4
5
200
100
AcDbEntity
100
AcDbLine
10
125.512342
20
177.590787
30
0.0
11
130.086294
21
175.355323
31
0.0
0
LINE
8
Calque 1
62
4
5
201
100
AcDbEntity
100
AcDbLine
10
130.086294
20
175.355323
30
0.0
11
130.620307
21
175.021655
31
0.0
0
LINE
8
Calque 1
62
4
5
202
100
AcDbEntity
100
AcDbLine
10
130.620307
20
175.021655
30
0.0
11
130.682221
21
174.840091
31
0.0
0
LINE
8
Calque 1
62
4
5
203
100
AcDbEntity
100
AcDbLine
10
130.682221
20
174.840091
30
0.0
11
130.849469
21
174.593596
31
0.0
0
LINE
8
Calque 1
62
4
5
204
100
AcDbEntity
100
AcDbLine
10
130.849469
20
174.593596
30
0.0
11
131.289431
21
174.675040
31
0.0
0
LINE
8
Calque 1
62
4
5
205
100
AcDbEntity
100
AcDbLine
10
131.289431
20
174.675040
30
0.0
11
131.909434
21
175.044960
31
0.0
0
LINE
8
Calque 1
62
4
5
206
100
AcDbEntity
100
AcDbLine
10
131.909434
20
175.044960
30
0.0
11
132.616804
21
175.663892
31
0.0
0
LINE
8
Calque 1
62
4
5
207
100
AcDbEntity
100
AcDbLine
10
132.616804
20
175.663892
30
0.0
11
134.368077
21
177.206029
31
0.0
0
LINE
8
Calque 1
62
4
5
208
100
AcDbEntity
100
AcDbLine
10
134.368077
20
177.206029
30
0.0
11
135.595535
21
177.992226
31
0.0
0
LINE
8
Calque 1
62
4
5
209
100
AcDbEntity
100
AcDbLine
10
135.595535
20
177.992226
30
0.0
11
136.947518
21
178.797174
31
0.0
0
LINE
8
Calque 1
62
4
5
20a
100
AcDbEntity
100
AcDbLine
10
136.947518
20
178.797174
30
0.0
11
139.995554
21
180.557343
31
0.0
0
LINE
8
Calque 1
62
4
5
20b
100
AcDbEntity
100
AcDbLine
10
139.995554
20
180.557343
30
0.0
11
144.087777
21
182.899480
31
0.0
0
LINE
8
Calque 1
62
4
5
20c
100
AcDbEntity
100
AcDbLine
10
144.087777
20
182.899480
30
0.0
11
149.198522
21
185.685132
31
0.0
0
LINE
8
Calque 1
62
4
5
20d
100
AcDbEntity
100
AcDbLine
10
149.198522
20
185.685132
30
0.0
11
153.824443
21
187.850886
31
0.0
0
LINE
8
Calque 1
62
4
5
20e
100
AcDbEntity
100
AcDbLine
10
153.824443
20
187.850886
30
0.0
11
155.376666
21
188.444408
31
0.0
0
LINE
8
Calque 1
62
4
5
20f
100
AcDbEntity
100
AcDbLine
10
155.376666
20
188.444408
30
0.0
11
157.553981
21
189.215834
31
0.0
0
LINE
8
Calque 1
62
4
5
210
100
AcDbEntity
100
AcDbLine
10
157.553981
20
189.215834
30
0.0
11
160.469592
21
190.048821
31
0.0
0
LINE
8
Calque 1
62
4
5
211
100
AcDbEntity
100
AcDbLine
10
160.469592
20
190.048821
30
0.0
11
167.512221
21
191.635599
31
0.0
0
LINE
8
Calque 1
62
4
5
212
100
AcDbEntity
100
AcDbLine
10
167.512221
20
191.635599
30
0.0
11
170.005668
21
191.866301
31
0.0
0
LINE
8
Calque 1
62
4
5
213
100
AcDbEntity
100
AcDbLine
10
170.005668
20
191.866301
30
0.0
11
173.448933
21
191.896807
31
0.0
0
LINE
8
Calque 1
62
4
5
214
100
AcDbEntity
100
AcDbLine
10
173.448933
20
191.896807
30
0.0
11
177.060601
21
191.740996
31
0.0
0
LINE
8
Calque 1
62
4
5
215
100
AcDbEntity
100
AcDbLine
10
177.060601
20
191.740996
30
0.0
11
180.059259
21
191.412748
31
0.0
0
LINE
8
Calque 1
62
4
5
216
100
AcDbEntity
100
AcDbLine
10
180.059259
20
191.412748
30
0.0
11
184.304443
21
190.694314
31
0.0
0
LINE
8
Calque 1
62
4
5
217
100
AcDbEntity
100
AcDbLine
10
184.304443
20
190.694314
30
0.0
11
187.229948
21
190.256571
31
0.0
0
LINE
8
Calque 1
62
4
5
218
100
AcDbEntity
100
AcDbLine
10
187.229948
20
190.256571
30
0.0
11
188.874483
21
189.943758
31
0.0
0
LINE
8
Calque 1
62
4
5
219
100
AcDbEntity
100
AcDbLine
10
188.874483
20
189.943758
30
0.0
11
190.679227
21
189.390951
31
0.0
0
LINE
8
Calque 1
62
4
5
21a
100
AcDbEntity
100
AcDbLine
10
190.679227
20
189.390951
30
0.0
11
195.002232
21
187.482222
31
0.0
0
LINE
8
Calque 1
62
4
5
21b
100
AcDbEntity
100
AcDbLine
10
195.002232
20
187.482222
30
0.0
11
198.366682
21
185.739163
31
0.0
0
LINE
8
Calque 1
62
4
5
21c
100
AcDbEntity
100
AcDbLine
10
198.366682
20
185.739163
30
0.0
11
200.546241
21
184.475411
31
0.0
0
LINE
8
Calque 1
62
4
5
21d
100
AcDbEntity
100
AcDbLine
10
200.546241
20
184.475411
30
0.0
11
201.936271
21
183.435853
31
0.0
0
LINE
8
Calque 1
62
4
5
21e
100
AcDbEntity
100
AcDbLine
10
201.936271
20
183.435853
30
0.0
11
202.932134
21
182.365380
31
0.0
0
LINE
8
Calque 1
62
4
5
21f
100
AcDbEntity
100
AcDbLine
10
202.932134
20
182.365380
30
0.0
11
203.589220
21
181.326634
31
0.0
0
LINE
8
Calque 1
62
4
5
220
100
AcDbEntity
100
AcDbLine
10
203.589220
20
181.326634
30
0.0
11
203.617638
21
180.445589
31
0.0
0
LINE
8
Calque 1
62
4
5
221
100
AcDbEntity
100
AcDbLine
10
203.617638
20
180.445589
30
0.0
11
203.447131
21
176.476433
31
0.0
0
LINE
8
Calque 1
62
4
5
222
100
AcDbEntity
100
AcDbLine
10
203.447131
20
176.476433
30
0.0
11
203.197643
21
170.231115
31
0.0
0
LINE
8
Calque 1
62
4
5
223
100
AcDbEntity
100
AcDbLine
10
203.197643
20
170.231115
30
0.0
11
202.856831
21
163.836374
31
0.0
0
LINE
8
Calque 1
62
4
5
224
100
AcDbEntity
100
AcDbLine
10
202.856831
20
163.836374
30
0.0
11
202.658645
21
154.547433
31
0.0
0
LINE
8
Calque 1
62
4
5
225
100
AcDbEntity
100
AcDbLine
10
202.658645
20
154.547433
30
0.0
11
202.697374
21
127.897781
31
0.0
0
LINE
8
Calque 1
62
4
5
226
100
AcDbEntity
100
AcDbLine
10
202.697374
20
127.897781
30
0.0
11
202.691477
21
121.570125
31
0.0
0
LINE
8
Calque 1
62
4
5
227
100
AcDbEntity
100
AcDbLine
10
202.691477
20
121.570125
30
0.0
11
202.556880
21
117.849874
31
0.0
0
LINE
8
Calque 1
62
4
5
228
100
AcDbEntity
100
AcDbLine
10
202.556880
20
117.849874
30
0.0
11
202.330634
21
115.986409
31
0.0
0
LINE
8
Calque 1
62
4
5
229
100
AcDbEntity
100
AcDbLine
10
202.330634
20
115.986409
30
0.0
11
200.443651
21
115.113583
31
0.0
0
LINE
8
Calque 1
62
4
5
22a
100
AcDbEntity
100
AcDbLine
10
200.443651
20
115.113583
30
0.0
11
197.115826
21
113.613964
31
0.0
0
LINE
8
Calque 1
62
4
5
22b
100
AcDbEntity
100
AcDbLine
10
197.115826
20
113.613964
30
0.0
11
194.582956
21
112.612966
31
0.0
0
LINE
8
Calque 1
62
4
5
22c
100
AcDbEntity
100
AcDbLine
10
194.582956
20
112.612966
30
0.0
11
192.145076
21
111.864193
31
0.0
0
LINE
8
Calque 1
62
4
5
22d
100
AcDbEntity
100
AcDbLine
10
192.145076
20
111.864193
30
0.0
11
189.102221
21
111.121248
31
0.0
0
LINE
8
Calque 1
62
4
5
22e
100
AcDbEntity
100
AcDbLine
10
189.102221
20
111.121248
30
0.0
11
186.562221
21
110.469817
31
0.0
0
LINE
8
Calque 1
62
4
5
22f
100
AcDbEntity
100
AcDbLine
10
186.562221
20
110.469817
30
0.0
11
185.249445
21
110.149762
31
0.0
0
LINE
8
Calque 1
62
4
5
230
100
AcDbEntity
100
AcDbLine
10
185.249445
20
110.149762
30
0.0
11
183.020705
21
109.824031
31
0.0
0
LINE
8
Calque 1
62
4
5
231
100
AcDbEntity
100
AcDbLine
10
183.020705
20
109.824031
30
0.0
11
176.543332
21
109.244569
31
0.0
0
LINE
8
Calque 1
62
4
5
232
100
AcDbEntity
100
AcDbLine
10
176.543332
20
109.244569
30
0.0
11
174.341204
21
109.227532
31
0.0
0
LINE
8
Calque 1
62
4
5
233
100
AcDbEntity
100
AcDbLine
10
174.341204
20
109.227532
30
0.0
11
171.472385
21
109.388000
31
0.0
0
LINE
8
Calque 1
62
4
5
234
100
AcDbEntity
100
AcDbLine
10
171.472385
20
109.388000
30
0.0
11
164.713714
21
110.111022
31
0.0
0
LINE
8
Calque 1
62
4
5
235
100
AcDbEntity
100
AcDbLine
10
164.713714
20
110.111022
30
0.0
11
158.225408
21
111.152776
31
0.0
0
LINE
8
Calque 1
62
4
5
236
100
AcDbEntity
100
AcDbLine
10
158.225408
20
111.152776
30
0.0
11
155.694544
21
111.711659
31
0.0
0
LINE
8
Calque 1
62
4
5
237
100
AcDbEntity
100
AcDbLine
10
155.694544
20
111.711659
30
0.0
11
153.965554
21
112.252403
31
0.0
0
LINE
8
Calque 1
62
4
5
238
100
AcDbEntity
100
AcDbLine
10
153.965554
20
112.252403
30
0.0
11
152.057134
21
112.923601
31
0.0
0
LINE
8
Calque 1
62
4
5
239
100
AcDbEntity
100
AcDbLine
10
152.057134
20
112.923601
30
0.0
11
145.624500
21
115.726885
31
0.0
0
LINE
8
Calque 1
62
4
5
23a
100
AcDbEntity
100
AcDbLine
10
145.624500
20
115.726885
30
0.0
11
142.044845
21
117.453186
31
0.0
0
LINE
8
Calque 1
62
4
5
23b
100
AcDbEntity
100
AcDbLine
10
142.044845
20
117.453186
30
0.0
11
140.277777
21
118.434582
31
0.0
0
LINE
8
Calque 1
62
4
5
23c
100
AcDbEntity
100
AcDbLine
10
140.277777
20
118.434582
30
0.0
11
138.302221
21
119.541543
31
0.0
0
LINE
8
Calque 1
62
4
5
23d
100
AcDbEntity
100
AcDbLine
10
138.302221
20
119.541543
30
0.0
11
136.708757
21
120.475211
31
0.0
0
LINE
8
Calque 1
62
4
5
23e
100
AcDbEntity
100
AcDbLine
10
136.708757
20
120.475211
30
0.0
11
135.453690
21
121.375987
31
0.0
0
LINE
8
Calque 1
62
4
5
23f
100
AcDbEntity
100
AcDbLine
10
135.453690
20
121.375987
30
0.0
11
133.638375
21
122.850720
31
0.0
0
LINE
8
Calque 1
62
4
5
240
100
AcDbEntity
100
AcDbLine
10
133.638375
20
122.850720
30
0.0
11
131.861052
21
123.903541
31
0.0
0
LINE
8
Calque 1
62
4
5
241
100
AcDbEntity
100
AcDbLine
10
131.861052
20
123.903541
30
0.0
11
130.916951
21
124.372686
31
0.0
0
LINE
8
Calque 1
62
4
5
242
100
AcDbEntity
100
AcDbLine
10
130.916951
20
124.372686
30
0.0
11
130.288037
21
124.487423
31
0.0
0
LINE
8
Calque 1
62
4
5
243
100
AcDbEntity
100
AcDbLine
10
130.288037
20
124.487423
30
0.0
11
129.727590
21
124.215057
31
0.0
0
LINE
8
Calque 1
62
4
5
244
100
AcDbEntity
100
AcDbLine
10
129.727590
20
124.215057
30
0.0
11
128.988888
21
123.522888
31
0.0
0
LINE
8
Calque 1
62
4
5
245
100
AcDbEntity
100
AcDbLine
10
128.988888
20
123.522888
30
0.0
11
128.071666
21
122.981309
31
0.0
0
LINE
8
Calque 1
62
4
5
246
100
AcDbEntity
100
AcDbLine
10
128.071666
20
122.981309
30
0.0
11
127.295554
21
122.346758
31
0.0
0
LINE
8
Calque 1
62
4
5
247
100
AcDbEntity
100
AcDbLine
10
127.295554
20
122.346758
30
0.0
11
127.191926
21
122.179276
31
0.0
0
LINE
8
Calque 1
62
4
5
248
100
AcDbEntity
100
AcDbLine
10
127.191926
20
122.179276
30
0.0
11
126.942777
21
122.105949
31
0.0
0
LINE
8
Calque 1
62
4
5
249
100
AcDbEntity
100
AcDbLine
10
126.942777
20
122.105949
30
0.0
11
125.884443
21
121.547781
31
0.0
0
LINE
8
Calque 1
62
4
5
24a
100
AcDbEntity
100
AcDbLine
10
125.884443
20
121.547781
30
0.0
11
125.206522
21
121.156164
31
0.0
0
LINE
8
Calque 1
62
4
5
24b
100
AcDbEntity
100
AcDbLine
10
125.206522
20
121.156164
30
0.0
11
124.567405
21
120.989613
31
0.0
0
LINE
8
Calque 1
62
4
5
24c
100
AcDbEntity
100
AcDbLine
10
124.567405
20
120.989613
30
0.0
11
124.107914
21
120.919650
31
0.0
0
LINE
8
Calque 1
62
4
5
24d
100
AcDbEntity
100
AcDbLine
10
124.107914
20
120.919650
30
0.0
11
123.861850
21
120.760243
31
0.0
0
LINE
8
Calque 1
62
4
5
24e
100
AcDbEntity
100
AcDbLine
10
123.861850
20
120.760243
30
0.0
11
122.351523
21
120.074690
31
0.0
0
LINE
8
Calque 1
62
4
5
24f
100
AcDbEntity
100
AcDbLine
10
122.351523
20
120.074690
30
0.0
11
119.675554
21
119.278351
31
0.0
0
LINE
8
Calque 1
62
4
5
250
100
AcDbEntity
100
AcDbLine
10
119.675554
20
119.278351
30
0.0
11
115.055280
21
118.348121
31
0.0
0
LINE
8
Calque 1
62
4
5
251
100
AcDbEntity
100
AcDbLine
10
115.055280
20
118.348121
30
0.0
11
111.184938
21
118.161115
31
0.0
0
LINE
8
Calque 1
62
4
5
252
100
AcDbEntity
100
AcDbLine
10
111.184938
20
118.161115
30
0.0
11
107.633002
21
118.161115
31
0.0
0
LINE
8
Calque 1
62
4
5
253
100
AcDbEntity
100
AcDbLine
10
107.633002
20
118.161115
30
0.0
11
105.559979
21
113.998337
31
0.0
0
LINE
8
Calque 1
62
4
5
254
100
AcDbEntity
100
AcDbLine
10
105.559979
20
113.998337
30
0.0
11
102.454930
21
108.283337
31
0.0
0
LINE
8
Calque 1
62
4
5
255
100
AcDbEntity
100
AcDbLine
10
102.454930
20
108.283337
30
0.0
11
101.120590
21
106.138152
31
0.0
0
LINE
8
Calque 1
62
4
5
256
100
AcDbEntity
100
AcDbLine
10
101.120590
20
106.138152
30
0.0
11
98.789188
21
101.933337
31
0.0
0
LINE
8
Calque 1
62
4
5
257
100
AcDbEntity
100
AcDbLine
10
98.789188
20
101.933337
30
0.0
11
97.616826
21
99.923136
31
0.0
0
LINE
8
Calque 1
62
4
5
258
100
AcDbEntity
100
AcDbLine
10
97.616826
20
99.923136
30
0.0
11
95.903255
21
96.715145
31
0.0
0
LINE
8
Calque 1
62
4
5
259
100
AcDbEntity
100
AcDbLine
10
95.903255
20
96.715145
30
0.0
11
94.557777
21
93.706037
31
0.0
0
LINE
8
Calque 1
62
4
5
25a
100
AcDbEntity
100
AcDbLine
10
94.557777
20
93.706037
30
0.0
11
94.723582
21
93.337156
31
0.0
0
LINE
8
Calque 1
62
4
5
25b
100
AcDbEntity
100
AcDbLine
10
94.723582
20
93.337156
30
0.0
11
95.122221
21
92.977842
31
0.0
0
LINE
8
Calque 1
62
4
5
25c
100
AcDbEntity
100
AcDbLine
10
95.122221
20
92.977842
30
0.0
11
95.520860
21
92.639244
31
0.0
0
LINE
8
Calque 1
62
4
5
25d
100
AcDbEntity
100
AcDbLine
10
95.520860
20
92.639244
30
0.0
11
95.686666
21
92.320171
31
0.0
0
LINE
8
Calque 1
62
4
5
25e
100
AcDbEntity
100
AcDbLine
10
95.686666
20
92.320171
30
0.0
11
97.521110
21
89.808500
31
0.0
0
LINE
8
Calque 1
62
4
5
25f
100
AcDbEntity
100
AcDbLine
10
97.521110
20
89.808500
30
0.0
11
99.355554
21
87.370755
31
0.0
0
LINE
8
Calque 1
62
4
5
260
100
AcDbEntity
100
AcDbLine
10
99.355554
20
87.370755
30
0.0
11
98.685161
21
86.493092
31
0.0
0
LINE
8
Calque 1
62
4
5
261
100
AcDbEntity
100
AcDbLine
10
98.685161
20
86.493092
30
0.0
11
98.156543
21
85.801435
31
0.0
0
LINE
8
Calque 1
62
4
5
262
100
AcDbEntity
100
AcDbLine
10
98.156543
20
85.801435
30
0.0
11
97.827016
21
85.046254
31
0.0
0
LINE
8
Calque 1
62
4
5
263
100
AcDbEntity
100
AcDbLine
10
97.827016
20
85.046254
30
0.0
11
97.515002
21
84.319407
31
0.0
0
LINE
8
Calque 1
62
4
5
264
100
AcDbEntity
100
AcDbLine
10
97.515002
20
84.319407
30
0.0
11
96.992424
21
83.619114
31
0.0
0
LINE
8
Calque 1
62
4
5
265
100
AcDbEntity
100
AcDbLine
10
96.992424
20
83.619114
30
0.0
11
96.392971
21
83.091662
31
0.0
0
LINE
8
Calque 1
62
4
5
266
100
AcDbEntity
100
AcDbLine
10
96.392971
20
83.091662
30
0.0
11
95.850335
21
82.883337
31
0.0
0
LINE
8
Calque 1
62
4
5
267
100
AcDbEntity
100
AcDbLine
10
95.850335
20
82.883337
30
0.0
11
95.308681
21
83.111319
31
0.0
0
LINE
8
Calque 1
62
4
5
268
100
AcDbEntity
100
AcDbLine
10
95.308681
20
83.111319
30
0.0
11
94.605224
21
83.659448
31
0.0
0
LINE
8
Calque 1
62
4
5
269
100
AcDbEntity
100
AcDbLine
10
94.605224
20
83.659448
30
0.0
11
92.349395
21
85.554448
31
0.0
0
LINE
8
Calque 1
62
4
5
26a
100
AcDbEntity
100
AcDbLine
10
92.349395
20
85.554448
30
0.0
11
90.809005
21
86.552226
31
0.0
0
LINE
8
Calque 1
62
4
5
26b
100
AcDbEntity
100
AcDbLine
10
90.809005
20
86.552226
30
0.0
11
90.324443
21
85.705559
31
0.0
0
LINE
8
Calque 1
62
4
5
26c
100
AcDbEntity
100
AcDbLine
10
90.324443
20
85.705559
30
0.0
11
89.780023
21
84.858892
31
0.0
0
LINE
8
Calque 1
62
4
5
26d
100
AcDbEntity
100
AcDbLine
10
89.780023
20
84.858892
30
0.0
11
87.805940
21
81.190003
31
0.0
0
LINE
8
Calque 1
62
4
5
26e
100
AcDbEntity
100
AcDbLine
10
87.805940
20
81.190003
30
0.0
11
86.350336
21
78.424545
31
0.0
0
LINE
8
Calque 1
62
4
5
26f
100
AcDbEntity
100
AcDbLine
10
86.350336
20
78.424545
30
0.0
11
85.876899
21
77.745740
31
0.0
0
LINE
8
Calque 1
62
4
5
270
100
AcDbEntity
100
AcDbLine
10
85.876899
20
77.745740
30
0.0
11
85.564455
21
77.522170
31
0.0
0
LINE
8
Calque 1
62
4
5
271
100
AcDbEntity
100
AcDbLine
10
85.564455
20
77.522170
30
0.0
11
84.179289
21
78.086615
31
0.0
0
LINE
8
Calque 1
62
4
5
272
100
AcDbEntity
100
AcDbLine
10
84.179289
20
78.086615
30
0.0
11
84.179289
21
78.086615
31
0.0
  0
ENDSEC
  0
SECTION
  2
OBJECTS
  0
DICTIONARY
  5
C
330
0
100
AcDbDictionary
  3
ACAD_GROUP
350
D
  3
ACAD_MLINESTYLE
350
17
  0
DICTIONARY
  5
D
330
C
100
AcDbDictionary
  0
DICTIONARY
  5
1A
330
C
100
AcDbDictionary
  0
DICTIONARY
  5
17
330
C
100
AcDbDictionary
  3
STANDARD
350
18
  0
DICTIONARY
  5
19
330
C
100
AcDbDictionary
  0
ENDSEC
  0
EOF
