   0
SECTION
   2
ENTITIES
   0
POLYLINE
   8
0
  66
 1
   6
Continuous
  10
 0.0
  20
 0.0
  30
 0.0
  70
 128
   0
VERTEX
   8
0
   6
Continuous
  10
 14.825644
  20
 96.737831
  30
 0.0
   0
VERTEX
   8
0
   6
Continuous
  10
 15.965400
  20
 96.887291
  30
 0.0
   0
VERTEX
   8
0
   6
Continuous
  10
 21.334152
  20
 95.327835
  30
 0.0
   0
VERTEX
   8
0
   6
Continuous
  10
 22.678047
  20
 95.375320
  30
 0.0
   0
VERTEX
   8
0
   6
Continuous
  10
 24.864771
  20
 96.277351
  30
 0.0
   0
VERTEX
   8
0
   6
Continuous
  10
 30.700523
  20
 99.032425
  30
 0.0
   0
VERTEX
   8
0
   6
Continuous
  10
 40.970882
  20
 104.180504
  30
 0.0
   0
VERTEX
   8
0
   6
Continuous
  10
 42.590218
  20
 104.629707
  30
 0.0
   0
VERTEX
   8
0
   6
Continuous
  10
 44.160114
  20
 104.680351
  30
 0.0
   0
VERTEX
   8
0
   6
Continuous
  10
 50.449196
  20
 103.111397
  30
 0.0
   0
VERTEX
   8
0
   6
Continuous
  10
 53.644852
  20
 102.430664
  30
 0.0
   0
VERTEX
   8
0
   6
Continuous
  10
 54.453636
  20
 102.459305
  30
 0.0
   0
VERTEX
   8
0
   6
Continuous
  10
 54.514679
  20
 102.652519
  30
 0.0
   0
VERTEX
   8
0
   6
Continuous
  10
 53.132496
  20
 105.476395
  30
 0.0
   0
VERTEX
   8
0
   6
Continuous
  10
 53.196445
  20
 105.916183
  30
 0.0
   0
VERTEX
   8
0
   6
Continuous
  10
 53.512867
  20
 106.159256
  30
 0.0
   0
VERTEX
   8
0
   6
Continuous
  10
 54.752773
  20
 106.151375
  30
 0.0
   0
VERTEX
   8
0
   6
Continuous
  10
 56.403442
  20
 105.856407
  30
 0.0
   0
VERTEX
   8
0
   6
Continuous
  10
 56.845520
  20
 105.969521
  30
 0.0
   0
VERTEX
   8
0
   6
Continuous
  10
 56.681301
  20
 106.761459
  30
 0.0
   0
VERTEX
   8
0
   6
Continuous
  10
 56.627022
  20
 107.508987
  30
 0.0
   0
VERTEX
   8
0
   6
Continuous
  10
 56.984322
  20
 109.936531
  30
 0.0
   0
VERTEX
   8
0
   6
Continuous
  10
 57.217621
  20
 110.449776
  30
 0.0
   0
VERTEX
   8
0
   6
Continuous
  10
 57.658295
  20
 110.637909
  30
 0.0
   0
VERTEX
   8
0
   6
Continuous
  10
 58.891464
  20
 110.510674
  30
 0.0
   0
VERTEX
   8
0
   6
Continuous
  10
 60.977352
  20
 109.584740
  30
 0.0
   0
VERTEX
   8
0
   6
Continuous
  10
 62.488914
  20
 108.549980
  30
 0.0
   0
VERTEX
   8
0
   6
Continuous
  10
 62.870193
  20
 108.475708
  30
 0.0
   0
VERTEX
   8
0
   6
Continuous
  10
 63.151745
  20
 108.841957
  30
 0.0
   0
VERTEX
   8
0
   6
Continuous
  10
 63.602097
  20
 110.232628
  30
 0.0
   0
VERTEX
   8
0
   6
Continuous
  10
 64.047562
  20
 112.784790
  30
 0.0
   0
VERTEX
   8
0
   6
Continuous
  10
 64.134842
  20
 113.822350
  30
 0.0
   0
VERTEX
   8
0
   6
Continuous
  10
 64.401283
  20
 115.243469
  30
 0.0
   0
VERTEX
   8
0
   6
Continuous
  10
 64.829315
  20
 115.690140
  30
 0.0
   0
VERTEX
   8
0
   6
Continuous
  10
 65.312035
  20
 115.687714
  30
 0.0
   0
VERTEX
   8
0
   6
Continuous
  10
 66.567047
  20
 114.793900
  30
 0.0
   0
VERTEX
   8
0
   6
Continuous
  10
 69.153084
  20
 112.439865
  30
 0.0
   0
VERTEX
   8
0
   6
Continuous
  10
 69.656967
  20
 112.228050
  30
 0.0
   0
VERTEX
   8
0
   6
Continuous
  10
 70.381058
  20
 112.992210
  30
 0.0
   0
VERTEX
   8
0
   6
Continuous
  10
 72.425629
  20
 115.672394
  30
 0.0
   0
VERTEX
   8
0
   6
Continuous
  10
 73.545135
  20
 116.620995
  30
 0.0
   0
VERTEX
   8
0
   6
Continuous
  10
 74.198318
  20
 116.798759
  30
 0.0
   0
VERTEX
   8
0
   6
Continuous
  10
 74.696442
  20
 116.616028
  30
 0.0
   0
VERTEX
   8
0
   6
Continuous
  10
 75.515381
  20
 115.632210
  30
 0.0
   0
VERTEX
   8
0
   6
Continuous
  10
 77.005592
  20
 112.454178
  30
 0.0
   0
VERTEX
   8
0
   6
Continuous
  10
 77.324074
  20
 112.162376
  30
 0.0
   0
VERTEX
   8
0
   6
Continuous
  10
 77.601387
  20
 112.159470
  30
 0.0
   0
VERTEX
   8
0
   6
Continuous
  10
 78.784042
  20
 113.391861
  30
 0.0
   0
VERTEX
   8
0
   6
Continuous
  10
 80.945244
  20
 115.146736
  30
 0.0
   0
VERTEX
   8
0
   6
Continuous
  10
 81.199898
  20
 115.109871
  30
 0.0
   0
VERTEX
   8
0
   6
Continuous
  10
 81.358139
  20
 114.559898
  30
 0.0
   0
VERTEX
   8
0
   6
Continuous
  10
 81.593712
  20
 113.172646
  30
 0.0
   0
VERTEX
   8
0
   6
Continuous
  10
 81.706337
  20
 113.197357
  30
 0.0
   0
VERTEX
   8
0
   6
Continuous
  10
 82.693886
  20
 119.582771
  30
 0.0
   0
VERTEX
   8
0
   6
Continuous
  10
 83.225647
  20
 121.592354
  30
 0.0
   0
VERTEX
   8
0
   6
Continuous
  10
 84.012970
  20
 123.590347
  30
 0.0
   0
VERTEX
   8
0
   6
Continuous
  10
 84.823051
  20
 124.555893
  30
 0.0
   0
VERTEX
   8
0
   6
Continuous
  10
 85.427948
  20
 124.898117
  30
 0.0
   0
VERTEX
   8
0
   6
Continuous
  10
 87.779282
  20
 125.411720
  30
 0.0
   0
VERTEX
   8
0
   6
Continuous
  10
 93.599350
  20
 127.097610
  30
 0.0
   0
VERTEX
   8
0
   6
Continuous
  10
 96.090736
  20
 127.927536
  30
 0.0
   0
VERTEX
   8
0
   6
Continuous
  10
 98.494522
  20
 128.904694
  30
 0.0
   0
VERTEX
   8
0
   6
Continuous
  10
 100.352608
  20
 129.952927
  30
 0.0
   0
VERTEX
   8
0
   6
Continuous
  10
 101.472794
  20
 131.308228
  30
 0.0
   0
VERTEX
   8
0
   6
Continuous
  10
 102.713135
  20
 133.925247
  30
 0.0
   0
VERTEX
   8
0
   6
Continuous
  10
 104.165192
  20
 135.871231
  30
 0.0
   0
VERTEX
   8
0
   6
Continuous
  10
 105.767715
  20
 137.119873
  30
 0.0
   0
VERTEX
   8
0
   6
Continuous
  10
 107.094048
  20
 137.706085
  30
 0.0
   0
VERTEX
   8
0
   6
Continuous
  10
 107.795868
  20
 137.767899
  30
 0.0
   0
VERTEX
   8
0
   6
Continuous
  10
 108.336479
  20
 137.475464
  30
 0.0
   0
VERTEX
   8
0
   6
Continuous
  10
 108.924271
  20
 136.578339
  30
 0.0
   0
VERTEX
   8
0
   6
Continuous
  10
 109.077408
  20
 133.810989
  30
 0.0
   0
VERTEX
   8
0
   6
Continuous
  10
 109.047256
  20
 132.341446
  30
 0.0
   0
VERTEX
   8
0
   6
Continuous
  10
 109.089859
  20
 131.069489
  30
 0.0
   0
VERTEX
   8
0
   6
Continuous
  10
 109.073647
  20
 128.105148
  30
 0.0
   0
VERTEX
   8
0
   6
Continuous
  10
 108.772278
  20
 127.354416
  30
 0.0
   0
VERTEX
   8
0
   6
Continuous
  10
 107.299469
  20
 126.524529
  30
 0.0
   0
VERTEX
   8
0
   6
Continuous
  10
 98.355080
  20
 123.014557
  30
 0.0
   0
VERTEX
   8
0
   6
Continuous
  10
 94.709023
  20
 121.187576
  30
 0.0
   0
VERTEX
   8
0
   6
Continuous
  10
 92.699646
  20
 120.004372
  30
 0.0
   0
VERTEX
   8
0
   6
Continuous
  10
 90.976830
  20
 118.589691
  30
 0.0
   0
VERTEX
   8
0
   6
Continuous
  10
 89.949493
  20
 117.619164
  30
 0.0
   0
VERTEX
   8
0
   6
Continuous
  10
 88.931656
  20
 115.804260
  30
 0.0
   0
VERTEX
   8
0
   6
Continuous
  10
 87.940186
  20
 112.116898
  30
 0.0
   0
VERTEX
   8
0
   6
Continuous
  10
 88.445236
  20
 110.941719
  30
 0.0
   0
VERTEX
   8
0
   6
Continuous
  10
 88.588867
  20
 108.597565
  30
 0.0
   0
VERTEX
   8
0
   6
Continuous
  10
 89.240669
  20
 106.275688
  30
 0.0
   0
VERTEX
   8
0
   6
Continuous
  10
 89.491051
  20
 105.923882
  30
 0.0
   0
VERTEX
   8
0
   6
Continuous
  10
 90.290283
  20
 105.966476
  30
 0.0
   0
VERTEX
   8
0
   6
Continuous
  10
 92.897888
  20
 105.973175
  30
 0.0
   0
VERTEX
   8
0
   6
Continuous
  10
 93.543365
  20
 106.322639
  30
 0.0
   0
VERTEX
   8
0
   6
Continuous
  10
 96.802338
  20
 110.251091
  30
 0.0
   0
VERTEX
   8
0
   6
Continuous
  10
 98.204460
  20
 111.521088
  30
 0.0
   0
VERTEX
   8
0
   6
Continuous
  10
 98.980690
  20
 111.860115
  30
 0.0
   0
VERTEX
   8
0
   6
Continuous
  10
 106.554085
  20
 110.584259
  30
 0.0
   0
VERTEX
   8
0
   6
Continuous
  10
 107.676071
  20
 110.361877
  30
 0.0
   0
VERTEX
   8
0
   6
Continuous
  10
 111.532379
  20
 109.414818
  30
 0.0
   0
VERTEX
   8
0
   6
Continuous
  10
 116.638512
  20
 108.454910
  30
 0.0
   0
VERTEX
   8
0
   6
Continuous
  10
 120.952950
  20
 107.874001
  30
 0.0
   0
VERTEX
   8
0
   6
Continuous
  10
 124.199249
  20
 107.644310
  30
 0.0
   0
VERTEX
   8
0
   6
Continuous
  10
 126.703400
  20
 108.009979
  30
 0.0
   0
VERTEX
   8
0
   6
Continuous
  10
 128.137177
  20
 108.719284
  30
 0.0
   0
VERTEX
   8
0
   6
Continuous
  10
 130.826645
  20
 111.267914
  30
 0.0
   0
VERTEX
   8
0
   6
Continuous
  10
 132.139542
  20
 111.893875
  30
 0.0
   0
VERTEX
   8
0
   6
Continuous
  10
 133.535812
  20
 112.213242
  30
 0.0
   0
VERTEX
   8
0
   6
Continuous
  10
 134.564957
  20
 112.095215
  30
 0.0
   0
VERTEX
   8
0
   6
Continuous
  10
 135.008057
  20
 111.750618
  30
 0.0
   0
VERTEX
   8
0
   6
Continuous
  10
 135.247894
  20
 111.103096
  30
 0.0
   0
VERTEX
   8
0
   6
Continuous
  10
 135.209579
  20
 109.946274
  30
 0.0
   0
VERTEX
   8
0
   6
Continuous
  10
 134.186996
  20
 106.130310
  30
 0.0
   0
VERTEX
   8
0
   6
Continuous
  10
 133.024689
  20
 103.182899
  30
 0.0
   0
VERTEX
   8
0
   6
Continuous
  10
 132.297943
  20
 102.051971
  30
 0.0
   0
VERTEX
   8
0
   6
Continuous
  10
 131.189819
  20
 101.173988
  30
 0.0
   0
VERTEX
   8
0
   6
Continuous
  10
 130.178894
  20
 100.880135
  30
 0.0
   0
VERTEX
   8
0
   6
Continuous
  10
 128.816162
  20
 100.816742
  30
 0.0
   0
VERTEX
   8
0
   6
Continuous
  10
 126.151390
  20
 101.230728
  30
 0.0
   0
VERTEX
   8
0
   6
Continuous
  10
 122.802864
  20
 102.056007
  30
 0.0
   0
VERTEX
   8
0
   6
Continuous
  10
 117.886986
  20
 102.852600
  30
 0.0
   0
VERTEX
   8
0
   6
Continuous
  10
 107.922318
  20
 104.191223
  30
 0.0
   0
VERTEX
   8
0
   6
Continuous
  10
 102.018951
  20
 104.903130
  30
 0.0
   0
VERTEX
   8
0
   6
Continuous
  10
 100.811455
  20
 104.769241
  30
 0.0
   0
VERTEX
   8
0
   6
Continuous
  10
 100.212997
  20
 104.251678
  30
 0.0
   0
VERTEX
   8
0
   6
Continuous
  10
 98.235802
  20
 101.454170
  30
 0.0
   0
VERTEX
   8
0
   6
Continuous
  10
 95.567390
  20
 96.998177
  30
 0.0
   0
VERTEX
   8
0
   6
Continuous
  10
 95.601402
  20
 96.738899
  30
 0.0
   0
VERTEX
   8
0
   6
Continuous
  10
 97.061981
  20
 96.616341
  30
 0.0
   0
VERTEX
   8
0
   6
Continuous
  10
 98.758217
  20
 96.929756
  30
 0.0
   0
VERTEX
   8
0
   6
Continuous
  10
 99.708939
  20
 97.045662
  30
 0.0
   0
VERTEX
   8
0
   6
Continuous
  10
 99.957794
  20
 96.793449
  30
 0.0
   0
VERTEX
   8
0
   6
Continuous
  10
 99.836525
  20
 95.892593
  30
 0.0
   0
VERTEX
   8
0
   6
Continuous
  10
 99.187477
  20
 93.799210
  30
 0.0
   0
VERTEX
   8
0
   6
Continuous
  10
 98.884773
  20
 91.787483
  30
 0.0
   0
VERTEX
   8
0
   6
Continuous
  10
 98.835449
  20
 90.601997
  30
 0.0
   0
VERTEX
   8
0
   6
Continuous
  10
 98.993248
  20
 90.178566
  30
 0.0
   0
VERTEX
   8
0
   6
Continuous
  10
 100.864326
  20
 89.611298
  30
 0.0
   0
VERTEX
   8
0
   6
Continuous
  10
 101.409248
  20
 89.820450
  30
 0.0
   0
VERTEX
   8
0
   6
Continuous
  10
 103.852150
  20
 91.768646
  30
 0.0
   0
VERTEX
   8
0
   6
Continuous
  10
 105.245789
  20
 92.497742
  30
 0.0
   0
VERTEX
   8
0
   6
Continuous
  10
 109.376556
  20
 96.565216
  30
 0.0
   0
VERTEX
   8
0
   6
Continuous
  10
 110.851204
  20
 97.765778
  30
 0.0
   0
VERTEX
   8
0
   6
Continuous
  10
 111.846672
  20
 98.274200
  30
 0.0
   0
VERTEX
   8
0
   6
Continuous
  10
 113.081619
  20
 98.440338
  30
 0.0
   0
VERTEX
   8
0
   6
Continuous
  10
 114.441025
  20
 98.161613
  30
 0.0
   0
VERTEX
   8
0
   6
Continuous
  10
 118.382477
  20
 96.115334
  30
 0.0
   0
VERTEX
   8
0
   6
Continuous
  10
 121.675285
  20
 93.863159
  30
 0.0
   0
VERTEX
   8
0
   6
Continuous
  10
 128.950790
  20
 89.003395
  30
 0.0
   0
VERTEX
   8
0
   6
Continuous
  10
 135.240891
  20
 84.654907
  30
 0.0
   0
VERTEX
   8
0
   6
Continuous
  10
 138.518616
  20
 82.268875
  30
 0.0
   0
VERTEX
   8
0
   6
Continuous
  10
 139.792831
  20
 81.543633
  30
 0.0
   0
VERTEX
   8
0
   6
Continuous
  10
 140.805725
  20
 81.277321
  30
 0.0
   0
VERTEX
   8
0
   6
Continuous
  10
 145.342041
  20
 81.744926
  30
 0.0
   0
VERTEX
   8
0
   6
Continuous
  10
 147.489624
  20
 81.368454
  30
 0.0
   0
VERTEX
   8
0
   6
Continuous
  10
 148.559586
  20
 80.865585
  30
 0.0
   0
VERTEX
   8
0
   6
Continuous
  10
 148.830811
  20
 80.376198
  30
 0.0
   0
VERTEX
   8
0
   6
Continuous
  10
 148.942093
  20
 79.757469
  30
 0.0
   0
VERTEX
   8
0
   6
Continuous
  10
 148.557388
  20
 78.839882
  30
 0.0
   0
VERTEX
   8
0
   6
Continuous
  10
 147.965790
  20
 78.210968
  30
 0.0
   0
VERTEX
   8
0
   6
Continuous
  10
 146.458633
  20
 76.908569
  30
 0.0
   0
VERTEX
   8
0
   6
Continuous
  10
 144.685043
  20
 75.888092
  30
 0.0
   0
VERTEX
   8
0
   6
Continuous
  10
 142.568802
  20
 75.262512
  30
 0.0
   0
VERTEX
   8
0
   6
Continuous
  10
 141.081741
  20
 75.372093
  30
 0.0
   0
VERTEX
   8
0
   6
Continuous
  10
 139.587662
  20
 75.996628
  30
 0.0
   0
VERTEX
   8
0
   6
Continuous
  10
 137.052414
  20
 77.564919
  30
 0.0
   0
VERTEX
   8
0
   6
Continuous
  10
 131.846481
  20
 81.353279
  30
 0.0
   0
VERTEX
   8
0
   6
Continuous
  10
 130.009109
  20
 82.635612
  30
 0.0
   0
VERTEX
   8
0
   6
Continuous
  10
 127.267899
  20
 84.227310
  30
 0.0
   0
VERTEX
   8
0
   6
Continuous
  10
 125.008484
  20
 85.465759
  30
 0.0
   0
VERTEX
   8
0
   6
Continuous
  10
 122.044258
  20
 86.927963
  30
 0.0
   0
VERTEX
   8
0
   6
Continuous
  10
 117.322281
  20
 89.453041
  30
 0.0
   0
VERTEX
   8
0
   6
Continuous
  10
 115.245781
  20
 90.462708
  30
 0.0
   0
VERTEX
   8
0
   6
Continuous
  10
 113.921379
  20
 90.716179
  30
 0.0
   0
VERTEX
   8
0
   6
Continuous
  10
 112.968094
  20
 90.674644
  30
 0.0
   0
VERTEX
   8
0
   6
Continuous
  10
 110.933449
  20
 90.133209
  30
 0.0
   0
VERTEX
   8
0
   6
Continuous
  10
 108.696037
  20
 88.779099
  30
 0.0
   0
VERTEX
   8
0
   6
Continuous
  10
 106.940659
  20
 87.214081
  30
 0.0
   0
VERTEX
   8
0
   6
Continuous
  10
 102.857605
  20
 83.841026
  30
 0.0
   0
VERTEX
   8
0
   6
Continuous
  10
 102.737770
  20
 83.518845
  30
 0.0
   0
VERTEX
   8
0
   6
Continuous
  10
 102.975288
  20
 83.234138
  30
 0.0
   0
VERTEX
   8
0
   6
Continuous
  10
 104.934761
  20
 82.207954
  30
 0.0
   0
VERTEX
   8
0
   6
Continuous
  10
 106.036171
  20
 81.534317
  30
 0.0
   0
VERTEX
   8
0
   6
Continuous
  10
 106.297508
  20
 81.106529
  30
 0.0
   0
VERTEX
   8
0
   6
Continuous
  10
 106.153603
  20
 80.721092
  30
 0.0
   0
VERTEX
   8
0
   6
Continuous
  10
 104.993942
  20
 79.864426
  30
 0.0
   0
VERTEX
   8
0
   6
Continuous
  10
 103.704964
  20
 78.754562
  30
 0.0
   0
VERTEX
   8
0
   6
Continuous
  10
 102.774277
  20
 77.341415
  30
 0.0
   0
VERTEX
   8
0
   6
Continuous
  10
 102.772812
  20
 76.986229
  30
 0.0
   0
VERTEX
   8
0
   6
Continuous
  10
 103.400543
  20
 76.545517
  30
 0.0
   0
VERTEX
   8
0
   6
Continuous
  10
 104.558235
  20
 76.235474
  30
 0.0
   0
VERTEX
   8
0
   6
Continuous
  10
 105.062744
  20
 76.603317
  30
 0.0
   0
VERTEX
   8
0
   6
Continuous
  10
 105.998863
  20
 77.799423
  30
 0.0
   0
VERTEX
   8
0
   6
Continuous
  10
 108.357437
  20
 80.422012
  30
 0.0
   0
VERTEX
   8
0
   6
Continuous
  10
 110.740082
  20
 82.511948
  30
 0.0
   0
VERTEX
   8
0
   6
Continuous
  10
 111.819229
  20
 83.156776
  30
 0.0
   0
VERTEX
   8
0
   6
Continuous
  10
 112.572014
  20
 83.361259
  30
 0.0
   0
VERTEX
   8
0
   6
Continuous
  10
 113.672874
  20
 83.101021
  30
 0.0
   0
VERTEX
   8
0
   6
Continuous
  10
 114.304733
  20
 82.852913
  30
 0.0
   0
VERTEX
   8
0
   6
Continuous
  10
 115.500458
  20
 82.509125
  30
 0.0
   0
VERTEX
   8
0
   6
Continuous
  10
 117.568642
  20
 81.424698
  30
 0.0
   0
VERTEX
   8
0
   6
Continuous
  10
 119.590324
  20
 79.925323
  30
 0.0
   0
VERTEX
   8
0
   6
Continuous
  10
 121.526810
  20
 78.597641
  30
 0.0
   0
VERTEX
   8
0
   6
Continuous
  10
 123.649933
  20
 77.073265
  30
 0.0
   0
VERTEX
   8
0
   6
Continuous
  10
 130.270157
  20
 71.949966
  30
 0.0
   0
VERTEX
   8
0
   6
Continuous
  10
 131.688751
  20
 70.651947
  30
 0.0
   0
VERTEX
   8
0
   6
Continuous
  10
 132.735306
  20
 69.756752
  30
 0.0
   0
VERTEX
   8
0
   6
Continuous
  10
 133.597763
  20
 69.251053
  30
 0.0
   0
VERTEX
   8
0
   6
Continuous
  10
 134.018585
  20
 68.791794
  30
 0.0
   0
VERTEX
   8
0
   6
Continuous
  10
 134.926727
  20
 67.993599
  30
 0.0
   0
VERTEX
   8
0
   6
Continuous
  10
 135.408463
  20
 67.956932
  30
 0.0
   0
VERTEX
   8
0
   6
Continuous
  10
 136.251846
  20
 67.639435
  30
 0.0
   0
VERTEX
   8
0
   6
Continuous
  10
 137.233307
  20
 67.105598
  30
 0.0
   0
VERTEX
   8
0
   6
Continuous
  10
 137.832336
  20
 66.995575
  30
 0.0
   0
VERTEX
   8
0
   6
Continuous
  10
 138.893829
  20
 67.023865
  30
 0.0
   0
VERTEX
   8
0
   6
Continuous
  10
 139.892868
  20
 66.633362
  30
 0.0
   0
VERTEX
   8
0
   6
Continuous
  10
 141.247635
  20
 66.626457
  30
 0.0
   0
VERTEX
   8
0
   6
Continuous
  10
 141.970032
  20
 66.558868
  30
 0.0
   0
VERTEX
   8
0
   6
Continuous
  10
 143.464462
  20
 65.938431
  30
 0.0
   0
VERTEX
   8
0
   6
Continuous
  10
 144.577057
  20
 64.886673
  30
 0.0
   0
VERTEX
   8
0
   6
Continuous
  10
 144.756989
  20
 64.365601
  30
 0.0
   0
VERTEX
   8
0
   6
Continuous
  10
 144.549759
  20
 63.877254
  30
 0.0
   0
VERTEX
   8
0
   6
Continuous
  10
 143.785538
  20
 63.179504
  30
 0.0
   0
VERTEX
   8
0
   6
Continuous
  10
 141.934372
  20
 62.522942
  30
 0.0
   0
VERTEX
   8
0
   6
Continuous
  10
 140.439728
  20
 62.213295
  30
 0.0
   0
VERTEX
   8
0
   6
Continuous
  10
 136.594452
  20
 61.750591
  30
 0.0
   0
VERTEX
   8
0
   6
Continuous
  10
 135.697006
  20
 61.767010
  30
 0.0
   0
VERTEX
   8
0
   6
Continuous
  10
 134.496277
  20
 62.215279
  30
 0.0
   0
VERTEX
   8
0
   6
Continuous
  10
 131.903152
  20
 64.197060
  30
 0.0
   0
VERTEX
   8
0
   6
Continuous
  10
 127.741753
  20
 68.001778
  30
 0.0
   0
VERTEX
   8
0
   6
Continuous
  10
 125.364922
  20
 70.052689
  30
 0.0
   0
VERTEX
   8
0
   6
Continuous
  10
 123.527397
  20
 71.333786
  30
 0.0
   0
VERTEX
   8
0
   6
Continuous
  10
 121.187378
  20
 72.784073
  30
 0.0
   0
VERTEX
   8
0
   6
Continuous
  10
 118.433708
  20
 74.263596
  30
 0.0
   0
VERTEX
   8
0
   6
Continuous
  10
 115.829544
  20
 75.217377
  30
 0.0
   0
VERTEX
   8
0
   6
Continuous
  10
 113.293037
  20
 75.802505
  30
 0.0
   0
VERTEX
   8
0
   6
Continuous
  10
 112.444366
  20
 75.718010
  30
 0.0
   0
VERTEX
   8
0
   6
Continuous
  10
 111.207535
  20
 75.064499
  30
 0.0
   0
VERTEX
   8
0
   6
Continuous
  10
 110.121910
  20
 73.882179
  30
 0.0
   0
VERTEX
   8
0
   6
Continuous
  10
 108.696350
  20
 72.141953
  30
 0.0
   0
VERTEX
   8
0
   6
Continuous
  10
 106.377075
  20
 69.531715
  30
 0.0
   0
VERTEX
   8
0
   6
Continuous
  10
 106.379585
  20
 68.870293
  30
 0.0
   0
VERTEX
   8
0
   6
Continuous
  10
 105.375099
  20
 67.694313
  30
 0.0
   0
VERTEX
   8
0
   6
Continuous
  10
 103.858330
  20
 66.457779
  30
 0.0
   0
VERTEX
   8
0
   6
Continuous
  10
 103.340294
  20
 65.856277
  30
 0.0
   0
VERTEX
   8
0
   6
Continuous
  10
 103.337029
  20
 65.494492
  30
 0.0
   0
VERTEX
   8
0
   6
Continuous
  10
 106.051720
  20
 62.869011
  30
 0.0
   0
VERTEX
   8
0
   6
Continuous
  10
 106.221245
  20
 62.395317
  30
 0.0
   0
VERTEX
   8
0
   6
Continuous
  10
 105.909233
  20
 61.977436
  30
 0.0
   0
VERTEX
   8
0
   6
Continuous
  10
 104.551369
  20
 61.121731
  30
 0.0
   0
VERTEX
   8
0
   6
Continuous
  10
 102.105927
  20
 60.088905
  30
 0.0
   0
VERTEX
   8
0
   6
Continuous
  10
 101.250366
  20
 60.602047
  30
 0.0
   0
VERTEX
   8
0
   6
Continuous
  10
 99.210190
  20
 60.923843
  30
 0.0
   0
VERTEX
   8
0
   6
Continuous
  10
 98.224724
  20
 61.122490
  30
 0.0
   0
VERTEX
   8
0
   6
Continuous
  10
 97.362328
  20
 61.105766
  30
 0.0
   0
VERTEX
   8
0
   6
Continuous
  10
 97.056610
  20
 61.201530
  30
 0.0
   0
VERTEX
   8
0
   6
Continuous
  10
 96.514648
  20
 63.104134
  30
 0.0
   0
VERTEX
   8
0
   6
Continuous
  10
 95.466980
  20
 64.876793
  30
 0.0
   0
VERTEX
   8
0
   6
Continuous
  10
 94.852570
  20
 65.770828
  30
 0.0
   0
VERTEX
   8
0
   6
Continuous
  10
 92.508217
  20
 67.755623
  30
 0.0
   0
VERTEX
   8
0
   6
Continuous
  10
 92.093132
  20
 67.914894
  30
 0.0
   0
VERTEX
   8
0
   6
Continuous
  10
 91.861076
  20
 67.727104
  30
 0.0
   0
VERTEX
   8
0
   6
Continuous
  10
 91.917221
  20
 67.213791
  30
 0.0
   0
VERTEX
   8
0
   6
Continuous
  10
 92.179939
  20
 65.796021
  30
 0.0
   0
VERTEX
   8
0
   6
Continuous
  10
 91.914879
  20
 64.896408
  30
 0.0
   0
VERTEX
   8
0
   6
Continuous
  10
 90.947647
  20
 64.069550
  30
 0.0
   0
VERTEX
   8
0
   6
Continuous
  10
 89.598694
  20
 63.551235
  30
 0.0
   0
VERTEX
   8
0
   6
Continuous
  10
 87.831398
  20
 63.599133
  30
 0.0
   0
VERTEX
   8
0
   6
Continuous
  10
 87.142799
  20
 63.943707
  30
 0.0
   0
VERTEX
   8
0
   6
Continuous
  10
 86.307312
  20
 65.057838
  30
 0.0
   0
VERTEX
   8
0
   6
Continuous
  10
 86.181358
  20
 65.034935
  30
 0.0
   0
VERTEX
   8
0
   6
Continuous
  10
 86.044312
  20
 63.550438
  30
 0.0
   0
VERTEX
   8
0
   6
Continuous
  10
 86.401787
  20
 62.220596
  30
 0.0
   0
VERTEX
   8
0
   6
Continuous
  10
 87.545586
  20
 59.802113
  30
 0.0
   0
VERTEX
   8
0
   6
Continuous
  10
 88.536232
  20
 58.728386
  30
 0.0
   0
VERTEX
   8
0
   6
Continuous
  10
 89.603355
  20
 58.015930
  30
 0.0
   0
VERTEX
   8
0
   6
Continuous
  10
 91.780014
  20
 57.121113
  30
 0.0
   0
VERTEX
   8
0
   6
Continuous
  10
 92.713112
  20
 56.913391
  30
 0.0
   0
VERTEX
   8
0
   6
Continuous
  10
 94.182480
  20
 57.005768
  30
 0.0
   0
VERTEX
   8
0
   6
Continuous
  10
 95.591438
  20
 57.515644
  30
 0.0
   0
VERTEX
   8
0
   6
Continuous
  10
 96.202438
  20
 58.104366
  30
 0.0
   0
VERTEX
   8
0
   6
Continuous
  10
 96.876961
  20
 59.551292
  30
 0.0
   0
VERTEX
   8
0
   6
Continuous
  10
 97.234642
  20
 59.860767
  30
 0.0
   0
VERTEX
   8
0
   6
Continuous
  10
 98.902756
  20
 60.042355
  30
 0.0
   0
VERTEX
   8
0
   6
Continuous
  10
 102.411797
  20
 59.718136
  30
 0.0
   0
VERTEX
   8
0
   6
Continuous
  10
 102.792862
  20
 59.408989
  30
 0.0
   0
VERTEX
   8
0
   6
Continuous
  10
 104.036575
  20
 57.388535
  30
 0.0
   0
VERTEX
   8
0
   6
Continuous
  10
 105.034462
  20
 56.132248
  30
 0.0
   0
VERTEX
   8
0
   6
Continuous
  10
 105.069633
  20
 55.742786
  30
 0.0
   0
VERTEX
   8
0
   6
Continuous
  10
 104.742760
  20
 55.449100
  30
 0.0
   0
VERTEX
   8
0
   6
Continuous
  10
 102.101357
  20
 55.091965
  30
 0.0
   0
VERTEX
   8
0
   6
Continuous
  10
 100.701614
  20
 54.421997
  30
 0.0
   0
VERTEX
   8
0
   6
Continuous
  10
 100.529831
  20
 54.044209
  30
 0.0
   0
VERTEX
   8
0
   6
Continuous
  10
 101.539581
  20
 51.751823
  30
 0.0
   0
VERTEX
   8
0
   6
Continuous
  10
 101.537857
  20
 51.225330
  30
 0.0
   0
VERTEX
   8
0
   6
Continuous
  10
 101.714287
  20
 50.666256
  30
 0.0
   0
VERTEX
   8
0
   6
Continuous
  10
 102.387276
  20
 49.173103
  30
 0.0
   0
VERTEX
   8
0
   6
Continuous
  10
 102.457375
  20
 47.790546
  30
 0.0
   0
VERTEX
   8
0
   6
Continuous
  10
 102.062225
  20
 45.974094
  30
 0.0
   0
VERTEX
   8
0
   6
Continuous
  10
 101.301285
  20
 44.315228
  30
 0.0
   0
VERTEX
   8
0
   6
Continuous
  10
 100.242577
  20
 43.034466
  30
 0.0
   0
VERTEX
   8
0
   6
Continuous
  10
 98.284355
  20
 41.516960
  30
 0.0
   0
VERTEX
   8
0
   6
Continuous
  10
 96.241447
  20
 40.655304
  30
 0.0
   0
VERTEX
   8
0
   6
Continuous
  10
 95.777573
  20
 40.652534
  30
 0.0
   0
VERTEX
   8
0
   6
Continuous
  10
 95.589241
  20
 40.961983
  30
 0.0
   0
VERTEX
   8
0
   6
Continuous
  10
 95.843811
  20
 41.839855
  30
 0.0
   0
VERTEX
   8
0
   6
Continuous
  10
 96.159828
  20
 43.994316
  30
 0.0
   0
VERTEX
   8
0
   6
Continuous
  10
 95.834473
  20
 45.529037
  30
 0.0
   0
VERTEX
   8
0
   6
Continuous
  10
 94.833923
  20
 47.288086
  30
 0.0
   0
VERTEX
   8
0
   6
Continuous
  10
 94.394402
  20
 47.686588
  30
 0.0
   0
VERTEX
   8
0
   6
Continuous
  10
 94.141029
  20
 47.669376
  30
 0.0
   0
VERTEX
   8
0
   6
Continuous
  10
 93.968193
  20
 45.134907
  30
 0.0
   0
VERTEX
   8
0
   6
Continuous
  10
 93.854813
  20
 44.193554
  30
 0.0
   0
VERTEX
   8
0
   6
Continuous
  10
 93.438728
  20
 43.906887
  30
 0.0
   0
VERTEX
   8
0
   6
Continuous
  10
 92.835449
  20
 44.068653
  30
 0.0
   0
VERTEX
   8
0
   6
Continuous
  10
 90.290253
  20
 45.523949
  30
 0.0
   0
VERTEX
   8
0
   6
Continuous
  10
 89.502464
  20
 46.077000
  30
 0.0
   0
VERTEX
   8
0
   6
Continuous
  10
 89.147232
  20
 46.213093
  30
 0.0
   0
VERTEX
   8
0
   6
Continuous
  10
 88.850121
  20
 44.106789
  30
 0.0
   0
VERTEX
   8
0
   6
Continuous
  10
 88.522209
  20
 43.438618
  30
 0.0
   0
VERTEX
   8
0
   6
Continuous
  10
 88.161728
  20
 43.340443
  30
 0.0
   0
VERTEX
   8
0
   6
Continuous
  10
 87.668678
  20
 43.558723
  30
 0.0
   0
VERTEX
   8
0
   6
Continuous
  10
 86.018135
  20
 45.516518
  30
 0.0
   0
VERTEX
   8
0
   6
Continuous
  10
 85.767395
  20
 45.514492
  30
 0.0
   0
VERTEX
   8
0
   6
Continuous
  10
 85.434929
  20
 45.014160
  30
 0.0
   0
VERTEX
   8
0
   6
Continuous
  10
 84.885414
  20
 43.122887
  30
 0.0
   0
VERTEX
   8
0
   6
Continuous
  10
 84.543068
  20
 42.837303
  30
 0.0
   0
VERTEX
   8
0
   6
Continuous
  10
 83.477127
  20
 43.191341
  30
 0.0
   0
VERTEX
   8
0
   6
Continuous
  10
 83.182213
  20
 42.990810
  30
 0.0
   0
VERTEX
   8
0
   6
Continuous
  10
 82.707184
  20
 41.511204
  30
 0.0
   0
VERTEX
   8
0
   6
Continuous
  10
 82.753403
  20
 40.230968
  30
 0.0
   0
VERTEX
   8
0
   6
Continuous
  10
 83.244522
  20
 38.567867
  30
 0.0
   0
VERTEX
   8
0
   6
Continuous
  10
 84.239395
  20
 37.157772
  30
 0.0
   0
VERTEX
   8
0
   6
Continuous
  10
 85.578056
  20
 36.078674
  30
 0.0
   0
VERTEX
   8
0
   6
Continuous
  10
 86.597069
  20
 35.762627
  30
 0.0
   0
VERTEX
   8
0
   6
Continuous
  10
 86.848427
  20
 35.541645
  30
 0.0
   0
VERTEX
   8
0
   6
Continuous
  10
 86.774384
  20
 35.282101
  30
 0.0
   0
VERTEX
   8
0
   6
Continuous
  10
 85.824844
  20
 34.534710
  30
 0.0
   0
VERTEX
   8
0
   6
Continuous
  10
 84.835350
  20
 34.170372
  30
 0.0
   0
VERTEX
   8
0
   6
Continuous
  10
 83.067329
  20
 34.146038
  30
 0.0
   0
VERTEX
   8
0
   6
Continuous
  10
 81.143326
  20
 34.656483
  30
 0.0
   0
VERTEX
   8
0
   6
Continuous
  10
 79.242752
  20
 35.375366
  30
 0.0
   0
VERTEX
   8
0
   6
Continuous
  10
 77.944160
  20
 36.461029
  30
 0.0
   0
VERTEX
   8
0
   6
Continuous
  10
 77.171791
  20
 37.364414
  30
 0.0
   0
VERTEX
   8
0
   6
Continuous
  10
 75.569611
  20
 39.870892
  30
 0.0
   0
VERTEX
   8
0
   6
Continuous
  10
 74.947525
  20
 41.670765
  30
 0.0
   0
VERTEX
   8
0
   6
Continuous
  10
 74.869957
  20
 43.751942
  30
 0.0
   0
VERTEX
   8
0
   6
Continuous
  10
 74.438049
  20
 44.256958
  30
 0.0
   0
VERTEX
   8
0
   6
Continuous
  10
 73.131119
  20
 47.224548
  30
 0.0
   0
VERTEX
   8
0
   6
Continuous
  10
 72.775383
  20
 47.451614
  30
 0.0
   0
VERTEX
   8
0
   6
Continuous
  10
 70.878723
  20
 47.263836
  30
 0.0
   0
VERTEX
   8
0
   6
Continuous
  10
 69.641785
  20
 47.297585
  30
 0.0
   0
VERTEX
   8
0
   6
Continuous
  10
 69.375198
  20
 47.556984
  30
 0.0
   0
VERTEX
   8
0
   6
Continuous
  10
 69.305763
  20
 48.402733
  30
 0.0
   0
VERTEX
   8
0
   6
Continuous
  10
 69.471344
  20
 49.207733
  30
 0.0
   0
VERTEX
   8
0
   6
Continuous
  10
 69.987129
  20
 50.693432
  30
 0.0
   0
VERTEX
   8
0
   6
Continuous
  10
 71.502487
  20
 52.206459
  30
 0.0
   0
VERTEX
   8
0
   6
Continuous
  10
 72.951981
  20
 53.766136
  30
 0.0
   0
VERTEX
   8
0
   6
Continuous
  10
 73.191879
  20
 53.767616
  30
 0.0
   0
VERTEX
   8
0
   6
Continuous
  10
 74.205803
  20
 52.753704
  30
 0.0
   0
VERTEX
   8
0
   6
Continuous
  10
 75.538895
  20
 51.623199
  30
 0.0
   0
VERTEX
   8
0
   6
Continuous
  10
 77.417618
  20
 50.709923
  30
 0.0
   0
VERTEX
   8
0
   6
Continuous
  10
 78.443802
  20
 50.562149
  30
 0.0
   0
VERTEX
   8
0
   6
Continuous
  10
 79.479111
  20
 50.561363
  30
 0.0
   0
VERTEX
   8
0
   6
Continuous
  10
 80.556786
  20
 50.799347
  30
 0.0
   0
VERTEX
   8
0
   6
Continuous
  10
 81.756699
  20
 51.290169
  30
 0.0
   0
VERTEX
   8
0
   6
Continuous
  10
 82.859154
  20
 52.108479
  30
 0.0
   0
VERTEX
   8
0
   6
Continuous
  10
 83.768547
  20
 53.221649
  30
 0.0
   0
VERTEX
   8
0
   6
Continuous
  10
 84.297211
  20
 54.371704
  30
 0.0
   0
VERTEX
   8
0
   6
Continuous
  10
 84.616882
  20
 56.121365
  30
 0.0
   0
VERTEX
   8
0
   6
Continuous
  10
 84.522667
  20
 57.508308
  30
 0.0
   0
VERTEX
   8
0
   6
Continuous
  10
 84.101410
  20
 58.955238
  30
 0.0
   0
VERTEX
   8
0
   6
Continuous
  10
 83.564278
  20
 60.037426
  30
 0.0
   0
VERTEX
   8
0
   6
Continuous
  10
 83.289314
  20
 60.122475
  30
 0.0
   0
VERTEX
   8
0
   6
Continuous
  10
 82.899239
  20
 59.489128
  30
 0.0
   0
VERTEX
   8
0
   6
Continuous
  10
 82.276588
  20
 58.783241
  30
 0.0
   0
VERTEX
   8
0
   6
Continuous
  10
 81.523209
  20
 58.491707
  30
 0.0
   0
VERTEX
   8
0
   6
Continuous
  10
 79.512169
  20
 58.804150
  30
 0.0
   0
VERTEX
   8
0
   6
Continuous
  10
 78.110855
  20
 59.677494
  30
 0.0
   0
VERTEX
   8
0
   6
Continuous
  10
 77.304436
  20
 60.522369
  30
 0.0
   0
VERTEX
   8
0
   6
Continuous
  10
 76.883339
  20
 61.649330
  30
 0.0
   0
VERTEX
   8
0
   6
Continuous
  10
 76.950912
  20
 62.813057
  30
 0.0
   0
VERTEX
   8
0
   6
Continuous
  10
 77.313377
  20
 63.677555
  30
 0.0
   0
VERTEX
   8
0
   6
Continuous
  10
 78.227669
  20
 64.437050
  30
 0.0
   0
VERTEX
   8
0
   6
Continuous
  10
 79.093552
  20
 64.719246
  30
 0.0
   0
VERTEX
   8
0
   6
Continuous
  10
 80.543297
  20
 64.703041
  30
 0.0
   0
VERTEX
   8
0
   6
Continuous
  10
 80.373878
  20
 65.101570
  30
 0.0
   0
VERTEX
   8
0
   6
Continuous
  10
 78.298080
  20
 66.923752
  30
 0.0
   0
VERTEX
   8
0
   6
Continuous
  10
 76.443359
  20
 68.051498
  30
 0.0
   0
VERTEX
   8
0
   6
Continuous
  10
 73.566414
  20
 69.362755
  30
 0.0
   0
VERTEX
   8
0
   6
Continuous
  10
 71.619408
  20
 69.516106
  30
 0.0
   0
VERTEX
   8
0
   6
Continuous
  10
 70.853775
  20
 69.415253
  30
 0.0
   0
VERTEX
   8
0
   6
Continuous
  10
 69.847946
  20
 68.885468
  30
 0.0
   0
VERTEX
   8
0
   6
Continuous
  10
 68.831245
  20
 67.762634
  30
 0.0
   0
VERTEX
   8
0
   6
Continuous
  10
 68.328682
  20
 66.695900
  30
 0.0
   0
VERTEX
   8
0
   6
Continuous
  10
 68.068863
  20
 65.496513
  30
 0.0
   0
VERTEX
   8
0
   6
Continuous
  10
 68.047432
  20
 64.113609
  30
 0.0
   0
VERTEX
   8
0
   6
Continuous
  10
 68.444397
  20
 62.355408
  30
 0.0
   0
VERTEX
   8
0
   6
Continuous
  10
 68.815536
  20
 61.565231
  30
 0.0
   0
VERTEX
   8
0
   6
Continuous
  10
 69.104797
  20
 60.769485
  30
 0.0
   0
VERTEX
   8
0
   6
Continuous
  10
 69.499741
  20
 60.244419
  30
 0.0
   0
VERTEX
   8
0
   6
Continuous
  10
 69.457863
  20
 59.945892
  30
 0.0
   0
VERTEX
   8
0
   6
Continuous
  10
 69.482483
  20
 59.425335
  30
 0.0
   0
VERTEX
   8
0
   6
Continuous
  10
 71.257492
  20
 56.044579
  30
 0.0
   0
VERTEX
   8
0
   6
Continuous
  10
 72.218445
  20
 54.959591
  30
 0.0
   0
VERTEX
   8
0
   6
Continuous
  10
 72.426369
  20
 54.459301
  30
 0.0
   0
VERTEX
   8
0
   6
Continuous
  10
 72.269875
  20
 54.067398
  30
 0.0
   0
VERTEX
   8
0
   6
Continuous
  10
 70.840965
  20
 52.538563
  30
 0.0
   0
VERTEX
   8
0
   6
Continuous
  10
 69.842812
  20
 51.928898
  30
 0.0
   0
VERTEX
   8
0
   6
Continuous
  10
 69.193336
  20
 51.368923
  30
 0.0
   0
VERTEX
   8
0
   6
Continuous
  10
 68.477592
  20
 50.957317
  30
 0.0
   0
VERTEX
   8
0
   6
Continuous
  10
 67.220665
  20
 50.907288
  30
 0.0
   0
VERTEX
   8
0
   6
Continuous
  10
 65.992348
  20
 51.112106
  30
 0.0
   0
VERTEX
   8
0
   6
Continuous
  10
 61.578278
  20
 50.804626
  30
 0.0
   0
VERTEX
   8
0
   6
Continuous
  10
 56.021790
  20
 50.226433
  30
 0.0
   0
VERTEX
   8
0
   6
Continuous
  10
 55.234089
  20
 49.966251
  30
 0.0
   0
VERTEX
   8
0
   6
Continuous
  10
 54.737099
  20
 49.487915
  30
 0.0
   0
VERTEX
   8
0
   6
Continuous
  10
 54.000412
  20
 47.937710
  30
 0.0
   0
VERTEX
   8
0
   6
Continuous
  10
 53.151089
  20
 44.827507
  30
 0.0
   0
VERTEX
   8
0
   6
Continuous
  10
 52.527008
  20
 40.095665
  30
 0.0
   0
VERTEX
   8
0
   6
Continuous
  10
 52.225479
  20
 36.674210
  30
 0.0
   0
VERTEX
   8
0
   6
Continuous
  10
 52.448925
  20
 31.681450
  30
 0.0
   0
VERTEX
   8
0
   6
Continuous
  10
 53.331833
  20
 26.268887
  30
 0.0
   0
VERTEX
   8
0
   6
Continuous
  10
 53.322685
  20
 25.094376
  30
 0.0
   0
VERTEX
   8
0
   6
Continuous
  10
 53.059620
  20
 24.194452
  30
 0.0
   0
VERTEX
   8
0
   6
Continuous
  10
 52.235062
  20
 23.081490
  30
 0.0
   0
VERTEX
   8
0
   6
Continuous
  10
 49.495167
  20
 20.107498
  30
 0.0
   0
VERTEX
   8
0
   6
Continuous
  10
 47.648708
  20
 18.659426
  30
 0.0
   0
VERTEX
   8
0
   6
Continuous
  10
 46.987988
  20
 18.346855
  30
 0.0
   0
VERTEX
   8
0
   6
Continuous
  10
 45.960381
  20
 18.482079
  30
 0.0
   0
VERTEX
   8
0
   6
Continuous
  10
 45.299107
  20
 18.781889
  30
 0.0
   0
VERTEX
   8
0
   6
Continuous
  10
 45.045021
  20
 19.198469
  30
 0.0
   0
VERTEX
   8
0
   6
Continuous
  10
 44.960690
  20
 19.885983
  30
 0.0
   0
VERTEX
   8
0
   6
Continuous
  10
 44.947910
  20
 20.836517
  30
 0.0
   0
VERTEX
   8
0
   6
Continuous
  10
 45.820530
  20
 23.099607
  30
 0.0
   0
VERTEX
   8
0
   6
Continuous
  10
 47.216770
  20
 25.266617
  30
 0.0
   0
VERTEX
   8
0
   6
Continuous
  10
 48.065670
  20
 26.796495
  30
 0.0
   0
VERTEX
   8
0
   6
Continuous
  10
 48.197063
  20
 27.720686
  30
 0.0
   0
VERTEX
   8
0
   6
Continuous
  10
 48.083256
  20
 28.900440
  30
 0.0
   0
VERTEX
   8
0
   6
Continuous
  10
 46.299515
  20
 34.706280
  30
 0.0
   0
VERTEX
   8
0
   6
Continuous
  10
 45.579422
  20
 38.315212
  30
 0.0
   0
VERTEX
   8
0
   6
Continuous
  10
 45.162006
  20
 43.554287
  30
 0.0
   0
VERTEX
   8
0
   6
Continuous
  10
 45.234562
  20
 45.331970
  30
 0.0
   0
VERTEX
   8
0
   6
Continuous
  10
 45.444008
  20
 46.873878
  30
 0.0
   0
VERTEX
   8
0
   6
Continuous
  10
 46.168522
  20
 50.217731
  30
 0.0
   0
VERTEX
   8
0
   6
Continuous
  10
 47.501282
  20
 52.712429
  30
 0.0
   0
VERTEX
   8
0
   6
Continuous
  10
 48.710545
  20
 54.067226
  30
 0.0
   0
VERTEX
   8
0
   6
Continuous
  10
 49.810135
  20
 54.657246
  30
 0.0
   0
VERTEX
   8
0
   6
Continuous
  10
 51.429752
  20
 55.151958
  30
 0.0
   0
VERTEX
   8
0
   6
Continuous
  10
 53.565891
  20
 55.603180
  30
 0.0
   0
VERTEX
   8
0
   6
Continuous
  10
 58.466602
  20
 56.529953
  30
 0.0
   0
VERTEX
   8
0
   6
Continuous
  10
 63.811115
  20
 56.799362
  30
 0.0
   0
VERTEX
   8
0
   6
Continuous
  10
 64.253334
  20
 57.034286
  30
 0.0
   0
VERTEX
   8
0
   6
Continuous
  10
 64.929199
  20
 58.551201
  30
 0.0
   0
VERTEX
   8
0
   6
Continuous
  10
 64.744652
  20
 58.799294
  30
 0.0
   0
VERTEX
   8
0
   6
Continuous
  10
 62.574131
  20
 58.727695
  30
 0.0
   0
VERTEX
   8
0
   6
Continuous
  10
 61.457306
  20
 58.759510
  30
 0.0
   0
VERTEX
   8
0
   6
Continuous
  10
 61.311527
  20
 59.041714
  30
 0.0
   0
VERTEX
   8
0
   6
Continuous
  10
 61.992146
  20
 60.589073
  30
 0.0
   0
VERTEX
   8
0
   6
Continuous
  10
 63.535664
  20
 62.515045
  30
 0.0
   0
VERTEX
   8
0
   6
Continuous
  10
 63.560127
  20
 62.798588
  30
 0.0
   0
VERTEX
   8
0
   6
Continuous
  10
 63.148624
  20
 62.955627
  30
 0.0
   0
VERTEX
   8
0
   6
Continuous
  10
 60.893276
  20
 62.976761
  30
 0.0
   0
VERTEX
   8
0
   6
Continuous
  10
 59.756939
  20
 63.174469
  30
 0.0
   0
VERTEX
   8
0
   6
Continuous
  10
 59.559380
  20
 63.472164
  30
 0.0
   0
VERTEX
   8
0
   6
Continuous
  10
 59.841190
  20
 64.712868
  30
 0.0
   0
VERTEX
   8
0
   6
Continuous
  10
 59.689110
  20
 64.918274
  30
 0.0
   0
VERTEX
   8
0
   6
Continuous
  10
 58.188011
  20
 65.201118
  30
 0.0
   0
VERTEX
   8
0
   6
Continuous
  10
 54.992569
  20
 65.531487
  30
 0.0
   0
VERTEX
   8
0
   6
Continuous
  10
 51.334923
  20
 66.390175
  30
 0.0
   0
VERTEX
   8
0
   6
Continuous
  10
 47.307190
  20
 66.738274
  30
 0.0
   0
VERTEX
   8
0
   6
Continuous
  10
 44.367611
  20
 66.495667
  30
 0.0
   0
VERTEX
   8
0
   6
Continuous
  10
 43.680496
  20
 66.291840
  30
 0.0
   0
VERTEX
   8
0
   6
Continuous
  10
 43.101105
  20
 65.842743
  30
 0.0
   0
VERTEX
   8
0
   6
Continuous
  10
 42.502316
  20
 64.797531
  30
 0.0
   0
VERTEX
   8
0
   6
Continuous
  10
 40.882820
  20
 60.037594
  30
 0.0
   0
VERTEX
   8
0
   6
Continuous
  10
 39.374725
  20
 54.098251
  30
 0.0
   0
VERTEX
   8
0
   6
Continuous
  10
 38.464989
  20
 49.734913
  30
 0.0
   0
VERTEX
   8
0
   6
Continuous
  10
 37.527321
  20
 46.114166
  30
 0.0
   0
VERTEX
   8
0
   6
Continuous
  10
 36.708961
  20
 44.157200
  30
 0.0
   0
VERTEX
   8
0
   6
Continuous
  10
 35.836334
  20
 42.847149
  30
 0.0
   0
VERTEX
   8
0
   6
Continuous
  10
 28.697849
  20
 38.423702
  30
 0.0
   0
VERTEX
   8
0
   6
Continuous
  10
 27.521982
  20
 38.167091
  30
 0.0
   0
VERTEX
   8
0
   6
Continuous
  10
 26.842505
  20
 38.304352
  30
 0.0
   0
VERTEX
   8
0
   6
Continuous
  10
 26.534191
  20
 38.609329
  30
 0.0
   0
VERTEX
   8
0
   6
Continuous
  10
 26.458586
  20
 39.085419
  30
 0.0
   0
VERTEX
   8
0
   6
Continuous
  10
 26.914625
  20
 40.686623
  30
 0.0
   0
VERTEX
   8
0
   6
Continuous
  10
 29.033543
  20
 44.195976
  30
 0.0
   0
VERTEX
   8
0
   6
Continuous
  10
 30.831528
  20
 46.289272
  30
 0.0
   0
VERTEX
   8
0
   6
Continuous
  10
 32.306767
  20
 48.125622
  30
 0.0
   0
VERTEX
   8
0
   6
Continuous
  10
 32.746311
  20
 49.414619
  30
 0.0
   0
VERTEX
   8
0
   6
Continuous
  10
 34.270180
  20
 56.931385
  30
 0.0
   0
VERTEX
   8
0
   6
Continuous
  10
 35.950382
  20
 63.365910
  30
 0.0
   0
VERTEX
   8
0
   6
Continuous
  10
 37.896469
  20
 69.435509
  30
 0.0
   0
VERTEX
   8
0
   6
Continuous
  10
 38.747837
  20
 72.229324
  30
 0.0
   0
VERTEX
   8
0
   6
Continuous
  10
 39.489971
  20
 73.673256
  30
 0.0
   0
VERTEX
   8
0
   6
Continuous
  10
 40.203709
  20
 74.413124
  30
 0.0
   0
VERTEX
   8
0
   6
Continuous
  10
 40.680031
  20
 74.581337
  30
 0.0
   0
VERTEX
   8
0
   6
Continuous
  10
 43.430717
  20
 74.940811
  30
 0.0
   0
VERTEX
   8
0
   6
Continuous
  10
 47.269928
  20
 74.771530
  30
 0.0
   0
VERTEX
   8
0
   6
Continuous
  10
 51.357121
  20
 74.024467
  30
 0.0
   0
VERTEX
   8
0
   6
Continuous
  10
 52.687889
  20
 73.737411
  30
 0.0
   0
VERTEX
   8
0
   6
Continuous
  10
 53.486736
  20
 73.820061
  30
 0.0
   0
VERTEX
   8
0
   6
Continuous
  10
 55.149338
  20
 75.857048
  30
 0.0
   0
VERTEX
   8
0
   6
Continuous
  10
 56.426414
  20
 77.832024
  30
 0.0
   0
VERTEX
   8
0
   6
Continuous
  10
 56.417637
  20
 78.128227
  30
 0.0
   0
VERTEX
   8
0
   6
Continuous
  10
 55.016903
  20
 78.761780
  30
 0.0
   0
VERTEX
   8
0
   6
Continuous
  10
 52.937424
  20
 78.815430
  30
 0.0
   0
VERTEX
   8
0
   6
Continuous
  10
 52.285908
  20
 79.099998
  30
 0.0
   0
VERTEX
   8
0
   6
Continuous
  10
 52.069706
  20
 79.709679
  30
 0.0
   0
VERTEX
   8
0
   6
Continuous
  10
 51.707977
  20
 79.911743
  30
 0.0
   0
VERTEX
   8
0
   6
Continuous
  10
 49.445595
  20
 80.222763
  30
 0.0
   0
VERTEX
   8
0
   6
Continuous
  10
 45.936253
  20
 80.543671
  30
 0.0
   0
VERTEX
   8
0
   6
Continuous
  10
 42.266922
  20
 80.368813
  30
 0.0
   0
VERTEX
   8
0
   6
Continuous
  10
 39.415009
  20
 80.043625
  30
 0.0
   0
VERTEX
   8
0
   6
Continuous
  10
 37.282612
  20
 79.560364
  30
 0.0
   0
VERTEX
   8
0
   6
Continuous
  10
 36.279163
  20
 78.895477
  30
 0.0
   0
VERTEX
   8
0
   6
Continuous
  10
 35.247433
  20
 77.507294
  30
 0.0
   0
VERTEX
   8
0
   6
Continuous
  10
 33.287769
  20
 73.231262
  30
 0.0
   0
VERTEX
   8
0
   6
Continuous
  10
 31.948139
  20
 69.894905
  30
 0.0
   0
VERTEX
   8
0
   6
Continuous
  10
 30.455400
  20
 64.795609
  30
 0.0
   0
VERTEX
   8
0
   6
Continuous
  10
 29.957394
  20
 63.306660
  30
 0.0
   0
VERTEX
   8
0
   6
Continuous
  10
 29.156010
  20
 61.977867
  30
 0.0
   0
VERTEX
   8
0
   6
Continuous
  10
 26.977913
  20
 60.272655
  30
 0.0
   0
VERTEX
   8
0
   6
Continuous
  10
 25.423786
  20
 59.432495
  30
 0.0
   0
VERTEX
   8
0
   6
Continuous
  10
 22.339651
  20
 57.967167
  30
 0.0
   0
VERTEX
   8
0
   6
Continuous
  10
 20.697748
  20
 57.274231
  30
 0.0
   0
VERTEX
   8
0
   6
Continuous
  10
 18.629124
  20
 56.847179
  30
 0.0
   0
VERTEX
   8
0
   6
Continuous
  10
 17.844555
  20
 56.945091
  30
 0.0
   0
VERTEX
   8
0
   6
Continuous
  10
 16.750364
  20
 57.397137
  30
 0.0
   0
VERTEX
   8
0
   6
Continuous
  10
 16.297798
  20
 57.746719
  30
 0.0
   0
VERTEX
   8
0
   6
Continuous
  10
 16.288858
  20
 58.509819
  30
 0.0
   0
VERTEX
   8
0
   6
Continuous
  10
 16.703129
  20
 59.733498
  30
 0.0
   0
VERTEX
   8
0
   6
Continuous
  10
 17.634418
  20
 61.028275
  30
 0.0
   0
VERTEX
   8
0
   6
Continuous
  10
 21.578506
  20
 63.300171
  30
 0.0
   0
VERTEX
   8
0
   6
Continuous
  10
 22.592432
  20
 64.236687
  30
 0.0
   0
VERTEX
   8
0
   6
Continuous
  10
 23.654785
  20
 65.832809
  30
 0.0
   0
VERTEX
   8
0
   6
Continuous
  10
 25.613770
  20
 70.109085
  30
 0.0
   0
VERTEX
   8
0
   6
Continuous
  10
 27.235683
  20
 74.341743
  30
 0.0
   0
VERTEX
   8
0
   6
Continuous
  10
 29.552719
  20
 79.605881
  30
 0.0
   0
VERTEX
   8
0
   6
Continuous
  10
 30.659334
  20
 81.931297
  30
 0.0
   0
VERTEX
   8
0
   6
Continuous
  10
 32.446350
  20
 85.080147
  30
 0.0
   0
VERTEX
   8
0
   6
Continuous
  10
 34.482758
  20
 87.340424
  30
 0.0
   0
VERTEX
   8
0
   6
Continuous
  10
 36.076981
  20
 88.550873
  30
 0.0
   0
VERTEX
   8
0
   6
Continuous
  10
 38.222836
  20
 88.936569
  30
 0.0
   0
VERTEX
   8
0
   6
Continuous
  10
 41.786320
  20
 89.097733
  30
 0.0
   0
VERTEX
   8
0
   6
Continuous
  10
 45.600040
  20
 88.701241
  30
 0.0
   0
VERTEX
   8
0
   6
Continuous
  10
 47.430183
  20
 88.283310
  30
 0.0
   0
VERTEX
   8
0
   6
Continuous
  10
 52.278954
  20
 87.521248
  30
 0.0
   0
VERTEX
   8
0
   6
Continuous
  10
 52.650059
  20
 87.632126
  30
 0.0
   0
VERTEX
   8
0
   6
Continuous
  10
 52.632504
  20
 87.876060
  30
 0.0
   0
VERTEX
   8
0
   6
Continuous
  10
 50.549511
  20
 90.062912
  30
 0.0
   0
VERTEX
   8
0
   6
Continuous
  10
 49.886154
  20
 90.613235
  30
 0.0
   0
VERTEX
   8
0
   6
Continuous
  10
 49.471344
  20
 91.129547
  30
 0.0
   0
VERTEX
   8
0
   6
Continuous
  10
 49.446186
  20
 91.548218
  30
 0.0
   0
VERTEX
   8
0
   6
Continuous
  10
 49.946392
  20
 92.088470
  30
 0.0
   0
VERTEX
   8
0
   6
Continuous
  10
 51.252274
  20
 93.218216
  30
 0.0
   0
VERTEX
   8
0
   6
Continuous
  10
 52.536522
  20
 94.062599
  30
 0.0
   0
VERTEX
   8
0
   6
Continuous
  10
 52.944290
  20
 94.440453
  30
 0.0
   0
VERTEX
   8
0
   6
Continuous
  10
 52.247749
  20
 95.148605
  30
 0.0
   0
VERTEX
   8
0
   6
Continuous
  10
 50.231857
  20
 95.597137
  30
 0.0
   0
VERTEX
   8
0
   6
Continuous
  10
 47.492168
  20
 96.272461
  30
 0.0
   0
VERTEX
   8
0
   6
Continuous
  10
 44.462471
  20
 97.150993
  30
 0.0
   0
VERTEX
   8
0
   6
Continuous
  10
 42.192135
  20
 97.363251
  30
 0.0
   0
VERTEX
   8
0
   6
Continuous
  10
 40.398430
  20
 97.175545
  30
 0.0
   0
VERTEX
   8
0
   6
Continuous
  10
 38.882793
  20
 96.678696
  30
 0.0
   0
VERTEX
   8
0
   6
Continuous
  10
 31.385401
  20
 93.054131
  30
 0.0
   0
VERTEX
   8
0
   6
Continuous
  10
 26.804716
  20
 91.262154
  30
 0.0
   0
VERTEX
   8
0
   6
Continuous
  10
 22.593405
  20
 89.973114
  30
 0.0
   0
VERTEX
   8
0
   6
Continuous
  10
 20.796270
  20
 89.755882
  30
 0.0
   0
VERTEX
   8
0
   6
Continuous
  10
 18.808001
  20
 90.310089
  30
 0.0
   0
VERTEX
   8
0
   6
Continuous
  10
 17.996342
  20
 90.830704
  30
 0.0
   0
VERTEX
   8
0
   6
Continuous
  10
 16.761183
  20
 91.897194
  30
 0.0
   0
VERTEX
   8
0
   6
Continuous
  10
 15.828127
  20
 92.872025
  30
 0.0
   0
VERTEX
   8
0
   6
Continuous
  10
 15.052084
  20
 94.171982
  30
 0.0
   0
VERTEX
   8
0
   6
Continuous
  10
 14.490520
  20
 95.643806
  30
 0.0
   0
VERTEX
   8
0
   6
Continuous
  10
 14.548511
  20
 96.433090
  30
 0.0
   0
VERTEX
   8
0
   6
Continuous
  10
 14.825644
  20
 96.737831
  30
 0.0
   0
SEQEND
   0
ENDSEC
   0
EOF
