   0
SECTION
   2
ENTITIES
   0
POLYLINE
   8
0
  66
 1
   6
Continuous
  10
 0.0
  20
 0.0
  30
 0.0
  70
 128
   0
VERTEX
   8
0
   6
Continuous
  10
 17.377651
  20
 25.205746
  30
 0.0
   0
VERTEX
   8
0
   6
Continuous
  10
 18.072453
  20
 28.479565
  30
 0.0
   0
VERTEX
   8
0
   6
Continuous
  10
 19.821049
  20
 33.470615
  30
 0.0
   0
VERTEX
   8
0
   6
Continuous
  10
 23.994251
  20
 43.581543
  30
 0.0
   0
VERTEX
   8
0
   6
Continuous
  10
 26.064655
  20
 47.746468
  30
 0.0
   0
VERTEX
   8
0
   6
Continuous
  10
 28.221653
  20
 51.049156
  30
 0.0
   0
VERTEX
   8
0
   6
Continuous
  10
 31.136753
  20
 54.222878
  30
 0.0
   0
VERTEX
   8
0
   6
Continuous
  10
 34.350651
  20
 56.777645
  30
 0.0
   0
VERTEX
   8
0
   6
Continuous
  10
 36.530949
  20
 58.069225
  30
 0.0
   0
VERTEX
   8
0
   6
Continuous
  10
 40.808048
  20
 60.291145
  30
 0.0
   0
VERTEX
   8
0
   6
Continuous
  10
 44.304646
  20
 61.254654
  30
 0.0
   0
VERTEX
   8
0
   6
Continuous
  10
 46.092655
  20
 61.999447
  30
 0.0
   0
VERTEX
   8
0
   6
Continuous
  10
 47.418949
  20
 61.968525
  30
 0.0
   0
VERTEX
   8
0
   6
Continuous
  10
 51.214848
  20
 62.237797
  30
 0.0
   0
VERTEX
   8
0
   6
Continuous
  10
 54.488850
  20
 62.047337
  30
 0.0
   0
VERTEX
   8
0
   6
Continuous
  10
 58.702747
  20
 61.481056
  30
 0.0
   0
VERTEX
   8
0
   6
Continuous
  10
 69.478043
  20
 58.832066
  30
 0.0
   0
VERTEX
   8
0
   6
Continuous
  10
 72.285843
  20
 58.261208
  30
 0.0
   0
VERTEX
   8
0
   6
Continuous
  10
 78.041245
  20
 57.319485
  30
 0.0
   0
VERTEX
   8
0
   6
Continuous
  10
 81.461441
  20
 57.051414
  30
 0.0
   0
VERTEX
   8
0
   6
Continuous
  10
 86.089050
  20
 56.790237
  30
 0.0
   0
VERTEX
   8
0
   6
Continuous
  10
 90.719849
  20
 57.107254
  30
 0.0
   0
VERTEX
   8
0
   6
Continuous
  10
 97.332245
  20
 58.143845
  30
 0.0
   0
VERTEX
   8
0
   6
Continuous
  10
 98.136551
  20
 58.522488
  30
 0.0
   0
VERTEX
   8
0
   6
Continuous
  10
 98.021255
  20
 59.253345
  30
 0.0
   0
VERTEX
   8
0
   6
Continuous
  10
 96.372055
  20
 60.893436
  30
 0.0
   0
VERTEX
   8
0
   6
Continuous
  10
 93.123550
  20
 63.414745
  30
 0.0
   0
VERTEX
   8
0
   6
Continuous
  10
 91.713547
  20
 65.338669
  30
 0.0
   0
VERTEX
   8
0
   6
Continuous
  10
 91.819351
  20
 65.780701
  30
 0.0
   0
VERTEX
   8
0
   6
Continuous
  10
 95.099442
  20
 66.242203
  30
 0.0
   0
VERTEX
   8
0
   6
Continuous
  10
 97.155350
  20
 66.809631
  30
 0.0
   0
VERTEX
   8
0
   6
Continuous
  10
 98.249146
  20
 68.650894
  30
 0.0
   0
VERTEX
   8
0
   6
Continuous
  10
 99.566055
  20
 70.135567
  30
 0.0
   0
VERTEX
   8
0
   6
Continuous
  10
 101.335342
  20
 71.504562
  30
 0.0
   0
VERTEX
   8
0
   6
Continuous
  10
 103.235046
  20
 72.381561
  30
 0.0
   0
VERTEX
   8
0
   6
Continuous
  10
 106.480347
  20
 72.788208
  30
 0.0
   0
VERTEX
   8
0
   6
Continuous
  10
 107.730347
  20
 73.248466
  30
 0.0
   0
VERTEX
   8
0
   6
Continuous
  10
 110.938446
  20
 76.972153
  30
 0.0
   0
VERTEX
   8
0
   6
Continuous
  10
 111.761841
  20
 75.458595
  30
 0.0
   0
VERTEX
   8
0
   6
Continuous
  10
 112.935852
  20
 69.682663
  30
 0.0
   0
VERTEX
   8
0
   6
Continuous
  10
 113.769241
  20
 68.207870
  30
 0.0
   0
VERTEX
   8
0
   6
Continuous
  10
 114.480850
  20
 68.158112
  30
 0.0
   0
VERTEX
   8
0
   6
Continuous
  10
 117.103455
  20
 70.506271
  30
 0.0
   0
VERTEX
   8
0
   6
Continuous
  10
 119.586655
  20
 73.380508
  30
 0.0
   0
VERTEX
   8
0
   6
Continuous
  10
 122.529541
  20
 77.937782
  30
 0.0
   0
VERTEX
   8
0
   6
Continuous
  10
 123.998047
  20
 80.919937
  30
 0.0
   0
VERTEX
   8
0
   6
Continuous
  10
 126.024750
  20
 86.117447
  30
 0.0
   0
VERTEX
   8
0
   6
Continuous
  10
 128.312149
  20
 93.537834
  30
 0.0
   0
VERTEX
   8
0
   6
Continuous
  10
 130.557053
  20
 101.589317
  30
 0.0
   0
VERTEX
   8
0
   6
Continuous
  10
 132.159851
  20
 106.080978
  30
 0.0
   0
VERTEX
   8
0
   6
Continuous
  10
 134.325348
  20
 110.981003
  30
 0.0
   0
VERTEX
   8
0
   6
Continuous
  10
 137.044449
  20
 115.093468
  30
 0.0
   0
VERTEX
   8
0
   6
Continuous
  10
 140.393341
  20
 118.765869
  30
 0.0
   0
VERTEX
   8
0
   6
Continuous
  10
 143.993652
  20
 121.785568
  30
 0.0
   0
VERTEX
   8
0
   6
Continuous
  10
 148.165344
  20
 124.157166
  30
 0.0
   0
VERTEX
   8
0
   6
Continuous
  10
 151.860947
  20
 125.382568
  30
 0.0
   0
VERTEX
   8
0
   6
Continuous
  10
 153.344055
  20
 125.949364
  30
 0.0
   0
VERTEX
   8
0
   6
Continuous
  10
 156.125137
  20
 126.608063
  30
 0.0
   0
VERTEX
   8
0
   6
Continuous
  10
 157.714035
  20
 126.587463
  30
 0.0
   0
VERTEX
   8
0
   6
Continuous
  10
 161.495743
  20
 126.836662
  30
 0.0
   0
VERTEX
   8
0
   6
Continuous
  10
 165.180161
  20
 126.659966
  30
 0.0
   0
VERTEX
   8
0
   6
Continuous
  10
 168.518845
  20
 126.275063
  30
 0.0
   0
VERTEX
   8
0
   6
Continuous
  10
 172.797958
  20
 125.515068
  30
 0.0
   0
VERTEX
   8
0
   6
Continuous
  10
 183.955460
  20
 123.198769
  30
 0.0
   0
VERTEX
   8
0
   6
Continuous
  10
 183.990555
  20
 122.906265
  30
 0.0
   0
VERTEX
   8
0
   6
Continuous
  10
 182.220657
  20
 122.203667
  30
 0.0
   0
VERTEX
   8
0
   6
Continuous
  10
 178.787338
  20
 120.394264
  30
 0.0
   0
VERTEX
   8
0
   6
Continuous
  10
 175.815933
  20
 117.861069
  30
 0.0
   0
VERTEX
   8
0
   6
Continuous
  10
 173.334335
  20
 114.584763
  30
 0.0
   0
VERTEX
   8
0
   6
Continuous
  10
 172.012344
  20
 112.301903
  30
 0.0
   0
VERTEX
   8
0
   6
Continuous
  10
 171.070236
  20
 109.152313
  30
 0.0
   0
VERTEX
   8
0
   6
Continuous
  10
 170.760056
  20
 107.574669
  30
 0.0
   0
VERTEX
   8
0
   6
Continuous
  10
 170.778763
  20
 105.948509
  30
 0.0
   0
VERTEX
   8
0
   6
Continuous
  10
 171.574051
  20
 100.820618
  30
 0.0
   0
VERTEX
   8
0
   6
Continuous
  10
 173.120743
  20
 97.298157
  30
 0.0
   0
VERTEX
   8
0
   6
Continuous
  10
 175.179855
  20
 94.002373
  30
 0.0
   0
VERTEX
   8
0
   6
Continuous
  10
 174.752243
  20
 93.937393
  30
 0.0
   0
VERTEX
   8
0
   6
Continuous
  10
 172.005539
  20
 94.268219
  30
 0.0
   0
VERTEX
   8
0
   6
Continuous
  10
 169.375839
  20
 94.233643
  30
 0.0
   0
VERTEX
   8
0
   6
Continuous
  10
 165.793655
  20
 93.399033
  30
 0.0
   0
VERTEX
   8
0
   6
Continuous
  10
 162.369736
  20
 91.983879
  30
 0.0
   0
VERTEX
   8
0
   6
Continuous
  10
 159.049759
  20
 89.770134
  30
 0.0
   0
VERTEX
   8
0
   6
Continuous
  10
 156.214951
  20
 87.266083
  30
 0.0
   0
VERTEX
   8
0
   6
Continuous
  10
 152.914841
  20
 82.557579
  30
 0.0
   0
VERTEX
   8
0
   6
Continuous
  10
 151.687653
  20
 79.416100
  30
 0.0
   0
VERTEX
   8
0
   6
Continuous
  10
 151.111252
  20
 76.602829
  30
 0.0
   0
VERTEX
   8
0
   6
Continuous
  10
 151.241943
  20
 74.306839
  30
 0.0
   0
VERTEX
   8
0
   6
Continuous
  10
 152.110641
  20
 70.388557
  30
 0.0
   0
VERTEX
   8
0
   6
Continuous
  10
 153.416748
  20
 68.002502
  30
 0.0
   0
VERTEX
   8
0
   6
Continuous
  10
 154.145050
  20
 67.063705
  30
 0.0
   0
VERTEX
   8
0
   6
Continuous
  10
 154.098053
  20
 66.705811
  30
 0.0
   0
VERTEX
   8
0
   6
Continuous
  10
 152.185654
  20
 67.054291
  30
 0.0
   0
VERTEX
   8
0
   6
Continuous
  10
 148.569244
  20
 66.754906
  30
 0.0
   0
VERTEX
   8
0
   6
Continuous
  10
 144.799545
  20
 65.781830
  30
 0.0
   0
VERTEX
   8
0
   6
Continuous
  10
 141.185242
  20
 63.697895
  30
 0.0
   0
VERTEX
   8
0
   6
Continuous
  10
 139.005142
  20
 62.014797
  30
 0.0
   0
VERTEX
   8
0
   6
Continuous
  10
 137.028854
  20
 59.788235
  30
 0.0
   0
VERTEX
   8
0
   6
Continuous
  10
 135.199341
  20
 56.666847
  30
 0.0
   0
VERTEX
   8
0
   6
Continuous
  10
 134.692841
  20
 53.804756
  30
 0.0
   0
VERTEX
   8
0
   6
Continuous
  10
 135.100952
  20
 50.924034
  30
 0.0
   0
VERTEX
   8
0
   6
Continuous
  10
 135.964249
  20
 49.004585
  30
 0.0
   0
VERTEX
   8
0
   6
Continuous
  10
 137.585144
  20
 46.633717
  30
 0.0
   0
VERTEX
   8
0
   6
Continuous
  10
 137.351547
  20
 46.306915
  30
 0.0
   0
VERTEX
   8
0
   6
Continuous
  10
 133.739548
  20
 46.968414
  30
 0.0
   0
VERTEX
   8
0
   6
Continuous
  10
 132.051041
  20
 46.832417
  30
 0.0
   0
VERTEX
   8
0
   6
Continuous
  10
 130.101151
  20
 45.990467
  30
 0.0
   0
VERTEX
   8
0
   6
Continuous
  10
 127.753143
  20
 44.424686
  30
 0.0
   0
VERTEX
   8
0
   6
Continuous
  10
 125.609146
  20
 42.315365
  30
 0.0
   0
VERTEX
   8
0
   6
Continuous
  10
 124.762543
  20
 41.103275
  30
 0.0
   0
VERTEX
   8
0
   6
Continuous
  10
 124.529648
  20
 36.054996
  30
 0.0
   0
VERTEX
   8
0
   6
Continuous
  10
 123.788055
  20
 34.644974
  30
 0.0
   0
VERTEX
   8
0
   6
Continuous
  10
 122.275146
  20
 34.030346
  30
 0.0
   0
VERTEX
   8
0
   6
Continuous
  10
 120.311050
  20
 34.062435
  30
 0.0
   0
VERTEX
   8
0
   6
Continuous
  10
 117.126541
  20
 35.814877
  30
 0.0
   0
VERTEX
   8
0
   6
Continuous
  10
 115.179047
  20
 36.390945
  30
 0.0
   0
VERTEX
   8
0
   6
Continuous
  10
 112.376053
  20
 35.128696
  30
 0.0
   0
VERTEX
   8
0
   6
Continuous
  10
 110.030548
  20
 33.160217
  30
 0.0
   0
VERTEX
   8
0
   6
Continuous
  10
 108.220749
  20
 30.817396
  30
 0.0
   0
VERTEX
   8
0
   6
Continuous
  10
 106.697144
  20
 28.196115
  30
 0.0
   0
VERTEX
   8
0
   6
Continuous
  10
 106.047852
  20
 29.712776
  30
 0.0
   0
VERTEX
   8
0
   6
Continuous
  10
 104.465454
  20
 32.037006
  30
 0.0
   0
VERTEX
   8
0
   6
Continuous
  10
 102.837051
  20
 33.435173
  30
 0.0
   0
VERTEX
   8
0
   6
Continuous
  10
 100.307755
  20
 34.683754
  30
 0.0
   0
VERTEX
   8
0
   6
Continuous
  10
 97.204254
  20
 35.125946
  30
 0.0
   0
VERTEX
   8
0
   6
Continuous
  10
 93.403641
  20
 34.558315
  30
 0.0
   0
VERTEX
   8
0
   6
Continuous
  10
 90.627655
  20
 33.491985
  30
 0.0
   0
VERTEX
   8
0
   6
Continuous
  10
 87.515549
  20
 31.791565
  30
 0.0
   0
VERTEX
   8
0
   6
Continuous
  10
 85.939651
  20
 30.555117
  30
 0.0
   0
VERTEX
   8
0
   6
Continuous
  10
 83.095840
  20
 27.532017
  30
 0.0
   0
VERTEX
   8
0
   6
Continuous
  10
 81.889053
  20
 25.168575
  30
 0.0
   0
VERTEX
   8
0
   6
Continuous
  10
 81.143646
  20
 23.494165
  30
 0.0
   0
VERTEX
   8
0
   6
Continuous
  10
 79.037155
  20
 26.624046
  30
 0.0
   0
VERTEX
   8
0
   6
Continuous
  10
 76.079742
  20
 29.562025
  30
 0.0
   0
VERTEX
   8
0
   6
Continuous
  10
 73.620651
  20
 30.918636
  30
 0.0
   0
VERTEX
   8
0
   6
Continuous
  10
 70.067245
  20
 32.143234
  30
 0.0
   0
VERTEX
   8
0
   6
Continuous
  10
 66.876251
  20
 32.453075
  30
 0.0
   0
VERTEX
   8
0
   6
Continuous
  10
 63.972157
  20
 32.308327
  30
 0.0
   0
VERTEX
   8
0
   6
Continuous
  10
 60.895054
  20
 31.622856
  30
 0.0
   0
VERTEX
   8
0
   6
Continuous
  10
 56.438251
  20
 29.727186
  30
 0.0
   0
VERTEX
   8
0
   6
Continuous
  10
 54.786259
  20
 28.662575
  30
 0.0
   0
VERTEX
   8
0
   6
Continuous
  10
 52.295658
  20
 26.609257
  30
 0.0
   0
VERTEX
   8
0
   6
Continuous
  10
 50.115055
  20
 23.723885
  30
 0.0
   0
VERTEX
   8
0
   6
Continuous
  10
 47.770145
  20
 19.674976
  30
 0.0
   0
VERTEX
   8
0
   6
Continuous
  10
 47.068058
  20
 18.882973
  30
 0.0
   0
VERTEX
   8
0
   6
Continuous
  10
 45.562550
  20
 21.455585
  30
 0.0
   0
VERTEX
   8
0
   6
Continuous
  10
 44.187153
  20
 23.502625
  30
 0.0
   0
VERTEX
   8
0
   6
Continuous
  10
 41.910755
  20
 25.980995
  30
 0.0
   0
VERTEX
   8
0
   6
Continuous
  10
 38.997150
  20
 28.121197
  30
 0.0
   0
VERTEX
   8
0
   6
Continuous
  10
 36.208759
  20
 29.580215
  30
 0.0
   0
VERTEX
   8
0
   6
Continuous
  10
 33.614857
  20
 30.170345
  30
 0.0
   0
VERTEX
   8
0
   6
Continuous
  10
 30.914448
  20
 30.313606
  30
 0.0
   0
VERTEX
   8
0
   6
Continuous
  10
 29.699253
  20
 30.481266
  30
 0.0
   0
VERTEX
   8
0
   6
Continuous
  10
 28.319752
  20
 30.336626
  30
 0.0
   0
VERTEX
   8
0
   6
Continuous
  10
 25.537556
  20
 29.676136
  30
 0.0
   0
VERTEX
   8
0
   6
Continuous
  10
 22.973354
  20
 28.662226
  30
 0.0
   0
VERTEX
   8
0
   6
Continuous
  10
 20.767948
  20
 27.397526
  30
 0.0
   0
VERTEX
   8
0
   6
Continuous
  10
 18.740551
  20
 26.022587
  30
 0.0
   0
VERTEX
   8
0
   6
Continuous
  10
 17.686451
  20
 25.193096
  30
 0.0
   0
VERTEX
   8
0
   6
Continuous
  10
 17.377651
  20
 25.205746
  30
 0.0
   0
SEQEND
   0
ENDSEC
   0
EOF
