   0
SECTION
   2
ENTITIES
   0
POLYLINE
   8
0
  66
 1
   6
Continuous
  10
 0.0
  20
 0.0
  30
 0.0
  70
 128
   0
VERTEX
   8
0
   6
Continuous
  10
 15.995245
  20
 139.719574
  30
 0.0
   0
VERTEX
   8
0
   6
Continuous
  10
 16.263855
  20
 139.689880
  30
 0.0
   0
VERTEX
   8
0
   6
Continuous
  10
 17.047894
  20
 136.932388
  30
 0.0
   0
VERTEX
   8
0
   6
Continuous
  10
 21.172699
  20
 123.223389
  30
 0.0
   0
VERTEX
   8
0
   6
Continuous
  10
 21.757191
  20
 122.512192
  30
 0.0
   0
VERTEX
   8
0
   6
Continuous
  10
 22.728359
  20
 120.735390
  30
 0.0
   0
VERTEX
   8
0
   6
Continuous
  10
 23.650539
  20
 120.628891
  30
 0.0
   0
VERTEX
   8
0
   6
Continuous
  10
 24.213060
  20
 120.171288
  30
 0.0
   0
VERTEX
   8
0
   6
Continuous
  10
 25.857220
  20
 114.911789
  30
 0.0
   0
VERTEX
   8
0
   6
Continuous
  10
 26.817360
  20
 113.994286
  30
 0.0
   0
VERTEX
   8
0
   6
Continuous
  10
 29.347090
  20
 105.747345
  30
 0.0
   0
VERTEX
   8
0
   6
Continuous
  10
 29.792990
  20
 105.461761
  30
 0.0
   0
VERTEX
   8
0
   6
Continuous
  10
 30.167070
  20
 105.728485
  30
 0.0
   0
VERTEX
   8
0
   6
Continuous
  10
 30.479561
  20
 106.854095
  30
 0.0
   0
VERTEX
   8
0
   6
Continuous
  10
 31.286020
  20
 110.330452
  30
 0.0
   0
VERTEX
   8
0
   6
Continuous
  10
 31.926090
  20
 113.572388
  30
 0.0
   0
VERTEX
   8
0
   6
Continuous
  10
 33.466671
  20
 118.602089
  30
 0.0
   0
VERTEX
   8
0
   6
Continuous
  10
 35.800129
  20
 124.170685
  30
 0.0
   0
VERTEX
   8
0
   6
Continuous
  10
 36.540829
  20
 126.047585
  30
 0.0
   0
VERTEX
   8
0
   6
Continuous
  10
 40.179619
  20
 132.686981
  30
 0.0
   0
VERTEX
   8
0
   6
Continuous
  10
 41.881897
  20
 135.335892
  30
 0.0
   0
VERTEX
   8
0
   6
Continuous
  10
 43.921978
  20
 137.796082
  30
 0.0
   0
VERTEX
   8
0
   6
Continuous
  10
 44.550610
  20
 138.753891
  30
 0.0
   0
VERTEX
   8
0
   6
Continuous
  10
 45.756058
  20
 140.207687
  30
 0.0
   0
VERTEX
   8
0
   6
Continuous
  10
 47.251427
  20
 141.499588
  30
 0.0
   0
VERTEX
   8
0
   6
Continuous
  10
 48.777668
  20
 142.937881
  30
 0.0
   0
VERTEX
   8
0
   6
Continuous
  10
 49.785717
  20
 144.011078
  30
 0.0
   0
VERTEX
   8
0
   6
Continuous
  10
 51.581707
  20
 145.298782
  30
 0.0
   0
VERTEX
   8
0
   6
Continuous
  10
 52.252987
  20
 146.069183
  30
 0.0
   0
VERTEX
   8
0
   6
Continuous
  10
 53.483318
  20
 146.690979
  30
 0.0
   0
VERTEX
   8
0
   6
Continuous
  10
 54.410309
  20
 147.482285
  30
 0.0
   0
VERTEX
   8
0
   6
Continuous
  10
 56.569260
  20
 148.730881
  30
 0.0
   0
VERTEX
   8
0
   6
Continuous
  10
 59.119030
  20
 149.924774
  30
 0.0
   0
VERTEX
   8
0
   6
Continuous
  10
 60.129150
  20
 150.827179
  30
 0.0
   0
VERTEX
   8
0
   6
Continuous
  10
 61.670227
  20
 151.451187
  30
 0.0
   0
VERTEX
   8
0
   6
Continuous
  10
 74.406006
  20
 154.975586
  30
 0.0
   0
VERTEX
   8
0
   6
Continuous
  10
 75.582436
  20
 154.738281
  30
 0.0
   0
VERTEX
   8
0
   6
Continuous
  10
 79.135048
  20
 155.240479
  30
 0.0
   0
VERTEX
   8
0
   6
Continuous
  10
 81.329819
  20
 155.362076
  30
 0.0
   0
VERTEX
   8
0
   6
Continuous
  10
 82.483902
  20
 155.377777
  30
 0.0
   0
VERTEX
   8
0
   6
Continuous
  10
 88.538811
  20
 155.087280
  30
 0.0
   0
VERTEX
   8
0
   6
Continuous
  10
 91.495735
  20
 154.522781
  30
 0.0
   0
VERTEX
   8
0
   6
Continuous
  10
 93.833008
  20
 154.313278
  30
 0.0
   0
VERTEX
   8
0
   6
Continuous
  10
 96.293976
  20
 153.739685
  30
 0.0
   0
VERTEX
   8
0
   6
Continuous
  10
 97.406357
  20
 153.387878
  30
 0.0
   0
VERTEX
   8
0
   6
Continuous
  10
 99.259766
  20
 152.897888
  30
 0.0
   0
VERTEX
   8
0
   6
Continuous
  10
 100.457458
  20
 152.698883
  30
 0.0
   0
VERTEX
   8
0
   6
Continuous
  10
 101.894249
  20
 152.341980
  30
 0.0
   0
VERTEX
   8
0
   6
Continuous
  10
 103.136246
  20
 151.929276
  30
 0.0
   0
VERTEX
   8
0
   6
Continuous
  10
 105.253105
  20
 151.032181
  30
 0.0
   0
VERTEX
   8
0
   6
Continuous
  10
 108.162132
  20
 150.088974
  30
 0.0
   0
VERTEX
   8
0
   6
Continuous
  10
 111.661369
  20
 148.444580
  30
 0.0
   0
VERTEX
   8
0
   6
Continuous
  10
 122.418472
  20
 142.510986
  30
 0.0
   0
VERTEX
   8
0
   6
Continuous
  10
 124.229668
  20
 141.066574
  30
 0.0
   0
VERTEX
   8
0
   6
Continuous
  10
 128.479477
  20
 138.129379
  30
 0.0
   0
VERTEX
   8
0
   6
Continuous
  10
 131.824173
  20
 134.458084
  30
 0.0
   0
VERTEX
   8
0
   6
Continuous
  10
 132.809570
  20
 133.557281
  30
 0.0
   0
VERTEX
   8
0
   6
Continuous
  10
 133.840469
  20
 131.615280
  30
 0.0
   0
VERTEX
   8
0
   6
Continuous
  10
 134.679871
  20
 130.481384
  30
 0.0
   0
VERTEX
   8
0
   6
Continuous
  10
 137.756882
  20
 119.975487
  30
 0.0
   0
VERTEX
   8
0
   6
Continuous
  10
 137.678574
  20
 118.653290
  30
 0.0
   0
VERTEX
   8
0
   6
Continuous
  10
 138.134781
  20
 118.205887
  30
 0.0
   0
VERTEX
   8
0
   6
Continuous
  10
 139.268875
  20
 118.197487
  30
 0.0
   0
VERTEX
   8
0
   6
Continuous
  10
 140.753479
  20
 117.910690
  30
 0.0
   0
VERTEX
   8
0
   6
Continuous
  10
 146.305481
  20
 119.400986
  30
 0.0
   0
VERTEX
   8
0
   6
Continuous
  10
 148.036880
  20
 120.560989
  30
 0.0
   0
VERTEX
   8
0
   6
Continuous
  10
 149.976974
  20
 121.277390
  30
 0.0
   0
VERTEX
   8
0
   6
Continuous
  10
 151.972382
  20
 122.290085
  30
 0.0
   0
VERTEX
   8
0
   6
Continuous
  10
 153.133881
  20
 123.175987
  30
 0.0
   0
VERTEX
   8
0
   6
Continuous
  10
 153.574081
  20
 123.116188
  30
 0.0
   0
VERTEX
   8
0
   6
Continuous
  10
 154.306274
  20
 122.558586
  30
 0.0
   0
VERTEX
   8
0
   6
Continuous
  10
 154.924774
  20
 120.805092
  30
 0.0
   0
VERTEX
   8
0
   6
Continuous
  10
 154.791672
  20
 119.734085
  30
 0.0
   0
VERTEX
   8
0
   6
Continuous
  10
 154.996582
  20
 118.519890
  30
 0.0
   0
VERTEX
   8
0
   6
Continuous
  10
 155.663269
  20
 117.663689
  30
 0.0
   0
VERTEX
   8
0
   6
Continuous
  10
 156.500076
  20
 115.532486
  30
 0.0
   0
VERTEX
   8
0
   6
Continuous
  10
 156.428284
  20
 114.727890
  30
 0.0
   0
VERTEX
   8
0
   6
Continuous
  10
 155.041275
  20
 113.885590
  30
 0.0
   0
VERTEX
   8
0
   6
Continuous
  10
 155.109772
  20
 113.408089
  30
 0.0
   0
VERTEX
   8
0
   6
Continuous
  10
 157.195679
  20
 112.204285
  30
 0.0
   0
VERTEX
   8
0
   6
Continuous
  10
 158.022781
  20
 111.341385
  30
 0.0
   0
VERTEX
   8
0
   6
Continuous
  10
 159.173874
  20
 110.472878
  30
 0.0
   0
VERTEX
   8
0
   6
Continuous
  10
 160.745483
  20
 108.599411
  30
 0.0
   0
VERTEX
   8
0
   6
Continuous
  10
 162.326080
  20
 104.691025
  30
 0.0
   0
VERTEX
   8
0
   6
Continuous
  10
 164.525970
  20
 103.063805
  30
 0.0
   0
VERTEX
   8
0
   6
Continuous
  10
 165.774673
  20
 101.783936
  30
 0.0
   0
VERTEX
   8
0
   6
Continuous
  10
 166.507278
  20
 100.751968
  30
 0.0
   0
VERTEX
   8
0
   6
Continuous
  10
 167.516281
  20
 99.042885
  30
 0.0
   0
VERTEX
   8
0
   6
Continuous
  10
 168.606979
  20
 95.495285
  30
 0.0
   0
VERTEX
   8
0
   6
Continuous
  10
 168.481369
  20
 94.092888
  30
 0.0
   0
VERTEX
   8
0
   6
Continuous
  10
 169.014877
  20
 92.057739
  30
 0.0
   0
VERTEX
   8
0
   6
Continuous
  10
 169.943680
  20
 90.791138
  30
 0.0
   0
VERTEX
   8
0
   6
Continuous
  10
 171.024979
  20
 90.090485
  30
 0.0
   0
VERTEX
   8
0
   6
Continuous
  10
 172.545273
  20
 89.298096
  30
 0.0
   0
VERTEX
   8
0
   6
Continuous
  10
 172.986374
  20
 88.749016
  30
 0.0
   0
VERTEX
   8
0
   6
Continuous
  10
 172.761871
  20
 87.020012
  30
 0.0
   0
VERTEX
   8
0
   6
Continuous
  10
 172.258972
  20
 86.396042
  30
 0.0
   0
VERTEX
   8
0
   6
Continuous
  10
 171.151474
  20
 86.801155
  30
 0.0
   0
VERTEX
   8
0
   6
Continuous
  10
 168.426071
  20
 87.669281
  30
 0.0
   0
VERTEX
   8
0
   6
Continuous
  10
 166.435074
  20
 89.781555
  30
 0.0
   0
VERTEX
   8
0
   6
Continuous
  10
 165.713181
  20
 91.712021
  30
 0.0
   0
VERTEX
   8
0
   6
Continuous
  10
 164.749680
  20
 95.847305
  30
 0.0
   0
VERTEX
   8
0
   6
Continuous
  10
 163.595078
  20
 98.445915
  30
 0.0
   0
VERTEX
   8
0
   6
Continuous
  10
 162.464478
  20
 99.585121
  30
 0.0
   0
VERTEX
   8
0
   6
Continuous
  10
 162.042282
  20
 99.465012
  30
 0.0
   0
VERTEX
   8
0
   6
Continuous
  10
 160.930069
  20
 97.982246
  30
 0.0
   0
VERTEX
   8
0
   6
Continuous
  10
 159.212677
  20
 96.814316
  30
 0.0
   0
VERTEX
   8
0
   6
Continuous
  10
 158.136871
  20
 95.948555
  30
 0.0
   0
VERTEX
   8
0
   6
Continuous
  10
 156.732971
  20
 95.362556
  30
 0.0
   0
VERTEX
   8
0
   6
Continuous
  10
 155.780380
  20
 95.605652
  30
 0.0
   0
VERTEX
   8
0
   6
Continuous
  10
 154.091675
  20
 95.497849
  30
 0.0
   0
VERTEX
   8
0
   6
Continuous
  10
 152.914978
  20
 96.041061
  30
 0.0
   0
VERTEX
   8
0
   6
Continuous
  10
 151.264572
  20
 97.187645
  30
 0.0
   0
VERTEX
   8
0
   6
Continuous
  10
 150.428574
  20
 98.327110
  30
 0.0
   0
VERTEX
   8
0
   6
Continuous
  10
 149.474579
  20
 99.761551
  30
 0.0
   0
VERTEX
   8
0
   6
Continuous
  10
 149.336975
  20
 100.242500
  30
 0.0
   0
VERTEX
   8
0
   6
Continuous
  10
 149.349380
  20
 102.321999
  30
 0.0
   0
VERTEX
   8
0
   6
Continuous
  10
 149.989075
  20
 103.928085
  30
 0.0
   0
VERTEX
   8
0
   6
Continuous
  10
 150.630569
  20
 104.715149
  30
 0.0
   0
VERTEX
   8
0
   6
Continuous
  10
 151.852081
  20
 105.777809
  30
 0.0
   0
VERTEX
   8
0
   6
Continuous
  10
 152.432373
  20
 105.835732
  30
 0.0
   0
VERTEX
   8
0
   6
Continuous
  10
 152.975372
  20
 105.522926
  30
 0.0
   0
VERTEX
   8
0
   6
Continuous
  10
 154.235580
  20
 104.267166
  30
 0.0
   0
VERTEX
   8
0
   6
Continuous
  10
 154.538376
  20
 103.348351
  30
 0.0
   0
VERTEX
   8
0
   6
Continuous
  10
 153.527069
  20
 100.987907
  30
 0.0
   0
VERTEX
   8
0
   6
Continuous
  10
 153.854874
  20
 100.359871
  30
 0.0
   0
VERTEX
   8
0
   6
Continuous
  10
 154.546478
  20
 100.317001
  30
 0.0
   0
VERTEX
   8
0
   6
Continuous
  10
 155.552582
  20
 100.825790
  30
 0.0
   0
VERTEX
   8
0
   6
Continuous
  10
 156.185974
  20
 101.940247
  30
 0.0
   0
VERTEX
   8
0
   6
Continuous
  10
 156.480377
  20
 103.902740
  30
 0.0
   0
VERTEX
   8
0
   6
Continuous
  10
 155.923782
  20
 106.006454
  30
 0.0
   0
VERTEX
   8
0
   6
Continuous
  10
 154.934479
  20
 107.275787
  30
 0.0
   0
VERTEX
   8
0
   6
Continuous
  10
 153.596481
  20
 108.102455
  30
 0.0
   0
VERTEX
   8
0
   6
Continuous
  10
 151.123077
  20
 109.239868
  30
 0.0
   0
VERTEX
   8
0
   6
Continuous
  10
 148.854080
  20
 109.376884
  30
 0.0
   0
VERTEX
   8
0
   6
Continuous
  10
 148.055679
  20
 109.537827
  30
 0.0
   0
VERTEX
   8
0
   6
Continuous
  10
 145.240875
  20
 107.397522
  30
 0.0
   0
VERTEX
   8
0
   6
Continuous
  10
 143.305374
  20
 104.223038
  30
 0.0
   0
VERTEX
   8
0
   6
Continuous
  10
 142.955475
  20
 102.620125
  30
 0.0
   0
VERTEX
   8
0
   6
Continuous
  10
 144.578979
  20
 96.641640
  30
 0.0
   0
VERTEX
   8
0
   6
Continuous
  10
 145.725876
  20
 91.747467
  30
 0.0
   0
VERTEX
   8
0
   6
Continuous
  10
 145.496384
  20
 90.403107
  30
 0.0
   0
VERTEX
   8
0
   6
Continuous
  10
 145.727982
  20
 88.801361
  30
 0.0
   0
VERTEX
   8
0
   6
Continuous
  10
 145.605179
  20
 86.088539
  30
 0.0
   0
VERTEX
   8
0
   6
Continuous
  10
 145.188873
  20
 83.866837
  30
 0.0
   0
VERTEX
   8
0
   6
Continuous
  10
 145.187378
  20
 82.395241
  30
 0.0
   0
VERTEX
   8
0
   6
Continuous
  10
 144.530975
  20
 79.980385
  30
 0.0
   0
VERTEX
   8
0
   6
Continuous
  10
 144.066879
  20
 77.949036
  30
 0.0
   0
VERTEX
   8
0
   6
Continuous
  10
 142.703476
  20
 74.456528
  30
 0.0
   0
VERTEX
   8
0
   6
Continuous
  10
 141.806976
  20
 72.339409
  30
 0.0
   0
VERTEX
   8
0
   6
Continuous
  10
 139.456573
  20
 67.761864
  30
 0.0
   0
VERTEX
   8
0
   6
Continuous
  10
 137.611572
  20
 64.538338
  30
 0.0
   0
VERTEX
   8
0
   6
Continuous
  10
 135.387573
  20
 61.199085
  30
 0.0
   0
VERTEX
   8
0
   6
Continuous
  10
 132.349579
  20
 57.332874
  30
 0.0
   0
VERTEX
   8
0
   6
Continuous
  10
 129.970276
  20
 54.407646
  30
 0.0
   0
VERTEX
   8
0
   6
Continuous
  10
 129.349167
  20
 53.445545
  30
 0.0
   0
VERTEX
   8
0
   6
Continuous
  10
 127.875069
  20
 52.141735
  30
 0.0
   0
VERTEX
   8
0
   6
Continuous
  10
 126.217972
  20
 50.285713
  30
 0.0
   0
VERTEX
   8
0
   6
Continuous
  10
 123.918968
  20
 48.133736
  30
 0.0
   0
VERTEX
   8
0
   6
Continuous
  10
 123.093971
  20
 47.449104
  30
 0.0
   0
VERTEX
   8
0
   6
Continuous
  10
 122.268265
  20
 46.601303
  30
 0.0
   0
VERTEX
   8
0
   6
Continuous
  10
 117.946869
  20
 43.288063
  30
 0.0
   0
VERTEX
   8
0
   6
Continuous
  10
 116.033867
  20
 41.738537
  30
 0.0
   0
VERTEX
   8
0
   6
Continuous
  10
 114.603668
  20
 41.064705
  30
 0.0
   0
VERTEX
   8
0
   6
Continuous
  10
 113.811165
  20
 40.198315
  30
 0.0
   0
VERTEX
   8
0
   6
Continuous
  10
 111.731270
  20
 39.396397
  30
 0.0
   0
VERTEX
   8
0
   6
Continuous
  10
 110.396469
  20
 38.342075
  30
 0.0
   0
VERTEX
   8
0
   6
Continuous
  10
 107.235878
  20
 37.325554
  30
 0.0
   0
VERTEX
   8
0
   6
Continuous
  10
 105.919861
  20
 36.424335
  30
 0.0
   0
VERTEX
   8
0
   6
Continuous
  10
 99.219238
  20
 34.454075
  30
 0.0
   0
VERTEX
   8
0
   6
Continuous
  10
 97.205368
  20
 34.363495
  30
 0.0
   0
VERTEX
   8
0
   6
Continuous
  10
 93.643509
  20
 33.551765
  30
 0.0
   0
VERTEX
   8
0
   6
Continuous
  10
 92.479378
  20
 33.810917
  30
 0.0
   0
VERTEX
   8
0
   6
Continuous
  10
 90.502602
  20
 33.493916
  30
 0.0
   0
VERTEX
   8
0
   6
Continuous
  10
 89.352585
  20
 33.778267
  30
 0.0
   0
VERTEX
   8
0
   6
Continuous
  10
 87.594765
  20
 33.560326
  30
 0.0
   0
VERTEX
   8
0
   6
Continuous
  10
 83.753937
  20
 34.006996
  30
 0.0
   0
VERTEX
   8
0
   6
Continuous
  10
 82.769089
  20
 34.294304
  30
 0.0
   0
VERTEX
   8
0
   6
Continuous
  10
 81.093307
  20
 34.516197
  30
 0.0
   0
VERTEX
   8
0
   6
Continuous
  10
 76.795975
  20
 35.610245
  30
 0.0
   0
VERTEX
   8
0
   6
Continuous
  10
 74.566315
  20
 36.305237
  30
 0.0
   0
VERTEX
   8
0
   6
Continuous
  10
 72.169014
  20
 37.286026
  30
 0.0
   0
VERTEX
   8
0
   6
Continuous
  10
 70.141571
  20
 38.050156
  30
 0.0
   0
VERTEX
   8
0
   6
Continuous
  10
 68.743248
  20
 38.475845
  30
 0.0
   0
VERTEX
   8
0
   6
Continuous
  10
 67.992081
  20
 38.888737
  30
 0.0
   0
VERTEX
   8
0
   6
Continuous
  10
 66.171654
  20
 39.730564
  30
 0.0
   0
VERTEX
   8
0
   6
Continuous
  10
 63.628670
  20
 41.036396
  30
 0.0
   0
VERTEX
   8
0
   6
Continuous
  10
 61.008667
  20
 42.153946
  30
 0.0
   0
VERTEX
   8
0
   6
Continuous
  10
 60.815578
  20
 42.668644
  30
 0.0
   0
VERTEX
   8
0
   6
Continuous
  10
 63.501179
  20
 47.840084
  30
 0.0
   0
VERTEX
   8
0
   6
Continuous
  10
 64.672737
  20
 50.403065
  30
 0.0
   0
VERTEX
   8
0
   6
Continuous
  10
 65.582123
  20
 51.611134
  30
 0.0
   0
VERTEX
   8
0
   6
Continuous
  10
 70.460617
  20
 50.048523
  30
 0.0
   0
VERTEX
   8
0
   6
Continuous
  10
 74.920975
  20
 49.246334
  30
 0.0
   0
VERTEX
   8
0
   6
Continuous
  10
 76.368866
  20
 49.202305
  30
 0.0
   0
VERTEX
   8
0
   6
Continuous
  10
 77.621750
  20
 49.101963
  30
 0.0
   0
VERTEX
   8
0
   6
Continuous
  10
 78.830421
  20
 49.215565
  30
 0.0
   0
VERTEX
   8
0
   6
Continuous
  10
 80.311600
  20
 48.938145
  30
 0.0
   0
VERTEX
   8
0
   6
Continuous
  10
 83.105530
  20
 49.546665
  30
 0.0
   0
VERTEX
   8
0
   6
Continuous
  10
 84.853088
  20
 49.271183
  30
 0.0
   0
VERTEX
   8
0
   6
Continuous
  10
 88.196281
  20
 50.247734
  30
 0.0
   0
VERTEX
   8
0
   6
Continuous
  10
 89.369316
  20
 51.228733
  30
 0.0
   0
VERTEX
   8
0
   6
Continuous
  10
 91.822021
  20
 52.149704
  30
 0.0
   0
VERTEX
   8
0
   6
Continuous
  10
 92.917717
  20
 53.010365
  30
 0.0
   0
VERTEX
   8
0
   6
Continuous
  10
 95.486290
  20
 54.684673
  30
 0.0
   0
VERTEX
   8
0
   6
Continuous
  10
 98.036667
  20
 56.959484
  30
 0.0
   0
VERTEX
   8
0
   6
Continuous
  10
 98.096359
  20
 57.573994
  30
 0.0
   0
VERTEX
   8
0
   6
Continuous
  10
 97.521568
  20
 57.787464
  30
 0.0
   0
VERTEX
   8
0
   6
Continuous
  10
 95.955757
  20
 57.367493
  30
 0.0
   0
VERTEX
   8
0
   6
Continuous
  10
 93.013351
  20
 56.449165
  30
 0.0
   0
VERTEX
   8
0
   6
Continuous
  10
 89.650055
  20
 55.699986
  30
 0.0
   0
VERTEX
   8
0
   6
Continuous
  10
 88.737907
  20
 55.824474
  30
 0.0
   0
VERTEX
   8
0
   6
Continuous
  10
 86.515656
  20
 55.653664
  30
 0.0
   0
VERTEX
   8
0
   6
Continuous
  10
 85.330711
  20
 55.875645
  30
 0.0
   0
VERTEX
   8
0
   6
Continuous
  10
 83.967537
  20
 55.778423
  30
 0.0
   0
VERTEX
   8
0
   6
Continuous
  10
 81.676109
  20
 56.069805
  30
 0.0
   0
VERTEX
   8
0
   6
Continuous
  10
 80.658546
  20
 56.298523
  30
 0.0
   0
VERTEX
   8
0
   6
Continuous
  10
 79.846046
  20
 56.601364
  30
 0.0
   0
VERTEX
   8
0
   6
Continuous
  10
 77.990730
  20
 57.079975
  30
 0.0
   0
VERTEX
   8
0
   6
Continuous
  10
 76.678978
  20
 57.767216
  30
 0.0
   0
VERTEX
   8
0
   6
Continuous
  10
 76.740402
  20
 58.000416
  30
 0.0
   0
VERTEX
   8
0
   6
Continuous
  10
 79.993217
  20
 59.082073
  30
 0.0
   0
VERTEX
   8
0
   6
Continuous
  10
 80.710358
  20
 59.826893
  30
 0.0
   0
VERTEX
   8
0
   6
Continuous
  10
 81.938675
  20
 60.449913
  30
 0.0
   0
VERTEX
   8
0
   6
Continuous
  10
 84.025459
  20
 61.902386
  30
 0.0
   0
VERTEX
   8
0
   6
Continuous
  10
 85.789536
  20
 63.799824
  30
 0.0
   0
VERTEX
   8
0
   6
Continuous
  10
 85.925209
  20
 64.431854
  30
 0.0
   0
VERTEX
   8
0
   6
Continuous
  10
 85.326370
  20
 64.658844
  30
 0.0
   0
VERTEX
   8
0
   6
Continuous
  10
 80.718056
  20
 63.436993
  30
 0.0
   0
VERTEX
   8
0
   6
Continuous
  10
 78.025871
  20
 63.303665
  30
 0.0
   0
VERTEX
   8
0
   6
Continuous
  10
 74.820358
  20
 63.423054
  30
 0.0
   0
VERTEX
   8
0
   6
Continuous
  10
 71.865089
  20
 63.990543
  30
 0.0
   0
VERTEX
   8
0
   6
Continuous
  10
 69.910812
  20
 64.703735
  30
 0.0
   0
VERTEX
   8
0
   6
Continuous
  10
 69.503853
  20
 65.064484
  30
 0.0
   0
VERTEX
   8
0
   6
Continuous
  10
 69.569778
  20
 65.587608
  30
 0.0
   0
VERTEX
   8
0
   6
Continuous
  10
 71.470940
  20
 66.294998
  30
 0.0
   0
VERTEX
   8
0
   6
Continuous
  10
 72.478241
  20
 67.041405
  30
 0.0
   0
VERTEX
   8
0
   6
Continuous
  10
 74.610626
  20
 68.141220
  30
 0.0
   0
VERTEX
   8
0
   6
Continuous
  10
 76.990936
  20
 70.902016
  30
 0.0
   0
VERTEX
   8
0
   6
Continuous
  10
 77.669861
  20
 71.931007
  30
 0.0
   0
VERTEX
   8
0
   6
Continuous
  10
 77.651932
  20
 72.390984
  30
 0.0
   0
VERTEX
   8
0
   6
Continuous
  10
 77.188255
  20
 72.645508
  30
 0.0
   0
VERTEX
   8
0
   6
Continuous
  10
 72.923653
  20
 71.746323
  30
 0.0
   0
VERTEX
   8
0
   6
Continuous
  10
 71.844673
  20
 71.864944
  30
 0.0
   0
VERTEX
   8
0
   6
Continuous
  10
 68.685913
  20
 71.482025
  30
 0.0
   0
VERTEX
   8
0
   6
Continuous
  10
 64.706009
  20
 72.558563
  30
 0.0
   0
VERTEX
   8
0
   6
Continuous
  10
 62.631199
  20
 73.735886
  30
 0.0
   0
VERTEX
   8
0
   6
Continuous
  10
 62.693699
  20
 74.157700
  30
 0.0
   0
VERTEX
   8
0
   6
Continuous
  10
 64.840431
  20
 74.905739
  30
 0.0
   0
VERTEX
   8
0
   6
Continuous
  10
 66.209984
  20
 75.777077
  30
 0.0
   0
VERTEX
   8
0
   6
Continuous
  10
 68.709282
  20
 76.671967
  30
 0.0
   0
VERTEX
   8
0
   6
Continuous
  10
 70.503479
  20
 78.451500
  30
 0.0
   0
VERTEX
   8
0
   6
Continuous
  10
 72.033653
  20
 79.825615
  30
 0.0
   0
VERTEX
   8
0
   6
Continuous
  10
 72.211807
  20
 80.390320
  30
 0.0
   0
VERTEX
   8
0
   6
Continuous
  10
 71.890862
  20
 80.747002
  30
 0.0
   0
VERTEX
   8
0
   6
Continuous
  10
 68.139702
  20
 79.879845
  30
 0.0
   0
VERTEX
   8
0
   6
Continuous
  10
 66.796059
  20
 80.110550
  30
 0.0
   0
VERTEX
   8
0
   6
Continuous
  10
 65.373077
  20
 79.906219
  30
 0.0
   0
VERTEX
   8
0
   6
Continuous
  10
 62.405979
  20
 80.159561
  30
 0.0
   0
VERTEX
   8
0
   6
Continuous
  10
 59.496727
  20
 80.809502
  30
 0.0
   0
VERTEX
   8
0
   6
Continuous
  10
 57.840530
  20
 81.261101
  30
 0.0
   0
VERTEX
   8
0
   6
Continuous
  10
 57.143089
  20
 81.793365
  30
 0.0
   0
VERTEX
   8
0
   6
Continuous
  10
 57.240410
  20
 82.264656
  30
 0.0
   0
VERTEX
   8
0
   6
Continuous
  10
 58.807140
  20
 82.855797
  30
 0.0
   0
VERTEX
   8
0
   6
Continuous
  10
 59.751549
  20
 83.473640
  30
 0.0
   0
VERTEX
   8
0
   6
Continuous
  10
 61.120609
  20
 84.181709
  30
 0.0
   0
VERTEX
   8
0
   6
Continuous
  10
 64.203247
  20
 86.550568
  30
 0.0
   0
VERTEX
   8
0
   6
Continuous
  10
 65.567444
  20
 88.079308
  30
 0.0
   0
VERTEX
   8
0
   6
Continuous
  10
 66.948082
  20
 89.271675
  30
 0.0
   0
VERTEX
   8
0
   6
Continuous
  10
 71.470978
  20
 90.533615
  30
 0.0
   0
VERTEX
   8
0
   6
Continuous
  10
 77.036446
  20
 91.955666
  30
 0.0
   0
VERTEX
   8
0
   6
Continuous
  10
 77.579361
  20
 91.803375
  30
 0.0
   0
VERTEX
   8
0
   6
Continuous
  10
 78.698875
  20
 88.841408
  30
 0.0
   0
VERTEX
   8
0
   6
Continuous
  10
 79.832390
  20
 88.221687
  30
 0.0
   0
VERTEX
   8
0
   6
Continuous
  10
 80.751778
  20
 88.288292
  30
 0.0
   0
VERTEX
   8
0
   6
Continuous
  10
 81.672096
  20
 89.066681
  30
 0.0
   0
VERTEX
   8
0
   6
Continuous
  10
 84.456322
  20
 90.668869
  30
 0.0
   0
VERTEX
   8
0
   6
Continuous
  10
 85.359802
  20
 90.793549
  30
 0.0
   0
VERTEX
   8
0
   6
Continuous
  10
 86.334381
  20
 90.195915
  30
 0.0
   0
VERTEX
   8
0
   6
Continuous
  10
 88.115387
  20
 88.990448
  30
 0.0
   0
VERTEX
   8
0
   6
Continuous
  10
 93.155136
  20
 85.416840
  30
 0.0
   0
VERTEX
   8
0
   6
Continuous
  10
 95.075516
  20
 83.879990
  30
 0.0
   0
VERTEX
   8
0
   6
Continuous
  10
 93.608475
  20
 80.601807
  30
 0.0
   0
VERTEX
   8
0
   6
Continuous
  10
 93.210655
  20
 78.595306
  30
 0.0
   0
VERTEX
   8
0
   6
Continuous
  10
 93.320755
  20
 77.504768
  30
 0.0
   0
VERTEX
   8
0
   6
Continuous
  10
 94.139336
  20
 76.045517
  30
 0.0
   0
VERTEX
   8
0
   6
Continuous
  10
 94.864876
  20
 74.414864
  30
 0.0
   0
VERTEX
   8
0
   6
Continuous
  10
 95.624641
  20
 73.724464
  30
 0.0
   0
VERTEX
   8
0
   6
Continuous
  10
 96.117821
  20
 72.849709
  30
 0.0
   0
VERTEX
   8
0
   6
Continuous
  10
 97.035912
  20
 71.563774
  30
 0.0
   0
VERTEX
   8
0
   6
Continuous
  10
 99.196045
  20
 69.279335
  30
 0.0
   0
VERTEX
   8
0
   6
Continuous
  10
 100.497231
  20
 67.507706
  30
 0.0
   0
VERTEX
   8
0
   6
Continuous
  10
 101.267380
  20
 66.835899
  30
 0.0
   0
VERTEX
   8
0
   6
Continuous
  10
 102.177261
  20
 65.828339
  30
 0.0
   0
VERTEX
   8
0
   6
Continuous
  10
 104.014160
  20
 64.723000
  30
 0.0
   0
VERTEX
   8
0
   6
Continuous
  10
 106.920792
  20
 64.651863
  30
 0.0
   0
VERTEX
   8
0
   6
Continuous
  10
 111.493767
  20
 65.870018
  30
 0.0
   0
VERTEX
   8
0
   6
Continuous
  10
 112.673065
  20
 66.683983
  30
 0.0
   0
VERTEX
   8
0
   6
Continuous
  10
 116.736465
  20
 68.014397
  30
 0.0
   0
VERTEX
   8
0
   6
Continuous
  10
 117.653969
  20
 68.974586
  30
 0.0
   0
VERTEX
   8
0
   6
Continuous
  10
 120.050171
  20
 69.763489
  30
 0.0
   0
VERTEX
   8
0
   6
Continuous
  10
 121.457069
  20
 70.613930
  30
 0.0
   0
VERTEX
   8
0
   6
Continuous
  10
 124.064072
  20
 71.610947
  30
 0.0
   0
VERTEX
   8
0
   6
Continuous
  10
 124.726768
  20
 72.487144
  30
 0.0
   0
VERTEX
   8
0
   6
Continuous
  10
 124.736572
  20
 72.961349
  30
 0.0
   0
VERTEX
   8
0
   6
Continuous
  10
 124.358665
  20
 73.325768
  30
 0.0
   0
VERTEX
   8
0
   6
Continuous
  10
 122.763168
  20
 73.101624
  30
 0.0
   0
VERTEX
   8
0
   6
Continuous
  10
 121.277969
  20
 73.371933
  30
 0.0
   0
VERTEX
   8
0
   6
Continuous
  10
 118.890068
  20
 73.490555
  30
 0.0
   0
VERTEX
   8
0
   6
Continuous
  10
 118.087067
  20
 73.810387
  30
 0.0
   0
VERTEX
   8
0
   6
Continuous
  10
 114.756172
  20
 74.576546
  30
 0.0
   0
VERTEX
   8
0
   6
Continuous
  10
 113.417267
  20
 75.124329
  30
 0.0
   0
VERTEX
   8
0
   6
Continuous
  10
 112.033371
  20
 74.730835
  30
 0.0
   0
VERTEX
   8
0
   6
Continuous
  10
 111.434471
  20
 73.920059
  30
 0.0
   0
VERTEX
   8
0
   6
Continuous
  10
 109.076691
  20
 71.855675
  30
 0.0
   0
VERTEX
   8
0
   6
Continuous
  10
 108.303032
  20
 71.353416
  30
 0.0
   0
VERTEX
   8
0
   6
Continuous
  10
 106.346756
  20
 71.830284
  30
 0.0
   0
VERTEX
   8
0
   6
Continuous
  10
 104.705162
  20
 72.992294
  30
 0.0
   0
VERTEX
   8
0
   6
Continuous
  10
 103.917610
  20
 73.625313
  30
 0.0
   0
VERTEX
   8
0
   6
Continuous
  10
 102.897736
  20
 77.214417
  30
 0.0
   0
VERTEX
   8
0
   6
Continuous
  10
 103.410416
  20
 79.055031
  30
 0.0
   0
VERTEX
   8
0
   6
Continuous
  10
 104.645325
  20
 80.492386
  30
 0.0
   0
VERTEX
   8
0
   6
Continuous
  10
 104.924942
  20
 81.139816
  30
 0.0
   0
VERTEX
   8
0
   6
Continuous
  10
 104.021652
  20
 84.074326
  30
 0.0
   0
VERTEX
   8
0
   6
Continuous
  10
 103.249489
  20
 85.035469
  30
 0.0
   0
VERTEX
   8
0
   6
Continuous
  10
 101.942879
  20
 88.959427
  30
 0.0
   0
VERTEX
   8
0
   6
Continuous
  10
 101.248215
  20
 89.794258
  30
 0.0
   0
VERTEX
   8
0
   6
Continuous
  10
 100.046562
  20
 88.950241
  30
 0.0
   0
VERTEX
   8
0
   6
Continuous
  10
 98.036995
  20
 87.127388
  30
 0.0
   0
VERTEX
   8
0
   6
Continuous
  10
 96.157646
  20
 85.048035
  30
 0.0
   0
VERTEX
   8
0
   6
Continuous
  10
 95.413681
  20
 84.828926
  30
 0.0
   0
VERTEX
   8
0
   6
Continuous
  10
 90.913727
  20
 87.848801
  30
 0.0
   0
VERTEX
   8
0
   6
Continuous
  10
 87.517685
  20
 90.263962
  30
 0.0
   0
VERTEX
   8
0
   6
Continuous
  10
 85.584122
  20
 91.712631
  30
 0.0
   0
VERTEX
   8
0
   6
Continuous
  10
 87.301521
  20
 92.958420
  30
 0.0
   0
VERTEX
   8
0
   6
Continuous
  10
 90.544090
  20
 96.121971
  30
 0.0
   0
VERTEX
   8
0
   6
Continuous
  10
 90.235146
  20
 96.607285
  30
 0.0
   0
VERTEX
   8
0
   6
Continuous
  10
 88.057381
  20
 97.090462
  30
 0.0
   0
VERTEX
   8
0
   6
Continuous
  10
 86.786568
  20
 97.158615
  30
 0.0
   0
VERTEX
   8
0
   6
Continuous
  10
 84.589111
  20
 97.640236
  30
 0.0
   0
VERTEX
   8
0
   6
Continuous
  10
 84.296425
  20
 97.987869
  30
 0.0
   0
VERTEX
   8
0
   6
Continuous
  10
 84.427147
  20
 98.980896
  30
 0.0
   0
VERTEX
   8
0
   6
Continuous
  10
 87.562790
  20
 108.620049
  30
 0.0
   0
VERTEX
   8
0
   6
Continuous
  10
 87.915810
  20
 109.137360
  30
 0.0
   0
VERTEX
   8
0
   6
Continuous
  10
 89.178986
  20
 108.475098
  30
 0.0
   0
VERTEX
   8
0
   6
Continuous
  10
 92.557175
  20
 107.492859
  30
 0.0
   0
VERTEX
   8
0
   6
Continuous
  10
 93.853142
  20
 107.176765
  30
 0.0
   0
VERTEX
   8
0
   6
Continuous
  10
 95.852875
  20
 107.075516
  30
 0.0
   0
VERTEX
   8
0
   6
Continuous
  10
 96.399048
  20
 107.355240
  30
 0.0
   0
VERTEX
   8
0
   6
Continuous
  10
 96.443642
  20
 108.468262
  30
 0.0
   0
VERTEX
   8
0
   6
Continuous
  10
 95.550858
  20
 111.477287
  30
 0.0
   0
VERTEX
   8
0
   6
Continuous
  10
 95.823036
  20
 112.577690
  30
 0.0
   0
VERTEX
   8
0
   6
Continuous
  10
 95.169365
  20
 115.856590
  30
 0.0
   0
VERTEX
   8
0
   6
Continuous
  10
 94.705490
  20
 116.615189
  30
 0.0
   0
VERTEX
   8
0
   6
Continuous
  10
 92.644196
  20
 117.317688
  30
 0.0
   0
VERTEX
   8
0
   6
Continuous
  10
 91.343872
  20
 118.100990
  30
 0.0
   0
VERTEX
   8
0
   6
Continuous
  10
 90.340172
  20
 121.529289
  30
 0.0
   0
VERTEX
   8
0
   6
Continuous
  10
 90.724907
  20
 123.604988
  30
 0.0
   0
VERTEX
   8
0
   6
Continuous
  10
 91.364929
  20
 124.985291
  30
 0.0
   0
VERTEX
   8
0
   6
Continuous
  10
 91.967552
  20
 125.661987
  30
 0.0
   0
VERTEX
   8
0
   6
Continuous
  10
 95.118301
  20
 126.436386
  30
 0.0
   0
VERTEX
   8
0
   6
Continuous
  10
 96.387108
  20
 126.071686
  30
 0.0
   0
VERTEX
   8
0
   6
Continuous
  10
 97.680832
  20
 125.459587
  30
 0.0
   0
VERTEX
   8
0
   6
Continuous
  10
 98.396667
  20
 125.413185
  30
 0.0
   0
VERTEX
   8
0
   6
Continuous
  10
 99.630539
  20
 126.648987
  30
 0.0
   0
VERTEX
   8
0
   6
Continuous
  10
 101.568588
  20
 128.838882
  30
 0.0
   0
VERTEX
   8
0
   6
Continuous
  10
 103.878632
  20
 130.821182
  30
 0.0
   0
VERTEX
   8
0
   6
Continuous
  10
 104.855385
  20
 131.748291
  30
 0.0
   0
VERTEX
   8
0
   6
Continuous
  10
 105.880005
  20
 132.812180
  30
 0.0
   0
VERTEX
   8
0
   6
Continuous
  10
 107.893089
  20
 133.536179
  30
 0.0
   0
VERTEX
   8
0
   6
Continuous
  10
 108.146729
  20
 133.915985
  30
 0.0
   0
VERTEX
   8
0
   6
Continuous
  10
 107.546402
  20
 134.046982
  30
 0.0
   0
VERTEX
   8
0
   6
Continuous
  10
 106.435188
  20
 134.397278
  30
 0.0
   0
VERTEX
   8
0
   6
Continuous
  10
 103.205025
  20
 133.886490
  30
 0.0
   0
VERTEX
   8
0
   6
Continuous
  10
 102.195679
  20
 134.049591
  30
 0.0
   0
VERTEX
   8
0
   6
Continuous
  10
 101.589760
  20
 133.898987
  30
 0.0
   0
VERTEX
   8
0
   6
Continuous
  10
 100.716949
  20
 133.826584
  30
 0.0
   0
VERTEX
   8
0
   6
Continuous
  10
 98.697601
  20
 133.432388
  30
 0.0
   0
VERTEX
   8
0
   6
Continuous
  10
 97.462982
  20
 133.565277
  30
 0.0
   0
VERTEX
   8
0
   6
Continuous
  10
 92.725365
  20
 132.405991
  30
 0.0
   0
VERTEX
   8
0
   6
Continuous
  10
 91.236847
  20
 132.670181
  30
 0.0
   0
VERTEX
   8
0
   6
Continuous
  10
 89.269928
  20
 132.107086
  30
 0.0
   0
VERTEX
   8
0
   6
Continuous
  10
 88.196571
  20
 131.233887
  30
 0.0
   0
VERTEX
   8
0
   6
Continuous
  10
 86.684952
  20
 130.605881
  30
 0.0
   0
VERTEX
   8
0
   6
Continuous
  10
 85.394958
  20
 129.662979
  30
 0.0
   0
VERTEX
   8
0
   6
Continuous
  10
 84.539406
  20
 127.876884
  30
 0.0
   0
VERTEX
   8
0
   6
Continuous
  10
 84.124756
  20
 125.327187
  30
 0.0
   0
VERTEX
   8
0
   6
Continuous
  10
 83.665161
  20
 123.293289
  30
 0.0
   0
VERTEX
   8
0
   6
Continuous
  10
 83.342842
  20
 121.509987
  30
 0.0
   0
VERTEX
   8
0
   6
Continuous
  10
 83.162262
  20
 119.811089
  30
 0.0
   0
VERTEX
   8
0
   6
Continuous
  10
 83.144196
  20
 118.348686
  30
 0.0
   0
VERTEX
   8
0
   6
Continuous
  10
 82.964905
  20
 117.303490
  30
 0.0
   0
VERTEX
   8
0
   6
Continuous
  10
 82.936859
  20
 116.338890
  30
 0.0
   0
VERTEX
   8
0
   6
Continuous
  10
 82.980675
  20
 114.509087
  30
 0.0
   0
VERTEX
   8
0
   6
Continuous
  10
 83.304237
  20
 112.897186
  30
 0.0
   0
VERTEX
   8
0
   6
Continuous
  10
 84.419350
  20
 111.378189
  30
 0.0
   0
VERTEX
   8
0
   6
Continuous
  10
 86.734329
  20
 109.714432
  30
 0.0
   0
VERTEX
   8
0
   6
Continuous
  10
 86.991112
  20
 109.281525
  30
 0.0
   0
VERTEX
   8
0
   6
Continuous
  10
 83.898590
  20
 99.607628
  30
 0.0
   0
VERTEX
   8
0
   6
Continuous
  10
 83.215881
  20
 97.934441
  30
 0.0
   0
VERTEX
   8
0
   6
Continuous
  10
 80.771759
  20
 98.106941
  30
 0.0
   0
VERTEX
   8
0
   6
Continuous
  10
 79.323715
  20
 98.150261
  30
 0.0
   0
VERTEX
   8
0
   6
Continuous
  10
 78.470741
  20
 98.367546
  30
 0.0
   0
VERTEX
   8
0
   6
Continuous
  10
 77.871460
  20
 98.197395
  30
 0.0
   0
VERTEX
   8
0
   6
Continuous
  10
 77.101387
  20
 97.018051
  30
 0.0
   0
VERTEX
   8
0
   6
Continuous
  10
 76.723030
  20
 95.920471
  30
 0.0
   0
VERTEX
   8
0
   6
Continuous
  10
 77.205299
  20
 93.333847
  30
 0.0
   0
VERTEX
   8
0
   6
Continuous
  10
 76.917778
  20
 92.866409
  30
 0.0
   0
VERTEX
   8
0
   6
Continuous
  10
 71.618538
  20
 91.383835
  30
 0.0
   0
VERTEX
   8
0
   6
Continuous
  10
 67.267761
  20
 90.331238
  30
 0.0
   0
VERTEX
   8
0
   6
Continuous
  10
 65.600693
  20
 90.861740
  30
 0.0
   0
VERTEX
   8
0
   6
Continuous
  10
 60.819599
  20
 91.968491
  30
 0.0
   0
VERTEX
   8
0
   6
Continuous
  10
 59.641659
  20
 91.910011
  30
 0.0
   0
VERTEX
   8
0
   6
Continuous
  10
 58.402039
  20
 92.034081
  30
 0.0
   0
VERTEX
   8
0
   6
Continuous
  10
 54.947838
  20
 91.220390
  30
 0.0
   0
VERTEX
   8
0
   6
Continuous
  10
 54.314629
  20
 91.388382
  30
 0.0
   0
VERTEX
   8
0
   6
Continuous
  10
 54.214489
  20
 91.979332
  30
 0.0
   0
VERTEX
   8
0
   6
Continuous
  10
 55.663258
  20
 93.936989
  30
 0.0
   0
VERTEX
   8
0
   6
Continuous
  10
 56.888737
  20
 95.379578
  30
 0.0
   0
VERTEX
   8
0
   6
Continuous
  10
 58.081158
  20
 96.349861
  30
 0.0
   0
VERTEX
   8
0
   6
Continuous
  10
 59.526478
  20
 97.178871
  30
 0.0
   0
VERTEX
   8
0
   6
Continuous
  10
 60.236668
  20
 97.927582
  30
 0.0
   0
VERTEX
   8
0
   6
Continuous
  10
 61.231007
  20
 98.517555
  30
 0.0
   0
VERTEX
   8
0
   6
Continuous
  10
 66.078812
  20
 100.064415
  30
 0.0
   0
VERTEX
   8
0
   6
Continuous
  10
 66.471962
  20
 100.483604
  30
 0.0
   0
VERTEX
   8
0
   6
Continuous
  10
 66.293510
  20
 101.175636
  30
 0.0
   0
VERTEX
   8
0
   6
Continuous
  10
 63.219769
  20
 102.126808
  30
 0.0
   0
VERTEX
   8
0
   6
Continuous
  10
 59.973259
  20
 102.172829
  30
 0.0
   0
VERTEX
   8
0
   6
Continuous
  10
 55.458237
  20
 101.008057
  30
 0.0
   0
VERTEX
   8
0
   6
Continuous
  10
 54.849720
  20
 101.137535
  30
 0.0
   0
VERTEX
   8
0
   6
Continuous
  10
 54.794617
  20
 101.787025
  30
 0.0
   0
VERTEX
   8
0
   6
Continuous
  10
 55.819027
  20
 103.768219
  30
 0.0
   0
VERTEX
   8
0
   6
Continuous
  10
 57.816120
  20
 105.987137
  30
 0.0
   0
VERTEX
   8
0
   6
Continuous
  10
 59.851929
  20
 107.468117
  30
 0.0
   0
VERTEX
   8
0
   6
Continuous
  10
 60.898899
  20
 108.028725
  30
 0.0
   0
VERTEX
   8
0
   6
Continuous
  10
 64.509537
  20
 109.284752
  30
 0.0
   0
VERTEX
   8
0
   6
Continuous
  10
 65.631790
  20
 110.356155
  30
 0.0
   0
VERTEX
   8
0
   6
Continuous
  10
 66.197762
  20
 110.318291
  30
 0.0
   0
VERTEX
   8
0
   6
Continuous
  10
 66.814880
  20
 110.965691
  30
 0.0
   0
VERTEX
   8
0
   6
Continuous
  10
 65.739571
  20
 111.802490
  30
 0.0
   0
VERTEX
   8
0
   6
Continuous
  10
 63.710579
  20
 112.381691
  30
 0.0
   0
VERTEX
   8
0
   6
Continuous
  10
 60.501057
  20
 112.786888
  30
 0.0
   0
VERTEX
   8
0
   6
Continuous
  10
 57.017708
  20
 111.933685
  30
 0.0
   0
VERTEX
   8
0
   6
Continuous
  10
 55.925827
  20
 111.798187
  30
 0.0
   0
VERTEX
   8
0
   6
Continuous
  10
 55.833908
  20
 112.188988
  30
 0.0
   0
VERTEX
   8
0
   6
Continuous
  10
 56.705528
  20
 113.804787
  30
 0.0
   0
VERTEX
   8
0
   6
Continuous
  10
 58.349678
  20
 115.669388
  30
 0.0
   0
VERTEX
   8
0
   6
Continuous
  10
 59.777489
  20
 117.162491
  30
 0.0
   0
VERTEX
   8
0
   6
Continuous
  10
 60.715958
  20
 117.620186
  30
 0.0
   0
VERTEX
   8
0
   6
Continuous
  10
 61.770920
  20
 118.339989
  30
 0.0
   0
VERTEX
   8
0
   6
Continuous
  10
 65.147758
  20
 119.726486
  30
 0.0
   0
VERTEX
   8
0
   6
Continuous
  10
 66.158569
  20
 120.604286
  30
 0.0
   0
VERTEX
   8
0
   6
Continuous
  10
 68.298477
  20
 121.239388
  30
 0.0
   0
VERTEX
   8
0
   6
Continuous
  10
 69.584602
  20
 122.055588
  30
 0.0
   0
VERTEX
   8
0
   6
Continuous
  10
 69.538681
  20
 122.414986
  30
 0.0
   0
VERTEX
   8
0
   6
Continuous
  10
 68.758774
  20
 122.594788
  30
 0.0
   0
VERTEX
   8
0
   6
Continuous
  10
 67.363770
  20
 122.732986
  30
 0.0
   0
VERTEX
   8
0
   6
Continuous
  10
 66.087372
  20
 123.084190
  30
 0.0
   0
VERTEX
   8
0
   6
Continuous
  10
 62.657257
  20
 123.094391
  30
 0.0
   0
VERTEX
   8
0
   6
Continuous
  10
 58.157280
  20
 122.022087
  30
 0.0
   0
VERTEX
   8
0
   6
Continuous
  10
 57.972828
  20
 122.313988
  30
 0.0
   0
VERTEX
   8
0
   6
Continuous
  10
 60.994308
  20
 126.136086
  30
 0.0
   0
VERTEX
   8
0
   6
Continuous
  10
 64.372047
  20
 128.830978
  30
 0.0
   0
VERTEX
   8
0
   6
Continuous
  10
 66.789993
  20
 130.425781
  30
 0.0
   0
VERTEX
   8
0
   6
Continuous
  10
 69.615738
  20
 131.465683
  30
 0.0
   0
VERTEX
   8
0
   6
Continuous
  10
 70.825768
  20
 132.098785
  30
 0.0
   0
VERTEX
   8
0
   6
Continuous
  10
 74.185585
  20
 133.235687
  30
 0.0
   0
VERTEX
   8
0
   6
Continuous
  10
 76.137619
  20
 133.324081
  30
 0.0
   0
VERTEX
   8
0
   6
Continuous
  10
 76.565880
  20
 133.714279
  30
 0.0
   0
VERTEX
   8
0
   6
Continuous
  10
 76.317665
  20
 134.095581
  30
 0.0
   0
VERTEX
   8
0
   6
Continuous
  10
 74.712708
  20
 134.721878
  30
 0.0
   0
VERTEX
   8
0
   6
Continuous
  10
 70.761742
  20
 135.446289
  30
 0.0
   0
VERTEX
   8
0
   6
Continuous
  10
 68.793541
  20
 135.255386
  30
 0.0
   0
VERTEX
   8
0
   6
Continuous
  10
 67.443733
  20
 135.464386
  30
 0.0
   0
VERTEX
   8
0
   6
Continuous
  10
 65.047234
  20
 134.992279
  30
 0.0
   0
VERTEX
   8
0
   6
Continuous
  10
 58.151909
  20
 132.902283
  30
 0.0
   0
VERTEX
   8
0
   6
Continuous
  10
 57.468048
  20
 132.195282
  30
 0.0
   0
VERTEX
   8
0
   6
Continuous
  10
 55.929508
  20
 131.418381
  30
 0.0
   0
VERTEX
   8
0
   6
Continuous
  10
 53.559608
  20
 129.960281
  30
 0.0
   0
VERTEX
   8
0
   6
Continuous
  10
 52.206200
  20
 128.916290
  30
 0.0
   0
VERTEX
   8
0
   6
Continuous
  10
 51.095699
  20
 127.736687
  30
 0.0
   0
VERTEX
   8
0
   6
Continuous
  10
 49.209629
  20
 126.008591
  30
 0.0
   0
VERTEX
   8
0
   6
Continuous
  10
 45.854359
  20
 122.323792
  30
 0.0
   0
VERTEX
   8
0
   6
Continuous
  10
 45.187557
  20
 121.090385
  30
 0.0
   0
VERTEX
   8
0
   6
Continuous
  10
 45.236820
  20
 120.765190
  30
 0.0
   0
VERTEX
   8
0
   6
Continuous
  10
 46.171440
  20
 120.819588
  30
 0.0
   0
VERTEX
   8
0
   6
Continuous
  10
 47.444759
  20
 120.755890
  30
 0.0
   0
VERTEX
   8
0
   6
Continuous
  10
 49.246109
  20
 120.758888
  30
 0.0
   0
VERTEX
   8
0
   6
Continuous
  10
 50.796940
  20
 120.411690
  30
 0.0
   0
VERTEX
   8
0
   6
Continuous
  10
 51.345570
  20
 120.040787
  30
 0.0
   0
VERTEX
   8
0
   6
Continuous
  10
 51.405190
  20
 119.377190
  30
 0.0
   0
VERTEX
   8
0
   6
Continuous
  10
 50.584278
  20
 118.860291
  30
 0.0
   0
VERTEX
   8
0
   6
Continuous
  10
 49.846828
  20
 118.126785
  30
 0.0
   0
VERTEX
   8
0
   6
Continuous
  10
 47.361248
  20
 116.406090
  30
 0.0
   0
VERTEX
   8
0
   6
Continuous
  10
 43.434589
  20
 111.789688
  30
 0.0
   0
VERTEX
   8
0
   6
Continuous
  10
 43.162609
  20
 111.318687
  30
 0.0
   0
VERTEX
   8
0
   6
Continuous
  10
 43.442989
  20
 111.038887
  30
 0.0
   0
VERTEX
   8
0
   6
Continuous
  10
 44.462807
  20
 111.287888
  30
 0.0
   0
VERTEX
   8
0
   6
Continuous
  10
 46.094799
  20
 111.306488
  30
 0.0
   0
VERTEX
   8
0
   6
Continuous
  10
 48.282688
  20
 111.708588
  30
 0.0
   0
VERTEX
   8
0
   6
Continuous
  10
 50.330200
  20
 111.239990
  30
 0.0
   0
VERTEX
   8
0
   6
Continuous
  10
 50.644669
  20
 110.879990
  30
 0.0
   0
VERTEX
   8
0
   6
Continuous
  10
 46.922699
  20
 107.488968
  30
 0.0
   0
VERTEX
   8
0
   6
Continuous
  10
 42.922668
  20
 103.014565
  30
 0.0
   0
VERTEX
   8
0
   6
Continuous
  10
 41.921970
  20
 101.351379
  30
 0.0
   0
VERTEX
   8
0
   6
Continuous
  10
 42.005028
  20
 100.977196
  30
 0.0
   0
VERTEX
   8
0
   6
Continuous
  10
 42.410130
  20
 100.604820
  30
 0.0
   0
VERTEX
   8
0
   6
Continuous
  10
 44.219898
  20
 100.916801
  30
 0.0
   0
VERTEX
   8
0
   6
Continuous
  10
 46.168999
  20
 100.598389
  30
 0.0
   0
VERTEX
   8
0
   6
Continuous
  10
 49.079018
  20
 99.666672
  30
 0.0
   0
VERTEX
   8
0
   6
Continuous
  10
 49.182068
  20
 99.021950
  30
 0.0
   0
VERTEX
   8
0
   6
Continuous
  10
 44.846519
  20
 94.741501
  30
 0.0
   0
VERTEX
   8
0
   6
Continuous
  10
 42.824829
  20
 91.780182
  30
 0.0
   0
VERTEX
   8
0
   6
Continuous
  10
 41.712429
  20
 90.274712
  30
 0.0
   0
VERTEX
   8
0
   6
Continuous
  10
 41.361099
  20
 88.959709
  30
 0.0
   0
VERTEX
   8
0
   6
Continuous
  10
 41.528728
  20
 88.420677
  30
 0.0
   0
VERTEX
   8
0
   6
Continuous
  10
 43.807377
  20
 87.872108
  30
 0.0
   0
VERTEX
   8
0
   6
Continuous
  10
 45.693638
  20
 87.734146
  30
 0.0
   0
VERTEX
   8
0
   6
Continuous
  10
 49.496918
  20
 86.927246
  30
 0.0
   0
VERTEX
   8
0
   6
Continuous
  10
 51.205997
  20
 86.765450
  30
 0.0
   0
VERTEX
   8
0
   6
Continuous
  10
 52.295609
  20
 86.201996
  30
 0.0
   0
VERTEX
   8
0
   6
Continuous
  10
 52.419029
  20
 85.434898
  30
 0.0
   0
VERTEX
   8
0
   6
Continuous
  10
 51.177368
  20
 84.171188
  30
 0.0
   0
VERTEX
   8
0
   6
Continuous
  10
 49.186310
  20
 82.338028
  30
 0.0
   0
VERTEX
   8
0
   6
Continuous
  10
 47.959229
  20
 81.387146
  30
 0.0
   0
VERTEX
   8
0
   6
Continuous
  10
 47.055489
  20
 80.582916
  30
 0.0
   0
VERTEX
   8
0
   6
Continuous
  10
 44.652088
  20
 78.664360
  30
 0.0
   0
VERTEX
   8
0
   6
Continuous
  10
 44.416950
  20
 77.896835
  30
 0.0
   0
VERTEX
   8
0
   6
Continuous
  10
 44.667358
  20
 77.371017
  30
 0.0
   0
VERTEX
   8
0
   6
Continuous
  10
 47.749428
  20
 75.593765
  30
 0.0
   0
VERTEX
   8
0
   6
Continuous
  10
 51.000160
  20
 74.383415
  30
 0.0
   0
VERTEX
   8
0
   6
Continuous
  10
 55.086918
  20
 73.498695
  30
 0.0
   0
VERTEX
   8
0
   6
Continuous
  10
 56.625488
  20
 72.867485
  30
 0.0
   0
VERTEX
   8
0
   6
Continuous
  10
 56.565479
  20
 72.321068
  30
 0.0
   0
VERTEX
   8
0
   6
Continuous
  10
 54.336678
  20
 69.809174
  30
 0.0
   0
VERTEX
   8
0
   6
Continuous
  10
 53.271339
  20
 69.258789
  30
 0.0
   0
VERTEX
   8
0
   6
Continuous
  10
 51.550068
  20
 67.833725
  30
 0.0
   0
VERTEX
   8
0
   6
Continuous
  10
 51.436398
  20
 67.553497
  30
 0.0
   0
VERTEX
   8
0
   6
Continuous
  10
 51.670189
  20
 67.056709
  30
 0.0
   0
VERTEX
   8
0
   6
Continuous
  10
 54.385078
  20
 66.088295
  30
 0.0
   0
VERTEX
   8
0
   6
Continuous
  10
 60.496658
  20
 64.434303
  30
 0.0
   0
VERTEX
   8
0
   6
Continuous
  10
 63.559338
  20
 63.948174
  30
 0.0
   0
VERTEX
   8
0
   6
Continuous
  10
 63.791138
  20
 63.610184
  30
 0.0
   0
VERTEX
   8
0
   6
Continuous
  10
 63.565239
  20
 62.856014
  30
 0.0
   0
VERTEX
   8
0
   6
Continuous
  10
 61.499538
  20
 61.228424
  30
 0.0
   0
VERTEX
   8
0
   6
Continuous
  10
 57.863190
  20
 60.050823
  30
 0.0
   0
VERTEX
   8
0
   6
Continuous
  10
 57.622208
  20
 59.611885
  30
 0.0
   0
VERTEX
   8
0
   6
Continuous
  10
 58.138710
  20
 59.328823
  30
 0.0
   0
VERTEX
   8
0
   6
Continuous
  10
 60.176189
  20
 58.586445
  30
 0.0
   0
VERTEX
   8
0
   6
Continuous
  10
 61.895607
  20
 58.149734
  30
 0.0
   0
VERTEX
   8
0
   6
Continuous
  10
 63.560619
  20
 57.615524
  30
 0.0
   0
VERTEX
   8
0
   6
Continuous
  10
 69.747040
  20
 56.790264
  30
 0.0
   0
VERTEX
   8
0
   6
Continuous
  10
 69.820984
  20
 56.395054
  30
 0.0
   0
VERTEX
   8
0
   6
Continuous
  10
 68.690918
  20
 55.249493
  30
 0.0
   0
VERTEX
   8
0
   6
Continuous
  10
 67.407471
  20
 54.166466
  30
 0.0
   0
VERTEX
   8
0
   6
Continuous
  10
 65.294151
  20
 53.383194
  30
 0.0
   0
VERTEX
   8
0
   6
Continuous
  10
 64.434242
  20
 52.912113
  30
 0.0
   0
VERTEX
   8
0
   6
Continuous
  10
 64.515968
  20
 51.684875
  30
 0.0
   0
VERTEX
   8
0
   6
Continuous
  10
 63.489620
  20
 49.482635
  30
 0.0
   0
VERTEX
   8
0
   6
Continuous
  10
 60.532249
  20
 43.619526
  30
 0.0
   0
VERTEX
   8
0
   6
Continuous
  10
 59.978870
  20
 42.969784
  30
 0.0
   0
VERTEX
   8
0
   6
Continuous
  10
 59.281410
  20
 43.214184
  30
 0.0
   0
VERTEX
   8
0
   6
Continuous
  10
 58.146149
  20
 43.817024
  30
 0.0
   0
VERTEX
   8
0
   6
Continuous
  10
 54.375519
  20
 46.440315
  30
 0.0
   0
VERTEX
   8
0
   6
Continuous
  10
 50.854839
  20
 49.218254
  30
 0.0
   0
VERTEX
   8
0
   6
Continuous
  10
 49.322758
  20
 50.869576
  30
 0.0
   0
VERTEX
   8
0
   6
Continuous
  10
 47.947029
  20
 52.459934
  30
 0.0
   0
VERTEX
   8
0
   6
Continuous
  10
 47.389568
  20
 52.832935
  30
 0.0
   0
VERTEX
   8
0
   6
Continuous
  10
 46.877357
  20
 52.534336
  30
 0.0
   0
VERTEX
   8
0
   6
Continuous
  10
 46.602818
  20
 50.404434
  30
 0.0
   0
VERTEX
   8
0
   6
Continuous
  10
 46.788788
  20
 48.991753
  30
 0.0
   0
VERTEX
   8
0
   6
Continuous
  10
 46.825779
  20
 45.862503
  30
 0.0
   0
VERTEX
   8
0
   6
Continuous
  10
 46.737068
  20
 44.603165
  30
 0.0
   0
VERTEX
   8
0
   6
Continuous
  10
 47.086479
  20
 42.608356
  30
 0.0
   0
VERTEX
   8
0
   6
Continuous
  10
 46.765099
  20
 41.478916
  30
 0.0
   0
VERTEX
   8
0
   6
Continuous
  10
 47.130589
  20
 39.311523
  30
 0.0
   0
VERTEX
   8
0
   6
Continuous
  10
 46.830017
  20
 37.843315
  30
 0.0
   0
VERTEX
   8
0
   6
Continuous
  10
 47.113819
  20
 33.758224
  30
 0.0
   0
VERTEX
   8
0
   6
Continuous
  10
 47.044537
  20
 32.324444
  30
 0.0
   0
VERTEX
   8
0
   6
Continuous
  10
 47.338257
  20
 27.742987
  30
 0.0
   0
VERTEX
   8
0
   6
Continuous
  10
 47.097790
  20
 26.404785
  30
 0.0
   0
VERTEX
   8
0
   6
Continuous
  10
 47.437649
  20
 24.251677
  30
 0.0
   0
VERTEX
   8
0
   6
Continuous
  10
 47.166790
  20
 23.094046
  30
 0.0
   0
VERTEX
   8
0
   6
Continuous
  10
 47.500389
  20
 21.170567
  30
 0.0
   0
VERTEX
   8
0
   6
Continuous
  10
 47.370689
  20
 20.634684
  30
 0.0
   0
VERTEX
   8
0
   6
Continuous
  10
 47.148018
  20
 20.690119
  30
 0.0
   0
VERTEX
   8
0
   6
Continuous
  10
 45.291969
  20
 26.657206
  30
 0.0
   0
VERTEX
   8
0
   6
Continuous
  10
 44.220669
  20
 27.961626
  30
 0.0
   0
VERTEX
   8
0
   6
Continuous
  10
 38.829731
  20
 46.728085
  30
 0.0
   0
VERTEX
   8
0
   6
Continuous
  10
 36.883850
  20
 53.205215
  30
 0.0
   0
VERTEX
   8
0
   6
Continuous
  10
 35.453911
  20
 54.582603
  30
 0.0
   0
VERTEX
   8
0
   6
Continuous
  10
 34.969799
  20
 54.116776
  30
 0.0
   0
VERTEX
   8
0
   6
Continuous
  10
 34.455181
  20
 52.606575
  30
 0.0
   0
VERTEX
   8
0
   6
Continuous
  10
 34.032761
  20
 51.697144
  30
 0.0
   0
VERTEX
   8
0
   6
Continuous
  10
 33.700241
  20
 50.737625
  30
 0.0
   0
VERTEX
   8
0
   6
Continuous
  10
 33.138958
  20
 49.441666
  30
 0.0
   0
VERTEX
   8
0
   6
Continuous
  10
 32.427071
  20
 48.485523
  30
 0.0
   0
VERTEX
   8
0
   6
Continuous
  10
 32.058540
  20
 48.692623
  30
 0.0
   0
VERTEX
   8
0
   6
Continuous
  10
 31.091831
  20
 52.030495
  30
 0.0
   0
VERTEX
   8
0
   6
Continuous
  10
 31.289181
  20
 53.720013
  30
 0.0
   0
VERTEX
   8
0
   6
Continuous
  10
 28.572111
  20
 63.744884
  30
 0.0
   0
VERTEX
   8
0
   6
Continuous
  10
 28.697639
  20
 65.147255
  30
 0.0
   0
VERTEX
   8
0
   6
Continuous
  10
 25.989700
  20
 75.330635
  30
 0.0
   0
VERTEX
   8
0
   6
Continuous
  10
 26.219090
  20
 76.838608
  30
 0.0
   0
VERTEX
   8
0
   6
Continuous
  10
 23.526560
  20
 86.686211
  30
 0.0
   0
VERTEX
   8
0
   6
Continuous
  10
 23.430799
  20
 88.866547
  30
 0.0
   0
VERTEX
   8
0
   6
Continuous
  10
 22.177120
  20
 93.656845
  30
 0.0
   0
VERTEX
   8
0
   6
Continuous
  10
 22.110920
  20
 94.827507
  30
 0.0
   0
VERTEX
   8
0
   6
Continuous
  10
 21.916241
  20
 95.939545
  30
 0.0
   0
VERTEX
   8
0
   6
Continuous
  10
 21.134541
  20
 96.785210
  30
 0.0
   0
VERTEX
   8
0
   6
Continuous
  10
 19.702459
  20
 97.150612
  30
 0.0
   0
VERTEX
   8
0
   6
Continuous
  10
 18.142397
  20
 96.993286
  30
 0.0
   0
VERTEX
   8
0
   6
Continuous
  10
 17.258055
  20
 97.154388
  30
 0.0
   0
VERTEX
   8
0
   6
Continuous
  10
 17.054171
  20
 98.481041
  30
 0.0
   0
VERTEX
   8
0
   6
Continuous
  10
 17.265415
  20
 99.671791
  30
 0.0
   0
VERTEX
   8
0
   6
Continuous
  10
 17.104679
  20
 101.233940
  30
 0.0
   0
VERTEX
   8
0
   6
Continuous
  10
 17.164352
  20
 103.163910
  30
 0.0
   0
VERTEX
   8
0
   6
Continuous
  10
 17.002087
  20
 104.563416
  30
 0.0
   0
VERTEX
   8
0
   6
Continuous
  10
 17.025011
  20
 105.859451
  30
 0.0
   0
VERTEX
   8
0
   6
Continuous
  10
 16.783878
  20
 107.630188
  30
 0.0
   0
VERTEX
   8
0
   6
Continuous
  10
 16.966602
  20
 108.837051
  30
 0.0
   0
VERTEX
   8
0
   6
Continuous
  10
 16.711847
  20
 112.905891
  30
 0.0
   0
VERTEX
   8
0
   6
Continuous
  10
 16.606903
  20
 117.054688
  30
 0.0
   0
VERTEX
   8
0
   6
Continuous
  10
 16.813473
  20
 118.411789
  30
 0.0
   0
VERTEX
   8
0
   6
Continuous
  10
 16.512943
  20
 120.379387
  30
 0.0
   0
VERTEX
   8
0
   6
Continuous
  10
 16.632442
  20
 121.621490
  30
 0.0
   0
VERTEX
   8
0
   6
Continuous
  10
 16.312895
  20
 123.435989
  30
 0.0
   0
VERTEX
   8
0
   6
Continuous
  10
 16.634251
  20
 124.565491
  30
 0.0
   0
VERTEX
   8
0
   6
Continuous
  10
 16.196980
  20
 126.772987
  30
 0.0
   0
VERTEX
   8
0
   6
Continuous
  10
 16.518326
  20
 127.902390
  30
 0.0
   0
VERTEX
   8
0
   6
Continuous
  10
 16.267105
  20
 129.351486
  30
 0.0
   0
VERTEX
   8
0
   6
Continuous
  10
 16.214125
  20
 132.584381
  30
 0.0
   0
VERTEX
   8
0
   6
Continuous
  10
 16.240715
  20
 133.620682
  30
 0.0
   0
VERTEX
   8
0
   6
Continuous
  10
 16.016621
  20
 136.199280
  30
 0.0
   0
VERTEX
   8
0
   6
Continuous
  10
 16.117676
  20
 137.124481
  30
 0.0
   0
VERTEX
   8
0
   6
Continuous
  10
 15.995245
  20
 139.719574
  30
 0.0
   0
SEQEND
   0
ENDSEC
   0
EOF
