   0
SECTION
   2
ENTITIES
   0
POLYLINE
   8
0
  66
 1
   6
Continuous
  10
 0.0
  20
 0.0
  30
 0.0
  70
 128
   0
VERTEX
   8
0
   6
Continuous
  10
 12.584625
  20
 59.339973
  30
 0.0
   0
VERTEX
   8
0
   6
Continuous
  10
 13.578934
  20
 61.082771
  30
 0.0
   0
VERTEX
   8
0
   6
Continuous
  10
 14.990128
  20
 62.963676
  30
 0.0
   0
VERTEX
   8
0
   6
Continuous
  10
 16.475128
  20
 64.699974
  30
 0.0
   0
VERTEX
   8
0
   6
Continuous
  10
 20.728729
  20
 67.938377
  30
 0.0
   0
VERTEX
   8
0
   6
Continuous
  10
 25.339828
  20
 70.711571
  30
 0.0
   0
VERTEX
   8
0
   6
Continuous
  10
 35.598236
  20
 76.179375
  30
 0.0
   0
VERTEX
   8
0
   6
Continuous
  10
 38.828033
  20
 78.284172
  30
 0.0
   0
VERTEX
   8
0
   6
Continuous
  10
 42.313538
  20
 80.962669
  30
 0.0
   0
VERTEX
   8
0
   6
Continuous
  10
 44.936325
  20
 83.509773
  30
 0.0
   0
VERTEX
   8
0
   6
Continuous
  10
 47.075027
  20
 85.941277
  30
 0.0
   0
VERTEX
   8
0
   6
Continuous
  10
 48.204529
  20
 87.524376
  30
 0.0
   0
VERTEX
   8
0
   6
Continuous
  10
 49.817032
  20
 90.730476
  30
 0.0
   0
VERTEX
   8
0
   6
Continuous
  10
 51.418030
  20
 94.650368
  30
 0.0
   0
VERTEX
   8
0
   6
Continuous
  10
 52.424026
  20
 97.929375
  30
 0.0
   0
VERTEX
   8
0
   6
Continuous
  10
 54.379425
  20
 107.659676
  30
 0.0
   0
VERTEX
   8
0
   6
Continuous
  10
 55.272736
  20
 111.550774
  30
 0.0
   0
VERTEX
   8
0
   6
Continuous
  10
 56.520935
  20
 115.392876
  30
 0.0
   0
VERTEX
   8
0
   6
Continuous
  10
 57.838730
  20
 118.485878
  30
 0.0
   0
VERTEX
   8
0
   6
Continuous
  10
 60.197235
  20
 122.317574
  30
 0.0
   0
VERTEX
   8
0
   6
Continuous
  10
 62.483337
  20
 125.235970
  30
 0.0
   0
VERTEX
   8
0
   6
Continuous
  10
 65.063324
  20
 127.976768
  30
 0.0
   0
VERTEX
   8
0
   6
Continuous
  10
 69.150024
  20
 131.394379
  30
 0.0
   0
VERTEX
   8
0
   6
Continuous
  10
 72.466034
  20
 133.686066
  30
 0.0
   0
VERTEX
   8
0
   6
Continuous
  10
 78.607224
  20
 137.029572
  30
 0.0
   0
VERTEX
   8
0
   6
Continuous
  10
 83.695236
  20
 139.373077
  30
 0.0
   0
VERTEX
   8
0
   6
Continuous
  10
 93.571030
  20
 143.109985
  30
 0.0
   0
VERTEX
   8
0
   6
Continuous
  10
 95.644333
  20
 144.106079
  30
 0.0
   0
VERTEX
   8
0
   6
Continuous
  10
 99.007034
  20
 146.185883
  30
 0.0
   0
VERTEX
   8
0
   6
Continuous
  10
 100.719437
  20
 147.662476
  30
 0.0
   0
VERTEX
   8
0
   6
Continuous
  10
 103.313934
  20
 150.337677
  30
 0.0
   0
VERTEX
   8
0
   6
Continuous
  10
 107.896729
  20
 156.126678
  30
 0.0
   0
VERTEX
   8
0
   6
Continuous
  10
 110.240829
  20
 158.781586
  30
 0.0
   0
VERTEX
   8
0
   6
Continuous
  10
 112.904633
  20
 161.143280
  30
 0.0
   0
VERTEX
   8
0
   6
Continuous
  10
 114.808029
  20
 162.331665
  30
 0.0
   0
VERTEX
   8
0
   6
Continuous
  10
 117.832336
  20
 163.635559
  30
 0.0
   0
VERTEX
   8
0
   6
Continuous
  10
 121.548630
  20
 164.689789
  30
 0.0
   0
VERTEX
   8
0
   6
Continuous
  10
 124.457733
  20
 165.024384
  30
 0.0
   0
VERTEX
   8
0
   6
Continuous
  10
 124.629730
  20
 164.792084
  30
 0.0
   0
VERTEX
   8
0
   6
Continuous
  10
 123.607330
  20
 155.891571
  30
 0.0
   0
VERTEX
   8
0
   6
Continuous
  10
 122.853027
  20
 155.310974
  30
 0.0
   0
VERTEX
   8
0
   6
Continuous
  10
 119.043533
  20
 151.791260
  30
 0.0
   0
VERTEX
   8
0
   6
Continuous
  10
 117.362625
  20
 149.594666
  30
 0.0
   0
VERTEX
   8
0
   6
Continuous
  10
 115.351425
  20
 146.584381
  30
 0.0
   0
VERTEX
   8
0
   6
Continuous
  10
 113.983231
  20
 144.117065
  30
 0.0
   0
VERTEX
   8
0
   6
Continuous
  10
 112.939728
  20
 142.103668
  30
 0.0
   0
VERTEX
   8
0
   6
Continuous
  10
 111.634735
  20
 138.503876
  30
 0.0
   0
VERTEX
   8
0
   6
Continuous
  10
 110.968933
  20
 135.936768
  30
 0.0
   0
VERTEX
   8
0
   6
Continuous
  10
 110.530228
  20
 132.371582
  30
 0.0
   0
VERTEX
   8
0
   6
Continuous
  10
 110.746735
  20
 131.300385
  30
 0.0
   0
VERTEX
   8
0
   6
Continuous
  10
 111.211533
  20
 130.512878
  30
 0.0
   0
VERTEX
   8
0
   6
Continuous
  10
 112.750534
  20
 129.499969
  30
 0.0
   0
VERTEX
   8
0
   6
Continuous
  10
 113.531631
  20
 129.330078
  30
 0.0
   0
VERTEX
   8
0
   6
Continuous
  10
 114.412827
  20
 129.512360
  30
 0.0
   0
VERTEX
   8
0
   6
Continuous
  10
 115.762726
  20
 130.281586
  30
 0.0
   0
VERTEX
   8
0
   6
Continuous
  10
 119.280823
  20
 133.389984
  30
 0.0
   0
VERTEX
   8
0
   6
Continuous
  10
 121.703232
  20
 136.267487
  30
 0.0
   0
VERTEX
   8
0
   6
Continuous
  10
 123.594330
  20
 138.666779
  30
 0.0
   0
VERTEX
   8
0
   6
Continuous
  10
 127.291428
  20
 144.377380
  30
 0.0
   0
VERTEX
   8
0
   6
Continuous
  10
 129.284531
  20
 148.893280
  30
 0.0
   0
VERTEX
   8
0
   6
Continuous
  10
 129.843628
  20
 151.691681
  30
 0.0
   0
VERTEX
   8
0
   6
Continuous
  10
 129.758224
  20
 153.795563
  30
 0.0
   0
VERTEX
   8
0
   6
Continuous
  10
 128.905823
  20
 155.688385
  30
 0.0
   0
VERTEX
   8
0
   6
Continuous
  10
 128.294724
  20
 156.421661
  30
 0.0
   0
VERTEX
   8
0
   6
Continuous
  10
 127.086227
  20
 156.909973
  30
 0.0
   0
VERTEX
   8
0
   6
Continuous
  10
 124.793625
  20
 156.602783
  30
 0.0
   0
VERTEX
   8
0
   6
Continuous
  10
 124.556931
  20
 156.907562
  30
 0.0
   0
VERTEX
   8
0
   6
Continuous
  10
 124.879837
  20
 160.914673
  30
 0.0
   0
VERTEX
   8
0
   6
Continuous
  10
 125.411438
  20
 164.774872
  30
 0.0
   0
VERTEX
   8
0
   6
Continuous
  10
 125.595932
  20
 164.969177
  30
 0.0
   0
VERTEX
   8
0
   6
Continuous
  10
 126.445129
  20
 165.013275
  30
 0.0
   0
VERTEX
   8
0
   6
Continuous
  10
 127.904434
  20
 165.220764
  30
 0.0
   0
VERTEX
   8
0
   6
Continuous
  10
 128.646927
  20
 164.956268
  30
 0.0
   0
VERTEX
   8
0
   6
Continuous
  10
 131.292435
  20
 164.405762
  30
 0.0
   0
VERTEX
   8
0
   6
Continuous
  10
 133.205124
  20
 163.819580
  30
 0.0
   0
VERTEX
   8
0
   6
Continuous
  10
 138.847427
  20
 161.339569
  30
 0.0
   0
VERTEX
   8
0
   6
Continuous
  10
 141.345123
  20
 159.833282
  30
 0.0
   0
VERTEX
   8
0
   6
Continuous
  10
 143.223938
  20
 158.822876
  30
 0.0
   0
VERTEX
   8
0
   6
Continuous
  10
 145.640320
  20
 157.086578
  30
 0.0
   0
VERTEX
   8
0
   6
Continuous
  10
 149.714142
  20
 153.654083
  30
 0.0
   0
VERTEX
   8
0
   6
Continuous
  10
 151.825317
  20
 151.360077
  30
 0.0
   0
VERTEX
   8
0
   6
Continuous
  10
 152.443024
  20
 150.126770
  30
 0.0
   0
VERTEX
   8
0
   6
Continuous
  10
 152.292145
  20
 149.690674
  30
 0.0
   0
VERTEX
   8
0
   6
Continuous
  10
 150.318542
  20
 148.026367
  30
 0.0
   0
VERTEX
   8
0
   6
Continuous
  10
 145.045227
  20
 144.214386
  30
 0.0
   0
VERTEX
   8
0
   6
Continuous
  10
 144.579529
  20
 144.121185
  30
 0.0
   0
VERTEX
   8
0
   6
Continuous
  10
 143.897827
  20
 144.596680
  30
 0.0
   0
VERTEX
   8
0
   6
Continuous
  10
 142.859528
  20
 145.129883
  30
 0.0
   0
VERTEX
   8
0
   6
Continuous
  10
 141.598022
  20
 145.070587
  30
 0.0
   0
VERTEX
   8
0
   6
Continuous
  10
 141.156921
  20
 145.361877
  30
 0.0
   0
VERTEX
   8
0
   6
Continuous
  10
 139.633728
  20
 145.263275
  30
 0.0
   0
VERTEX
   8
0
   6
Continuous
  10
 138.652328
  20
 144.893677
  30
 0.0
   0
VERTEX
   8
0
   6
Continuous
  10
 137.313934
  20
 144.035675
  30
 0.0
   0
VERTEX
   8
0
   6
Continuous
  10
 135.368423
  20
 141.882568
  30
 0.0
   0
VERTEX
   8
0
   6
Continuous
  10
 131.944626
  20
 136.614380
  30
 0.0
   0
VERTEX
   8
0
   6
Continuous
  10
 128.518234
  20
 130.253784
  30
 0.0
   0
VERTEX
   8
0
   6
Continuous
  10
 127.018127
  20
 126.610970
  30
 0.0
   0
VERTEX
   8
0
   6
Continuous
  10
 126.135437
  20
 123.359077
  30
 0.0
   0
VERTEX
   8
0
   6
Continuous
  10
 126.007629
  20
 121.292870
  30
 0.0
   0
VERTEX
   8
0
   6
Continuous
  10
 126.350327
  20
 120.094475
  30
 0.0
   0
VERTEX
   8
0
   6
Continuous
  10
 127.156631
  20
 118.998680
  30
 0.0
   0
VERTEX
   8
0
   6
Continuous
  10
 127.013626
  20
 118.462181
  30
 0.0
   0
VERTEX
   8
0
   6
Continuous
  10
 122.531326
  20
 112.876976
  30
 0.0
   0
VERTEX
   8
0
   6
Continuous
  10
 121.747635
  20
 112.387276
  30
 0.0
   0
VERTEX
   8
0
   6
Continuous
  10
 118.881424
  20
 110.943977
  30
 0.0
   0
VERTEX
   8
0
   6
Continuous
  10
 115.507935
  20
 109.490974
  30
 0.0
   0
VERTEX
   8
0
   6
Continuous
  10
 113.746536
  20
 108.204567
  30
 0.0
   0
VERTEX
   8
0
   6
Continuous
  10
 113.327332
  20
 108.163368
  30
 0.0
   0
VERTEX
   8
0
   6
Continuous
  10
 113.148727
  20
 108.525871
  30
 0.0
   0
VERTEX
   8
0
   6
Continuous
  10
 114.010330
  20
 111.003670
  30
 0.0
   0
VERTEX
   8
0
   6
Continuous
  10
 116.370834
  20
 115.343376
  30
 0.0
   0
VERTEX
   8
0
   6
Continuous
  10
 116.205338
  20
 115.380577
  30
 0.0
   0
VERTEX
   8
0
   6
Continuous
  10
 110.302429
  20
 112.300667
  30
 0.0
   0
VERTEX
   8
0
   6
Continuous
  10
 108.874435
  20
 111.274773
  30
 0.0
   0
VERTEX
   8
0
   6
Continuous
  10
 108.469925
  20
 111.285973
  30
 0.0
   0
VERTEX
   8
0
   6
Continuous
  10
 108.294724
  20
 111.658974
  30
 0.0
   0
VERTEX
   8
0
   6
Continuous
  10
 108.447433
  20
 113.980370
  30
 0.0
   0
VERTEX
   8
0
   6
Continuous
  10
 108.996231
  20
 116.012169
  30
 0.0
   0
VERTEX
   8
0
   6
Continuous
  10
 109.920624
  20
 117.938881
  30
 0.0
   0
VERTEX
   8
0
   6
Continuous
  10
 109.835724
  20
 118.070869
  30
 0.0
   0
VERTEX
   8
0
   6
Continuous
  10
 106.600632
  20
 116.360176
  30
 0.0
   0
VERTEX
   8
0
   6
Continuous
  10
 106.174423
  20
 116.466072
  30
 0.0
   0
VERTEX
   8
0
   6
Continuous
  10
 105.962631
  20
 116.873177
  30
 0.0
   0
VERTEX
   8
0
   6
Continuous
  10
 106.109436
  20
 118.177773
  30
 0.0
   0
VERTEX
   8
0
   6
Continuous
  10
 107.412125
  20
 122.493172
  30
 0.0
   0
VERTEX
   8
0
   6
Continuous
  10
 107.435028
  20
 123.157082
  30
 0.0
   0
VERTEX
   8
0
   6
Continuous
  10
 107.058731
  20
 122.935768
  30
 0.0
   0
VERTEX
   8
0
   6
Continuous
  10
 105.295029
  20
 120.564873
  30
 0.0
   0
VERTEX
   8
0
   6
Continuous
  10
 102.334824
  20
 116.082680
  30
 0.0
   0
VERTEX
   8
0
   6
Continuous
  10
 100.354126
  20
 114.089973
  30
 0.0
   0
VERTEX
   8
0
   6
Continuous
  10
 96.033630
  20
 110.576668
  30
 0.0
   0
VERTEX
   8
0
   6
Continuous
  10
 90.944031
  20
 105.930473
  30
 0.0
   0
VERTEX
   8
0
   6
Continuous
  10
 88.564026
  20
 102.333977
  30
 0.0
   0
VERTEX
   8
0
   6
Continuous
  10
 87.830032
  20
 100.436867
  30
 0.0
   0
VERTEX
   8
0
   6
Continuous
  10
 87.812134
  20
 99.749977
  30
 0.0
   0
VERTEX
   8
0
   6
Continuous
  10
 88.122131
  20
 99.740776
  30
 0.0
   0
VERTEX
   8
0
   6
Continuous
  10
 89.599731
  20
 100.474876
  30
 0.0
   0
VERTEX
   8
0
   6
Continuous
  10
 94.417236
  20
 102.312080
  30
 0.0
   0
VERTEX
   8
0
   6
Continuous
  10
 96.700729
  20
 102.916771
  30
 0.0
   0
VERTEX
   8
0
   6
Continuous
  10
 98.143127
  20
 103.134972
  30
 0.0
   0
VERTEX
   8
0
   6
Continuous
  10
 98.344528
  20
 102.933876
  30
 0.0
   0
VERTEX
   8
0
   6
Continuous
  10
 98.196823
  20
 102.420174
  30
 0.0
   0
VERTEX
   8
0
   6
Continuous
  10
 95.929932
  20
 99.118080
  30
 0.0
   0
VERTEX
   8
0
   6
Continuous
  10
 94.849823
  20
 96.459572
  30
 0.0
   0
VERTEX
   8
0
   6
Continuous
  10
 94.391937
  20
 94.067467
  30
 0.0
   0
VERTEX
   8
0
   6
Continuous
  10
 94.521423
  20
 93.687767
  30
 0.0
   0
VERTEX
   8
0
   6
Continuous
  10
 94.926025
  20
 93.675377
  30
 0.0
   0
VERTEX
   8
0
   6
Continuous
  10
 96.651230
  20
 95.070473
  30
 0.0
   0
VERTEX
   8
0
   6
Continuous
  10
 100.387634
  20
 97.548378
  30
 0.0
   0
VERTEX
   8
0
   6
Continuous
  10
 101.028427
  20
 97.859077
  30
 0.0
   0
VERTEX
   8
0
   6
Continuous
  10
 101.179535
  20
 97.691368
  30
 0.0
   0
VERTEX
   8
0
   6
Continuous
  10
 101.019333
  20
 96.546577
  30
 0.0
   0
VERTEX
   8
0
   6
Continuous
  10
 100.352325
  20
 94.549980
  30
 0.0
   0
VERTEX
   8
0
   6
Continuous
  10
 100.446823
  20
 94.419273
  30
 0.0
   0
VERTEX
   8
0
   6
Continuous
  10
 103.428436
  20
 96.108177
  30
 0.0
   0
VERTEX
   8
0
   6
Continuous
  10
 106.408630
  20
 98.223473
  30
 0.0
   0
VERTEX
   8
0
   6
Continuous
  10
 106.905624
  20
 98.313179
  30
 0.0
   0
VERTEX
   8
0
   6
Continuous
  10
 107.023224
  20
 98.096779
  30
 0.0
   0
VERTEX
   8
0
   6
Continuous
  10
 106.102432
  20
 93.843468
  30
 0.0
   0
VERTEX
   8
0
   6
Continuous
  10
 106.186829
  20
 93.445869
  30
 0.0
   0
VERTEX
   8
0
   6
Continuous
  10
 110.369324
  20
 95.248878
  30
 0.0
   0
VERTEX
   8
0
   6
Continuous
  10
 111.895630
  20
 96.220177
  30
 0.0
   0
VERTEX
   8
0
   6
Continuous
  10
 112.628525
  20
 96.590477
  30
 0.0
   0
VERTEX
   8
0
   6
Continuous
  10
 113.130524
  20
 96.649269
  30
 0.0
   0
VERTEX
   8
0
   6
Continuous
  10
 113.230835
  20
 96.411873
  30
 0.0
   0
VERTEX
   8
0
   6
Continuous
  10
 112.756531
  20
 95.313881
  30
 0.0
   0
VERTEX
   8
0
   6
Continuous
  10
 112.237030
  20
 93.798073
  30
 0.0
   0
VERTEX
   8
0
   6
Continuous
  10
 111.588333
  20
 92.126381
  30
 0.0
   0
VERTEX
   8
0
   6
Continuous
  10
 109.713333
  20
 88.254280
  30
 0.0
   0
VERTEX
   8
0
   6
Continuous
  10
 109.645432
  20
 87.676476
  30
 0.0
   0
VERTEX
   8
0
   6
Continuous
  10
 110.099930
  20
 87.816673
  30
 0.0
   0
VERTEX
   8
0
   6
Continuous
  10
 116.684326
  20
 93.761467
  30
 0.0
   0
VERTEX
   8
0
   6
Continuous
  10
 119.268631
  20
 96.483070
  30
 0.0
   0
VERTEX
   8
0
   6
Continuous
  10
 121.801834
  20
 98.858971
  30
 0.0
   0
VERTEX
   8
0
   6
Continuous
  10
 126.317734
  20
 102.640175
  30
 0.0
   0
VERTEX
   8
0
   6
Continuous
  10
 127.868729
  20
 104.271370
  30
 0.0
   0
VERTEX
   8
0
   6
Continuous
  10
 128.976929
  20
 105.818275
  30
 0.0
   0
VERTEX
   8
0
   6
Continuous
  10
 129.284637
  20
 106.501976
  30
 0.0
   0
VERTEX
   8
0
   6
Continuous
  10
 129.008530
  20
 106.529671
  30
 0.0
   0
VERTEX
   8
0
   6
Continuous
  10
 127.416733
  20
 106.320778
  30
 0.0
   0
VERTEX
   8
0
   6
Continuous
  10
 123.906830
  20
 106.640770
  30
 0.0
   0
VERTEX
   8
0
   6
Continuous
  10
 122.392029
  20
 106.578773
  30
 0.0
   0
VERTEX
   8
0
   6
Continuous
  10
 120.015625
  20
 105.319176
  30
 0.0
   0
VERTEX
   8
0
   6
Continuous
  10
 119.530136
  20
 105.275169
  30
 0.0
   0
VERTEX
   8
0
   6
Continuous
  10
 119.503433
  20
 105.496681
  30
 0.0
   0
VERTEX
   8
0
   6
Continuous
  10
 121.530334
  20
 109.222969
  30
 0.0
   0
VERTEX
   8
0
   6
Continuous
  10
 122.427231
  20
 111.836372
  30
 0.0
   0
VERTEX
   8
0
   6
Continuous
  10
 126.665924
  20
 117.233177
  30
 0.0
   0
VERTEX
   8
0
   6
Continuous
  10
 127.673630
  20
 118.439079
  30
 0.0
   0
VERTEX
   8
0
   6
Continuous
  10
 128.248825
  20
 118.711967
  30
 0.0
   0
VERTEX
   8
0
   6
Continuous
  10
 129.119827
  20
 118.564674
  30
 0.0
   0
VERTEX
   8
0
   6
Continuous
  10
 130.403625
  20
 118.767281
  30
 0.0
   0
VERTEX
   8
0
   6
Continuous
  10
 132.020630
  20
 119.522575
  30
 0.0
   0
VERTEX
   8
0
   6
Continuous
  10
 134.193436
  20
 121.220970
  30
 0.0
   0
VERTEX
   8
0
   6
Continuous
  10
 136.218933
  20
 123.369377
  30
 0.0
   0
VERTEX
   8
0
   6
Continuous
  10
 137.580429
  20
 125.501381
  30
 0.0
   0
VERTEX
   8
0
   6
Continuous
  10
 139.121628
  20
 127.732979
  30
 0.0
   0
VERTEX
   8
0
   6
Continuous
  10
 140.326233
  20
 129.800964
  30
 0.0
   0
VERTEX
   8
0
   6
Continuous
  10
 141.651337
  20
 132.258881
  30
 0.0
   0
VERTEX
   8
0
   6
Continuous
  10
 143.716339
  20
 137.045288
  30
 0.0
   0
VERTEX
   8
0
   6
Continuous
  10
 144.405518
  20
 139.362976
  30
 0.0
   0
VERTEX
   8
0
   6
Continuous
  10
 144.831421
  20
 142.763977
  30
 0.0
   0
VERTEX
   8
0
   6
Continuous
  10
 145.222015
  20
 143.461578
  30
 0.0
   0
VERTEX
   8
0
   6
Continuous
  10
 148.997131
  20
 146.508484
  30
 0.0
   0
VERTEX
   8
0
   6
Continuous
  10
 152.710632
  20
 149.114075
  30
 0.0
   0
VERTEX
   8
0
   6
Continuous
  10
 153.143524
  20
 149.216888
  30
 0.0
   0
VERTEX
   8
0
   6
Continuous
  10
 153.496338
  20
 148.871185
  30
 0.0
   0
VERTEX
   8
0
   6
Continuous
  10
 154.943115
  20
 146.527679
  30
 0.0
   0
VERTEX
   8
0
   6
Continuous
  10
 156.007324
  20
 144.087280
  30
 0.0
   0
VERTEX
   8
0
   6
Continuous
  10
 156.623322
  20
 141.675385
  30
 0.0
   0
VERTEX
   8
0
   6
Continuous
  10
 156.866943
  20
 139.691071
  30
 0.0
   0
VERTEX
   8
0
   6
Continuous
  10
 156.932343
  20
 137.156860
  30
 0.0
   0
VERTEX
   8
0
   6
Continuous
  10
 156.556824
  20
 134.017883
  30
 0.0
   0
VERTEX
   8
0
   6
Continuous
  10
 155.672119
  20
 130.510773
  30
 0.0
   0
VERTEX
   8
0
   6
Continuous
  10
 153.211334
  20
 124.235771
  30
 0.0
   0
VERTEX
   8
0
   6
Continuous
  10
 149.452637
  20
 115.891167
  30
 0.0
   0
VERTEX
   8
0
   6
Continuous
  10
 148.299744
  20
 112.579674
  30
 0.0
   0
VERTEX
   8
0
   6
Continuous
  10
 148.151245
  20
 110.126671
  30
 0.0
   0
VERTEX
   8
0
   6
Continuous
  10
 148.498230
  20
 103.069878
  30
 0.0
   0
VERTEX
   8
0
   6
Continuous
  10
 148.212830
  20
 99.440178
  30
 0.0
   0
VERTEX
   8
0
   6
Continuous
  10
 147.703918
  20
 96.525581
  30
 0.0
   0
VERTEX
   8
0
   6
Continuous
  10
 146.826416
  20
 93.274773
  30
 0.0
   0
VERTEX
   8
0
   6
Continuous
  10
 145.339142
  20
 88.870567
  30
 0.0
   0
VERTEX
   8
0
   6
Continuous
  10
 142.794128
  20
 83.468575
  30
 0.0
   0
VERTEX
   8
0
   6
Continuous
  10
 140.723633
  20
 79.572670
  30
 0.0
   0
VERTEX
   8
0
   6
Continuous
  10
 138.081131
  20
 75.295677
  30
 0.0
   0
VERTEX
   8
0
   6
Continuous
  10
 136.039337
  20
 72.425179
  30
 0.0
   0
VERTEX
   8
0
   6
Continuous
  10
 133.469833
  20
 69.058968
  30
 0.0
   0
VERTEX
   8
0
   6
Continuous
  10
 131.231033
  20
 66.504967
  30
 0.0
   0
VERTEX
   8
0
   6
Continuous
  10
 129.271423
  20
 64.415077
  30
 0.0
   0
VERTEX
   8
0
   6
Continuous
  10
 125.083328
  20
 60.301872
  30
 0.0
   0
VERTEX
   8
0
   6
Continuous
  10
 120.182938
  20
 55.953773
  30
 0.0
   0
VERTEX
   8
0
   6
Continuous
  10
 117.040237
  20
 53.453468
  30
 0.0
   0
VERTEX
   8
0
   6
Continuous
  10
 115.600037
  20
 51.897179
  30
 0.0
   0
VERTEX
   8
0
   6
Continuous
  10
 111.034225
  20
 48.341972
  30
 0.0
   0
VERTEX
   8
0
   6
Continuous
  10
 109.379837
  20
 46.602173
  30
 0.0
   0
VERTEX
   8
0
   6
Continuous
  10
 106.095032
  20
 42.436676
  30
 0.0
   0
VERTEX
   8
0
   6
Continuous
  10
 98.221237
  20
 30.199974
  30
 0.0
   0
VERTEX
   8
0
   6
Continuous
  10
 96.179337
  20
 27.329376
  30
 0.0
   0
VERTEX
   8
0
   6
Continuous
  10
 93.037537
  20
 23.092972
  30
 0.0
   0
VERTEX
   8
0
   6
Continuous
  10
 89.730331
  20
 19.605873
  30
 0.0
   0
VERTEX
   8
0
   6
Continuous
  10
 87.766724
  20
 16.958321
  30
 0.0
   0
VERTEX
   8
0
   6
Continuous
  10
 86.290436
  20
 14.794228
  30
 0.0
   0
VERTEX
   8
0
   6
Continuous
  10
 85.818237
  20
 14.355568
  30
 0.0
   0
VERTEX
   8
0
   6
Continuous
  10
 85.447327
  20
 14.534966
  30
 0.0
   0
VERTEX
   8
0
   6
Continuous
  10
 84.768738
  20
 16.281357
  30
 0.0
   0
VERTEX
   8
0
   6
Continuous
  10
 83.483032
  20
 19.306351
  30
 0.0
   0
VERTEX
   8
0
   6
Continuous
  10
 82.683929
  20
 21.932571
  30
 0.0
   0
VERTEX
   8
0
   6
Continuous
  10
 82.258926
  20
 24.386475
  30
 0.0
   0
VERTEX
   8
0
   6
Continuous
  10
 82.159424
  20
 27.811676
  30
 0.0
   0
VERTEX
   8
0
   6
Continuous
  10
 82.231232
  20
 28.351074
  30
 0.0
   0
VERTEX
   8
0
   6
Continuous
  10
 82.029037
  20
 28.945076
  30
 0.0
   0
VERTEX
   8
0
   6
Continuous
  10
 82.041733
  20
 29.806976
  30
 0.0
   0
VERTEX
   8
0
   6
Continuous
  10
 82.475235
  20
 30.716576
  30
 0.0
   0
VERTEX
   8
0
   6
Continuous
  10
 82.668030
  20
 31.271675
  30
 0.0
   0
VERTEX
   8
0
   6
Continuous
  10
 78.383728
  20
 29.467278
  30
 0.0
   0
VERTEX
   8
0
   6
Continuous
  10
 76.760834
  20
 28.958672
  30
 0.0
   0
VERTEX
   8
0
   6
Continuous
  10
 76.112228
  20
 29.065277
  30
 0.0
   0
VERTEX
   8
0
   6
Continuous
  10
 75.878036
  20
 29.372177
  30
 0.0
   0
VERTEX
   8
0
   6
Continuous
  10
 76.360733
  20
 32.639175
  30
 0.0
   0
VERTEX
   8
0
   6
Continuous
  10
 76.782730
  20
 36.298973
  30
 0.0
   0
VERTEX
   8
0
   6
Continuous
  10
 78.098038
  20
 39.971375
  30
 0.0
   0
VERTEX
   8
0
   6
Continuous
  10
 77.986023
  20
 40.130074
  30
 0.0
   0
VERTEX
   8
0
   6
Continuous
  10
 75.649826
  20
 39.552177
  30
 0.0
   0
VERTEX
   8
0
   6
Continuous
  10
 73.499130
  20
 38.907372
  30
 0.0
   0
VERTEX
   8
0
   6
Continuous
  10
 68.536530
  20
 37.728371
  30
 0.0
   0
VERTEX
   8
0
   6
Continuous
  10
 66.986923
  20
 37.246773
  30
 0.0
   0
VERTEX
   8
0
   6
Continuous
  10
 65.625336
  20
 36.532272
  30
 0.0
   0
VERTEX
   8
0
   6
Continuous
  10
 65.257233
  20
 36.619576
  30
 0.0
   0
VERTEX
   8
0
   6
Continuous
  10
 65.151627
  20
 37.047073
  30
 0.0
   0
VERTEX
   8
0
   6
Continuous
  10
 65.824738
  20
 39.104675
  30
 0.0
   0
VERTEX
   8
0
   6
Continuous
  10
 67.259323
  20
 45.917671
  30
 0.0
   0
VERTEX
   8
0
   6
Continuous
  10
 67.967529
  20
 47.729874
  30
 0.0
   0
VERTEX
   8
0
   6
Continuous
  10
 69.720032
  20
 50.615379
  30
 0.0
   0
VERTEX
   8
0
   6
Continuous
  10
 69.983032
  20
 51.243767
  30
 0.0
   0
VERTEX
   8
0
   6
Continuous
  10
 68.454529
  20
 50.228279
  30
 0.0
   0
VERTEX
   8
0
   6
Continuous
  10
 64.724228
  20
 48.082672
  30
 0.0
   0
VERTEX
   8
0
   6
Continuous
  10
 61.462936
  20
 46.697571
  30
 0.0
   0
VERTEX
   8
0
   6
Continuous
  10
 58.929626
  20
 46.054871
  30
 0.0
   0
VERTEX
   8
0
   6
Continuous
  10
 52.906525
  20
 45.063873
  30
 0.0
   0
VERTEX
   8
0
   6
Continuous
  10
 49.873825
  20
 44.375473
  30
 0.0
   0
VERTEX
   8
0
   6
Continuous
  10
 47.325638
  20
 43.222878
  30
 0.0
   0
VERTEX
   8
0
   6
Continuous
  10
 44.197037
  20
 41.202972
  30
 0.0
   0
VERTEX
   8
0
   6
Continuous
  10
 43.677628
  20
 41.201172
  30
 0.0
   0
VERTEX
   8
0
   6
Continuous
  10
 43.515335
  20
 41.577271
  30
 0.0
   0
VERTEX
   8
0
   6
Continuous
  10
 44.286926
  20
 45.945976
  30
 0.0
   0
VERTEX
   8
0
   6
Continuous
  10
 45.199524
  20
 48.949669
  30
 0.0
   0
VERTEX
   8
0
   6
Continuous
  10
 46.069138
  20
 51.089378
  30
 0.0
   0
VERTEX
   8
0
   6
Continuous
  10
 41.402634
  20
 49.285576
  30
 0.0
   0
VERTEX
   8
0
   6
Continuous
  10
 34.196823
  20
 46.725876
  30
 0.0
   0
VERTEX
   8
0
   6
Continuous
  10
 32.569229
  20
 45.457771
  30
 0.0
   0
VERTEX
   8
0
   6
Continuous
  10
 32.090424
  20
 45.329773
  30
 0.0
   0
VERTEX
   8
0
   6
Continuous
  10
 33.525925
  20
 48.158371
  30
 0.0
   0
VERTEX
   8
0
   6
Continuous
  10
 33.826736
  20
 50.008080
  30
 0.0
   0
VERTEX
   8
0
   6
Continuous
  10
 34.308334
  20
 51.642769
  30
 0.0
   0
VERTEX
   8
0
   6
Continuous
  10
 36.599228
  20
 57.116081
  30
 0.0
   0
VERTEX
   8
0
   6
Continuous
  10
 39.246735
  20
 61.370369
  30
 0.0
   0
VERTEX
   8
0
   6
Continuous
  10
 43.077423
  20
 65.381371
  30
 0.0
   0
VERTEX
   8
0
   6
Continuous
  10
 43.336136
  20
 65.790367
  30
 0.0
   0
VERTEX
   8
0
   6
Continuous
  10
 41.248535
  20
 64.999870
  30
 0.0
   0
VERTEX
   8
0
   6
Continuous
  10
 37.098526
  20
 63.601875
  30
 0.0
   0
VERTEX
   8
0
   6
Continuous
  10
 34.064529
  20
 62.919472
  30
 0.0
   0
VERTEX
   8
0
   6
Continuous
  10
 28.700424
  20
 62.405479
  30
 0.0
   0
VERTEX
   8
0
   6
Continuous
  10
 22.308731
  20
 61.929771
  30
 0.0
   0
VERTEX
   8
0
   6
Continuous
  10
 19.974930
  20
 61.538078
  30
 0.0
   0
VERTEX
   8
0
   6
Continuous
  10
 17.692825
  20
 60.911674
  30
 0.0
   0
VERTEX
   8
0
   6
Continuous
  10
 13.158829
  20
 58.913078
  30
 0.0
   0
VERTEX
   8
0
   6
Continuous
  10
 12.656830
  20
 58.942680
  30
 0.0
   0
VERTEX
   8
0
   6
Continuous
  10
 12.584625
  20
 59.339973
  30
 0.0
   0
SEQEND
   0
ENDSEC
   0
EOF
