   0
SECTION
   2
ENTITIES
   0
POLYLINE
   8
0
  66
 1
   6
Continuous
  10
 0.0
  20
 0.0
  30
 0.0
  70
 128
   0
VERTEX
   8
0
   6
Continuous
  10
 15.164688
  20
 129.610229
  30
 0.0
   0
VERTEX
   8
0
   6
Continuous
  10
 15.433273
  20
 129.580536
  30
 0.0
   0
VERTEX
   8
0
   6
Continuous
  10
 20.342117
  20
 113.114029
  30
 0.0
   0
VERTEX
   8
0
   6
Continuous
  10
 20.926620
  20
 112.402832
  30
 0.0
   0
VERTEX
   8
0
   6
Continuous
  10
 21.897781
  20
 110.626030
  30
 0.0
   0
VERTEX
   8
0
   6
Continuous
  10
 22.819962
  20
 110.519531
  30
 0.0
   0
VERTEX
   8
0
   6
Continuous
  10
 23.382492
  20
 110.061928
  30
 0.0
   0
VERTEX
   8
0
   6
Continuous
  10
 25.026657
  20
 104.802429
  30
 0.0
   0
VERTEX
   8
0
   6
Continuous
  10
 25.986801
  20
 103.884926
  30
 0.0
   0
VERTEX
   8
0
   6
Continuous
  10
 28.516525
  20
 95.637985
  30
 0.0
   0
VERTEX
   8
0
   6
Continuous
  10
 28.962418
  20
 95.352402
  30
 0.0
   0
VERTEX
   8
0
   6
Continuous
  10
 29.336502
  20
 95.619125
  30
 0.0
   0
VERTEX
   8
0
   6
Continuous
  10
 30.455460
  20
 100.221092
  30
 0.0
   0
VERTEX
   8
0
   6
Continuous
  10
 31.095535
  20
 103.463028
  30
 0.0
   0
VERTEX
   8
0
   6
Continuous
  10
 32.636093
  20
 108.492729
  30
 0.0
   0
VERTEX
   8
0
   6
Continuous
  10
 35.710251
  20
 115.938225
  30
 0.0
   0
VERTEX
   8
0
   6
Continuous
  10
 39.349045
  20
 122.577629
  30
 0.0
   0
VERTEX
   8
0
   6
Continuous
  10
 41.051315
  20
 125.226532
  30
 0.0
   0
VERTEX
   8
0
   6
Continuous
  10
 43.091415
  20
 127.686729
  30
 0.0
   0
VERTEX
   8
0
   6
Continuous
  10
 43.720047
  20
 128.644531
  30
 0.0
   0
VERTEX
   8
0
   6
Continuous
  10
 44.925491
  20
 130.098328
  30
 0.0
   0
VERTEX
   8
0
   6
Continuous
  10
 47.947098
  20
 132.828522
  30
 0.0
   0
VERTEX
   8
0
   6
Continuous
  10
 48.955154
  20
 133.901733
  30
 0.0
   0
VERTEX
   8
0
   6
Continuous
  10
 50.751144
  20
 135.189423
  30
 0.0
   0
VERTEX
   8
0
   6
Continuous
  10
 51.422409
  20
 135.959839
  30
 0.0
   0
VERTEX
   8
0
   6
Continuous
  10
 52.652756
  20
 136.581635
  30
 0.0
   0
VERTEX
   8
0
   6
Continuous
  10
 53.579727
  20
 137.372925
  30
 0.0
   0
VERTEX
   8
0
   6
Continuous
  10
 55.738693
  20
 138.621521
  30
 0.0
   0
VERTEX
   8
0
   6
Continuous
  10
 58.288467
  20
 139.815430
  30
 0.0
   0
VERTEX
   8
0
   6
Continuous
  10
 59.298569
  20
 140.717834
  30
 0.0
   0
VERTEX
   8
0
   6
Continuous
  10
 60.839645
  20
 141.341827
  30
 0.0
   0
VERTEX
   8
0
   6
Continuous
  10
 73.575424
  20
 144.866241
  30
 0.0
   0
VERTEX
   8
0
   6
Continuous
  10
 74.751877
  20
 144.628937
  30
 0.0
   0
VERTEX
   8
0
   6
Continuous
  10
 78.304489
  20
 145.131134
  30
 0.0
   0
VERTEX
   8
0
   6
Continuous
  10
 81.653336
  20
 145.268433
  30
 0.0
   0
VERTEX
   8
0
   6
Continuous
  10
 87.708237
  20
 144.977936
  30
 0.0
   0
VERTEX
   8
0
   6
Continuous
  10
 90.665176
  20
 144.413422
  30
 0.0
   0
VERTEX
   8
0
   6
Continuous
  10
 93.002426
  20
 144.203918
  30
 0.0
   0
VERTEX
   8
0
   6
Continuous
  10
 95.463394
  20
 143.630341
  30
 0.0
   0
VERTEX
   8
0
   6
Continuous
  10
 98.429184
  20
 142.788544
  30
 0.0
   0
VERTEX
   8
0
   6
Continuous
  10
 101.063675
  20
 142.232635
  30
 0.0
   0
VERTEX
   8
0
   6
Continuous
  10
 102.305679
  20
 141.819916
  30
 0.0
   0
VERTEX
   8
0
   6
Continuous
  10
 104.422531
  20
 140.922821
  30
 0.0
   0
VERTEX
   8
0
   6
Continuous
  10
 107.331558
  20
 139.979614
  30
 0.0
   0
VERTEX
   8
0
   6
Continuous
  10
 110.830795
  20
 138.335236
  30
 0.0
   0
VERTEX
   8
0
   6
Continuous
  10
 121.587906
  20
 132.401642
  30
 0.0
   0
VERTEX
   8
0
   6
Continuous
  10
 123.399094
  20
 130.957214
  30
 0.0
   0
VERTEX
   8
0
   6
Continuous
  10
 127.648911
  20
 128.020020
  30
 0.0
   0
VERTEX
   8
0
   6
Continuous
  10
 130.993607
  20
 124.348732
  30
 0.0
   0
VERTEX
   8
0
   6
Continuous
  10
 131.978989
  20
 123.447929
  30
 0.0
   0
VERTEX
   8
0
   6
Continuous
  10
 133.009903
  20
 121.505928
  30
 0.0
   0
VERTEX
   8
0
   6
Continuous
  10
 133.849289
  20
 120.372032
  30
 0.0
   0
VERTEX
   8
0
   6
Continuous
  10
 136.926315
  20
 109.866127
  30
 0.0
   0
VERTEX
   8
0
   6
Continuous
  10
 136.848007
  20
 108.543930
  30
 0.0
   0
VERTEX
   8
0
   6
Continuous
  10
 137.304214
  20
 108.096527
  30
 0.0
   0
VERTEX
   8
0
   6
Continuous
  10
 138.438309
  20
 108.088127
  30
 0.0
   0
VERTEX
   8
0
   6
Continuous
  10
 139.922897
  20
 107.801331
  30
 0.0
   0
VERTEX
   8
0
   6
Continuous
  10
 145.474899
  20
 109.291626
  30
 0.0
   0
VERTEX
   8
0
   6
Continuous
  10
 147.206314
  20
 110.451630
  30
 0.0
   0
VERTEX
   8
0
   6
Continuous
  10
 149.146408
  20
 111.168030
  30
 0.0
   0
VERTEX
   8
0
   6
Continuous
  10
 151.141800
  20
 112.180725
  30
 0.0
   0
VERTEX
   8
0
   6
Continuous
  10
 152.303299
  20
 113.066628
  30
 0.0
   0
VERTEX
   8
0
   6
Continuous
  10
 152.743515
  20
 113.006828
  30
 0.0
   0
VERTEX
   8
0
   6
Continuous
  10
 153.475693
  20
 112.449226
  30
 0.0
   0
VERTEX
   8
0
   6
Continuous
  10
 154.094193
  20
 110.695732
  30
 0.0
   0
VERTEX
   8
0
   6
Continuous
  10
 153.961105
  20
 109.624725
  30
 0.0
   0
VERTEX
   8
0
   6
Continuous
  10
 154.166000
  20
 108.410530
  30
 0.0
   0
VERTEX
   8
0
   6
Continuous
  10
 154.832687
  20
 107.554329
  30
 0.0
   0
VERTEX
   8
0
   6
Continuous
  10
 155.669510
  20
 105.423126
  30
 0.0
   0
VERTEX
   8
0
   6
Continuous
  10
 155.597702
  20
 104.618530
  30
 0.0
   0
VERTEX
   8
0
   6
Continuous
  10
 154.210709
  20
 103.776230
  30
 0.0
   0
VERTEX
   8
0
   6
Continuous
  10
 154.279190
  20
 103.298729
  30
 0.0
   0
VERTEX
   8
0
   6
Continuous
  10
 156.365097
  20
 102.094925
  30
 0.0
   0
VERTEX
   8
0
   6
Continuous
  10
 157.192215
  20
 101.232025
  30
 0.0
   0
VERTEX
   8
0
   6
Continuous
  10
 158.343307
  20
 100.363518
  30
 0.0
   0
VERTEX
   8
0
   6
Continuous
  10
 159.914902
  20
 98.490051
  30
 0.0
   0
VERTEX
   8
0
   6
Continuous
  10
 161.495499
  20
 94.581665
  30
 0.0
   0
VERTEX
   8
0
   6
Continuous
  10
 163.695389
  20
 92.954445
  30
 0.0
   0
VERTEX
   8
0
   6
Continuous
  10
 164.944107
  20
 91.674576
  30
 0.0
   0
VERTEX
   8
0
   6
Continuous
  10
 165.676712
  20
 90.642609
  30
 0.0
   0
VERTEX
   8
0
   6
Continuous
  10
 166.685715
  20
 88.933525
  30
 0.0
   0
VERTEX
   8
0
   6
Continuous
  10
 167.776413
  20
 85.385925
  30
 0.0
   0
VERTEX
   8
0
   6
Continuous
  10
 167.650803
  20
 83.983528
  30
 0.0
   0
VERTEX
   8
0
   6
Continuous
  10
 168.184311
  20
 81.948380
  30
 0.0
   0
VERTEX
   8
0
   6
Continuous
  10
 169.113113
  20
 80.681778
  30
 0.0
   0
VERTEX
   8
0
   6
Continuous
  10
 170.194412
  20
 79.981125
  30
 0.0
   0
VERTEX
   8
0
   6
Continuous
  10
 171.714706
  20
 79.188736
  30
 0.0
   0
VERTEX
   8
0
   6
Continuous
  10
 172.155807
  20
 78.639656
  30
 0.0
   0
VERTEX
   8
0
   6
Continuous
  10
 171.931290
  20
 76.910652
  30
 0.0
   0
VERTEX
   8
0
   6
Continuous
  10
 171.428391
  20
 76.286682
  30
 0.0
   0
VERTEX
   8
0
   6
Continuous
  10
 167.595505
  20
 77.559921
  30
 0.0
   0
VERTEX
   8
0
   6
Continuous
  10
 165.604507
  20
 79.672195
  30
 0.0
   0
VERTEX
   8
0
   6
Continuous
  10
 164.882614
  20
 81.602661
  30
 0.0
   0
VERTEX
   8
0
   6
Continuous
  10
 163.919113
  20
 85.737946
  30
 0.0
   0
VERTEX
   8
0
   6
Continuous
  10
 162.764511
  20
 88.336555
  30
 0.0
   0
VERTEX
   8
0
   6
Continuous
  10
 161.633896
  20
 89.475761
  30
 0.0
   0
VERTEX
   8
0
   6
Continuous
  10
 161.211716
  20
 89.355652
  30
 0.0
   0
VERTEX
   8
0
   6
Continuous
  10
 160.099503
  20
 87.872887
  30
 0.0
   0
VERTEX
   8
0
   6
Continuous
  10
 158.382095
  20
 86.704956
  30
 0.0
   0
VERTEX
   8
0
   6
Continuous
  10
 157.306290
  20
 85.839195
  30
 0.0
   0
VERTEX
   8
0
   6
Continuous
  10
 155.902390
  20
 85.253197
  30
 0.0
   0
VERTEX
   8
0
   6
Continuous
  10
 154.949814
  20
 85.496292
  30
 0.0
   0
VERTEX
   8
0
   6
Continuous
  10
 153.261093
  20
 85.388489
  30
 0.0
   0
VERTEX
   8
0
   6
Continuous
  10
 152.084396
  20
 85.931702
  30
 0.0
   0
VERTEX
   8
0
   6
Continuous
  10
 150.434006
  20
 87.078285
  30
 0.0
   0
VERTEX
   8
0
   6
Continuous
  10
 148.643997
  20
 89.652191
  30
 0.0
   0
VERTEX
   8
0
   6
Continuous
  10
 148.506393
  20
 90.133141
  30
 0.0
   0
VERTEX
   8
0
   6
Continuous
  10
 148.518814
  20
 92.212639
  30
 0.0
   0
VERTEX
   8
0
   6
Continuous
  10
 149.158493
  20
 93.818726
  30
 0.0
   0
VERTEX
   8
0
   6
Continuous
  10
 149.800003
  20
 94.605789
  30
 0.0
   0
VERTEX
   8
0
   6
Continuous
  10
 151.021500
  20
 95.668449
  30
 0.0
   0
VERTEX
   8
0
   6
Continuous
  10
 151.601791
  20
 95.726372
  30
 0.0
   0
VERTEX
   8
0
   6
Continuous
  10
 152.144791
  20
 95.413567
  30
 0.0
   0
VERTEX
   8
0
   6
Continuous
  10
 153.405014
  20
 94.157806
  30
 0.0
   0
VERTEX
   8
0
   6
Continuous
  10
 153.707809
  20
 93.238991
  30
 0.0
   0
VERTEX
   8
0
   6
Continuous
  10
 152.696487
  20
 90.878548
  30
 0.0
   0
VERTEX
   8
0
   6
Continuous
  10
 153.024307
  20
 90.250511
  30
 0.0
   0
VERTEX
   8
0
   6
Continuous
  10
 153.715897
  20
 90.207642
  30
 0.0
   0
VERTEX
   8
0
   6
Continuous
  10
 154.722000
  20
 90.716431
  30
 0.0
   0
VERTEX
   8
0
   6
Continuous
  10
 155.355392
  20
 91.830887
  30
 0.0
   0
VERTEX
   8
0
   6
Continuous
  10
 155.649796
  20
 93.793381
  30
 0.0
   0
VERTEX
   8
0
   6
Continuous
  10
 155.093216
  20
 95.897095
  30
 0.0
   0
VERTEX
   8
0
   6
Continuous
  10
 154.103897
  20
 97.166428
  30
 0.0
   0
VERTEX
   8
0
   6
Continuous
  10
 152.765915
  20
 97.993095
  30
 0.0
   0
VERTEX
   8
0
   6
Continuous
  10
 150.292496
  20
 99.130508
  30
 0.0
   0
VERTEX
   8
0
   6
Continuous
  10
 148.023514
  20
 99.267525
  30
 0.0
   0
VERTEX
   8
0
   6
Continuous
  10
 147.225113
  20
 99.428467
  30
 0.0
   0
VERTEX
   8
0
   6
Continuous
  10
 144.410294
  20
 97.288162
  30
 0.0
   0
VERTEX
   8
0
   6
Continuous
  10
 142.474808
  20
 94.113678
  30
 0.0
   0
VERTEX
   8
0
   6
Continuous
  10
 142.124893
  20
 92.510765
  30
 0.0
   0
VERTEX
   8
0
   6
Continuous
  10
 143.748398
  20
 86.532280
  30
 0.0
   0
VERTEX
   8
0
   6
Continuous
  10
 144.895309
  20
 81.638107
  30
 0.0
   0
VERTEX
   8
0
   6
Continuous
  10
 144.665817
  20
 80.293747
  30
 0.0
   0
VERTEX
   8
0
   6
Continuous
  10
 144.897415
  20
 78.692001
  30
 0.0
   0
VERTEX
   8
0
   6
Continuous
  10
 144.774612
  20
 75.979179
  30
 0.0
   0
VERTEX
   8
0
   6
Continuous
  10
 144.358292
  20
 73.757477
  30
 0.0
   0
VERTEX
   8
0
   6
Continuous
  10
 144.356796
  20
 72.285881
  30
 0.0
   0
VERTEX
   8
0
   6
Continuous
  10
 143.236313
  20
 67.839676
  30
 0.0
   0
VERTEX
   8
0
   6
Continuous
  10
 140.976395
  20
 62.230049
  30
 0.0
   0
VERTEX
   8
0
   6
Continuous
  10
 138.625992
  20
 57.652508
  30
 0.0
   0
VERTEX
   8
0
   6
Continuous
  10
 136.780991
  20
 54.428978
  30
 0.0
   0
VERTEX
   8
0
   6
Continuous
  10
 134.556992
  20
 51.089729
  30
 0.0
   0
VERTEX
   8
0
   6
Continuous
  10
 129.139694
  20
 44.298290
  30
 0.0
   0
VERTEX
   8
0
   6
Continuous
  10
 128.518600
  20
 43.336189
  30
 0.0
   0
VERTEX
   8
0
   6
Continuous
  10
 127.044510
  20
 42.032379
  30
 0.0
   0
VERTEX
   8
0
   6
Continuous
  10
 125.387405
  20
 40.176357
  30
 0.0
   0
VERTEX
   8
0
   6
Continuous
  10
 122.263412
  20
 37.339748
  30
 0.0
   0
VERTEX
   8
0
   6
Continuous
  10
 121.437698
  20
 36.491947
  30
 0.0
   0
VERTEX
   8
0
   6
Continuous
  10
 115.203293
  20
 31.629179
  30
 0.0
   0
VERTEX
   8
0
   6
Continuous
  10
 113.773087
  20
 30.955349
  30
 0.0
   0
VERTEX
   8
0
   6
Continuous
  10
 112.980606
  20
 30.088959
  30
 0.0
   0
VERTEX
   8
0
   6
Continuous
  10
 110.900711
  20
 29.287039
  30
 0.0
   0
VERTEX
   8
0
   6
Continuous
  10
 109.565903
  20
 28.232718
  30
 0.0
   0
VERTEX
   8
0
   6
Continuous
  10
 106.405319
  20
 27.216198
  30
 0.0
   0
VERTEX
   8
0
   6
Continuous
  10
 105.089279
  20
 26.314978
  30
 0.0
   0
VERTEX
   8
0
   6
Continuous
  10
 98.388657
  20
 24.344719
  30
 0.0
   0
VERTEX
   8
0
   6
Continuous
  10
 96.374802
  20
 24.254139
  30
 0.0
   0
VERTEX
   8
0
   6
Continuous
  10
 92.812943
  20
 23.442408
  30
 0.0
   0
VERTEX
   8
0
   6
Continuous
  10
 91.648819
  20
 23.701559
  30
 0.0
   0
VERTEX
   8
0
   6
Continuous
  10
 89.672043
  20
 23.384558
  30
 0.0
   0
VERTEX
   8
0
   6
Continuous
  10
 88.522018
  20
 23.668909
  30
 0.0
   0
VERTEX
   8
0
   6
Continuous
  10
 86.764206
  20
 23.450968
  30
 0.0
   0
VERTEX
   8
0
   6
Continuous
  10
 82.923355
  20
 23.897638
  30
 0.0
   0
VERTEX
   8
0
   6
Continuous
  10
 81.938522
  20
 24.184948
  30
 0.0
   0
VERTEX
   8
0
   6
Continuous
  10
 80.262741
  20
 24.406839
  30
 0.0
   0
VERTEX
   8
0
   6
Continuous
  10
 75.965408
  20
 25.500889
  30
 0.0
   0
VERTEX
   8
0
   6
Continuous
  10
 73.735733
  20
 26.195879
  30
 0.0
   0
VERTEX
   8
0
   6
Continuous
  10
 69.310989
  20
 27.940798
  30
 0.0
   0
VERTEX
   8
0
   6
Continuous
  10
 67.912674
  20
 28.366488
  30
 0.0
   0
VERTEX
   8
0
   6
Continuous
  10
 62.798111
  20
 30.927038
  30
 0.0
   0
VERTEX
   8
0
   6
Continuous
  10
 60.178085
  20
 32.044586
  30
 0.0
   0
VERTEX
   8
0
   6
Continuous
  10
 59.985001
  20
 32.559288
  30
 0.0
   0
VERTEX
   8
0
   6
Continuous
  10
 62.670609
  20
 37.730728
  30
 0.0
   0
VERTEX
   8
0
   6
Continuous
  10
 63.842178
  20
 40.293709
  30
 0.0
   0
VERTEX
   8
0
   6
Continuous
  10
 64.751541
  20
 41.501778
  30
 0.0
   0
VERTEX
   8
0
   6
Continuous
  10
 69.630051
  20
 39.939167
  30
 0.0
   0
VERTEX
   8
0
   6
Continuous
  10
 74.090408
  20
 39.136978
  30
 0.0
   0
VERTEX
   8
0
   6
Continuous
  10
 76.791183
  20
 38.992607
  30
 0.0
   0
VERTEX
   8
0
   6
Continuous
  10
 77.999863
  20
 39.106209
  30
 0.0
   0
VERTEX
   8
0
   6
Continuous
  10
 79.481033
  20
 38.828789
  30
 0.0
   0
VERTEX
   8
0
   6
Continuous
  10
 82.274948
  20
 39.437309
  30
 0.0
   0
VERTEX
   8
0
   6
Continuous
  10
 84.022507
  20
 39.161827
  30
 0.0
   0
VERTEX
   8
0
   6
Continuous
  10
 87.365707
  20
 40.138378
  30
 0.0
   0
VERTEX
   8
0
   6
Continuous
  10
 88.538742
  20
 41.119377
  30
 0.0
   0
VERTEX
   8
0
   6
Continuous
  10
 90.991440
  20
 42.040348
  30
 0.0
   0
VERTEX
   8
0
   6
Continuous
  10
 92.087143
  20
 42.901009
  30
 0.0
   0
VERTEX
   8
0
   6
Continuous
  10
 94.655716
  20
 44.575317
  30
 0.0
   0
VERTEX
   8
0
   6
Continuous
  10
 97.206100
  20
 46.850128
  30
 0.0
   0
VERTEX
   8
0
   6
Continuous
  10
 97.265793
  20
 47.464638
  30
 0.0
   0
VERTEX
   8
0
   6
Continuous
  10
 96.690994
  20
 47.678108
  30
 0.0
   0
VERTEX
   8
0
   6
Continuous
  10
 92.182785
  20
 46.339809
  30
 0.0
   0
VERTEX
   8
0
   6
Continuous
  10
 88.819473
  20
 45.590630
  30
 0.0
   0
VERTEX
   8
0
   6
Continuous
  10
 87.907333
  20
 45.715118
  30
 0.0
   0
VERTEX
   8
0
   6
Continuous
  10
 85.685074
  20
 45.544308
  30
 0.0
   0
VERTEX
   8
0
   6
Continuous
  10
 84.500137
  20
 45.766289
  30
 0.0
   0
VERTEX
   8
0
   6
Continuous
  10
 83.136978
  20
 45.669067
  30
 0.0
   0
VERTEX
   8
0
   6
Continuous
  10
 80.845535
  20
 45.960449
  30
 0.0
   0
VERTEX
   8
0
   6
Continuous
  10
 79.827988
  20
 46.189167
  30
 0.0
   0
VERTEX
   8
0
   6
Continuous
  10
 79.015488
  20
 46.492008
  30
 0.0
   0
VERTEX
   8
0
   6
Continuous
  10
 77.160172
  20
 46.970619
  30
 0.0
   0
VERTEX
   8
0
   6
Continuous
  10
 75.848404
  20
 47.657860
  30
 0.0
   0
VERTEX
   8
0
   6
Continuous
  10
 75.909836
  20
 47.891060
  30
 0.0
   0
VERTEX
   8
0
   6
Continuous
  10
 79.162643
  20
 48.972717
  30
 0.0
   0
VERTEX
   8
0
   6
Continuous
  10
 79.879776
  20
 49.717537
  30
 0.0
   0
VERTEX
   8
0
   6
Continuous
  10
 81.108109
  20
 50.340557
  30
 0.0
   0
VERTEX
   8
0
   6
Continuous
  10
 83.194901
  20
 51.793030
  30
 0.0
   0
VERTEX
   8
0
   6
Continuous
  10
 84.958969
  20
 53.690468
  30
 0.0
   0
VERTEX
   8
0
   6
Continuous
  10
 85.094650
  20
 54.322498
  30
 0.0
   0
VERTEX
   8
0
   6
Continuous
  10
 84.495804
  20
 54.549488
  30
 0.0
   0
VERTEX
   8
0
   6
Continuous
  10
 79.887497
  20
 53.327637
  30
 0.0
   0
VERTEX
   8
0
   6
Continuous
  10
 77.195297
  20
 53.194309
  30
 0.0
   0
VERTEX
   8
0
   6
Continuous
  10
 73.989792
  20
 53.313698
  30
 0.0
   0
VERTEX
   8
0
   6
Continuous
  10
 71.034531
  20
 53.881187
  30
 0.0
   0
VERTEX
   8
0
   6
Continuous
  10
 69.080246
  20
 54.594379
  30
 0.0
   0
VERTEX
   8
0
   6
Continuous
  10
 68.673294
  20
 54.955128
  30
 0.0
   0
VERTEX
   8
0
   6
Continuous
  10
 68.739212
  20
 55.478249
  30
 0.0
   0
VERTEX
   8
0
   6
Continuous
  10
 70.640366
  20
 56.185638
  30
 0.0
   0
VERTEX
   8
0
   6
Continuous
  10
 71.647659
  20
 56.932049
  30
 0.0
   0
VERTEX
   8
0
   6
Continuous
  10
 73.780045
  20
 58.031860
  30
 0.0
   0
VERTEX
   8
0
   6
Continuous
  10
 76.160355
  20
 60.792660
  30
 0.0
   0
VERTEX
   8
0
   6
Continuous
  10
 76.839279
  20
 61.821648
  30
 0.0
   0
VERTEX
   8
0
   6
Continuous
  10
 76.821365
  20
 62.281628
  30
 0.0
   0
VERTEX
   8
0
   6
Continuous
  10
 76.357681
  20
 62.536148
  30
 0.0
   0
VERTEX
   8
0
   6
Continuous
  10
 72.093094
  20
 61.636967
  30
 0.0
   0
VERTEX
   8
0
   6
Continuous
  10
 71.014114
  20
 61.755589
  30
 0.0
   0
VERTEX
   8
0
   6
Continuous
  10
 67.855331
  20
 61.372669
  30
 0.0
   0
VERTEX
   8
0
   6
Continuous
  10
 63.875443
  20
 62.449207
  30
 0.0
   0
VERTEX
   8
0
   6
Continuous
  10
 61.800644
  20
 63.626530
  30
 0.0
   0
VERTEX
   8
0
   6
Continuous
  10
 61.863144
  20
 64.048340
  30
 0.0
   0
VERTEX
   8
0
   6
Continuous
  10
 64.009872
  20
 64.796379
  30
 0.0
   0
VERTEX
   8
0
   6
Continuous
  10
 65.379410
  20
 65.667717
  30
 0.0
   0
VERTEX
   8
0
   6
Continuous
  10
 67.878708
  20
 66.562607
  30
 0.0
   0
VERTEX
   8
0
   6
Continuous
  10
 69.672897
  20
 68.342140
  30
 0.0
   0
VERTEX
   8
0
   6
Continuous
  10
 71.203079
  20
 69.716255
  30
 0.0
   0
VERTEX
   8
0
   6
Continuous
  10
 71.381241
  20
 70.280960
  30
 0.0
   0
VERTEX
   8
0
   6
Continuous
  10
 71.060287
  20
 70.637642
  30
 0.0
   0
VERTEX
   8
0
   6
Continuous
  10
 67.309128
  20
 69.770485
  30
 0.0
   0
VERTEX
   8
0
   6
Continuous
  10
 65.965500
  20
 70.001190
  30
 0.0
   0
VERTEX
   8
0
   6
Continuous
  10
 64.542496
  20
 69.796860
  30
 0.0
   0
VERTEX
   8
0
   6
Continuous
  10
 61.575424
  20
 70.050201
  30
 0.0
   0
VERTEX
   8
0
   6
Continuous
  10
 57.009964
  20
 71.151741
  30
 0.0
   0
VERTEX
   8
0
   6
Continuous
  10
 56.312515
  20
 71.684006
  30
 0.0
   0
VERTEX
   8
0
   6
Continuous
  10
 56.409836
  20
 72.155296
  30
 0.0
   0
VERTEX
   8
0
   6
Continuous
  10
 57.976578
  20
 72.746437
  30
 0.0
   0
VERTEX
   8
0
   6
Continuous
  10
 58.920975
  20
 73.364281
  30
 0.0
   0
VERTEX
   8
0
   6
Continuous
  10
 60.290054
  20
 74.072350
  30
 0.0
   0
VERTEX
   8
0
   6
Continuous
  10
 63.372665
  20
 76.441208
  30
 0.0
   0
VERTEX
   8
0
   6
Continuous
  10
 64.736862
  20
 77.969948
  30
 0.0
   0
VERTEX
   8
0
   6
Continuous
  10
 66.117508
  20
 79.162315
  30
 0.0
   0
VERTEX
   8
0
   6
Continuous
  10
 70.640396
  20
 80.424255
  30
 0.0
   0
VERTEX
   8
0
   6
Continuous
  10
 76.205887
  20
 81.846306
  30
 0.0
   0
VERTEX
   8
0
   6
Continuous
  10
 76.748795
  20
 81.694016
  30
 0.0
   0
VERTEX
   8
0
   6
Continuous
  10
 77.868301
  20
 78.732048
  30
 0.0
   0
VERTEX
   8
0
   6
Continuous
  10
 79.001816
  20
 78.112328
  30
 0.0
   0
VERTEX
   8
0
   6
Continuous
  10
 79.921219
  20
 78.178932
  30
 0.0
   0
VERTEX
   8
0
   6
Continuous
  10
 80.841537
  20
 78.957321
  30
 0.0
   0
VERTEX
   8
0
   6
Continuous
  10
 83.625748
  20
 80.559509
  30
 0.0
   0
VERTEX
   8
0
   6
Continuous
  10
 84.529221
  20
 80.684189
  30
 0.0
   0
VERTEX
   8
0
   6
Continuous
  10
 87.284805
  20
 78.881088
  30
 0.0
   0
VERTEX
   8
0
   6
Continuous
  10
 92.324570
  20
 75.307480
  30
 0.0
   0
VERTEX
   8
0
   6
Continuous
  10
 94.244949
  20
 73.770630
  30
 0.0
   0
VERTEX
   8
0
   6
Continuous
  10
 92.777908
  20
 70.492447
  30
 0.0
   0
VERTEX
   8
0
   6
Continuous
  10
 92.380081
  20
 68.485947
  30
 0.0
   0
VERTEX
   8
0
   6
Continuous
  10
 92.490189
  20
 67.395409
  30
 0.0
   0
VERTEX
   8
0
   6
Continuous
  10
 93.308762
  20
 65.936157
  30
 0.0
   0
VERTEX
   8
0
   6
Continuous
  10
 94.034317
  20
 64.305511
  30
 0.0
   0
VERTEX
   8
0
   6
Continuous
  10
 94.794083
  20
 63.615108
  30
 0.0
   0
VERTEX
   8
0
   6
Continuous
  10
 95.287247
  20
 62.740349
  30
 0.0
   0
VERTEX
   8
0
   6
Continuous
  10
 96.205338
  20
 61.454418
  30
 0.0
   0
VERTEX
   8
0
   6
Continuous
  10
 98.365463
  20
 59.169979
  30
 0.0
   0
VERTEX
   8
0
   6
Continuous
  10
 99.666672
  20
 57.398350
  30
 0.0
   0
VERTEX
   8
0
   6
Continuous
  10
 100.436813
  20
 56.726540
  30
 0.0
   0
VERTEX
   8
0
   6
Continuous
  10
 101.346695
  20
 55.718979
  30
 0.0
   0
VERTEX
   8
0
   6
Continuous
  10
 103.183578
  20
 54.613640
  30
 0.0
   0
VERTEX
   8
0
   6
Continuous
  10
 106.090225
  20
 54.542507
  30
 0.0
   0
VERTEX
   8
0
   6
Continuous
  10
 110.663193
  20
 55.760658
  30
 0.0
   0
VERTEX
   8
0
   6
Continuous
  10
 111.842484
  20
 56.574627
  30
 0.0
   0
VERTEX
   8
0
   6
Continuous
  10
 115.905899
  20
 57.905037
  30
 0.0
   0
VERTEX
   8
0
   6
Continuous
  10
 116.823410
  20
 58.865227
  30
 0.0
   0
VERTEX
   8
0
   6
Continuous
  10
 119.219589
  20
 59.654129
  30
 0.0
   0
VERTEX
   8
0
   6
Continuous
  10
 120.626511
  20
 60.504570
  30
 0.0
   0
VERTEX
   8
0
   6
Continuous
  10
 123.233505
  20
 61.501587
  30
 0.0
   0
VERTEX
   8
0
   6
Continuous
  10
 123.896194
  20
 62.377789
  30
 0.0
   0
VERTEX
   8
0
   6
Continuous
  10
 123.905991
  20
 62.851990
  30
 0.0
   0
VERTEX
   8
0
   6
Continuous
  10
 123.528091
  20
 63.216408
  30
 0.0
   0
VERTEX
   8
0
   6
Continuous
  10
 121.932602
  20
 62.992268
  30
 0.0
   0
VERTEX
   8
0
   6
Continuous
  10
 120.447403
  20
 63.262577
  30
 0.0
   0
VERTEX
   8
0
   6
Continuous
  10
 118.059494
  20
 63.381199
  30
 0.0
   0
VERTEX
   8
0
   6
Continuous
  10
 117.256485
  20
 63.701027
  30
 0.0
   0
VERTEX
   8
0
   6
Continuous
  10
 113.925613
  20
 64.467194
  30
 0.0
   0
VERTEX
   8
0
   6
Continuous
  10
 112.586685
  20
 65.014969
  30
 0.0
   0
VERTEX
   8
0
   6
Continuous
  10
 111.202805
  20
 64.621475
  30
 0.0
   0
VERTEX
   8
0
   6
Continuous
  10
 110.603897
  20
 63.810699
  30
 0.0
   0
VERTEX
   8
0
   6
Continuous
  10
 108.246109
  20
 61.746319
  30
 0.0
   0
VERTEX
   8
0
   6
Continuous
  10
 107.472458
  20
 61.244057
  30
 0.0
   0
VERTEX
   8
0
   6
Continuous
  10
 105.516190
  20
 61.720928
  30
 0.0
   0
VERTEX
   8
0
   6
Continuous
  10
 103.087051
  20
 63.515957
  30
 0.0
   0
VERTEX
   8
0
   6
Continuous
  10
 102.067154
  20
 67.105057
  30
 0.0
   0
VERTEX
   8
0
   6
Continuous
  10
 102.579849
  20
 68.945671
  30
 0.0
   0
VERTEX
   8
0
   6
Continuous
  10
 103.814743
  20
 70.383026
  30
 0.0
   0
VERTEX
   8
0
   6
Continuous
  10
 104.094376
  20
 71.030457
  30
 0.0
   0
VERTEX
   8
0
   6
Continuous
  10
 103.191086
  20
 73.964966
  30
 0.0
   0
VERTEX
   8
0
   6
Continuous
  10
 102.418930
  20
 74.926109
  30
 0.0
   0
VERTEX
   8
0
   6
Continuous
  10
 101.112320
  20
 78.850067
  30
 0.0
   0
VERTEX
   8
0
   6
Continuous
  10
 100.417648
  20
 79.684898
  30
 0.0
   0
VERTEX
   8
0
   6
Continuous
  10
 99.215988
  20
 78.840881
  30
 0.0
   0
VERTEX
   8
0
   6
Continuous
  10
 97.206436
  20
 77.018028
  30
 0.0
   0
VERTEX
   8
0
   6
Continuous
  10
 95.327072
  20
 74.938675
  30
 0.0
   0
VERTEX
   8
0
   6
Continuous
  10
 94.583115
  20
 74.719566
  30
 0.0
   0
VERTEX
   8
0
   6
Continuous
  10
 90.083145
  20
 77.739441
  30
 0.0
   0
VERTEX
   8
0
   6
Continuous
  10
 84.753555
  20
 81.603271
  30
 0.0
   0
VERTEX
   8
0
   6
Continuous
  10
 86.470963
  20
 82.849060
  30
 0.0
   0
VERTEX
   8
0
   6
Continuous
  10
 89.713516
  20
 86.012611
  30
 0.0
   0
VERTEX
   8
0
   6
Continuous
  10
 89.404587
  20
 86.497925
  30
 0.0
   0
VERTEX
   8
0
   6
Continuous
  10
 87.226822
  20
 86.981102
  30
 0.0
   0
VERTEX
   8
0
   6
Continuous
  10
 85.956009
  20
 87.049255
  30
 0.0
   0
VERTEX
   8
0
   6
Continuous
  10
 83.758530
  20
 87.530876
  30
 0.0
   0
VERTEX
   8
0
   6
Continuous
  10
 83.465866
  20
 87.878510
  30
 0.0
   0
VERTEX
   8
0
   6
Continuous
  10
 83.596573
  20
 88.871536
  30
 0.0
   0
VERTEX
   8
0
   6
Continuous
  10
 86.732224
  20
 98.510689
  30
 0.0
   0
VERTEX
   8
0
   6
Continuous
  10
 87.085251
  20
 99.028000
  30
 0.0
   0
VERTEX
   8
0
   6
Continuous
  10
 88.348404
  20
 98.365738
  30
 0.0
   0
VERTEX
   8
0
   6
Continuous
  10
 93.022568
  20
 97.067406
  30
 0.0
   0
VERTEX
   8
0
   6
Continuous
  10
 95.022293
  20
 96.966156
  30
 0.0
   0
VERTEX
   8
0
   6
Continuous
  10
 95.568466
  20
 97.245880
  30
 0.0
   0
VERTEX
   8
0
   6
Continuous
  10
 95.613083
  20
 98.358902
  30
 0.0
   0
VERTEX
   8
0
   6
Continuous
  10
 94.720291
  20
 101.367928
  30
 0.0
   0
VERTEX
   8
0
   6
Continuous
  10
 94.992477
  20
 102.468330
  30
 0.0
   0
VERTEX
   8
0
   6
Continuous
  10
 94.338791
  20
 105.747231
  30
 0.0
   0
VERTEX
   8
0
   6
Continuous
  10
 93.874924
  20
 106.505829
  30
 0.0
   0
VERTEX
   8
0
   6
Continuous
  10
 91.813614
  20
 107.208328
  30
 0.0
   0
VERTEX
   8
0
   6
Continuous
  10
 90.513290
  20
 107.991631
  30
 0.0
   0
VERTEX
   8
0
   6
Continuous
  10
 89.509598
  20
 111.419930
  30
 0.0
   0
VERTEX
   8
0
   6
Continuous
  10
 89.894333
  20
 113.495628
  30
 0.0
   0
VERTEX
   8
0
   6
Continuous
  10
 90.534348
  20
 114.875931
  30
 0.0
   0
VERTEX
   8
0
   6
Continuous
  10
 91.136978
  20
 115.552628
  30
 0.0
   0
VERTEX
   8
0
   6
Continuous
  10
 94.287735
  20
 116.327026
  30
 0.0
   0
VERTEX
   8
0
   6
Continuous
  10
 95.556534
  20
 115.962326
  30
 0.0
   0
VERTEX
   8
0
   6
Continuous
  10
 96.850266
  20
 115.350227
  30
 0.0
   0
VERTEX
   8
0
   6
Continuous
  10
 97.566086
  20
 115.303825
  30
 0.0
   0
VERTEX
   8
0
   6
Continuous
  10
 98.799973
  20
 116.539627
  30
 0.0
   0
VERTEX
   8
0
   6
Continuous
  10
 100.738022
  20
 118.729530
  30
 0.0
   0
VERTEX
   8
0
   6
Continuous
  10
 104.024826
  20
 121.638931
  30
 0.0
   0
VERTEX
   8
0
   6
Continuous
  10
 105.049423
  20
 122.702827
  30
 0.0
   0
VERTEX
   8
0
   6
Continuous
  10
 107.062515
  20
 123.426826
  30
 0.0
   0
VERTEX
   8
0
   6
Continuous
  10
 107.316147
  20
 123.806625
  30
 0.0
   0
VERTEX
   8
0
   6
Continuous
  10
 105.604630
  20
 124.287926
  30
 0.0
   0
VERTEX
   8
0
   6
Continuous
  10
 102.374466
  20
 123.777130
  30
 0.0
   0
VERTEX
   8
0
   6
Continuous
  10
 101.365097
  20
 123.940231
  30
 0.0
   0
VERTEX
   8
0
   6
Continuous
  10
 100.759201
  20
 123.789627
  30
 0.0
   0
VERTEX
   8
0
   6
Continuous
  10
 99.886368
  20
 123.717232
  30
 0.0
   0
VERTEX
   8
0
   6
Continuous
  10
 97.867020
  20
 123.323029
  30
 0.0
   0
VERTEX
   8
0
   6
Continuous
  10
 96.632401
  20
 123.455925
  30
 0.0
   0
VERTEX
   8
0
   6
Continuous
  10
 91.894791
  20
 122.296631
  30
 0.0
   0
VERTEX
   8
0
   6
Continuous
  10
 90.406265
  20
 122.560829
  30
 0.0
   0
VERTEX
   8
0
   6
Continuous
  10
 88.439346
  20
 121.997726
  30
 0.0
   0
VERTEX
   8
0
   6
Continuous
  10
 87.366013
  20
 121.124527
  30
 0.0
   0
VERTEX
   8
0
   6
Continuous
  10
 85.854385
  20
 120.496529
  30
 0.0
   0
VERTEX
   8
0
   6
Continuous
  10
 84.564377
  20
 119.553627
  30
 0.0
   0
VERTEX
   8
0
   6
Continuous
  10
 83.708847
  20
 117.767525
  30
 0.0
   0
VERTEX
   8
0
   6
Continuous
  10
 83.294174
  20
 115.217827
  30
 0.0
   0
VERTEX
   8
0
   6
Continuous
  10
 82.512283
  20
 111.400627
  30
 0.0
   0
VERTEX
   8
0
   6
Continuous
  10
 82.331680
  20
 109.701729
  30
 0.0
   0
VERTEX
   8
0
   6
Continuous
  10
 82.313614
  20
 108.239326
  30
 0.0
   0
VERTEX
   8
0
   6
Continuous
  10
 82.134323
  20
 107.194130
  30
 0.0
   0
VERTEX
   8
0
   6
Continuous
  10
 82.150101
  20
 104.399727
  30
 0.0
   0
VERTEX
   8
0
   6
Continuous
  10
 82.473679
  20
 102.787827
  30
 0.0
   0
VERTEX
   8
0
   6
Continuous
  10
 83.588791
  20
 101.268829
  30
 0.0
   0
VERTEX
   8
0
   6
Continuous
  10
 85.903763
  20
 99.605072
  30
 0.0
   0
VERTEX
   8
0
   6
Continuous
  10
 86.160538
  20
 99.172165
  30
 0.0
   0
VERTEX
   8
0
   6
Continuous
  10
 83.068008
  20
 89.498268
  30
 0.0
   0
VERTEX
   8
0
   6
Continuous
  10
 82.385300
  20
 87.825081
  30
 0.0
   0
VERTEX
   8
0
   6
Continuous
  10
 78.493149
  20
 88.040901
  30
 0.0
   0
VERTEX
   8
0
   6
Continuous
  10
 77.640182
  20
 88.258186
  30
 0.0
   0
VERTEX
   8
0
   6
Continuous
  10
 77.040878
  20
 88.088036
  30
 0.0
   0
VERTEX
   8
0
   6
Continuous
  10
 76.270828
  20
 86.908691
  30
 0.0
   0
VERTEX
   8
0
   6
Continuous
  10
 75.892471
  20
 85.811111
  30
 0.0
   0
VERTEX
   8
0
   6
Continuous
  10
 76.374741
  20
 83.224487
  30
 0.0
   0
VERTEX
   8
0
   6
Continuous
  10
 76.087204
  20
 82.757050
  30
 0.0
   0
VERTEX
   8
0
   6
Continuous
  10
 70.787979
  20
 81.274475
  30
 0.0
   0
VERTEX
   8
0
   6
Continuous
  10
 66.437180
  20
 80.221878
  30
 0.0
   0
VERTEX
   8
0
   6
Continuous
  10
 64.770126
  20
 80.752380
  30
 0.0
   0
VERTEX
   8
0
   6
Continuous
  10
 59.989029
  20
 81.859131
  30
 0.0
   0
VERTEX
   8
0
   6
Continuous
  10
 58.811081
  20
 81.800652
  30
 0.0
   0
VERTEX
   8
0
   6
Continuous
  10
 57.571457
  20
 81.924721
  30
 0.0
   0
VERTEX
   8
0
   6
Continuous
  10
 54.117264
  20
 81.111031
  30
 0.0
   0
VERTEX
   8
0
   6
Continuous
  10
 53.484055
  20
 81.279022
  30
 0.0
   0
VERTEX
   8
0
   6
Continuous
  10
 53.383926
  20
 81.869972
  30
 0.0
   0
VERTEX
   8
0
   6
Continuous
  10
 54.832687
  20
 83.827629
  30
 0.0
   0
VERTEX
   8
0
   6
Continuous
  10
 56.058182
  20
 85.270218
  30
 0.0
   0
VERTEX
   8
0
   6
Continuous
  10
 57.250595
  20
 86.240501
  30
 0.0
   0
VERTEX
   8
0
   6
Continuous
  10
 58.695908
  20
 87.069511
  30
 0.0
   0
VERTEX
   8
0
   6
Continuous
  10
 59.406113
  20
 87.818222
  30
 0.0
   0
VERTEX
   8
0
   6
Continuous
  10
 60.400436
  20
 88.408195
  30
 0.0
   0
VERTEX
   8
0
   6
Continuous
  10
 65.248245
  20
 89.955055
  30
 0.0
   0
VERTEX
   8
0
   6
Continuous
  10
 65.641403
  20
 90.374245
  30
 0.0
   0
VERTEX
   8
0
   6
Continuous
  10
 65.462936
  20
 91.066277
  30
 0.0
   0
VERTEX
   8
0
   6
Continuous
  10
 62.389206
  20
 92.017448
  30
 0.0
   0
VERTEX
   8
0
   6
Continuous
  10
 59.142685
  20
 92.063469
  30
 0.0
   0
VERTEX
   8
0
   6
Continuous
  10
 54.627670
  20
 90.898697
  30
 0.0
   0
VERTEX
   8
0
   6
Continuous
  10
 54.019150
  20
 91.028175
  30
 0.0
   0
VERTEX
   8
0
   6
Continuous
  10
 53.964035
  20
 91.677666
  30
 0.0
   0
VERTEX
   8
0
   6
Continuous
  10
 54.988449
  20
 93.658859
  30
 0.0
   0
VERTEX
   8
0
   6
Continuous
  10
 56.985550
  20
 95.877777
  30
 0.0
   0
VERTEX
   8
0
   6
Continuous
  10
 59.021347
  20
 97.358757
  30
 0.0
   0
VERTEX
   8
0
   6
Continuous
  10
 60.068344
  20
 97.919365
  30
 0.0
   0
VERTEX
   8
0
   6
Continuous
  10
 63.678970
  20
 99.175392
  30
 0.0
   0
VERTEX
   8
0
   6
Continuous
  10
 64.801224
  20
 100.246796
  30
 0.0
   0
VERTEX
   8
0
   6
Continuous
  10
 65.367203
  20
 100.208931
  30
 0.0
   0
VERTEX
   8
0
   6
Continuous
  10
 65.984299
  20
 100.856331
  30
 0.0
   0
VERTEX
   8
0
   6
Continuous
  10
 64.909012
  20
 101.693130
  30
 0.0
   0
VERTEX
   8
0
   6
Continuous
  10
 62.880020
  20
 102.272331
  30
 0.0
   0
VERTEX
   8
0
   6
Continuous
  10
 59.670486
  20
 102.677528
  30
 0.0
   0
VERTEX
   8
0
   6
Continuous
  10
 56.187149
  20
 101.824326
  30
 0.0
   0
VERTEX
   8
0
   6
Continuous
  10
 55.095261
  20
 101.688828
  30
 0.0
   0
VERTEX
   8
0
   6
Continuous
  10
 55.003342
  20
 102.079628
  30
 0.0
   0
VERTEX
   8
0
   6
Continuous
  10
 55.874954
  20
 103.695427
  30
 0.0
   0
VERTEX
   8
0
   6
Continuous
  10
 58.946915
  20
 107.053131
  30
 0.0
   0
VERTEX
   8
0
   6
Continuous
  10
 59.885391
  20
 107.510826
  30
 0.0
   0
VERTEX
   8
0
   6
Continuous
  10
 60.940353
  20
 108.230629
  30
 0.0
   0
VERTEX
   8
0
   6
Continuous
  10
 64.317184
  20
 109.617126
  30
 0.0
   0
VERTEX
   8
0
   6
Continuous
  10
 65.327988
  20
 110.494926
  30
 0.0
   0
VERTEX
   8
0
   6
Continuous
  10
 67.467911
  20
 111.130028
  30
 0.0
   0
VERTEX
   8
0
   6
Continuous
  10
 68.754044
  20
 111.946228
  30
 0.0
   0
VERTEX
   8
0
   6
Continuous
  10
 68.708115
  20
 112.305626
  30
 0.0
   0
VERTEX
   8
0
   6
Continuous
  10
 67.928207
  20
 112.485428
  30
 0.0
   0
VERTEX
   8
0
   6
Continuous
  10
 66.533188
  20
 112.623627
  30
 0.0
   0
VERTEX
   8
0
   6
Continuous
  10
 65.256790
  20
 112.974831
  30
 0.0
   0
VERTEX
   8
0
   6
Continuous
  10
 61.826675
  20
 112.985031
  30
 0.0
   0
VERTEX
   8
0
   6
Continuous
  10
 57.326706
  20
 111.912727
  30
 0.0
   0
VERTEX
   8
0
   6
Continuous
  10
 57.142258
  20
 112.204628
  30
 0.0
   0
VERTEX
   8
0
   6
Continuous
  10
 60.163742
  20
 116.026726
  30
 0.0
   0
VERTEX
   8
0
   6
Continuous
  10
 63.541489
  20
 118.721626
  30
 0.0
   0
VERTEX
   8
0
   6
Continuous
  10
 65.959427
  20
 120.316429
  30
 0.0
   0
VERTEX
   8
0
   6
Continuous
  10
 68.785172
  20
 121.356331
  30
 0.0
   0
VERTEX
   8
0
   6
Continuous
  10
 69.995193
  20
 121.989426
  30
 0.0
   0
VERTEX
   8
0
   6
Continuous
  10
 73.355026
  20
 123.126328
  30
 0.0
   0
VERTEX
   8
0
   6
Continuous
  10
 75.307053
  20
 123.214729
  30
 0.0
   0
VERTEX
   8
0
   6
Continuous
  10
 75.735306
  20
 123.604927
  30
 0.0
   0
VERTEX
   8
0
   6
Continuous
  10
 75.487106
  20
 123.986229
  30
 0.0
   0
VERTEX
   8
0
   6
Continuous
  10
 73.882126
  20
 124.612526
  30
 0.0
   0
VERTEX
   8
0
   6
Continuous
  10
 69.931168
  20
 125.336929
  30
 0.0
   0
VERTEX
   8
0
   6
Continuous
  10
 67.962967
  20
 125.146027
  30
 0.0
   0
VERTEX
   8
0
   6
Continuous
  10
 66.613174
  20
 125.355026
  30
 0.0
   0
VERTEX
   8
0
   6
Continuous
  10
 64.216660
  20
 124.882927
  30
 0.0
   0
VERTEX
   8
0
   6
Continuous
  10
 57.321335
  20
 122.792931
  30
 0.0
   0
VERTEX
   8
0
   6
Continuous
  10
 56.637466
  20
 122.085930
  30
 0.0
   0
VERTEX
   8
0
   6
Continuous
  10
 55.098953
  20
 121.309029
  30
 0.0
   0
VERTEX
   8
0
   6
Continuous
  10
 52.729050
  20
 119.850929
  30
 0.0
   0
VERTEX
   8
0
   6
Continuous
  10
 51.375626
  20
 118.806931
  30
 0.0
   0
VERTEX
   8
0
   6
Continuous
  10
 50.265121
  20
 117.627327
  30
 0.0
   0
VERTEX
   8
0
   6
Continuous
  10
 48.379074
  20
 115.899231
  30
 0.0
   0
VERTEX
   8
0
   6
Continuous
  10
 45.023788
  20
 112.214432
  30
 0.0
   0
VERTEX
   8
0
   6
Continuous
  10
 44.356979
  20
 110.981026
  30
 0.0
   0
VERTEX
   8
0
   6
Continuous
  10
 44.406265
  20
 110.655830
  30
 0.0
   0
VERTEX
   8
0
   6
Continuous
  10
 45.340866
  20
 110.710228
  30
 0.0
   0
VERTEX
   8
0
   6
Continuous
  10
 48.415543
  20
 110.649529
  30
 0.0
   0
VERTEX
   8
0
   6
Continuous
  10
 49.966385
  20
 110.302330
  30
 0.0
   0
VERTEX
   8
0
   6
Continuous
  10
 50.514999
  20
 109.931427
  30
 0.0
   0
VERTEX
   8
0
   6
Continuous
  10
 50.574631
  20
 109.267830
  30
 0.0
   0
VERTEX
   8
0
   6
Continuous
  10
 49.753708
  20
 108.750931
  30
 0.0
   0
VERTEX
   8
0
   6
Continuous
  10
 49.016251
  20
 108.017426
  30
 0.0
   0
VERTEX
   8
0
   6
Continuous
  10
 46.530685
  20
 106.296730
  30
 0.0
   0
VERTEX
   8
0
   6
Continuous
  10
 42.604019
  20
 101.680328
  30
 0.0
   0
VERTEX
   8
0
   6
Continuous
  10
 42.332047
  20
 101.209328
  30
 0.0
   0
VERTEX
   8
0
   6
Continuous
  10
 42.612411
  20
 100.929527
  30
 0.0
   0
VERTEX
   8
0
   6
Continuous
  10
 43.632248
  20
 101.178528
  30
 0.0
   0
VERTEX
   8
0
   6
Continuous
  10
 45.264236
  20
 101.197128
  30
 0.0
   0
VERTEX
   8
0
   6
Continuous
  10
 47.452133
  20
 101.599228
  30
 0.0
   0
VERTEX
   8
0
   6
Continuous
  10
 49.499619
  20
 101.130630
  30
 0.0
   0
VERTEX
   8
0
   6
Continuous
  10
 49.814102
  20
 100.770630
  30
 0.0
   0
VERTEX
   8
0
   6
Continuous
  10
 46.092117
  20
 97.379608
  30
 0.0
   0
VERTEX
   8
0
   6
Continuous
  10
 42.092087
  20
 92.905205
  30
 0.0
   0
VERTEX
   8
0
   6
Continuous
  10
 41.091415
  20
 91.242020
  30
 0.0
   0
VERTEX
   8
0
   6
Continuous
  10
 41.174454
  20
 90.867836
  30
 0.0
   0
VERTEX
   8
0
   6
Continuous
  10
 41.579575
  20
 90.495461
  30
 0.0
   0
VERTEX
   8
0
   6
Continuous
  10
 43.389328
  20
 90.807442
  30
 0.0
   0
VERTEX
   8
0
   6
Continuous
  10
 45.338425
  20
 90.489029
  30
 0.0
   0
VERTEX
   8
0
   6
Continuous
  10
 48.248459
  20
 89.557312
  30
 0.0
   0
VERTEX
   8
0
   6
Continuous
  10
 48.351486
  20
 88.912590
  30
 0.0
   0
VERTEX
   8
0
   6
Continuous
  10
 44.015945
  20
 84.632141
  30
 0.0
   0
VERTEX
   8
0
   6
Continuous
  10
 40.881851
  20
 80.165352
  30
 0.0
   0
VERTEX
   8
0
   6
Continuous
  10
 40.530533
  20
 78.850349
  30
 0.0
   0
VERTEX
   8
0
   6
Continuous
  10
 40.698166
  20
 78.311317
  30
 0.0
   0
VERTEX
   8
0
   6
Continuous
  10
 42.976822
  20
 77.762749
  30
 0.0
   0
VERTEX
   8
0
   6
Continuous
  10
 44.863083
  20
 77.624786
  30
 0.0
   0
VERTEX
   8
0
   6
Continuous
  10
 48.666336
  20
 76.817886
  30
 0.0
   0
VERTEX
   8
0
   6
Continuous
  10
 50.375443
  20
 76.656090
  30
 0.0
   0
VERTEX
   8
0
   6
Continuous
  10
 51.465042
  20
 76.092636
  30
 0.0
   0
VERTEX
   8
0
   6
Continuous
  10
 51.588455
  20
 75.325539
  30
 0.0
   0
VERTEX
   8
0
   6
Continuous
  10
 48.355728
  20
 72.228668
  30
 0.0
   0
VERTEX
   8
0
   6
Continuous
  10
 43.821518
  20
 68.555000
  30
 0.0
   0
VERTEX
   8
0
   6
Continuous
  10
 43.586380
  20
 67.787476
  30
 0.0
   0
VERTEX
   8
0
   6
Continuous
  10
 43.836777
  20
 67.261658
  30
 0.0
   0
VERTEX
   8
0
   6
Continuous
  10
 46.918869
  20
 65.484406
  30
 0.0
   0
VERTEX
   8
0
   6
Continuous
  10
 50.169601
  20
 64.274063
  30
 0.0
   0
VERTEX
   8
0
   6
Continuous
  10
 54.256363
  20
 63.389339
  30
 0.0
   0
VERTEX
   8
0
   6
Continuous
  10
 55.794907
  20
 62.758129
  30
 0.0
   0
VERTEX
   8
0
   6
Continuous
  10
 55.734909
  20
 62.211708
  30
 0.0
   0
VERTEX
   8
0
   6
Continuous
  10
 53.506119
  20
 59.699818
  30
 0.0
   0
VERTEX
   8
0
   6
Continuous
  10
 52.440781
  20
 59.149429
  30
 0.0
   0
VERTEX
   8
0
   6
Continuous
  10
 50.719498
  20
 57.724369
  30
 0.0
   0
VERTEX
   8
0
   6
Continuous
  10
 50.605820
  20
 57.444138
  30
 0.0
   0
VERTEX
   8
0
   6
Continuous
  10
 50.839615
  20
 56.947350
  30
 0.0
   0
VERTEX
   8
0
   6
Continuous
  10
 53.554520
  20
 55.978939
  30
 0.0
   0
VERTEX
   8
0
   6
Continuous
  10
 59.666092
  20
 54.324947
  30
 0.0
   0
VERTEX
   8
0
   6
Continuous
  10
 62.728775
  20
 53.838818
  30
 0.0
   0
VERTEX
   8
0
   6
Continuous
  10
 62.960556
  20
 53.500828
  30
 0.0
   0
VERTEX
   8
0
   6
Continuous
  10
 62.734665
  20
 52.746658
  30
 0.0
   0
VERTEX
   8
0
   6
Continuous
  10
 60.668961
  20
 51.119068
  30
 0.0
   0
VERTEX
   8
0
   6
Continuous
  10
 57.032608
  20
 49.941467
  30
 0.0
   0
VERTEX
   8
0
   6
Continuous
  10
 56.791641
  20
 49.502529
  30
 0.0
   0
VERTEX
   8
0
   6
Continuous
  10
 57.308151
  20
 49.219467
  30
 0.0
   0
VERTEX
   8
0
   6
Continuous
  10
 59.345627
  20
 48.477089
  30
 0.0
   0
VERTEX
   8
0
   6
Continuous
  10
 62.730057
  20
 47.506168
  30
 0.0
   0
VERTEX
   8
0
   6
Continuous
  10
 68.916458
  20
 46.680908
  30
 0.0
   0
VERTEX
   8
0
   6
Continuous
  10
 68.990402
  20
 46.285698
  30
 0.0
   0
VERTEX
   8
0
   6
Continuous
  10
 67.860336
  20
 45.140137
  30
 0.0
   0
VERTEX
   8
0
   6
Continuous
  10
 66.576889
  20
 44.057110
  30
 0.0
   0
VERTEX
   8
0
   6
Continuous
  10
 64.463577
  20
 43.273838
  30
 0.0
   0
VERTEX
   8
0
   6
Continuous
  10
 63.603683
  20
 42.802757
  30
 0.0
   0
VERTEX
   8
0
   6
Continuous
  10
 63.685410
  20
 41.575520
  30
 0.0
   0
VERTEX
   8
0
   6
Continuous
  10
 59.701675
  20
 33.510170
  30
 0.0
   0
VERTEX
   8
0
   6
Continuous
  10
 59.148300
  20
 32.860428
  30
 0.0
   0
VERTEX
   8
0
   6
Continuous
  10
 58.450851
  20
 33.104828
  30
 0.0
   0
VERTEX
   8
0
   6
Continuous
  10
 57.315567
  20
 33.707668
  30
 0.0
   0
VERTEX
   8
0
   6
Continuous
  10
 53.544937
  20
 36.330959
  30
 0.0
   0
VERTEX
   8
0
   6
Continuous
  10
 50.024277
  20
 39.108898
  30
 0.0
   0
VERTEX
   8
0
   6
Continuous
  10
 47.116470
  20
 42.350578
  30
 0.0
   0
VERTEX
   8
0
   6
Continuous
  10
 46.559006
  20
 42.723579
  30
 0.0
   0
VERTEX
   8
0
   6
Continuous
  10
 46.046799
  20
 42.424980
  30
 0.0
   0
VERTEX
   8
0
   6
Continuous
  10
 45.772263
  20
 40.295078
  30
 0.0
   0
VERTEX
   8
0
   6
Continuous
  10
 45.958206
  20
 38.882397
  30
 0.0
   0
VERTEX
   8
0
   6
Continuous
  10
 45.995224
  20
 35.753147
  30
 0.0
   0
VERTEX
   8
0
   6
Continuous
  10
 45.906509
  20
 34.493809
  30
 0.0
   0
VERTEX
   8
0
   6
Continuous
  10
 46.255905
  20
 32.499001
  30
 0.0
   0
VERTEX
   8
0
   6
Continuous
  10
 45.934525
  20
 31.369558
  30
 0.0
   0
VERTEX
   8
0
   6
Continuous
  10
 46.300034
  20
 29.202168
  30
 0.0
   0
VERTEX
   8
0
   6
Continuous
  10
 45.999435
  20
 27.733959
  30
 0.0
   0
VERTEX
   8
0
   6
Continuous
  10
 46.283249
  20
 23.648869
  30
 0.0
   0
VERTEX
   8
0
   6
Continuous
  10
 46.213974
  20
 22.215088
  30
 0.0
   0
VERTEX
   8
0
   6
Continuous
  10
 46.507675
  20
 17.633629
  30
 0.0
   0
VERTEX
   8
0
   6
Continuous
  10
 46.267227
  20
 16.295429
  30
 0.0
   0
VERTEX
   8
0
   6
Continuous
  10
 46.607071
  20
 14.142319
  30
 0.0
   0
VERTEX
   8
0
   6
Continuous
  10
 46.336227
  20
 12.984689
  30
 0.0
   0
VERTEX
   8
0
   6
Continuous
  10
 46.669815
  20
 11.061209
  30
 0.0
   0
VERTEX
   8
0
   6
Continuous
  10
 46.540115
  20
 10.525327
  30
 0.0
   0
VERTEX
   8
0
   6
Continuous
  10
 46.317459
  20
 10.580762
  30
 0.0
   0
VERTEX
   8
0
   6
Continuous
  10
 44.461411
  20
 16.547848
  30
 0.0
   0
VERTEX
   8
0
   6
Continuous
  10
 43.390091
  20
 17.852268
  30
 0.0
   0
VERTEX
   8
0
   6
Continuous
  10
 37.999161
  20
 36.618729
  30
 0.0
   0
VERTEX
   8
0
   6
Continuous
  10
 36.053268
  20
 43.095860
  30
 0.0
   0
VERTEX
   8
0
   6
Continuous
  10
 34.623337
  20
 44.473248
  30
 0.0
   0
VERTEX
   8
0
   6
Continuous
  10
 34.139236
  20
 44.007420
  30
 0.0
   0
VERTEX
   8
0
   6
Continuous
  10
 33.624619
  20
 42.497219
  30
 0.0
   0
VERTEX
   8
0
   6
Continuous
  10
 32.308395
  20
 39.332310
  30
 0.0
   0
VERTEX
   8
0
   6
Continuous
  10
 31.596512
  20
 38.376167
  30
 0.0
   0
VERTEX
   8
0
   6
Continuous
  10
 31.227982
  20
 38.583267
  30
 0.0
   0
VERTEX
   8
0
   6
Continuous
  10
 30.261276
  20
 41.921139
  30
 0.0
   0
VERTEX
   8
0
   6
Continuous
  10
 30.458603
  20
 43.610657
  30
 0.0
   0
VERTEX
   8
0
   6
Continuous
  10
 27.741531
  20
 53.635529
  30
 0.0
   0
VERTEX
   8
0
   6
Continuous
  10
 27.867081
  20
 55.037899
  30
 0.0
   0
VERTEX
   8
0
   6
Continuous
  10
 25.159134
  20
 65.221275
  30
 0.0
   0
VERTEX
   8
0
   6
Continuous
  10
 25.388535
  20
 66.729248
  30
 0.0
   0
VERTEX
   8
0
   6
Continuous
  10
 22.695999
  20
 76.576851
  30
 0.0
   0
VERTEX
   8
0
   6
Continuous
  10
 22.600235
  20
 78.757187
  30
 0.0
   0
VERTEX
   8
0
   6
Continuous
  10
 21.346542
  20
 83.547485
  30
 0.0
   0
VERTEX
   8
0
   6
Continuous
  10
 21.280350
  20
 84.718147
  30
 0.0
   0
VERTEX
   8
0
   6
Continuous
  10
 21.085678
  20
 85.830185
  30
 0.0
   0
VERTEX
   8
0
   6
Continuous
  10
 20.303970
  20
 86.675850
  30
 0.0
   0
VERTEX
   8
0
   6
Continuous
  10
 18.871902
  20
 87.041252
  30
 0.0
   0
VERTEX
   8
0
   6
Continuous
  10
 17.311813
  20
 86.883926
  30
 0.0
   0
VERTEX
   8
0
   6
Continuous
  10
 16.427475
  20
 87.045029
  30
 0.0
   0
VERTEX
   8
0
   6
Continuous
  10
 16.223587
  20
 88.371681
  30
 0.0
   0
VERTEX
   8
0
   6
Continuous
  10
 16.434860
  20
 89.562431
  30
 0.0
   0
VERTEX
   8
0
   6
Continuous
  10
 16.274094
  20
 91.124580
  30
 0.0
   0
VERTEX
   8
0
   6
Continuous
  10
 16.333786
  20
 93.054550
  30
 0.0
   0
VERTEX
   8
0
   6
Continuous
  10
 16.171524
  20
 94.454056
  30
 0.0
   0
VERTEX
   8
0
   6
Continuous
  10
 16.194443
  20
 95.750092
  30
 0.0
   0
VERTEX
   8
0
   6
Continuous
  10
 15.953323
  20
 97.520828
  30
 0.0
   0
VERTEX
   8
0
   6
Continuous
  10
 16.136032
  20
 98.727692
  30
 0.0
   0
VERTEX
   8
0
   6
Continuous
  10
 15.881271
  20
 102.796532
  30
 0.0
   0
VERTEX
   8
0
   6
Continuous
  10
 15.776321
  20
 106.945328
  30
 0.0
   0
VERTEX
   8
0
   6
Continuous
  10
 15.982895
  20
 108.302429
  30
 0.0
   0
VERTEX
   8
0
   6
Continuous
  10
 15.682388
  20
 110.270027
  30
 0.0
   0
VERTEX
   8
0
   6
Continuous
  10
 15.801865
  20
 111.512131
  30
 0.0
   0
VERTEX
   8
0
   6
Continuous
  10
 15.482315
  20
 113.326630
  30
 0.0
   0
VERTEX
   8
0
   6
Continuous
  10
 15.803696
  20
 114.456131
  30
 0.0
   0
VERTEX
   8
0
   6
Continuous
  10
 15.366409
  20
 116.663628
  30
 0.0
   0
VERTEX
   8
0
   6
Continuous
  10
 15.687759
  20
 117.793030
  30
 0.0
   0
VERTEX
   8
0
   6
Continuous
  10
 15.436539
  20
 119.242126
  30
 0.0
   0
VERTEX
   8
0
   6
Continuous
  10
 15.410141
  20
 123.511330
  30
 0.0
   0
VERTEX
   8
0
   6
Continuous
  10
 15.186050
  20
 126.089928
  30
 0.0
   0
VERTEX
   8
0
   6
Continuous
  10
 15.287094
  20
 127.015129
  30
 0.0
   0
VERTEX
   8
0
   6
Continuous
  10
 15.164688
  20
 129.610229
  30
 0.0
   0
VERTEX
   8
0
   6
Continuous
  10
 15.145401
  20
 247.001831
  30
 0.0
   0
VERTEX
   8
0
   6
Continuous
  10
 33.987534
  20
 249.398438
  30
 0.0
   0
VERTEX
   8
0
   6
Continuous
  10
 34.875626
  20
 242.787140
  30
 0.0
   0
VERTEX
   8
0
   6
Continuous
  10
 35.977676
  20
 242.460236
  30
 0.0
   0
VERTEX
   8
0
   6
Continuous
  10
 40.248398
  20
 238.852417
  30
 0.0
   0
VERTEX
   8
0
   6
Continuous
  10
 41.495468
  20
 238.349335
  30
 0.0
   0
VERTEX
   8
0
   6
Continuous
  10
 43.860031
  20
 238.284241
  30
 0.0
   0
VERTEX
   8
0
   6
Continuous
  10
 50.311844
  20
 238.428223
  30
 0.0
   0
VERTEX
   8
0
   6
Continuous
  10
 61.788132
  20
 238.955231
  30
 0.0
   0
VERTEX
   8
0
   6
Continuous
  10
 63.450211
  20
 238.707123
  30
 0.0
   0
VERTEX
   8
0
   6
Continuous
  10
 64.905045
  20
 238.115021
  30
 0.0
   0
VERTEX
   8
0
   6
Continuous
  10
 70.012711
  20
 234.124329
  30
 0.0
   0
VERTEX
   8
0
   6
Continuous
  10
 72.655411
  20
 232.202942
  30
 0.0
   0
VERTEX
   8
0
   6
Continuous
  10
 73.405991
  20
 231.900238
  30
 0.0
   0
VERTEX
   8
0
   6
Continuous
  10
 73.540298
  20
 232.051941
  30
 0.0
   0
VERTEX
   8
0
   6
Continuous
  10
 73.425827
  20
 235.193817
  30
 0.0
   0
VERTEX
   8
0
   6
Continuous
  10
 73.663101
  20
 235.569641
  30
 0.0
   0
VERTEX
   8
0
   6
Continuous
  10
 74.051010
  20
 235.663025
  30
 0.0
   0
VERTEX
   8
0
   6
Continuous
  10
 75.180557
  20
 235.151642
  30
 0.0
   0
VERTEX
   8
0
   6
Continuous
  10
 76.568680
  20
 234.210938
  30
 0.0
   0
VERTEX
   8
0
   6
Continuous
  10
 77.018539
  20
 234.134521
  30
 0.0
   0
VERTEX
   8
0
   6
Continuous
  10
 77.444901
  20
 235.629822
  30
 0.0
   0
VERTEX
   8
0
   6
Continuous
  10
 78.758469
  20
 237.702332
  30
 0.0
   0
VERTEX
   8
0
   6
Continuous
  10
 79.180313
  20
 238.076324
  30
 0.0
   0
VERTEX
   8
0
   6
Continuous
  10
 79.659409
  20
 238.069031
  30
 0.0
   0
VERTEX
   8
0
   6
Continuous
  10
 80.734268
  20
 237.451324
  30
 0.0
   0
VERTEX
   8
0
   6
Continuous
  10
 82.263412
  20
 235.757233
  30
 0.0
   0
VERTEX
   8
0
   6
Continuous
  10
 83.223587
  20
 234.197235
  30
 0.0
   0
VERTEX
   8
0
   6
Continuous
  10
 83.541733
  20
 233.974335
  30
 0.0
   0
VERTEX
   8
0
   6
Continuous
  10
 83.947891
  20
 234.194427
  30
 0.0
   0
VERTEX
   8
0
   6
Continuous
  10
 84.924820
  20
 235.281830
  30
 0.0
   0
VERTEX
   8
0
   6
Continuous
  10
 86.369583
  20
 237.432343
  30
 0.0
   0
VERTEX
   8
0
   6
Continuous
  10
 86.871231
  20
 238.344727
  30
 0.0
   0
VERTEX
   8
0
   6
Continuous
  10
 87.692520
  20
 239.534729
  30
 0.0
   0
VERTEX
   8
0
   6
Continuous
  10
 88.265182
  20
 239.768738
  30
 0.0
   0
VERTEX
   8
0
   6
Continuous
  10
 88.705215
  20
 239.570221
  30
 0.0
   0
VERTEX
   8
0
   6
Continuous
  10
 89.488327
  20
 238.243317
  30
 0.0
   0
VERTEX
   8
0
   6
Continuous
  10
 90.893692
  20
 235.041138
  30
 0.0
   0
VERTEX
   8
0
   6
Continuous
  10
 91.267899
  20
 234.642731
  30
 0.0
   0
VERTEX
   8
0
   6
Continuous
  10
 92.240158
  20
 235.046417
  30
 0.0
   0
VERTEX
   8
0
   6
Continuous
  10
 95.197891
  20
 236.663635
  30
 0.0
   0
VERTEX
   8
0
   6
Continuous
  10
 96.606400
  20
 237.075043
  30
 0.0
   0
VERTEX
   8
0
   6
Continuous
  10
 97.275436
  20
 236.971832
  30
 0.0
   0
VERTEX
   8
0
   6
Continuous
  10
 97.656204
  20
 236.602325
  30
 0.0
   0
VERTEX
   8
0
   6
Continuous
  10
 98.004318
  20
 235.370514
  30
 0.0
   0
VERTEX
   8
0
   6
Continuous
  10
 98.073502
  20
 231.861115
  30
 0.0
   0
VERTEX
   8
0
   6
Continuous
  10
 98.245804
  20
 231.465027
  30
 0.0
   0
VERTEX
   8
0
   6
Continuous
  10
 98.497971
  20
 231.349640
  30
 0.0
   0
VERTEX
   8
0
   6
Continuous
  10
 100.079575
  20
 231.994629
  30
 0.0
   0
VERTEX
   8
0
   6
Continuous
  10
 102.767593
  20
 232.719025
  30
 0.0
   0
VERTEX
   8
0
   6
Continuous
  10
 102.985275
  20
 232.581818
  30
 0.0
   0
VERTEX
   8
0
   6
Continuous
  10
 102.557327
  20
 230.651825
  30
 0.0
   0
VERTEX
   8
0
   6
Continuous
  10
 102.670273
  20
 230.628632
  30
 0.0
   0
VERTEX
   8
0
   6
Continuous
  10
 106.168991
  20
 236.060730
  30
 0.0
   0
VERTEX
   8
0
   6
Continuous
  10
 107.471970
  20
 237.680420
  30
 0.0
   0
VERTEX
   8
0
   6
Continuous
  10
 109.003708
  20
 239.185638
  30
 0.0
   0
VERTEX
   8
0
   6
Continuous
  10
 110.136398
  20
 239.738342
  30
 0.0
   0
VERTEX
   8
0
   6
Continuous
  10
 110.828201
  20
 239.805023
  30
 0.0
   0
VERTEX
   8
0
   6
Continuous
  10
 113.185196
  20
 239.318115
  30
 0.0
   0
VERTEX
   8
0
   6
Continuous
  10
 119.187912
  20
 238.491730
  30
 0.0
   0
VERTEX
   8
0
   6
Continuous
  10
 121.801498
  20
 238.236816
  30
 0.0
   0
VERTEX
   8
0
   6
Continuous
  10
 124.394913
  20
 238.152130
  30
 0.0
   0
VERTEX
   8
0
   6
Continuous
  10
 126.518692
  20
 238.354218
  30
 0.0
   0
VERTEX
   8
0
   6
Continuous
  10
 128.093185
  20
 239.136932
  30
 0.0
   0
VERTEX
   8
0
   6
Continuous
  10
 130.290512
  20
 241.023438
  30
 0.0
   0
VERTEX
   8
0
   6
Continuous
  10
 132.408401
  20
 242.210815
  30
 0.0
   0
VERTEX
   8
0
   6
Continuous
  10
 134.380203
  20
 242.699921
  30
 0.0
   0
VERTEX
   8
0
   6
Continuous
  10
 135.830307
  20
 242.696136
  30
 0.0
   0
VERTEX
   8
0
   6
Continuous
  10
 136.496597
  20
 242.467224
  30
 0.0
   0
VERTEX
   8
0
   6
Continuous
  10
 136.871597
  20
 241.980225
  30
 0.0
   0
VERTEX
   8
0
   6
Continuous
  10
 137.043808
  20
 240.921631
  30
 0.0
   0
VERTEX
   8
0
   6
Continuous
  10
 136.058395
  20
 238.331116
  30
 0.0
   0
VERTEX
   8
0
   6
Continuous
  10
 133.734787
  20
 233.119843
  30
 0.0
   0
VERTEX
   8
0
   6
Continuous
  10
 133.154190
  20
 232.556519
  30
 0.0
   0
VERTEX
   8
0
   6
Continuous
  10
 131.471207
  20
 232.397217
  30
 0.0
   0
VERTEX
   8
0
   6
Continuous
  10
 121.872391
  20
 232.827637
  30
 0.0
   0
VERTEX
   8
0
   6
Continuous
  10
 117.798508
  20
 232.641113
  30
 0.0
   0
VERTEX
   8
0
   6
Continuous
  10
 115.481613
  20
 232.377228
  30
 0.0
   0
VERTEX
   8
0
   6
Continuous
  10
 113.332413
  20
 231.785339
  30
 0.0
   0
VERTEX
   8
0
   6
Continuous
  10
 111.999191
  20
 231.316437
  30
 0.0
   0
VERTEX
   8
0
   6
Continuous
  10
 110.331284
  20
 230.072235
  30
 0.0
   0
VERTEX
   8
0
   6
Continuous
  10
 107.926102
  20
 227.106628
  30
 0.0
   0
VERTEX
   8
0
   6
Continuous
  10
 107.909653
  20
 225.827637
  30
 0.0
   0
VERTEX
   8
0
   6
Continuous
  10
 107.087662
  20
 223.627625
  30
 0.0
   0
VERTEX
   8
0
   6
Continuous
  10
 106.738998
  20
 221.241333
  30
 0.0
   0
VERTEX
   8
0
   6
Continuous
  10
 106.824692
  20
 220.818115
  30
 0.0
   0
VERTEX
   8
0
   6
Continuous
  10
 109.957199
  20
 219.477814
  30
 0.0
   0
VERTEX
   8
0
   6
Continuous
  10
 110.689011
  20
 219.534637
  30
 0.0
   0
VERTEX
   8
0
   6
Continuous
  10
 115.263809
  20
 221.798431
  30
 0.0
   0
VERTEX
   8
0
   6
Continuous
  10
 117.061203
  20
 222.388519
  30
 0.0
   0
VERTEX
   8
0
   6
Continuous
  10
 117.908188
  20
 222.382629
  30
 0.0
   0
VERTEX
   8
0
   6
Continuous
  10
 125.242996
  20
 217.478027
  30
 0.0
   0
VERTEX
   8
0
   6
Continuous
  10
 128.380997
  20
 215.044739
  30
 0.0
   0
VERTEX
   8
0
   6
Continuous
  10
 132.655594
  20
 212.091431
  30
 0.0
   0
VERTEX
   8
0
   6
Continuous
  10
 136.361008
  20
 209.806335
  30
 0.0
   0
VERTEX
   8
0
   6
Continuous
  10
 139.233414
  20
 208.276428
  30
 0.0
   0
VERTEX
   8
0
   6
Continuous
  10
 141.669907
  20
 207.592224
  30
 0.0
   0
VERTEX
   8
0
   6
Continuous
  10
 143.268204
  20
 207.657227
  30
 0.0
   0
VERTEX
   8
0
   6
Continuous
  10
 146.761612
  20
 208.892029
  30
 0.0
   0
VERTEX
   8
0
   6
Continuous
  10
 148.215591
  20
 208.930023
  30
 0.0
   0
VERTEX
   8
0
   6
Continuous
  10
 149.621109
  20
 208.654022
  30
 0.0
   0
VERTEX
   8
0
   6
Continuous
  10
 150.513290
  20
 208.127716
  30
 0.0
   0
VERTEX
   8
0
   6
Continuous
  10
 150.778000
  20
 207.632721
  30
 0.0
   0
VERTEX
   8
0
   6
Continuous
  10
 150.733810
  20
 206.943634
  30
 0.0
   0
VERTEX
   8
0
   6
Continuous
  10
 150.228409
  20
 205.902313
  30
 0.0
   0
VERTEX
   8
0
   6
Continuous
  10
 147.742508
  20
 202.831940
  30
 0.0
   0
VERTEX
   8
0
   6
Continuous
  10
 145.482101
  20
 200.611816
  30
 0.0
   0
VERTEX
   8
0
   6
Continuous
  10
 144.358292
  20
 199.874115
  30
 0.0
   0
VERTEX
   8
0
   6
Continuous
  10
 142.988907
  20
 199.522614
  30
 0.0
   0
VERTEX
   8
0
   6
Continuous
  10
 141.945816
  20
 199.665222
  30
 0.0
   0
VERTEX
   8
0
   6
Continuous
  10
 140.675095
  20
 200.161438
  30
 0.0
   0
VERTEX
   8
0
   6
Continuous
  10
 138.408890
  20
 201.623230
  30
 0.0
   0
VERTEX
   8
0
   6
Continuous
  10
 135.685287
  20
 203.738831
  30
 0.0
   0
VERTEX
   8
0
   6
Continuous
  10
 131.518112
  20
 206.465515
  30
 0.0
   0
VERTEX
   8
0
   6
Continuous
  10
 117.854996
  20
 214.791321
  30
 0.0
   0
VERTEX
   8
0
   6
Continuous
  10
 116.697403
  20
 215.160034
  30
 0.0
   0
VERTEX
   8
0
   6
Continuous
  10
 115.940201
  20
 214.930542
  30
 0.0
   0
VERTEX
   8
0
   6
Continuous
  10
 112.996292
  20
 213.178741
  30
 0.0
   0
VERTEX
   8
0
   6
Continuous
  10
 108.746536
  20
 210.192841
  30
 0.0
   0
VERTEX
   8
0
   6
Continuous
  10
 108.672165
  20
 209.942139
  30
 0.0
   0
VERTEX
   8
0
   6
Continuous
  10
 109.956711
  20
 209.236237
  30
 0.0
   0
VERTEX
   8
0
   6
Continuous
  10
 112.549484
  20
 208.552124
  30
 0.0
   0
VERTEX
   8
0
   6
Continuous
  10
 112.674301
  20
 208.220520
  30
 0.0
   0
VERTEX
   8
0
   6
Continuous
  10
 112.197189
  20
 207.446838
  30
 0.0
   0
VERTEX
   8
0
   6
Continuous
  10
 110.753006
  20
 205.798218
  30
 0.0
   0
VERTEX
   8
0
   6
Continuous
  10
 109.658401
  20
 204.083435
  30
 0.0
   0
VERTEX
   8
0
   6
Continuous
  10
 109.131302
  20
 203.020416
  30
 0.0
   0
VERTEX
   8
0
   6
Continuous
  10
 109.103287
  20
 202.569427
  30
 0.0
   0
VERTEX
   8
0
   6
Continuous
  10
 110.581985
  20
 201.290314
  30
 0.0
   0
VERTEX
   8
0
   6
Continuous
  10
 111.164902
  20
 201.259827
  30
 0.0
   0
VERTEX
   8
0
   6
Continuous
  10
 114.188889
  20
 202.046326
  30
 0.0
   0
VERTEX
   8
0
   6
Continuous
  10
 115.758591
  20
 202.145721
  30
 0.0
   0
VERTEX
   8
0
   6
Continuous
  10
 121.186386
  20
 204.182037
  30
 0.0
   0
VERTEX
   8
0
   6
Continuous
  10
 123.021805
  20
 204.679230
  30
 0.0
   0
VERTEX
   8
0
   6
Continuous
  10
 124.137985
  20
 204.738922
  30
 0.0
   0
VERTEX
   8
0
   6
Continuous
  10
 125.333786
  20
 204.388519
  30
 0.0
   0
VERTEX
   8
0
   6
Continuous
  10
 126.462387
  20
 203.581116
  30
 0.0
   0
VERTEX
   8
0
   6
Continuous
  10
 129.231186
  20
 200.108917
  30
 0.0
   0
VERTEX
   8
0
   6
Continuous
  10
 135.994400
  20
 189.314117
  30
 0.0
   0
VERTEX
   8
0
   6
Continuous
  10
 139.972702
  20
 182.783630
  30
 0.0
   0
VERTEX
   8
0
   6
Continuous
  10
 141.996994
  20
 179.270935
  30
 0.0
   0
VERTEX
   8
0
   6
Continuous
  10
 142.866196
  20
 178.090240
  30
 0.0
   0
VERTEX
   8
0
   6
Continuous
  10
 143.683304
  20
 177.435028
  30
 0.0
   0
VERTEX
   8
0
   6
Continuous
  10
 148.017807
  20
 176.017639
  30
 0.0
   0
VERTEX
   8
0
   6
Continuous
  10
 149.826706
  20
 174.800415
  30
 0.0
   0
VERTEX
   8
0
   6
Continuous
  10
 150.599716
  20
 173.905914
  30
 0.0
   0
VERTEX
   8
0
   6
Continuous
  10
 150.648514
  20
 173.348541
  30
 0.0
   0
VERTEX
   8
0
   6
Continuous
  10
 150.498611
  20
 172.738037
  30
 0.0
   0
VERTEX
   8
0
   6
Continuous
  10
 149.774002
  20
 172.056122
  30
 0.0
   0
VERTEX
   8
0
   6
Continuous
  10
 148.977798
  20
 171.722137
  30
 0.0
   0
VERTEX
   8
0
   6
Continuous
  10
 147.071304
  20
 171.145142
  30
 0.0
   0
VERTEX
   8
0
   6
Continuous
  10
 145.035995
  20
 170.934021
  30
 0.0
   0
VERTEX
   8
0
   6
Continuous
  10
 142.848190
  20
 171.223022
  30
 0.0
   0
VERTEX
   8
0
   6
Continuous
  10
 141.534195
  20
 171.927826
  30
 0.0
   0
VERTEX
   8
0
   6
Continuous
  10
 140.423203
  20
 173.105927
  30
 0.0
   0
VERTEX
   8
0
   6
Continuous
  10
 138.744705
  20
 175.569641
  30
 0.0
   0
VERTEX
   8
0
   6
Continuous
  10
 134.371902
  20
 183.066223
  30
 0.0
   0
VERTEX
   8
0
   6
Continuous
  10
 130.954208
  20
 187.685242
  30
 0.0
   0
VERTEX
   8
0
   6
Continuous
  10
 128.840714
  20
 190.226440
  30
 0.0
   0
VERTEX
   8
0
   6
Continuous
  10
 125.553513
  20
 194.453430
  30
 0.0
   0
VERTEX
   8
0
   6
Continuous
  10
 124.067001
  20
 196.220215
  30
 0.0
   0
VERTEX
   8
0
   6
Continuous
  10
 122.960098
  20
 196.990326
  30
 0.0
   0
VERTEX
   8
0
   6
Continuous
  10
 122.072311
  20
 197.340027
  30
 0.0
   0
VERTEX
   8
0
   6
Continuous
  10
 119.993301
  20
 197.672729
  30
 0.0
   0
VERTEX
   8
0
   6
Continuous
  10
 117.398605
  20
 197.345428
  30
 0.0
   0
VERTEX
   8
0
   6
Continuous
  10
 115.158493
  20
 196.629425
  30
 0.0
   0
VERTEX
   8
0
   6
Continuous
  10
 110.056686
  20
 195.208130
  30
 0.0
   0
VERTEX
   8
0
   6
Continuous
  10
 109.816208
  20
 194.962524
  30
 0.0
   0
VERTEX
   8
0
   6
Continuous
  10
 109.917404
  20
 194.605835
  30
 0.0
   0
VERTEX
   8
0
   6
Continuous
  10
 112.022598
  20
 191.808228
  30
 0.0
   0
VERTEX
   8
0
   6
Continuous
  10
 112.087387
  20
 191.311127
  30
 0.0
   0
VERTEX
   8
0
   6
Continuous
  10
 111.799210
  20
 191.017517
  30
 0.0
   0
VERTEX
   8
0
   6
Continuous
  10
 110.391403
  20
 190.706421
  30
 0.0
   0
VERTEX
   8
0
   6
Continuous
  10
 108.762497
  20
 190.216614
  30
 0.0
   0
VERTEX
   8
0
   6
Continuous
  10
 107.337601
  20
 189.304016
  30
 0.0
   0
VERTEX
   8
0
   6
Continuous
  10
 107.191818
  20
 188.980133
  30
 0.0
   0
VERTEX
   8
0
   6
Continuous
  10
 107.586105
  20
 188.322235
  30
 0.0
   0
VERTEX
   8
0
   6
Continuous
  10
 108.517685
  20
 187.568237
  30
 0.0
   0
VERTEX
   8
0
   6
Continuous
  10
 109.128189
  20
 187.699127
  30
 0.0
   0
VERTEX
   8
0
   6
Continuous
  10
 110.469803
  20
 188.411224
  30
 0.0
   0
VERTEX
   8
0
   6
Continuous
  10
 113.690994
  20
 189.848114
  30
 0.0
   0
VERTEX
   8
0
   6
Continuous
  10
 116.717606
  20
 190.788635
  30
 0.0
   0
VERTEX
   8
0
   6
Continuous
  10
 117.965714
  20
 190.938934
  30
 0.0
   0
VERTEX
   8
0
   6
Continuous
  10
 118.736588
  20
 190.819641
  30
 0.0
   0
VERTEX
   8
0
   6
Continuous
  10
 119.636490
  20
 190.134216
  30
 0.0
   0
VERTEX
   8
0
   6
Continuous
  10
 121.065506
  20
 188.850342
  30
 0.0
   0
VERTEX
   8
0
   6
Continuous
  10
 122.513992
  20
 187.018616
  30
 0.0
   0
VERTEX
   8
0
   6
Continuous
  10
 126.300400
  20
 180.570343
  30
 0.0
   0
VERTEX
   8
0
   6
Continuous
  10
 130.265305
  20
 173.197723
  30
 0.0
   0
VERTEX
   8
0
   6
Continuous
  10
 131.625595
  20
 170.191620
  30
 0.0
   0
VERTEX
   8
0
   6
Continuous
  10
 132.207901
  20
 169.378937
  30
 0.0
   0
VERTEX
   8
0
   6
Continuous
  10
 132.910690
  20
 167.689728
  30
 0.0
   0
VERTEX
   8
0
   6
Continuous
  10
 133.335892
  20
 167.460327
  30
 0.0
   0
VERTEX
   8
0
   6
Continuous
  10
 133.977310
  20
 166.827332
  30
 0.0
   0
VERTEX
   8
0
   6
Continuous
  10
 134.656906
  20
 165.940521
  30
 0.0
   0
VERTEX
   8
0
   6
Continuous
  10
 135.159409
  20
 165.596436
  30
 0.0
   0
VERTEX
   8
0
   6
Continuous
  10
 136.140701
  20
 165.190643
  30
 0.0
   0
VERTEX
   8
0
   6
Continuous
  10
 136.894608
  20
 164.427643
  30
 0.0
   0
VERTEX
   8
0
   6
Continuous
  10
 138.762009
  20
 163.514923
  30
 0.0
   0
VERTEX
   8
0
   6
Continuous
  10
 139.875015
  20
 162.340424
  30
 0.0
   0
VERTEX
   8
0
   6
Continuous
  10
 140.463791
  20
 160.927124
  30
 0.0
   0
VERTEX
   8
0
   6
Continuous
  10
 140.416306
  20
 160.377930
  30
 0.0
   0
VERTEX
   8
0
   6
Continuous
  10
 140.028397
  20
 160.016022
  30
 0.0
   0
VERTEX
   8
0
   6
Continuous
  10
 139.046494
  20
 159.689331
  30
 0.0
   0
VERTEX
   8
0
   6
Continuous
  10
 137.088303
  20
 159.842224
  30
 0.0
   0
VERTEX
   8
0
   6
Continuous
  10
 135.596909
  20
 160.167114
  30
 0.0
   0
VERTEX
   8
0
   6
Continuous
  10
 131.895706
  20
 161.308014
  30
 0.0
   0
VERTEX
   8
0
   6
Continuous
  10
 131.082504
  20
 161.687927
  30
 0.0
   0
VERTEX
   8
0
   6
Continuous
  10
 130.167801
  20
 162.585724
  30
 0.0
   0
VERTEX
   8
0
   6
Continuous
  10
 128.604599
  20
 165.450714
  30
 0.0
   0
VERTEX
   8
0
   6
Continuous
  10
 126.349899
  20
 170.618835
  30
 0.0
   0
VERTEX
   8
0
   6
Continuous
  10
 125.012405
  20
 173.459015
  30
 0.0
   0
VERTEX
   8
0
   6
Continuous
  10
 123.854599
  20
 175.376617
  30
 0.0
   0
VERTEX
   8
0
   6
Continuous
  10
 122.306503
  20
 177.653137
  30
 0.0
   0
VERTEX
   8
0
   6
Continuous
  10
 120.392410
  20
 180.124542
  30
 0.0
   0
VERTEX
   8
0
   6
Continuous
  10
 118.401108
  20
 182.054840
  30
 0.0
   0
VERTEX
   8
0
   6
Continuous
  10
 116.321701
  20
 183.620819
  30
 0.0
   0
VERTEX
   8
0
   6
Continuous
  10
 115.512009
  20
 183.888733
  30
 0.0
   0
VERTEX
   8
0
   6
Continuous
  10
 114.116287
  20
 183.794617
  30
 0.0
   0
VERTEX
   8
0
   6
Continuous
  10
 107.453415
  20
 180.704132
  30
 0.0
   0
VERTEX
   8
0
   6
Continuous
  10
 107.186752
  20
 180.098816
  30
 0.0
   0
VERTEX
   8
0
   6
Continuous
  10
 105.790878
  20
 179.432922
  30
 0.0
   0
VERTEX
   8
0
   6
Continuous
  10
 103.902359
  20
 178.920013
  30
 0.0
   0
VERTEX
   8
0
   6
Continuous
  10
 103.184494
  20
 178.581116
  30
 0.0
   0
VERTEX
   8
0
   6
Continuous
  10
 103.034409
  20
 178.251923
  30
 0.0
   0
VERTEX
   8
0
   6
Continuous
  10
 104.446915
  20
 174.749420
  30
 0.0
   0
VERTEX
   8
0
   6
Continuous
  10
 104.409164
  20
 174.247742
  30
 0.0
   0
VERTEX
   8
0
   6
Continuous
  10
 103.954178
  20
 173.992828
  30
 0.0
   0
VERTEX
   8
0
   6
Continuous
  10
 102.365677
  20
 173.763214
  30
 0.0
   0
VERTEX
   8
0
   6
Continuous
  10
 99.711563
  20
 173.814026
  30
 0.0
   0
VERTEX
   8
0
   6
Continuous
  10
 99.138626
  20
 174.630737
  30
 0.0
   0
VERTEX
   8
0
   6
Continuous
  10
 96.586044
  20
 176.336517
  30
 0.0
   0
VERTEX
   8
0
   6
Continuous
  10
 95.791367
  20
 176.671936
  30
 0.0
   0
VERTEX
   8
0
   6
Continuous
  10
 95.550980
  20
 176.883728
  30
 0.0
   0
VERTEX
   8
0
   6
Continuous
  10
 95.829514
  20
 178.842316
  30
 0.0
   0
VERTEX
   8
0
   6
Continuous
  10
 95.395432
  20
 181.954437
  30
 0.0
   0
VERTEX
   8
0
   6
Continuous
  10
 94.060715
  20
 184.721039
  30
 0.0
   0
VERTEX
   8
0
   6
Continuous
  10
 93.746262
  20
 185.035339
  30
 0.0
   0
VERTEX
   8
0
   6
Continuous
  10
 93.457901
  20
 184.958130
  30
 0.0
   0
VERTEX
   8
0
   6
Continuous
  10
 92.963974
  20
 183.064240
  30
 0.0
   0
VERTEX
   8
0
   6
Continuous
  10
 92.356003
  20
 182.350128
  30
 0.0
   0
VERTEX
   8
0
   6
Continuous
  10
 91.136124
  20
 181.988037
  30
 0.0
   0
VERTEX
   8
0
   6
Continuous
  10
 89.692978
  20
 182.063019
  30
 0.0
   0
VERTEX
   8
0
   6
Continuous
  10
 88.097824
  20
 182.825439
  30
 0.0
   0
VERTEX
   8
0
   6
Continuous
  10
 87.608871
  20
 183.420227
  30
 0.0
   0
VERTEX
   8
0
   6
Continuous
  10
 87.298630
  20
 184.777832
  30
 0.0
   0
VERTEX
   8
0
   6
Continuous
  10
 87.174240
  20
 184.808136
  30
 0.0
   0
VERTEX
   8
0
   6
Continuous
  10
 86.445389
  20
 183.507629
  30
 0.0
   0
VERTEX
   8
0
   6
Continuous
  10
 86.231216
  20
 182.147339
  30
 0.0
   0
VERTEX
   8
0
   6
Continuous
  10
 86.292770
  20
 179.472717
  30
 0.0
   0
VERTEX
   8
0
   6
Continuous
  10
 86.761185
  20
 178.088928
  30
 0.0
   0
VERTEX
   8
0
   6
Continuous
  10
 87.446396
  20
 177.004120
  30
 0.0
   0
VERTEX
   8
0
   6
Continuous
  10
 89.071121
  20
 175.301514
  30
 0.0
   0
VERTEX
   8
0
   6
Continuous
  10
 89.839127
  20
 174.732330
  30
 0.0
   0
VERTEX
   8
0
   6
Continuous
  10
 91.219101
  20
 174.219238
  30
 0.0
   0
VERTEX
   8
0
   6
Continuous
  10
 92.713638
  20
 174.112122
  30
 0.0
   0
VERTEX
   8
0
   6
Continuous
  10
 93.511215
  20
 174.401520
  30
 0.0
   0
VERTEX
   8
0
   6
Continuous
  10
 94.715836
  20
 175.449127
  30
 0.0
   0
VERTEX
   8
0
   6
Continuous
  10
 95.168442
  20
 175.586426
  30
 0.0
   0
VERTEX
   8
0
   6
Continuous
  10
 96.766251
  20
 175.074036
  30
 0.0
   0
VERTEX
   8
0
   6
Continuous
  10
 99.840256
  20
 173.350922
  30
 0.0
   0
VERTEX
   8
0
   6
Continuous
  10
 100.062698
  20
 172.913544
  30
 0.0
   0
VERTEX
   8
0
   6
Continuous
  10
 100.377365
  20
 170.561920
  30
 0.0
   0
VERTEX
   8
0
   6
Continuous
  10
 100.778152
  20
 169.008423
  30
 0.0
   0
VERTEX
   8
0
   6
Continuous
  10
 100.651932
  20
 168.638336
  30
 0.0
   0
VERTEX
   8
0
   6
Continuous
  10
 100.233902
  20
 168.502930
  30
 0.0
   0
VERTEX
   8
0
   6
Continuous
  10
 97.675491
  20
 169.250732
  30
 0.0
   0
VERTEX
   8
0
   6
Continuous
  10
 96.124283
  20
 169.207825
  30
 0.0
   0
VERTEX
   8
0
   6
Continuous
  10
 95.813705
  20
 168.932526
  30
 0.0
   0
VERTEX
   8
0
   6
Continuous
  10
 95.804062
  20
 166.427643
  30
 0.0
   0
VERTEX
   8
0
   6
Continuous
  10
 95.588394
  20
 165.947327
  30
 0.0
   0
VERTEX
   8
0
   6
Continuous
  10
 95.529922
  20
 163.727020
  30
 0.0
   0
VERTEX
   8
0
   6
Continuous
  10
 95.031784
  20
 162.435425
  30
 0.0
   0
VERTEX
   8
0
   6
Continuous
  10
 93.932144
  20
 160.936615
  30
 0.0
   0
VERTEX
   8
0
   6
Continuous
  10
 92.562393
  20
 159.730530
  30
 0.0
   0
VERTEX
   8
0
   6
Continuous
  10
 91.074356
  20
 158.990936
  30
 0.0
   0
VERTEX
   8
0
   6
Continuous
  10
 88.668289
  20
 158.400818
  30
 0.0
   0
VERTEX
   8
0
   6
Continuous
  10
 86.451523
  20
 158.444336
  30
 0.0
   0
VERTEX
   8
0
   6
Continuous
  10
 86.026627
  20
 158.630432
  30
 0.0
   0
VERTEX
   8
0
   6
Continuous
  10
 85.980362
  20
 158.989716
  30
 0.0
   0
VERTEX
   8
0
   6
Continuous
  10
 86.569931
  20
 159.688232
  30
 0.0
   0
VERTEX
   8
0
   6
Continuous
  10
 87.734695
  20
 161.528015
  30
 0.0
   0
VERTEX
   8
0
   6
Continuous
  10
 88.061539
  20
 163.062439
  30
 0.0
   0
VERTEX
   8
0
   6
Continuous
  10
 87.862717
  20
 165.076324
  30
 0.0
   0
VERTEX
   8
0
   6
Continuous
  10
 87.623215
  20
 165.619141
  30
 0.0
   0
VERTEX
   8
0
   6
Continuous
  10
 87.384720
  20
 165.706421
  30
 0.0
   0
VERTEX
   8
0
   6
Continuous
  10
 85.709885
  20
 162.647339
  30
 0.0
   0
VERTEX
   8
0
   6
Continuous
  10
 85.213181
  20
 162.554626
  30
 0.0
   0
VERTEX
   8
0
   6
Continuous
  10
 84.727798
  20
 162.947723
  30
 0.0
   0
VERTEX
   8
0
   6
Continuous
  10
 82.994308
  20
 165.312225
  30
 0.0
   0
VERTEX
   8
0
   6
Continuous
  10
 82.499496
  20
 166.137817
  30
 0.0
   0
VERTEX
   8
0
   6
Continuous
  10
 82.230270
  20
 166.406616
  30
 0.0
   0
VERTEX
   8
0
   6
Continuous
  10
 81.102341
  20
 164.603119
  30
 0.0
   0
VERTEX
   8
0
   6
Continuous
  10
 80.531082
  20
 164.126038
  30
 0.0
   0
VERTEX
   8
0
   6
Continuous
  10
 80.161789
  20
 164.182922
  30
 0.0
   0
VERTEX
   8
0
   6
Continuous
  10
 79.800125
  20
 164.582825
  30
 0.0
   0
VERTEX
   8
0
   6
Continuous
  10
 79.088333
  20
 167.042633
  30
 0.0
   0
VERTEX
   8
0
   6
Continuous
  10
 78.858414
  20
 167.142731
  30
 0.0
   0
VERTEX
   8
0
   6
Continuous
  10
 78.351242
  20
 166.820831
  30
 0.0
   0
VERTEX
   8
0
   6
Continuous
  10
 77.080124
  20
 165.316437
  30
 0.0
   0
VERTEX
   8
0
   6
Continuous
  10
 76.651230
  20
 165.194733
  30
 0.0
   0
VERTEX
   8
0
   6
Continuous
  10
 75.821365
  20
 165.951630
  30
 0.0
   0
VERTEX
   8
0
   6
Continuous
  10
 75.470413
  20
 165.888336
  30
 0.0
   0
VERTEX
   8
0
   6
Continuous
  10
 74.434769
  20
 164.729736
  30
 0.0
   0
VERTEX
   8
0
   6
Continuous
  10
 73.956406
  20
 163.541321
  30
 0.0
   0
VERTEX
   8
0
   6
Continuous
  10
 73.728836
  20
 161.822235
  30
 0.0
   0
VERTEX
   8
0
   6
Continuous
  10
 74.064316
  20
 160.129425
  30
 0.0
   0
VERTEX
   8
0
   6
Continuous
  10
 74.848526
  20
 158.599243
  30
 0.0
   0
VERTEX
   8
0
   6
Continuous
  10
 75.650986
  20
 157.896118
  30
 0.0
   0
VERTEX
   8
0
   6
Continuous
  10
 75.790756
  20
 157.592041
  30
 0.0
   0
VERTEX
   8
0
   6
Continuous
  10
 75.617569
  20
 157.385040
  30
 0.0
   0
VERTEX
   8
0
   6
Continuous
  10
 74.446182
  20
 157.088318
  30
 0.0
   0
VERTEX
   8
0
   6
Continuous
  10
 73.394028
  20
 157.157837
  30
 0.0
   0
VERTEX
   8
0
   6
Continuous
  10
 71.768875
  20
 157.854523
  30
 0.0
   0
VERTEX
   8
0
   6
Continuous
  10
 70.218674
  20
 159.103241
  30
 0.0
   0
VERTEX
   8
0
   6
Continuous
  10
 68.774643
  20
 160.532837
  30
 0.0
   0
VERTEX
   8
0
   6
Continuous
  10
 68.029739
  20
 162.052734
  30
 0.0
   0
VERTEX
   8
0
   6
Continuous
  10
 67.691452
  20
 163.192139
  30
 0.0
   0
VERTEX
   8
0
   6
Continuous
  10
 67.246933
  20
 166.133514
  30
 0.0
   0
VERTEX
   8
0
   6
Continuous
  10
 67.410477
  20
 168.030823
  30
 0.0
   0
VERTEX
   8
0
   6
Continuous
  10
 68.185898
  20
 169.963715
  30
 0.0
   0
VERTEX
   8
0
   6
Continuous
  10
 67.996658
  20
 170.600739
  30
 0.0
   0
VERTEX
   8
0
   6
Continuous
  10
 68.009384
  20
 173.843323
  30
 0.0
   0
VERTEX
   8
0
   6
Continuous
  10
 67.776718
  20
 174.195435
  30
 0.0
   0
VERTEX
   8
0
   6
Continuous
  10
 65.967575
  20
 174.795135
  30
 0.0
   0
VERTEX
   8
0
   6
Continuous
  10
 64.851242
  20
 175.328918
  30
 0.0
   0
VERTEX
   8
0
   6
Continuous
  10
 64.713150
  20
 175.674316
  30
 0.0
   0
VERTEX
   8
0
   6
Continuous
  10
 64.993637
  20
 176.475220
  30
 0.0
   0
VERTEX
   8
0
   6
Continuous
  10
 65.472244
  20
 177.143341
  30
 0.0
   0
VERTEX
   8
0
   6
Continuous
  10
 66.547623
  20
 178.290924
  30
 0.0
   0
VERTEX
   8
0
   6
Continuous
  10
 70.505722
  20
 179.892517
  30
 0.0
   0
VERTEX
   8
0
   6
Continuous
  10
 70.725510
  20
 179.796326
  30
 0.0
   0
VERTEX
   8
0
   6
Continuous
  10
 71.239517
  20
 178.457733
  30
 0.0
   0
VERTEX
   8
0
   6
Continuous
  10
 71.997726
  20
 176.882843
  30
 0.0
   0
VERTEX
   8
0
   6
Continuous
  10
 73.342758
  20
 175.284515
  30
 0.0
   0
VERTEX
   8
0
   6
Continuous
  10
 74.220169
  20
 174.732239
  30
 0.0
   0
VERTEX
   8
0
   6
Continuous
  10
 75.165695
  20
 174.310516
  30
 0.0
   0
VERTEX
   8
0
   6
Continuous
  10
 76.247025
  20
 174.089722
  30
 0.0
   0
VERTEX
   8
0
   6
Continuous
  10
 77.542862
  20
 174.050232
  30
 0.0
   0
VERTEX
   8
0
   6
Continuous
  10
 78.882797
  20
 174.349518
  30
 0.0
   0
VERTEX
   8
0
   6
Continuous
  10
 80.166245
  20
 174.996735
  30
 0.0
   0
VERTEX
   8
0
   6
Continuous
  10
 81.116898
  20
 175.832428
  30
 0.0
   0
VERTEX
   8
0
   6
Continuous
  10
 82.120407
  20
 177.300934
  30
 0.0
   0
VERTEX
   8
0
   6
Continuous
  10
 82.598312
  20
 178.606323
  30
 0.0
   0
VERTEX
   8
0
   6
Continuous
  10
 82.801804
  20
 180.099518
  30
 0.0
   0
VERTEX
   8
0
   6
Continuous
  10
 82.751144
  20
 181.306641
  30
 0.0
   0
VERTEX
   8
0
   6
Continuous
  10
 82.534531
  20
 181.496124
  30
 0.0
   0
VERTEX
   8
0
   6
Continuous
  10
 81.920609
  20
 181.076141
  30
 0.0
   0
VERTEX
   8
0
   6
Continuous
  10
 81.064743
  20
 180.684418
  30
 0.0
   0
VERTEX
   8
0
   6
Continuous
  10
 80.257919
  20
 180.724426
  30
 0.0
   0
VERTEX
   8
0
   6
Continuous
  10
 78.547653
  20
 181.827637
  30
 0.0
   0
VERTEX
   8
0
   6
Continuous
  10
 77.622574
  20
 183.195343
  30
 0.0
   0
VERTEX
   8
0
   6
Continuous
  10
 77.229385
  20
 184.295135
  30
 0.0
   0
VERTEX
   8
0
   6
Continuous
  10
 77.302963
  20
 185.495941
  30
 0.0
   0
VERTEX
   8
0
   6
Continuous
  10
 77.837875
  20
 186.531616
  30
 0.0
   0
VERTEX
   8
0
   6
Continuous
  10
 78.520554
  20
 187.174042
  30
 0.0
   0
VERTEX
   8
0
   6
Continuous
  10
 79.664688
  20
 187.496124
  30
 0.0
   0
VERTEX
   8
0
   6
Continuous
  10
 80.570480
  20
 187.401825
  30
 0.0
   0
VERTEX
   8
0
   6
Continuous
  10
 81.888412
  20
 186.797516
  30
 0.0
   0
VERTEX
   8
0
   6
Continuous
  10
 81.895676
  20
 187.230530
  30
 0.0
   0
VERTEX
   8
0
   6
Continuous
  10
 80.740189
  20
 189.739319
  30
 0.0
   0
VERTEX
   8
0
   6
Continuous
  10
 79.504288
  20
 191.523834
  30
 0.0
   0
VERTEX
   8
0
   6
Continuous
  10
 77.409134
  20
 193.891632
  30
 0.0
   0
VERTEX
   8
0
   6
Continuous
  10
 75.692734
  20
 194.823425
  30
 0.0
   0
VERTEX
   8
0
   6
Continuous
  10
 74.952225
  20
 195.042633
  30
 0.0
   0
VERTEX
   8
0
   6
Continuous
  10
 73.817917
  20
 194.967621
  30
 0.0
   0
VERTEX
   8
0
   6
Continuous
  10
 72.432480
  20
 194.355225
  30
 0.0
   0
VERTEX
   8
0
   6
Continuous
  10
 71.539566
  20
 193.585022
  30
 0.0
   0
VERTEX
   8
0
   6
Continuous
  10
 70.814499
  20
 192.594940
  30
 0.0
   0
VERTEX
   8
0
   6
Continuous
  10
 70.232590
  20
 191.340240
  30
 0.0
   0
VERTEX
   8
0
   6
Continuous
  10
 69.880295
  20
 189.572540
  30
 0.0
   0
VERTEX
   8
0
   6
Continuous
  10
 69.838760
  20
 187.855133
  30
 0.0
   0
VERTEX
   8
0
   6
Continuous
  10
 69.986038
  20
 187.214813
  30
 0.0
   0
VERTEX
   8
0
   6
Continuous
  10
 69.637222
  20
 186.473541
  30
 0.0
   0
VERTEX
   8
0
   6
Continuous
  10
 69.884140
  20
 182.663116
  30
 0.0
   0
VERTEX
   8
0
   6
Continuous
  10
 70.320877
  20
 181.281128
  30
 0.0
   0
VERTEX
   8
0
   6
Continuous
  10
 70.307388
  20
 180.739532
  30
 0.0
   0
VERTEX
   8
0
   6
Continuous
  10
 70.005051
  20
 180.445129
  30
 0.0
   0
VERTEX
   8
0
   6
Continuous
  10
 68.077957
  20
 179.629425
  30
 0.0
   0
VERTEX
   8
0
   6
Continuous
  10
 66.918137
  20
 179.478333
  30
 0.0
   0
VERTEX
   8
0
   6
Continuous
  10
 66.097092
  20
 179.230835
  30
 0.0
   0
VERTEX
   8
0
   6
Continuous
  10
 65.275803
  20
 179.145844
  30
 0.0
   0
VERTEX
   8
0
   6
Continuous
  10
 64.107162
  20
 179.611237
  30
 0.0
   0
VERTEX
   8
0
   6
Continuous
  10
 63.068253
  20
 180.297821
  30
 0.0
   0
VERTEX
   8
0
   6
Continuous
  10
 58.910568
  20
 181.811829
  30
 0.0
   0
VERTEX
   8
0
   6
Continuous
  10
 53.599075
  20
 183.543030
  30
 0.0
   0
VERTEX
   8
0
   6
Continuous
  10
 52.773636
  20
 183.625641
  30
 0.0
   0
VERTEX
   8
0
   6
Continuous
  10
 52.125076
  20
 183.390717
  30
 0.0
   0
VERTEX
   8
0
   6
Continuous
  10
 50.821701
  20
 182.274017
  30
 0.0
   0
VERTEX
   8
0
   6
Continuous
  10
 48.781052
  20
 179.777924
  30
 0.0
   0
VERTEX
   8
0
   6
Continuous
  10
 46.286789
  20
 175.708740
  30
 0.0
   0
VERTEX
   8
0
   6
Continuous
  10
 44.620041
  20
 172.705536
  30
 0.0
   0
VERTEX
   8
0
   6
Continuous
  10
 42.793961
  20
 168.053314
  30
 0.0
   0
VERTEX
   8
0
   6
Continuous
  10
 41.399673
  20
 162.749420
  30
 0.0
   0
VERTEX
   8
0
   6
Continuous
  10
 40.913712
  20
 161.680115
  30
 0.0
   0
VERTEX
   8
0
   6
Continuous
  10
 40.307449
  20
 160.964935
  30
 0.0
   0
VERTEX
   8
0
   6
Continuous
  10
 39.101547
  20
 160.283417
  30
 0.0
   0
VERTEX
   8
0
   6
Continuous
  10
 35.389114
  20
 158.680542
  30
 0.0
   0
VERTEX
   8
0
   6
Continuous
  10
 33.113358
  20
 158.108429
  30
 0.0
   0
VERTEX
   8
0
   6
Continuous
  10
 32.382645
  20
 158.091522
  30
 0.0
   0
VERTEX
   8
0
   6
Continuous
  10
 31.498795
  20
 158.632935
  30
 0.0
   0
VERTEX
   8
0
   6
Continuous
  10
 31.016586
  20
 159.175720
  30
 0.0
   0
VERTEX
   8
0
   6
Continuous
  10
 30.953842
  20
 159.659637
  30
 0.0
   0
VERTEX
   8
0
   6
Continuous
  10
 31.531204
  20
 161.195618
  30
 0.0
   0
VERTEX
   8
0
   6
Continuous
  10
 33.248672
  20
 162.908325
  30
 0.0
   0
VERTEX
   8
0
   6
Continuous
  10
 35.405441
  20
 164.320343
  30
 0.0
   0
VERTEX
   8
0
   6
Continuous
  10
 36.803085
  20
 165.372833
  30
 0.0
   0
VERTEX
   8
0
   6
Continuous
  10
 37.298904
  20
 166.163727
  30
 0.0
   0
VERTEX
   8
0
   6
Continuous
  10
 37.674667
  20
 167.287842
  30
 0.0
   0
VERTEX
   8
0
   6
Continuous
  10
 38.405899
  20
 173.317322
  30
 0.0
   0
VERTEX
   8
0
   6
Continuous
  10
 39.215530
  20
 176.907227
  30
 0.0
   0
VERTEX
   8
0
   6
Continuous
  10
 40.964554
  20
 181.863342
  30
 0.0
   0
VERTEX
   8
0
   6
Continuous
  10
 41.753708
  20
 183.457916
  30
 0.0
   0
VERTEX
   8
0
   6
Continuous
  10
 42.572037
  20
 184.781433
  30
 0.0
   0
VERTEX
   8
0
   6
Continuous
  10
 44.593674
  20
 187.541718
  30
 0.0
   0
VERTEX
   8
0
   6
Continuous
  10
 46.825699
  20
 189.278931
  30
 0.0
   0
VERTEX
   8
0
   6
Continuous
  10
 48.481369
  20
 190.024933
  30
 0.0
   0
VERTEX
   8
0
   6
Continuous
  10
 49.725876
  20
 190.116821
  30
 0.0
   0
VERTEX
   8
0
   6
Continuous
  10
 51.406693
  20
 189.910217
  30
 0.0
   0
VERTEX
   8
0
   6
Continuous
  10
 58.395859
  20
 188.307739
  30
 0.0
   0
VERTEX
   8
0
   6
Continuous
  10
 63.388107
  20
 186.380615
  30
 0.0
   0
VERTEX
   8
0
   6
Continuous
  10
 63.887650
  20
 186.415436
  30
 0.0
   0
VERTEX
   8
0
   6
Continuous
  10
 65.121933
  20
 187.526428
  30
 0.0
   0
VERTEX
   8
0
   6
Continuous
  10
 65.054214
  20
 187.828125
  30
 0.0
   0
VERTEX
   8
0
   6
Continuous
  10
 62.034744
  20
 189.128540
  30
 0.0
   0
VERTEX
   8
0
   6
Continuous
  10
 62.016312
  20
 189.445618
  30
 0.0
   0
VERTEX
   8
0
   6
Continuous
  10
 63.267319
  20
 190.582520
  30
 0.0
   0
VERTEX
   8
0
   6
Continuous
  10
 65.460648
  20
 191.714417
  30
 0.0
   0
VERTEX
   8
0
   6
Continuous
  10
 65.598282
  20
 191.963531
  30
 0.0
   0
VERTEX
   8
0
   6
Continuous
  10
 65.286179
  20
 192.274323
  30
 0.0
   0
VERTEX
   8
0
   6
Continuous
  10
 63.234329
  20
 193.210724
  30
 0.0
   0
VERTEX
   8
0
   6
Continuous
  10
 62.276566
  20
 193.853424
  30
 0.0
   0
VERTEX
   8
0
   6
Continuous
  10
 62.217117
  20
 194.205719
  30
 0.0
   0
VERTEX
   8
0
   6
Continuous
  10
 62.979111
  20
 195.224640
  30
 0.0
   0
VERTEX
   8
0
   6
Continuous
  10
 62.923691
  20
 195.474121
  30
 0.0
   0
VERTEX
   8
0
   6
Continuous
  10
 61.667313
  20
 196.342926
  30
 0.0
   0
VERTEX
   8
0
   6
Continuous
  10
 58.882309
  20
 197.944122
  30
 0.0
   0
VERTEX
   8
0
   6
Continuous
  10
 55.889877
  20
 200.215942
  30
 0.0
   0
VERTEX
   8
0
   6
Continuous
  10
 52.351730
  20
 202.171722
  30
 0.0
   0
VERTEX
   8
0
   6
Continuous
  10
 49.567490
  20
 203.145416
  30
 0.0
   0
VERTEX
   8
0
   6
Continuous
  10
 48.856888
  20
 203.238617
  30
 0.0
   0
VERTEX
   8
0
   6
Continuous
  10
 48.144943
  20
 203.063934
  30
 0.0
   0
VERTEX
   8
0
   6
Continuous
  10
 47.172867
  20
 202.352539
  30
 0.0
   0
VERTEX
   8
0
   6
Continuous
  10
 43.757767
  20
 198.662415
  30
 0.0
   0
VERTEX
   8
0
   6
Continuous
  10
 39.964859
  20
 193.849518
  30
 0.0
   0
VERTEX
   8
0
   6
Continuous
  10
 37.359451
  20
 190.233124
  30
 0.0
   0
VERTEX
   8
0
   6
Continuous
  10
 35.030502
  20
 187.306519
  30
 0.0
   0
VERTEX
   8
0
   6
Continuous
  10
 33.487106
  20
 185.851440
  30
 0.0
   0
VERTEX
   8
0
   6
Continuous
  10
 32.157150
  20
 185.009430
  30
 0.0
   0
VERTEX
   8
0
   6
Continuous
  10
 23.836777
  20
 183.870941
  30
 0.0
   0
VERTEX
   8
0
   6
Continuous
  10
 22.658157
  20
 184.114624
  30
 0.0
   0
VERTEX
   8
0
   6
Continuous
  10
 22.093216
  20
 184.516327
  30
 0.0
   0
VERTEX
   8
0
   6
Continuous
  10
 21.935562
  20
 184.920319
  30
 0.0
   0
VERTEX
   8
0
   6
Continuous
  10
 22.060074
  20
 185.386017
  30
 0.0
   0
VERTEX
   8
0
   6
Continuous
  10
 23.127823
  20
 186.663422
  30
 0.0
   0
VERTEX
   8
0
   6
Continuous
  10
 26.490646
  20
 189.007935
  30
 0.0
   0
VERTEX
   8
0
   6
Continuous
  10
 31.078964
  20
 191.267029
  30
 0.0
   0
VERTEX
   8
0
   6
Continuous
  10
 32.004684
  20
 192.265930
  30
 0.0
   0
VERTEX
   8
0
   6
Continuous
  10
 36.453445
  20
 198.513519
  30
 0.0
   0
VERTEX
   8
0
   6
Continuous
  10
 40.604935
  20
 203.708832
  30
 0.0
   0
VERTEX
   8
0
   6
Continuous
  10
 46.764816
  20
 210.668823
  30
 0.0
   0
VERTEX
   8
0
   6
Continuous
  10
 48.029984
  20
 211.686218
  30
 0.0
   0
VERTEX
   8
0
   6
Continuous
  10
 48.982895
  20
 212.071930
  30
 0.0
   0
VERTEX
   8
0
   6
Continuous
  10
 49.486435
  20
 212.031921
  30
 0.0
   0
VERTEX
   8
0
   6
Continuous
  10
 52.145615
  20
 211.241821
  30
 0.0
   0
VERTEX
   8
0
   6
Continuous
  10
 55.584274
  20
 209.526031
  30
 0.0
   0
VERTEX
   8
0
   6
Continuous
  10
 60.113571
  20
 206.378143
  30
 0.0
   0
VERTEX
   8
0
   6
Continuous
  10
 60.876999
  20
 206.128815
  30
 0.0
   0
VERTEX
   8
0
   6
Continuous
  10
 63.224228
  20
 207.313721
  30
 0.0
   0
VERTEX
   8
0
   6
Continuous
  10
 65.194046
  20
 208.598724
  30
 0.0
   0
VERTEX
   8
0
   6
Continuous
  10
 65.306473
  20
 208.872925
  30
 0.0
   0
VERTEX
   8
0
   6
Continuous
  10
 64.284409
  20
 210.021332
  30
 0.0
   0
VERTEX
   8
0
   6
Continuous
  10
 62.406418
  20
 210.915924
  30
 0.0
   0
VERTEX
   8
0
   6
Continuous
  10
 61.926926
  20
 211.440826
  30
 0.0
   0
VERTEX
   8
0
   6
Continuous
  10
 61.977310
  20
 212.085724
  30
 0.0
   0
VERTEX
   8
0
   6
Continuous
  10
 61.728989
  20
 212.417419
  30
 0.0
   0
VERTEX
   8
0
   6
Continuous
  10
 59.788589
  20
 213.621521
  30
 0.0
   0
VERTEX
   8
0
   6
Continuous
  10
 56.712967
  20
 215.341736
  30
 0.0
   0
VERTEX
   8
0
   6
Continuous
  10
 53.289597
  20
 216.674042
  30
 0.0
   0
VERTEX
   8
0
   6
Continuous
  10
 50.551865
  20
 217.536621
  30
 0.0
   0
VERTEX
   8
0
   6
Continuous
  10
 48.407211
  20
 217.962219
  30
 0.0
   0
VERTEX
   8
0
   6
Continuous
  10
 47.220108
  20
 217.762817
  30
 0.0
   0
VERTEX
   8
0
   6
Continuous
  10
 45.713058
  20
 216.914124
  30
 0.0
   0
VERTEX
   8
0
   6
Continuous
  10
 42.183945
  20
 213.804443
  30
 0.0
   0
VERTEX
   8
0
   6
Continuous
  10
 39.603409
  20
 211.301117
  30
 0.0
   0
VERTEX
   8
0
   6
Continuous
  10
 35.105698
  20
 206.091614
  30
 0.0
   0
VERTEX
   8
0
   6
Continuous
  10
 33.833206
  20
 205.203522
  30
 0.0
   0
VERTEX
   8
0
   6
Continuous
  10
 31.149918
  20
 204.531342
  30
 0.0
   0
VERTEX
   8
0
   6
Continuous
  10
 29.388474
  20
 204.395721
  30
 0.0
   0
VERTEX
   8
0
   6
Continuous
  10
 24.193161
  20
 204.345734
  30
 0.0
   0
VERTEX
   8
0
   6
Continuous
  10
 22.129654
  20
 204.796722
  30
 0.0
   0
VERTEX
   8
0
   6
Continuous
  10
 21.452682
  20
 205.205231
  30
 0.0
   0
VERTEX
   8
0
   6
Continuous
  10
 20.636856
  20
 206.063141
  30
 0.0
   0
VERTEX
   8
0
   6
Continuous
  10
 20.365555
  20
 206.566528
  30
 0.0
   0
VERTEX
   8
0
   6
Continuous
  10
 20.667679
  20
 207.267334
  30
 0.0
   0
VERTEX
   8
0
   6
Continuous
  10
 21.543747
  20
 208.216827
  30
 0.0
   0
VERTEX
   8
0
   6
Continuous
  10
 22.921036
  20
 209.021027
  30
 0.0
   0
VERTEX
   8
0
   6
Continuous
  10
 27.448166
  20
 209.492828
  30
 0.0
   0
VERTEX
   8
0
   6
Continuous
  10
 28.755295
  20
 209.936127
  30
 0.0
   0
VERTEX
   8
0
   6
Continuous
  10
 30.374893
  20
 210.962341
  30
 0.0
   0
VERTEX
   8
0
   6
Continuous
  10
 33.903458
  20
 214.072540
  30
 0.0
   0
VERTEX
   8
0
   6
Continuous
  10
 37.106369
  20
 217.279938
  30
 0.0
   0
VERTEX
   8
0
   6
Continuous
  10
 43.320328
  20
 222.821533
  30
 0.0
   0
VERTEX
   8
0
   6
Continuous
  10
 46.233383
  20
 224.971619
  30
 0.0
   0
VERTEX
   8
0
   6
Continuous
  10
 49.012924
  20
 226.208527
  30
 0.0
   0
VERTEX
   8
0
   6
Continuous
  10
 50.961594
  20
 226.666138
  30
 0.0
   0
VERTEX
   8
0
   6
Continuous
  10
 53.078873
  20
 226.145935
  30
 0.0
   0
VERTEX
   8
0
   6
Continuous
  10
 56.399948
  20
 224.844116
  30
 0.0
   0
VERTEX
   8
0
   6
Continuous
  10
 59.722916
  20
 222.931122
  30
 0.0
   0
VERTEX
   8
0
   6
Continuous
  10
 61.224991
  20
 221.805115
  30
 0.0
   0
VERTEX
   8
0
   6
Continuous
  10
 65.344925
  20
 219.137238
  30
 0.0
   0
VERTEX
   8
0
   6
Continuous
  10
 65.729050
  20
 219.087616
  30
 0.0
   0
VERTEX
   8
0
   6
Continuous
  10
 65.812180
  20
 219.317627
  30
 0.0
   0
VERTEX
   8
0
   6
Continuous
  10
 64.798416
  20
 222.162537
  30
 0.0
   0
VERTEX
   8
0
   6
Continuous
  10
 64.416183
  20
 222.935028
  30
 0.0
   0
VERTEX
   8
0
   6
Continuous
  10
 64.247147
  20
 223.575439
  30
 0.0
   0
VERTEX
   8
0
   6
Continuous
  10
 64.394424
  20
 223.968140
  30
 0.0
   0
VERTEX
   8
0
   6
Continuous
  10
 65.071091
  20
 224.258331
  30
 0.0
   0
VERTEX
   8
0
   6
Continuous
  10
 66.723495
  20
 224.759430
  30
 0.0
   0
VERTEX
   8
0
   6
Continuous
  10
 68.240128
  20
 225.008636
  30
 0.0
   0
VERTEX
   8
0
   6
Continuous
  10
 68.766312
  20
 225.188019
  30
 0.0
   0
VERTEX
   8
0
   6
Continuous
  10
 68.417923
  20
 226.118225
  30
 0.0
   0
VERTEX
   8
0
   6
Continuous
  10
 64.530258
  20
 229.078735
  30
 0.0
   0
VERTEX
   8
0
   6
Continuous
  10
 62.119583
  20
 231.113342
  30
 0.0
   0
VERTEX
   8
0
   6
Continuous
  10
 60.131729
  20
 232.230438
  30
 0.0
   0
VERTEX
   8
0
   6
Continuous
  10
 58.416702
  20
 232.788330
  30
 0.0
   0
VERTEX
   8
0
   6
Continuous
  10
 56.830002
  20
 232.950714
  30
 0.0
   0
VERTEX
   8
0
   6
Continuous
  10
 48.506577
  20
 232.688019
  30
 0.0
   0
VERTEX
   8
0
   6
Continuous
  10
 43.593033
  20
 232.913544
  30
 0.0
   0
VERTEX
   8
0
   6
Continuous
  10
 39.221420
  20
 233.448334
  30
 0.0
   0
VERTEX
   8
0
   6
Continuous
  10
 37.491257
  20
 233.980621
  30
 0.0
   0
VERTEX
   8
0
   6
Continuous
  10
 35.900131
  20
 235.295441
  30
 0.0
   0
VERTEX
   8
0
   6
Continuous
  10
 35.370316
  20
 236.101135
  30
 0.0
   0
VERTEX
   8
0
   6
Continuous
  10
 34.675552
  20
 237.577728
  30
 0.0
   0
VERTEX
   8
0
   6
Continuous
  10
 34.219498
  20
 238.847717
  30
 0.0
   0
VERTEX
   8
0
   6
Continuous
  10
 34.039139
  20
 240.350922
  30
 0.0
   0
VERTEX
   8
0
   6
Continuous
  10
 34.124588
  20
 241.923920
  30
 0.0
   0
VERTEX
   8
0
   6
Continuous
  10
 34.498520
  20
 242.621429
  30
 0.0
   0
VERTEX
   8
0
   6
Continuous
  10
 34.875626
  20
 242.787140
  30
 0.0
   0
VERTEX
   8
0
   6
Continuous
  10
 37.657364
  20
 248.998322
  30
 0.0
   0
VERTEX
   8
0
   6
Continuous
  10
 240.133591
  20
 248.951233
  30
 0.0
   0
VERTEX
   8
0
   6
Continuous
  10
 243.319931
  20
 243.499329
  30
 0.0
   0
VERTEX
   8
0
   6
Continuous
  10
 247.036179
  20
 244.553528
  30
 0.0
   0
VERTEX
   8
0
   6
Continuous
  10
 249.945297
  20
 244.888123
  30
 0.0
   0
VERTEX
   8
0
   6
Continuous
  10
 250.117294
  20
 244.655823
  30
 0.0
   0
VERTEX
   8
0
   6
Continuous
  10
 249.094894
  20
 235.755341
  30
 0.0
   0
VERTEX
   8
0
   6
Continuous
  10
 248.340622
  20
 235.174744
  30
 0.0
   0
VERTEX
   8
0
   6
Continuous
  10
 244.531113
  20
 231.655029
  30
 0.0
   0
VERTEX
   8
0
   6
Continuous
  10
 242.850204
  20
 229.458435
  30
 0.0
   0
VERTEX
   8
0
   6
Continuous
  10
 240.838974
  20
 226.448120
  30
 0.0
   0
VERTEX
   8
0
   6
Continuous
  10
 238.427292
  20
 221.967438
  30
 0.0
   0
VERTEX
   8
0
   6
Continuous
  10
 237.122299
  20
 218.367615
  30
 0.0
   0
VERTEX
   8
0
   6
Continuous
  10
 236.456528
  20
 215.800537
  30
 0.0
   0
VERTEX
   8
0
   6
Continuous
  10
 236.017807
  20
 212.235321
  30
 0.0
   0
VERTEX
   8
0
   6
Continuous
  10
 236.234299
  20
 211.164124
  30
 0.0
   0
VERTEX
   8
0
   6
Continuous
  10
 236.699081
  20
 210.376617
  30
 0.0
   0
VERTEX
   8
0
   6
Continuous
  10
 238.238083
  20
 209.363739
  30
 0.0
   0
VERTEX
   8
0
   6
Continuous
  10
 239.019211
  20
 209.193817
  30
 0.0
   0
VERTEX
   8
0
   6
Continuous
  10
 239.900375
  20
 209.376129
  30
 0.0
   0
VERTEX
   8
0
   6
Continuous
  10
 241.250290
  20
 210.145325
  30
 0.0
   0
VERTEX
   8
0
   6
Continuous
  10
 244.768417
  20
 213.253723
  30
 0.0
   0
VERTEX
   8
0
   6
Continuous
  10
 249.081894
  20
 218.530518
  30
 0.0
   0
VERTEX
   8
0
   6
Continuous
  10
 252.778976
  20
 224.241119
  30
 0.0
   0
VERTEX
   8
0
   6
Continuous
  10
 254.772079
  20
 228.757019
  30
 0.0
   0
VERTEX
   8
0
   6
Continuous
  10
 255.331223
  20
 231.555420
  30
 0.0
   0
VERTEX
   8
0
   6
Continuous
  10
 255.245773
  20
 233.659332
  30
 0.0
   0
VERTEX
   8
0
   6
Continuous
  10
 254.393417
  20
 235.552124
  30
 0.0
   0
VERTEX
   8
0
   6
Continuous
  10
 253.782272
  20
 236.285431
  30
 0.0
   0
VERTEX
   8
0
   6
Continuous
  10
 252.573776
  20
 236.773743
  30
 0.0
   0
VERTEX
   8
0
   6
Continuous
  10
 250.281174
  20
 236.466522
  30
 0.0
   0
VERTEX
   8
0
   6
Continuous
  10
 250.044479
  20
 236.771332
  30
 0.0
   0
VERTEX
   8
0
   6
Continuous
  10
 250.367416
  20
 240.778442
  30
 0.0
   0
VERTEX
   8
0
   6
Continuous
  10
 250.899033
  20
 244.638641
  30
 0.0
   0
VERTEX
   8
0
   6
Continuous
  10
 251.083481
  20
 244.832916
  30
 0.0
   0
VERTEX
   8
0
   6
Continuous
  10
 253.392014
  20
 245.084534
  30
 0.0
   0
VERTEX
   8
0
   6
Continuous
  10
 254.134506
  20
 244.820038
  30
 0.0
   0
VERTEX
   8
0
   6
Continuous
  10
 256.780029
  20
 244.269531
  30
 0.0
   0
VERTEX
   8
0
   6
Continuous
  10
 258.692688
  20
 243.683319
  30
 0.0
   0
VERTEX
   8
0
   6
Continuous
  10
 264.335022
  20
 241.203339
  30
 0.0
   0
VERTEX
   8
0
   6
Continuous
  10
 266.832703
  20
 239.697021
  30
 0.0
   0
VERTEX
   8
0
   6
Continuous
  10
 268.711548
  20
 238.686615
  30
 0.0
   0
VERTEX
   8
0
   6
Continuous
  10
 271.127930
  20
 236.950317
  30
 0.0
   0
VERTEX
   8
0
   6
Continuous
  10
 275.201721
  20
 233.517822
  30
 0.0
   0
VERTEX
   8
0
   6
Continuous
  10
 277.312927
  20
 231.223816
  30
 0.0
   0
VERTEX
   8
0
   6
Continuous
  10
 277.930603
  20
 229.990540
  30
 0.0
   0
VERTEX
   8
0
   6
Continuous
  10
 277.779724
  20
 229.554443
  30
 0.0
   0
VERTEX
   8
0
   6
Continuous
  10
 275.806152
  20
 227.890137
  30
 0.0
   0
VERTEX
   8
0
   6
Continuous
  10
 270.532837
  20
 224.078125
  30
 0.0
   0
VERTEX
   8
0
   6
Continuous
  10
 270.067139
  20
 223.984924
  30
 0.0
   0
VERTEX
   8
0
   6
Continuous
  10
 269.385437
  20
 224.460419
  30
 0.0
   0
VERTEX
   8
0
   6
Continuous
  10
 268.347107
  20
 224.993622
  30
 0.0
   0
VERTEX
   8
0
   6
Continuous
  10
 267.085632
  20
 224.934326
  30
 0.0
   0
VERTEX
   8
0
   6
Continuous
  10
 266.644531
  20
 225.225616
  30
 0.0
   0
VERTEX
   8
0
   6
Continuous
  10
 265.121338
  20
 225.127014
  30
 0.0
   0
VERTEX
   8
0
   6
Continuous
  10
 264.139893
  20
 224.757416
  30
 0.0
   0
VERTEX
   8
0
   6
Continuous
  10
 262.801514
  20
 223.899414
  30
 0.0
   0
VERTEX
   8
0
   6
Continuous
  10
 260.856018
  20
 221.746338
  30
 0.0
   0
VERTEX
   8
0
   6
Continuous
  10
 257.432190
  20
 216.478119
  30
 0.0
   0
VERTEX
   8
0
   6
Continuous
  10
 254.005783
  20
 210.117523
  30
 0.0
   0
VERTEX
   8
0
   6
Continuous
  10
 252.505722
  20
 206.474731
  30
 0.0
   0
VERTEX
   8
0
   6
Continuous
  10
 251.623032
  20
 203.222839
  30
 0.0
   0
VERTEX
   8
0
   6
Continuous
  10
 251.495224
  20
 201.156616
  30
 0.0
   0
VERTEX
   8
0
   6
Continuous
  10
 251.837875
  20
 199.958221
  30
 0.0
   0
VERTEX
   8
0
   6
Continuous
  10
 252.644211
  20
 198.862427
  30
 0.0
   0
VERTEX
   8
0
   6
Continuous
  10
 252.501205
  20
 198.325928
  30
 0.0
   0
VERTEX
   8
0
   6
Continuous
  10
 248.018906
  20
 192.740723
  30
 0.0
   0
VERTEX
   8
0
   6
Continuous
  10
 247.235214
  20
 192.251038
  30
 0.0
   0
VERTEX
   8
0
   6
Continuous
  10
 244.369003
  20
 190.807739
  30
 0.0
   0
VERTEX
   8
0
   6
Continuous
  10
 240.995529
  20
 189.354736
  30
 0.0
   0
VERTEX
   8
0
   6
Continuous
  10
 239.234116
  20
 188.068329
  30
 0.0
   0
VERTEX
   8
0
   6
Continuous
  10
 238.814926
  20
 188.027130
  30
 0.0
   0
VERTEX
   8
0
   6
Continuous
  10
 238.636276
  20
 188.389618
  30
 0.0
   0
VERTEX
   8
0
   6
Continuous
  10
 239.497910
  20
 190.867432
  30
 0.0
   0
VERTEX
   8
0
   6
Continuous
  10
 241.858383
  20
 195.207123
  30
 0.0
   0
VERTEX
   8
0
   6
Continuous
  10
 241.692917
  20
 195.244324
  30
 0.0
   0
VERTEX
   8
0
   6
Continuous
  10
 235.790024
  20
 192.164429
  30
 0.0
   0
VERTEX
   8
0
   6
Continuous
  10
 234.361984
  20
 191.138519
  30
 0.0
   0
VERTEX
   8
0
   6
Continuous
  10
 233.957504
  20
 191.149719
  30
 0.0
   0
VERTEX
   8
0
   6
Continuous
  10
 233.782272
  20
 191.522736
  30
 0.0
   0
VERTEX
   8
0
   6
Continuous
  10
 233.934982
  20
 193.844116
  30
 0.0
   0
VERTEX
   8
0
   6
Continuous
  10
 234.483810
  20
 195.875916
  30
 0.0
   0
VERTEX
   8
0
   6
Continuous
  10
 235.408188
  20
 197.802643
  30
 0.0
   0
VERTEX
   8
0
   6
Continuous
  10
 235.323288
  20
 197.934631
  30
 0.0
   0
VERTEX
   8
0
   6
Continuous
  10
 232.088181
  20
 196.223938
  30
 0.0
   0
VERTEX
   8
0
   6
Continuous
  10
 231.661972
  20
 196.329834
  30
 0.0
   0
VERTEX
   8
0
   6
Continuous
  10
 231.450180
  20
 196.736938
  30
 0.0
   0
VERTEX
   8
0
   6
Continuous
  10
 231.597031
  20
 198.041534
  30
 0.0
   0
VERTEX
   8
0
   6
Continuous
  10
 232.899704
  20
 202.356934
  30
 0.0
   0
VERTEX
   8
0
   6
Continuous
  10
 232.922592
  20
 203.020844
  30
 0.0
   0
VERTEX
   8
0
   6
Continuous
  10
 232.546310
  20
 202.799530
  30
 0.0
   0
VERTEX
   8
0
   6
Continuous
  10
 230.782578
  20
 200.428619
  30
 0.0
   0
VERTEX
   8
0
   6
Continuous
  10
 227.822372
  20
 195.946442
  30
 0.0
   0
VERTEX
   8
0
   6
Continuous
  10
 225.841721
  20
 193.953735
  30
 0.0
   0
VERTEX
   8
0
   6
Continuous
  10
 221.521225
  20
 190.440430
  30
 0.0
   0
VERTEX
   8
0
   6
Continuous
  10
 216.431625
  20
 185.794220
  30
 0.0
   0
VERTEX
   8
0
   6
Continuous
  10
 214.051620
  20
 182.197723
  30
 0.0
   0
VERTEX
   8
0
   6
Continuous
  10
 213.317612
  20
 180.300629
  30
 0.0
   0
VERTEX
   8
0
   6
Continuous
  10
 213.299698
  20
 179.613739
  30
 0.0
   0
VERTEX
   8
0
   6
Continuous
  10
 213.609695
  20
 179.604523
  30
 0.0
   0
VERTEX
   8
0
   6
Continuous
  10
 215.087326
  20
 180.338623
  30
 0.0
   0
VERTEX
   8
0
   6
Continuous
  10
 219.904831
  20
 182.175842
  30
 0.0
   0
VERTEX
   8
0
   6
Continuous
  10
 222.188278
  20
 182.780518
  30
 0.0
   0
VERTEX
   8
0
   6
Continuous
  10
 223.630722
  20
 182.998718
  30
 0.0
   0
VERTEX
   8
0
   6
Continuous
  10
 223.832077
  20
 182.797638
  30
 0.0
   0
VERTEX
   8
0
   6
Continuous
  10
 223.684372
  20
 182.283936
  30
 0.0
   0
VERTEX
   8
0
   6
Continuous
  10
 221.417526
  20
 178.981842
  30
 0.0
   0
VERTEX
   8
0
   6
Continuous
  10
 220.337387
  20
 176.323334
  30
 0.0
   0
VERTEX
   8
0
   6
Continuous
  10
 219.879501
  20
 173.931213
  30
 0.0
   0
VERTEX
   8
0
   6
Continuous
  10
 220.009018
  20
 173.551514
  30
 0.0
   0
VERTEX
   8
0
   6
Continuous
  10
 220.413620
  20
 173.539124
  30
 0.0
   0
VERTEX
   8
0
   6
Continuous
  10
 222.138779
  20
 174.934235
  30
 0.0
   0
VERTEX
   8
0
   6
Continuous
  10
 225.875229
  20
 177.412140
  30
 0.0
   0
VERTEX
   8
0
   6
Continuous
  10
 226.515976
  20
 177.722839
  30
 0.0
   0
VERTEX
   8
0
   6
Continuous
  10
 226.667099
  20
 177.555115
  30
 0.0
   0
VERTEX
   8
0
   6
Continuous
  10
 226.506882
  20
 176.410339
  30
 0.0
   0
VERTEX
   8
0
   6
Continuous
  10
 225.839890
  20
 174.413727
  30
 0.0
   0
VERTEX
   8
0
   6
Continuous
  10
 225.934372
  20
 174.283020
  30
 0.0
   0
VERTEX
   8
0
   6
Continuous
  10
 228.916000
  20
 175.971924
  30
 0.0
   0
VERTEX
   8
0
   6
Continuous
  10
 231.896225
  20
 178.087219
  30
 0.0
   0
VERTEX
   8
0
   6
Continuous
  10
 232.393173
  20
 178.176941
  30
 0.0
   0
VERTEX
   8
0
   6
Continuous
  10
 232.510788
  20
 177.960541
  30
 0.0
   0
VERTEX
   8
0
   6
Continuous
  10
 231.590012
  20
 173.707214
  30
 0.0
   0
VERTEX
   8
0
   6
Continuous
  10
 231.674423
  20
 173.309631
  30
 0.0
   0
VERTEX
   8
0
   6
Continuous
  10
 235.856918
  20
 175.112640
  30
 0.0
   0
VERTEX
   8
0
   6
Continuous
  10
 237.383224
  20
 176.083923
  30
 0.0
   0
VERTEX
   8
0
   6
Continuous
  10
 238.116074
  20
 176.454224
  30
 0.0
   0
VERTEX
   8
0
   6
Continuous
  10
 238.618088
  20
 176.513031
  30
 0.0
   0
VERTEX
   8
0
   6
Continuous
  10
 238.718430
  20
 176.275635
  30
 0.0
   0
VERTEX
   8
0
   6
Continuous
  10
 237.075912
  20
 171.990143
  30
 0.0
   0
VERTEX
   8
0
   6
Continuous
  10
 235.200912
  20
 168.118042
  30
 0.0
   0
VERTEX
   8
0
   6
Continuous
  10
 235.132980
  20
 167.540222
  30
 0.0
   0
VERTEX
   8
0
   6
Continuous
  10
 235.587509
  20
 167.680420
  30
 0.0
   0
VERTEX
   8
0
   6
Continuous
  10
 242.171921
  20
 173.625214
  30
 0.0
   0
VERTEX
   8
0
   6
Continuous
  10
 244.756210
  20
 176.346832
  30
 0.0
   0
VERTEX
   8
0
   6
Continuous
  10
 247.289413
  20
 178.722717
  30
 0.0
   0
VERTEX
   8
0
   6
Continuous
  10
 251.805283
  20
 182.503937
  30
 0.0
   0
VERTEX
   8
0
   6
Continuous
  10
 253.356308
  20
 184.135132
  30
 0.0
   0
VERTEX
   8
0
   6
Continuous
  10
 254.464523
  20
 185.682037
  30
 0.0
   0
VERTEX
   8
0
   6
Continuous
  10
 254.772202
  20
 186.365723
  30
 0.0
   0
VERTEX
   8
0
   6
Continuous
  10
 252.904282
  20
 186.184540
  30
 0.0
   0
VERTEX
   8
0
   6
Continuous
  10
 249.394394
  20
 186.504517
  30
 0.0
   0
VERTEX
   8
0
   6
Continuous
  10
 247.879623
  20
 186.442535
  30
 0.0
   0
VERTEX
   8
0
   6
Continuous
  10
 245.503220
  20
 185.182922
  30
 0.0
   0
VERTEX
   8
0
   6
Continuous
  10
 245.017685
  20
 185.138916
  30
 0.0
   0
VERTEX
   8
0
   6
Continuous
  10
 244.991013
  20
 185.360443
  30
 0.0
   0
VERTEX
   8
0
   6
Continuous
  10
 247.017929
  20
 189.086731
  30
 0.0
   0
VERTEX
   8
0
   6
Continuous
  10
 247.914780
  20
 191.700134
  30
 0.0
   0
VERTEX
   8
0
   6
Continuous
  10
 253.161179
  20
 198.302826
  30
 0.0
   0
VERTEX
   8
0
   6
Continuous
  10
 253.736374
  20
 198.575714
  30
 0.0
   0
VERTEX
   8
0
   6
Continuous
  10
 254.607407
  20
 198.428436
  30
 0.0
   0
VERTEX
   8
0
   6
Continuous
  10
 255.891220
  20
 198.631042
  30
 0.0
   0
VERTEX
   8
0
   6
Continuous
  10
 257.508240
  20
 199.386322
  30
 0.0
   0
VERTEX
   8
0
   6
Continuous
  10
 259.681030
  20
 201.084717
  30
 0.0
   0
VERTEX
   8
0
   6
Continuous
  10
 261.706543
  20
 203.233124
  30
 0.0
   0
VERTEX
   8
0
   6
Continuous
  10
 264.609192
  20
 207.596741
  30
 0.0
   0
VERTEX
   8
0
   6
Continuous
  10
 267.138916
  20
 212.122620
  30
 0.0
   0
VERTEX
   8
0
   6
Continuous
  10
 269.203918
  20
 216.909027
  30
 0.0
   0
VERTEX
   8
0
   6
Continuous
  10
 269.893127
  20
 219.226715
  30
 0.0
   0
VERTEX
   8
0
   6
Continuous
  10
 270.319031
  20
 222.627716
  30
 0.0
   0
VERTEX
   8
0
   6
Continuous
  10
 270.709595
  20
 223.325317
  30
 0.0
   0
VERTEX
   8
0
   6
Continuous
  10
 274.484741
  20
 226.372223
  30
 0.0
   0
VERTEX
   8
0
   6
Continuous
  10
 278.198242
  20
 228.977814
  30
 0.0
   0
VERTEX
   8
0
   6
Continuous
  10
 278.631104
  20
 229.080627
  30
 0.0
   0
VERTEX
   8
0
   6
Continuous
  10
 278.983948
  20
 228.734924
  30
 0.0
   0
VERTEX
   8
0
   6
Continuous
  10
 280.430725
  20
 226.391418
  30
 0.0
   0
VERTEX
   8
0
   6
Continuous
  10
 281.494934
  20
 223.951019
  30
 0.0
   0
VERTEX
   8
0
   6
Continuous
  10
 282.110901
  20
 221.539124
  30
 0.0
   0
VERTEX
   8
0
   6
Continuous
  10
 282.354553
  20
 219.554840
  30
 0.0
   0
VERTEX
   8
0
   6
Continuous
  10
 282.419922
  20
 217.020630
  30
 0.0
   0
VERTEX
   8
0
   6
Continuous
  10
 282.044434
  20
 213.881622
  30
 0.0
   0
VERTEX
   8
0
   6
Continuous
  10
 281.159729
  20
 210.374542
  30
 0.0
   0
VERTEX
   8
0
   6
Continuous
  10
 278.698914
  20
 204.099518
  30
 0.0
   0
VERTEX
   8
0
   6
Continuous
  10
 274.940247
  20
 195.754913
  30
 0.0
   0
VERTEX
   8
0
   6
Continuous
  10
 273.787354
  20
 192.443420
  30
 0.0
   0
VERTEX
   8
0
   6
Continuous
  10
 273.638855
  20
 189.990417
  30
 0.0
   0
VERTEX
   8
0
   6
Continuous
  10
 273.985840
  20
 182.933624
  30
 0.0
   0
VERTEX
   8
0
   6
Continuous
  10
 273.700439
  20
 179.303925
  30
 0.0
   0
VERTEX
   8
0
   6
Continuous
  10
 273.191528
  20
 176.389343
  30
 0.0
   0
VERTEX
   8
0
   6
Continuous
  10
 272.314026
  20
 173.138519
  30
 0.0
   0
VERTEX
   8
0
   6
Continuous
  10
 270.826721
  20
 168.734314
  30
 0.0
   0
VERTEX
   8
0
   6
Continuous
  10
 268.281738
  20
 163.332336
  30
 0.0
   0
VERTEX
   8
0
   6
Continuous
  10
 266.211243
  20
 159.436432
  30
 0.0
   0
VERTEX
   8
0
   6
Continuous
  10
 263.568726
  20
 155.159424
  30
 0.0
   0
VERTEX
   8
0
   6
Continuous
  10
 261.526917
  20
 152.288940
  30
 0.0
   0
VERTEX
   8
0
   6
Continuous
  10
 258.957397
  20
 148.922729
  30
 0.0
   0
VERTEX
   8
0
   6
Continuous
  10
 254.759018
  20
 144.278839
  30
 0.0
   0
VERTEX
   8
0
   6
Continuous
  10
 250.570908
  20
 140.165619
  30
 0.0
   0
VERTEX
   8
0
   6
Continuous
  10
 245.670517
  20
 135.817535
  30
 0.0
   0
VERTEX
   8
0
   6
Continuous
  10
 242.527817
  20
 133.317230
  30
 0.0
   0
VERTEX
   8
0
   6
Continuous
  10
 241.087631
  20
 131.760925
  30
 0.0
   0
VERTEX
   8
0
   6
Continuous
  10
 236.521774
  20
 128.205719
  30
 0.0
   0
VERTEX
   8
0
   6
Continuous
  10
 234.867416
  20
 126.465927
  30
 0.0
   0
VERTEX
   8
0
   6
Continuous
  10
 231.582626
  20
 122.300430
  30
 0.0
   0
VERTEX
   8
0
   6
Continuous
  10
 223.708786
  20
 110.063728
  30
 0.0
   0
VERTEX
   8
0
   6
Continuous
  10
 218.525131
  20
 102.956726
  30
 0.0
   0
VERTEX
   8
0
   6
Continuous
  10
 215.217880
  20
 99.469627
  30
 0.0
   0
VERTEX
   8
0
   6
Continuous
  10
 213.254288
  20
 96.822075
  30
 0.0
   0
VERTEX
   8
0
   6
Continuous
  10
 211.778000
  20
 94.657982
  30
 0.0
   0
VERTEX
   8
0
   6
Continuous
  10
 211.305801
  20
 94.219322
  30
 0.0
   0
VERTEX
   8
0
   6
Continuous
  10
 210.934891
  20
 94.398720
  30
 0.0
   0
VERTEX
   8
0
   6
Continuous
  10
 208.970596
  20
 99.170105
  30
 0.0
   0
VERTEX
   8
0
   6
Continuous
  10
 208.171494
  20
 101.796326
  30
 0.0
   0
VERTEX
   8
0
   6
Continuous
  10
 207.746506
  20
 104.250229
  30
 0.0
   0
VERTEX
   8
0
   6
Continuous
  10
 207.646988
  20
 107.675430
  30
 0.0
   0
VERTEX
   8
0
   6
Continuous
  10
 207.718796
  20
 108.214828
  30
 0.0
   0
VERTEX
   8
0
   6
Continuous
  10
 207.516617
  20
 108.808830
  30
 0.0
   0
VERTEX
   8
0
   6
Continuous
  10
 207.529312
  20
 109.670731
  30
 0.0
   0
VERTEX
   8
0
   6
Continuous
  10
 208.155594
  20
 111.135429
  30
 0.0
   0
VERTEX
   8
0
   6
Continuous
  10
 203.871292
  20
 109.331032
  30
 0.0
   0
VERTEX
   8
0
   6
Continuous
  10
 202.248398
  20
 108.822426
  30
 0.0
   0
VERTEX
   8
0
   6
Continuous
  10
 201.599808
  20
 108.929031
  30
 0.0
   0
VERTEX
   8
0
   6
Continuous
  10
 201.365616
  20
 109.235931
  30
 0.0
   0
VERTEX
   8
0
   6
Continuous
  10
 202.270309
  20
 116.162727
  30
 0.0
   0
VERTEX
   8
0
   6
Continuous
  10
 203.585617
  20
 119.835129
  30
 0.0
   0
VERTEX
   8
0
   6
Continuous
  10
 203.473587
  20
 119.993828
  30
 0.0
   0
VERTEX
   8
0
   6
Continuous
  10
 201.137405
  20
 119.415932
  30
 0.0
   0
VERTEX
   8
0
   6
Continuous
  10
 198.986710
  20
 118.771126
  30
 0.0
   0
VERTEX
   8
0
   6
Continuous
  10
 194.024094
  20
 117.592125
  30
 0.0
   0
VERTEX
   8
0
   6
Continuous
  10
 192.474503
  20
 117.110527
  30
 0.0
   0
VERTEX
   8
0
   6
Continuous
  10
 191.112900
  20
 116.396027
  30
 0.0
   0
VERTEX
   8
0
   6
Continuous
  10
 190.744797
  20
 116.483330
  30
 0.0
   0
VERTEX
   8
0
   6
Continuous
  10
 190.639206
  20
 116.910828
  30
 0.0
   0
VERTEX
   8
0
   6
Continuous
  10
 191.312302
  20
 118.968430
  30
 0.0
   0
VERTEX
   8
0
   6
Continuous
  10
 192.746902
  20
 125.781425
  30
 0.0
   0
VERTEX
   8
0
   6
Continuous
  10
 193.455093
  20
 127.593628
  30
 0.0
   0
VERTEX
   8
0
   6
Continuous
  10
 195.207596
  20
 130.479126
  30
 0.0
   0
VERTEX
   8
0
   6
Continuous
  10
 195.470596
  20
 131.107513
  30
 0.0
   0
VERTEX
   8
0
   6
Continuous
  10
 193.942093
  20
 130.092041
  30
 0.0
   0
VERTEX
   8
0
   6
Continuous
  10
 190.211807
  20
 127.946426
  30
 0.0
   0
VERTEX
   8
0
   6
Continuous
  10
 186.950516
  20
 126.561325
  30
 0.0
   0
VERTEX
   8
0
   6
Continuous
  10
 184.417191
  20
 125.918625
  30
 0.0
   0
VERTEX
   8
0
   6
Continuous
  10
 178.394089
  20
 124.927628
  30
 0.0
   0
VERTEX
   8
0
   6
Continuous
  10
 175.361404
  20
 124.239227
  30
 0.0
   0
VERTEX
   8
0
   6
Continuous
  10
 172.813217
  20
 123.086632
  30
 0.0
   0
VERTEX
   8
0
   6
Continuous
  10
 169.684616
  20
 121.066727
  30
 0.0
   0
VERTEX
   8
0
   6
Continuous
  10
 169.165207
  20
 121.064926
  30
 0.0
   0
VERTEX
   8
0
   6
Continuous
  10
 169.002914
  20
 121.441025
  30
 0.0
   0
VERTEX
   8
0
   6
Continuous
  10
 169.774490
  20
 125.809731
  30
 0.0
   0
VERTEX
   8
0
   6
Continuous
  10
 170.687088
  20
 128.813416
  30
 0.0
   0
VERTEX
   8
0
   6
Continuous
  10
 171.556717
  20
 130.953125
  30
 0.0
   0
VERTEX
   8
0
   6
Continuous
  10
 166.890213
  20
 129.149323
  30
 0.0
   0
VERTEX
   8
0
   6
Continuous
  10
 159.684402
  20
 126.589630
  30
 0.0
   0
VERTEX
   8
0
   6
Continuous
  10
 158.056808
  20
 125.321526
  30
 0.0
   0
VERTEX
   8
0
   6
Continuous
  10
 157.577988
  20
 125.193527
  30
 0.0
   0
VERTEX
   8
0
   6
Continuous
  10
 159.013504
  20
 128.022125
  30
 0.0
   0
VERTEX
   8
0
   6
Continuous
  10
 159.314316
  20
 129.871826
  30
 0.0
   0
VERTEX
   8
0
   6
Continuous
  10
 159.795914
  20
 131.506531
  30
 0.0
   0
VERTEX
   8
0
   6
Continuous
  10
 162.086807
  20
 136.979828
  30
 0.0
   0
VERTEX
   8
0
   6
Continuous
  10
 164.734299
  20
 141.234131
  30
 0.0
   0
VERTEX
   8
0
   6
Continuous
  10
 168.564987
  20
 145.245117
  30
 0.0
   0
VERTEX
   8
0
   6
Continuous
  10
 168.823715
  20
 145.654114
  30
 0.0
   0
VERTEX
   8
0
   6
Continuous
  10
 162.586105
  20
 143.465637
  30
 0.0
   0
VERTEX
   8
0
   6
Continuous
  10
 159.552109
  20
 142.783234
  30
 0.0
   0
VERTEX
   8
0
   6
Continuous
  10
 154.188004
  20
 142.269226
  30
 0.0
   0
VERTEX
   8
0
   6
Continuous
  10
 147.796310
  20
 141.793518
  30
 0.0
   0
VERTEX
   8
0
   6
Continuous
  10
 145.462509
  20
 141.401825
  30
 0.0
   0
VERTEX
   8
0
   6
Continuous
  10
 143.180405
  20
 140.775421
  30
 0.0
   0
VERTEX
   8
0
   6
Continuous
  10
 138.646408
  20
 138.776825
  30
 0.0
   0
VERTEX
   8
0
   6
Continuous
  10
 138.144394
  20
 138.806427
  30
 0.0
   0
VERTEX
   8
0
   6
Continuous
  10
 138.072189
  20
 139.203735
  30
 0.0
   0
VERTEX
   8
0
   6
Continuous
  10
 139.066513
  20
 140.946533
  30
 0.0
   0
VERTEX
   8
0
   6
Continuous
  10
 140.477707
  20
 142.827423
  30
 0.0
   0
VERTEX
   8
0
   6
Continuous
  10
 141.962692
  20
 144.563721
  30
 0.0
   0
VERTEX
   8
0
   6
Continuous
  10
 146.216293
  20
 147.802124
  30
 0.0
   0
VERTEX
   8
0
   6
Continuous
  10
 150.827408
  20
 150.575317
  30
 0.0
   0
VERTEX
   8
0
   6
Continuous
  10
 161.085800
  20
 156.043121
  30
 0.0
   0
VERTEX
   8
0
   6
Continuous
  10
 164.315598
  20
 158.147919
  30
 0.0
   0
VERTEX
   8
0
   6
Continuous
  10
 167.801102
  20
 160.826416
  30
 0.0
   0
VERTEX
   8
0
   6
Continuous
  10
 170.423904
  20
 163.373535
  30
 0.0
   0
VERTEX
   8
0
   6
Continuous
  10
 172.562607
  20
 165.805023
  30
 0.0
   0
VERTEX
   8
0
   6
Continuous
  10
 173.692093
  20
 167.388123
  30
 0.0
   0
VERTEX
   8
0
   6
Continuous
  10
 175.304611
  20
 170.594238
  30
 0.0
   0
VERTEX
   8
0
   6
Continuous
  10
 176.905594
  20
 174.514130
  30
 0.0
   0
VERTEX
   8
0
   6
Continuous
  10
 177.911606
  20
 177.793121
  30
 0.0
   0
VERTEX
   8
0
   6
Continuous
  10
 179.866989
  20
 187.523438
  30
 0.0
   0
VERTEX
   8
0
   6
Continuous
  10
 180.760300
  20
 191.414520
  30
 0.0
   0
VERTEX
   8
0
   6
Continuous
  10
 182.008499
  20
 195.256622
  30
 0.0
   0
VERTEX
   8
0
   6
Continuous
  10
 183.326309
  20
 198.349640
  30
 0.0
   0
VERTEX
   8
0
   6
Continuous
  10
 185.684799
  20
 202.181335
  30
 0.0
   0
VERTEX
   8
0
   6
Continuous
  10
 187.970901
  20
 205.099731
  30
 0.0
   0
VERTEX
   8
0
   6
Continuous
  10
 190.550888
  20
 207.840515
  30
 0.0
   0
VERTEX
   8
0
   6
Continuous
  10
 194.637589
  20
 211.258118
  30
 0.0
   0
VERTEX
   8
0
   6
Continuous
  10
 197.953598
  20
 213.549835
  30
 0.0
   0
VERTEX
   8
0
   6
Continuous
  10
 204.094803
  20
 216.893341
  30
 0.0
   0
VERTEX
   8
0
   6
Continuous
  10
 209.182816
  20
 219.236816
  30
 0.0
   0
VERTEX
   8
0
   6
Continuous
  10
 219.058578
  20
 222.973724
  30
 0.0
   0
VERTEX
   8
0
   6
Continuous
  10
 221.131882
  20
 223.969818
  30
 0.0
   0
VERTEX
   8
0
   6
Continuous
  10
 224.494614
  20
 226.049622
  30
 0.0
   0
VERTEX
   8
0
   6
Continuous
  10
 226.207016
  20
 227.526215
  30
 0.0
   0
VERTEX
   8
0
   6
Continuous
  10
 228.801498
  20
 230.201416
  30
 0.0
   0
VERTEX
   8
0
   6
Continuous
  10
 233.384323
  20
 235.990417
  30
 0.0
   0
VERTEX
   8
0
   6
Continuous
  10
 235.728378
  20
 238.645325
  30
 0.0
   0
VERTEX
   8
0
   6
Continuous
  10
 238.392197
  20
 241.007019
  30
 0.0
   0
VERTEX
   8
0
   6
Continuous
  10
 240.295578
  20
 242.195435
  30
 0.0
   0
VERTEX
   8
0
   6
Continuous
  10
 243.319931
  20
 243.499329
  30
 0.0
   0
VERTEX
   8
0
   6
Continuous
  10
 245.152206
  20
 249.509644
  30
 0.0
   0
VERTEX
   8
0
   6
Continuous
  10
 287.362732
  20
 249.362030
  30
 0.0
   0
VERTEX
   8
0
   6
Continuous
  10
 288.718506
  20
 154.705536
  30
 0.0
   0
VERTEX
   8
0
   6
Continuous
  10
 282.970520
  20
 113.321831
  30
 0.0
   0
VERTEX
   8
0
   6
Continuous
  10
 294.128052
  20
 111.005531
  30
 0.0
   0
VERTEX
   8
0
   6
Continuous
  10
 294.163147
  20
 110.713028
  30
 0.0
   0
VERTEX
   8
0
   6
Continuous
  10
 292.393250
  20
 110.010429
  30
 0.0
   0
VERTEX
   8
0
   6
Continuous
  10
 288.959900
  20
 108.201027
  30
 0.0
   0
VERTEX
   8
0
   6
Continuous
  10
 285.988525
  20
 105.667831
  30
 0.0
   0
VERTEX
   8
0
   6
Continuous
  10
 283.506897
  20
 102.391525
  30
 0.0
   0
VERTEX
   8
0
   6
Continuous
  10
 282.184937
  20
 100.108665
  30
 0.0
   0
VERTEX
   8
0
   6
Continuous
  10
 281.242798
  20
 96.959076
  30
 0.0
   0
VERTEX
   8
0
   6
Continuous
  10
 280.932617
  20
 95.381432
  30
 0.0
   0
VERTEX
   8
0
   6
Continuous
  10
 280.951355
  20
 93.755272
  30
 0.0
   0
VERTEX
   8
0
   6
Continuous
  10
 281.746643
  20
 88.627380
  30
 0.0
   0
VERTEX
   8
0
   6
Continuous
  10
 283.293335
  20
 85.104919
  30
 0.0
   0
VERTEX
   8
0
   6
Continuous
  10
 285.352417
  20
 81.809135
  30
 0.0
   0
VERTEX
   8
0
   6
Continuous
  10
 284.924805
  20
 81.744156
  30
 0.0
   0
VERTEX
   8
0
   6
Continuous
  10
 282.178101
  20
 82.074982
  30
 0.0
   0
VERTEX
   8
0
   6
Continuous
  10
 279.548401
  20
 82.040405
  30
 0.0
   0
VERTEX
   8
0
   6
Continuous
  10
 275.966248
  20
 81.205795
  30
 0.0
   0
VERTEX
   8
0
   6
Continuous
  10
 272.542297
  20
 79.790642
  30
 0.0
   0
VERTEX
   8
0
   6
Continuous
  10
 269.222351
  20
 77.576897
  30
 0.0
   0
VERTEX
   8
0
   6
Continuous
  10
 266.387512
  20
 75.072845
  30
 0.0
   0
VERTEX
   8
0
   6
Continuous
  10
 263.087402
  20
 70.364342
  30
 0.0
   0
VERTEX
   8
0
   6
Continuous
  10
 261.860229
  20
 67.222862
  30
 0.0
   0
VERTEX
   8
0
   6
Continuous
  10
 261.283813
  20
 64.409592
  30
 0.0
   0
VERTEX
   8
0
   6
Continuous
  10
 261.414490
  20
 62.113598
  30
 0.0
   0
VERTEX
   8
0
   6
Continuous
  10
 262.283203
  20
 58.195320
  30
 0.0
   0
VERTEX
   8
0
   6
Continuous
  10
 263.589294
  20
 55.809269
  30
 0.0
   0
VERTEX
   8
0
   6
Continuous
  10
 264.317627
  20
 54.870468
  30
 0.0
   0
VERTEX
   8
0
   6
Continuous
  10
 264.270630
  20
 54.512569
  30
 0.0
   0
VERTEX
   8
0
   6
Continuous
  10
 262.358215
  20
 54.861057
  30
 0.0
   0
VERTEX
   8
0
   6
Continuous
  10
 258.741821
  20
 54.561668
  30
 0.0
   0
VERTEX
   8
0
   6
Continuous
  10
 254.972092
  20
 53.588589
  30
 0.0
   0
VERTEX
   8
0
   6
Continuous
  10
 251.357773
  20
 51.504658
  30
 0.0
   0
VERTEX
   8
0
   6
Continuous
  10
 249.177719
  20
 49.821560
  30
 0.0
   0
VERTEX
   8
0
   6
Continuous
  10
 247.201401
  20
 47.594997
  30
 0.0
   0
VERTEX
   8
0
   6
Continuous
  10
 245.371872
  20
 44.473610
  30
 0.0
   0
VERTEX
   8
0
   6
Continuous
  10
 244.865402
  20
 41.611519
  30
 0.0
   0
VERTEX
   8
0
   6
Continuous
  10
 245.273483
  20
 38.730797
  30
 0.0
   0
VERTEX
   8
0
   6
Continuous
  10
 246.136826
  20
 36.811348
  30
 0.0
   0
VERTEX
   8
0
   6
Continuous
  10
 247.757675
  20
 34.440479
  30
 0.0
   0
VERTEX
   8
0
   6
Continuous
  10
 247.524094
  20
 34.113678
  30
 0.0
   0
VERTEX
   8
0
   6
Continuous
  10
 243.912094
  20
 34.775177
  30
 0.0
   0
VERTEX
   8
0
   6
Continuous
  10
 242.223618
  20
 34.639179
  30
 0.0
   0
VERTEX
   8
0
   6
Continuous
  10
 240.273727
  20
 33.797230
  30
 0.0
   0
VERTEX
   8
0
   6
Continuous
  10
 237.925705
  20
 32.231449
  30
 0.0
   0
VERTEX
   8
0
   6
Continuous
  10
 235.781723
  20
 30.122128
  30
 0.0
   0
VERTEX
   8
0
   6
Continuous
  10
 234.935104
  20
 28.910038
  30
 0.0
   0
VERTEX
   8
0
   6
Continuous
  10
 234.702194
  20
 23.861759
  30
 0.0
   0
VERTEX
   8
0
   6
Continuous
  10
 233.960617
  20
 22.451738
  30
 0.0
   0
VERTEX
   8
0
   6
Continuous
  10
 232.447678
  20
 21.837109
  30
 0.0
   0
VERTEX
   8
0
   6
Continuous
  10
 230.483627
  20
 21.869198
  30
 0.0
   0
VERTEX
   8
0
   6
Continuous
  10
 227.299118
  20
 23.621639
  30
 0.0
   0
VERTEX
   8
0
   6
Continuous
  10
 225.351608
  20
 24.197708
  30
 0.0
   0
VERTEX
   8
0
   6
Continuous
  10
 222.548630
  20
 22.935459
  30
 0.0
   0
VERTEX
   8
0
   6
Continuous
  10
 220.203110
  20
 20.966978
  30
 0.0
   0
VERTEX
   8
0
   6
Continuous
  10
 218.393295
  20
 18.624159
  30
 0.0
   0
VERTEX
   8
0
   6
Continuous
  10
 216.869675
  20
 16.002878
  30
 0.0
   0
VERTEX
   8
0
   6
Continuous
  10
 216.220383
  20
 17.519539
  30
 0.0
   0
VERTEX
   8
0
   6
Continuous
  10
 214.637985
  20
 19.843769
  30
 0.0
   0
VERTEX
   8
0
   6
Continuous
  10
 213.009598
  20
 21.241938
  30
 0.0
   0
VERTEX
   8
0
   6
Continuous
  10
 210.480301
  20
 22.490519
  30
 0.0
   0
VERTEX
   8
0
   6
Continuous
  10
 207.376816
  20
 22.932709
  30
 0.0
   0
VERTEX
   8
0
   6
Continuous
  10
 203.576187
  20
 22.365078
  30
 0.0
   0
VERTEX
   8
0
   6
Continuous
  10
 200.800217
  20
 21.298748
  30
 0.0
   0
VERTEX
   8
0
   6
Continuous
  10
 197.688095
  20
 19.598328
  30
 0.0
   0
VERTEX
   8
0
   6
Continuous
  10
 196.112198
  20
 18.361879
  30
 0.0
   0
VERTEX
   8
0
   6
Continuous
  10
 193.268387
  20
 15.338778
  30
 0.0
   0
VERTEX
   8
0
   6
Continuous
  10
 192.061600
  20
 12.975338
  30
 0.0
   0
VERTEX
   8
0
   6
Continuous
  10
 191.316208
  20
 11.300928
  30
 0.0
   0
VERTEX
   8
0
   6
Continuous
  10
 189.209702
  20
 14.430808
  30
 0.0
   0
VERTEX
   8
0
   6
Continuous
  10
 186.252304
  20
 17.368788
  30
 0.0
   0
VERTEX
   8
0
   6
Continuous
  10
 183.793198
  20
 18.725399
  30
 0.0
   0
VERTEX
   8
0
   6
Continuous
  10
 180.239792
  20
 19.949999
  30
 0.0
   0
VERTEX
   8
0
   6
Continuous
  10
 177.048813
  20
 20.259838
  30
 0.0
   0
VERTEX
   8
0
   6
Continuous
  10
 174.144699
  20
 20.115088
  30
 0.0
   0
VERTEX
   8
0
   6
Continuous
  10
 171.067612
  20
 19.429619
  30
 0.0
   0
VERTEX
   8
0
   6
Continuous
  10
 166.610794
  20
 17.533949
  30
 0.0
   0
VERTEX
   8
0
   6
Continuous
  10
 164.958817
  20
 16.469337
  30
 0.0
   0
VERTEX
   8
0
   6
Continuous
  10
 162.468216
  20
 14.416018
  30
 0.0
   0
VERTEX
   8
0
   6
Continuous
  10
 160.287613
  20
 11.530648
  30
 0.0
   0
VERTEX
   8
0
   6
Continuous
  10
 157.942703
  20
 7.481740
  30
 0.0
   0
VERTEX
   8
0
   6
Continuous
  10
 157.240616
  20
 6.689735
  30
 0.0
   0
VERTEX
   8
0
   6
Continuous
  10
 155.735092
  20
 9.262348
  30
 0.0
   0
VERTEX
   8
0
   6
Continuous
  10
 154.359695
  20
 11.309388
  30
 0.0
   0
VERTEX
   8
0
   6
Continuous
  10
 152.083298
  20
 13.787759
  30
 0.0
   0
VERTEX
   8
0
   6
Continuous
  10
 149.169693
  20
 15.927958
  30
 0.0
   0
VERTEX
   8
0
   6
Continuous
  10
 146.381302
  20
 17.386978
  30
 0.0
   0
VERTEX
   8
0
   6
Continuous
  10
 143.787399
  20
 17.977108
  30
 0.0
   0
VERTEX
   8
0
   6
Continuous
  10
 141.086990
  20
 18.120369
  30
 0.0
   0
VERTEX
   8
0
   6
Continuous
  10
 139.871811
  20
 18.288029
  30
 0.0
   0
VERTEX
   8
0
   6
Continuous
  10
 138.492294
  20
 18.143389
  30
 0.0
   0
VERTEX
   8
0
   6
Continuous
  10
 135.710098
  20
 17.482899
  30
 0.0
   0
VERTEX
   8
0
   6
Continuous
  10
 133.145889
  20
 16.468988
  30
 0.0
   0
VERTEX
   8
0
   6
Continuous
  10
 130.940506
  20
 15.204288
  30
 0.0
   0
VERTEX
   8
0
   6
Continuous
  10
 128.913101
  20
 13.829349
  30
 0.0
   0
VERTEX
   8
0
   6
Continuous
  10
 127.858994
  20
 12.999859
  30
 0.0
   0
VERTEX
   8
0
   6
Continuous
  10
 127.550186
  20
 13.012508
  30
 0.0
   0
VERTEX
   8
0
   6
Continuous
  10
 128.245010
  20
 16.286327
  30
 0.0
   0
VERTEX
   8
0
   6
Continuous
  10
 129.993607
  20
 21.277378
  30
 0.0
   0
VERTEX
   8
0
   6
Continuous
  10
 134.166794
  20
 31.388308
  30
 0.0
   0
VERTEX
   8
0
   6
Continuous
  10
 136.237198
  20
 35.553230
  30
 0.0
   0
VERTEX
   8
0
   6
Continuous
  10
 138.394211
  20
 38.855919
  30
 0.0
   0
VERTEX
   8
0
   6
Continuous
  10
 141.309311
  20
 42.029640
  30
 0.0
   0
VERTEX
   8
0
   6
Continuous
  10
 144.523209
  20
 44.584408
  30
 0.0
   0
VERTEX
   8
0
   6
Continuous
  10
 146.703506
  20
 45.875988
  30
 0.0
   0
VERTEX
   8
0
   6
Continuous
  10
 150.980606
  20
 48.097908
  30
 0.0
   0
VERTEX
   8
0
   6
Continuous
  10
 154.477188
  20
 49.061417
  30
 0.0
   0
VERTEX
   8
0
   6
Continuous
  10
 156.265213
  20
 49.806210
  30
 0.0
   0
VERTEX
   8
0
   6
Continuous
  10
 157.591507
  20
 49.775288
  30
 0.0
   0
VERTEX
   8
0
   6
Continuous
  10
 161.387405
  20
 50.044559
  30
 0.0
   0
VERTEX
   8
0
   6
Continuous
  10
 164.661392
  20
 49.854099
  30
 0.0
   0
VERTEX
   8
0
   6
Continuous
  10
 168.875290
  20
 49.287819
  30
 0.0
   0
VERTEX
   8
0
   6
Continuous
  10
 179.650589
  20
 46.638828
  30
 0.0
   0
VERTEX
   8
0
   6
Continuous
  10
 182.458389
  20
 46.067970
  30
 0.0
   0
VERTEX
   8
0
   6
Continuous
  10
 188.213791
  20
 45.126247
  30
 0.0
   0
VERTEX
   8
0
   6
Continuous
  10
 196.261612
  20
 44.597000
  30
 0.0
   0
VERTEX
   8
0
   6
Continuous
  10
 200.892410
  20
 44.914017
  30
 0.0
   0
VERTEX
   8
0
   6
Continuous
  10
 207.504807
  20
 45.950607
  30
 0.0
   0
VERTEX
   8
0
   6
Continuous
  10
 208.309097
  20
 46.329250
  30
 0.0
   0
VERTEX
   8
0
   6
Continuous
  10
 208.193802
  20
 47.060108
  30
 0.0
   0
VERTEX
   8
0
   6
Continuous
  10
 206.544601
  20
 48.700199
  30
 0.0
   0
VERTEX
   8
0
   6
Continuous
  10
 203.296097
  20
 51.221508
  30
 0.0
   0
VERTEX
   8
0
   6
Continuous
  10
 201.886093
  20
 53.145428
  30
 0.0
   0
VERTEX
   8
0
   6
Continuous
  10
 201.991898
  20
 53.587460
  30
 0.0
   0
VERTEX
   8
0
   6
Continuous
  10
 205.271988
  20
 54.048969
  30
 0.0
   0
VERTEX
   8
0
   6
Continuous
  10
 207.327896
  20
 54.616398
  30
 0.0
   0
VERTEX
   8
0
   6
Continuous
  10
 208.421707
  20
 56.457657
  30
 0.0
   0
VERTEX
   8
0
   6
Continuous
  10
 209.738602
  20
 57.942329
  30
 0.0
   0
VERTEX
   8
0
   6
Continuous
  10
 211.507889
  20
 59.311329
  30
 0.0
   0
VERTEX
   8
0
   6
Continuous
  10
 213.407608
  20
 60.188320
  30
 0.0
   0
VERTEX
   8
0
   6
Continuous
  10
 216.652878
  20
 60.594967
  30
 0.0
   0
VERTEX
   8
0
   6
Continuous
  10
 217.902878
  20
 61.055229
  30
 0.0
   0
VERTEX
   8
0
   6
Continuous
  10
 221.111008
  20
 64.778915
  30
 0.0
   0
VERTEX
   8
0
   6
Continuous
  10
 221.934372
  20
 63.265358
  30
 0.0
   0
VERTEX
   8
0
   6
Continuous
  10
 223.108383
  20
 57.489429
  30
 0.0
   0
VERTEX
   8
0
   6
Continuous
  10
 223.941818
  20
 56.014637
  30
 0.0
   0
VERTEX
   8
0
   6
Continuous
  10
 224.653427
  20
 55.964878
  30
 0.0
   0
VERTEX
   8
0
   6
Continuous
  10
 227.275986
  20
 58.313030
  30
 0.0
   0
VERTEX
   8
0
   6
Continuous
  10
 229.759201
  20
 61.187267
  30
 0.0
   0
VERTEX
   8
0
   6
Continuous
  10
 232.702072
  20
 65.744545
  30
 0.0
   0
VERTEX
   8
0
   6
Continuous
  10
 234.170578
  20
 68.726700
  30
 0.0
   0
VERTEX
   8
0
   6
Continuous
  10
 236.197311
  20
 73.924210
  30
 0.0
   0
VERTEX
   8
0
   6
Continuous
  10
 238.484726
  20
 81.344597
  30
 0.0
   0
VERTEX
   8
0
   6
Continuous
  10
 240.729599
  20
 89.396080
  30
 0.0
   0
VERTEX
   8
0
   6
Continuous
  10
 242.332382
  20
 93.887741
  30
 0.0
   0
VERTEX
   8
0
   6
Continuous
  10
 244.497910
  20
 98.787766
  30
 0.0
   0
VERTEX
   8
0
   6
Continuous
  10
 247.217026
  20
 102.900230
  30
 0.0
   0
VERTEX
   8
0
   6
Continuous
  10
 250.565903
  20
 106.572632
  30
 0.0
   0
VERTEX
   8
0
   6
Continuous
  10
 254.166183
  20
 109.592331
  30
 0.0
   0
VERTEX
   8
0
   6
Continuous
  10
 258.337891
  20
 111.963928
  30
 0.0
   0
VERTEX
   8
0
   6
Continuous
  10
 263.516602
  20
 113.756126
  30
 0.0
   0
VERTEX
   8
0
   6
Continuous
  10
 266.297729
  20
 114.414825
  30
 0.0
   0
VERTEX
   8
0
   6
Continuous
  10
 267.886597
  20
 114.394226
  30
 0.0
   0
VERTEX
   8
0
   6
Continuous
  10
 271.668335
  20
 114.643425
  30
 0.0
   0
VERTEX
   8
0
   6
Continuous
  10
 275.352722
  20
 114.466728
  30
 0.0
   0
VERTEX
   8
0
   6
Continuous
  10
 278.691406
  20
 114.081825
  30
 0.0
   0
VERTEX
   8
0
   6
Continuous
  10
 282.970520
  20
 113.321831
  30
 0.0
   0
VERTEX
   8
0
   6
Continuous
  10
 291.387024
  20
 119.986229
  30
 0.0
   0
SEQEND
   0
ENDSEC
   0
EOF
