   0
SECTION
   2
ENTITIES
   0
POLYLINE
   8
0
  66
 1
   6
Continuous
  10
 0.0
  20
 0.0
  30
 0.0
  70
 128
   0
VERTEX
   8
0
   6
Continuous
  10
 20.250645
  20
 59.763710
  30
 0.0
   0
VERTEX
   8
0
   6
Continuous
  10
 20.148525
  20
 57.415909
  30
 0.0
   0
VERTEX
   8
0
   6
Continuous
  10
 20.366428
  20
 55.453789
  30
 0.0
   0
VERTEX
   8
0
   6
Continuous
  10
 20.861797
  20
 53.807846
  30
 0.0
   0
VERTEX
   8
0
   6
Continuous
  10
 21.596279
  20
 52.447395
  30
 0.0
   0
VERTEX
   8
0
   6
Continuous
  10
 22.586220
  20
 51.292809
  30
 0.0
   0
VERTEX
   8
0
   6
Continuous
  10
 23.897202
  20
 50.304123
  30
 0.0
   0
VERTEX
   8
0
   6
Continuous
  10
 25.488359
  20
 49.541565
  30
 0.0
   0
VERTEX
   8
0
   6
Continuous
  10
 27.543591
  20
 48.967690
  30
 0.0
   0
VERTEX
   8
0
   6
Continuous
  10
 30.038755
  20
 48.656319
  30
 0.0
   0
VERTEX
   8
0
   6
Continuous
  10
 32.785034
  20
 48.645248
  30
 0.0
   0
VERTEX
   8
0
   6
Continuous
  10
 41.765106
  20
 49.408401
  30
 0.0
   0
VERTEX
   8
0
   6
Continuous
  10
 44.064316
  20
 49.329262
  30
 0.0
   0
VERTEX
   8
0
   6
Continuous
  10
 45.961151
  20
 48.947327
  30
 0.0
   0
VERTEX
   8
0
   6
Continuous
  10
 47.526348
  20
 48.300644
  30
 0.0
   0
VERTEX
   8
0
   6
Continuous
  10
 48.790836
  20
 47.423096
  30
 0.0
   0
VERTEX
   8
0
   6
Continuous
  10
 49.824467
  20
 46.292847
  30
 0.0
   0
VERTEX
   8
0
   6
Continuous
  10
 50.585735
  20
 44.983238
  30
 0.0
   0
VERTEX
   8
0
   6
Continuous
  10
 51.369762
  20
 42.525414
  30
 0.0
   0
VERTEX
   8
0
   6
Continuous
  10
 52.782299
  20
 36.372459
  30
 0.0
   0
VERTEX
   8
0
   6
Continuous
  10
 53.614727
  20
 31.964546
  30
 0.0
   0
VERTEX
   8
0
   6
Continuous
  10
 53.556553
  20
 30.613174
  30
 0.0
   0
VERTEX
   8
0
   6
Continuous
  10
 53.171532
  20
 29.343231
  30
 0.0
   0
VERTEX
   8
0
   6
Continuous
  10
 52.461391
  20
 28.193863
  30
 0.0
   0
VERTEX
   8
0
   6
Continuous
  10
 51.376396
  20
 27.124367
  30
 0.0
   0
VERTEX
   8
0
   6
Continuous
  10
 49.853073
  20
 26.138268
  30
 0.0
   0
VERTEX
   8
0
   6
Continuous
  10
 47.859890
  20
 25.270340
  30
 0.0
   0
VERTEX
   8
0
   6
Continuous
  10
 45.293556
  20
 24.545403
  30
 0.0
   0
VERTEX
   8
0
   6
Continuous
  10
 42.300056
  20
 24.082573
  30
 0.0
   0
VERTEX
   8
0
   6
Continuous
  10
 38.951260
  20
 23.921532
  30
 0.0
   0
VERTEX
   8
0
   6
Continuous
  10
 35.289227
  20
 24.062538
  30
 0.0
   0
VERTEX
   8
0
   6
Continuous
  10
 33.166550
  20
 24.406662
  30
 0.0
   0
VERTEX
   8
0
   6
Continuous
  10
 32.092186
  20
 24.832069
  30
 0.0
   0
VERTEX
   8
0
   6
Continuous
  10
 31.636055
  20
 25.272026
  30
 0.0
   0
VERTEX
   8
0
   6
Continuous
  10
 31.548332
  20
 25.747932
  30
 0.0
   0
VERTEX
   8
0
   6
Continuous
  10
 31.871748
  20
 26.146324
  30
 0.0
   0
VERTEX
   8
0
   6
Continuous
  10
 33.028831
  20
 26.724464
  30
 0.0
   0
VERTEX
   8
0
   6
Continuous
  10
 37.581760
  20
 28.455673
  30
 0.0
   0
VERTEX
   8
0
   6
Continuous
  10
 40.223488
  20
 29.741776
  30
 0.0
   0
VERTEX
   8
0
   6
Continuous
  10
 42.065586
  20
 31.007988
  30
 0.0
   0
VERTEX
   8
0
   6
Continuous
  10
 43.422215
  20
 32.316849
  30
 0.0
   0
VERTEX
   8
0
   6
Continuous
  10
 44.376816
  20
 33.677834
  30
 0.0
   0
VERTEX
   8
0
   6
Continuous
  10
 44.969738
  20
 35.080063
  30
 0.0
   0
VERTEX
   8
0
   6
Continuous
  10
 45.244564
  20
 36.574524
  30
 0.0
   0
VERTEX
   8
0
   6
Continuous
  10
 45.199757
  20
 37.898087
  30
 0.0
   0
VERTEX
   8
0
   6
Continuous
  10
 44.825741
  20
 39.002998
  30
 0.0
   0
VERTEX
   8
0
   6
Continuous
  10
 44.121300
  20
 39.999062
  30
 0.0
   0
VERTEX
   8
0
   6
Continuous
  10
 43.031540
  20
 40.924873
  30
 0.0
   0
VERTEX
   8
0
   6
Continuous
  10
 41.447392
  20
 41.794579
  30
 0.0
   0
VERTEX
   8
0
   6
Continuous
  10
 39.356819
  20
 42.529922
  30
 0.0
   0
VERTEX
   8
0
   6
Continuous
  10
 36.788708
  20
 43.043518
  30
 0.0
   0
VERTEX
   8
0
   6
Continuous
  10
 33.691967
  20
 43.297897
  30
 0.0
   0
VERTEX
   8
0
   6
Continuous
  10
 29.865046
  20
 43.247841
  30
 0.0
   0
VERTEX
   8
0
   6
Continuous
  10
 26.138134
  20
 42.879463
  30
 0.0
   0
VERTEX
   8
0
   6
Continuous
  10
 23.531757
  20
 42.307152
  30
 0.0
   0
VERTEX
   8
0
   6
Continuous
  10
 21.390944
  20
 41.525673
  30
 0.0
   0
VERTEX
   8
0
   6
Continuous
  10
 19.625393
  20
 40.556732
  30
 0.0
   0
VERTEX
   8
0
   6
Continuous
  10
 18.139675
  20
 39.371635
  30
 0.0
   0
VERTEX
   8
0
   6
Continuous
  10
 16.988937
  20
 38.035660
  30
 0.0
   0
VERTEX
   8
0
   6
Continuous
  10
 16.212608
  20
 36.628082
  30
 0.0
   0
VERTEX
   8
0
   6
Continuous
  10
 15.762300
  20
 35.098778
  30
 0.0
   0
VERTEX
   8
0
   6
Continuous
  10
 15.637690
  20
 33.615623
  30
 0.0
   0
VERTEX
   8
0
   6
Continuous
  10
 15.817864
  20
 31.908455
  30
 0.0
   0
VERTEX
   8
0
   6
Continuous
  10
 16.337797
  20
 30.265587
  30
 0.0
   0
VERTEX
   8
0
   6
Continuous
  10
 17.197483
  20
 28.687347
  30
 0.0
   0
VERTEX
   8
0
   6
Continuous
  10
 18.459515
  20
 27.106819
  30
 0.0
   0
VERTEX
   8
0
   6
Continuous
  10
 20.185633
  20
 25.523033
  30
 0.0
   0
VERTEX
   8
0
   6
Continuous
  10
 22.573219
  20
 23.857574
  30
 0.0
   0
VERTEX
   8
0
   6
Continuous
  10
 25.125948
  20
 22.497654
  30
 0.0
   0
VERTEX
   8
0
   6
Continuous
  10
 27.944166
  20
 21.386448
  30
 0.0
   0
VERTEX
   8
0
   6
Continuous
  10
 31.181025
  20
 20.488464
  30
 0.0
   0
VERTEX
   8
0
   6
Continuous
  10
 34.875862
  20
 19.840126
  30
 0.0
   0
VERTEX
   8
0
   6
Continuous
  10
 39.069714
  20
 19.479359
  30
 0.0
   0
VERTEX
   8
0
   6
Continuous
  10
 43.786098
  20
 19.440956
  30
 0.0
   0
VERTEX
   8
0
   6
Continuous
  10
 48.524200
  20
 19.720924
  30
 0.0
   0
VERTEX
   8
0
   6
Continuous
  10
 52.735931
  20
 20.287586
  30
 0.0
   0
VERTEX
   8
0
   6
Continuous
  10
 56.462234
  20
 21.105946
  30
 0.0
   0
VERTEX
   8
0
   6
Continuous
  10
 59.878490
  20
 22.193066
  30
 0.0
   0
VERTEX
   8
0
   6
Continuous
  10
 62.861866
  20
 23.487083
  30
 0.0
   0
VERTEX
   8
0
   6
Continuous
  10
 65.405930
  20
 24.936287
  30
 0.0
   0
VERTEX
   8
0
   6
Continuous
  10
 67.494919
  20
 26.480598
  30
 0.0
   0
VERTEX
   8
0
   6
Continuous
  10
 69.249489
  20
 28.180779
  30
 0.0
   0
VERTEX
   8
0
   6
Continuous
  10
 70.612038
  20
 29.949097
  30
 0.0
   0
VERTEX
   8
0
   6
Continuous
  10
 71.669281
  20
 31.859451
  30
 0.0
   0
VERTEX
   8
0
   6
Continuous
  10
 72.420944
  20
 33.911850
  30
 0.0
   0
VERTEX
   8
0
   6
Continuous
  10
 73.161705
  20
 37.026024
  30
 0.0
   0
VERTEX
   8
0
   6
Continuous
  10
 74.269096
  20
 34.269836
  30
 0.0
   0
VERTEX
   8
0
   6
Continuous
  10
 75.688972
  20
 31.620644
  30
 0.0
   0
VERTEX
   8
0
   6
Continuous
  10
 77.402649
  20
 29.133682
  30
 0.0
   0
VERTEX
   8
0
   6
Continuous
  10
 79.455330
  20
 26.760887
  30
 0.0
   0
VERTEX
   8
0
   6
Continuous
  10
 81.706238
  20
 24.665115
  30
 0.0
   0
VERTEX
   8
0
   6
Continuous
  10
 84.050758
  20
 22.942955
  30
 0.0
   0
VERTEX
   8
0
   6
Continuous
  10
 86.437965
  20
 21.598457
  30
 0.0
   0
VERTEX
   8
0
   6
Continuous
  10
 88.946129
  20
 20.566856
  30
 0.0
   0
VERTEX
   8
0
   6
Continuous
  10
 91.574844
  20
 19.848347
  30
 0.0
   0
VERTEX
   8
0
   6
Continuous
  10
 94.323692
  20
 19.443134
  30
 0.0
   0
VERTEX
   8
0
   6
Continuous
  10
 97.327713
  20
 19.349396
  30
 0.0
   0
VERTEX
   8
0
   6
Continuous
  10
 101.145569
  20
 19.539032
  30
 0.0
   0
VERTEX
   8
0
   6
Continuous
  10
 102.135017
  20
 19.632862
  30
 0.0
   0
VERTEX
   8
0
   6
Continuous
  10
 100.424538
  20
 28.653053
  30
 0.0
   0
VERTEX
   8
0
   6
Continuous
  10
 98.438332
  20
 28.237762
  30
 0.0
   0
VERTEX
   8
0
   6
Continuous
  10
 95.566895
  20
 27.996597
  30
 0.0
   0
VERTEX
   8
0
   6
Continuous
  10
 93.801384
  20
 28.154083
  30
 0.0
   0
VERTEX
   8
0
   6
Continuous
  10
 91.455070
  20
 28.727661
  30
 0.0
   0
VERTEX
   8
0
   6
Continuous
  10
 88.801567
  20
 29.700363
  30
 0.0
   0
VERTEX
   8
0
   6
Continuous
  10
 86.401772
  20
 30.924118
  30
 0.0
   0
VERTEX
   8
0
   6
Continuous
  10
 84.223427
  20
 32.402245
  30
 0.0
   0
VERTEX
   8
0
   6
Continuous
  10
 82.151306
  20
 34.220596
  30
 0.0
   0
VERTEX
   8
0
   6
Continuous
  10
 80.574844
  20
 36.012001
  30
 0.0
   0
VERTEX
   8
0
   6
Continuous
  10
 79.422272
  20
 37.795731
  30
 0.0
   0
VERTEX
   8
0
   6
Continuous
  10
 78.653175
  20
 39.566513
  30
 0.0
   0
VERTEX
   8
0
   6
Continuous
  10
 78.218140
  20
 41.390236
  30
 0.0
   0
VERTEX
   8
0
   6
Continuous
  10
 78.115898
  20
 43.260002
  30
 0.0
   0
VERTEX
   8
0
   6
Continuous
  10
 78.348610
  20
 45.257019
  30
 0.0
   0
VERTEX
   8
0
   6
Continuous
  10
 78.892090
  20
 47.089539
  30
 0.0
   0
VERTEX
   8
0
   6
Continuous
  10
 79.795769
  20
 48.924156
  30
 0.0
   0
VERTEX
   8
0
   6
Continuous
  10
 81.042389
  20
 50.675766
  30
 0.0
   0
VERTEX
   8
0
   6
Continuous
  10
 82.708855
  20
 52.415031
  30
 0.0
   0
VERTEX
   8
0
   6
Continuous
  10
 84.742134
  20
 54.048622
  30
 0.0
   0
VERTEX
   8
0
   6
Continuous
  10
 87.051552
  20
 55.465591
  30
 0.0
   0
VERTEX
   8
0
   6
Continuous
  10
 89.542274
  20
 56.589844
  30
 0.0
   0
VERTEX
   8
0
   6
Continuous
  10
 92.214302
  20
 57.421387
  30
 0.0
   0
VERTEX
   8
0
   6
Continuous
  10
 95.195793
  20
 57.977005
  30
 0.0
   0
VERTEX
   8
0
   6
Continuous
  10
 98.374687
  20
 58.213921
  30
 0.0
   0
VERTEX
   8
0
   6
Continuous
  10
 102.431458
  20
 58.118484
  30
 0.0
   0
VERTEX
   8
0
   6
Continuous
  10
 105.963203
  20
 57.720108
  30
 0.0
   0
VERTEX
   8
0
   6
Continuous
  10
 108.999634
  20
 57.059349
  30
 0.0
   0
VERTEX
   8
0
   6
Continuous
  10
 111.585190
  20
 56.171822
  30
 0.0
   0
VERTEX
   8
0
   6
Continuous
  10
 113.762375
  20
 55.091599
  30
 0.0
   0
VERTEX
   8
0
   6
Continuous
  10
 115.655479
  20
 53.783745
  30
 0.0
   0
VERTEX
   8
0
   6
Continuous
  10
 117.261398
  20
 52.254974
  30
 0.0
   0
VERTEX
   8
0
   6
Continuous
  10
 118.419548
  20
 50.721283
  30
 0.0
   0
VERTEX
   8
0
   6
Continuous
  10
 119.227577
  20
 49.130386
  30
 0.0
   0
VERTEX
   8
0
   6
Continuous
  10
 119.719055
  20
 47.444046
  30
 0.0
   0
VERTEX
   8
0
   6
Continuous
  10
 119.894989
  20
 45.590660
  30
 0.0
   0
VERTEX
   8
0
   6
Continuous
  10
 119.740257
  20
 43.036461
  30
 0.0
   0
VERTEX
   8
0
   6
Continuous
  10
 119.293968
  20
 40.796059
  30
 0.0
   0
VERTEX
   8
0
   6
Continuous
  10
 118.556023
  20
 38.759987
  30
 0.0
   0
VERTEX
   8
0
   6
Continuous
  10
 117.569748
  20
 36.992271
  30
 0.0
   0
VERTEX
   8
0
   6
Continuous
  10
 116.313026
  20
 35.413704
  30
 0.0
   0
VERTEX
   8
0
   6
Continuous
  10
 114.721710
  20
 33.974434
  30
 0.0
   0
VERTEX
   8
0
   6
Continuous
  10
 112.838737
  20
 32.738785
  30
 0.0
   0
VERTEX
   8
0
   6
Continuous
  10
 111.985176
  20
 32.302116
  30
 0.0
   0
VERTEX
   8
0
   6
Continuous
  10
 113.389572
  20
 34.845947
  30
 0.0
   0
VERTEX
   8
0
   6
Continuous
  10
 114.141151
  20
 36.781914
  30
 0.0
   0
VERTEX
   8
0
   6
Continuous
  10
 114.422791
  20
 38.275734
  30
 0.0
   0
VERTEX
   8
0
   6
Continuous
  10
 114.334900
  20
 40.144615
  30
 0.0
   0
VERTEX
   8
0
   6
Continuous
  10
 113.951469
  20
 41.810425
  30
 0.0
   0
VERTEX
   8
0
   6
Continuous
  10
 113.279922
  20
 43.276772
  30
 0.0
   0
VERTEX
   8
0
   6
Continuous
  10
 112.320259
  20
 44.544342
  30
 0.0
   0
VERTEX
   8
0
   6
Continuous
  10
 111.085876
  20
 45.603821
  30
 0.0
   0
VERTEX
   8
0
   6
Continuous
  10
 109.548409
  20
 46.471161
  30
 0.0
   0
VERTEX
   8
0
   6
Continuous
  10
 107.719330
  20
 47.111977
  30
 0.0
   0
VERTEX
   8
0
   6
Continuous
  10
 105.509132
  20
 47.509003
  30
 0.0
   0
VERTEX
   8
0
   6
Continuous
  10
 102.935509
  20
 47.611221
  30
 0.0
   0
VERTEX
   8
0
   6
Continuous
  10
 100.648888
  20
 47.399467
  30
 0.0
   0
VERTEX
   8
0
   6
Continuous
  10
 98.560555
  20
 46.881805
  30
 0.0
   0
VERTEX
   8
0
   6
Continuous
  10
 96.713852
  20
 46.082695
  30
 0.0
   0
VERTEX
   8
0
   6
Continuous
  10
 95.076439
  20
 45.009636
  30
 0.0
   0
VERTEX
   8
0
   6
Continuous
  10
 93.581078
  20
 43.611076
  30
 0.0
   0
VERTEX
   8
0
   6
Continuous
  10
 92.376266
  20
 42.025261
  30
 0.0
   0
VERTEX
   8
0
   6
Continuous
  10
 91.495537
  20
 40.300262
  30
 0.0
   0
VERTEX
   8
0
   6
Continuous
  10
 90.916321
  20
 38.395203
  30
 0.0
   0
VERTEX
   8
0
   6
Continuous
  10
 90.649734
  20
 36.330582
  30
 0.0
   0
VERTEX
   8
0
   6
Continuous
  10
 90.699196
  20
 34.101006
  30
 0.0
   0
VERTEX
   8
0
   6
Continuous
  10
 91.037140
  20
 32.313400
  30
 0.0
   0
VERTEX
   8
0
   6
Continuous
  10
 91.660957
  20
 30.749779
  30
 0.0
   0
VERTEX
   8
0
   6
Continuous
  10
 92.625801
  20
 29.262016
  30
 0.0
   0
VERTEX
   8
0
   6
Continuous
  10
 93.233673
  20
 28.549126
  30
 0.0
   0
VERTEX
   8
0
   6
Continuous
  10
 95.146446
  20
 28.537308
  30
 0.0
   0
VERTEX
   8
0
   6
Continuous
  10
 95.555450
  20
 28.623985
  30
 0.0
   0
VERTEX
   8
0
   6
Continuous
  10
 94.571289
  20
 30.719086
  30
 0.0
   0
VERTEX
   8
0
   6
Continuous
  10
 94.128487
  20
 32.364914
  30
 0.0
   0
VERTEX
   8
0
   6
Continuous
  10
 94.045509
  20
 33.958527
  30
 0.0
   0
VERTEX
   8
0
   6
Continuous
  10
 94.283089
  20
 35.139145
  30
 0.0
   0
VERTEX
   8
0
   6
Continuous
  10
 94.802505
  20
 36.101006
  30
 0.0
   0
VERTEX
   8
0
   6
Continuous
  10
 95.622246
  20
 36.884003
  30
 0.0
   0
VERTEX
   8
0
   6
Continuous
  10
 96.753723
  20
 37.442101
  30
 0.0
   0
VERTEX
   8
0
   6
Continuous
  10
 98.053551
  20
 37.695015
  30
 0.0
   0
VERTEX
   8
0
   6
Continuous
  10
 99.493484
  20
 37.634773
  30
 0.0
   0
VERTEX
   8
0
   6
Continuous
  10
 100.661819
  20
 37.270645
  30
 0.0
   0
VERTEX
   8
0
   6
Continuous
  10
 101.608749
  20
 36.642914
  30
 0.0
   0
VERTEX
   8
0
   6
Continuous
  10
 102.407272
  20
 35.709442
  30
 0.0
   0
VERTEX
   8
0
   6
Continuous
  10
 102.929741
  20
 34.587051
  30
 0.0
   0
VERTEX
   8
0
   6
Continuous
  10
 103.172997
  20
 33.220825
  30
 0.0
   0
VERTEX
   8
0
   6
Continuous
  10
 103.101997
  20
 31.710487
  30
 0.0
   0
VERTEX
   8
0
   6
Continuous
  10
 102.639351
  20
 29.904442
  30
 0.0
   0
VERTEX
   8
0
   6
Continuous
  10
 102.464058
  20
 29.451225
  30
 0.0
   0
VERTEX
   8
0
   6
Continuous
  10
 100.495461
  20
 28.679428
  30
 0.0
   0
VERTEX
   8
0
   6
Continuous
  10
 102.191933
  20
 19.635662
  30
 0.0
   0
VERTEX
   8
0
   6
Continuous
  10
 102.617043
  20
 19.695103
  30
 0.0
   0
VERTEX
   8
0
   6
Continuous
  10
 103.099861
  20
 17.687820
  30
 0.0
   0
VERTEX
   8
0
   6
Continuous
  10
 103.806099
  20
 16.077660
  30
 0.0
   0
VERTEX
   8
0
   6
Continuous
  10
 104.711075
  20
 14.788525
  30
 0.0
   0
VERTEX
   8
0
   6
Continuous
  10
 105.838448
  20
 13.747929
  30
 0.0
   0
VERTEX
   8
0
   6
Continuous
  10
 107.225044
  20
 12.945061
  30
 0.0
   0
VERTEX
   8
0
   6
Continuous
  10
 109.083969
  20
 12.283180
  30
 0.0
   0
VERTEX
   8
0
   6
Continuous
  10
 111.468147
  20
 11.814831
  30
 0.0
   0
VERTEX
   8
0
   6
Continuous
  10
 114.639412
  20
 11.581295
  30
 0.0
   0
VERTEX
   8
0
   6
Continuous
  10
 118.116890
  20
 11.660107
  30
 0.0
   0
VERTEX
   8
0
   6
Continuous
  10
 121.173546
  20
 12.033165
  30
 0.0
   0
VERTEX
   8
0
   6
Continuous
  10
 123.847939
  20
 12.672157
  30
 0.0
   0
VERTEX
   8
0
   6
Continuous
  10
 126.142342
  20
 13.539722
  30
 0.0
   0
VERTEX
   8
0
   6
Continuous
  10
 128.096786
  20
 14.614594
  30
 0.0
   0
VERTEX
   8
0
   6
Continuous
  10
 129.612244
  20
 15.812805
  30
 0.0
   0
VERTEX
   8
0
   6
Continuous
  10
 130.749817
  20
 17.123722
  30
 0.0
   0
VERTEX
   8
0
   6
Continuous
  10
 131.576935
  20
 18.592339
  30
 0.0
   0
VERTEX
   8
0
   6
Continuous
  10
 132.093964
  20
 20.219013
  30
 0.0
   0
VERTEX
   8
0
   6
Continuous
  10
 132.288147
  20
 21.636894
  30
 0.0
   0
VERTEX
   8
0
   6
Continuous
  10
 134.362167
  20
 22.068081
  30
 0.0
   0
VERTEX
   8
0
   6
Continuous
  10
 137.016617
  20
 22.238297
  30
 0.0
   0
VERTEX
   8
0
   6
Continuous
  10
 140.359039
  20
 22.035542
  30
 0.0
   0
VERTEX
   8
0
   6
Continuous
  10
 146.851395
  20
 21.161446
  30
 0.0
   0
VERTEX
   8
0
   6
Continuous
  10
 156.043121
  20
 19.738144
  30
 0.0
   0
VERTEX
   8
0
   6
Continuous
  10
 161.323959
  20
 19.208195
  30
 0.0
   0
VERTEX
   8
0
   6
Continuous
  10
 164.924057
  20
 19.129311
  30
 0.0
   0
VERTEX
   8
0
   6
Continuous
  10
 167.860138
  20
 19.391869
  30
 0.0
   0
VERTEX
   8
0
   6
Continuous
  10
 170.442917
  20
 19.946053
  30
 0.0
   0
VERTEX
   8
0
   6
Continuous
  10
 172.820892
  20
 20.796761
  30
 0.0
   0
VERTEX
   8
0
   6
Continuous
  10
 174.914322
  20
 21.894119
  30
 0.0
   0
VERTEX
   8
0
   6
Continuous
  10
 176.461319
  20
 22.975727
  30
 0.0
   0
VERTEX
   8
0
   6
Continuous
  10
 176.173126
  20
 18.708965
  30
 0.0
   0
VERTEX
   8
0
   6
Continuous
  10
 177.898407
  20
 19.558094
  30
 0.0
   0
VERTEX
   8
0
   6
Continuous
  10
 181.423233
  20
 20.806129
  30
 0.0
   0
VERTEX
   8
0
   6
Continuous
  10
 185.139908
  20
 21.792976
  30
 0.0
   0
VERTEX
   8
0
   6
Continuous
  10
 187.759506
  20
 22.210907
  30
 0.0
   0
VERTEX
   8
0
   6
Continuous
  10
 190.169968
  20
 22.165821
  30
 0.0
   0
VERTEX
   8
0
   6
Continuous
  10
 195.324570
  20
 21.582787
  30
 0.0
   0
VERTEX
   8
0
   6
Continuous
  10
 207.470306
  20
 19.721447
  30
 0.0
   0
VERTEX
   8
0
   6
Continuous
  10
 212.722778
  20
 19.201794
  30
 0.0
   0
VERTEX
   8
0
   6
Continuous
  10
 216.264587
  20
 19.130741
  30
 0.0
   0
VERTEX
   8
0
   6
Continuous
  10
 219.171341
  20
 19.393925
  30
 0.0
   0
VERTEX
   8
0
   6
Continuous
  10
 221.733139
  20
 19.943886
  30
 0.0
   0
VERTEX
   8
0
   6
Continuous
  10
 224.093414
  20
 20.785603
  30
 0.0
   0
VERTEX
   8
0
   6
Continuous
  10
 226.149048
  20
 21.855240
  30
 0.0
   0
VERTEX
   8
0
   6
Continuous
  10
 228.022827
  20
 23.187752
  30
 0.0
   0
VERTEX
   8
0
   6
Continuous
  10
 229.798767
  20
 24.874146
  30
 0.0
   0
VERTEX
   8
0
   6
Continuous
  10
 231.349380
  20
 26.819893
  30
 0.0
   0
VERTEX
   8
0
   6
Continuous
  10
 232.654175
  20
 28.997185
  30
 0.0
   0
VERTEX
   8
0
   6
Continuous
  10
 233.646713
  20
 31.325943
  30
 0.0
   0
VERTEX
   8
0
   6
Continuous
  10
 234.326981
  20
 33.805687
  30
 0.0
   0
VERTEX
   8
0
   6
Continuous
  10
 234.694962
  20
 36.435936
  30
 0.0
   0
VERTEX
   8
0
   6
Continuous
  10
 234.766800
  20
 38.335068
  30
 0.0
   0
VERTEX
   8
0
   6
Continuous
  10
 234.599731
  20
 40.653839
  30
 0.0
   0
VERTEX
   8
0
   6
Continuous
  10
 234.134689
  20
 42.704643
  30
 0.0
   0
VERTEX
   8
0
   6
Continuous
  10
 233.371201
  20
 44.591995
  30
 0.0
   0
VERTEX
   8
0
   6
Continuous
  10
 232.309280
  20
 46.315895
  30
 0.0
   0
VERTEX
   8
0
   6
Continuous
  10
 230.965744
  20
 47.859032
  30
 0.0
   0
VERTEX
   8
0
   6
Continuous
  10
 229.428543
  20
 49.110695
  30
 0.0
   0
VERTEX
   8
0
   6
Continuous
  10
 227.684433
  20
 50.082359
  30
 0.0
   0
VERTEX
   8
0
   6
Continuous
  10
 225.733414
  20
 50.774467
  30
 0.0
   0
VERTEX
   8
0
   6
Continuous
  10
 223.481094
  20
 51.198593
  30
 0.0
   0
VERTEX
   8
0
   6
Continuous
  10
 220.887283
  20
 51.319557
  30
 0.0
   0
VERTEX
   8
0
   6
Continuous
  10
 219.672623
  20
 51.254509
  30
 0.0
   0
VERTEX
   8
0
   6
Continuous
  10
 221.835983
  20
 52.121017
  30
 0.0
   0
VERTEX
   8
0
   6
Continuous
  10
 223.678818
  20
 53.206825
  30
 0.0
   0
VERTEX
   8
0
   6
Continuous
  10
 225.188446
  20
 54.467369
  30
 0.0
   0
VERTEX
   8
0
   6
Continuous
  10
 226.447342
  20
 55.943085
  30
 0.0
   0
VERTEX
   8
0
   6
Continuous
  10
 227.455704
  20
 57.633865
  30
 0.0
   0
VERTEX
   8
0
   6
Continuous
  10
 228.241058
  20
 59.627327
  30
 0.0
   0
VERTEX
   8
0
   6
Continuous
  10
 228.769623
  20
 61.952599
  30
 0.0
   0
VERTEX
   8
0
   6
Continuous
  10
 229.006210
  20
 64.639977
  30
 0.0
   0
VERTEX
   8
0
   6
Continuous
  10
 228.926559
  20
 66.833420
  30
 0.0
   0
VERTEX
   8
0
   6
Continuous
  10
 228.549088
  20
 68.615463
  30
 0.0
   0
VERTEX
   8
0
   6
Continuous
  10
 227.875610
  20
 70.223549
  30
 0.0
   0
VERTEX
   8
0
   6
Continuous
  10
 226.906174
  20
 71.659714
  30
 0.0
   0
VERTEX
   8
0
   6
Continuous
  10
 225.639587
  20
 72.919357
  30
 0.0
   0
VERTEX
   8
0
   6
Continuous
  10
 224.107788
  20
 73.949959
  30
 0.0
   0
VERTEX
   8
0
   6
Continuous
  10
 222.233963
  20
 74.774887
  30
 0.0
   0
VERTEX
   8
0
   6
Continuous
  10
 219.984039
  20
 75.363182
  30
 0.0
   0
VERTEX
   8
0
   6
Continuous
  10
 217.287674
  20
 75.684647
  30
 0.0
   0
VERTEX
   8
0
   6
Continuous
  10
 214.139038
  20
 75.690544
  30
 0.0
   0
VERTEX
   8
0
   6
Continuous
  10
 210.473907
  20
 75.324532
  30
 0.0
   0
VERTEX
   8
0
   6
Continuous
  10
 204.861740
  20
 74.390175
  30
 0.0
   0
VERTEX
   8
0
   6
Continuous
  10
 206.426025
  20
 66.140968
  30
 0.0
   0
VERTEX
   8
0
   6
Continuous
  10
 209.316422
  20
 66.357025
  30
 0.0
   0
VERTEX
   8
0
   6
Continuous
  10
 212.523544
  20
 66.232903
  30
 0.0
   0
VERTEX
   8
0
   6
Continuous
  10
 215.253693
  20
 65.808907
  30
 0.0
   0
VERTEX
   8
0
   6
Continuous
  10
 217.515610
  20
 65.134552
  30
 0.0
   0
VERTEX
   8
0
   6
Continuous
  10
 218.926956
  20
 64.430367
  30
 0.0
   0
VERTEX
   8
0
   6
Continuous
  10
 219.746063
  20
 63.712685
  30
 0.0
   0
VERTEX
   8
0
   6
Continuous
  10
 220.143295
  20
 62.983162
  30
 0.0
   0
VERTEX
   8
0
   6
Continuous
  10
 220.211975
  20
 62.177071
  30
 0.0
   0
VERTEX
   8
0
   6
Continuous
  10
 219.943970
  20
 61.294746
  30
 0.0
   0
VERTEX
   8
0
   6
Continuous
  10
 219.260666
  20
 60.361839
  30
 0.0
   0
VERTEX
   8
0
   6
Continuous
  10
 218.009979
  20
 59.348137
  30
 0.0
   0
VERTEX
   8
0
   6
Continuous
  10
 216.050980
  20
 58.274094
  30
 0.0
   0
VERTEX
   8
0
   6
Continuous
  10
 213.007217
  20
 57.071175
  30
 0.0
   0
VERTEX
   8
0
   6
Continuous
  10
 209.963593
  20
 56.203262
  30
 0.0
   0
VERTEX
   8
0
   6
Continuous
  10
 208.369431
  20
 55.892151
  30
 0.0
   0
VERTEX
   8
0
   6
Continuous
  10
 210.756302
  20
 43.304985
  30
 0.0
   0
VERTEX
   8
0
   6
Continuous
  10
 214.139648
  20
 43.104935
  30
 0.0
   0
VERTEX
   8
0
   6
Continuous
  10
 217.333801
  20
 42.583305
  30
 0.0
   0
VERTEX
   8
0
   6
Continuous
  10
 220.403137
  20
 41.741127
  30
 0.0
   0
VERTEX
   8
0
   6
Continuous
  10
 222.984329
  20
 40.723808
  30
 0.0
   0
VERTEX
   8
0
   6
Continuous
  10
 224.760025
  20
 39.713127
  30
 0.0
   0
VERTEX
   8
0
   6
Continuous
  10
 225.835022
  20
 38.777466
  30
 0.0
   0
VERTEX
   8
0
   6
Continuous
  10
 226.447098
  20
 37.852287
  30
 0.0
   0
VERTEX
   8
0
   6
Continuous
  10
 226.672379
  20
 36.960106
  30
 0.0
   0
VERTEX
   8
0
   6
Continuous
  10
 226.564697
  20
 36.014359
  30
 0.0
   0
VERTEX
   8
0
   6
Continuous
  10
 226.122330
  20
 35.158951
  30
 0.0
   0
VERTEX
   8
0
   6
Continuous
  10
 225.255249
  20
 34.311211
  30
 0.0
   0
VERTEX
   8
0
   6
Continuous
  10
 223.891678
  20
 33.510681
  30
 0.0
   0
VERTEX
   8
0
   6
Continuous
  10
 221.735306
  20
 32.707985
  30
 0.0
   0
VERTEX
   8
0
   6
Continuous
  10
 219.129761
  20
 32.118988
  30
 0.0
   0
VERTEX
   8
0
   6
Continuous
  10
 216.020920
  20
 31.778389
  30
 0.0
   0
VERTEX
   8
0
   6
Continuous
  10
 212.446472
  20
 31.731331
  30
 0.0
   0
VERTEX
   8
0
   6
Continuous
  10
 209.533829
  20
 32.033607
  30
 0.0
   0
VERTEX
   8
0
   6
Continuous
  10
 206.652924
  20
 32.681694
  30
 0.0
   0
VERTEX
   8
0
   6
Continuous
  10
 203.801117
  20
 33.676918
  30
 0.0
   0
VERTEX
   8
0
   6
Continuous
  10
 201.009567
  20
 35.009537
  30
 0.0
   0
VERTEX
   8
0
   6
Continuous
  10
 199.208420
  20
 36.181213
  30
 0.0
   0
VERTEX
   8
0
   6
Continuous
  10
 198.129272
  20
 37.214951
  30
 0.0
   0
VERTEX
   8
0
   6
Continuous
  10
 197.571976
  20
 38.147766
  30
 0.0
   0
VERTEX
   8
0
   6
Continuous
  10
 197.413849
  20
 38.998749
  30
 0.0
   0
VERTEX
   8
0
   6
Continuous
  10
 197.587021
  20
 39.711723
  30
 0.0
   0
VERTEX
   8
0
   6
Continuous
  10
 198.127365
  20
 40.418037
  30
 0.0
   0
VERTEX
   8
0
   6
Continuous
  10
 199.202484
  20
 41.161400
  30
 0.0
   0
VERTEX
   8
0
   6
Continuous
  10
 201.042862
  20
 41.926903
  30
 0.0
   0
VERTEX
   8
0
   6
Continuous
  10
 203.792053
  20
 42.643242
  30
 0.0
   0
VERTEX
   8
0
   6
Continuous
  10
 207.028992
  20
 43.120560
  30
 0.0
   0
VERTEX
   8
0
   6
Continuous
  10
 210.532898
  20
 43.303391
  30
 0.0
   0
VERTEX
   8
0
   6
Continuous
  10
 210.693283
  20
 43.304253
  30
 0.0
   0
VERTEX
   8
0
   6
Continuous
  10
 208.303528
  20
 55.881760
  30
 0.0
   0
VERTEX
   8
0
   6
Continuous
  10
 205.279907
  20
 55.611900
  30
 0.0
   0
VERTEX
   8
0
   6
Continuous
  10
 202.592026
  20
 55.732414
  30
 0.0
   0
VERTEX
   8
0
   6
Continuous
  10
 199.925919
  20
 56.185425
  30
 0.0
   0
VERTEX
   8
0
   6
Continuous
  10
 197.377060
  20
 56.960144
  30
 0.0
   0
VERTEX
   8
0
   6
Continuous
  10
 195.531311
  20
 57.830620
  30
 0.0
   0
VERTEX
   8
0
   6
Continuous
  10
 194.523514
  20
 58.604210
  30
 0.0
   0
VERTEX
   8
0
   6
Continuous
  10
 194.043961
  20
 59.321625
  30
 0.0
   0
VERTEX
   8
0
   6
Continuous
  10
 193.943771
  20
 60.007172
  30
 0.0
   0
VERTEX
   8
0
   6
Continuous
  10
 194.182831
  20
 60.812332
  30
 0.0
   0
VERTEX
   8
0
   6
Continuous
  10
 194.822800
  20
 61.657013
  30
 0.0
   0
VERTEX
   8
0
   6
Continuous
  10
 196.061783
  20
 62.628487
  30
 0.0
   0
VERTEX
   8
0
   6
Continuous
  10
 198.071335
  20
 63.702187
  30
 0.0
   0
VERTEX
   8
0
   6
Continuous
  10
 201.008087
  20
 64.846855
  30
 0.0
   0
VERTEX
   8
0
   6
Continuous
  10
 204.289017
  20
 65.746643
  30
 0.0
   0
VERTEX
   8
0
   6
Continuous
  10
 206.359222
  20
 66.131180
  30
 0.0
   0
VERTEX
   8
0
   6
Continuous
  10
 204.771393
  20
 74.377159
  30
 0.0
   0
VERTEX
   8
0
   6
Continuous
  10
 199.724197
  20
 73.823410
  30
 0.0
   0
VERTEX
   8
0
   6
Continuous
  10
 195.557693
  20
 73.674866
  30
 0.0
   0
VERTEX
   8
0
   6
Continuous
  10
 191.659119
  20
 73.877731
  30
 0.0
   0
VERTEX
   8
0
   6
Continuous
  10
 188.115570
  20
 74.390045
  30
 0.0
   0
VERTEX
   8
0
   6
Continuous
  10
 184.767075
  20
 75.213005
  30
 0.0
   0
VERTEX
   8
0
   6
Continuous
  10
 181.741104
  20
 76.292793
  30
 0.0
   0
VERTEX
   8
0
   6
Continuous
  10
 178.894272
  20
 77.657112
  30
 0.0
   0
VERTEX
   8
0
   6
Continuous
  10
 177.578049
  20
 78.407700
  30
 0.0
   0
VERTEX
   8
0
   6
Continuous
  10
 177.299896
  20
 76.228683
  30
 0.0
   0
VERTEX
   8
0
   6
Continuous
  10
 177.253769
  20
 72.604210
  30
 0.0
   0
VERTEX
   8
0
   6
Continuous
  10
 177.457657
  20
 71.048523
  30
 0.0
   0
VERTEX
   8
0
   6
Continuous
  10
 177.748871
  20
 70.477249
  30
 0.0
   0
VERTEX
   8
0
   6
Continuous
  10
 178.029282
  20
 70.382446
  30
 0.0
   0
VERTEX
   8
0
   6
Continuous
  10
 182.787201
  20
 69.674446
  30
 0.0
   0
VERTEX
   8
0
   6
Continuous
  10
 183.679459
  20
 69.242477
  30
 0.0
   0
VERTEX
   8
0
   6
Continuous
  10
 184.285721
  20
 68.592888
  30
 0.0
   0
VERTEX
   8
0
   6
Continuous
  10
 184.632324
  20
 67.698593
  30
 0.0
   0
VERTEX
   8
0
   6
Continuous
  10
 184.699753
  20
 66.407921
  30
 0.0
   0
VERTEX
   8
0
   6
Continuous
  10
 184.654129
  20
 62.831268
  30
 0.0
   0
VERTEX
   8
0
   6
Continuous
  10
 184.916855
  20
 55.478218
  30
 0.0
   0
VERTEX
   8
0
   6
Continuous
  10
 185.509933
  20
 48.383240
  30
 0.0
   0
VERTEX
   8
0
   6
Continuous
  10
 186.390060
  20
 41.814865
  30
 0.0
   0
VERTEX
   8
0
   6
Continuous
  10
 187.574631
  20
 35.484329
  30
 0.0
   0
VERTEX
   8
0
   6
Continuous
  10
 188.995544
  20
 29.640755
  30
 0.0
   0
VERTEX
   8
0
   6
Continuous
  10
 189.286072
  20
 28.584641
  30
 0.0
   0
VERTEX
   8
0
   6
Continuous
  10
 187.221634
  20
 29.428535
  30
 0.0
   0
VERTEX
   8
0
   6
Continuous
  10
 185.276108
  20
 29.869629
  30
 0.0
   0
VERTEX
   8
0
   6
Continuous
  10
 183.631531
  20
 29.948891
  30
 0.0
   0
VERTEX
   8
0
   6
Continuous
  10
 181.674088
  20
 29.650574
  30
 0.0
   0
VERTEX
   8
0
   6
Continuous
  10
 182.562714
  20
 31.976273
  30
 0.0
   0
VERTEX
   8
0
   6
Continuous
  10
 183.150803
  20
 34.447144
  30
 0.0
   0
VERTEX
   8
0
   6
Continuous
  10
 183.444046
  20
 37.179749
  30
 0.0
   0
VERTEX
   8
0
   6
Continuous
  10
 183.412567
  20
 39.701263
  30
 0.0
   0
VERTEX
   8
0
   6
Continuous
  10
 183.056366
  20
 41.916458
  30
 0.0
   0
VERTEX
   8
0
   6
Continuous
  10
 182.410416
  20
 43.868187
  30
 0.0
   0
VERTEX
   8
0
   6
Continuous
  10
 181.466034
  20
 45.656464
  30
 0.0
   0
VERTEX
   8
0
   6
Continuous
  10
 180.241684
  20
 47.261925
  30
 0.0
   0
VERTEX
   8
0
   6
Continuous
  10
 178.789703
  20
 48.629051
  30
 0.0
   0
VERTEX
   8
0
   6
Continuous
  10
 177.130829
  20
 49.716003
  30
 0.0
   0
VERTEX
   8
0
   6
Continuous
  10
 175.265030
  20
 50.523209
  30
 0.0
   0
VERTEX
   8
0
   6
Continuous
  10
 173.101486
  20
 51.067047
  30
 0.0
   0
VERTEX
   8
0
   6
Continuous
  10
 170.613235
  20
 51.311676
  30
 0.0
   0
VERTEX
   8
0
   6
Continuous
  10
 168.359680
  20
 51.249275
  30
 0.0
   0
VERTEX
   8
0
   6
Continuous
  10
 170.552979
  20
 52.127922
  30
 0.0
   0
VERTEX
   8
0
   6
Continuous
  10
 172.393860
  20
 53.215401
  30
 0.0
   0
VERTEX
   8
0
   6
Continuous
  10
 173.901627
  20
 54.477539
  30
 0.0
   0
VERTEX
   8
0
   6
Continuous
  10
 175.158661
  20
 55.954857
  30
 0.0
   0
VERTEX
   8
0
   6
Continuous
  10
 176.165161
  20
 57.647240
  30
 0.0
   0
VERTEX
   8
0
   6
Continuous
  10
 176.948578
  20
 59.642372
  30
 0.0
   0
VERTEX
   8
0
   6
Continuous
  10
 177.475113
  20
 61.969376
  30
 0.0
   0
VERTEX
   8
0
   6
Continuous
  10
 177.709610
  20
 64.658562
  30
 0.0
   0
VERTEX
   8
0
   6
Continuous
  10
 177.626251
  20
 66.859169
  30
 0.0
   0
VERTEX
   8
0
   6
Continuous
  10
 177.226685
  20
 68.695618
  30
 0.0
   0
VERTEX
   8
0
   6
Continuous
  10
 176.550323
  20
 70.275291
  30
 0.0
   0
VERTEX
   8
0
   6
Continuous
  10
 175.597824
  20
 71.673241
  30
 0.0
   0
VERTEX
   8
0
   6
Continuous
  10
 174.334320
  20
 72.926041
  30
 0.0
   0
VERTEX
   8
0
   6
Continuous
  10
 172.800995
  20
 73.955284
  30
 0.0
   0
VERTEX
   8
0
   6
Continuous
  10
 170.925583
  20
 74.778786
  30
 0.0
   0
VERTEX
   8
0
   6
Continuous
  10
 168.674011
  20
 75.365601
  30
 0.0
   0
VERTEX
   8
0
   6
Continuous
  10
 166.010849
  20
 75.683441
  30
 0.0
   0
VERTEX
   8
0
   6
Continuous
  10
 163.000320
  20
 75.698418
  30
 0.0
   0
VERTEX
   8
0
   6
Continuous
  10
 159.189301
  20
 75.326286
  30
 0.0
   0
VERTEX
   8
0
   6
Continuous
  10
 153.152924
  20
 74.329659
  30
 0.0
   0
VERTEX
   8
0
   6
Continuous
  10
 154.716705
  20
 66.082848
  30
 0.0
   0
VERTEX
   8
0
   6
Continuous
  10
 157.545441
  20
 66.344963
  30
 0.0
   0
VERTEX
   8
0
   6
Continuous
  10
 160.778687
  20
 66.271439
  30
 0.0
   0
VERTEX
   8
0
   6
Continuous
  10
 163.560562
  20
 65.893295
  30
 0.0
   0
VERTEX
   8
0
   6
Continuous
  10
 165.913651
  20
 65.247681
  30
 0.0
   0
VERTEX
   8
0
   6
Continuous
  10
 167.472229
  20
 64.530403
  30
 0.0
   0
VERTEX
   8
0
   6
Continuous
  10
 168.372177
  20
 63.803131
  30
 0.0
   0
VERTEX
   8
0
   6
Continuous
  10
 168.824951
  20
 63.048943
  30
 0.0
   0
VERTEX
   8
0
   6
Continuous
  10
 168.921448
  20
 62.249458
  30
 0.0
   0
VERTEX
   8
0
   6
Continuous
  10
 168.681396
  20
 61.365234
  30
 0.0
   0
VERTEX
   8
0
   6
Continuous
  10
 168.028473
  20
 60.430336
  30
 0.0
   0
VERTEX
   8
0
   6
Continuous
  10
 166.846817
  20
 59.438301
  30
 0.0
   0
VERTEX
   8
0
   6
Continuous
  10
 164.938599
  20
 58.361198
  30
 0.0
   0
VERTEX
   8
0
   6
Continuous
  10
 162.005264
  20
 57.172989
  30
 0.0
   0
VERTEX
   8
0
   6
Continuous
  10
 158.880722
  20
 56.253036
  30
 0.0
   0
VERTEX
   8
0
   6
Continuous
  10
 156.661148
  20
 55.829369
  30
 0.0
   0
VERTEX
   8
0
   6
Continuous
  10
 159.035828
  20
 43.306183
  30
 0.0
   0
VERTEX
   8
0
   6
Continuous
  10
 162.358490
  20
 43.154884
  30
 0.0
   0
VERTEX
   8
0
   6
Continuous
  10
 165.527557
  20
 42.689659
  30
 0.0
   0
VERTEX
   8
0
   6
Continuous
  10
 168.575272
  20
 41.912392
  30
 0.0
   0
VERTEX
   8
0
   6
Continuous
  10
 171.331131
  20
 40.887238
  30
 0.0
   0
VERTEX
   8
0
   6
Continuous
  10
 173.204147
  20
 39.888329
  30
 0.0
   0
VERTEX
   8
0
   6
Continuous
  10
 174.410202
  20
 38.915253
  30
 0.0
   0
VERTEX
   8
0
   6
Continuous
  10
 175.080978
  20
 37.997200
  30
 0.0
   0
VERTEX
   8
0
   6
Continuous
  10
 175.365005
  20
 37.072174
  30
 0.0
   0
VERTEX
   8
0
   6
Continuous
  10
 175.302216
  20
 36.137543
  30
 0.0
   0
VERTEX
   8
0
   6
Continuous
  10
 174.905518
  20
 35.271492
  30
 0.0
   0
VERTEX
   8
0
   6
Continuous
  10
 174.132278
  20
 34.447533
  30
 0.0
   0
VERTEX
   8
0
   6
Continuous
  10
 172.840500
  20
 33.630272
  30
 0.0
   0
VERTEX
   8
0
   6
Continuous
  10
 170.829056
  20
 32.828377
  30
 0.0
   0
VERTEX
   8
0
   6
Continuous
  10
 168.234222
  20
 32.188713
  30
 0.0
   0
VERTEX
   8
0
   6
Continuous
  10
 165.178604
  20
 31.808846
  30
 0.0
   0
VERTEX
   8
0
   6
Continuous
  10
 161.554306
  20
 31.716682
  30
 0.0
   0
VERTEX
   8
0
   6
Continuous
  10
 158.637070
  20
 31.971306
  30
 0.0
   0
VERTEX
   8
0
   6
Continuous
  10
 155.751953
  20
 32.571548
  30
 0.0
   0
VERTEX
   8
0
   6
Continuous
  10
 152.896286
  20
 33.518745
  30
 0.0
   0
VERTEX
   8
0
   6
Continuous
  10
 150.034897
  20
 34.833900
  30
 0.0
   0
VERTEX
   8
0
   6
Continuous
  10
 148.092575
  20
 36.042564
  30
 0.0
   0
VERTEX
   8
0
   6
Continuous
  10
 146.927475
  20
 37.100990
  30
 0.0
   0
VERTEX
   8
0
   6
Continuous
  10
 146.316147
  20
 38.046326
  30
 0.0
   0
VERTEX
   8
0
   6
Continuous
  10
 146.117615
  20
 38.903397
  30
 0.0
   0
VERTEX
   8
0
   6
Continuous
  10
 146.254074
  20
 39.633369
  30
 0.0
   0
VERTEX
   8
0
   6
Continuous
  10
 146.763992
  20
 40.354164
  30
 0.0
   0
VERTEX
   8
0
   6
Continuous
  10
 147.799530
  20
 41.103531
  30
 0.0
   0
VERTEX
   8
0
   6
Continuous
  10
 149.554504
  20
 41.862244
  30
 0.0
   0
VERTEX
   8
0
   6
Continuous
  10
 152.234909
  20
 42.590721
  30
 0.0
   0
VERTEX
   8
0
   6
Continuous
  10
 155.444214
  20
 43.097862
  30
 0.0
   0
VERTEX
   8
0
   6
Continuous
  10
 158.946716
  20
 43.311302
  30
 0.0
   0
VERTEX
   8
0
   6
Continuous
  10
 156.536392
  20
 55.808846
  30
 0.0
   0
VERTEX
   8
0
   6
Continuous
  10
 153.582489
  20
 55.608231
  30
 0.0
   0
VERTEX
   8
0
   6
Continuous
  10
 150.868652
  20
 55.781853
  30
 0.0
   0
VERTEX
   8
0
   6
Continuous
  10
 148.273300
  20
 56.272530
  30
 0.0
   0
VERTEX
   8
0
   6
Continuous
  10
 145.811035
  20
 57.065849
  30
 0.0
   0
VERTEX
   8
0
   6
Continuous
  10
 144.087021
  20
 57.921478
  30
 0.0
   0
VERTEX
   8
0
   6
Continuous
  10
 143.152130
  20
 58.684502
  30
 0.0
   0
VERTEX
   8
0
   6
Continuous
  10
 142.716782
  20
 59.405457
  30
 0.0
   0
VERTEX
   8
0
   6
Continuous
  10
 142.659286
  20
 60.124863
  30
 0.0
   0
VERTEX
   8
0
   6
Continuous
  10
 142.950424
  20
 60.929321
  30
 0.0
   0
VERTEX
   8
0
   6
Continuous
  10
 143.681030
  20
 61.806473
  30
 0.0
   0
VERTEX
   8
0
   6
Continuous
  10
 145.074783
  20
 62.820816
  30
 0.0
   0
VERTEX
   8
0
   6
Continuous
  10
 147.303894
  20
 63.936584
  30
 0.0
   0
VERTEX
   8
0
   6
Continuous
  10
 150.353333
  20
 65.053810
  30
 0.0
   0
VERTEX
   8
0
   6
Continuous
  10
 153.639236
  20
 65.893318
  30
 0.0
   0
VERTEX
   8
0
   6
Continuous
  10
 154.630402
  20
 66.075180
  30
 0.0
   0
VERTEX
   8
0
   6
Continuous
  10
 153.075928
  20
 74.317360
  30
 0.0
   0
VERTEX
   8
0
   6
Continuous
  10
 148.260223
  20
 73.810097
  30
 0.0
   0
VERTEX
   8
0
   6
Continuous
  10
 144.127380
  20
 73.676178
  30
 0.0
   0
VERTEX
   8
0
   6
Continuous
  10
 140.235840
  20
 73.890289
  30
 0.0
   0
VERTEX
   8
0
   6
Continuous
  10
 136.699066
  20
 74.413391
  30
 0.0
   0
VERTEX
   8
0
   6
Continuous
  10
 133.357330
  20
 75.247124
  30
 0.0
   0
VERTEX
   8
0
   6
Continuous
  10
 130.337845
  20
 76.337212
  30
 0.0
   0
VERTEX
   8
0
   6
Continuous
  10
 127.497498
  20
 77.711823
  30
 0.0
   0
VERTEX
   8
0
   6
Continuous
  10
 126.283554
  20
 78.418709
  30
 0.0
   0
VERTEX
   8
0
   6
Continuous
  10
 126.005608
  20
 76.272186
  30
 0.0
   0
VERTEX
   8
0
   6
Continuous
  10
 125.953392
  20
 72.672180
  30
 0.0
   0
VERTEX
   8
0
   6
Continuous
  10
 126.158447
  20
 71.056129
  30
 0.0
   0
VERTEX
   8
0
   6
Continuous
  10
 126.441986
  20
 70.486107
  30
 0.0
   0
VERTEX
   8
0
   6
Continuous
  10
 126.736984
  20
 70.381790
  30
 0.0
   0
VERTEX
   8
0
   6
Continuous
  10
 131.494507
  20
 69.673088
  30
 0.0
   0
VERTEX
   8
0
   6
Continuous
  10
 132.385590
  20
 69.240120
  30
 0.0
   0
VERTEX
   8
0
   6
Continuous
  10
 132.990707
  20
 68.589554
  30
 0.0
   0
VERTEX
   8
0
   6
Continuous
  10
 133.336136
  20
 67.694267
  30
 0.0
   0
VERTEX
   8
0
   6
Continuous
  10
 133.402496
  20
 66.404442
  30
 0.0
   0
VERTEX
   8
0
   6
Continuous
  10
 133.357590
  20
 62.789406
  30
 0.0
   0
VERTEX
   8
0
   6
Continuous
  10
 133.622162
  20
 55.437798
  30
 0.0
   0
VERTEX
   8
0
   6
Continuous
  10
 134.217087
  20
 48.344269
  30
 0.0
   0
VERTEX
   8
0
   6
Continuous
  10
 135.098984
  20
 41.777275
  30
 0.0
   0
VERTEX
   8
0
   6
Continuous
  10
 136.285339
  20
 35.448128
  30
 0.0
   0
VERTEX
   8
0
   6
Continuous
  10
 137.707947
  20
 29.605881
  30
 0.0
   0
VERTEX
   8
0
   6
Continuous
  10
 137.955399
  20
 28.601364
  30
 0.0
   0
VERTEX
   8
0
   6
Continuous
  10
 135.932449
  20
 29.426033
  30
 0.0
   0
VERTEX
   8
0
   6
Continuous
  10
 133.986771
  20
 29.868576
  30
 0.0
   0
VERTEX
   8
0
   6
Continuous
  10
 132.097076
  20
 29.952156
  30
 0.0
   0
VERTEX
   8
0
   6
Continuous
  10
 130.873764
  20
 29.812981
  30
 0.0
   0
VERTEX
   8
0
   6
Continuous
  10
 130.237518
  20
 30.980270
  30
 0.0
   0
VERTEX
   8
0
   6
Continuous
  10
 129.750763
  20
 31.377853
  30
 0.0
   0
VERTEX
   8
0
   6
Continuous
  10
 129.547119
  20
 31.360245
  30
 0.0
   0
VERTEX
   8
0
   6
Continuous
  10
 124.200134
  20
 28.883354
  30
 0.0
   0
VERTEX
   8
0
   6
Continuous
  10
 124.654510
  20
 27.562584
  30
 0.0
   0
VERTEX
   8
0
   6
Continuous
  10
 124.822937
  20
 25.985542
  30
 0.0
   0
VERTEX
   8
0
   6
Continuous
  10
 124.670212
  20
 24.427162
  30
 0.0
   0
VERTEX
   8
0
   6
Continuous
  10
 124.224510
  20
 23.092495
  30
 0.0
   0
VERTEX
   8
0
   6
Continuous
  10
 123.485741
  20
 21.905819
  30
 0.0
   0
VERTEX
   8
0
   6
Continuous
  10
 122.404404
  20
 20.827068
  30
 0.0
   0
VERTEX
   8
0
   6
Continuous
  10
 120.942177
  20
 19.875507
  30
 0.0
   0
VERTEX
   8
0
   6
Continuous
  10
 118.982292
  20
 19.044987
  30
 0.0
   0
VERTEX
   8
0
   6
Continuous
  10
 116.485092
  20
 18.387878
  30
 0.0
   0
VERTEX
   8
0
   6
Continuous
  10
 111.741722
  20
 17.711014
  30
 0.0
   0
VERTEX
   8
0
   6
Continuous
  10
 110.767418
  20
 17.720245
  30
 0.0
   0
VERTEX
   8
0
   6
Continuous
  10
 109.932793
  20
 18.015594
  30
 0.0
   0
VERTEX
   8
0
   6
Continuous
  10
 109.403435
  20
 18.539940
  30
 0.0
   0
VERTEX
   8
0
   6
Continuous
  10
 109.114479
  20
 19.341190
  30
 0.0
   0
VERTEX
   8
0
   6
Continuous
  10
 109.097511
  20
 20.093903
  30
 0.0
   0
VERTEX
   8
0
   6
Continuous
  10
 109.373428
  20
 21.444973
  30
 0.0
   0
VERTEX
   8
0
   6
Continuous
  10
 112.209213
  20
 22.924545
  30
 0.0
   0
VERTEX
   8
0
   6
Continuous
  10
 114.807144
  20
 24.655678
  30
 0.0
   0
VERTEX
   8
0
   6
Continuous
  10
 117.172745
  20
 26.627953
  30
 0.0
   0
VERTEX
   8
0
   6
Continuous
  10
 119.413383
  20
 28.947922
  30
 0.0
   0
VERTEX
   8
0
   6
Continuous
  10
 121.484291
  20
 31.609276
  30
 0.0
   0
VERTEX
   8
0
   6
Continuous
  10
 123.219810
  20
 34.360664
  30
 0.0
   0
VERTEX
   8
0
   6
Continuous
  10
 124.649666
  20
 37.245781
  30
 0.0
   0
VERTEX
   8
0
   6
Continuous
  10
 125.774750
  20
 40.262833
  30
 0.0
   0
VERTEX
   8
0
   6
Continuous
  10
 126.595932
  20
 43.410027
  30
 0.0
   0
VERTEX
   8
0
   6
Continuous
  10
 127.199593
  20
 47.322906
  30
 0.0
   0
VERTEX
   8
0
   6
Continuous
  10
 127.498070
  20
 51.535202
  30
 0.0
   0
VERTEX
   8
0
   6
Continuous
  10
 127.463112
  20
 55.285820
  30
 0.0
   0
VERTEX
   8
0
   6
Continuous
  10
 127.119118
  20
 58.452408
  30
 0.0
   0
VERTEX
   8
0
   6
Continuous
  10
 126.469978
  20
 61.391479
  30
 0.0
   0
VERTEX
   8
0
   6
Continuous
  10
 125.552635
  20
 64.016525
  30
 0.0
   0
VERTEX
   8
0
   6
Continuous
  10
 124.350594
  20
 66.429428
  30
 0.0
   0
VERTEX
   8
0
   6
Continuous
  10
 122.920059
  20
 68.558022
  30
 0.0
   0
VERTEX
   8
0
   6
Continuous
  10
 121.224533
  20
 70.489258
  30
 0.0
   0
VERTEX
   8
0
   6
Continuous
  10
 119.292343
  20
 72.189468
  30
 0.0
   0
VERTEX
   8
0
   6
Continuous
  10
 117.035782
  20
 73.712555
  30
 0.0
   0
VERTEX
   8
0
   6
Continuous
  10
 114.539276
  20
 74.976295
  30
 0.0
   0
VERTEX
   8
0
   6
Continuous
  10
 111.700890
  20
 76.011551
  30
 0.0
   0
VERTEX
   8
0
   6
Continuous
  10
 108.605568
  20
 76.768173
  30
 0.0
   0
VERTEX
   8
0
   6
Continuous
  10
 105.133362
  20
 77.257439
  30
 0.0
   0
VERTEX
   8
0
   6
Continuous
  10
 101.192154
  20
 77.449715
  30
 0.0
   0
VERTEX
   8
0
   6
Continuous
  10
 97.766502
  20
 77.317596
  30
 0.0
   0
VERTEX
   8
0
   6
Continuous
  10
 94.623650
  20
 76.880020
  30
 0.0
   0
VERTEX
   8
0
   6
Continuous
  10
 91.640816
  20
 76.137611
  30
 0.0
   0
VERTEX
   8
0
   6
Continuous
  10
 88.817726
  20
 75.090523
  30
 0.0
   0
VERTEX
   8
0
   6
Continuous
  10
 86.154076
  20
 73.738892
  30
 0.0
   0
VERTEX
   8
0
   6
Continuous
  10
 83.649590
  20
 72.082863
  30
 0.0
   0
VERTEX
   8
0
   6
Continuous
  10
 81.303963
  20
 70.122581
  30
 0.0
   0
VERTEX
   8
0
   6
Continuous
  10
 79.116913
  20
 67.858192
  30
 0.0
   0
VERTEX
   8
0
   6
Continuous
  10
 77.017731
  20
 65.195763
  30
 0.0
   0
VERTEX
   8
0
   6
Continuous
  10
 75.263519
  20
 62.421127
  30
 0.0
   0
VERTEX
   8
0
   6
Continuous
  10
 73.902008
  20
 59.657372
  30
 0.0
   0
VERTEX
   8
0
   6
Continuous
  10
 72.846161
  20
 56.780647
  30
 0.0
   0
VERTEX
   8
0
   6
Continuous
  10
 72.095940
  20
 53.790527
  30
 0.0
   0
VERTEX
   8
0
   6
Continuous
  10
 71.637779
  20
 50.535965
  30
 0.0
   0
VERTEX
   8
0
   6
Continuous
  10
 71.582390
  20
 49.934296
  30
 0.0
   0
VERTEX
   8
0
   6
Continuous
  10
 70.429764
  20
 51.026749
  30
 0.0
   0
VERTEX
   8
0
   6
Continuous
  10
 69.046249
  20
 51.887459
  30
 0.0
   0
VERTEX
   8
0
   6
Continuous
  10
 67.201263
  20
 52.602303
  30
 0.0
   0
VERTEX
   8
0
   6
Continuous
  10
 64.736023
  20
 53.148590
  30
 0.0
   0
VERTEX
   8
0
   6
Continuous
  10
 61.530182
  20
 53.458252
  30
 0.0
   0
VERTEX
   8
0
   6
Continuous
  10
 57.421680
  20
 53.460747
  30
 0.0
   0
VERTEX
   8
0
   6
Continuous
  10
 51.185921
  20
 53.267418
  30
 0.0
   0
VERTEX
   8
0
   6
Continuous
  10
 48.228821
  20
 53.485596
  30
 0.0
   0
VERTEX
   8
0
   6
Continuous
  10
 45.897774
  20
 53.960030
  30
 0.0
   0
VERTEX
   8
0
   6
Continuous
  10
 44.106419
  20
 54.639679
  30
 0.0
   0
VERTEX
   8
0
   6
Continuous
  10
 42.791027
  20
 55.462540
  30
 0.0
   0
VERTEX
   8
0
   6
Continuous
  10
 41.679211
  20
 56.570915
  30
 0.0
   0
VERTEX
   8
0
   6
Continuous
  10
 40.743340
  20
 57.999298
  30
 0.0
   0
VERTEX
   8
0
   6
Continuous
  10
 39.942841
  20
 59.868340
  30
 0.0
   0
VERTEX
   8
0
   6
Continuous
  10
 37.400249
  20
 68.296150
  30
 0.0
   0
VERTEX
   8
0
   6
Continuous
  10
 37.278496
  20
 69.744949
  30
 0.0
   0
VERTEX
   8
0
   6
Continuous
  10
 37.487934
  20
 71.003265
  30
 0.0
   0
VERTEX
   8
0
   6
Continuous
  10
 37.986225
  20
 72.061516
  30
 0.0
   0
VERTEX
   8
0
   6
Continuous
  10
 38.818668
  20
 73.015923
  30
 0.0
   0
VERTEX
   8
0
   6
Continuous
  10
 40.026817
  20
 73.846237
  30
 0.0
   0
VERTEX
   8
0
   6
Continuous
  10
 41.658909
  20
 74.534943
  30
 0.0
   0
VERTEX
   8
0
   6
Continuous
  10
 43.712627
  20
 75.007065
  30
 0.0
   0
VERTEX
   8
0
   6
Continuous
  10
 46.193085
  20
 75.206612
  30
 0.0
   0
VERTEX
   8
0
   6
Continuous
  10
 49.058086
  20
 75.095367
  30
 0.0
   0
VERTEX
   8
0
   6
Continuous
  10
 51.501102
  20
 74.693916
  30
 0.0
   0
VERTEX
   8
0
   6
Continuous
  10
 53.437069
  20
 74.090538
  30
 0.0
   0
VERTEX
   8
0
   6
Continuous
  10
 54.405800
  20
 73.531586
  30
 0.0
   0
VERTEX
   8
0
   6
Continuous
  10
 54.768559
  20
 73.035439
  30
 0.0
   0
VERTEX
   8
0
   6
Continuous
  10
 54.760113
  20
 72.575081
  30
 0.0
   0
VERTEX
   8
0
   6
Continuous
  10
 54.330318
  20
 72.085274
  30
 0.0
   0
VERTEX
   8
0
   6
Continuous
  10
 53.152088
  20
 71.482262
  30
 0.0
   0
VERTEX
   8
0
   6
Continuous
  10
 48.334084
  20
 69.846901
  30
 0.0
   0
VERTEX
   8
0
   6
Continuous
  10
 46.494808
  20
 68.881981
  30
 0.0
   0
VERTEX
   8
0
   6
Continuous
  10
 45.262917
  20
 67.900475
  30
 0.0
   0
VERTEX
   8
0
   6
Continuous
  10
 44.450840
  20
 66.853989
  30
 0.0
   0
VERTEX
   8
0
   6
Continuous
  10
 44.015228
  20
 65.755524
  30
 0.0
   0
VERTEX
   8
0
   6
Continuous
  10
 43.919506
  20
 64.587364
  30
 0.0
   0
VERTEX
   8
0
   6
Continuous
  10
 44.175205
  20
 63.632095
  30
 0.0
   0
VERTEX
   8
0
   6
Continuous
  10
 44.813694
  20
 62.681801
  30
 0.0
   0
VERTEX
   8
0
   6
Continuous
  10
 45.941826
  20
 61.705826
  30
 0.0
   0
VERTEX
   8
0
   6
Continuous
  10
 47.671028
  20
 60.722290
  30
 0.0
   0
VERTEX
   8
0
   6
Continuous
  10
 49.964653
  20
 59.808113
  30
 0.0
   0
VERTEX
   8
0
   6
Continuous
  10
 52.495544
  20
 59.174431
  30
 0.0
   0
VERTEX
   8
0
   6
Continuous
  10
 55.412590
  20
 58.803314
  30
 0.0
   0
VERTEX
   8
0
   6
Continuous
  10
 58.748093
  20
 58.732300
  30
 0.0
   0
VERTEX
   8
0
   6
Continuous
  10
 61.814796
  20
 58.975525
  30
 0.0
   0
VERTEX
   8
0
   6
Continuous
  10
 64.180801
  20
 59.467857
  30
 0.0
   0
VERTEX
   8
0
   6
Continuous
  10
 65.999237
  20
 60.151360
  30
 0.0
   0
VERTEX
   8
0
   6
Continuous
  10
 67.412575
  20
 61.012711
  30
 0.0
   0
VERTEX
   8
0
   6
Continuous
  10
 68.462868
  20
 62.025551
  30
 0.0
   0
VERTEX
   8
0
   6
Continuous
  10
 69.218262
  20
 63.223152
  30
 0.0
   0
VERTEX
   8
0
   6
Continuous
  10
 69.678764
  20
 64.605507
  30
 0.0
   0
VERTEX
   8
0
   6
Continuous
  10
 69.844894
  20
 66.248230
  30
 0.0
   0
VERTEX
   8
0
   6
Continuous
  10
 69.687447
  20
 67.890968
  30
 0.0
   0
VERTEX
   8
0
   6
Continuous
  10
 69.207893
  20
 69.428253
  30
 0.0
   0
VERTEX
   8
0
   6
Continuous
  10
 68.405914
  20
 70.868286
  30
 0.0
   0
VERTEX
   8
0
   6
Continuous
  10
 67.222382
  20
 72.269058
  30
 0.0
   0
VERTEX
   8
0
   6
Continuous
  10
 65.610870
  20
 73.615807
  30
 0.0
   0
VERTEX
   8
0
   6
Continuous
  10
 63.479134
  20
 74.915565
  30
 0.0
   0
VERTEX
   8
0
   6
Continuous
  10
 60.908329
  20
 76.055367
  30
 0.0
   0
VERTEX
   8
0
   6
Continuous
  10
 58.004559
  20
 76.959183
  30
 0.0
   0
VERTEX
   8
0
   6
Continuous
  10
 54.483055
  20
 77.671509
  30
 0.0
   0
VERTEX
   8
0
   6
Continuous
  10
 50.412483
  20
 78.116974
  30
 0.0
   0
VERTEX
   8
0
   6
Continuous
  10
 45.698513
  20
 78.261299
  30
 0.0
   0
VERTEX
   8
0
   6
Continuous
  10
 41.512047
  20
 78.083046
  30
 0.0
   0
VERTEX
   8
0
   6
Continuous
  10
 37.828262
  20
 77.616272
  30
 0.0
   0
VERTEX
   8
0
   6
Continuous
  10
 34.606506
  20
 76.895279
  30
 0.0
   0
VERTEX
   8
0
   6
Continuous
  10
 31.807852
  20
 75.953064
  30
 0.0
   0
VERTEX
   8
0
   6
Continuous
  10
 29.291529
  20
 74.764565
  30
 0.0
   0
VERTEX
   8
0
   6
Continuous
  10
 27.085831
  20
 73.355225
  30
 0.0
   0
VERTEX
   8
0
   6
Continuous
  10
 25.284019
  20
 71.824821
  30
 0.0
   0
VERTEX
   8
0
   6
Continuous
  10
 23.780005
  20
 70.112976
  30
 0.0
   0
VERTEX
   8
0
   6
Continuous
  10
 22.573242
  20
 68.219704
  30
 0.0
   0
VERTEX
   8
0
   6
Continuous
  10
 21.663195
  20
 66.144997
  30
 0.0
   0
VERTEX
   8
0
   6
Continuous
  10
 20.774647
  20
 62.861511
  30
 0.0
   0
VERTEX
   8
0
   6
Continuous
  10
 20.250645
  20
 59.763710
  30
 0.0
   0
SEQEND
   0
ENDSEC
   0
EOF
