999
Inkscape export via "Better DXF Output" (bob@bobcookdev.com)
  0
SECTION
  2
HEADER
  9
$ACADVER
  1
AC1014
  9
$HANDSEED
  5
FFFF
  0
ENDSEC
  0
SECTION
  2
TABLES
  0
TABLE
  2
VPORT
  5
8
330
0
100
AcDbSymbolTable
 70
     4
  0
VPORT
  5
2E
330
8
100
AcDbSymbolTableRecord
100
AcDbViewportTableRecord
  2
*ACTIVE
 70
     0
 10
0.0
 20
0.0
 11
1.0
 21
1.0
 12
4.25
 22
5.5
 13
0.0
 23
0.0
 14
10.0
 24
10.0
 15
10.0
 25
10.0
 16
0.0
 26
0.0
 36
1.0
 17
0.0
 27
0.0
 37
0.0
 40
11
 41
1.24
 42
50.0
 43
0.0
 44
0.0
 50
0.0
 51
0.0
 71
     0
 72
   100
 73
     1
 74
     3
 75
     0
 76
     0
 77
     0
 78
     0
  0
ENDTAB
  0
TABLE
  2
LTYPE
  5
5
330
0
100
AcDbSymbolTable
 70
     1
  0
LTYPE
  5
14
330
5
100
AcDbSymbolTableRecord
100
AcDbLinetypeTableRecord
  2
BYBLOCK
 70
     0
  3

 72
    65
 73
     0
 40
0.0
  0
LTYPE
  5
15
330
5
100
AcDbSymbolTableRecord
100
AcDbLinetypeTableRecord
  2
BYLAYER
 70
     0
  3

 72
    65
 73
     0
 40
0.0
  0
LTYPE
  5
16
330
5
100
AcDbSymbolTableRecord
100
AcDbLinetypeTableRecord
  2
CONTINUOUS
 70
     0
  3
Solid line
 72
    65
 73
     0
 40
0.0
  0
ENDTAB
  0
TABLE
  2
LAYER
  5
2
330
0
100
AcDbSymbolTable
 70
1
  0
LAYER
  5
10
330
2
100
AcDbSymbolTableRecord
100
AcDbLayerTableRecord
  2
0
 70
     0
 62
     7
  6
CONTINUOUS
  0
ENDTAB
  0
TABLE
  2
STYLE
  5
3
330
0
100
AcDbSymbolTable
 70
     1
  0
STYLE
  5
11
330
3
100
AcDbSymbolTableRecord
100
AcDbTextStyleTableRecord
  2
STANDARD
 70
     0
 40
0.0
 41
1.0
 50
0.0
 71
     0
 42
2.5
  3
txt
  4

  0
ENDTAB
  0
TABLE
  2
VIEW
  5
6
330
0
100
AcDbSymbolTable
 70
     0
  0
ENDTAB
  0
TABLE
  2
UCS
  5
7
330
0
100
AcDbSymbolTable
 70
     0
  0
ENDTAB
  0
TABLE
  2
APPID
  5
9
330
0
100
AcDbSymbolTable
 70
     2
  0
APPID
  5
12
330
9
100
AcDbSymbolTableRecord
100
AcDbRegAppTableRecord
  2
ACAD
 70
     0
  0
ENDTAB
  0
TABLE
  2
DIMSTYLE
  5
A
330
0
100
AcDbSymbolTable
 70
     1
  0
DIMSTYLE
105
27
330
A
100
AcDbSymbolTableRecord
100
AcDbDimStyleTableRecord
  2
ISO-25
 70
     0
  3

  4

  5

  6

  7

 40
1.0
 41
2.5
 42
0.625
 43
3.75
 44
1.25
 45
0.0
 46
0.0
 47
0.0
 48
0.0
140
2.5
141
2.5
142
0.0
143
0.03937007874016
144
1.0
145
0.0
146
1.0
147
0.625
 71
     0
 72
     0
 73
     0
 74
     0
 75
     0
 76
     0
 77
     1
 78
     8
170
     0
171
     3
172
     1
173
     0
174
     0
175
     0
176
     0
177
     0
178
     0
270
     2
271
     2
272
     2
273
     2
274
     3
340
11
275
     0
280
     0
281
     0
282
     0
283
     0
284
     8
285
     0
286
     0
287
     3
288
     0
  0
ENDTAB
  0
TABLE
  2
BLOCK_RECORD
  5
1
330
0
100
AcDbSymbolTable
 70
     1
  0
BLOCK_RECORD
  5
1F
330
1
100
AcDbSymbolTableRecord
100
AcDbBlockTableRecord
  2
*MODEL_SPACE
  0
BLOCK_RECORD
  5
1B
330
1
100
AcDbSymbolTableRecord
100
AcDbBlockTableRecord
  2
*PAPER_SPACE
  0
ENDTAB
  0
ENDSEC
  0
SECTION
  2
BLOCKS
  0
BLOCK
  5
20
330
1F
100
AcDbEntity
  8
0
100
AcDbBlockBegin
  2
*MODEL_SPACE
 70
     0
 10
0.0
 20
0.0
 30
0.0
  3
*MODEL_SPACE
  1

  0
ENDBLK
  5
21
330
1F
100
AcDbEntity
  8
0
100
AcDbBlockEnd
  0
BLOCK
  5
1C
330
1B
100
AcDbEntity
 67
     1
  8
0
100
AcDbBlockBegin
  2
*PAPER_SPACE
  1

  0
ENDBLK
  5
1D
330
1B
100
AcDbEntity
 67
     1
  8
0
100
AcDbBlockEnd
  0
ENDSEC
  0
SECTION
  2
ENTITIES
0
LINE
8
Calque 1
62
4
5
100
100
AcDbEntity
100
AcDbLine
10
95.726577
20
20.179867
30
0.0
11
91.917168
21
20.920703
31
0.0
0
LINE
8
Calque 1
62
4
5
101
100
AcDbEntity
100
AcDbLine
10
91.917168
20
20.920703
30
0.0
11
88.257994
21
21.945607
31
0.0
0
LINE
8
Calque 1
62
4
5
102
100
AcDbEntity
100
AcDbLine
10
88.257994
20
21.945607
30
0.0
11
84.784496
21
23.235852
31
0.0
0
LINE
8
Calque 1
62
4
5
103
100
AcDbEntity
100
AcDbLine
10
84.784496
20
23.235852
30
0.0
11
81.532115
21
24.772710
31
0.0
0
LINE
8
Calque 1
62
4
5
104
100
AcDbEntity
100
AcDbLine
10
81.532115
20
24.772710
30
0.0
11
78.536294
21
26.537454
31
0.0
0
LINE
8
Calque 1
62
4
5
105
100
AcDbEntity
100
AcDbLine
10
78.536294
20
26.537454
30
0.0
11
75.832472
21
28.511356
31
0.0
0
LINE
8
Calque 1
62
4
5
106
100
AcDbEntity
100
AcDbLine
10
75.832472
20
28.511356
30
0.0
11
73.456092
21
30.675688
31
0.0
0
LINE
8
Calque 1
62
4
5
107
100
AcDbEntity
100
AcDbLine
10
73.456092
20
30.675688
30
0.0
11
71.442594
21
33.011724
31
0.0
0
LINE
8
Calque 1
62
4
5
108
100
AcDbEntity
100
AcDbLine
10
71.442594
20
33.011724
30
0.0
11
69.335887
21
36.249602
31
0.0
0
LINE
8
Calque 1
62
4
5
109
100
AcDbEntity
100
AcDbLine
10
69.335887
20
36.249602
30
0.0
11
67.724367
21
39.684282
31
0.0
0
LINE
8
Calque 1
62
4
5
10a
100
AcDbEntity
100
AcDbLine
10
67.724367
20
39.684282
30
0.0
11
66.612960
21
43.263964
31
0.0
0
LINE
8
Calque 1
62
4
5
10b
100
AcDbEntity
100
AcDbLine
10
66.612960
20
43.263964
30
0.0
11
66.006594
21
46.936849
31
0.0
0
LINE
8
Calque 1
62
4
5
10c
100
AcDbEntity
100
AcDbLine
10
66.006594
20
46.936849
30
0.0
11
65.910198
21
50.651140
31
0.0
0
LINE
8
Calque 1
62
4
5
10d
100
AcDbEntity
100
AcDbLine
10
65.910198
20
50.651140
30
0.0
11
66.328699
21
54.355036
31
0.0
0
LINE
8
Calque 1
62
4
5
10e
100
AcDbEntity
100
AcDbLine
10
66.328699
20
54.355036
30
0.0
11
67.267024
21
57.996740
31
0.0
0
LINE
8
Calque 1
62
4
5
10f
100
AcDbEntity
100
AcDbLine
10
67.267024
20
57.996740
30
0.0
11
68.730103
21
61.524451
31
0.0
0
LINE
8
Calque 1
62
4
5
110
100
AcDbEntity
100
AcDbLine
10
68.730103
20
61.524451
30
0.0
11
69.755922
21
63.369805
31
0.0
0
LINE
8
Calque 1
62
4
5
111
100
AcDbEntity
100
AcDbLine
10
69.755922
20
63.369805
30
0.0
11
70.898030
21
65.035677
31
0.0
0
LINE
8
Calque 1
62
4
5
112
100
AcDbEntity
100
AcDbLine
10
70.898030
20
65.035677
30
0.0
11
72.156853
21
66.522427
31
0.0
0
LINE
8
Calque 1
62
4
5
113
100
AcDbEntity
100
AcDbLine
10
72.156853
20
66.522427
30
0.0
11
73.532812
21
67.830416
31
0.0
0
LINE
8
Calque 1
62
4
5
114
100
AcDbEntity
100
AcDbLine
10
73.532812
20
67.830416
30
0.0
11
75.026332
21
68.960002
31
0.0
0
LINE
8
Calque 1
62
4
5
115
100
AcDbEntity
100
AcDbLine
10
75.026332
20
68.960002
30
0.0
11
76.637836
21
69.911547
31
0.0
0
LINE
8
Calque 1
62
4
5
116
100
AcDbEntity
100
AcDbLine
10
76.637836
20
69.911547
30
0.0
11
78.367748
21
70.685409
31
0.0
0
LINE
8
Calque 1
62
4
5
117
100
AcDbEntity
100
AcDbLine
10
78.367748
20
70.685409
30
0.0
11
80.216491
21
71.281949
31
0.0
0
LINE
8
Calque 1
62
4
5
118
100
AcDbEntity
100
AcDbLine
10
80.216491
20
71.281949
30
0.0
11
82.056735
21
71.568256
31
0.0
0
LINE
8
Calque 1
62
4
5
119
100
AcDbEntity
100
AcDbLine
10
82.056735
20
71.568256
30
0.0
11
84.384444
21
71.663692
31
0.0
0
LINE
8
Calque 1
62
4
5
11a
100
AcDbEntity
100
AcDbLine
10
84.384444
20
71.663692
30
0.0
11
86.712154
21
71.568256
31
0.0
0
LINE
8
Calque 1
62
4
5
11b
100
AcDbEntity
100
AcDbLine
10
86.712154
20
71.568256
30
0.0
11
88.552398
21
71.281949
31
0.0
0
LINE
8
Calque 1
62
4
5
11c
100
AcDbEntity
100
AcDbLine
10
88.552398
20
71.281949
30
0.0
11
91.365927
21
70.287880
31
0.0
0
LINE
8
Calque 1
62
4
5
11d
100
AcDbEntity
100
AcDbLine
10
91.365927
20
70.287880
30
0.0
11
93.738735
21
68.924482
31
0.0
0
LINE
8
Calque 1
62
4
5
11e
100
AcDbEntity
100
AcDbLine
10
93.738735
20
68.924482
30
0.0
11
95.659117
21
67.200174
31
0.0
0
LINE
8
Calque 1
62
4
5
11f
100
AcDbEntity
100
AcDbLine
10
95.659117
20
67.200174
30
0.0
11
97.115365
21
65.123375
31
0.0
0
LINE
8
Calque 1
62
4
5
120
100
AcDbEntity
100
AcDbLine
10
97.115365
20
65.123375
30
0.0
11
97.654151
21
64.065756
31
0.0
0
LINE
8
Calque 1
62
4
5
121
100
AcDbEntity
100
AcDbLine
10
97.654151
20
64.065756
30
0.0
11
97.939818
21
63.173479
31
0.0
0
LINE
8
Calque 1
62
4
5
122
100
AcDbEntity
100
AcDbLine
10
97.939818
20
63.173479
30
0.0
11
98.072222
21
60.254451
31
0.0
0
LINE
8
Calque 1
62
4
5
123
100
AcDbEntity
100
AcDbLine
10
98.072222
20
60.254451
30
0.0
11
97.952587
21
57.421139
31
0.0
0
LINE
8
Calque 1
62
4
5
124
100
AcDbEntity
100
AcDbLine
10
97.952587
20
57.421139
30
0.0
11
97.727760
21
56.587245
31
0.0
0
LINE
8
Calque 1
62
4
5
125
100
AcDbEntity
100
AcDbLine
10
97.727760
20
56.587245
30
0.0
11
97.326010
21
55.736723
31
0.0
0
LINE
8
Calque 1
62
4
5
126
100
AcDbEntity
100
AcDbLine
10
97.326010
20
55.736723
30
0.0
11
96.123724
21
53.923933
31
0.0
0
LINE
8
Calque 1
62
4
5
127
100
AcDbEntity
100
AcDbLine
10
96.123724
20
53.923933
30
0.0
11
94.703127
21
52.653295
31
0.0
0
LINE
8
Calque 1
62
4
5
128
100
AcDbEntity
100
AcDbLine
10
94.703127
20
52.653295
30
0.0
11
93.031463
21
51.903409
31
0.0
0
LINE
8
Calque 1
62
4
5
129
100
AcDbEntity
100
AcDbLine
10
93.031463
20
51.903409
30
0.0
11
91.075978
21
51.652871
31
0.0
0
LINE
8
Calque 1
62
4
5
12a
100
AcDbEntity
100
AcDbLine
10
91.075978
20
51.652871
30
0.0
11
89.115999
21
51.917330
31
0.0
0
LINE
8
Calque 1
62
4
5
12b
100
AcDbEntity
100
AcDbLine
10
89.115999
20
51.917330
30
0.0
11
87.525010
21
52.674888
31
0.0
0
LINE
8
Calque 1
62
4
5
12c
100
AcDbEntity
100
AcDbLine
10
87.525010
20
52.674888
30
0.0
11
86.901911
21
53.214289
31
0.0
0
LINE
8
Calque 1
62
4
5
12d
100
AcDbEntity
100
AcDbLine
10
86.901911
20
53.214289
30
0.0
11
86.411888
21
53.847815
31
0.0
0
LINE
8
Calque 1
62
4
5
12e
100
AcDbEntity
100
AcDbLine
10
86.411888
20
53.847815
30
0.0
11
86.068553
21
54.565750
31
0.0
0
LINE
8
Calque 1
62
4
5
12f
100
AcDbEntity
100
AcDbLine
10
86.068553
20
54.565750
30
0.0
11
85.885514
21
55.358378
31
0.0
0
LINE
8
Calque 1
62
4
5
130
100
AcDbEntity
100
AcDbLine
10
85.885514
20
55.358378
30
0.0
11
85.739520
21
56.585563
31
0.0
0
LINE
8
Calque 1
62
4
5
131
100
AcDbEntity
100
AcDbLine
10
85.739520
20
56.585563
30
0.0
11
86.402539
21
55.336444
31
0.0
0
LINE
8
Calque 1
62
4
5
132
100
AcDbEntity
100
AcDbLine
10
86.402539
20
55.336444
30
0.0
11
87.068954
21
54.385778
31
0.0
0
LINE
8
Calque 1
62
4
5
133
100
AcDbEntity
100
AcDbLine
10
87.068954
20
54.385778
30
0.0
11
87.896926
21
53.694643
31
0.0
0
LINE
8
Calque 1
62
4
5
134
100
AcDbEntity
100
AcDbLine
10
87.896926
20
53.694643
30
0.0
11
88.849310
21
53.264315
31
0.0
0
LINE
8
Calque 1
62
4
5
135
100
AcDbEntity
100
AcDbLine
10
88.849310
20
53.264315
30
0.0
11
89.888963
21
53.096070
31
0.0
0
LINE
8
Calque 1
62
4
5
136
100
AcDbEntity
100
AcDbLine
10
89.888963
20
53.096070
30
0.0
11
90.978739
21
53.191184
31
0.0
0
LINE
8
Calque 1
62
4
5
137
100
AcDbEntity
100
AcDbLine
10
90.978739
20
53.191184
30
0.0
11
92.081494
21
53.550932
31
0.0
0
LINE
8
Calque 1
62
4
5
138
100
AcDbEntity
100
AcDbLine
10
92.081494
20
53.550932
30
0.0
11
93.160084
21
54.176590
31
0.0
0
LINE
8
Calque 1
62
4
5
139
100
AcDbEntity
100
AcDbLine
10
93.160084
20
54.176590
30
0.0
11
94.177364
21
55.069434
31
0.0
0
LINE
8
Calque 1
62
4
5
13a
100
AcDbEntity
100
AcDbLine
10
94.177364
20
55.069434
30
0.0
11
95.040932
21
56.196507
31
0.0
0
LINE
8
Calque 1
62
4
5
13b
100
AcDbEntity
100
AcDbLine
10
95.040932
20
56.196507
30
0.0
11
95.620215
21
57.437525
31
0.0
0
LINE
8
Calque 1
62
4
5
13c
100
AcDbEntity
100
AcDbLine
10
95.620215
20
57.437525
30
0.0
11
95.917599
21
58.764780
31
0.0
0
LINE
8
Calque 1
62
4
5
13d
100
AcDbEntity
100
AcDbLine
10
95.917599
20
58.764780
30
0.0
11
95.935471
21
60.150568
31
0.0
0
LINE
8
Calque 1
62
4
5
13e
100
AcDbEntity
100
AcDbLine
10
95.935471
20
60.150568
30
0.0
11
95.676215
21
61.567184
31
0.0
0
LINE
8
Calque 1
62
4
5
13f
100
AcDbEntity
100
AcDbLine
10
95.676215
20
61.567184
30
0.0
11
95.142220
21
62.986922
31
0.0
0
LINE
8
Calque 1
62
4
5
140
100
AcDbEntity
100
AcDbLine
10
95.142220
20
62.986922
30
0.0
11
94.335871
21
64.382078
31
0.0
0
LINE
8
Calque 1
62
4
5
141
100
AcDbEntity
100
AcDbLine
10
94.335871
20
64.382078
30
0.0
11
93.259554
21
65.724945
31
0.0
0
LINE
8
Calque 1
62
4
5
142
100
AcDbEntity
100
AcDbLine
10
93.259554
20
65.724945
30
0.0
11
92.169928
21
66.749260
31
0.0
0
LINE
8
Calque 1
62
4
5
143
100
AcDbEntity
100
AcDbLine
10
92.169928
20
66.749260
30
0.0
11
90.968827
21
67.599293
31
0.0
0
LINE
8
Calque 1
62
4
5
144
100
AcDbEntity
100
AcDbLine
10
90.968827
20
67.599293
30
0.0
11
89.676007
21
68.269514
31
0.0
0
LINE
8
Calque 1
62
4
5
145
100
AcDbEntity
100
AcDbLine
10
89.676007
20
68.269514
30
0.0
11
88.311224
21
68.754391
31
0.0
0
LINE
8
Calque 1
62
4
5
146
100
AcDbEntity
100
AcDbLine
10
88.311224
20
68.754391
30
0.0
11
86.894235
21
69.048393
31
0.0
0
LINE
8
Calque 1
62
4
5
147
100
AcDbEntity
100
AcDbLine
10
86.894235
20
69.048393
30
0.0
11
85.444797
21
69.145988
31
0.0
0
LINE
8
Calque 1
62
4
5
148
100
AcDbEntity
100
AcDbLine
10
85.444797
20
69.145988
30
0.0
11
83.982665
21
69.041644
31
0.0
0
LINE
8
Calque 1
62
4
5
149
100
AcDbEntity
100
AcDbLine
10
83.982665
20
69.041644
30
0.0
11
82.527597
21
68.729830
31
0.0
0
LINE
8
Calque 1
62
4
5
14a
100
AcDbEntity
100
AcDbLine
10
82.527597
20
68.729830
30
0.0
11
80.502010
21
68.007244
31
0.0
0
LINE
8
Calque 1
62
4
5
14b
100
AcDbEntity
100
AcDbLine
10
80.502010
20
68.007244
30
0.0
11
78.610647
21
67.055523
31
0.0
0
LINE
8
Calque 1
62
4
5
14c
100
AcDbEntity
100
AcDbLine
10
78.610647
20
67.055523
30
0.0
11
76.868764
21
65.889619
31
0.0
0
LINE
8
Calque 1
62
4
5
14d
100
AcDbEntity
100
AcDbLine
10
76.868764
20
65.889619
30
0.0
11
75.291618
21
64.524479
31
0.0
0
LINE
8
Calque 1
62
4
5
14e
100
AcDbEntity
100
AcDbLine
10
75.291618
20
64.524479
30
0.0
11
73.894464
21
62.975054
31
0.0
0
LINE
8
Calque 1
62
4
5
14f
100
AcDbEntity
100
AcDbLine
10
73.894464
20
62.975054
30
0.0
11
72.692559
21
61.256294
31
0.0
0
LINE
8
Calque 1
62
4
5
150
100
AcDbEntity
100
AcDbLine
10
72.692559
20
61.256294
30
0.0
11
71.701159
21
59.383148
31
0.0
0
LINE
8
Calque 1
62
4
5
151
100
AcDbEntity
100
AcDbLine
10
71.701159
20
59.383148
30
0.0
11
70.935520
21
57.370566
31
0.0
0
LINE
8
Calque 1
62
4
5
152
100
AcDbEntity
100
AcDbLine
10
70.935520
20
57.370566
30
0.0
11
70.343793
21
54.870085
31
0.0
0
LINE
8
Calque 1
62
4
5
153
100
AcDbEntity
100
AcDbLine
10
70.343793
20
54.870085
30
0.0
11
70.346028
21
51.712846
31
0.0
0
LINE
8
Calque 1
62
4
5
154
100
AcDbEntity
100
AcDbLine
10
70.346028
20
51.712846
30
0.0
11
70.606380
21
48.684947
31
0.0
0
LINE
8
Calque 1
62
4
5
155
100
AcDbEntity
100
AcDbLine
10
70.606380
20
48.684947
30
0.0
11
71.187327
21
46.425563
31
0.0
0
LINE
8
Calque 1
62
4
5
156
100
AcDbEntity
100
AcDbLine
10
71.187327
20
46.425563
30
0.0
11
72.779856
21
42.722679
31
0.0
0
LINE
8
Calque 1
62
4
5
157
100
AcDbEntity
100
AcDbLine
10
72.779856
20
42.722679
30
0.0
11
74.797945
21
39.366527
31
0.0
0
LINE
8
Calque 1
62
4
5
158
100
AcDbEntity
100
AcDbLine
10
74.797945
20
39.366527
30
0.0
11
77.209857
21
36.382737
31
0.0
0
LINE
8
Calque 1
62
4
5
159
100
AcDbEntity
100
AcDbLine
10
77.209857
20
36.382737
30
0.0
11
79.983858
21
33.796941
31
0.0
0
LINE
8
Calque 1
62
4
5
15a
100
AcDbEntity
100
AcDbLine
10
79.983858
20
33.796941
30
0.0
11
83.088216
21
31.634773
31
0.0
0
LINE
8
Calque 1
62
4
5
15b
100
AcDbEntity
100
AcDbLine
10
83.088216
20
31.634773
30
0.0
11
86.491194
21
29.921863
31
0.0
0
LINE
8
Calque 1
62
4
5
15c
100
AcDbEntity
100
AcDbLine
10
86.491194
20
29.921863
30
0.0
11
90.161058
21
28.683844
31
0.0
0
LINE
8
Calque 1
62
4
5
15d
100
AcDbEntity
100
AcDbLine
10
90.161058
20
28.683844
30
0.0
11
94.066075
21
27.946349
31
0.0
0
LINE
8
Calque 1
62
4
5
15e
100
AcDbEntity
100
AcDbLine
10
94.066075
20
27.946349
30
0.0
11
97.021695
21
27.753648
31
0.0
0
LINE
8
Calque 1
62
4
5
15f
100
AcDbEntity
100
AcDbLine
10
97.021695
20
27.753648
30
0.0
11
99.928807
21
27.918441
31
0.0
0
LINE
8
Calque 1
62
4
5
160
100
AcDbEntity
100
AcDbLine
10
99.928807
20
27.918441
30
0.0
11
102.987479
21
28.464567
31
0.0
0
LINE
8
Calque 1
62
4
5
161
100
AcDbEntity
100
AcDbLine
10
102.987479
20
28.464567
30
0.0
11
106.397778
21
29.415868
31
0.0
0
LINE
8
Calque 1
62
4
5
162
100
AcDbEntity
100
AcDbLine
10
106.397778
20
29.415868
30
0.0
11
110.789502
21
31.098460
31
0.0
0
LINE
8
Calque 1
62
4
5
163
100
AcDbEntity
100
AcDbLine
10
110.789502
20
31.098460
30
0.0
11
114.894325
21
33.242350
31
0.0
0
LINE
8
Calque 1
62
4
5
164
100
AcDbEntity
100
AcDbLine
10
114.894325
20
33.242350
30
0.0
11
118.668964
21
35.805409
31
0.0
0
LINE
8
Calque 1
62
4
5
165
100
AcDbEntity
100
AcDbLine
10
118.668964
20
35.805409
30
0.0
11
122.070133
21
38.745509
31
0.0
0
LINE
8
Calque 1
62
4
5
166
100
AcDbEntity
100
AcDbLine
10
122.070133
20
38.745509
30
0.0
11
125.054551
21
42.020522
31
0.0
0
LINE
8
Calque 1
62
4
5
167
100
AcDbEntity
100
AcDbLine
10
125.054551
20
42.020522
30
0.0
11
127.578933
21
45.588319
31
0.0
0
LINE
8
Calque 1
62
4
5
168
100
AcDbEntity
100
AcDbLine
10
127.578933
20
45.588319
30
0.0
11
129.599995
21
49.406773
31
0.0
0
LINE
8
Calque 1
62
4
5
169
100
AcDbEntity
100
AcDbLine
10
129.599995
20
49.406773
30
0.0
11
130.408255
21
51.396831
31
0.0
0
LINE
8
Calque 1
62
4
5
16a
100
AcDbEntity
100
AcDbLine
10
130.408255
20
51.396831
30
0.0
11
131.074454
21
53.433756
31
0.0
0
LINE
8
Calque 1
62
4
5
16b
100
AcDbEntity
100
AcDbLine
10
131.074454
20
53.433756
30
0.0
11
131.706246
21
55.850110
31
0.0
0
LINE
8
Calque 1
62
4
5
16c
100
AcDbEntity
100
AcDbLine
10
131.706246
20
55.850110
30
0.0
11
132.099698
21
58.012594
31
0.0
0
LINE
8
Calque 1
62
4
5
16d
100
AcDbEntity
100
AcDbLine
10
132.099698
20
58.012594
30
0.0
11
132.301937
21
60.270956
31
0.0
0
LINE
8
Calque 1
62
4
5
16e
100
AcDbEntity
100
AcDbLine
10
132.301937
20
60.270956
30
0.0
11
132.360091
21
62.974941
31
0.0
0
LINE
8
Calque 1
62
4
5
16f
100
AcDbEntity
100
AcDbLine
10
132.360091
20
62.974941
30
0.0
11
132.262140
21
65.769884
31
0.0
0
LINE
8
Calque 1
62
4
5
170
100
AcDbEntity
100
AcDbLine
10
132.262140
20
65.769884
30
0.0
11
131.950711
21
68.447958
31
0.0
0
LINE
8
Calque 1
62
4
5
171
100
AcDbEntity
100
AcDbLine
10
131.950711
20
68.447958
30
0.0
11
131.404589
21
71.069057
31
0.0
0
LINE
8
Calque 1
62
4
5
172
100
AcDbEntity
100
AcDbLine
10
131.404589
20
71.069057
30
0.0
11
130.602559
21
73.693076
31
0.0
0
LINE
8
Calque 1
62
4
5
173
100
AcDbEntity
100
AcDbLine
10
130.602559
20
73.693076
30
0.0
11
129.523404
21
76.379912
31
0.0
0
LINE
8
Calque 1
62
4
5
174
100
AcDbEntity
100
AcDbLine
10
129.523404
20
76.379912
30
0.0
11
128.145909
21
79.189458
31
0.0
0
LINE
8
Calque 1
62
4
5
175
100
AcDbEntity
100
AcDbLine
10
128.145909
20
79.189458
30
0.0
11
126.448857
21
82.181611
31
0.0
0
LINE
8
Calque 1
62
4
5
176
100
AcDbEntity
100
AcDbLine
10
126.448857
20
82.181611
30
0.0
11
124.411032
21
85.416264
31
0.0
0
LINE
8
Calque 1
62
4
5
177
100
AcDbEntity
100
AcDbLine
10
124.411032
20
85.416264
30
0.0
11
119.439408
21
92.537909
31
0.0
0
LINE
8
Calque 1
62
4
5
178
100
AcDbEntity
100
AcDbLine
10
119.439408
20
92.537909
30
0.0
11
110.342212
21
104.422229
31
0.0
0
LINE
8
Calque 1
62
4
5
179
100
AcDbEntity
100
AcDbLine
10
110.342212
20
104.422229
30
0.0
11
102.577173
21
114.644910
31
0.0
0
LINE
8
Calque 1
62
4
5
17a
100
AcDbEntity
100
AcDbLine
10
102.577173
20
114.644910
30
0.0
11
97.196346
21
122.308143
31
0.0
0
LINE
8
Calque 1
62
4
5
17b
100
AcDbEntity
100
AcDbLine
10
97.196346
20
122.308143
30
0.0
11
95.253611
21
125.403076
31
0.0
0
LINE
8
Calque 1
62
4
5
17c
100
AcDbEntity
100
AcDbLine
10
95.253611
20
125.403076
30
0.0
11
93.731248
21
128.125880
31
0.0
0
LINE
8
Calque 1
62
4
5
17d
100
AcDbEntity
100
AcDbLine
10
93.731248
20
128.125880
30
0.0
11
92.570698
21
130.565799
31
0.0
0
LINE
8
Calque 1
62
4
5
17e
100
AcDbEntity
100
AcDbLine
10
92.570698
20
130.565799
30
0.0
11
91.713400
21
132.812077
31
0.0
0
LINE
8
Calque 1
62
4
5
17f
100
AcDbEntity
100
AcDbLine
10
91.713400
20
132.812077
30
0.0
11
90.505992
21
135.449446
31
0.0
0
LINE
8
Calque 1
62
4
5
180
100
AcDbEntity
100
AcDbLine
10
90.505992
20
135.449446
30
0.0
11
88.760343
21
138.017335
31
0.0
0
LINE
8
Calque 1
62
4
5
181
100
AcDbEntity
100
AcDbLine
10
88.760343
20
138.017335
30
0.0
11
86.729539
21
140.197540
31
0.0
0
LINE
8
Calque 1
62
4
5
182
100
AcDbEntity
100
AcDbLine
10
86.729539
20
140.197540
30
0.0
11
85.686293
21
141.042822
31
0.0
0
LINE
8
Calque 1
62
4
5
183
100
AcDbEntity
100
AcDbLine
10
85.686293
20
141.042822
30
0.0
11
84.666667
21
141.671857
31
0.0
0
LINE
8
Calque 1
62
4
5
184
100
AcDbEntity
100
AcDbLine
10
84.666667
20
141.671857
30
0.0
11
83.342392
21
142.207756
31
0.0
0
LINE
8
Calque 1
62
4
5
185
100
AcDbEntity
100
AcDbLine
10
83.342392
20
142.207756
30
0.0
11
81.894062
21
142.543568
31
0.0
0
LINE
8
Calque 1
62
4
5
186
100
AcDbEntity
100
AcDbLine
10
81.894062
20
142.543568
30
0.0
11
80.354513
21
142.682364
31
0.0
0
LINE
8
Calque 1
62
4
5
187
100
AcDbEntity
100
AcDbLine
10
80.354513
20
142.682364
30
0.0
11
78.756579
21
142.627213
31
0.0
0
LINE
8
Calque 1
62
4
5
188
100
AcDbEntity
100
AcDbLine
10
78.756579
20
142.627213
30
0.0
11
77.133098
21
142.381186
31
0.0
0
LINE
8
Calque 1
62
4
5
189
100
AcDbEntity
100
AcDbLine
10
77.133098
20
142.381186
30
0.0
11
75.516903
21
141.947352
31
0.0
0
LINE
8
Calque 1
62
4
5
18a
100
AcDbEntity
100
AcDbLine
10
75.516903
20
141.947352
30
0.0
11
73.940830
21
141.328781
31
0.0
0
LINE
8
Calque 1
62
4
5
18b
100
AcDbEntity
100
AcDbLine
10
73.940830
20
141.328781
30
0.0
11
72.437715
21
140.528544
31
0.0
0
LINE
8
Calque 1
62
4
5
18c
100
AcDbEntity
100
AcDbLine
10
72.437715
20
140.528544
30
0.0
11
71.560519
21
140.049073
31
0.0
0
LINE
8
Calque 1
62
4
5
18d
100
AcDbEntity
100
AcDbLine
10
71.560519
20
140.049073
30
0.0
11
70.978317
21
139.877339
31
0.0
0
LINE
8
Calque 1
62
4
5
18e
100
AcDbEntity
100
AcDbLine
10
70.978317
20
139.877339
30
0.0
11
70.655273
21
140.011868
31
0.0
0
LINE
8
Calque 1
62
4
5
18f
100
AcDbEntity
100
AcDbLine
10
70.655273
20
140.011868
30
0.0
11
70.555556
21
140.451187
31
0.0
0
LINE
8
Calque 1
62
4
5
190
100
AcDbEntity
100
AcDbLine
10
70.555556
20
140.451187
30
0.0
11
69.468196
21
143.186199
31
0.0
0
LINE
8
Calque 1
62
4
5
191
100
AcDbEntity
100
AcDbLine
10
69.468196
20
143.186199
30
0.0
11
68.203450
21
145.542720
31
0.0
0
LINE
8
Calque 1
62
4
5
192
100
AcDbEntity
100
AcDbLine
10
68.203450
20
145.542720
30
0.0
11
66.778969
21
147.598611
31
0.0
0
LINE
8
Calque 1
62
4
5
193
100
AcDbEntity
100
AcDbLine
10
66.778969
20
147.598611
30
0.0
11
65.192051
21
149.355803
31
0.0
0
LINE
8
Calque 1
62
4
5
194
100
AcDbEntity
100
AcDbLine
10
65.192051
20
149.355803
30
0.0
11
63.439994
21
150.816228
31
0.0
0
LINE
8
Calque 1
62
4
5
195
100
AcDbEntity
100
AcDbLine
10
63.439994
20
150.816228
30
0.0
11
61.520096
21
151.981819
31
0.0
0
LINE
8
Calque 1
62
4
5
196
100
AcDbEntity
100
AcDbLine
10
61.520096
20
151.981819
30
0.0
11
59.429656
21
152.854507
31
0.0
0
LINE
8
Calque 1
62
4
5
197
100
AcDbEntity
100
AcDbLine
10
59.429656
20
152.854507
30
0.0
11
57.165971
21
153.436226
31
0.0
0
LINE
8
Calque 1
62
4
5
198
100
AcDbEntity
100
AcDbLine
10
57.165971
20
153.436226
30
0.0
11
54.726340
21
153.728907
31
0.0
0
LINE
8
Calque 1
62
4
5
199
100
AcDbEntity
100
AcDbLine
10
54.726340
20
153.728907
30
0.0
11
51.594317
21
153.676574
31
0.0
0
LINE
8
Calque 1
62
4
5
19a
100
AcDbEntity
100
AcDbLine
10
51.594317
20
153.676574
30
0.0
11
48.695404
21
153.140439
31
0.0
0
LINE
8
Calque 1
62
4
5
19b
100
AcDbEntity
100
AcDbLine
10
48.695404
20
153.140439
30
0.0
11
46.035560
21
152.124993
31
0.0
0
LINE
8
Calque 1
62
4
5
19c
100
AcDbEntity
100
AcDbLine
10
46.035560
20
152.124993
30
0.0
11
43.620745
21
150.634726
31
0.0
0
LINE
8
Calque 1
62
4
5
19d
100
AcDbEntity
100
AcDbLine
10
43.620745
20
150.634726
30
0.0
11
41.456919
21
148.674132
31
0.0
0
LINE
8
Calque 1
62
4
5
19e
100
AcDbEntity
100
AcDbLine
10
41.456919
20
148.674132
30
0.0
11
39.550039
21
146.247701
31
0.0
0
LINE
8
Calque 1
62
4
5
19f
100
AcDbEntity
100
AcDbLine
10
39.550039
20
146.247701
30
0.0
11
37.906067
21
143.359924
31
0.0
0
LINE
8
Calque 1
62
4
5
1a0
100
AcDbEntity
100
AcDbLine
10
37.906067
20
143.359924
30
0.0
11
36.530960
21
140.015294
31
0.0
0
LINE
8
Calque 1
62
4
5
1a1
100
AcDbEntity
100
AcDbLine
10
36.530960
20
140.015294
30
0.0
11
36.372872
21
140.030356
31
0.0
0
LINE
8
Calque 1
62
4
5
1a2
100
AcDbEntity
100
AcDbLine
10
36.372872
20
140.030356
30
0.0
11
36.041276
21
140.382152
31
0.0
0
LINE
8
Calque 1
62
4
5
1a3
100
AcDbEntity
100
AcDbLine
10
36.041276
20
140.382152
30
0.0
11
35.009850
21
141.906587
31
0.0
0
LINE
8
Calque 1
62
4
5
1a4
100
AcDbEntity
100
AcDbLine
10
35.009850
20
141.906587
30
0.0
11
31.162687
21
147.677139
31
0.0
0
LINE
8
Calque 1
62
4
5
1a5
100
AcDbEntity
100
AcDbLine
10
31.162687
20
147.677139
30
0.0
11
27.005539
21
152.891411
31
0.0
0
LINE
8
Calque 1
62
4
5
1a6
100
AcDbEntity
100
AcDbLine
10
27.005539
20
152.891411
30
0.0
11
24.867215
21
155.225272
31
0.0
0
LINE
8
Calque 1
62
4
5
1a7
100
AcDbEntity
100
AcDbLine
10
24.867215
20
155.225272
30
0.0
11
22.719190
21
157.342459
31
0.0
0
LINE
8
Calque 1
62
4
5
1a8
100
AcDbEntity
100
AcDbLine
10
22.719190
20
157.342459
30
0.0
11
20.584060
21
159.217103
31
0.0
0
LINE
8
Calque 1
62
4
5
1a9
100
AcDbEntity
100
AcDbLine
10
20.584060
20
159.217103
30
0.0
11
18.484424
21
160.823338
31
0.0
0
LINE
8
Calque 1
62
4
5
1aa
100
AcDbEntity
100
AcDbLine
10
18.484424
20
160.823338
30
0.0
11
15.945278
21
162.449740
31
0.0
0
LINE
8
Calque 1
62
4
5
1ab
100
AcDbEntity
100
AcDbLine
10
15.945278
20
162.449740
30
0.0
11
13.201490
21
163.924357
31
0.0
0
LINE
8
Calque 1
62
4
5
1ac
100
AcDbEntity
100
AcDbLine
10
13.201490
20
163.924357
30
0.0
11
10.488896
21
165.131287
31
0.0
0
LINE
8
Calque 1
62
4
5
1ad
100
AcDbEntity
100
AcDbLine
10
10.488896
20
165.131287
30
0.0
11
8.043333
21
165.954627
31
0.0
0
LINE
8
Calque 1
62
4
5
1ae
100
AcDbEntity
100
AcDbLine
10
8.043333
20
165.954627
30
0.0
11
5.665066
21
166.414960
31
0.0
0
LINE
8
Calque 1
62
4
5
1af
100
AcDbEntity
100
AcDbLine
10
5.665066
20
166.414960
30
0.0
11
2.942235
21
166.683904
31
0.0
0
LINE
8
Calque 1
62
4
5
1b0
100
AcDbEntity
100
AcDbLine
10
2.942235
20
166.683904
30
0.0
11
0.306661
21
166.735618
31
0.0
0
LINE
8
Calque 1
62
4
5
1b1
100
AcDbEntity
100
AcDbLine
10
0.306661
20
166.735618
30
0.0
11
-1.809837
21
166.544262
31
0.0
0
LINE
8
Calque 1
62
4
5
1b2
100
AcDbEntity
100
AcDbLine
10
-1.809837
20
166.544262
30
0.0
11
-3.582408
21
166.127228
31
0.0
0
LINE
8
Calque 1
62
4
5
1b3
100
AcDbEntity
100
AcDbLine
10
-3.582408
20
166.127228
30
0.0
11
-2.989724
21
162.245586
31
0.0
0
LINE
8
Calque 1
62
4
5
1b4
100
AcDbEntity
100
AcDbLine
10
-2.989724
20
162.245586
30
0.0
11
-1.418088
21
152.258896
31
0.0
0
LINE
8
Calque 1
62
4
5
1b5
100
AcDbEntity
100
AcDbLine
10
-1.418088
20
152.258896
30
0.0
11
-0.140303
21
144.046254
31
0.0
0
LINE
8
Calque 1
62
4
5
1b6
100
AcDbEntity
100
AcDbLine
10
-0.140303
20
144.046254
30
0.0
11
1.327813
21
137.583340
31
0.0
0
LINE
8
Calque 1
62
4
5
1b7
100
AcDbEntity
100
AcDbLine
10
1.327813
20
137.583340
30
0.0
11
2.489533
21
133.432484
31
0.0
0
LINE
8
Calque 1
62
4
5
1b8
100
AcDbEntity
100
AcDbLine
10
2.489533
20
133.432484
30
0.0
11
3.883297
21
129.178920
31
0.0
0
LINE
8
Calque 1
62
4
5
1b9
100
AcDbEntity
100
AcDbLine
10
3.883297
20
129.178920
30
0.0
11
5.483517
21
124.881120
31
0.0
0
LINE
8
Calque 1
62
4
5
1ba
100
AcDbEntity
100
AcDbLine
10
5.483517
20
124.881120
30
0.0
11
7.264604
21
120.597553
31
0.0
0
LINE
8
Calque 1
62
4
5
1bb
100
AcDbEntity
100
AcDbLine
10
7.264604
20
120.597553
30
0.0
11
9.200969
21
116.386688
31
0.0
0
LINE
8
Calque 1
62
4
5
1bc
100
AcDbEntity
100
AcDbLine
10
9.200969
20
116.386688
30
0.0
11
11.267025
21
112.306996
31
0.0
0
LINE
8
Calque 1
62
4
5
1bd
100
AcDbEntity
100
AcDbLine
10
11.267025
20
112.306996
30
0.0
11
13.437183
21
108.416946
31
0.0
0
LINE
8
Calque 1
62
4
5
1be
100
AcDbEntity
100
AcDbLine
10
13.437183
20
108.416946
30
0.0
11
15.685855
21
104.775007
31
0.0
0
LINE
8
Calque 1
62
4
5
1bf
100
AcDbEntity
100
AcDbLine
10
15.685855
20
104.775007
30
0.0
11
17.023204
21
102.446674
31
0.0
0
LINE
8
Calque 1
62
4
5
1c0
100
AcDbEntity
100
AcDbLine
10
17.023204
20
102.446674
30
0.0
11
16.343644
21
102.830472
31
0.0
0
LINE
8
Calque 1
62
4
5
1c1
100
AcDbEntity
100
AcDbLine
10
16.343644
20
102.830472
30
0.0
11
15.034136
21
103.836836
31
0.0
0
LINE
8
Calque 1
62
4
5
1c2
100
AcDbEntity
100
AcDbLine
10
15.034136
20
103.836836
30
0.0
11
11.598108
21
106.847068
31
0.0
0
LINE
8
Calque 1
62
4
5
1c3
100
AcDbEntity
100
AcDbLine
10
11.598108
20
106.847068
30
0.0
11
8.962131
21
109.498840
31
0.0
0
LINE
8
Calque 1
62
4
5
1c4
100
AcDbEntity
100
AcDbLine
10
8.962131
20
109.498840
30
0.0
11
5.762446
21
113.055461
31
0.0
0
LINE
8
Calque 1
62
4
5
1c5
100
AcDbEntity
100
AcDbLine
10
5.762446
20
113.055461
30
0.0
11
-3.195941
21
123.882648
31
0.0
0
LINE
8
Calque 1
62
4
5
1c6
100
AcDbEntity
100
AcDbLine
10
-3.195941
20
123.882648
30
0.0
11
-12.050612
21
134.683504
31
0.0
0
LINE
8
Calque 1
62
4
5
1c7
100
AcDbEntity
100
AcDbLine
10
-12.050612
20
134.683504
30
0.0
11
-14.886262
21
137.871501
31
0.0
0
LINE
8
Calque 1
62
4
5
1c8
100
AcDbEntity
100
AcDbLine
10
-14.886262
20
137.871501
30
0.0
11
-17.511291
21
140.576349
31
0.0
0
LINE
8
Calque 1
62
4
5
1c9
100
AcDbEntity
100
AcDbLine
10
-17.511291
20
140.576349
30
0.0
11
-19.899240
21
142.835194
31
0.0
0
LINE
8
Calque 1
62
4
5
1ca
100
AcDbEntity
100
AcDbLine
10
-19.899240
20
142.835194
30
0.0
11
-22.040571
21
144.606357
31
0.0
0
LINE
8
Calque 1
62
4
5
1cb
100
AcDbEntity
100
AcDbLine
10
-22.040571
20
144.606357
30
0.0
11
-24.073344
21
145.994328
31
0.0
0
LINE
8
Calque 1
62
4
5
1cc
100
AcDbEntity
100
AcDbLine
10
-24.073344
20
145.994328
30
0.0
11
-26.135624
21
147.103599
31
0.0
0
LINE
8
Calque 1
62
4
5
1cd
100
AcDbEntity
100
AcDbLine
10
-26.135624
20
147.103599
30
0.0
11
-28.086717
21
147.851587
31
0.0
0
LINE
8
Calque 1
62
4
5
1ce
100
AcDbEntity
100
AcDbLine
10
-28.086717
20
147.851587
30
0.0
11
-30.056667
21
148.018546
31
0.0
0
LINE
8
Calque 1
62
4
5
1cf
100
AcDbEntity
100
AcDbLine
10
-30.056667
20
148.018546
30
0.0
11
-31.704722
21
147.894424
31
0.0
0
LINE
8
Calque 1
62
4
5
1d0
100
AcDbEntity
100
AcDbLine
10
-31.704722
20
147.894424
30
0.0
11
-33.080096
21
147.481162
31
0.0
0
LINE
8
Calque 1
62
4
5
1d1
100
AcDbEntity
100
AcDbLine
10
-33.080096
20
147.481162
30
0.0
11
-34.354866
21
146.701291
31
0.0
0
LINE
8
Calque 1
62
4
5
1d2
100
AcDbEntity
100
AcDbLine
10
-34.354866
20
146.701291
30
0.0
11
-35.701111
21
145.477341
31
0.0
0
LINE
8
Calque 1
62
4
5
1d3
100
AcDbEntity
100
AcDbLine
10
-35.701111
20
145.477341
30
0.0
11
-37.343654
21
143.341127
31
0.0
0
LINE
8
Calque 1
62
4
5
1d4
100
AcDbEntity
100
AcDbLine
10
-37.343654
20
143.341127
30
0.0
11
-38.933168
21
140.427181
31
0.0
0
LINE
8
Calque 1
62
4
5
1d5
100
AcDbEntity
100
AcDbLine
10
-38.933168
20
140.427181
30
0.0
11
-40.357864
21
136.971730
31
0.0
0
LINE
8
Calque 1
62
4
5
1d6
100
AcDbEntity
100
AcDbLine
10
-40.357864
20
136.971730
30
0.0
11
-41.505951
21
133.211001
31
0.0
0
LINE
8
Calque 1
62
4
5
1d7
100
AcDbEntity
100
AcDbLine
10
-41.505951
20
133.211001
30
0.0
11
-41.827509
21
131.943107
31
0.0
0
LINE
8
Calque 1
62
4
5
1d8
100
AcDbEntity
100
AcDbLine
10
-41.827509
20
131.943107
30
0.0
11
-42.330443
21
132.928779
31
0.0
0
LINE
8
Calque 1
62
4
5
1d9
100
AcDbEntity
100
AcDbLine
10
-42.330443
20
132.928779
30
0.0
11
-43.166610
21
135.065758
31
0.0
0
LINE
8
Calque 1
62
4
5
1da
100
AcDbEntity
100
AcDbLine
10
-43.166610
20
135.065758
30
0.0
11
-44.104574
21
138.768858
31
0.0
0
LINE
8
Calque 1
62
4
5
1db
100
AcDbEntity
100
AcDbLine
10
-44.104574
20
138.768858
30
0.0
11
-47.147796
21
154.783602
31
0.0
0
LINE
8
Calque 1
62
4
5
1dc
100
AcDbEntity
100
AcDbLine
10
-47.147796
20
154.783602
30
0.0
11
-49.966098
21
169.616018
31
0.0
0
LINE
8
Calque 1
62
4
5
1dd
100
AcDbEntity
100
AcDbLine
10
-49.966098
20
169.616018
30
0.0
11
-51.057126
21
174.680052
31
0.0
0
LINE
8
Calque 1
62
4
5
1de
100
AcDbEntity
100
AcDbLine
10
-51.057126
20
174.680052
30
0.0
11
-51.830230
21
177.658896
31
0.0
0
LINE
8
Calque 1
62
4
5
1df
100
AcDbEntity
100
AcDbLine
10
-51.830230
20
177.658896
30
0.0
11
-53.127196
21
180.782018
31
0.0
0
LINE
8
Calque 1
62
4
5
1e0
100
AcDbEntity
100
AcDbLine
10
-53.127196
20
180.782018
30
0.0
11
-53.915903
21
182.135394
31
0.0
0
LINE
8
Calque 1
62
4
5
1e1
100
AcDbEntity
100
AcDbLine
10
-53.915903
20
182.135394
30
0.0
11
-54.794969
21
183.348566
31
0.0
0
LINE
8
Calque 1
62
4
5
1e2
100
AcDbEntity
100
AcDbLine
10
-54.794969
20
183.348566
30
0.0
11
-55.762048
21
184.420470
31
0.0
0
LINE
8
Calque 1
62
4
5
1e3
100
AcDbEntity
100
AcDbLine
10
-55.762048
20
184.420470
30
0.0
11
-56.814798
21
185.350047
31
0.0
0
LINE
8
Calque 1
62
4
5
1e4
100
AcDbEntity
100
AcDbLine
10
-56.814798
20
185.350047
30
0.0
11
-57.950875
21
186.136234
31
0.0
0
LINE
8
Calque 1
62
4
5
1e5
100
AcDbEntity
100
AcDbLine
10
-57.950875
20
186.136234
30
0.0
11
-59.167935
21
186.777971
31
0.0
0
LINE
8
Calque 1
62
4
5
1e6
100
AcDbEntity
100
AcDbLine
10
-59.167935
20
186.777971
30
0.0
11
-60.463635
21
187.274195
31
0.0
0
LINE
8
Calque 1
62
4
5
1e7
100
AcDbEntity
100
AcDbLine
10
-60.463635
20
187.274195
30
0.0
11
-61.835630
21
187.623846
31
0.0
0
LINE
8
Calque 1
62
4
5
1e8
100
AcDbEntity
100
AcDbLine
10
-61.835630
20
187.623846
30
0.0
11
-63.281577
21
187.825862
31
0.0
0
LINE
8
Calque 1
62
4
5
1e9
100
AcDbEntity
100
AcDbLine
10
-63.281577
20
187.825862
30
0.0
11
-64.799132
21
187.879181
31
0.0
0
LINE
8
Calque 1
62
4
5
1ea
100
AcDbEntity
100
AcDbLine
10
-64.799132
20
187.879181
30
0.0
11
-68.039691
21
187.535485
31
0.0
0
LINE
8
Calque 1
62
4
5
1eb
100
AcDbEntity
100
AcDbLine
10
-68.039691
20
187.535485
30
0.0
11
-71.538558
21
186.584267
31
0.0
0
LINE
8
Calque 1
62
4
5
1ec
100
AcDbEntity
100
AcDbLine
10
-71.538558
20
186.584267
30
0.0
11
-74.325376
21
185.567403
31
0.0
0
LINE
8
Calque 1
62
4
5
1ed
100
AcDbEntity
100
AcDbLine
10
-74.325376
20
185.567403
30
0.0
11
-74.449267
21
185.692405
31
0.0
0
LINE
8
Calque 1
62
4
5
1ee
100
AcDbEntity
100
AcDbLine
10
-74.449267
20
185.692405
30
0.0
11
-74.238743
21
186.356649
31
0.0
0
LINE
8
Calque 1
62
4
5
1ef
100
AcDbEntity
100
AcDbLine
10
-74.238743
20
186.356649
30
0.0
11
-72.718154
21
189.540934
31
0.0
0
LINE
8
Calque 1
62
4
5
1f0
100
AcDbEntity
100
AcDbLine
10
-72.718154
20
189.540934
30
0.0
11
-69.782366
21
195.100162
31
0.0
0
LINE
8
Calque 1
62
4
5
1f1
100
AcDbEntity
100
AcDbLine
10
-69.782366
20
195.100162
30
0.0
11
-66.713295
21
200.458056
31
0.0
0
LINE
8
Calque 1
62
4
5
1f2
100
AcDbEntity
100
AcDbLine
10
-66.713295
20
200.458056
30
0.0
11
-63.510472
21
205.615100
31
0.0
0
LINE
8
Calque 1
62
4
5
1f3
100
AcDbEntity
100
AcDbLine
10
-63.510472
20
205.615100
30
0.0
11
-60.173427
21
210.571775
31
0.0
0
LINE
8
Calque 1
62
4
5
1f4
100
AcDbEntity
100
AcDbLine
10
-60.173427
20
210.571775
30
0.0
11
-56.701691
21
215.328564
31
0.0
0
LINE
8
Calque 1
62
4
5
1f5
100
AcDbEntity
100
AcDbLine
10
-56.701691
20
215.328564
30
0.0
11
-53.094796
21
219.885949
31
0.0
0
LINE
8
Calque 1
62
4
5
1f6
100
AcDbEntity
100
AcDbLine
10
-53.094796
20
219.885949
30
0.0
11
-49.352273
21
224.244413
31
0.0
0
LINE
8
Calque 1
62
4
5
1f7
100
AcDbEntity
100
AcDbLine
10
-49.352273
20
224.244413
30
0.0
11
-45.473653
21
228.404439
31
0.0
0
LINE
8
Calque 1
62
4
5
1f8
100
AcDbEntity
100
AcDbLine
10
-45.473653
20
228.404439
30
0.0
11
-41.458466
21
232.366509
31
0.0
0
LINE
8
Calque 1
62
4
5
1f9
100
AcDbEntity
100
AcDbLine
10
-41.458466
20
232.366509
30
0.0
11
-37.306245
21
236.131106
31
0.0
0
LINE
8
Calque 1
62
4
5
1fa
100
AcDbEntity
100
AcDbLine
10
-37.306245
20
236.131106
30
0.0
11
-33.016520
21
239.698711
31
0.0
0
LINE
8
Calque 1
62
4
5
1fb
100
AcDbEntity
100
AcDbLine
10
-33.016520
20
239.698711
30
0.0
11
-28.588821
21
243.069808
31
0.0
0
LINE
8
Calque 1
62
4
5
1fc
100
AcDbEntity
100
AcDbLine
10
-28.588821
20
243.069808
30
0.0
11
-24.022681
21
246.244879
31
0.0
0
LINE
8
Calque 1
62
4
5
1fd
100
AcDbEntity
100
AcDbLine
10
-24.022681
20
246.244879
30
0.0
11
-19.317630
21
249.224407
31
0.0
0
LINE
8
Calque 1
62
4
5
1fe
100
AcDbEntity
100
AcDbLine
10
-19.317630
20
249.224407
30
0.0
11
-14.473200
21
252.008873
31
0.0
0
LINE
8
Calque 1
62
4
5
1ff
100
AcDbEntity
100
AcDbLine
10
-14.473200
20
252.008873
30
0.0
11
-9.488921
21
254.598761
31
0.0
0
LINE
8
Calque 1
62
4
5
200
100
AcDbEntity
100
AcDbLine
10
-9.488921
20
254.598761
30
0.0
11
-2.757622
21
257.689807
31
0.0
0
LINE
8
Calque 1
62
4
5
201
100
AcDbEntity
100
AcDbLine
10
-2.757622
20
257.689807
30
0.0
11
4.115566
21
260.393102
31
0.0
0
LINE
8
Calque 1
62
4
5
202
100
AcDbEntity
100
AcDbLine
10
4.115566
20
260.393102
30
0.0
11
11.131834
21
262.708932
31
0.0
0
LINE
8
Calque 1
62
4
5
203
100
AcDbEntity
100
AcDbLine
10
11.131834
20
262.708932
30
0.0
11
18.292375
21
264.637584
31
0.0
0
LINE
8
Calque 1
62
4
5
204
100
AcDbEntity
100
AcDbLine
10
18.292375
20
264.637584
30
0.0
11
25.598381
21
266.179344
31
0.0
0
LINE
8
Calque 1
62
4
5
205
100
AcDbEntity
100
AcDbLine
10
25.598381
20
266.179344
30
0.0
11
33.051045
21
267.334498
31
0.0
0
LINE
8
Calque 1
62
4
5
206
100
AcDbEntity
100
AcDbLine
10
33.051045
20
267.334498
30
0.0
11
40.651557
21
268.103331
31
0.0
0
LINE
8
Calque 1
62
4
5
207
100
AcDbEntity
100
AcDbLine
10
40.651557
20
268.103331
30
0.0
11
48.401111
21
268.486129
31
0.0
0
LINE
8
Calque 1
62
4
5
208
100
AcDbEntity
100
AcDbLine
10
48.401111
20
268.486129
30
0.0
11
56.624085
21
268.373212
31
0.0
0
LINE
8
Calque 1
62
4
5
209
100
AcDbEntity
100
AcDbLine
10
56.624085
20
268.373212
30
0.0
11
60.415070
21
268.164272
31
0.0
0
LINE
8
Calque 1
62
4
5
20a
100
AcDbEntity
100
AcDbLine
10
60.415070
20
268.164272
30
0.0
11
62.763313
21
267.903535
31
0.0
0
LINE
8
Calque 1
62
4
5
20b
100
AcDbEntity
100
AcDbLine
10
62.763313
20
267.903535
30
0.0
11
63.836259
21
267.680611
31
0.0
0
LINE
8
Calque 1
62
4
5
20c
100
AcDbEntity
100
AcDbLine
10
63.836259
20
267.680611
30
0.0
11
61.459220
21
265.796845
31
0.0
0
LINE
8
Calque 1
62
4
5
20d
100
AcDbEntity
100
AcDbLine
10
61.459220
20
265.796845
30
0.0
11
59.500276
21
264.142732
31
0.0
0
LINE
8
Calque 1
62
4
5
20e
100
AcDbEntity
100
AcDbLine
10
59.500276
20
264.142732
30
0.0
11
57.740237
21
262.440414
31
0.0
0
LINE
8
Calque 1
62
4
5
20f
100
AcDbEntity
100
AcDbLine
10
57.740237
20
262.440414
30
0.0
11
56.173415
21
260.681681
31
0.0
0
LINE
8
Calque 1
62
4
5
210
100
AcDbEntity
100
AcDbLine
10
56.173415
20
260.681681
30
0.0
11
54.794124
21
258.858323
31
0.0
0
LINE
8
Calque 1
62
4
5
211
100
AcDbEntity
100
AcDbLine
10
54.794124
20
258.858323
30
0.0
11
53.596675
21
256.962131
31
0.0
0
LINE
8
Calque 1
62
4
5
212
100
AcDbEntity
100
AcDbLine
10
53.596675
20
256.962131
30
0.0
11
52.575382
21
254.984895
31
0.0
0
LINE
8
Calque 1
62
4
5
213
100
AcDbEntity
100
AcDbLine
10
52.575382
20
254.984895
30
0.0
11
51.724558
21
252.918405
31
0.0
0
LINE
8
Calque 1
62
4
5
214
100
AcDbEntity
100
AcDbLine
10
51.724558
20
252.918405
30
0.0
11
51.038514
21
250.754451
31
0.0
0
LINE
8
Calque 1
62
4
5
215
100
AcDbEntity
100
AcDbLine
10
51.038514
20
250.754451
30
0.0
11
50.552249
21
247.700149
31
0.0
0
LINE
8
Calque 1
62
4
5
216
100
AcDbEntity
100
AcDbLine
10
50.552249
20
247.700149
30
0.0
11
50.358094
21
243.700816
31
0.0
0
LINE
8
Calque 1
62
4
5
217
100
AcDbEntity
100
AcDbLine
10
50.358094
20
243.700816
30
0.0
11
50.465065
21
239.594689
31
0.0
0
LINE
8
Calque 1
62
4
5
218
100
AcDbEntity
100
AcDbLine
10
50.465065
20
239.594689
30
0.0
11
50.882177
21
236.220007
31
0.0
0
LINE
8
Calque 1
62
4
5
219
100
AcDbEntity
100
AcDbLine
10
50.882177
20
236.220007
30
0.0
11
52.136592
21
231.248534
31
0.0
0
LINE
8
Calque 1
62
4
5
21a
100
AcDbEntity
100
AcDbLine
10
52.136592
20
231.248534
30
0.0
11
53.755722
21
226.475957
31
0.0
0
LINE
8
Calque 1
62
4
5
21b
100
AcDbEntity
100
AcDbLine
10
53.755722
20
226.475957
30
0.0
11
55.723380
21
221.929621
31
0.0
0
LINE
8
Calque 1
62
4
5
21c
100
AcDbEntity
100
AcDbLine
10
55.723380
20
221.929621
30
0.0
11
58.023380
21
217.636868
31
0.0
0
LINE
8
Calque 1
62
4
5
21d
100
AcDbEntity
100
AcDbLine
10
58.023380
20
217.636868
30
0.0
11
60.639535
21
213.625041
31
0.0
0
LINE
8
Calque 1
62
4
5
21e
100
AcDbEntity
100
AcDbLine
10
60.639535
20
213.625041
30
0.0
11
63.555658
21
209.921484
31
0.0
0
LINE
8
Calque 1
62
4
5
21f
100
AcDbEntity
100
AcDbLine
10
63.555658
20
209.921484
30
0.0
11
66.755564
21
206.553540
31
0.0
0
LINE
8
Calque 1
62
4
5
220
100
AcDbEntity
100
AcDbLine
10
66.755564
20
206.553540
30
0.0
11
70.223064
21
203.548551
31
0.0
0
LINE
8
Calque 1
62
4
5
221
100
AcDbEntity
100
AcDbLine
10
70.223064
20
203.548551
30
0.0
11
74.416370
21
200.622441
31
0.0
0
LINE
8
Calque 1
62
4
5
222
100
AcDbEntity
100
AcDbLine
10
74.416370
20
200.622441
30
0.0
11
76.332222
21
199.444403
31
0.0
0
LINE
8
Calque 1
62
4
5
223
100
AcDbEntity
100
AcDbLine
10
76.332222
20
199.444403
30
0.0
11
77.335414
21
198.966674
31
0.0
0
LINE
8
Calque 1
62
4
5
224
100
AcDbEntity
100
AcDbLine
10
77.335414
20
198.966674
30
0.0
11
77.521782
21
200.396747
31
0.0
0
LINE
8
Calque 1
62
4
5
225
100
AcDbEntity
100
AcDbLine
10
77.521782
20
200.396747
30
0.0
11
77.690893
21
203.835007
31
0.0
0
LINE
8
Calque 1
62
4
5
226
100
AcDbEntity
100
AcDbLine
10
77.690893
20
203.835007
30
0.0
11
77.872206
21
207.023892
31
0.0
0
LINE
8
Calque 1
62
4
5
227
100
AcDbEntity
100
AcDbLine
10
77.872206
20
207.023892
30
0.0
11
78.207044
21
210.082150
31
0.0
0
LINE
8
Calque 1
62
4
5
228
100
AcDbEntity
100
AcDbLine
10
78.207044
20
210.082150
30
0.0
11
78.696347
21
213.013354
31
0.0
0
LINE
8
Calque 1
62
4
5
229
100
AcDbEntity
100
AcDbLine
10
78.696347
20
213.013354
30
0.0
11
79.341054
21
215.821074
31
0.0
0
LINE
8
Calque 1
62
4
5
22a
100
AcDbEntity
100
AcDbLine
10
79.341054
20
215.821074
30
0.0
11
80.142105
21
218.508881
31
0.0
0
LINE
8
Calque 1
62
4
5
22b
100
AcDbEntity
100
AcDbLine
10
80.142105
20
218.508881
30
0.0
11
81.100438
21
221.080346
31
0.0
0
LINE
8
Calque 1
62
4
5
22c
100
AcDbEntity
100
AcDbLine
10
81.100438
20
221.080346
30
0.0
11
82.216993
21
223.539039
31
0.0
0
LINE
8
Calque 1
62
4
5
22d
100
AcDbEntity
100
AcDbLine
10
82.216993
20
223.539039
30
0.0
11
83.492710
21
225.888532
31
0.0
0
LINE
8
Calque 1
62
4
5
22e
100
AcDbEntity
100
AcDbLine
10
83.492710
20
225.888532
30
0.0
11
84.905795
21
227.970927
31
0.0
0
LINE
8
Calque 1
62
4
5
22f
100
AcDbEntity
100
AcDbLine
10
84.905795
20
227.970927
30
0.0
11
86.633884
21
230.046570
31
0.0
0
LINE
8
Calque 1
62
4
5
230
100
AcDbEntity
100
AcDbLine
10
86.633884
20
230.046570
30
0.0
11
88.470721
21
231.888786
31
0.0
0
LINE
8
Calque 1
62
4
5
231
100
AcDbEntity
100
AcDbLine
10
88.470721
20
231.888786
30
0.0
11
90.210050
21
233.270900
31
0.0
0
LINE
8
Calque 1
62
4
5
232
100
AcDbEntity
100
AcDbLine
10
90.210050
20
233.270900
30
0.0
11
91.924610
21
234.203201
31
0.0
0
LINE
8
Calque 1
62
4
5
233
100
AcDbEntity
100
AcDbLine
10
91.924610
20
234.203201
30
0.0
11
94.586302
21
235.414698
31
0.0
0
LINE
8
Calque 1
62
4
5
234
100
AcDbEntity
100
AcDbLine
10
94.586302
20
235.414698
30
0.0
11
101.440764
21
238.177811
31
0.0
0
LINE
8
Calque 1
62
4
5
235
100
AcDbEntity
100
AcDbLine
10
101.440764
20
238.177811
30
0.0
11
108.152804
21
240.565301
31
0.0
0
LINE
8
Calque 1
62
4
5
236
100
AcDbEntity
100
AcDbLine
10
108.152804
20
240.565301
30
0.0
11
110.636468
21
241.307269
31
0.0
0
LINE
8
Calque 1
62
4
5
237
100
AcDbEntity
100
AcDbLine
10
110.636468
20
241.307269
30
0.0
11
112.101788
21
241.582229
31
0.0
0
LINE
8
Calque 1
62
4
5
238
100
AcDbEntity
100
AcDbLine
10
112.101788
20
241.582229
30
0.0
11
112.679383
21
241.609910
31
0.0
0
LINE
8
Calque 1
62
4
5
239
100
AcDbEntity
100
AcDbLine
10
112.679383
20
241.609910
30
0.0
11
113.029852
21
241.744238
31
0.0
0
LINE
8
Calque 1
62
4
5
23a
100
AcDbEntity
100
AcDbLine
10
113.029852
20
241.744238
30
0.0
11
113.250318
21
242.062145
31
0.0
0
LINE
8
Calque 1
62
4
5
23b
100
AcDbEntity
100
AcDbLine
10
113.250318
20
242.062145
30
0.0
11
113.437904
21
242.640563
31
0.0
0
LINE
8
Calque 1
62
4
5
23c
100
AcDbEntity
100
AcDbLine
10
113.437904
20
242.640563
30
0.0
11
113.974443
21
245.491918
31
0.0
0
LINE
8
Calque 1
62
4
5
23d
100
AcDbEntity
100
AcDbLine
10
113.974443
20
245.491918
30
0.0
11
114.219731
21
248.704415
31
0.0
0
LINE
8
Calque 1
62
4
5
23e
100
AcDbEntity
100
AcDbLine
10
114.219731
20
248.704415
30
0.0
11
114.153122
21
251.575134
31
0.0
0
LINE
8
Calque 1
62
4
5
23f
100
AcDbEntity
100
AcDbLine
10
114.153122
20
251.575134
30
0.0
11
113.996403
21
252.662665
31
0.0
0
LINE
8
Calque 1
62
4
5
240
100
AcDbEntity
100
AcDbLine
10
113.996403
20
252.662665
30
0.0
11
113.753968
21
253.401157
31
0.0
0
LINE
8
Calque 1
62
4
5
241
100
AcDbEntity
100
AcDbLine
10
113.753968
20
253.401157
30
0.0
11
111.533711
21
256.368805
31
0.0
0
LINE
8
Calque 1
62
4
5
242
100
AcDbEntity
100
AcDbLine
10
111.533711
20
256.368805
30
0.0
11
109.761998
21
258.809916
31
0.0
0
LINE
8
Calque 1
62
4
5
243
100
AcDbEntity
100
AcDbLine
10
109.761998
20
258.809916
30
0.0
11
108.294191
21
261.304706
31
0.0
0
LINE
8
Calque 1
62
4
5
244
100
AcDbEntity
100
AcDbLine
10
108.294191
20
261.304706
30
0.0
11
107.204998
21
263.710007
31
0.0
0
LINE
8
Calque 1
62
4
5
245
100
AcDbEntity
100
AcDbLine
10
107.204998
20
263.710007
30
0.0
11
106.569126
21
265.882655
31
0.0
0
LINE
8
Calque 1
62
4
5
246
100
AcDbEntity
100
AcDbLine
10
106.569126
20
265.882655
30
0.0
11
105.436746
21
270.499646
31
0.0
0
LINE
8
Calque 1
62
4
5
247
100
AcDbEntity
100
AcDbLine
10
105.436746
20
270.499646
30
0.0
11
104.732358
21
273.306506
31
0.0
0
LINE
8
Calque 1
62
4
5
248
100
AcDbEntity
100
AcDbLine
10
104.732358
20
273.306506
30
0.0
11
104.851495
21
273.616602
31
0.0
0
LINE
8
Calque 1
62
4
5
249
100
AcDbEntity
100
AcDbLine
10
104.851495
20
273.616602
30
0.0
11
105.269355
21
273.473090
31
0.0
0
LINE
8
Calque 1
62
4
5
24a
100
AcDbEntity
100
AcDbLine
10
105.269355
20
273.473090
30
0.0
11
105.814487
21
272.955888
31
0.0
0
LINE
8
Calque 1
62
4
5
24b
100
AcDbEntity
100
AcDbLine
10
105.814487
20
272.955888
30
0.0
11
106.326347
21
271.945494
31
0.0
0
LINE
8
Calque 1
62
4
5
24c
100
AcDbEntity
100
AcDbLine
10
106.326347
20
271.945494
30
0.0
11
107.430237
21
267.988292
31
0.0
0
LINE
8
Calque 1
62
4
5
24d
100
AcDbEntity
100
AcDbLine
10
107.430237
20
267.988292
30
0.0
11
108.614642
21
263.699327
31
0.0
0
LINE
8
Calque 1
62
4
5
24e
100
AcDbEntity
100
AcDbLine
10
108.614642
20
263.699327
30
0.0
11
109.250897
21
262.251732
31
0.0
0
LINE
8
Calque 1
62
4
5
24f
100
AcDbEntity
100
AcDbLine
10
109.250897
20
262.251732
30
0.0
11
110.025431
21
260.974384
31
0.0
0
LINE
8
Calque 1
62
4
5
250
100
AcDbEntity
100
AcDbLine
10
110.025431
20
260.974384
30
0.0
11
111.114119
21
259.659535
31
0.0
0
LINE
8
Calque 1
62
4
5
251
100
AcDbEntity
100
AcDbLine
10
111.114119
20
259.659535
30
0.0
11
112.643825
21
258.171856
31
0.0
0
LINE
8
Calque 1
62
4
5
252
100
AcDbEntity
100
AcDbLine
10
112.643825
20
258.171856
30
0.0
11
114.433611
21
256.674079
31
0.0
0
LINE
8
Calque 1
62
4
5
253
100
AcDbEntity
100
AcDbLine
10
114.433611
20
256.674079
30
0.0
11
116.302539
21
255.328935
31
0.0
0
LINE
8
Calque 1
62
4
5
254
100
AcDbEntity
100
AcDbLine
10
116.302539
20
255.328935
30
0.0
11
117.446496
21
254.547759
31
0.0
0
LINE
8
Calque 1
62
4
5
255
100
AcDbEntity
100
AcDbLine
10
117.446496
20
254.547759
30
0.0
11
117.968377
21
253.827811
31
0.0
0
LINE
8
Calque 1
62
4
5
256
100
AcDbEntity
100
AcDbLine
10
117.968377
20
253.827811
30
0.0
11
118.034011
21
252.626928
31
0.0
0
LINE
8
Calque 1
62
4
5
257
100
AcDbEntity
100
AcDbLine
10
118.034011
20
252.626928
30
0.0
11
117.809227
21
250.402946
31
0.0
0
LINE
8
Calque 1
62
4
5
258
100
AcDbEntity
100
AcDbLine
10
117.809227
20
250.402946
30
0.0
11
117.779272
21
248.189028
31
0.0
0
LINE
8
Calque 1
62
4
5
259
100
AcDbEntity
100
AcDbLine
10
117.779272
20
248.189028
30
0.0
11
117.974367
21
245.341367
31
0.0
0
LINE
8
Calque 1
62
4
5
25a
100
AcDbEntity
100
AcDbLine
10
117.974367
20
245.341367
30
0.0
11
118.383969
21
242.523859
31
0.0
0
LINE
8
Calque 1
62
4
5
25b
100
AcDbEntity
100
AcDbLine
10
118.383969
20
242.523859
30
0.0
11
118.634132
21
241.846896
31
0.0
0
LINE
8
Calque 1
62
4
5
25c
100
AcDbEntity
100
AcDbLine
10
118.634132
20
241.846896
30
0.0
11
118.983145
21
241.388983
31
0.0
0
LINE
8
Calque 1
62
4
5
25d
100
AcDbEntity
100
AcDbLine
10
118.983145
20
241.388983
30
0.0
11
119.881695
21
240.783215
31
0.0
0
LINE
8
Calque 1
62
4
5
25e
100
AcDbEntity
100
AcDbLine
10
119.881695
20
240.783215
30
0.0
11
120.269797
21
240.782031
31
0.0
0
LINE
8
Calque 1
62
4
5
25f
100
AcDbEntity
100
AcDbLine
10
120.269797
20
240.782031
30
0.0
11
120.626817
21
240.990896
31
0.0
0
LINE
8
Calque 1
62
4
5
260
100
AcDbEntity
100
AcDbLine
10
120.626817
20
240.990896
30
0.0
11
121.276707
21
242.065518
31
0.0
0
LINE
8
Calque 1
62
4
5
261
100
AcDbEntity
100
AcDbLine
10
121.276707
20
242.065518
30
0.0
11
121.889560
21
244.060575
31
0.0
0
LINE
8
Calque 1
62
4
5
262
100
AcDbEntity
100
AcDbLine
10
121.889560
20
244.060575
30
0.0
11
122.388227
21
245.662884
31
0.0
0
LINE
8
Calque 1
62
4
5
263
100
AcDbEntity
100
AcDbLine
10
122.388227
20
245.662884
30
0.0
11
123.034002
21
247.110848
31
0.0
0
LINE
8
Calque 1
62
4
5
264
100
AcDbEntity
100
AcDbLine
10
123.034002
20
247.110848
30
0.0
11
123.779490
21
248.314147
31
0.0
0
LINE
8
Calque 1
62
4
5
265
100
AcDbEntity
100
AcDbLine
10
123.779490
20
248.314147
30
0.0
11
124.577294
21
249.182462
31
0.0
0
LINE
8
Calque 1
62
4
5
266
100
AcDbEntity
100
AcDbLine
10
124.577294
20
249.182462
30
0.0
11
124.913983
21
249.602798
31
0.0
0
LINE
8
Calque 1
62
4
5
267
100
AcDbEntity
100
AcDbLine
10
124.913983
20
249.602798
30
0.0
11
124.989855
21
250.133546
31
0.0
0
LINE
8
Calque 1
62
4
5
268
100
AcDbEntity
100
AcDbLine
10
124.989855
20
250.133546
30
0.0
11
124.799072
21
250.837445
31
0.0
0
LINE
8
Calque 1
62
4
5
269
100
AcDbEntity
100
AcDbLine
10
124.799072
20
250.837445
30
0.0
11
124.335794
21
251.777236
31
0.0
0
LINE
8
Calque 1
62
4
5
26a
100
AcDbEntity
100
AcDbLine
10
124.335794
20
251.777236
30
0.0
11
123.497349
21
253.613197
31
0.0
0
LINE
8
Calque 1
62
4
5
26b
100
AcDbEntity
100
AcDbLine
10
123.497349
20
253.613197
30
0.0
11
122.692023
21
255.921793
31
0.0
0
LINE
8
Calque 1
62
4
5
26c
100
AcDbEntity
100
AcDbLine
10
122.692023
20
255.921793
30
0.0
11
122.058653
21
258.255084
31
0.0
0
LINE
8
Calque 1
62
4
5
26d
100
AcDbEntity
100
AcDbLine
10
122.058653
20
258.255084
30
0.0
11
121.736070
21
260.165129
31
0.0
0
LINE
8
Calque 1
62
4
5
26e
100
AcDbEntity
100
AcDbLine
10
121.736070
20
260.165129
30
0.0
11
121.775272
21
262.273510
31
0.0
0
LINE
8
Calque 1
62
4
5
26f
100
AcDbEntity
100
AcDbLine
10
121.775272
20
262.273510
30
0.0
11
122.318817
21
265.006674
31
0.0
0
LINE
8
Calque 1
62
4
5
270
100
AcDbEntity
100
AcDbLine
10
122.318817
20
265.006674
30
0.0
11
122.834021
21
267.439015
31
0.0
0
LINE
8
Calque 1
62
4
5
271
100
AcDbEntity
100
AcDbLine
10
122.834021
20
267.439015
30
0.0
11
123.048525
21
269.125710
31
0.0
0
LINE
8
Calque 1
62
4
5
272
100
AcDbEntity
100
AcDbLine
10
123.048525
20
269.125710
30
0.0
11
123.181952
21
270.115736
31
0.0
0
LINE
8
Calque 1
62
4
5
273
100
AcDbEntity
100
AcDbLine
10
123.181952
20
270.115736
30
0.0
11
123.586613
21
270.768047
31
0.0
0
LINE
8
Calque 1
62
4
5
274
100
AcDbEntity
100
AcDbLine
10
123.586613
20
270.768047
30
0.0
11
124.075504
21
271.066144
31
0.0
0
LINE
8
Calque 1
62
4
5
275
100
AcDbEntity
100
AcDbLine
10
124.075504
20
271.066144
30
0.0
11
124.313244
21
270.394596
31
0.0
0
LINE
8
Calque 1
62
4
5
276
100
AcDbEntity
100
AcDbLine
10
124.313244
20
270.394596
30
0.0
11
124.394027
21
269.387249
31
0.0
0
LINE
8
Calque 1
62
4
5
277
100
AcDbEntity
100
AcDbLine
10
124.394027
20
269.387249
30
0.0
11
124.312618
21
267.994083
31
0.0
0
LINE
8
Calque 1
62
4
5
278
100
AcDbEntity
100
AcDbLine
10
124.312618
20
267.994083
30
0.0
11
123.728119
21
264.683713
31
0.0
0
LINE
8
Calque 1
62
4
5
279
100
AcDbEntity
100
AcDbLine
10
123.728119
20
264.683713
30
0.0
11
123.437801
21
263.097357
31
0.0
0
LINE
8
Calque 1
62
4
5
27a
100
AcDbEntity
100
AcDbLine
10
123.437801
20
263.097357
30
0.0
11
123.350869
21
261.511388
31
0.0
0
LINE
8
Calque 1
62
4
5
27b
100
AcDbEntity
100
AcDbLine
10
123.350869
20
261.511388
30
0.0
11
123.466957
21
259.965243
31
0.0
0
LINE
8
Calque 1
62
4
5
27c
100
AcDbEntity
100
AcDbLine
10
123.466957
20
259.965243
30
0.0
11
123.785698
21
258.498361
31
0.0
0
LINE
8
Calque 1
62
4
5
27d
100
AcDbEntity
100
AcDbLine
10
123.785698
20
258.498361
30
0.0
11
125.243195
21
255.027225
31
0.0
0
LINE
8
Calque 1
62
4
5
27e
100
AcDbEntity
100
AcDbLine
10
125.243195
20
255.027225
30
0.0
11
127.265108
21
251.460007
31
0.0
0
LINE
8
Calque 1
62
4
5
27f
100
AcDbEntity
100
AcDbLine
10
127.265108
20
251.460007
30
0.0
11
127.933969
21
250.248722
31
0.0
0
LINE
8
Calque 1
62
4
5
280
100
AcDbEntity
100
AcDbLine
10
127.933969
20
250.248722
30
0.0
11
128.121237
21
249.220302
31
0.0
0
LINE
8
Calque 1
62
4
5
281
100
AcDbEntity
100
AcDbLine
10
128.121237
20
249.220302
30
0.0
11
127.820831
21
248.268261
31
0.0
0
LINE
8
Calque 1
62
4
5
282
100
AcDbEntity
100
AcDbLine
10
127.820831
20
248.268261
30
0.0
11
127.026667
21
247.286112
31
0.0
0
LINE
8
Calque 1
62
4
5
283
100
AcDbEntity
100
AcDbLine
10
127.026667
20
247.286112
30
0.0
11
126.146841
21
246.190265
31
0.0
0
LINE
8
Calque 1
62
4
5
284
100
AcDbEntity
100
AcDbLine
10
126.146841
20
246.190265
30
0.0
11
125.579319
21
245.087985
31
0.0
0
LINE
8
Calque 1
62
4
5
285
100
AcDbEntity
100
AcDbLine
10
125.579319
20
245.087985
30
0.0
11
125.294862
21
242.748886
31
0.0
0
LINE
8
Calque 1
62
4
5
286
100
AcDbEntity
100
AcDbLine
10
125.294862
20
242.748886
30
0.0
11
125.100103
21
238.587953
31
0.0
0
LINE
8
Calque 1
62
4
5
287
100
AcDbEntity
100
AcDbLine
10
125.100103
20
238.587953
30
0.0
11
124.966010
21
233.194785
31
0.0
0
LINE
8
Calque 1
62
4
5
288
100
AcDbEntity
100
AcDbLine
10
124.966010
20
233.194785
30
0.0
11
126.091518
21
231.532397
31
0.0
0
LINE
8
Calque 1
62
4
5
289
100
AcDbEntity
100
AcDbLine
10
126.091518
20
231.532397
30
0.0
11
127.985098
21
228.307547
31
0.0
0
LINE
8
Calque 1
62
4
5
28a
100
AcDbEntity
100
AcDbLine
10
127.985098
20
228.307547
30
0.0
11
129.717030
21
224.272553
31
0.0
0
LINE
8
Calque 1
62
4
5
28b
100
AcDbEntity
100
AcDbLine
10
129.717030
20
224.272553
30
0.0
11
130.546607
21
222.237117
31
0.0
0
LINE
8
Calque 1
62
4
5
28c
100
AcDbEntity
100
AcDbLine
10
130.546607
20
222.237117
30
0.0
11
131.340254
21
220.719910
31
0.0
0
LINE
8
Calque 1
62
4
5
28d
100
AcDbEntity
100
AcDbLine
10
131.340254
20
220.719910
30
0.0
11
132.319128
21
219.362233
31
0.0
0
LINE
8
Calque 1
62
4
5
28e
100
AcDbEntity
100
AcDbLine
10
132.319128
20
219.362233
30
0.0
11
133.704386
21
217.805388
31
0.0
0
LINE
8
Calque 1
62
4
5
28f
100
AcDbEntity
100
AcDbLine
10
133.704386
20
217.805388
30
0.0
11
135.109391
21
216.148194
31
0.0
0
LINE
8
Calque 1
62
4
5
290
100
AcDbEntity
100
AcDbLine
10
135.109391
20
216.148194
30
0.0
11
135.279167
21
215.706274
31
0.0
0
LINE
8
Calque 1
62
4
5
291
100
AcDbEntity
100
AcDbLine
10
135.279167
20
215.706274
30
0.0
11
135.195152
21
215.355569
31
0.0
0
LINE
8
Calque 1
62
4
5
292
100
AcDbEntity
100
AcDbLine
10
135.195152
20
215.355569
30
0.0
11
134.686488
21
214.719363
31
0.0
0
LINE
8
Calque 1
62
4
5
293
100
AcDbEntity
100
AcDbLine
10
134.686488
20
214.719363
30
0.0
11
133.925757
21
214.139076
31
0.0
0
LINE
8
Calque 1
62
4
5
294
100
AcDbEntity
100
AcDbLine
10
133.925757
20
214.139076
30
0.0
11
133.035271
21
213.690890
31
0.0
0
LINE
8
Calque 1
62
4
5
295
100
AcDbEntity
100
AcDbLine
10
133.035271
20
213.690890
30
0.0
11
132.137339
21
213.450987
31
0.0
0
LINE
8
Calque 1
62
4
5
296
100
AcDbEntity
100
AcDbLine
10
132.137339
20
213.450987
30
0.0
11
131.388390
21
213.495932
31
0.0
0
LINE
8
Calque 1
62
4
5
297
100
AcDbEntity
100
AcDbLine
10
131.388390
20
213.495932
30
0.0
11
130.212229
21
214.028100
31
0.0
0
LINE
8
Calque 1
62
4
5
298
100
AcDbEntity
100
AcDbLine
10
130.212229
20
214.028100
30
0.0
11
124.304987
21
217.823069
31
0.0
0
LINE
8
Calque 1
62
4
5
299
100
AcDbEntity
100
AcDbLine
10
124.304987
20
217.823069
30
0.0
11
119.373042
21
221.174316
31
0.0
0
LINE
8
Calque 1
62
4
5
29a
100
AcDbEntity
100
AcDbLine
10
119.373042
20
221.174316
30
0.0
11
116.308124
21
223.482929
31
0.0
0
LINE
8
Calque 1
62
4
5
29b
100
AcDbEntity
100
AcDbLine
10
116.308124
20
223.482929
30
0.0
11
114.740391
21
225.059041
31
0.0
0
LINE
8
Calque 1
62
4
5
29c
100
AcDbEntity
100
AcDbLine
10
114.740391
20
225.059041
30
0.0
11
114.402393
21
225.669325
31
0.0
0
LINE
8
Calque 1
62
4
5
29d
100
AcDbEntity
100
AcDbLine
10
114.402393
20
225.669325
30
0.0
11
114.300000
21
226.212782
31
0.0
0
LINE
8
Calque 1
62
4
5
29e
100
AcDbEntity
100
AcDbLine
10
114.300000
20
226.212782
30
0.0
11
114.382457
21
226.929598
31
0.0
0
LINE
8
Calque 1
62
4
5
29f
100
AcDbEntity
100
AcDbLine
10
114.382457
20
226.929598
30
0.0
11
114.580704
21
227.329070
31
0.0
0
LINE
8
Calque 1
62
4
5
2a0
100
AcDbEntity
100
AcDbLine
10
114.580704
20
227.329070
30
0.0
11
115.178400
21
228.094857
31
0.0
0
LINE
8
Calque 1
62
4
5
2a1
100
AcDbEntity
100
AcDbLine
10
115.178400
20
228.094857
30
0.0
11
115.309112
21
228.433425
31
0.0
0
LINE
8
Calque 1
62
4
5
2a2
100
AcDbEntity
100
AcDbLine
10
115.309112
20
228.433425
30
0.0
11
115.049268
21
228.590150
31
0.0
0
LINE
8
Calque 1
62
4
5
2a3
100
AcDbEntity
100
AcDbLine
10
115.049268
20
228.590150
30
0.0
11
112.287140
21
228.512893
31
0.0
0
LINE
8
Calque 1
62
4
5
2a4
100
AcDbEntity
100
AcDbLine
10
112.287140
20
228.512893
30
0.0
11
108.924560
21
228.164211
31
0.0
0
LINE
8
Calque 1
62
4
5
2a5
100
AcDbEntity
100
AcDbLine
10
108.924560
20
228.164211
30
0.0
11
106.246733
21
227.493355
31
0.0
0
LINE
8
Calque 1
62
4
5
2a6
100
AcDbEntity
100
AcDbLine
10
106.246733
20
227.493355
30
0.0
11
104.117994
21
226.451999
31
0.0
0
LINE
8
Calque 1
62
4
5
2a7
100
AcDbEntity
100
AcDbLine
10
104.117994
20
226.451999
30
0.0
11
102.402677
21
224.991816
31
0.0
0
LINE
8
Calque 1
62
4
5
2a8
100
AcDbEntity
100
AcDbLine
10
102.402677
20
224.991816
30
0.0
11
101.439100
21
223.777669
31
0.0
0
LINE
8
Calque 1
62
4
5
2a9
100
AcDbEntity
100
AcDbLine
10
101.439100
20
223.777669
30
0.0
11
100.723029
21
222.455674
31
0.0
0
LINE
8
Calque 1
62
4
5
2aa
100
AcDbEntity
100
AcDbLine
10
100.723029
20
222.455674
30
0.0
11
100.207477
21
220.916680
31
0.0
0
LINE
8
Calque 1
62
4
5
2ab
100
AcDbEntity
100
AcDbLine
10
100.207477
20
220.916680
30
0.0
11
99.845455
21
219.051537
31
0.0
0
LINE
8
Calque 1
62
4
5
2ac
100
AcDbEntity
100
AcDbLine
10
99.845455
20
219.051537
30
0.0
11
99.668523
21
216.908076
31
0.0
0
LINE
8
Calque 1
62
4
5
2ad
100
AcDbEntity
100
AcDbLine
10
99.668523
20
216.908076
30
0.0
11
99.863722
21
216.176928
31
0.0
0
LINE
8
Calque 1
62
4
5
2ae
100
AcDbEntity
100
AcDbLine
10
99.863722
20
216.176928
30
0.0
11
100.300973
21
215.228510
31
0.0
0
LINE
8
Calque 1
62
4
5
2af
100
AcDbEntity
100
AcDbLine
10
100.300973
20
215.228510
30
0.0
11
101.013842
21
214.014829
31
0.0
0
LINE
8
Calque 1
62
4
5
2b0
100
AcDbEntity
100
AcDbLine
10
101.013842
20
214.014829
30
0.0
11
101.969650
21
212.768001
31
0.0
0
LINE
8
Calque 1
62
4
5
2b1
100
AcDbEntity
100
AcDbLine
10
101.969650
20
212.768001
30
0.0
11
104.492755
21
210.274709
31
0.0
0
LINE
8
Calque 1
62
4
5
2b2
100
AcDbEntity
100
AcDbLine
10
104.492755
20
210.274709
30
0.0
11
107.635629
21
207.948245
31
0.0
0
LINE
8
Calque 1
62
4
5
2b3
100
AcDbEntity
100
AcDbLine
10
107.635629
20
207.948245
30
0.0
11
111.163616
21
205.988221
31
0.0
0
LINE
8
Calque 1
62
4
5
2b4
100
AcDbEntity
100
AcDbLine
10
111.163616
20
205.988221
30
0.0
11
115.031271
21
203.912566
31
0.0
0
LINE
8
Calque 1
62
4
5
2b5
100
AcDbEntity
100
AcDbLine
10
115.031271
20
203.912566
30
0.0
11
118.440664
21
201.561685
31
0.0
0
LINE
8
Calque 1
62
4
5
2b6
100
AcDbEntity
100
AcDbLine
10
118.440664
20
201.561685
30
0.0
11
121.253900
21
199.043479
31
0.0
0
LINE
8
Calque 1
62
4
5
2b7
100
AcDbEntity
100
AcDbLine
10
121.253900
20
199.043479
30
0.0
11
122.393868
21
197.755347
31
0.0
0
LINE
8
Calque 1
62
4
5
2b8
100
AcDbEntity
100
AcDbLine
10
122.393868
20
197.755347
30
0.0
11
123.333087
21
196.465846
31
0.0
0
LINE
8
Calque 1
62
4
5
2b9
100
AcDbEntity
100
AcDbLine
10
123.333087
20
196.465846
30
0.0
11
124.238614
21
195.068380
31
0.0
0
LINE
8
Calque 1
62
4
5
2ba
100
AcDbEntity
100
AcDbLine
10
124.238614
20
195.068380
30
0.0
11
126.157025
21
195.600000
31
0.0
0
LINE
8
Calque 1
62
4
5
2bb
100
AcDbEntity
100
AcDbLine
10
126.157025
20
195.600000
30
0.0
11
129.711613
21
196.822510
31
0.0
0
LINE
8
Calque 1
62
4
5
2bc
100
AcDbEntity
100
AcDbLine
10
129.711613
20
196.822510
30
0.0
11
133.478745
21
198.537947
31
0.0
0
LINE
8
Calque 1
62
4
5
2bd
100
AcDbEntity
100
AcDbLine
10
133.478745
20
198.537947
30
0.0
11
137.190704
21
200.610709
31
0.0
0
LINE
8
Calque 1
62
4
5
2be
100
AcDbEntity
100
AcDbLine
10
137.190704
20
200.610709
30
0.0
11
140.579771
21
202.905195
31
0.0
0
LINE
8
Calque 1
62
4
5
2bf
100
AcDbEntity
100
AcDbLine
10
140.579771
20
202.905195
30
0.0
11
144.239370
21
205.954798
31
0.0
0
LINE
8
Calque 1
62
4
5
2c0
100
AcDbEntity
100
AcDbLine
10
144.239370
20
205.954798
30
0.0
11
147.602410
21
209.368151
31
0.0
0
LINE
8
Calque 1
62
4
5
2c1
100
AcDbEntity
100
AcDbLine
10
147.602410
20
209.368151
30
0.0
11
150.655169
21
213.122630
31
0.0
0
LINE
8
Calque 1
62
4
5
2c2
100
AcDbEntity
100
AcDbLine
10
150.655169
20
213.122630
30
0.0
11
153.383925
21
217.195608
31
0.0
0
LINE
8
Calque 1
62
4
5
2c3
100
AcDbEntity
100
AcDbLine
10
153.383925
20
217.195608
30
0.0
11
155.774957
21
221.564460
31
0.0
0
LINE
8
Calque 1
62
4
5
2c4
100
AcDbEntity
100
AcDbLine
10
155.774957
20
221.564460
30
0.0
11
157.814543
21
226.206561
31
0.0
0
LINE
8
Calque 1
62
4
5
2c5
100
AcDbEntity
100
AcDbLine
10
157.814543
20
226.206561
30
0.0
11
159.488961
21
231.099285
31
0.0
0
LINE
8
Calque 1
62
4
5
2c6
100
AcDbEntity
100
AcDbLine
10
159.488961
20
231.099285
30
0.0
11
160.784489
21
236.220007
31
0.0
0
LINE
8
Calque 1
62
4
5
2c7
100
AcDbEntity
100
AcDbLine
10
160.784489
20
236.220007
30
0.0
11
161.201602
21
239.594689
31
0.0
0
LINE
8
Calque 1
62
4
5
2c8
100
AcDbEntity
100
AcDbLine
10
161.201602
20
239.594689
30
0.0
11
161.308573
21
243.700816
31
0.0
0
LINE
8
Calque 1
62
4
5
2c9
100
AcDbEntity
100
AcDbLine
10
161.308573
20
243.700816
30
0.0
11
161.114417
21
247.700149
31
0.0
0
LINE
8
Calque 1
62
4
5
2ca
100
AcDbEntity
100
AcDbLine
10
161.114417
20
247.700149
30
0.0
11
160.628152
21
250.754451
31
0.0
0
LINE
8
Calque 1
62
4
5
2cb
100
AcDbEntity
100
AcDbLine
10
160.628152
20
250.754451
30
0.0
11
159.942080
21
252.918510
31
0.0
0
LINE
8
Calque 1
62
4
5
2cc
100
AcDbEntity
100
AcDbLine
10
159.942080
20
252.918510
30
0.0
11
159.091234
21
254.985056
31
0.0
0
LINE
8
Calque 1
62
4
5
2cd
100
AcDbEntity
100
AcDbLine
10
159.091234
20
254.985056
30
0.0
11
158.069911
21
256.962321
31
0.0
0
LINE
8
Calque 1
62
4
5
2ce
100
AcDbEntity
100
AcDbLine
10
158.069911
20
256.962321
30
0.0
11
156.872407
21
258.858539
31
0.0
0
LINE
8
Calque 1
62
4
5
2cf
100
AcDbEntity
100
AcDbLine
10
156.872407
20
258.858539
30
0.0
11
155.493020
21
260.681941
31
0.0
0
LINE
8
Calque 1
62
4
5
2d0
100
AcDbEntity
100
AcDbLine
10
155.493020
20
260.681941
30
0.0
11
153.926045
21
262.440760
31
0.0
0
LINE
8
Calque 1
62
4
5
2d1
100
AcDbEntity
100
AcDbLine
10
153.926045
20
262.440760
30
0.0
11
152.165780
21
264.143228
31
0.0
0
LINE
8
Calque 1
62
4
5
2d2
100
AcDbEntity
100
AcDbLine
10
152.165780
20
264.143228
30
0.0
11
150.206521
21
265.797579
31
0.0
0
LINE
8
Calque 1
62
4
5
2d3
100
AcDbEntity
100
AcDbLine
10
150.206521
20
265.797579
30
0.0
11
147.828559
21
267.682075
31
0.0
0
LINE
8
Calque 1
62
4
5
2d4
100
AcDbEntity
100
AcDbLine
10
147.828559
20
267.682075
30
0.0
11
148.773724
21
267.886760
31
0.0
0
LINE
8
Calque 1
62
4
5
2d5
100
AcDbEntity
100
AcDbLine
10
148.773724
20
267.886760
30
0.0
11
150.596303
21
268.133494
31
0.0
0
LINE
8
Calque 1
62
4
5
2d6
100
AcDbEntity
100
AcDbLine
10
150.596303
20
268.133494
30
0.0
11
153.289303
21
268.306527
31
0.0
0
LINE
8
Calque 1
62
4
5
2d7
100
AcDbEntity
100
AcDbLine
10
153.289303
20
268.306527
30
0.0
11
160.361814
21
268.433622
31
0.0
0
LINE
8
Calque 1
62
4
5
2d8
100
AcDbEntity
100
AcDbLine
10
160.361814
20
268.433622
30
0.0
11
168.141760
21
268.272305
31
0.0
0
LINE
8
Calque 1
62
4
5
2d9
100
AcDbEntity
100
AcDbLine
10
168.141760
20
268.272305
30
0.0
11
174.779644
21
267.826838
31
0.0
0
LINE
8
Calque 1
62
4
5
2da
100
AcDbEntity
100
AcDbLine
10
174.779644
20
267.826838
30
0.0
11
183.143652
21
266.689723
31
0.0
0
LINE
8
Calque 1
62
4
5
2db
100
AcDbEntity
100
AcDbLine
10
183.143652
20
266.689723
30
0.0
11
191.300087
21
265.102258
31
0.0
0
LINE
8
Calque 1
62
4
5
2dc
100
AcDbEntity
100
AcDbLine
10
191.300087
20
265.102258
30
0.0
11
199.241758
21
263.069213
31
0.0
0
LINE
8
Calque 1
62
4
5
2dd
100
AcDbEntity
100
AcDbLine
10
199.241758
20
263.069213
30
0.0
11
206.961478
21
260.595354
31
0.0
0
LINE
8
Calque 1
62
4
5
2de
100
AcDbEntity
100
AcDbLine
10
206.961478
20
260.595354
30
0.0
11
214.452057
21
257.685450
31
0.0
0
LINE
8
Calque 1
62
4
5
2df
100
AcDbEntity
100
AcDbLine
10
214.452057
20
257.685450
30
0.0
11
221.706307
21
254.344268
31
0.0
0
LINE
8
Calque 1
62
4
5
2e0
100
AcDbEntity
100
AcDbLine
10
221.706307
20
254.344268
30
0.0
11
228.717038
21
250.576576
31
0.0
0
LINE
8
Calque 1
62
4
5
2e1
100
AcDbEntity
100
AcDbLine
10
228.717038
20
250.576576
30
0.0
11
235.477062
21
246.387143
31
0.0
0
LINE
8
Calque 1
62
4
5
2e2
100
AcDbEntity
100
AcDbLine
10
235.477062
20
246.387143
30
0.0
11
241.979190
21
241.780736
31
0.0
0
LINE
8
Calque 1
62
4
5
2e3
100
AcDbEntity
100
AcDbLine
10
241.979190
20
241.780736
30
0.0
11
248.216233
21
236.762123
31
0.0
0
LINE
8
Calque 1
62
4
5
2e4
100
AcDbEntity
100
AcDbLine
10
248.216233
20
236.762123
30
0.0
11
254.181002
21
231.336072
31
0.0
0
LINE
8
Calque 1
62
4
5
2e5
100
AcDbEntity
100
AcDbLine
10
254.181002
20
231.336072
30
0.0
11
259.866308
21
225.507350
31
0.0
0
LINE
8
Calque 1
62
4
5
2e6
100
AcDbEntity
100
AcDbLine
10
259.866308
20
225.507350
30
0.0
11
265.264962
21
219.280726
31
0.0
0
LINE
8
Calque 1
62
4
5
2e7
100
AcDbEntity
100
AcDbLine
10
265.264962
20
219.280726
30
0.0
11
270.369776
21
212.660968
31
0.0
0
LINE
8
Calque 1
62
4
5
2e8
100
AcDbEntity
100
AcDbLine
10
270.369776
20
212.660968
30
0.0
11
275.173561
21
205.652842
31
0.0
0
LINE
8
Calque 1
62
4
5
2e9
100
AcDbEntity
100
AcDbLine
10
275.173561
20
205.652842
30
0.0
11
279.669127
21
198.261118
31
0.0
0
LINE
8
Calque 1
62
4
5
2ea
100
AcDbEntity
100
AcDbLine
10
279.669127
20
198.261118
30
0.0
11
284.515722
21
189.283278
31
0.0
0
LINE
8
Calque 1
62
4
5
2eb
100
AcDbEntity
100
AcDbLine
10
284.515722
20
189.283278
30
0.0
11
285.816014
21
186.484831
31
0.0
0
LINE
8
Calque 1
62
4
5
2ec
100
AcDbEntity
100
AcDbLine
10
285.816014
20
186.484831
30
0.0
11
286.062165
21
185.755644
31
0.0
0
LINE
8
Calque 1
62
4
5
2ed
100
AcDbEntity
100
AcDbLine
10
286.062165
20
185.755644
30
0.0
11
285.992034
21
185.567403
31
0.0
0
LINE
8
Calque 1
62
4
5
2ee
100
AcDbEntity
100
AcDbLine
10
285.992034
20
185.567403
30
0.0
11
282.211039
21
186.881608
31
0.0
0
LINE
8
Calque 1
62
4
5
2ef
100
AcDbEntity
100
AcDbLine
10
282.211039
20
186.881608
30
0.0
11
278.427547
21
187.739730
31
0.0
0
LINE
8
Calque 1
62
4
5
2f0
100
AcDbEntity
100
AcDbLine
10
278.427547
20
187.739730
30
0.0
11
276.806226
21
187.872365
31
0.0
0
LINE
8
Calque 1
62
4
5
2f1
100
AcDbEntity
100
AcDbLine
10
276.806226
20
187.872365
30
0.0
11
275.222002
21
187.835505
31
0.0
0
LINE
8
Calque 1
62
4
5
2f2
100
AcDbEntity
100
AcDbLine
10
275.222002
20
187.835505
30
0.0
11
273.688633
21
187.633400
31
0.0
0
LINE
8
Calque 1
62
4
5
2f3
100
AcDbEntity
100
AcDbLine
10
273.688633
20
187.633400
30
0.0
11
272.219879
21
187.270297
31
0.0
0
LINE
8
Calque 1
62
4
5
2f4
100
AcDbEntity
100
AcDbLine
10
272.219879
20
187.270297
30
0.0
11
270.829496
21
186.750445
31
0.0
0
LINE
8
Calque 1
62
4
5
2f5
100
AcDbEntity
100
AcDbLine
10
270.829496
20
186.750445
30
0.0
11
269.531245
21
186.078093
31
0.0
0
LINE
8
Calque 1
62
4
5
2f6
100
AcDbEntity
100
AcDbLine
10
269.531245
20
186.078093
30
0.0
11
268.338882
21
185.257490
31
0.0
0
LINE
8
Calque 1
62
4
5
2f7
100
AcDbEntity
100
AcDbLine
10
268.338882
20
185.257490
30
0.0
11
267.266166
21
184.292885
31
0.0
0
LINE
8
Calque 1
62
4
5
2f8
100
AcDbEntity
100
AcDbLine
10
267.266166
20
184.292885
30
0.0
11
266.001951
21
182.701127
31
0.0
0
LINE
8
Calque 1
62
4
5
2f9
100
AcDbEntity
100
AcDbLine
10
266.001951
20
182.701127
30
0.0
11
264.807732
21
180.654593
31
0.0
0
LINE
8
Calque 1
62
4
5
2fa
100
AcDbEntity
100
AcDbLine
10
264.807732
20
180.654593
30
0.0
11
263.781433
21
178.345375
31
0.0
0
LINE
8
Calque 1
62
4
5
2fb
100
AcDbEntity
100
AcDbLine
10
263.781433
20
178.345375
30
0.0
11
263.020979
21
175.965563
31
0.0
0
LINE
8
Calque 1
62
4
5
2fc
100
AcDbEntity
100
AcDbLine
10
263.020979
20
175.965563
30
0.0
11
261.025026
21
166.600115
31
0.0
0
LINE
8
Calque 1
62
4
5
2fd
100
AcDbEntity
100
AcDbLine
10
261.025026
20
166.600115
30
0.0
11
258.505113
21
153.105563
31
0.0
0
LINE
8
Calque 1
62
4
5
2fe
100
AcDbEntity
100
AcDbLine
10
258.505113
20
153.105563
30
0.0
11
256.972198
21
144.693998
31
0.0
0
LINE
8
Calque 1
62
4
5
2ff
100
AcDbEntity
100
AcDbLine
10
256.972198
20
144.693998
30
0.0
11
255.761649
21
138.810488
31
0.0
0
LINE
8
Calque 1
62
4
5
300
100
AcDbEntity
100
AcDbLine
10
255.761649
20
138.810488
30
0.0
11
254.761141
21
134.960553
31
0.0
0
LINE
8
Calque 1
62
4
5
301
100
AcDbEntity
100
AcDbLine
10
254.761141
20
134.960553
30
0.0
11
253.858353
21
132.649715
31
0.0
0
LINE
8
Calque 1
62
4
5
302
100
AcDbEntity
100
AcDbLine
10
253.858353
20
132.649715
30
0.0
11
253.642813
21
132.268938
31
0.0
0
LINE
8
Calque 1
62
4
5
303
100
AcDbEntity
100
AcDbLine
10
253.642813
20
132.268938
30
0.0
11
253.498272
21
132.201775
31
0.0
0
LINE
8
Calque 1
62
4
5
304
100
AcDbEntity
100
AcDbLine
10
253.498272
20
132.201775
30
0.0
11
253.171762
21
133.214159
31
0.0
0
LINE
8
Calque 1
62
4
5
305
100
AcDbEntity
100
AcDbLine
10
253.171762
20
133.214159
30
0.0
11
252.024241
21
136.972808
31
0.0
0
LINE
8
Calque 1
62
4
5
306
100
AcDbEntity
100
AcDbLine
10
252.024241
20
136.972808
30
0.0
11
250.599653
21
140.427489
31
0.0
0
LINE
8
Calque 1
62
4
5
307
100
AcDbEntity
100
AcDbLine
10
250.599653
20
140.427489
30
0.0
11
249.010123
21
143.341300
31
0.0
0
LINE
8
Calque 1
62
4
5
308
100
AcDbEntity
100
AcDbLine
10
249.010123
20
143.341300
30
0.0
11
247.367778
21
145.477341
31
0.0
0
LINE
8
Calque 1
62
4
5
309
100
AcDbEntity
100
AcDbLine
10
247.367778
20
145.477341
30
0.0
11
246.021537
21
146.701289
31
0.0
0
LINE
8
Calque 1
62
4
5
30a
100
AcDbEntity
100
AcDbLine
10
246.021537
20
146.701289
30
0.0
11
244.746766
21
147.481158
31
0.0
0
LINE
8
Calque 1
62
4
5
30b
100
AcDbEntity
100
AcDbLine
10
244.746766
20
147.481158
30
0.0
11
243.371389
21
147.894420
31
0.0
0
LINE
8
Calque 1
62
4
5
30c
100
AcDbEntity
100
AcDbLine
10
243.371389
20
147.894420
30
0.0
11
241.723333
21
148.018546
31
0.0
0
LINE
8
Calque 1
62
4
5
30d
100
AcDbEntity
100
AcDbLine
10
241.723333
20
148.018546
30
0.0
11
239.753387
21
147.851587
31
0.0
0
LINE
8
Calque 1
62
4
5
30e
100
AcDbEntity
100
AcDbLine
10
239.753387
20
147.851587
30
0.0
11
237.802279
21
147.103599
31
0.0
0
LINE
8
Calque 1
62
4
5
30f
100
AcDbEntity
100
AcDbLine
10
237.802279
20
147.103599
30
0.0
11
235.746110
21
146.010444
31
0.0
0
LINE
8
Calque 1
62
4
5
310
100
AcDbEntity
100
AcDbLine
10
235.746110
20
146.010444
30
0.0
11
233.690766
21
144.635773
31
0.0
0
LINE
8
Calque 1
62
4
5
311
100
AcDbEntity
100
AcDbLine
10
233.690766
20
144.635773
30
0.0
11
231.519937
21
142.861849
31
0.0
0
LINE
8
Calque 1
62
4
5
312
100
AcDbEntity
100
AcDbLine
10
231.519937
20
142.861849
30
0.0
11
229.117310
21
140.570936
31
0.0
0
LINE
8
Calque 1
62
4
5
313
100
AcDbEntity
100
AcDbLine
10
229.117310
20
140.570936
30
0.0
11
226.366575
21
137.645296
31
0.0
0
LINE
8
Calque 1
62
4
5
314
100
AcDbEntity
100
AcDbLine
10
226.366575
20
137.645296
30
0.0
11
223.151420
21
133.967192
31
0.0
0
LINE
8
Calque 1
62
4
5
315
100
AcDbEntity
100
AcDbLine
10
223.151420
20
133.967192
30
0.0
11
214.862608
21
123.882648
31
0.0
0
LINE
8
Calque 1
62
4
5
316
100
AcDbEntity
100
AcDbLine
10
214.862608
20
123.882648
30
0.0
11
205.904217
21
113.055461
31
0.0
0
LINE
8
Calque 1
62
4
5
317
100
AcDbEntity
100
AcDbLine
10
205.904217
20
113.055461
30
0.0
11
202.704535
21
109.498840
31
0.0
0
LINE
8
Calque 1
62
4
5
318
100
AcDbEntity
100
AcDbLine
10
202.704535
20
109.498840
30
0.0
11
200.068558
21
106.847068
31
0.0
0
LINE
8
Calque 1
62
4
5
319
100
AcDbEntity
100
AcDbLine
10
200.068558
20
106.847068
30
0.0
11
196.632530
21
103.836836
31
0.0
0
LINE
8
Calque 1
62
4
5
31a
100
AcDbEntity
100
AcDbLine
10
196.632530
20
103.836836
30
0.0
11
195.323023
21
102.830472
31
0.0
0
LINE
8
Calque 1
62
4
5
31b
100
AcDbEntity
100
AcDbLine
10
195.323023
20
102.830472
30
0.0
11
194.643462
21
102.446674
31
0.0
0
LINE
8
Calque 1
62
4
5
31c
100
AcDbEntity
100
AcDbLine
10
194.643462
20
102.446674
30
0.0
11
195.980812
21
104.775007
31
0.0
0
LINE
8
Calque 1
62
4
5
31d
100
AcDbEntity
100
AcDbLine
10
195.980812
20
104.775007
30
0.0
11
198.170347
21
108.318085
31
0.0
0
LINE
8
Calque 1
62
4
5
31e
100
AcDbEntity
100
AcDbLine
10
198.170347
20
108.318085
30
0.0
11
200.292252
21
112.109804
31
0.0
0
LINE
8
Calque 1
62
4
5
31f
100
AcDbEntity
100
AcDbLine
10
200.292252
20
112.109804
30
0.0
11
202.320097
21
116.090434
31
0.0
0
LINE
8
Calque 1
62
4
5
320
100
AcDbEntity
100
AcDbLine
10
202.320097
20
116.090434
30
0.0
11
204.227453
21
120.200243
31
0.0
0
LINE
8
Calque 1
62
4
5
321
100
AcDbEntity
100
AcDbLine
10
204.227453
20
120.200243
30
0.0
11
205.987889
21
124.379502
31
0.0
0
LINE
8
Calque 1
62
4
5
322
100
AcDbEntity
100
AcDbLine
10
205.987889
20
124.379502
30
0.0
11
207.574978
21
128.568480
31
0.0
0
LINE
8
Calque 1
62
4
5
323
100
AcDbEntity
100
AcDbLine
10
207.574978
20
128.568480
30
0.0
11
208.962288
21
132.707447
31
0.0
0
LINE
8
Calque 1
62
4
5
324
100
AcDbEntity
100
AcDbLine
10
208.962288
20
132.707447
30
0.0
11
210.123391
21
136.736674
31
0.0
0
LINE
8
Calque 1
62
4
5
325
100
AcDbEntity
100
AcDbLine
10
210.123391
20
136.736674
30
0.0
11
211.662313
21
143.308618
31
0.0
0
LINE
8
Calque 1
62
4
5
326
100
AcDbEntity
100
AcDbLine
10
211.662313
20
143.308618
30
0.0
11
213.092397
21
152.329993
31
0.0
0
LINE
8
Calque 1
62
4
5
327
100
AcDbEntity
100
AcDbLine
10
213.092397
20
152.329993
30
0.0
11
214.790133
21
163.014774
31
0.0
0
LINE
8
Calque 1
62
4
5
328
100
AcDbEntity
100
AcDbLine
10
214.790133
20
163.014774
30
0.0
11
215.256533
21
166.119763
31
0.0
0
LINE
8
Calque 1
62
4
5
329
100
AcDbEntity
100
AcDbLine
10
215.256533
20
166.119763
30
0.0
11
213.476501
21
166.544262
31
0.0
0
LINE
8
Calque 1
62
4
5
32a
100
AcDbEntity
100
AcDbLine
10
213.476501
20
166.544262
30
0.0
11
211.360005
21
166.735618
31
0.0
0
LINE
8
Calque 1
62
4
5
32b
100
AcDbEntity
100
AcDbLine
10
211.360005
20
166.735618
30
0.0
11
208.724431
21
166.683904
31
0.0
0
LINE
8
Calque 1
62
4
5
32c
100
AcDbEntity
100
AcDbLine
10
208.724431
20
166.683904
30
0.0
11
206.001601
21
166.414960
31
0.0
0
LINE
8
Calque 1
62
4
5
32d
100
AcDbEntity
100
AcDbLine
10
206.001601
20
166.414960
30
0.0
11
203.623333
21
165.954627
31
0.0
0
LINE
8
Calque 1
62
4
5
32e
100
AcDbEntity
100
AcDbLine
10
203.623333
20
165.954627
30
0.0
11
200.078421
21
164.731078
31
0.0
0
LINE
8
Calque 1
62
4
5
32f
100
AcDbEntity
100
AcDbLine
10
200.078421
20
164.731078
30
0.0
11
196.532383
21
162.952894
31
0.0
0
LINE
8
Calque 1
62
4
5
330
100
AcDbEntity
100
AcDbLine
10
196.532383
20
162.952894
30
0.0
11
193.010653
21
160.642755
31
0.0
0
LINE
8
Calque 1
62
4
5
331
100
AcDbEntity
100
AcDbLine
10
193.010653
20
160.642755
30
0.0
11
189.538665
21
157.823343
31
0.0
0
LINE
8
Calque 1
62
4
5
332
100
AcDbEntity
100
AcDbLine
10
189.538665
20
157.823343
30
0.0
11
186.141854
21
154.517339
31
0.0
0
LINE
8
Calque 1
62
4
5
333
100
AcDbEntity
100
AcDbLine
10
186.141854
20
154.517339
30
0.0
11
182.845653
21
150.747424
31
0.0
0
LINE
8
Calque 1
62
4
5
334
100
AcDbEntity
100
AcDbLine
10
182.845653
20
150.747424
30
0.0
11
179.675496
21
146.536279
31
0.0
0
LINE
8
Calque 1
62
4
5
335
100
AcDbEntity
100
AcDbLine
10
179.675496
20
146.536279
30
0.0
11
176.656817
21
141.906587
31
0.0
0
LINE
8
Calque 1
62
4
5
336
100
AcDbEntity
100
AcDbLine
10
176.656817
20
141.906587
30
0.0
11
175.514502
21
140.194876
31
0.0
0
LINE
8
Calque 1
62
4
5
337
100
AcDbEntity
100
AcDbLine
10
175.514502
20
140.194876
30
0.0
11
175.239316
21
139.997607
31
0.0
0
LINE
8
Calque 1
62
4
5
338
100
AcDbEntity
100
AcDbLine
10
175.239316
20
139.997607
30
0.0
11
175.087006
21
140.156405
31
0.0
0
LINE
8
Calque 1
62
4
5
339
100
AcDbEntity
100
AcDbLine
10
175.087006
20
140.156405
30
0.0
11
174.018995
21
142.910671
31
0.0
0
LINE
8
Calque 1
62
4
5
33a
100
AcDbEntity
100
AcDbLine
10
174.018995
20
142.910671
30
0.0
11
172.858624
21
145.190835
31
0.0
0
LINE
8
Calque 1
62
4
5
33b
100
AcDbEntity
100
AcDbLine
10
172.858624
20
145.190835
30
0.0
11
171.502395
21
147.172155
31
0.0
0
LINE
8
Calque 1
62
4
5
33c
100
AcDbEntity
100
AcDbLine
10
171.502395
20
147.172155
30
0.0
11
169.846814
21
149.029884
31
0.0
0
LINE
8
Calque 1
62
4
5
33d
100
AcDbEntity
100
AcDbLine
10
169.846814
20
149.029884
30
0.0
11
168.531468
21
150.224153
31
0.0
0
LINE
8
Calque 1
62
4
5
33e
100
AcDbEntity
100
AcDbLine
10
168.531468
20
150.224153
30
0.0
11
167.126545
21
151.246643
31
0.0
0
LINE
8
Calque 1
62
4
5
33f
100
AcDbEntity
100
AcDbLine
10
167.126545
20
151.246643
30
0.0
11
165.634265
21
152.096545
31
0.0
0
LINE
8
Calque 1
62
4
5
340
100
AcDbEntity
100
AcDbLine
10
165.634265
20
152.096545
30
0.0
11
164.056853
21
152.773049
31
0.0
0
LINE
8
Calque 1
62
4
5
341
100
AcDbEntity
100
AcDbLine
10
164.056853
20
152.773049
30
0.0
11
162.396530
21
153.275346
31
0.0
0
LINE
8
Calque 1
62
4
5
342
100
AcDbEntity
100
AcDbLine
10
162.396530
20
153.275346
30
0.0
11
160.655520
21
153.602628
31
0.0
0
LINE
8
Calque 1
62
4
5
343
100
AcDbEntity
100
AcDbLine
10
160.655520
20
153.602628
30
0.0
11
158.836044
21
153.754084
31
0.0
0
LINE
8
Calque 1
62
4
5
344
100
AcDbEntity
100
AcDbLine
10
158.836044
20
153.754084
30
0.0
11
156.940326
21
153.728907
31
0.0
0
LINE
8
Calque 1
62
4
5
345
100
AcDbEntity
100
AcDbLine
10
156.940326
20
153.728907
30
0.0
11
154.500696
21
153.436226
31
0.0
0
LINE
8
Calque 1
62
4
5
346
100
AcDbEntity
100
AcDbLine
10
154.500696
20
153.436226
30
0.0
11
152.237011
21
152.854507
31
0.0
0
LINE
8
Calque 1
62
4
5
347
100
AcDbEntity
100
AcDbLine
10
152.237011
20
152.854507
30
0.0
11
150.146571
21
151.981819
31
0.0
0
LINE
8
Calque 1
62
4
5
348
100
AcDbEntity
100
AcDbLine
10
150.146571
20
151.981819
30
0.0
11
148.226673
21
150.816228
31
0.0
0
LINE
8
Calque 1
62
4
5
349
100
AcDbEntity
100
AcDbLine
10
148.226673
20
150.816228
30
0.0
11
146.474616
21
149.355803
31
0.0
0
LINE
8
Calque 1
62
4
5
34a
100
AcDbEntity
100
AcDbLine
10
146.474616
20
149.355803
30
0.0
11
144.887698
21
147.598611
31
0.0
0
LINE
8
Calque 1
62
4
5
34b
100
AcDbEntity
100
AcDbLine
10
144.887698
20
147.598611
30
0.0
11
143.463217
21
145.542720
31
0.0
0
LINE
8
Calque 1
62
4
5
34c
100
AcDbEntity
100
AcDbLine
10
143.463217
20
145.542720
30
0.0
11
142.198471
21
143.186199
31
0.0
0
LINE
8
Calque 1
62
4
5
34d
100
AcDbEntity
100
AcDbLine
10
142.198471
20
143.186199
30
0.0
11
141.111111
21
140.451187
31
0.0
0
LINE
8
Calque 1
62
4
5
34e
100
AcDbEntity
100
AcDbLine
10
141.111111
20
140.451187
30
0.0
11
141.011393
21
140.011868
31
0.0
0
LINE
8
Calque 1
62
4
5
34f
100
AcDbEntity
100
AcDbLine
10
141.011393
20
140.011868
30
0.0
11
140.688350
21
139.877339
31
0.0
0
LINE
8
Calque 1
62
4
5
350
100
AcDbEntity
100
AcDbLine
10
140.688350
20
139.877339
30
0.0
11
140.106147
21
140.049073
31
0.0
0
LINE
8
Calque 1
62
4
5
351
100
AcDbEntity
100
AcDbLine
10
140.106147
20
140.049073
30
0.0
11
139.228951
21
140.528544
31
0.0
0
LINE
8
Calque 1
62
4
5
352
100
AcDbEntity
100
AcDbLine
10
139.228951
20
140.528544
30
0.0
11
137.707900
21
141.339707
31
0.0
0
LINE
8
Calque 1
62
4
5
353
100
AcDbEntity
100
AcDbLine
10
137.707900
20
141.339707
30
0.0
11
136.122362
21
141.962693
31
0.0
0
LINE
8
Calque 1
62
4
5
354
100
AcDbEntity
100
AcDbLine
10
136.122362
20
141.962693
30
0.0
11
134.501207
21
142.394979
31
0.0
0
LINE
8
Calque 1
62
4
5
355
100
AcDbEntity
100
AcDbLine
10
134.501207
20
142.394979
30
0.0
11
132.873307
21
142.634044
31
0.0
0
LINE
8
Calque 1
62
4
5
356
100
AcDbEntity
100
AcDbLine
10
132.873307
20
142.634044
30
0.0
11
131.267530
21
142.677368
31
0.0
0
LINE
8
Calque 1
62
4
5
357
100
AcDbEntity
100
AcDbLine
10
131.267530
20
142.677368
30
0.0
11
129.712747
21
142.522428
31
0.0
0
LINE
8
Calque 1
62
4
5
358
100
AcDbEntity
100
AcDbLine
10
129.712747
20
142.522428
30
0.0
11
128.237827
21
142.166704
31
0.0
0
LINE
8
Calque 1
62
4
5
359
100
AcDbEntity
100
AcDbLine
10
128.237827
20
142.166704
30
0.0
11
126.871643
21
141.607674
31
0.0
0
LINE
8
Calque 1
62
4
5
35a
100
AcDbEntity
100
AcDbLine
10
126.871643
20
141.607674
30
0.0
11
125.539398
21
140.695639
31
0.0
0
LINE
8
Calque 1
62
4
5
35b
100
AcDbEntity
100
AcDbLine
10
125.539398
20
140.695639
30
0.0
11
124.050515
21
139.293879
31
0.0
0
LINE
8
Calque 1
62
4
5
35c
100
AcDbEntity
100
AcDbLine
10
124.050515
20
139.293879
30
0.0
11
122.571778
21
137.577627
31
0.0
0
LINE
8
Calque 1
62
4
5
35d
100
AcDbEntity
100
AcDbLine
10
122.571778
20
137.577627
30
0.0
11
121.269969
21
135.722119
31
0.0
0
LINE
8
Calque 1
62
4
5
35e
100
AcDbEntity
100
AcDbLine
10
121.269969
20
135.722119
30
0.0
11
119.940592
21
133.578675
31
0.0
0
LINE
8
Calque 1
62
4
5
35f
100
AcDbEntity
100
AcDbLine
10
119.940592
20
133.578675
30
0.0
11
120.618473
21
130.906397
31
0.0
0
LINE
8
Calque 1
62
4
5
360
100
AcDbEntity
100
AcDbLine
10
120.618473
20
130.906397
30
0.0
11
121.430516
21
128.309554
31
0.0
0
LINE
8
Calque 1
62
4
5
361
100
AcDbEntity
100
AcDbLine
10
121.430516
20
128.309554
30
0.0
11
122.620090
21
125.700312
31
0.0
0
LINE
8
Calque 1
62
4
5
362
100
AcDbEntity
100
AcDbLine
10
122.620090
20
125.700312
30
0.0
11
124.383234
21
122.706681
31
0.0
0
LINE
8
Calque 1
62
4
5
363
100
AcDbEntity
100
AcDbLine
10
124.383234
20
122.706681
30
0.0
11
126.915985
21
118.956674
31
0.0
0
LINE
8
Calque 1
62
4
5
364
100
AcDbEntity
100
AcDbLine
10
126.915985
20
118.956674
30
0.0
11
131.718943
21
112.003023
31
0.0
0
LINE
8
Calque 1
62
4
5
365
100
AcDbEntity
100
AcDbLine
10
131.718943
20
112.003023
30
0.0
11
135.152086
21
106.716459
31
0.0
0
LINE
8
Calque 1
62
4
5
366
100
AcDbEntity
100
AcDbLine
10
135.152086
20
106.716459
30
0.0
11
137.768000
21
102.201616
31
0.0
0
LINE
8
Calque 1
62
4
5
367
100
AcDbEntity
100
AcDbLine
10
137.768000
20
102.201616
30
0.0
11
140.119272
21
97.563126
31
0.0
0
LINE
8
Calque 1
62
4
5
368
100
AcDbEntity
100
AcDbLine
10
140.119272
20
97.563126
30
0.0
11
142.431161
21
92.352526
31
0.0
0
LINE
8
Calque 1
62
4
5
369
100
AcDbEntity
100
AcDbLine
10
142.431161
20
92.352526
30
0.0
11
144.254236
21
87.321328
31
0.0
0
LINE
8
Calque 1
62
4
5
36a
100
AcDbEntity
100
AcDbLine
10
144.254236
20
87.321328
30
0.0
11
145.637163
21
82.317193
31
0.0
0
LINE
8
Calque 1
62
4
5
36b
100
AcDbEntity
100
AcDbLine
10
145.637163
20
82.317193
30
0.0
11
146.628609
21
77.187785
31
0.0
0
LINE
8
Calque 1
62
4
5
36c
100
AcDbEntity
100
AcDbLine
10
146.628609
20
77.187785
30
0.0
11
146.971574
21
73.626668
31
0.0
0
LINE
8
Calque 1
62
4
5
36d
100
AcDbEntity
100
AcDbLine
10
146.971574
20
73.626668
30
0.0
11
147.115888
21
69.235269
31
0.0
0
LINE
8
Calque 1
62
4
5
36e
100
AcDbEntity
100
AcDbLine
10
147.115888
20
69.235269
30
0.0
11
147.052885
21
64.939572
31
0.0
0
LINE
8
Calque 1
62
4
5
36f
100
AcDbEntity
100
AcDbLine
10
147.052885
20
64.939572
30
0.0
11
146.773897
21
61.665563
31
0.0
0
LINE
8
Calque 1
62
4
5
370
100
AcDbEntity
100
AcDbLine
10
146.773897
20
61.665563
30
0.0
11
145.870434
21
57.689323
31
0.0
0
LINE
8
Calque 1
62
4
5
371
100
AcDbEntity
100
AcDbLine
10
145.870434
20
57.689323
30
0.0
11
144.383691
21
52.862219
31
0.0
0
LINE
8
Calque 1
62
4
5
372
100
AcDbEntity
100
AcDbLine
10
144.383691
20
52.862219
30
0.0
11
142.583897
21
47.982384
31
0.0
0
LINE
8
Calque 1
62
4
5
373
100
AcDbEntity
100
AcDbLine
10
142.583897
20
47.982384
30
0.0
11
140.741281
21
43.847948
31
0.0
0
LINE
8
Calque 1
62
4
5
374
100
AcDbEntity
100
AcDbLine
10
140.741281
20
43.847948
30
0.0
11
139.541537
21
41.776659
31
0.0
0
LINE
8
Calque 1
62
4
5
375
100
AcDbEntity
100
AcDbLine
10
139.541537
20
41.776659
30
0.0
11
137.852243
21
39.209393
31
0.0
0
LINE
8
Calque 1
62
4
5
376
100
AcDbEntity
100
AcDbLine
10
137.852243
20
39.209393
30
0.0
11
136.014370
21
36.642476
31
0.0
0
LINE
8
Calque 1
62
4
5
377
100
AcDbEntity
100
AcDbLine
10
136.014370
20
36.642476
30
0.0
11
134.368893
21
34.572229
31
0.0
0
LINE
8
Calque 1
62
4
5
378
100
AcDbEntity
100
AcDbLine
10
134.368893
20
34.572229
30
0.0
11
131.960810
21
32.035408
31
0.0
0
LINE
8
Calque 1
62
4
5
379
100
AcDbEntity
100
AcDbLine
10
131.960810
20
32.035408
30
0.0
11
129.311582
21
29.693285
31
0.0
0
LINE
8
Calque 1
62
4
5
37a
100
AcDbEntity
100
AcDbLine
10
129.311582
20
29.693285
30
0.0
11
126.448122
21
27.561216
31
0.0
0
LINE
8
Calque 1
62
4
5
37b
100
AcDbEntity
100
AcDbLine
10
126.448122
20
27.561216
30
0.0
11
123.397346
21
25.654555
31
0.0
0
LINE
8
Calque 1
62
4
5
37c
100
AcDbEntity
100
AcDbLine
10
123.397346
20
25.654555
30
0.0
11
120.186168
21
23.988658
31
0.0
0
LINE
8
Calque 1
62
4
5
37d
100
AcDbEntity
100
AcDbLine
10
120.186168
20
23.988658
30
0.0
11
116.841503
21
22.578881
31
0.0
0
LINE
8
Calque 1
62
4
5
37e
100
AcDbEntity
100
AcDbLine
10
116.841503
20
22.578881
30
0.0
11
113.390265
21
21.440578
31
0.0
0
LINE
8
Calque 1
62
4
5
37f
100
AcDbEntity
100
AcDbLine
10
113.390265
20
21.440578
30
0.0
11
109.859369
21
20.589106
31
0.0
0
LINE
8
Calque 1
62
4
5
380
100
AcDbEntity
100
AcDbLine
10
109.859369
20
20.589106
30
0.0
11
106.500237
21
20.118146
31
0.0
0
LINE
8
Calque 1
62
4
5
381
100
AcDbEntity
100
AcDbLine
10
106.500237
20
20.118146
30
0.0
11
102.682688
21
19.883039
31
0.0
0
LINE
8
Calque 1
62
4
5
382
100
AcDbEntity
100
AcDbLine
10
102.682688
20
19.883039
30
0.0
11
98.920282
21
19.898656
31
0.0
0
LINE
8
Calque 1
62
4
5
383
100
AcDbEntity
100
AcDbLine
10
98.920282
20
19.898656
30
0.0
11
95.726577
21
20.179867
31
0.0
0
LINE
8
Calque 1
62
4
5
384
100
AcDbEntity
100
AcDbLine
10
95.726577
20
20.179867
30
0.0
11
95.726577
21
20.179867
31
0.0
  0
ENDSEC
  0
SECTION
  2
OBJECTS
  0
DICTIONARY
  5
C
330
0
100
AcDbDictionary
  3
ACAD_GROUP
350
D
  3
ACAD_MLINESTYLE
350
17
  0
DICTIONARY
  5
D
330
C
100
AcDbDictionary
  0
DICTIONARY
  5
1A
330
C
100
AcDbDictionary
  0
DICTIONARY
  5
17
330
C
100
AcDbDictionary
  3
STANDARD
350
18
  0
DICTIONARY
  5
19
330
C
100
AcDbDictionary
  0
ENDSEC
  0
EOF
