   0
SECTION
   2
ENTITIES
   0
POLYLINE
   8
0
  66
 1
   6
Continuous
  10
 0.0
  20
 0.0
  30
 0.0
  70
 128
   0
VERTEX
   8
0
   6
Continuous
  10
 31.090063
  20
 73.566505
  30
 0.0
   0
VERTEX
   8
0
   6
Continuous
  10
 30.959856
  20
 75.344063
  30
 0.0
   0
VERTEX
   8
0
   6
Continuous
  10
 30.529291
  20
 77.963982
  30
 0.0
   0
VERTEX
   8
0
   6
Continuous
  10
 29.513109
  20
 81.763939
  30
 0.0
   0
VERTEX
   8
0
   6
Continuous
  10
 28.236456
  20
 85.304169
  30
 0.0
   0
VERTEX
   8
0
   6
Continuous
  10
 27.251951
  20
 87.406738
  30
 0.0
   0
VERTEX
   8
0
   6
Continuous
  10
 26.120443
  20
 89.173576
  30
 0.0
   0
VERTEX
   8
0
   6
Continuous
  10
 25.489864
  20
 89.859077
  30
 0.0
   0
VERTEX
   8
0
   6
Continuous
  10
 24.811098
  20
 90.370087
  30
 0.0
   0
VERTEX
   8
0
   6
Continuous
  10
 24.080181
  20
 90.674881
  30
 0.0
   0
VERTEX
   8
0
   6
Continuous
  10
 23.315327
  20
 90.814774
  30
 0.0
   0
VERTEX
   8
0
   6
Continuous
  10
 22.534519
  20
 90.831238
  30
 0.0
   0
VERTEX
   8
0
   6
Continuous
  10
 19.561928
  20
 90.456810
  30
 0.0
   0
VERTEX
   8
0
   6
Continuous
  10
 18.265511
  20
 90.492142
  30
 0.0
   0
VERTEX
   8
0
   6
Continuous
  10
 17.178967
  20
 90.835220
  30
 0.0
   0
VERTEX
   8
0
   6
Continuous
  10
 16.404688
  20
 91.359161
  30
 0.0
   0
VERTEX
   8
0
   6
Continuous
  10
 16.045198
  20
 91.937134
  30
 0.0
   0
VERTEX
   8
0
   6
Continuous
  10
 16.203020
  20
 92.442177
  30
 0.0
   0
VERTEX
   8
0
   6
Continuous
  10
 16.842873
  20
 92.832962
  30
 0.0
   0
VERTEX
   8
0
   6
Continuous
  10
 21.151407
  20
 94.293655
  30
 0.0
   0
VERTEX
   8
0
   6
Continuous
  10
 22.034075
  20
 94.434174
  30
 0.0
   0
VERTEX
   8
0
   6
Continuous
  10
 22.034075
  20
 93.033890
  30
 0.0
   0
VERTEX
   8
0
   6
Continuous
  10
 25.034330
  20
 93.033890
  30
 0.0
   0
VERTEX
   8
0
   6
Continuous
  10
 25.184330
  20
 95.757370
  30
 0.0
   0
VERTEX
   8
0
   6
Continuous
  10
 27.676342
  20
 96.341789
  30
 0.0
   0
VERTEX
   8
0
   6
Continuous
  10
 36.043686
  20
 97.570412
  30
 0.0
   0
VERTEX
   8
0
   6
Continuous
  10
 37.723545
  20
 97.654137
  30
 0.0
   0
VERTEX
   8
0
   6
Continuous
  10
 37.723545
  20
 73.445518
  30
 0.0
   0
VERTEX
   8
0
   6
Continuous
  10
 40.723801
  20
 73.445518
  30
 0.0
   0
VERTEX
   8
0
   6
Continuous
  10
 40.873798
  20
 98.360764
  30
 0.0
   0
VERTEX
   8
0
   6
Continuous
  10
 44.712448
  20
 99.128975
  30
 0.0
   0
VERTEX
   8
0
   6
Continuous
  10
 48.575302
  20
 100.135429
  30
 0.0
   0
VERTEX
   8
0
   6
Continuous
  10
 52.773418
  20
 101.581306
  30
 0.0
   0
VERTEX
   8
0
   6
Continuous
  10
 53.413013
  20
 101.626656
  30
 0.0
   0
VERTEX
   8
0
   6
Continuous
  10
 53.413013
  20
 94.269600
  30
 0.0
   0
VERTEX
   8
0
   6
Continuous
  10
 56.413269
  20
 94.269600
  30
 0.0
   0
VERTEX
   8
0
   6
Continuous
  10
 56.563267
  20
 103.241989
  30
 0.0
   0
VERTEX
   8
0
   6
Continuous
  10
 57.994720
  20
 104.232971
  30
 0.0
   0
VERTEX
   8
0
   6
Continuous
  10
 58.647350
  20
 105.072411
  30
 0.0
   0
VERTEX
   8
0
   6
Continuous
  10
 58.918922
  20
 105.685333
  30
 0.0
   0
VERTEX
   8
0
   6
Continuous
  10
 59.199234
  20
 106.831978
  30
 0.0
   0
VERTEX
   8
0
   6
Continuous
  10
 59.371487
  20
 109.346367
  30
 0.0
   0
VERTEX
   8
0
   6
Continuous
  10
 68.603867
  20
 109.113335
  30
 0.0
   0
VERTEX
   8
0
   6
Continuous
  10
 68.522453
  20
 107.380302
  30
 0.0
   0
VERTEX
   8
0
   6
Continuous
  10
 68.296272
  20
 105.647278
  30
 0.0
   0
VERTEX
   8
0
   6
Continuous
  10
 67.505661
  20
 102.139008
  30
 0.0
   0
VERTEX
   8
0
   6
Continuous
  10
 69.238716
  20
 101.593628
  30
 0.0
   0
VERTEX
   8
0
   6
Continuous
  10
 74.437790
  20
 101.153053
  30
 0.0
   0
VERTEX
   8
0
   6
Continuous
  10
 81.369896
  20
 100.139030
  30
 0.0
   0
VERTEX
   8
0
   6
Continuous
  10
 97.879669
  20
 96.982941
  30
 0.0
   0
VERTEX
   8
0
   6
Continuous
  10
 100.481445
  20
 96.386398
  30
 0.0
   0
VERTEX
   8
0
   6
Continuous
  10
 100.481445
  20
 91.620041
  30
 0.0
   0
VERTEX
   8
0
   6
Continuous
  10
 103.481674
  20
 91.620041
  30
 0.0
   0
VERTEX
   8
0
   6
Continuous
  10
 103.899239
  20
 95.916946
  30
 0.0
   0
VERTEX
   8
0
   6
Continuous
  10
 117.763443
  20
 93.804184
  30
 0.0
   0
VERTEX
   8
0
   6
Continuous
  10
 128.161606
  20
 92.568962
  30
 0.0
   0
VERTEX
   8
0
   6
Continuous
  10
 137.316147
  20
 91.783882
  30
 0.0
   0
VERTEX
   8
0
   6
Continuous
  10
 145.491867
  20
 91.337318
  30
 0.0
   0
VERTEX
   8
0
   6
Continuous
  10
 147.549850
  20
 91.117004
  30
 0.0
   0
VERTEX
   8
0
   6
Continuous
  10
 147.549850
  20
 86.610924
  30
 0.0
   0
VERTEX
   8
0
   6
Continuous
  10
 150.550079
  20
 86.610924
  30
 0.0
   0
VERTEX
   8
0
   6
Continuous
  10
 150.700104
  20
 91.168221
  30
 0.0
   0
VERTEX
   8
0
   6
Continuous
  10
 166.288177
  20
 90.942543
  30
 0.0
   0
VERTEX
   8
0
   6
Continuous
  10
 176.686325
  20
 91.077484
  30
 0.0
   0
VERTEX
   8
0
   6
Continuous
  10
 185.351456
  20
 91.524101
  30
 0.0
   0
VERTEX
   8
0
   6
Continuous
  10
 194.016586
  20
 92.273636
  30
 0.0
   0
VERTEX
   8
0
   6
Continuous
  10
 194.618256
  20
 92.173325
  30
 0.0
   0
VERTEX
   8
0
   6
Continuous
  10
 194.618256
  20
 87.907562
  30
 0.0
   0
VERTEX
   8
0
   6
Continuous
  10
 197.618484
  20
 87.907562
  30
 0.0
   0
VERTEX
   8
0
   6
Continuous
  10
 197.768509
  20
 92.707886
  30
 0.0
   0
VERTEX
   8
0
   6
Continuous
  10
 200.948700
  20
 93.140678
  30
 0.0
   0
VERTEX
   8
0
   6
Continuous
  10
 207.880798
  20
 94.358177
  30
 0.0
   0
VERTEX
   8
0
   6
Continuous
  10
 213.079880
  20
 95.541908
  30
 0.0
   0
VERTEX
   8
0
   6
Continuous
  10
 220.011978
  20
 97.456581
  30
 0.0
   0
VERTEX
   8
0
   6
Continuous
  10
 226.944229
  20
 99.752800
  30
 0.0
   0
VERTEX
   8
0
   6
Continuous
  10
 233.876160
  20
 102.435448
  30
 0.0
   0
VERTEX
   8
0
   6
Continuous
  10
 240.807861
  20
 105.468910
  30
 0.0
   0
VERTEX
   8
0
   6
Continuous
  10
 241.686661
  20
 105.668846
  30
 0.0
   0
VERTEX
   8
0
   6
Continuous
  10
 241.686661
  20
 101.754478
  30
 0.0
   0
VERTEX
   8
0
   6
Continuous
  10
 244.686920
  20
 101.754478
  30
 0.0
   0
VERTEX
   8
0
   6
Continuous
  10
 244.836929
  20
 107.499496
  30
 0.0
   0
VERTEX
   8
0
   6
Continuous
  10
 247.867661
  20
 109.346367
  30
 0.0
   0
VERTEX
   8
0
   6
Continuous
  10
 265.598267
  20
 109.287262
  30
 0.0
   0
VERTEX
   8
0
   6
Continuous
  10
 262.529694
  20
 107.084145
  30
 0.0
   0
VERTEX
   8
0
   6
Continuous
  10
 256.130768
  20
 102.964088
  30
 0.0
   0
VERTEX
   8
0
   6
Continuous
  10
 250.648087
  20
 99.839088
  30
 0.0
   0
VERTEX
   8
0
   6
Continuous
  10
 245.691925
  20
 97.407249
  30
 0.0
   0
VERTEX
   8
0
   6
Continuous
  10
 237.516037
  20
 93.877495
  30
 0.0
   0
VERTEX
   8
0
   6
Continuous
  10
 230.124573
  20
 91.031654
  30
 0.0
   0
VERTEX
   8
0
   6
Continuous
  10
 223.931641
  20
 88.959312
  30
 0.0
   0
VERTEX
   8
0
   6
Continuous
  10
 217.653473
  20
 87.148499
  30
 0.0
   0
VERTEX
   8
0
   6
Continuous
  10
 211.455368
  20
 85.643684
  30
 0.0
   0
VERTEX
   8
0
   6
Continuous
  10
 205.172211
  20
 84.430771
  30
 0.0
   0
VERTEX
   8
0
   6
Continuous
  10
 198.501389
  20
 83.467674
  30
 0.0
   0
VERTEX
   8
0
   6
Continuous
  10
 189.582489
  20
 82.564102
  30
 0.0
   0
VERTEX
   8
0
   6
Continuous
  10
 180.216171
  20
 81.960220
  30
 0.0
   0
VERTEX
   8
0
   6
Continuous
  10
 170.659576
  20
 81.700104
  30
 0.0
   0
VERTEX
   8
0
   6
Continuous
  10
 154.883820
  20
 81.826508
  30
 0.0
   0
VERTEX
   8
0
   6
Continuous
  10
 142.430664
  20
 82.210709
  30
 0.0
   0
VERTEX
   8
0
   6
Continuous
  10
 132.013351
  20
 82.912926
  30
 0.0
   0
VERTEX
   8
0
   6
Continuous
  10
 121.698669
  20
 83.973351
  30
 0.0
   0
VERTEX
   8
0
   6
Continuous
  10
 109.511620
  20
 85.639343
  30
 0.0
   0
VERTEX
   8
0
   6
Continuous
  10
 109.010902
  20
 80.163666
  30
 0.0
   0
VERTEX
   8
0
   6
Continuous
  10
 110.539368
  20
 79.993645
  30
 0.0
   0
VERTEX
   8
0
   6
Continuous
  10
 112.490494
  20
 79.411400
  30
 0.0
   0
VERTEX
   8
0
   6
Continuous
  10
 114.291603
  20
 78.447983
  30
 0.0
   0
VERTEX
   8
0
   6
Continuous
  10
 115.923958
  20
 77.151642
  30
 0.0
   0
VERTEX
   8
0
   6
Continuous
  10
 117.361610
  20
 75.578140
  30
 0.0
   0
VERTEX
   8
0
   6
Continuous
  10
 117.977020
  20
 74.702705
  30
 0.0
   0
VERTEX
   8
0
   6
Continuous
  10
 118.492073
  20
 73.779831
  30
 0.0
   0
VERTEX
   8
0
   6
Continuous
  10
 118.888649
  20
 72.801674
  30
 0.0
   0
VERTEX
   8
0
   6
Continuous
  10
 119.187965
  20
 71.704636
  30
 0.0
   0
VERTEX
   8
0
   6
Continuous
  10
 119.346779
  20
 70.628052
  30
 0.0
   0
VERTEX
   8
0
   6
Continuous
  10
 119.380409
  20
 69.600029
  30
 0.0
   0
VERTEX
   8
0
   6
Continuous
  10
 119.139595
  20
 67.694679
  30
 0.0
   0
VERTEX
   8
0
   6
Continuous
  10
 118.492073
  20
 65.831238
  30
 0.0
   0
VERTEX
   8
0
   6
Continuous
  10
 117.977020
  20
 64.910034
  30
 0.0
   0
VERTEX
   8
0
   6
Continuous
  10
 116.672707
  20
 63.219227
  30
 0.0
   0
VERTEX
   8
0
   6
Continuous
  10
 115.129562
  20
 61.779392
  30
 0.0
   0
VERTEX
   8
0
   6
Continuous
  10
 113.411446
  20
 60.642933
  30
 0.0
   0
VERTEX
   8
0
   6
Continuous
  10
 111.529793
  20
 59.866673
  30
 0.0
   0
VERTEX
   8
0
   6
Continuous
  10
 109.529129
  20
 59.478630
  30
 0.0
   0
VERTEX
   8
0
   6
Continuous
  10
 107.489426
  20
 59.478935
  30
 0.0
   0
VERTEX
   8
0
   6
Continuous
  10
 105.490746
  20
 59.867889
  30
 0.0
   0
VERTEX
   8
0
   6
Continuous
  10
 103.613136
  20
 60.645622
  30
 0.0
   0
VERTEX
   8
0
   6
Continuous
  10
 101.925041
  20
 61.783760
  30
 0.0
   0
VERTEX
   8
0
   6
Continuous
  10
 100.483429
  20
 63.225376
  30
 0.0
   0
VERTEX
   8
0
   6
Continuous
  10
 99.345238
  20
 64.913467
  30
 0.0
   0
VERTEX
   8
0
   6
Continuous
  10
 98.567505
  20
 66.791054
  30
 0.0
   0
VERTEX
   8
0
   6
Continuous
  10
 98.324516
  20
 67.780235
  30
 0.0
   0
VERTEX
   8
0
   6
Continuous
  10
 98.421753
  20
 68.295387
  30
 0.0
   0
VERTEX
   8
0
   6
Continuous
  10
 108.761024
  20
 68.295387
  30
 0.0
   0
VERTEX
   8
0
   6
Continuous
  10
 108.761024
  20
 71.295616
  30
 0.0
   0
VERTEX
   8
0
   6
Continuous
  10
 98.417892
  20
 71.295616
  30
 0.0
   0
VERTEX
   8
0
   6
Continuous
  10
 98.324516
  20
 71.837517
  30
 0.0
   0
VERTEX
   8
0
   6
Continuous
  10
 98.907791
  20
 73.785622
  30
 0.0
   0
VERTEX
   8
0
   6
Continuous
  10
 99.872841
  20
 75.575600
  30
 0.0
   0
VERTEX
   8
0
   6
Continuous
  10
 101.169891
  20
 77.147522
  30
 0.0
   0
VERTEX
   8
0
   6
Continuous
  10
 102.741821
  20
 78.444550
  30
 0.0
   0
VERTEX
   8
0
   6
Continuous
  10
 104.531799
  20
 79.409546
  30
 0.0
   0
VERTEX
   8
0
   6
Continuous
  10
 106.479904
  20
 79.992828
  30
 0.0
   0
VERTEX
   8
0
   6
Continuous
  10
 108.029076
  20
 80.164543
  30
 0.0
   0
VERTEX
   8
0
   6
Continuous
  10
 108.381294
  20
 85.813766
  30
 0.0
   0
VERTEX
   8
0
   6
Continuous
  10
 95.288719
  20
 88.042831
  30
 0.0
   0
VERTEX
   8
0
   6
Continuous
  10
 83.657585
  20
 90.304367
  30
 0.0
   0
VERTEX
   8
0
   6
Continuous
  10
 82.554504
  20
 83.680557
  30
 0.0
   0
VERTEX
   8
0
   6
Continuous
  10
 84.241867
  20
 83.241180
  30
 0.0
   0
VERTEX
   8
0
   6
Continuous
  10
 85.021049
  20
 82.924599
  30
 0.0
   0
VERTEX
   8
0
   6
Continuous
  10
 85.942253
  20
 82.409546
  30
 0.0
   0
VERTEX
   8
0
   6
Continuous
  10
 87.633057
  20
 81.105232
  30
 0.0
   0
VERTEX
   8
0
   6
Continuous
  10
 89.072891
  20
 79.562080
  30
 0.0
   0
VERTEX
   8
0
   6
Continuous
  10
 90.209358
  20
 77.843971
  30
 0.0
   0
VERTEX
   8
0
   6
Continuous
  10
 90.985588
  20
 75.962318
  30
 0.0
   0
VERTEX
   8
0
   6
Continuous
  10
 91.373627
  20
 73.961655
  30
 0.0
   0
VERTEX
   8
0
   6
Continuous
  10
 91.373329
  20
 71.921951
  30
 0.0
   0
VERTEX
   8
0
   6
Continuous
  10
 90.984367
  20
 69.923271
  30
 0.0
   0
VERTEX
   8
0
   6
Continuous
  10
 90.206665
  20
 68.045685
  30
 0.0
   0
VERTEX
   8
0
   6
Continuous
  10
 89.068504
  20
 66.357590
  30
 0.0
   0
VERTEX
   8
0
   6
Continuous
  10
 87.626915
  20
 64.915955
  30
 0.0
   0
VERTEX
   8
0
   6
Continuous
  10
 85.938820
  20
 63.777790
  30
 0.0
   0
VERTEX
   8
0
   6
Continuous
  10
 84.061211
  20
 63.000031
  30
 0.0
   0
VERTEX
   8
0
   6
Continuous
  10
 83.072052
  20
 62.757034
  30
 0.0
   0
VERTEX
   8
0
   6
Continuous
  10
 82.554489
  20
 62.853943
  30
 0.0
   0
VERTEX
   8
0
   6
Continuous
  10
 82.554489
  20
 73.193550
  30
 0.0
   0
VERTEX
   8
0
   6
Continuous
  10
 79.554260
  20
 73.193550
  30
 0.0
   0
VERTEX
   8
0
   6
Continuous
  10
 79.554260
  20
 62.850769
  30
 0.0
   0
VERTEX
   8
0
   6
Continuous
  10
 79.014771
  20
 62.757034
  30
 0.0
   0
VERTEX
   8
0
   6
Continuous
  10
 77.066666
  20
 63.340343
  30
 0.0
   0
VERTEX
   8
0
   6
Continuous
  10
 75.276688
  20
 64.305367
  30
 0.0
   0
VERTEX
   8
0
   6
Continuous
  10
 73.705170
  20
 65.602036
  30
 0.0
   0
VERTEX
   8
0
   6
Continuous
  10
 72.407837
  20
 67.174339
  30
 0.0
   0
VERTEX
   8
0
   6
Continuous
  10
 71.442711
  20
 68.964317
  30
 0.0
   0
VERTEX
   8
0
   6
Continuous
  10
 70.859436
  20
 70.912422
  30
 0.0
   0
VERTEX
   8
0
   6
Continuous
  10
 70.664825
  20
 72.941635
  30
 0.0
   0
VERTEX
   8
0
   6
Continuous
  10
 70.858643
  20
 74.971893
  30
 0.0
   0
VERTEX
   8
0
   6
Continuous
  10
 71.440887
  20
 76.923019
  30
 0.0
   0
VERTEX
   8
0
   6
Continuous
  10
 72.404381
  20
 78.724121
  30
 0.0
   0
VERTEX
   8
0
   6
Continuous
  10
 73.700645
  20
 80.356483
  30
 0.0
   0
VERTEX
   8
0
   6
Continuous
  10
 75.274124
  20
 81.794136
  30
 0.0
   0
VERTEX
   8
0
   6
Continuous
  10
 76.149574
  20
 82.409546
  30
 0.0
   0
VERTEX
   8
0
   6
Continuous
  10
 77.072456
  20
 82.924599
  30
 0.0
   0
VERTEX
   8
0
   6
Continuous
  10
 78.050613
  20
 83.321175
  30
 0.0
   0
VERTEX
   8
0
   6
Continuous
  10
 79.147621
  20
 83.620514
  30
 0.0
   0
VERTEX
   8
0
   6
Continuous
  10
 80.224213
  20
 83.779297
  30
 0.0
   0
VERTEX
   8
0
   6
Continuous
  10
 81.344002
  20
 83.806076
  30
 0.0
   0
VERTEX
   8
0
   6
Continuous
  10
 82.550102
  20
 90.509926
  30
 0.0
   0
VERTEX
   8
0
   6
Continuous
  10
 75.147446
  20
 91.718224
  30
 0.0
   0
VERTEX
   8
0
   6
Continuous
  10
 71.088005
  20
 92.148834
  30
 0.0
   0
VERTEX
   8
0
   6
Continuous
  10
 67.122498
  20
 92.249657
  30
 0.0
   0
VERTEX
   8
0
   6
Continuous
  10
 65.223289
  20
 92.124680
  30
 0.0
   0
VERTEX
   8
0
   6
Continuous
  10
 63.422165
  20
 91.849701
  30
 0.0
   0
VERTEX
   8
0
   6
Continuous
  10
 61.750637
  20
 91.399399
  30
 0.0
   0
VERTEX
   8
0
   6
Continuous
  10
 60.240410
  20
 90.749130
  30
 0.0
   0
VERTEX
   8
0
   6
Continuous
  10
 58.879066
  20
 89.931213
  30
 0.0
   0
VERTEX
   8
0
   6
Continuous
  10
 57.654156
  20
 88.978386
  30
 0.0
   0
VERTEX
   8
0
   6
Continuous
  10
 56.553436
  20
 87.923439
  30
 0.0
   0
VERTEX
   8
0
   6
Continuous
  10
 55.564285
  20
 86.799049
  30
 0.0
   0
VERTEX
   8
0
   6
Continuous
  10
 53.889606
  20
 84.394928
  30
 0.0
   0
VERTEX
   8
0
   6
Continuous
  10
 52.567204
  20
 81.871773
  30
 0.0
   0
VERTEX
   8
0
   6
Continuous
  10
 51.567760
  20
 79.290497
  30
 0.0
   0
VERTEX
   8
0
   6
Continuous
  10
 50.896591
  20
 76.667763
  30
 0.0
   0
VERTEX
   8
0
   6
Continuous
  10
 50.558769
  20
 74.020065
  30
 0.0
   0
VERTEX
   8
0
   6
Continuous
  10
 50.559326
  20
 71.363976
  30
 0.0
   0
VERTEX
   8
0
   6
Continuous
  10
 50.852009
  20
 68.751129
  30
 0.0
   0
VERTEX
   8
0
   6
Continuous
  10
 51.624866
  20
 65.100937
  30
 0.0
   0
VERTEX
   8
0
   6
Continuous
  10
 52.794956
  20
 61.171249
  30
 0.0
   0
VERTEX
   8
0
   6
Continuous
  10
 53.413013
  20
 59.745564
  30
 0.0
   0
VERTEX
   8
0
   6
Continuous
  10
 53.413013
  20
 52.405476
  30
 0.0
   0
VERTEX
   8
0
   6
Continuous
  10
 56.413269
  20
 52.405476
  30
 0.0
   0
VERTEX
   8
0
   6
Continuous
  10
 56.563267
  20
 56.937496
  30
 0.0
   0
VERTEX
   8
0
   6
Continuous
  10
 58.492626
  20
 56.325970
  30
 0.0
   0
VERTEX
   8
0
   6
Continuous
  10
 65.311790
  20
 54.908005
  30
 0.0
   0
VERTEX
   8
0
   6
Continuous
  10
 69.606178
  20
 53.754425
  30
 0.0
   0
VERTEX
   8
0
   6
Continuous
  10
 71.670830
  20
 53.071747
  30
 0.0
   0
VERTEX
   8
0
   6
Continuous
  10
 74.705658
  20
 51.917477
  30
 0.0
   0
VERTEX
   8
0
   6
Continuous
  10
 77.552254
  20
 50.687870
  30
 0.0
   0
VERTEX
   8
0
   6
Continuous
  10
 81.898941
  20
 48.506802
  30
 0.0
   0
VERTEX
   8
0
   6
Continuous
  10
 83.709572
  20
 47.428284
  30
 0.0
   0
VERTEX
   8
0
   6
Continuous
  10
 86.908623
  20
 45.256565
  30
 0.0
   0
VERTEX
   8
0
   6
Continuous
  10
 87.299637
  20
 44.868576
  30
 0.0
   0
VERTEX
   8
0
   6
Continuous
  10
 87.340919
  20
 44.348698
  30
 0.0
   0
VERTEX
   8
0
   6
Continuous
  10
 86.986992
  20
 43.967999
  30
 0.0
   0
VERTEX
   8
0
   6
Continuous
  10
 84.029968
  20
 41.934723
  30
 0.0
   0
VERTEX
   8
0
   6
Continuous
  10
 81.861122
  20
 40.631802
  30
 0.0
   0
VERTEX
   8
0
   6
Continuous
  10
 77.512398
  20
 38.453682
  30
 0.0
   0
VERTEX
   8
0
   6
Continuous
  10
 74.668846
  20
 37.227325
  30
 0.0
   0
VERTEX
   8
0
   6
Continuous
  10
 71.637955
  20
 36.076511
  30
 0.0
   0
VERTEX
   8
0
   6
Continuous
  10
 67.462730
  20
 34.785606
  30
 0.0
   0
VERTEX
   8
0
   6
Continuous
  10
 63.016495
  20
 33.773159
  30
 0.0
   0
VERTEX
   8
0
   6
Continuous
  10
 58.318394
  20
 33.049278
  30
 0.0
   0
VERTEX
   8
0
   6
Continuous
  10
 54.893909
  20
 32.728329
  30
 0.0
   0
VERTEX
   8
0
   6
Continuous
  10
 57.013412
  20
 23.951462
  30
 0.0
   0
VERTEX
   8
0
   6
Continuous
  10
 60.793182
  20
 24.693741
  30
 0.0
   0
VERTEX
   8
0
   6
Continuous
  10
 65.666374
  20
 25.482904
  30
 0.0
   0
VERTEX
   8
0
   6
Continuous
  10
 70.798195
  20
 26.142391
  30
 0.0
   0
VERTEX
   8
0
   6
Continuous
  10
 76.152603
  20
 26.684444
  30
 0.0
   0
VERTEX
   8
0
   6
Continuous
  10
 81.686302
  20
 27.120241
  30
 0.0
   0
VERTEX
   8
0
   6
Continuous
  10
 87.345894
  20
 27.445108
  30
 0.0
   0
VERTEX
   8
0
   6
Continuous
  10
 93.072243
  20
 27.645302
  30
 0.0
   0
VERTEX
   8
0
   6
Continuous
  10
 98.825691
  20
 27.715132
  30
 0.0
   0
VERTEX
   8
0
   6
Continuous
  10
 116.796593
  20
 27.491619
  30
 0.0
   0
VERTEX
   8
0
   6
Continuous
  10
 123.043526
  20
 27.287996
  30
 0.0
   0
VERTEX
   8
0
   6
Continuous
  10
 129.308014
  20
 26.957924
  30
 0.0
   0
VERTEX
   8
0
   6
Continuous
  10
 135.551193
  20
 26.490044
  30
 0.0
   0
VERTEX
   8
0
   6
Continuous
  10
 141.757385
  20
 25.892487
  30
 0.0
   0
VERTEX
   8
0
   6
Continuous
  10
 148.932373
  20
 25.042891
  30
 0.0
   0
VERTEX
   8
0
   6
Continuous
  10
 149.493668
  20
 29.921036
  30
 0.0
   0
VERTEX
   8
0
   6
Continuous
  10
 147.836105
  20
 30.284536
  30
 0.0
   0
VERTEX
   8
0
   6
Continuous
  10
 146.743851
  20
 30.679335
  30
 0.0
   0
VERTEX
   8
0
   6
Continuous
  10
 145.698151
  20
 31.184681
  30
 0.0
   0
VERTEX
   8
0
   6
Continuous
  10
 144.706833
  20
 31.792374
  30
 0.0
   0
VERTEX
   8
0
   6
Continuous
  10
 143.778290
  20
 32.494408
  30
 0.0
   0
VERTEX
   8
0
   6
Continuous
  10
 142.920441
  20
 33.282631
  30
 0.0
   0
VERTEX
   8
0
   6
Continuous
  10
 142.141663
  20
 34.148815
  30
 0.0
   0
VERTEX
   8
0
   6
Continuous
  10
 141.449890
  20
 35.084904
  30
 0.0
   0
VERTEX
   8
0
   6
Continuous
  10
 140.853409
  20
 36.082695
  30
 0.0
   0
VERTEX
   8
0
   6
Continuous
  10
 140.360123
  20
 37.134262
  30
 0.0
   0
VERTEX
   8
0
   6
Continuous
  10
 139.977921
  20
 38.231018
  30
 0.0
   0
VERTEX
   8
0
   6
Continuous
  10
 139.706635
  20
 39.361736
  30
 0.0
   0
VERTEX
   8
0
   6
Continuous
  10
 139.771530
  20
 40.100655
  30
 0.0
   0
VERTEX
   8
0
   6
Continuous
  10
 144.398605
  20
 40.100655
  30
 0.0
   0
VERTEX
   8
0
   6
Continuous
  10
 144.398605
  20
 41.223351
  30
 0.0
   0
VERTEX
   8
0
   6
Continuous
  10
 149.382248
  20
 41.229954
  30
 0.0
   0
VERTEX
   8
0
   6
Continuous
  10
 150.173553
  20
 40.167313
  30
 0.0
   0
VERTEX
   8
0
   6
Continuous
  10
 151.755646
  20
 39.470024
  30
 0.0
   0
VERTEX
   8
0
   6
Continuous
  10
 152.739029
  20
 40.100655
  30
 0.0
   0
VERTEX
   8
0
   6
Continuous
  10
 159.170609
  20
 40.100655
  30
 0.0
   0
VERTEX
   8
0
   6
Continuous
  10
 159.170609
  20
 43.100887
  30
 0.0
   0
VERTEX
   8
0
   6
Continuous
  10
 152.496445
  20
 43.334534
  30
 0.0
   0
VERTEX
   8
0
   6
Continuous
  10
 151.976105
  20
 43.632423
  30
 0.0
   0
VERTEX
   8
0
   6
Continuous
  10
 151.432404
  20
 43.632423
  30
 0.0
   0
VERTEX
   8
0
   6
Continuous
  10
 150.635971
  20
 43.334534
  30
 0.0
   0
VERTEX
   8
0
   6
Continuous
  10
 150.159866
  20
 43.052090
  30
 0.0
   0
VERTEX
   8
0
   6
Continuous
  10
 149.390350
  20
 41.991985
  30
 0.0
   0
VERTEX
   8
0
   6
Continuous
  10
 144.398605
  20
 41.991985
  30
 0.0
   0
VERTEX
   8
0
   6
Continuous
  10
 144.398605
  20
 43.100887
  30
 0.0
   0
VERTEX
   8
0
   6
Continuous
  10
 139.617798
  20
 43.250912
  30
 0.0
   0
VERTEX
   8
0
   6
Continuous
  10
 140.015060
  20
 45.120499
  30
 0.0
   0
VERTEX
   8
0
   6
Continuous
  10
 140.409805
  20
 46.212833
  30
 0.0
   0
VERTEX
   8
0
   6
Continuous
  10
 140.915085
  20
 47.258915
  30
 0.0
   0
VERTEX
   8
0
   6
Continuous
  10
 141.522675
  20
 48.250229
  30
 0.0
   0
VERTEX
   8
0
   6
Continuous
  10
 142.224686
  20
 49.179077
  30
 0.0
   0
VERTEX
   8
0
   6
Continuous
  10
 143.012863
  20
 50.036980
  30
 0.0
   0
VERTEX
   8
0
   6
Continuous
  10
 143.879135
  20
 50.815983
  30
 0.0
   0
VERTEX
   8
0
   6
Continuous
  10
 144.815262
  20
 51.507908
  30
 0.0
   0
VERTEX
   8
0
   6
Continuous
  10
 145.813217
  20
 52.104652
  30
 0.0
   0
VERTEX
   8
0
   6
Continuous
  10
 146.864838
  20
 52.597984
  30
 0.0
   0
VERTEX
   8
0
   6
Continuous
  10
 147.961777
  20
 52.980412
  30
 0.0
   0
VERTEX
   8
0
   6
Continuous
  10
 149.092697
  20
 53.251755
  30
 0.0
   0
VERTEX
   8
0
   6
Continuous
  10
 150.245926
  20
 53.412014
  30
 0.0
   0
VERTEX
   8
0
   6
Continuous
  10
 151.409866
  20
 53.461296
  30
 0.0
   0
VERTEX
   8
0
   6
Continuous
  10
 152.573380
  20
 53.399593
  30
 0.0
   0
VERTEX
   8
0
   6
Continuous
  10
 153.724670
  20
 53.226887
  30
 0.0
   0
VERTEX
   8
0
   6
Continuous
  10
 154.852249
  20
 52.943096
  30
 0.0
   0
VERTEX
   8
0
   6
Continuous
  10
 155.944855
  20
 52.548168
  30
 0.0
   0
VERTEX
   8
0
   6
Continuous
  10
 156.991577
  20
 52.042797
  30
 0.0
   0
VERTEX
   8
0
   6
Continuous
  10
 158.963486
  20
 50.730911
  30
 0.0
   0
VERTEX
   8
0
   6
Continuous
  10
 160.793716
  20
 49.060627
  30
 0.0
   0
VERTEX
   8
0
   6
Continuous
  10
 162.497971
  20
 47.030499
  30
 0.0
   0
VERTEX
   8
0
   6
Continuous
  10
 163.592239
  20
 45.274487
  30
 0.0
   0
VERTEX
   8
0
   6
Continuous
  10
 164.126236
  20
 44.130047
  30
 0.0
   0
VERTEX
   8
0
   6
Continuous
  10
 164.550827
  20
 42.540314
  30
 0.0
   0
VERTEX
   8
0
   6
Continuous
  10
 164.604126
  20
 41.387367
  30
 0.0
   0
VERTEX
   8
0
   6
Continuous
  10
 164.523880
  20
 40.486233
  30
 0.0
   0
VERTEX
   8
0
   6
Continuous
  10
 164.310043
  20
 39.542194
  30
 0.0
   0
VERTEX
   8
0
   6
Continuous
  10
 163.869110
  20
 38.408375
  30
 0.0
   0
VERTEX
   8
0
   6
Continuous
  10
 163.022034
  20
 36.845592
  30
 0.0
   0
VERTEX
   8
0
   6
Continuous
  10
 161.439163
  20
 34.851028
  30
 0.0
   0
VERTEX
   8
0
   6
Continuous
  10
 159.823486
  20
 33.216309
  30
 0.0
   0
VERTEX
   8
0
   6
Continuous
  10
 157.879196
  20
 31.714720
  30
 0.0
   0
VERTEX
   8
0
   6
Continuous
  10
 156.874069
  20
 31.121405
  30
 0.0
   0
VERTEX
   8
0
   6
Continuous
  10
 155.822449
  20
 30.628302
  30
 0.0
   0
VERTEX
   8
0
   6
Continuous
  10
 154.725464
  20
 30.246229
  30
 0.0
   0
VERTEX
   8
0
   6
Continuous
  10
 153.594727
  20
 29.975115
  30
 0.0
   0
VERTEX
   8
0
   6
Continuous
  10
 152.441666
  20
 29.814980
  30
 0.0
   0
VERTEX
   8
0
   6
Continuous
  10
 150.721619
  20
 29.795464
  30
 0.0
   0
VERTEX
   8
0
   6
Continuous
  10
 150.344559
  20
 24.858307
  30
 0.0
   0
VERTEX
   8
0
   6
Continuous
  10
 162.171631
  20
 23.106091
  30
 0.0
   0
VERTEX
   8
0
   6
Continuous
  10
 174.306335
  20
 20.956116
  30
 0.0
   0
VERTEX
   8
0
   6
Continuous
  10
 179.593903
  20
 19.913097
  30
 0.0
   0
VERTEX
   8
0
   6
Continuous
  10
 180.854202
  20
 29.009909
  30
 0.0
   0
VERTEX
   8
0
   6
Continuous
  10
 179.605377
  20
 29.476757
  30
 0.0
   0
VERTEX
   8
0
   6
Continuous
  10
 178.042603
  20
 30.323940
  30
 0.0
   0
VERTEX
   8
0
   6
Continuous
  10
 176.048035
  20
 31.906815
  30
 0.0
   0
VERTEX
   8
0
   6
Continuous
  10
 174.349777
  20
 33.596630
  30
 0.0
   0
VERTEX
   8
0
   6
Continuous
  10
 172.911728
  20
 35.466805
  30
 0.0
   0
VERTEX
   8
0
   6
Continuous
  10
 172.318405
  20
 36.471909
  30
 0.0
   0
VERTEX
   8
0
   6
Continuous
  10
 171.825302
  20
 37.523552
  30
 0.0
   0
VERTEX
   8
0
   6
Continuous
  10
 171.443237
  20
 38.620537
  30
 0.0
   0
VERTEX
   8
0
   6
Continuous
  10
 171.172150
  20
 39.751259
  30
 0.0
   0
VERTEX
   8
0
   6
Continuous
  10
 171.011978
  20
 40.904305
  30
 0.0
   0
VERTEX
   8
0
   6
Continuous
  10
 170.962906
  20
 42.068226
  30
 0.0
   0
VERTEX
   8
0
   6
Continuous
  10
 171.024765
  20
 43.231380
  30
 0.0
   0
VERTEX
   8
0
   6
Continuous
  10
 171.197678
  20
 44.382423
  30
 0.0
   0
VERTEX
   8
0
   6
Continuous
  10
 171.481537
  20
 45.509865
  30
 0.0
   0
VERTEX
   8
0
   6
Continuous
  10
 171.876343
  20
 46.602123
  30
 0.0
   0
VERTEX
   8
0
   6
Continuous
  10
 172.381683
  20
 47.647823
  30
 0.0
   0
VERTEX
   8
0
   6
Continuous
  10
 172.989410
  20
 48.639137
  30
 0.0
   0
VERTEX
   8
0
   6
Continuous
  10
 173.691437
  20
 49.567707
  30
 0.0
   0
VERTEX
   8
0
   6
Continuous
  10
 174.479645
  20
 50.425533
  30
 0.0
   0
VERTEX
   8
0
   6
Continuous
  10
 175.345825
  20
 51.204308
  30
 0.0
   0
VERTEX
   8
0
   6
Continuous
  10
 176.281906
  20
 51.896080
  30
 0.0
   0
VERTEX
   8
0
   6
Continuous
  10
 177.279724
  20
 52.492596
  30
 0.0
   0
VERTEX
   8
0
   6
Continuous
  10
 178.331299
  20
 52.985851
  30
 0.0
   0
VERTEX
   8
0
   6
Continuous
  10
 179.428024
  20
 53.368153
  30
 0.0
   0
VERTEX
   8
0
   6
Continuous
  10
 180.558746
  20
 53.639343
  30
 0.0
   0
VERTEX
   8
0
   6
Continuous
  10
 181.300079
  20
 53.574799
  30
 0.0
   0
VERTEX
   8
0
   6
Continuous
  10
 181.300079
  20
 48.947544
  30
 0.0
   0
VERTEX
   8
0
   6
Continuous
  10
 182.444366
  20
 48.947544
  30
 0.0
   0
VERTEX
   8
0
   6
Continuous
  10
 182.427460
  20
 43.963951
  30
 0.0
   0
VERTEX
   8
0
   6
Continuous
  10
 181.364288
  20
 43.172829
  30
 0.0
   0
VERTEX
   8
0
   6
Continuous
  10
 180.667084
  20
 41.590210
  30
 0.0
   0
VERTEX
   8
0
   6
Continuous
  10
 181.300079
  20
 40.603977
  30
 0.0
   0
VERTEX
   8
0
   6
Continuous
  10
 181.300079
  20
 34.175339
  30
 0.0
   0
VERTEX
   8
0
   6
Continuous
  10
 184.300308
  20
 34.175339
  30
 0.0
   0
VERTEX
   8
0
   6
Continuous
  10
 184.532349
  20
 40.850807
  30
 0.0
   0
VERTEX
   8
0
   6
Continuous
  10
 184.829605
  20
 41.370125
  30
 0.0
   0
VERTEX
   8
0
   6
Continuous
  10
 184.829605
  20
 41.912991
  30
 0.0
   0
VERTEX
   8
0
   6
Continuous
  10
 184.532349
  20
 42.708126
  30
 0.0
   0
VERTEX
   8
0
   6
Continuous
  10
 184.249527
  20
 43.185532
  30
 0.0
   0
VERTEX
   8
0
   6
Continuous
  10
 183.212997
  20
 43.940720
  30
 0.0
   0
VERTEX
   8
0
   6
Continuous
  10
 183.212997
  20
 48.947544
  30
 0.0
   0
VERTEX
   8
0
   6
Continuous
  10
 184.300308
  20
 48.947544
  30
 0.0
   0
VERTEX
   8
0
   6
Continuous
  10
 184.450333
  20
 53.727844
  30
 0.0
   0
VERTEX
   8
0
   6
Continuous
  10
 186.317505
  20
 53.330936
  30
 0.0
   0
VERTEX
   8
0
   6
Continuous
  10
 187.409866
  20
 52.936192
  30
 0.0
   0
VERTEX
   8
0
   6
Continuous
  10
 188.455917
  20
 52.430893
  30
 0.0
   0
VERTEX
   8
0
   6
Continuous
  10
 189.447235
  20
 51.823303
  30
 0.0
   0
VERTEX
   8
0
   6
Continuous
  10
 190.376083
  20
 51.121319
  30
 0.0
   0
VERTEX
   8
0
   6
Continuous
  10
 191.233978
  20
 50.333118
  30
 0.0
   0
VERTEX
   8
0
   6
Continuous
  10
 192.012985
  20
 49.466835
  30
 0.0
   0
VERTEX
   8
0
   6
Continuous
  10
 192.704910
  20
 48.530720
  30
 0.0
   0
VERTEX
   8
0
   6
Continuous
  10
 193.301651
  20
 47.532856
  30
 0.0
   0
VERTEX
   8
0
   6
Continuous
  10
 193.794983
  20
 46.481136
  30
 0.0
   0
VERTEX
   8
0
   6
Continuous
  10
 194.177414
  20
 45.384201
  30
 0.0
   0
VERTEX
   8
0
   6
Continuous
  10
 194.448761
  20
 44.253281
  30
 0.0
   0
VERTEX
   8
0
   6
Continuous
  10
 194.609024
  20
 43.100052
  30
 0.0
   0
VERTEX
   8
0
   6
Continuous
  10
 194.658325
  20
 41.936108
  30
 0.0
   0
VERTEX
   8
0
   6
Continuous
  10
 194.596603
  20
 40.772621
  30
 0.0
   0
VERTEX
   8
0
   6
Continuous
  10
 194.423889
  20
 39.621300
  30
 0.0
   0
VERTEX
   8
0
   6
Continuous
  10
 194.140121
  20
 38.493732
  30
 0.0
   0
VERTEX
   8
0
   6
Continuous
  10
 193.745178
  20
 37.401115
  30
 0.0
   0
VERTEX
   8
0
   6
Continuous
  10
 193.239700
  20
 36.354401
  30
 0.0
   0
VERTEX
   8
0
   6
Continuous
  10
 192.631622
  20
 35.349522
  30
 0.0
   0
VERTEX
   8
0
   6
Continuous
  10
 191.134888
  20
 33.450672
  30
 0.0
   0
VERTEX
   8
0
   6
Continuous
  10
 189.435425
  20
 31.792023
  30
 0.0
   0
VERTEX
   8
0
   6
Continuous
  10
 188.227509
  20
 30.848007
  30
 0.0
   0
VERTEX
   8
0
   6
Continuous
  10
 186.471420
  20
 29.753716
  30
 0.0
   0
VERTEX
   8
0
   6
Continuous
  10
 185.326996
  20
 29.219740
  30
 0.0
   0
VERTEX
   8
0
   6
Continuous
  10
 183.737320
  20
 28.795172
  30
 0.0
   0
VERTEX
   8
0
   6
Continuous
  10
 182.159988
  20
 28.779655
  30
 0.0
   0
VERTEX
   8
0
   6
Continuous
  10
 181.076782
  20
 19.620733
  30
 0.0
   0
VERTEX
   8
0
   6
Continuous
  10
 184.349655
  20
 18.989925
  30
 0.0
   0
VERTEX
   8
0
   6
Continuous
  10
 192.454651
  20
 17.652714
  30
 0.0
   0
VERTEX
   8
0
   6
Continuous
  10
 196.514771
  20
 17.224030
  30
 0.0
   0
VERTEX
   8
0
   6
Continuous
  10
 200.475830
  20
 17.127552
  30
 0.0
   0
VERTEX
   8
0
   6
Continuous
  10
 202.370285
  20
 17.255247
  30
 0.0
   0
VERTEX
   8
0
   6
Continuous
  10
 204.164841
  20
 17.532892
  30
 0.0
   0
VERTEX
   8
0
   6
Continuous
  10
 205.827927
  20
 17.985073
  30
 0.0
   0
VERTEX
   8
0
   6
Continuous
  10
 207.328400
  20
 18.634121
  30
 0.0
   0
VERTEX
   8
0
   6
Continuous
  10
 208.678680
  20
 19.446604
  30
 0.0
   0
VERTEX
   8
0
   6
Continuous
  10
 210.336426
  20
 20.815035
  30
 0.0
   0
VERTEX
   8
0
   6
Continuous
  10
 211.977249
  20
 22.558754
  30
 0.0
   0
VERTEX
   8
0
   6
Continuous
  10
 212.862839
  20
 23.736746
  30
 0.0
   0
VERTEX
   8
0
   6
Continuous
  10
 214.354034
  20
 26.209249
  30
 0.0
   0
VERTEX
   8
0
   6
Continuous
  10
 215.516083
  20
 28.760933
  30
 0.0
   0
VERTEX
   8
0
   6
Continuous
  10
 216.352188
  20
 31.363621
  30
 0.0
   0
VERTEX
   8
0
   6
Continuous
  10
 216.857330
  20
 34.000526
  30
 0.0
   0
VERTEX
   8
0
   6
Continuous
  10
 217.026657
  20
 36.654400
  30
 0.0
   0
VERTEX
   8
0
   6
Continuous
  10
 216.867767
  20
 39.299561
  30
 0.0
   0
VERTEX
   8
0
   6
Continuous
  10
 216.204147
  20
 43.078945
  30
 0.0
   0
VERTEX
   8
0
   6
Continuous
  10
 215.037781
  20
 47.313915
  30
 0.0
   0
VERTEX
   8
0
   6
Continuous
  10
 214.129837
  20
 49.601292
  30
 0.0
   0
VERTEX
   8
0
   6
Continuous
  10
 214.129837
  20
 56.940742
  30
 0.0
   0
VERTEX
   8
0
   6
Continuous
  10
 211.129608
  20
 56.940742
  30
 0.0
   0
VERTEX
   8
0
   6
Continuous
  10
 210.979614
  20
 52.408718
  30
 0.0
   0
VERTEX
   8
0
   6
Continuous
  10
 209.052612
  20
 53.019714
  30
 0.0
   0
VERTEX
   8
0
   6
Continuous
  10
 202.233749
  20
 54.437603
  30
 0.0
   0
VERTEX
   8
0
   6
Continuous
  10
 197.939575
  20
 55.590904
  30
 0.0
   0
VERTEX
   8
0
   6
Continuous
  10
 193.841537
  20
 57.027897
  30
 0.0
   0
VERTEX
   8
0
   6
Continuous
  10
 189.123276
  20
 59.060436
  30
 0.0
   0
VERTEX
   8
0
   6
Continuous
  10
 185.127182
  20
 61.134434
  30
 0.0
   0
VERTEX
   8
0
   6
Continuous
  10
 181.536377
  20
 63.431843
  30
 0.0
   0
VERTEX
   8
0
   6
Continuous
  10
 180.279266
  20
 64.427902
  30
 0.0
   0
VERTEX
   8
0
   6
Continuous
  10
 180.167221
  20
 64.931145
  30
 0.0
   0
VERTEX
   8
0
   6
Continuous
  10
 180.506744
  20
 65.335320
  30
 0.0
   0
VERTEX
   8
0
   6
Continuous
  10
 182.884720
  20
 67.006744
  30
 0.0
   0
VERTEX
   8
0
   6
Continuous
  10
 186.252060
  20
 69.028587
  30
 0.0
   0
VERTEX
   8
0
   6
Continuous
  10
 190.941193
  20
 71.300339
  30
 0.0
   0
VERTEX
   8
0
   6
Continuous
  10
 195.901917
  20
 73.269073
  30
 0.0
   0
VERTEX
   8
0
   6
Continuous
  10
 200.077377
  20
 74.560150
  30
 0.0
   0
VERTEX
   8
0
   6
Continuous
  10
 204.523697
  20
 75.572929
  30
 0.0
   0
VERTEX
   8
0
   6
Continuous
  10
 209.221893
  20
 76.297012
  30
 0.0
   0
VERTEX
   8
0
   6
Continuous
  10
 213.826538
  20
 76.685234
  30
 0.0
   0
VERTEX
   8
0
   6
Continuous
  10
 219.340240
  20
 76.733704
  30
 0.0
   0
VERTEX
   8
0
   6
Continuous
  10
 231.463333
  20
 76.264679
  30
 0.0
   0
VERTEX
   8
0
   6
Continuous
  10
 239.730789
  20
 75.607353
  30
 0.0
   0
VERTEX
   8
0
   6
Continuous
  10
 257.538208
  20
 73.524590
  30
 0.0
   0
VERTEX
   8
0
   6
Continuous
  10
 264.734711
  20
 72.488899
  30
 0.0
   0
VERTEX
   8
0
   6
Continuous
  10
 267.014038
  20
 71.898811
  30
 0.0
   0
VERTEX
   8
0
   6
Continuous
  10
 267.368500
  20
 71.231651
  30
 0.0
   0
VERTEX
   8
0
   6
Continuous
  10
 266.574615
  20
 70.998085
  30
 0.0
   0
VERTEX
   8
0
   6
Continuous
  10
 262.924408
  20
 70.570259
  30
 0.0
   0
VERTEX
   8
0
   6
Continuous
  10
 261.239105
  20
 70.094429
  30
 0.0
   0
VERTEX
   8
0
   6
Continuous
  10
 260.538177
  20
 69.659164
  30
 0.0
   0
VERTEX
   8
0
   6
Continuous
  10
 259.931488
  20
 68.856056
  30
 0.0
   0
VERTEX
   8
0
   6
Continuous
  10
 259.718201
  20
 68.350761
  30
 0.0
   0
VERTEX
   8
0
   6
Continuous
  10
 259.530975
  20
 67.508759
  30
 0.0
   0
VERTEX
   8
0
   6
Continuous
  10
 259.425568
  20
 66.464157
  30
 0.0
   0
VERTEX
   8
0
   6
Continuous
  10
 259.473846
  20
 62.401436
  30
 0.0
   0
VERTEX
   8
0
   6
Continuous
  10
 259.758942
  20
 61.043217
  30
 0.0
   0
VERTEX
   8
0
   6
Continuous
  10
 260.149719
  20
 60.310062
  30
 0.0
   0
VERTEX
   8
0
   6
Continuous
  10
 260.487579
  20
 59.912270
  30
 0.0
   0
VERTEX
   8
0
   6
Continuous
  10
 261.223083
  20
 59.444668
  30
 0.0
   0
VERTEX
   8
0
   6
Continuous
  10
 262.347626
  20
 59.078777
  30
 0.0
   0
VERTEX
   8
0
   6
Continuous
  10
 267.043823
  20
 58.428665
  30
 0.0
   0
VERTEX
   8
0
   6
Continuous
  10
 267.542877
  20
 57.994137
  30
 0.0
   0
VERTEX
   8
0
   6
Continuous
  10
 267.014038
  20
 57.634243
  30
 0.0
   0
VERTEX
   8
0
   6
Continuous
  10
 266.460022
  20
 57.440956
  30
 0.0
   0
VERTEX
   8
0
   6
Continuous
  10
 263.533173
  20
 56.834690
  30
 0.0
   0
VERTEX
   8
0
   6
Continuous
  10
 247.272110
  20
 54.639118
  30
 0.0
   0
VERTEX
   8
0
   6
Continuous
  10
 245.508774
  20
 54.464989
  30
 0.0
   0
VERTEX
   8
0
   6
Continuous
  10
 245.508804
  20
 64.513969
  30
 0.0
   0
VERTEX
   8
0
   6
Continuous
  10
 244.073105
  20
 64.513969
  30
 0.0
   0
VERTEX
   8
0
   6
Continuous
  10
 239.896484
  20
 65.633461
  30
 0.0
   0
VERTEX
   8
0
   6
Continuous
  10
 237.203796
  20
 66.087494
  30
 0.0
   0
VERTEX
   8
0
   6
Continuous
  10
 231.231079
  20
 66.600311
  30
 0.0
   0
VERTEX
   8
0
   6
Continuous
  10
 229.819305
  20
 66.830299
  30
 0.0
   0
VERTEX
   8
0
   6
Continuous
  10
 229.819305
  20
 71.557381
  30
 0.0
   0
VERTEX
   8
0
   6
Continuous
  10
 226.819077
  20
 71.557381
  30
 0.0
   0
VERTEX
   8
0
   6
Continuous
  10
 226.669083
  20
 66.866753
  30
 0.0
   0
VERTEX
   8
0
   6
Continuous
  10
 222.566559
  20
 67.049065
  30
 0.0
   0
VERTEX
   8
0
   6
Continuous
  10
 215.634476
  20
 67.152985
  30
 0.0
   0
VERTEX
   8
0
   6
Continuous
  10
 214.129837
  20
 67.248871
  30
 0.0
   0
VERTEX
   8
0
   6
Continuous
  10
 214.129837
  20
 71.712868
  30
 0.0
   0
VERTEX
   8
0
   6
Continuous
  10
 211.129608
  20
 71.712868
  30
 0.0
   0
VERTEX
   8
0
   6
Continuous
  10
 210.979614
  20
 66.790825
  30
 0.0
   0
VERTEX
   8
0
   6
Continuous
  10
 206.733994
  20
 66.085159
  30
 0.0
   0
VERTEX
   8
0
   6
Continuous
  10
 205.234955
  20
 65.318779
  30
 0.0
   0
VERTEX
   8
0
   6
Continuous
  10
 203.599091
  20
 64.353348
  30
 0.0
   0
VERTEX
   8
0
   6
Continuous
  10
 210.439362
  20
 62.565914
  30
 0.0
   0
VERTEX
   8
0
   6
Continuous
  10
 217.372147
  20
 60.601780
  30
 0.0
   0
VERTEX
   8
0
   6
Continuous
  10
 219.104462
  20
 60.373875
  30
 0.0
   0
VERTEX
   8
0
   6
Continuous
  10
 227.771805
  20
 60.502712
  30
 0.0
   0
VERTEX
   8
0
   6
Continuous
  10
 232.221832
  20
 60.889050
  30
 0.0
   0
VERTEX
   8
0
   6
Continuous
  10
 234.700424
  20
 61.393738
  30
 0.0
   0
VERTEX
   8
0
   6
Continuous
  10
 239.899277
  20
 63.109921
  30
 0.0
   0
VERTEX
   8
0
   6
Continuous
  10
 242.508545
  20
 63.873940
  30
 0.0
   0
VERTEX
   8
0
   6
Continuous
  10
 242.358551
  20
 53.273785
  30
 0.0
   0
VERTEX
   8
0
   6
Continuous
  10
 241.862396
  20
 53.053802
  30
 0.0
   0
VERTEX
   8
0
   6
Continuous
  10
 240.965652
  20
 52.473904
  30
 0.0
   0
VERTEX
   8
0
   6
Continuous
  10
 240.255417
  20
 51.816929
  30
 0.0
   0
VERTEX
   8
0
   6
Continuous
  10
 239.697281
  20
 51.090382
  30
 0.0
   0
VERTEX
   8
0
   6
Continuous
  10
 239.257187
  20
 50.301880
  30
 0.0
   0
VERTEX
   8
0
   6
Continuous
  10
 238.602234
  20
 48.558388
  30
 0.0
   0
VERTEX
   8
0
   6
Continuous
  10
 237.241516
  20
 43.126095
  30
 0.0
   0
VERTEX
   8
0
   6
Continuous
  10
 236.588257
  20
 39.301975
  30
 0.0
   0
VERTEX
   8
0
   6
Continuous
  10
 236.426376
  20
 36.654400
  30
 0.0
   0
VERTEX
   8
0
   6
Continuous
  10
 236.582840
  20
 34.002407
  30
 0.0
   0
VERTEX
   8
0
   6
Continuous
  10
 237.013489
  20
 31.382927
  30
 0.0
   0
VERTEX
   8
0
   6
Continuous
  10
 238.030029
  20
 27.585480
  30
 0.0
   0
VERTEX
   8
0
   6
Continuous
  10
 239.307465
  20
 24.051172
  30
 0.0
   0
VERTEX
   8
0
   6
Continuous
  10
 240.292526
  20
 21.954365
  30
 0.0
   0
VERTEX
   8
0
   6
Continuous
  10
 241.428757
  20
 20.187349
  30
 0.0
   0
VERTEX
   8
0
   6
Continuous
  10
 242.062592
  20
 19.504087
  30
 0.0
   0
VERTEX
   8
0
   6
Continuous
  10
 242.744431
  20
 18.997952
  30
 0.0
   0
VERTEX
   8
0
   6
Continuous
  10
 243.477554
  20
 18.699123
  30
 0.0
   0
VERTEX
   8
0
   6
Continuous
  10
 244.243530
  20
 18.565102
  30
 0.0
   0
VERTEX
   8
0
   6
Continuous
  10
 245.024536
  20
 18.553951
  30
 0.0
   0
VERTEX
   8
0
   6
Continuous
  10
 247.992554
  20
 18.940416
  30
 0.0
   0
VERTEX
   8
0
   6
Continuous
  10
 249.286484
  20
 18.906454
  30
 0.0
   0
VERTEX
   8
0
   6
Continuous
  10
 250.370514
  20
 18.564161
  30
 0.0
   0
VERTEX
   8
0
   6
Continuous
  10
 251.141830
  20
 18.040678
  30
 0.0
   0
VERTEX
   8
0
   6
Continuous
  10
 251.497559
  20
 17.463163
  30
 0.0
   0
VERTEX
   8
0
   6
Continuous
  10
 251.335464
  20
 16.959009
  30
 0.0
   0
VERTEX
   8
0
   6
Continuous
  10
 250.674225
  20
 16.559740
  30
 0.0
   0
VERTEX
   8
0
   6
Continuous
  10
 246.378983
  20
 15.106010
  30
 0.0
   0
VERTEX
   8
0
   6
Continuous
  10
 245.508804
  20
 14.970440
  30
 0.0
   0
VERTEX
   8
0
   6
Continuous
  10
 245.508804
  20
 16.360437
  30
 0.0
   0
VERTEX
   8
0
   6
Continuous
  10
 242.508545
  20
 16.360437
  30
 0.0
   0
VERTEX
   8
0
   6
Continuous
  10
 242.358551
  20
 13.647250
  30
 0.0
   0
VERTEX
   8
0
   6
Continuous
  10
 239.845352
  20
 13.058965
  30
 0.0
   0
VERTEX
   8
0
   6
Continuous
  10
 231.426285
  20
 11.819423
  30
 0.0
   0
VERTEX
   8
0
   6
Continuous
  10
 229.819305
  20
 11.745681
  30
 0.0
   0
VERTEX
   8
0
   6
Continuous
  10
 229.819305
  20
 35.928589
  30
 0.0
   0
VERTEX
   8
0
   6
Continuous
  10
 226.819077
  20
 35.928589
  30
 0.0
   0
VERTEX
   8
0
   6
Continuous
  10
 226.669083
  20
 11.035264
  30
 0.0
   0
VERTEX
   8
0
   6
Continuous
  10
 224.070526
  20
 10.529992
  30
 0.0
   0
VERTEX
   8
0
   6
Continuous
  10
 219.948166
  20
 9.531364
  30
 0.0
   0
VERTEX
   8
0
   6
Continuous
  10
 215.409744
  20
 8.034779
  30
 0.0
   0
VERTEX
   8
0
   6
Continuous
  10
 214.129837
  20
 7.743012
  30
 0.0
   0
VERTEX
   8
0
   6
Continuous
  10
 214.129837
  20
 15.097043
  30
 0.0
   0
VERTEX
   8
0
   6
Continuous
  10
 211.129608
  20
 15.097043
  30
 0.0
   0
VERTEX
   8
0
   6
Continuous
  10
 210.756561
  20
 6.014965
  30
 0.0
   0
VERTEX
   8
0
   6
Continuous
  10
 209.731812
  20
 5.330686
  30
 0.0
   0
VERTEX
   8
0
   6
Continuous
  10
 209.104004
  20
 4.687710
  30
 0.0
   0
VERTEX
   8
0
   6
Continuous
  10
 208.610168
  20
 3.743874
  30
 0.0
   0
VERTEX
   8
0
   6
Continuous
  10
 208.308899
  20
 2.384790
  30
 0.0
   0
VERTEX
   8
0
   6
Continuous
  10
 208.170761
  20
 0.000000
  30
 0.0
   0
VERTEX
   8
0
   6
Continuous
  10
 198.938202
  20
 0.232758
  30
 0.0
   0
VERTEX
   8
0
   6
Continuous
  10
 199.012939
  20
 1.965784
  30
 0.0
   0
VERTEX
   8
0
   6
Continuous
  10
 199.228043
  20
 3.698810
  30
 0.0
   0
VERTEX
   8
0
   6
Continuous
  10
 200.037292
  20
 7.194634
  30
 0.0
   0
VERTEX
   8
0
   6
Continuous
  10
 198.304291
  20
 7.776162
  30
 0.0
   0
VERTEX
   8
0
   6
Continuous
  10
 193.105209
  20
 8.222475
  30
 0.0
   0
VERTEX
   8
0
   6
Continuous
  10
 186.173111
  20
 9.241019
  30
 0.0
   0
VERTEX
   8
0
   6
Continuous
  10
 169.899185
  20
 12.363255
  30
 0.0
   0
VERTEX
   8
0
   6
Continuous
  10
 167.061432
  20
 13.005138
  30
 0.0
   0
VERTEX
   8
0
   6
Continuous
  10
 167.061432
  20
 17.773626
  30
 0.0
   0
VERTEX
   8
0
   6
Continuous
  10
 164.061203
  20
 17.773626
  30
 0.0
   0
VERTEX
   8
0
   6
Continuous
  10
 163.643768
  20
 13.476751
  30
 0.0
   0
VERTEX
   8
0
   6
Continuous
  10
 154.978638
  20
 14.856995
  30
 0.0
   0
VERTEX
   8
0
   6
Continuous
  10
 142.847458
  20
 16.461842
  30
 0.0
   0
VERTEX
   8
0
   6
Continuous
  10
 132.449097
  20
 17.458693
  30
 0.0
   0
VERTEX
   8
0
   6
Continuous
  10
 122.051147
  20
 18.068596
  30
 0.0
   0
VERTEX
   8
0
   6
Continuous
  10
 119.993027
  20
 18.288881
  30
 0.0
   0
VERTEX
   8
0
   6
Continuous
  10
 119.993027
  20
 22.794687
  30
 0.0
   0
VERTEX
   8
0
   6
Continuous
  10
 116.992798
  20
 22.794687
  30
 0.0
   0
VERTEX
   8
0
   6
Continuous
  10
 116.842773
  20
 18.237467
  30
 0.0
   0
VERTEX
   8
0
   6
Continuous
  10
 101.254837
  20
 18.462528
  30
 0.0
   0
VERTEX
   8
0
   6
Continuous
  10
 90.856674
  20
 18.327415
  30
 0.0
   0
VERTEX
   8
0
   6
Continuous
  10
 82.191551
  20
 17.880594
  30
 0.0
   0
VERTEX
   8
0
   6
Continuous
  10
 73.526421
  20
 17.129433
  30
 0.0
   0
VERTEX
   8
0
   6
Continuous
  10
 72.924622
  20
 17.229567
  30
 0.0
   0
VERTEX
   8
0
   6
Continuous
  10
 72.924622
  20
 21.495934
  30
 0.0
   0
VERTEX
   8
0
   6
Continuous
  10
 69.924362
  20
 21.495934
  30
 0.0
   0
VERTEX
   8
0
   6
Continuous
  10
 69.774361
  20
 16.693686
  30
 0.0
   0
VERTEX
   8
0
   6
Continuous
  10
 61.395233
  20
 15.383172
  30
 0.0
   0
VERTEX
   8
0
   6
Continuous
  10
 54.463131
  20
 13.857223
  30
 0.0
   0
VERTEX
   8
0
   6
Continuous
  10
 47.531029
  20
 11.945392
  30
 0.0
   0
VERTEX
   8
0
   6
Continuous
  10
 40.598846
  20
 9.652785
  30
 0.0
   0
VERTEX
   8
0
   6
Continuous
  10
 33.666817
  20
 6.972696
  30
 0.0
   0
VERTEX
   8
0
   6
Continuous
  10
 26.735044
  20
 3.941882
  30
 0.0
   0
VERTEX
   8
0
   6
Continuous
  10
 25.856186
  20
 3.745093
  30
 0.0
   0
VERTEX
   8
0
   6
Continuous
  10
 25.856186
  20
 7.662742
  30
 0.0
   0
VERTEX
   8
0
   6
Continuous
  10
 22.855955
  20
 7.662742
  30
 0.0
   0
VERTEX
   8
0
   6
Continuous
  10
 22.705957
  20
 1.921915
  30
 0.0
   0
VERTEX
   8
0
   6
Continuous
  10
 19.575363
  20
 0.000000
  30
 0.0
   0
VERTEX
   8
0
   6
Continuous
  10
 1.917748
  20
 0.094495
  30
 0.0
   0
VERTEX
   8
0
   6
Continuous
  10
 7.293421
  20
 3.839334
  30
 0.0
   0
VERTEX
   8
0
   6
Continuous
  10
 13.514370
  20
 7.690608
  30
 0.0
   0
VERTEX
   8
0
   6
Continuous
  10
 18.123640
  20
 10.199589
  30
 0.0
   0
VERTEX
   8
0
   6
Continuous
  10
 24.508484
  20
 13.191487
  30
 0.0
   0
VERTEX
   8
0
   6
Continuous
  10
 32.953403
  20
 16.697115
  30
 0.0
   0
VERTEX
   8
0
   6
Continuous
  10
 40.516163
  20
 19.445078
  30
 0.0
   0
VERTEX
   8
0
   6
Continuous
  10
 48.344982
  20
 21.832054
  30
 0.0
   0
VERTEX
   8
0
   6
Continuous
  10
 55.730118
  20
 23.674570
  30
 0.0
   0
VERTEX
   8
0
   6
Continuous
  10
 53.482613
  20
 32.652378
  30
 0.0
   0
VERTEX
   8
0
   6
Continuous
  10
 49.314678
  20
 32.595192
  30
 0.0
   0
VERTEX
   8
0
   6
Continuous
  10
 37.274487
  20
 33.016434
  30
 0.0
   0
VERTEX
   8
0
   6
Continuous
  10
 29.084806
  20
 33.614067
  30
 0.0
   0
VERTEX
   8
0
   6
Continuous
  10
 15.192555
  20
 35.190083
  30
 0.0
   0
VERTEX
   8
0
   6
Continuous
  10
 3.970993
  20
 36.654507
  30
 0.0
   0
VERTEX
   8
0
   6
Continuous
  10
 1.082862
  20
 37.254505
  30
 0.0
   0
VERTEX
   8
0
   6
Continuous
  10
 0.171336
  20
 37.632866
  30
 0.0
   0
VERTEX
   8
0
   6
Continuous
  10
 0.174384
  20
 38.114819
  30
 0.0
   0
VERTEX
   8
0
   6
Continuous
  10
 0.968273
  20
 38.348389
  30
 0.0
   0
VERTEX
   8
0
   6
Continuous
  10
 4.618566
  20
 38.776260
  30
 0.0
   0
VERTEX
   8
0
   6
Continuous
  10
 6.302007
  20
 39.251278
  30
 0.0
   0
VERTEX
   8
0
   6
Continuous
  10
 7.152974
  20
 39.811623
  30
 0.0
   0
VERTEX
   8
0
   6
Continuous
  10
 7.610794
  20
 40.489399
  30
 0.0
   0
VERTEX
   8
0
   6
Continuous
  10
 7.823206
  20
 40.990631
  30
 0.0
   0
VERTEX
   8
0
   6
Continuous
  10
 8.011689
  20
 41.836643
  30
 0.0
   0
VERTEX
   8
0
   6
Continuous
  10
 8.117183
  20
 42.881248
  30
 0.0
   0
VERTEX
   8
0
   6
Continuous
  10
 8.068970
  20
 46.945824
  30
 0.0
   0
VERTEX
   8
0
   6
Continuous
  10
 7.783757
  20
 48.303841
  30
 0.0
   0
VERTEX
   8
0
   6
Continuous
  10
 7.394065
  20
 49.035496
  30
 0.0
   0
VERTEX
   8
0
   6
Continuous
  10
 7.061095
  20
 49.429684
  30
 0.0
   0
VERTEX
   8
0
   6
Continuous
  10
 6.321541
  20
 49.901016
  30
 0.0
   0
VERTEX
   8
0
   6
Continuous
  10
 5.197935
  20
 50.267162
  30
 0.0
   0
VERTEX
   8
0
   6
Continuous
  10
 0.499022
  20
 50.917580
  30
 0.0
   0
VERTEX
   8
0
   6
Continuous
  10
 0.000000
  20
 51.352104
  30
 0.0
   0
VERTEX
   8
0
   6
Continuous
  10
 0.528818
  20
 51.712002
  30
 0.0
   0
VERTEX
   8
0
   6
Continuous
  10
 1.082862
  20
 51.905285
  30
 0.0
   0
VERTEX
   8
0
   6
Continuous
  10
 4.013897
  20
 52.512192
  30
 0.0
   0
VERTEX
   8
0
   6
Continuous
  10
 20.274582
  20
 54.707863
  30
 0.0
   0
VERTEX
   8
0
   6
Continuous
  10
 22.034075
  20
 54.881256
  30
 0.0
   0
VERTEX
   8
0
   6
Continuous
  10
 22.034075
  20
 44.832378
  30
 0.0
   0
VERTEX
   8
0
   6
Continuous
  10
 23.472717
  20
 44.832378
  30
 0.0
   0
VERTEX
   8
0
   6
Continuous
  10
 27.646622
  20
 43.713749
  30
 0.0
   0
VERTEX
   8
0
   6
Continuous
  10
 30.345661
  20
 43.258648
  30
 0.0
   0
VERTEX
   8
0
   6
Continuous
  10
 36.312107
  20
 42.746490
  30
 0.0
   0
VERTEX
   8
0
   6
Continuous
  10
 37.723545
  20
 42.516529
  30
 0.0
   0
VERTEX
   8
0
   6
Continuous
  10
 37.723545
  20
 37.789268
  30
 0.0
   0
VERTEX
   8
0
   6
Continuous
  10
 40.723801
  20
 37.789268
  30
 0.0
   0
VERTEX
   8
0
   6
Continuous
  10
 40.873798
  20
 42.480076
  30
 0.0
   0
VERTEX
   8
0
   6
Continuous
  10
 44.976475
  20
 42.297714
  30
 0.0
   0
VERTEX
   8
0
   6
Continuous
  10
 51.908554
  20
 42.193821
  30
 0.0
   0
VERTEX
   8
0
   6
Continuous
  10
 53.413013
  20
 42.097954
  30
 0.0
   0
VERTEX
   8
0
   6
Continuous
  10
 53.413013
  20
 37.633781
  30
 0.0
   0
VERTEX
   8
0
   6
Continuous
  10
 56.413269
  20
 37.633781
  30
 0.0
   0
VERTEX
   8
0
   6
Continuous
  10
 56.563267
  20
 42.555950
  30
 0.0
   0
VERTEX
   8
0
   6
Continuous
  10
 60.806622
  20
 43.261440
  30
 0.0
   0
VERTEX
   8
0
   6
Continuous
  10
 62.308338
  20
 44.029064
  30
 0.0
   0
VERTEX
   8
0
   6
Continuous
  10
 63.941380
  20
 44.993019
  30
 0.0
   0
VERTEX
   8
0
   6
Continuous
  10
 57.102909
  20
 46.780128
  30
 0.0
   0
VERTEX
   8
0
   6
Continuous
  10
 50.169991
  20
 48.743855
  30
 0.0
   0
VERTEX
   8
0
   6
Continuous
  10
 48.437828
  20
 48.971684
  30
 0.0
   0
VERTEX
   8
0
   6
Continuous
  10
 39.770058
  20
 48.842491
  30
 0.0
   0
VERTEX
   8
0
   6
Continuous
  10
 35.327271
  20
 48.456963
  30
 0.0
   0
VERTEX
   8
0
   6
Continuous
  10
 32.842094
  20
 47.951309
  30
 0.0
   0
VERTEX
   8
0
   6
Continuous
  10
 27.643269
  20
 46.235355
  30
 0.0
   0
VERTEX
   8
0
   6
Continuous
  10
 25.034306
  20
 45.471569
  30
 0.0
   0
VERTEX
   8
0
   6
Continuous
  10
 25.184330
  20
 56.072433
  30
 0.0
   0
VERTEX
   8
0
   6
Continuous
  10
 26.577045
  20
 56.872520
  30
 0.0
   0
VERTEX
   8
0
   6
Continuous
  10
 27.287260
  20
 57.529465
  30
 0.0
   0
VERTEX
   8
0
   6
Continuous
  10
 27.845392
  20
 58.256016
  30
 0.0
   0
VERTEX
   8
0
   6
Continuous
  10
 28.285458
  20
 59.044491
  30
 0.0
   0
VERTEX
   8
0
   6
Continuous
  10
 28.940397
  20
 60.787956
  30
 0.0
   0
VERTEX
   8
0
   6
Continuous
  10
 30.025469
  20
 65.018433
  30
 0.0
   0
VERTEX
   8
0
   6
Continuous
  10
 30.778408
  20
 68.741676
  30
 0.0
   0
VERTEX
   8
0
   6
Continuous
  10
 31.080912
  20
 71.647179
  30
 0.0
   0
SEQEND
   0
TEXT
   8
0
  10
 0.000000
  20
 -10.701715
  30
 0.0
  40
 5.350858
  1
 Corde: 267.543
   0
ENDSEC
   0
EOF
