   0
SECTION
   2
ENTITIES
   0
POLYLINE
   8
0
  66
 1
   6
Continuous
  10
 0.0
  20
 0.0
  30
 0.0
  70
 128
   0
VERTEX
   8
0
   6
Continuous
  10
 17.317167
  20
 32.995113
  30
 0.0
   0
VERTEX
   8
0
   6
Continuous
  10
 17.409422
  20
 34.856663
  30
 0.0
   0
VERTEX
   8
0
   6
Continuous
  10
 17.642588
  20
 36.684765
  30
 0.0
   0
VERTEX
   8
0
   6
Continuous
  10
 18.012817
  20
 38.478802
  30
 0.0
   0
VERTEX
   8
0
   6
Continuous
  10
 18.516273
  20
 40.238228
  30
 0.0
   0
VERTEX
   8
0
   6
Continuous
  10
 19.199167
  20
 42.084194
  30
 0.0
   0
VERTEX
   8
0
   6
Continuous
  10
 20.025862
  20
 43.888996
  30
 0.0
   0
VERTEX
   8
0
   6
Continuous
  10
 20.999060
  20
 45.664692
  30
 0.0
   0
VERTEX
   8
0
   6
Continuous
  10
 22.106930
  20
 47.391548
  30
 0.0
   0
VERTEX
   8
0
   6
Continuous
  10
 23.323395
  20
 49.026207
  30
 0.0
   0
VERTEX
   8
0
   6
Continuous
  10
 24.645672
  20
 50.568199
  30
 0.0
   0
VERTEX
   8
0
   6
Continuous
  10
 26.070976
  20
 52.017040
  30
 0.0
   0
VERTEX
   8
0
   6
Continuous
  10
 27.596529
  20
 53.372269
  30
 0.0
   0
VERTEX
   8
0
   6
Continuous
  10
 29.331144
  20
 54.714108
  30
 0.0
   0
VERTEX
   8
0
   6
Continuous
  10
 31.006720
  20
 55.839031
  30
 0.0
   0
VERTEX
   8
0
   6
Continuous
  10
 32.749401
  20
 56.839649
  30
 0.0
   0
VERTEX
   8
0
   6
Continuous
  10
 34.421116
  20
 57.644241
  30
 0.0
   0
VERTEX
   8
0
   6
Continuous
  10
 36.188557
  20
 58.336098
  30
 0.0
   0
VERTEX
   8
0
   6
Continuous
  10
 37.984211
  20
 58.878494
  30
 0.0
   0
VERTEX
   8
0
   6
Continuous
  10
 37.090702
  20
 60.802036
  30
 0.0
   0
VERTEX
   8
0
   6
Continuous
  10
 36.383404
  20
 62.637054
  30
 0.0
   0
VERTEX
   8
0
   6
Continuous
  10
 35.907925
  20
 64.260330
  30
 0.0
   0
VERTEX
   8
0
   6
Continuous
  10
 35.580807
  20
 65.909439
  30
 0.0
   0
VERTEX
   8
0
   6
Continuous
  10
 35.399239
  20
 67.581848
  30
 0.0
   0
VERTEX
   8
0
   6
Continuous
  10
 35.361164
  20
 69.242775
  30
 0.0
   0
VERTEX
   8
0
   6
Continuous
  10
 35.467552
  20
 70.840775
  30
 0.0
   0
VERTEX
   8
0
   6
Continuous
  10
 35.723724
  20
 72.456413
  30
 0.0
   0
VERTEX
   8
0
   6
Continuous
  10
 36.112759
  20
 74.014343
  30
 0.0
   0
VERTEX
   8
0
   6
Continuous
  10
 36.673637
  20
 75.653938
  30
 0.0
   0
VERTEX
   8
0
   6
Continuous
  10
 37.371288
  20
 77.252457
  30
 0.0
   0
VERTEX
   8
0
   6
Continuous
  10
 38.276344
  20
 78.949852
  30
 0.0
   0
VERTEX
   8
0
   6
Continuous
  10
 39.330170
  20
 80.611511
  30
 0.0
   0
VERTEX
   8
0
   6
Continuous
  10
 40.499958
  20
 82.183266
  30
 0.0
   0
VERTEX
   8
0
   6
Continuous
  10
 41.781101
  20
 83.664467
  30
 0.0
   0
VERTEX
   8
0
   6
Continuous
  10
 43.168987
  20
 85.054527
  30
 0.0
   0
VERTEX
   8
0
   6
Continuous
  10
 44.671551
  20
 86.362717
  30
 0.0
   0
VERTEX
   8
0
   6
Continuous
  10
 46.315712
  20
 87.597183
  30
 0.0
   0
VERTEX
   8
0
   6
Continuous
  10
 48.038616
  20
 88.707840
  30
 0.0
   0
VERTEX
   8
0
   6
Continuous
  10
 49.953121
  20
 89.762642
  30
 0.0
   0
VERTEX
   8
0
   6
Continuous
  10
 51.961399
  20
 90.701111
  30
 0.0
   0
VERTEX
   8
0
   6
Continuous
  10
 54.176559
  20
 91.568748
  30
 0.0
   0
VERTEX
   8
0
   6
Continuous
  10
 56.202751
  20
 92.210846
  30
 0.0
   0
VERTEX
   8
0
   6
Continuous
  10
 58.258457
  20
 92.713593
  30
 0.0
   0
VERTEX
   8
0
   6
Continuous
  10
 60.340843
  20
 93.074478
  30
 0.0
   0
VERTEX
   8
0
   6
Continuous
  10
 62.447067
  20
 93.290970
  30
 0.0
   0
VERTEX
   8
0
   6
Continuous
  10
 64.555908
  20
 93.360634
  30
 0.0
   0
VERTEX
   8
0
   6
Continuous
  10
 66.565163
  20
 93.286827
  30
 0.0
   0
VERTEX
   8
0
   6
Continuous
  10
 68.472687
  20
 93.074936
  30
 0.0
   0
VERTEX
   8
0
   6
Continuous
  10
 70.239143
  20
 92.738594
  30
 0.0
   0
VERTEX
   8
0
   6
Continuous
  10
 71.963913
  20
 92.261116
  30
 0.0
   0
VERTEX
   8
0
   6
Continuous
  10
 73.542473
  20
 91.675117
  30
 0.0
   0
VERTEX
   8
0
   6
Continuous
  10
 75.071289
  20
 90.949265
  30
 0.0
   0
VERTEX
   8
0
   6
Continuous
  10
 76.453857
  20
 90.135384
  30
 0.0
   0
VERTEX
   8
0
   6
Continuous
  10
 77.767807
  20
 89.197418
  30
 0.0
   0
VERTEX
   8
0
   6
Continuous
  10
 78.904030
  20
 88.216583
  30
 0.0
   0
VERTEX
   8
0
   6
Continuous
  10
 79.907028
  20
 87.161026
  30
 0.0
   0
VERTEX
   8
0
   6
Continuous
  10
 80.774612
  20
 86.032288
  30
 0.0
   0
VERTEX
   8
0
   6
Continuous
  10
 81.460258
  20
 84.914177
  30
 0.0
   0
VERTEX
   8
0
   6
Continuous
  10
 82.024246
  20
 83.734947
  30
 0.0
   0
VERTEX
   8
0
   6
Continuous
  10
 82.464790
  20
 82.495857
  30
 0.0
   0
VERTEX
   8
0
   6
Continuous
  10
 82.780136
  20
 81.198189
  30
 0.0
   0
VERTEX
   8
0
   6
Continuous
  10
 82.968452
  20
 79.843185
  30
 0.0
   0
VERTEX
   8
0
   6
Continuous
  10
 83.027069
  20
 78.335823
  30
 0.0
   0
VERTEX
   8
0
   6
Continuous
  10
 82.940834
  20
 77.088936
  30
 0.0
   0
VERTEX
   8
0
   6
Continuous
  10
 82.721336
  20
 75.904701
  30
 0.0
   0
VERTEX
   8
0
   6
Continuous
  10
 82.375908
  20
 74.782417
  30
 0.0
   0
VERTEX
   8
0
   6
Continuous
  10
 81.871475
  20
 73.642220
  30
 0.0
   0
VERTEX
   8
0
   6
Continuous
  10
 81.238609
  20
 72.572159
  30
 0.0
   0
VERTEX
   8
0
   6
Continuous
  10
 80.428459
  20
 71.502403
  30
 0.0
   0
VERTEX
   8
0
   6
Continuous
  10
 79.492630
  20
 70.510941
  30
 0.0
   0
VERTEX
   8
0
   6
Continuous
  10
 78.368576
  20
 69.538437
  30
 0.0
   0
VERTEX
   8
0
   6
Continuous
  10
 77.106758
  20
 68.638573
  30
 0.0
   0
VERTEX
   8
0
   6
Continuous
  10
 75.530029
  20
 67.690529
  30
 0.0
   0
VERTEX
   8
0
   6
Continuous
  10
 74.100914
  20
 66.987602
  30
 0.0
   0
VERTEX
   8
0
   6
Continuous
  10
 72.874687
  20
 66.529388
  30
 0.0
   0
VERTEX
   8
0
   6
Continuous
  10
 71.770042
  20
 66.253578
  30
 0.0
   0
VERTEX
   8
0
   6
Continuous
  10
 70.770393
  20
 66.136711
  30
 0.0
   0
VERTEX
   8
0
   6
Continuous
  10
 69.898109
  20
 66.159912
  30
 0.0
   0
VERTEX
   8
0
   6
Continuous
  10
 69.059570
  20
 66.324303
  30
 0.0
   0
VERTEX
   8
0
   6
Continuous
  10
 68.371338
  20
 66.596451
  30
 0.0
   0
VERTEX
   8
0
   6
Continuous
  10
 67.803116
  20
 66.963310
  30
 0.0
   0
VERTEX
   8
0
   6
Continuous
  10
 67.360619
  20
 67.407547
  30
 0.0
   0
VERTEX
   8
0
   6
Continuous
  10
 67.025986
  20
 67.949150
  30
 0.0
   0
VERTEX
   8
0
   6
Continuous
  10
 66.826248
  20
 68.546471
  30
 0.0
   0
VERTEX
   8
0
   6
Continuous
  10
 66.751961
  20
 69.231674
  30
 0.0
   0
VERTEX
   8
0
   6
Continuous
  10
 66.811722
  20
 69.813660
  30
 0.0
   0
VERTEX
   8
0
   6
Continuous
  10
 67.009155
  20
 70.368309
  30
 0.0
   0
VERTEX
   8
0
   6
Continuous
  10
 67.361900
  20
 70.911491
  30
 0.0
   0
VERTEX
   8
0
   6
Continuous
  10
 67.879585
  20
 71.432991
  30
 0.0
   0
VERTEX
   8
0
   6
Continuous
  10
 68.679016
  20
 72.005287
  30
 0.0
   0
VERTEX
   8
0
   6
Continuous
  10
 69.171944
  20
 72.436760
  30
 0.0
   0
VERTEX
   8
0
   6
Continuous
  10
 69.588158
  20
 72.990036
  30
 0.0
   0
VERTEX
   8
0
   6
Continuous
  10
 69.935570
  20
 73.713951
  30
 0.0
   0
VERTEX
   8
0
   6
Continuous
  10
 70.188171
  20
 74.621567
  30
 0.0
   0
VERTEX
   8
0
   6
Continuous
  10
 70.331924
  20
 75.756500
  30
 0.0
   0
VERTEX
   8
0
   6
Continuous
  10
 70.350449
  20
 77.109825
  30
 0.0
   0
VERTEX
   8
0
   6
Continuous
  10
 70.235603
  20
 78.171616
  30
 0.0
   0
VERTEX
   8
0
   6
Continuous
  10
 69.989540
  20
 79.161118
  30
 0.0
   0
VERTEX
   8
0
   6
Continuous
  10
 69.610077
  20
 80.082153
  30
 0.0
   0
VERTEX
   8
0
   6
Continuous
  10
 69.095024
  20
 80.938484
  30
 0.0
   0
VERTEX
   8
0
   6
Continuous
  10
 68.442200
  20
 81.733963
  30
 0.0
   0
VERTEX
   8
0
   6
Continuous
  10
 67.649399
  20
 82.472313
  30
 0.0
   0
VERTEX
   8
0
   6
Continuous
  10
 66.693024
  20
 83.165581
  30
 0.0
   0
VERTEX
   8
0
   6
Continuous
  10
 65.626060
  20
 83.754761
  30
 0.0
   0
VERTEX
   8
0
   6
Continuous
  10
 64.484512
  20
 84.221100
  30
 0.0
   0
VERTEX
   8
0
   6
Continuous
  10
 63.212906
  20
 84.585472
  30
 0.0
   0
VERTEX
   8
0
   6
Continuous
  10
 61.750946
  20
 84.845642
  30
 0.0
   0
VERTEX
   8
0
   6
Continuous
  10
 60.197254
  20
 84.974785
  30
 0.0
   0
VERTEX
   8
0
   6
Continuous
  10
 58.586189
  20
 84.975121
  30
 0.0
   0
VERTEX
   8
0
   6
Continuous
  10
 57.158489
  20
 84.833710
  30
 0.0
   0
VERTEX
   8
0
   6
Continuous
  10
 55.857944
  20
 84.561745
  30
 0.0
   0
VERTEX
   8
0
   6
Continuous
  10
 54.684692
  20
 84.176704
  30
 0.0
   0
VERTEX
   8
0
   6
Continuous
  10
 53.593563
  20
 83.676292
  30
 0.0
   0
VERTEX
   8
0
   6
Continuous
  10
 52.453362
  20
 82.986504
  30
 0.0
   0
VERTEX
   8
0
   6
Continuous
  10
 51.446899
  20
 82.220207
  30
 0.0
   0
VERTEX
   8
0
   6
Continuous
  10
 50.536507
  20
 81.354836
  30
 0.0
   0
VERTEX
   8
0
   6
Continuous
  10
 49.724945
  20
 80.388512
  30
 0.0
   0
VERTEX
   8
0
   6
Continuous
  10
 49.015465
  20
 79.320274
  30
 0.0
   0
VERTEX
   8
0
   6
Continuous
  10
 48.434696
  20
 78.195114
  30
 0.0
   0
VERTEX
   8
0
   6
Continuous
  10
 47.996513
  20
 77.035103
  30
 0.0
   0
VERTEX
   8
0
   6
Continuous
  10
 47.701473
  20
 75.835808
  30
 0.0
   0
VERTEX
   8
0
   6
Continuous
  10
 47.550133
  20
 74.592773
  30
 0.0
   0
VERTEX
   8
0
   6
Continuous
  10
 47.542255
  20
 73.355995
  30
 0.0
   0
VERTEX
   8
0
   6
Continuous
  10
 47.692173
  20
 71.975746
  30
 0.0
   0
VERTEX
   8
0
   6
Continuous
  10
 48.012032
  20
 70.458488
  30
 0.0
   0
VERTEX
   8
0
   6
Continuous
  10
 48.553738
  20
 68.668442
  30
 0.0
   0
VERTEX
   8
0
   6
Continuous
  10
 49.324257
  20
 66.673271
  30
 0.0
   0
VERTEX
   8
0
   6
Continuous
  10
 50.331757
  20
 64.484795
  30
 0.0
   0
VERTEX
   8
0
   6
Continuous
  10
 51.655361
  20
 61.977776
  30
 0.0
   0
VERTEX
   8
0
   6
Continuous
  10
 53.344376
  20
 59.120983
  30
 0.0
   0
VERTEX
   8
0
   6
Continuous
  10
 55.417961
  20
 55.931602
  30
 0.0
   0
VERTEX
   8
0
   6
Continuous
  10
 57.868866
  20
 52.452869
  30
 0.0
   0
VERTEX
   8
0
   6
Continuous
  10
 60.752254
  20
 48.632076
  30
 0.0
   0
VERTEX
   8
0
   6
Continuous
  10
 64.000122
  20
 44.566780
  30
 0.0
   0
VERTEX
   8
0
   6
Continuous
  10
 67.117722
  20
 40.878910
  30
 0.0
   0
VERTEX
   8
0
   6
Continuous
  10
 70.161568
  20
 37.490192
  30
 0.0
   0
VERTEX
   8
0
   6
Continuous
  10
 73.081917
  20
 34.441643
  30
 0.0
   0
VERTEX
   8
0
   6
Continuous
  10
 75.909363
  20
 31.682831
  30
 0.0
   0
VERTEX
   8
0
   6
Continuous
  10
 78.823372
  20
 29.040575
  30
 0.0
   0
VERTEX
   8
0
   6
Continuous
  10
 81.505356
  20
 26.790455
  30
 0.0
   0
VERTEX
   8
0
   6
Continuous
  10
 81.475319
  20
 26.814699
  30
 0.0
   0
VERTEX
   8
0
   6
Continuous
  10
 81.534271
  20
 26.767160
  30
 0.0
   0
VERTEX
   8
0
   6
Continuous
  10
 82.380333
  20
 28.278109
  30
 0.0
   0
VERTEX
   8
0
   6
Continuous
  10
 83.258720
  20
 30.097666
  30
 0.0
   0
VERTEX
   8
0
   6
Continuous
  10
 83.930351
  20
 31.795361
  30
 0.0
   0
VERTEX
   8
0
   6
Continuous
  10
 84.425613
  20
 33.417583
  30
 0.0
   0
VERTEX
   8
0
   6
Continuous
  10
 84.788048
  20
 35.099522
  30
 0.0
   0
VERTEX
   8
0
   6
Continuous
  10
 85.022545
  20
 36.896278
  30
 0.0
   0
VERTEX
   8
0
   6
Continuous
  10
 85.115181
  20
 38.713444
  30
 0.0
   0
VERTEX
   8
0
   6
Continuous
  10
 85.071266
  20
 40.561405
  30
 0.0
   0
VERTEX
   8
0
   6
Continuous
  10
 84.898727
  20
 42.248867
  30
 0.0
   0
VERTEX
   8
0
   6
Continuous
  10
 84.585068
  20
 43.912514
  30
 0.0
   0
VERTEX
   8
0
   6
Continuous
  10
 84.152557
  20
 45.435658
  30
 0.0
   0
VERTEX
   8
0
   6
Continuous
  10
 83.629646
  20
 46.790955
  30
 0.0
   0
VERTEX
   8
0
   6
Continuous
  10
 83.050484
  20
 47.928516
  30
 0.0
   0
VERTEX
   8
0
   6
Continuous
  10
 82.357788
  20
 48.980782
  30
 0.0
   0
VERTEX
   8
0
   6
Continuous
  10
 81.585938
  20
 49.898762
  30
 0.0
   0
VERTEX
   8
0
   6
Continuous
  10
 80.698334
  20
 50.729897
  30
 0.0
   0
VERTEX
   8
0
   6
Continuous
  10
 79.749161
  20
 51.427589
  30
 0.0
   0
VERTEX
   8
0
   6
Continuous
  10
 78.808533
  20
 51.950615
  30
 0.0
   0
VERTEX
   8
0
   6
Continuous
  10
 77.823616
  20
 52.331356
  30
 0.0
   0
VERTEX
   8
0
   6
Continuous
  10
 76.812012
  20
 52.561291
  30
 0.0
   0
VERTEX
   8
0
   6
Continuous
  10
 75.770317
  20
 52.646389
  30
 0.0
   0
VERTEX
   8
0
   6
Continuous
  10
 74.592995
  20
 52.592373
  30
 0.0
   0
VERTEX
   8
0
   6
Continuous
  10
 73.515778
  20
 52.407825
  30
 0.0
   0
VERTEX
   8
0
   6
Continuous
  10
 72.012260
  20
 51.927376
  30
 0.0
   0
VERTEX
   8
0
   6
Continuous
  10
 71.230827
  20
 51.773979
  30
 0.0
   0
VERTEX
   8
0
   6
Continuous
  10
 70.589424
  20
 51.785938
  30
 0.0
   0
VERTEX
   8
0
   6
Continuous
  10
 69.979721
  20
 51.940411
  30
 0.0
   0
VERTEX
   8
0
   6
Continuous
  10
 69.447426
  20
 52.222336
  30
 0.0
   0
VERTEX
   8
0
   6
Continuous
  10
 69.002846
  20
 52.614902
  30
 0.0
   0
VERTEX
   8
0
   6
Continuous
  10
 68.635536
  20
 53.139175
  30
 0.0
   0
VERTEX
   8
0
   6
Continuous
  10
 68.393402
  20
 53.750462
  30
 0.0
   0
VERTEX
   8
0
   6
Continuous
  10
 68.289116
  20
 54.428070
  30
 0.0
   0
VERTEX
   8
0
   6
Continuous
  10
 68.334442
  20
 55.177658
  30
 0.0
   0
VERTEX
   8
0
   6
Continuous
  10
 68.520798
  20
 55.874428
  30
 0.0
   0
VERTEX
   8
0
   6
Continuous
  10
 68.849602
  20
 56.544327
  30
 0.0
   0
VERTEX
   8
0
   6
Continuous
  10
 69.331429
  20
 57.195572
  30
 0.0
   0
VERTEX
   8
0
   6
Continuous
  10
 70.010742
  20
 57.856068
  30
 0.0
   0
VERTEX
   8
0
   6
Continuous
  10
 70.891212
  20
 58.499981
  30
 0.0
   0
VERTEX
   8
0
   6
Continuous
  10
 72.072250
  20
 59.166157
  30
 0.0
   0
VERTEX
   8
0
   6
Continuous
  10
 73.684883
  20
 59.878620
  30
 0.0
   0
VERTEX
   8
0
   6
Continuous
  10
 75.395279
  20
 60.482273
  30
 0.0
   0
VERTEX
   8
0
   6
Continuous
  10
 77.137894
  20
 60.946888
  30
 0.0
   0
VERTEX
   8
0
   6
Continuous
  10
 78.868294
  20
 61.258663
  30
 0.0
   0
VERTEX
   8
0
   6
Continuous
  10
 80.582642
  20
 61.420658
  30
 0.0
   0
VERTEX
   8
0
   6
Continuous
  10
 82.265541
  20
 61.437813
  30
 0.0
   0
VERTEX
   8
0
   6
Continuous
  10
 83.955757
  20
 61.313942
  30
 0.0
   0
VERTEX
   8
0
   6
Continuous
  10
 85.499557
  20
 61.061371
  30
 0.0
   0
VERTEX
   8
0
   6
Continuous
  10
 86.990509
  20
 60.669796
  30
 0.0
   0
VERTEX
   8
0
   6
Continuous
  10
 88.333923
  20
 60.170284
  30
 0.0
   0
VERTEX
   8
0
   6
Continuous
  10
 89.618744
  20
 59.536766
  30
 0.0
   0
VERTEX
   8
0
   6
Continuous
  10
 90.759857
  20
 58.819500
  30
 0.0
   0
VERTEX
   8
0
   6
Continuous
  10
 91.840012
  20
 57.975800
  30
 0.0
   0
VERTEX
   8
0
   6
Continuous
  10
 92.854446
  20
 57.001045
  30
 0.0
   0
VERTEX
   8
0
   6
Continuous
  10
 93.734734
  20
 55.966591
  30
 0.0
   0
VERTEX
   8
0
   6
Continuous
  10
 94.501175
  20
 54.856342
  30
 0.0
   0
VERTEX
   8
0
   6
Continuous
  10
 95.197739
  20
 53.595417
  30
 0.0
   0
VERTEX
   8
0
   6
Continuous
  10
 95.805885
  20
 52.180862
  30
 0.0
   0
VERTEX
   8
0
   6
Continuous
  10
 96.309372
  20
 50.613640
  30
 0.0
   0
VERTEX
   8
0
   6
Continuous
  10
 96.695030
  20
 48.899513
  30
 0.0
   0
VERTEX
   8
0
   6
Continuous
  10
 96.953476
  20
 47.049923
  30
 0.0
   0
VERTEX
   8
0
   6
Continuous
  10
 97.079041
  20
 45.117409
  30
 0.0
   0
VERTEX
   8
0
   6
Continuous
  10
 97.071930
  20
 43.014545
  30
 0.0
   0
VERTEX
   8
0
   6
Continuous
  10
 96.920486
  20
 40.993313
  30
 0.0
   0
VERTEX
   8
0
   6
Continuous
  10
 96.632141
  20
 39.008209
  30
 0.0
   0
VERTEX
   8
0
   6
Continuous
  10
 96.184372
  20
 36.939297
  30
 0.0
   0
VERTEX
   8
0
   6
Continuous
  10
 95.600014
  20
 34.912601
  30
 0.0
   0
VERTEX
   8
0
   6
Continuous
  10
 94.842659
  20
 32.813526
  30
 0.0
   0
VERTEX
   8
0
   6
Continuous
  10
 93.900490
  20
 30.651062
  30
 0.0
   0
VERTEX
   8
0
   6
Continuous
  10
 92.824379
  20
 28.544266
  30
 0.0
   0
VERTEX
   8
0
   6
Continuous
  10
 91.594231
  20
 26.441023
  30
 0.0
   0
VERTEX
   8
0
   6
Continuous
  10
 90.142906
  20
 24.244091
  30
 0.0
   0
VERTEX
   8
0
   6
Continuous
  10
 88.285286
  20
 21.729670
  30
 0.0
   0
VERTEX
   8
0
   6
Continuous
  10
 89.917595
  20
 20.664448
  30
 0.0
   0
VERTEX
   8
0
   6
Continuous
  10
 92.178177
  20
 19.325832
  30
 0.0
   0
VERTEX
   8
0
   6
Continuous
  10
 94.215775
  20
 18.272003
  30
 0.0
   0
VERTEX
   8
0
   6
Continuous
  10
 96.152542
  20
 17.424152
  30
 0.0
   0
VERTEX
   8
0
   6
Continuous
  10
 97.955513
  20
 16.790440
  30
 0.0
   0
VERTEX
   8
0
   6
Continuous
  10
 99.528572
  20
 16.379881
  30
 0.0
   0
VERTEX
   8
0
   6
Continuous
  10
 100.972961
  20
 16.139200
  30
 0.0
   0
VERTEX
   8
0
   6
Continuous
  10
 102.354469
  20
 16.052172
  30
 0.0
   0
VERTEX
   8
0
   6
Continuous
  10
 103.713013
  20
 16.118227
  30
 0.0
   0
VERTEX
   8
0
   6
Continuous
  10
 104.880997
  20
 16.312164
  30
 0.0
   0
VERTEX
   8
0
   6
Continuous
  10
 105.941505
  20
 16.626740
  30
 0.0
   0
VERTEX
   8
0
   6
Continuous
  10
 106.906250
  20
 17.057314
  30
 0.0
   0
VERTEX
   8
0
   6
Continuous
  10
 107.980827
  20
 17.726379
  30
 0.0
   0
VERTEX
   8
0
   6
Continuous
  10
 108.703659
  20
 18.095095
  30
 0.0
   0
VERTEX
   8
0
   6
Continuous
  10
 109.375893
  20
 18.289196
  30
 0.0
   0
VERTEX
   8
0
   6
Continuous
  10
 110.078911
  20
 18.340464
  30
 0.0
   0
VERTEX
   8
0
   6
Continuous
  10
 110.733147
  20
 18.254662
  30
 0.0
   0
VERTEX
   8
0
   6
Continuous
  10
 111.368393
  20
 18.027210
  30
 0.0
   0
VERTEX
   8
0
   6
Continuous
  10
 111.917900
  20
 17.673588
  30
 0.0
   0
VERTEX
   8
0
   6
Continuous
  10
 112.367462
  20
 17.207994
  30
 0.0
   0
VERTEX
   8
0
   6
Continuous
  10
 112.702888
  20
 16.644604
  30
 0.0
   0
VERTEX
   8
0
   6
Continuous
  10
 112.909996
  20
 15.997645
  30
 0.0
   0
VERTEX
   8
0
   6
Continuous
  10
 112.974976
  20
 15.334713
  30
 0.0
   0
VERTEX
   8
0
   6
Continuous
  10
 112.950821
  20
 14.960966
  30
 0.0
   0
VERTEX
   8
0
   6
Continuous
  10
 112.789696
  20
 14.302962
  30
 0.0
   0
VERTEX
   8
0
   6
Continuous
  10
 112.461517
  20
 13.622320
  30
 0.0
   0
VERTEX
   8
0
   6
Continuous
  10
 111.952042
  20
 12.918973
  30
 0.0
   0
VERTEX
   8
0
   6
Continuous
  10
 111.142448
  20
 12.082325
  30
 0.0
   0
VERTEX
   8
0
   6
Continuous
  10
 109.808380
  20
 10.952573
  30
 0.0
   0
VERTEX
   8
0
   6
Continuous
  10
 107.799553
  20
 9.489478
  30
 0.0
   0
VERTEX
   8
0
   6
Continuous
  10
 105.016724
  20
 7.647770
  30
 0.0
   0
VERTEX
   8
0
   6
Continuous
  10
 102.723709
  20
 6.288990
  30
 0.0
   0
VERTEX
   8
0
   6
Continuous
  10
 100.719757
  20
 5.263187
  30
 0.0
   0
VERTEX
   8
0
   6
Continuous
  10
 98.984108
  20
 4.530150
  30
 0.0
   0
VERTEX
   8
0
   6
Continuous
  10
 97.461769
  20
 4.037426
  30
 0.0
   0
VERTEX
   8
0
   6
Continuous
  10
 96.204117
  20
 3.763993
  30
 0.0
   0
VERTEX
   8
0
   6
Continuous
  10
 95.052124
  20
 3.648068
  30
 0.0
   0
VERTEX
   8
0
   6
Continuous
  10
 93.945122
  20
 3.686592
  30
 0.0
   0
VERTEX
   8
0
   6
Continuous
  10
 92.724869
  20
 3.888186
  30
 0.0
   0
VERTEX
   8
0
   6
Continuous
  10
 91.364113
  20
 4.273273
  30
 0.0
   0
VERTEX
   8
0
   6
Continuous
  10
 89.810379
  20
 4.881655
  30
 0.0
   0
VERTEX
   8
0
   6
Continuous
  10
 88.107483
  20
 5.716158
  30
 0.0
   0
VERTEX
   8
0
   6
Continuous
  10
 85.943695
  20
 6.962885
  30
 0.0
   0
VERTEX
   8
0
   6
Continuous
  10
 82.726730
  20
 9.039509
  30
 0.0
   0
VERTEX
   8
0
   6
Continuous
  10
 78.460220
  20
 11.983245
  30
 0.0
   0
VERTEX
   8
0
   6
Continuous
  10
 73.697563
  20
 16.276157
  30
 0.0
   0
VERTEX
   8
0
   6
Continuous
  10
 71.764030
  20
 17.959320
  30
 0.0
   0
VERTEX
   8
0
   6
Continuous
  10
 69.810974
  20
 19.744242
  30
 0.0
   0
VERTEX
   8
0
   6
Continuous
  10
 67.655769
  20
 21.798439
  30
 0.0
   0
VERTEX
   8
0
   6
Continuous
  10
 65.079941
  20
 24.344837
  30
 0.0
   0
VERTEX
   8
0
   6
Continuous
  10
 62.462688
  20
 27.008612
  30
 0.0
   0
VERTEX
   8
0
   6
Continuous
  10
 60.594559
  20
 28.988972
  30
 0.0
   0
VERTEX
   8
0
   6
Continuous
  10
 58.985237
  20
 30.776955
  30
 0.0
   0
VERTEX
   8
0
   6
Continuous
  10
 57.595989
  20
 32.402458
  30
 0.0
   0
VERTEX
   8
0
   6
Continuous
  10
 55.600262
  20
 34.872410
  30
 0.0
   0
VERTEX
   8
0
   6
Continuous
  10
 53.320988
  20
 37.803185
  30
 0.0
   0
VERTEX
   8
0
   6
Continuous
  10
 48.935703
  20
 43.608154
  30
 0.0
   0
VERTEX
   8
0
   6
Continuous
  10
 47.613907
  20
 45.284988
  30
 0.0
   0
VERTEX
   8
0
   6
Continuous
  10
 46.510712
  20
 46.594902
  30
 0.0
   0
VERTEX
   8
0
   6
Continuous
  10
 45.583569
  20
 47.616375
  30
 0.0
   0
VERTEX
   8
0
   6
Continuous
  10
 44.900318
  20
 48.289585
  30
 0.0
   0
VERTEX
   8
0
   6
Continuous
  10
 44.329636
  20
 48.777809
  30
 0.0
   0
VERTEX
   8
0
   6
Continuous
  10
 43.858784
  20
 49.111443
  30
 0.0
   0
VERTEX
   8
0
   6
Continuous
  10
 43.373001
  20
 49.378086
  30
 0.0
   0
VERTEX
   8
0
   6
Continuous
  10
 42.804226
  20
 49.614109
  30
 0.0
   0
VERTEX
   8
0
   6
Continuous
  10
 42.188046
  20
 49.798733
  30
 0.0
   0
VERTEX
   8
0
   6
Continuous
  10
 41.530396
  20
 49.932156
  30
 0.0
   0
VERTEX
   8
0
   6
Continuous
  10
 40.802078
  20
 50.019081
  30
 0.0
   0
VERTEX
   8
0
   6
Continuous
  10
 39.989899
  20
 50.055641
  30
 0.0
   0
VERTEX
   8
0
   6
Continuous
  10
 39.209122
  20
 50.034676
  30
 0.0
   0
VERTEX
   8
0
   6
Continuous
  10
 38.475346
  20
 49.951355
  30
 0.0
   0
VERTEX
   8
0
   6
Continuous
  10
 37.772327
  20
 49.807213
  30
 0.0
   0
VERTEX
   8
0
   6
Continuous
  10
 37.098549
  20
 49.603878
  30
 0.0
   0
VERTEX
   8
0
   6
Continuous
  10
 36.452503
  20
 49.342979
  30
 0.0
   0
VERTEX
   8
0
   6
Continuous
  10
 35.832687
  20
 49.026161
  30
 0.0
   0
VERTEX
   8
0
   6
Continuous
  10
 35.237617
  20
 48.655056
  30
 0.0
   0
VERTEX
   8
0
   6
Continuous
  10
 34.603622
  20
 48.181015
  30
 0.0
   0
VERTEX
   8
0
   6
Continuous
  10
 33.996246
  20
 47.644192
  30
 0.0
   0
VERTEX
   8
0
   6
Continuous
  10
 33.413456
  20
 47.046852
  30
 0.0
   0
VERTEX
   8
0
   6
Continuous
  10
 32.863869
  20
 46.401375
  30
 0.0
   0
VERTEX
   8
0
   6
Continuous
  10
 32.364857
  20
 45.723709
  30
 0.0
   0
VERTEX
   8
0
   6
Continuous
  10
 31.926571
  20
 45.026054
  30
 0.0
   0
VERTEX
   8
0
   6
Continuous
  10
 31.547768
  20
 44.308056
  30
 0.0
   0
VERTEX
   8
0
   6
Continuous
  10
 31.227121
  20
 43.569347
  30
 0.0
   0
VERTEX
   8
0
   6
Continuous
  10
 30.963388
  20
 42.809586
  30
 0.0
   0
VERTEX
   8
0
   6
Continuous
  10
 30.755270
  20
 42.028419
  30
 0.0
   0
VERTEX
   8
0
   6
Continuous
  10
 30.601498
  20
 41.225487
  30
 0.0
   0
VERTEX
   8
0
   6
Continuous
  10
 30.492781
  20
 40.307388
  30
 0.0
   0
VERTEX
   8
0
   6
Continuous
  10
 30.447811
  20
 39.361542
  30
 0.0
   0
VERTEX
   8
0
   6
Continuous
  10
 30.466722
  20
 38.142723
  30
 0.0
   0
VERTEX
   8
0
   6
Continuous
  10
 30.550413
  20
 36.891430
  30
 0.0
   0
VERTEX
   8
0
   6
Continuous
  10
 30.697945
  20
 35.659782
  30
 0.0
   0
VERTEX
   8
0
   6
Continuous
  10
 30.908487
  20
 34.447250
  30
 0.0
   0
VERTEX
   8
0
   6
Continuous
  10
 31.181248
  20
 33.253334
  30
 0.0
   0
VERTEX
   8
0
   6
Continuous
  10
 31.515369
  20
 32.077553
  30
 0.0
   0
VERTEX
   8
0
   6
Continuous
  10
 31.910053
  20
 30.919378
  30
 0.0
   0
VERTEX
   8
0
   6
Continuous
  10
 32.364483
  20
 29.778282
  30
 0.0
   0
VERTEX
   8
0
   6
Continuous
  10
 32.877804
  20
 28.653776
  30
 0.0
   0
VERTEX
   8
0
   6
Continuous
  10
 33.449234
  20
 27.545349
  30
 0.0
   0
VERTEX
   8
0
   6
Continuous
  10
 34.137878
  20
 26.353899
  30
 0.0
   0
VERTEX
   8
0
   6
Continuous
  10
 34.912163
  20
 25.150951
  30
 0.0
   0
VERTEX
   8
0
   6
Continuous
  10
 35.746201
  20
 23.975883
  30
 0.0
   0
VERTEX
   8
0
   6
Continuous
  10
 36.627056
  20
 22.849062
  30
 0.0
   0
VERTEX
   8
0
   6
Continuous
  10
 37.554676
  20
 21.770531
  30
 0.0
   0
VERTEX
   8
0
   6
Continuous
  10
 38.529022
  20
 20.740347
  30
 0.0
   0
VERTEX
   8
0
   6
Continuous
  10
 39.549992
  20
 19.758591
  30
 0.0
   0
VERTEX
   8
0
   6
Continuous
  10
 40.617546
  20
 18.825321
  30
 0.0
   0
VERTEX
   8
0
   6
Continuous
  10
 41.731625
  20
 17.940605
  30
 0.0
   0
VERTEX
   8
0
   6
Continuous
  10
 42.892170
  20
 17.104511
  30
 0.0
   0
VERTEX
   8
0
   6
Continuous
  10
 44.099094
  20
 16.317081
  30
 0.0
   0
VERTEX
   8
0
   6
Continuous
  10
 45.345806
  20
 15.582466
  30
 0.0
   0
VERTEX
   8
0
   6
Continuous
  10
 46.501865
  20
 14.970658
  30
 0.0
   0
VERTEX
   8
0
   6
Continuous
  10
 47.673607
  20
 14.416974
  30
 0.0
   0
VERTEX
   8
0
   6
Continuous
  10
 48.861065
  20
 13.921591
  30
 0.0
   0
VERTEX
   8
0
   6
Continuous
  10
 50.064293
  20
 13.484692
  30
 0.0
   0
VERTEX
   8
0
   6
Continuous
  10
 51.283337
  20
 13.106448
  30
 0.0
   0
VERTEX
   8
0
   6
Continuous
  10
 52.518261
  20
 12.787036
  30
 0.0
   0
VERTEX
   8
0
   6
Continuous
  10
 53.769093
  20
 12.526642
  30
 0.0
   0
VERTEX
   8
0
   6
Continuous
  10
 55.035889
  20
 12.325443
  30
 0.0
   0
VERTEX
   8
0
   6
Continuous
  10
 56.318714
  20
 12.183626
  30
 0.0
   0
VERTEX
   8
0
   6
Continuous
  10
 57.617607
  20
 12.101352
  30
 0.0
   0
VERTEX
   8
0
   6
Continuous
  10
 59.000492
  20
 12.079157
  30
 0.0
   0
VERTEX
   8
0
   6
Continuous
  10
 60.372513
  20
 12.117377
  30
 0.0
   0
VERTEX
   8
0
   6
Continuous
  10
 61.738167
  20
 12.214573
  30
 0.0
   0
VERTEX
   8
0
   6
Continuous
  10
 63.095695
  20
 12.373035
  30
 0.0
   0
VERTEX
   8
0
   6
Continuous
  10
 64.393692
  20
 12.585646
  30
 0.0
   0
VERTEX
   8
0
   6
Continuous
  10
 65.631767
  20
 12.847559
  30
 0.0
   0
VERTEX
   8
0
   6
Continuous
  10
 66.858757
  20
 13.167632
  30
 0.0
   0
VERTEX
   8
0
   6
Continuous
  10
 68.086197
  20
 13.552121
  30
 0.0
   0
VERTEX
   8
0
   6
Continuous
  10
 69.238861
  20
 13.977230
  30
 0.0
   0
VERTEX
   8
0
   6
Continuous
  10
 70.365166
  20
 14.456775
  30
 0.0
   0
VERTEX
   8
0
   6
Continuous
  10
 71.472351
  20
 14.992745
  30
 0.0
   0
VERTEX
   8
0
   6
Continuous
  10
 72.611015
  20
 15.613894
  30
 0.0
   0
VERTEX
   8
0
   6
Continuous
  10
 73.296646
  20
 16.059799
  30
 0.0
   0
VERTEX
   8
0
   6
Continuous
  10
 78.296860
  20
 11.883132
  30
 0.0
   0
VERTEX
   8
0
   6
Continuous
  10
 76.217201
  20
 10.399435
  30
 0.0
   0
VERTEX
   8
0
   6
Continuous
  10
 74.117264
  20
 9.059487
  30
 0.0
   0
VERTEX
   8
0
   6
Continuous
  10
 71.967949
  20
 7.852440
  30
 0.0
   0
VERTEX
   8
0
   6
Continuous
  10
 69.769714
  20
 6.778456
  30
 0.0
   0
VERTEX
   8
0
   6
Continuous
  10
 67.523140
  20
 5.837704
  30
 0.0
   0
VERTEX
   8
0
   6
Continuous
  10
 65.228638
  20
 5.030334
  30
 0.0
   0
VERTEX
   8
0
   6
Continuous
  10
 62.886692
  20
 4.356522
  30
 0.0
   0
VERTEX
   8
0
   6
Continuous
  10
 60.497849
  20
 3.816421
  30
 0.0
   0
VERTEX
   8
0
   6
Continuous
  10
 58.062546
  20
 3.410192
  30
 0.0
   0
VERTEX
   8
0
   6
Continuous
  10
 55.581341
  20
 3.137990
  30
 0.0
   0
VERTEX
   8
0
   6
Continuous
  10
 53.054646
  20
 2.999992
  30
 0.0
   0
VERTEX
   8
0
   6
Continuous
  10
 50.342087
  20
 3.000768
  30
 0.0
   0
VERTEX
   8
0
   6
Continuous
  10
 47.726261
  20
 3.151140
  30
 0.0
   0
VERTEX
   8
0
   6
Continuous
  10
 45.221951
  20
 3.443249
  30
 0.0
   0
VERTEX
   8
0
   6
Continuous
  10
 42.894577
  20
 3.854983
  30
 0.0
   0
VERTEX
   8
0
   6
Continuous
  10
 40.591915
  20
 4.406402
  30
 0.0
   0
VERTEX
   8
0
   6
Continuous
  10
 38.383568
  20
 5.082850
  30
 0.0
   0
VERTEX
   8
0
   6
Continuous
  10
 36.290936
  20
 5.877888
  30
 0.0
   0
VERTEX
   8
0
   6
Continuous
  10
 34.264694
  20
 6.808881
  30
 0.0
   0
VERTEX
   8
0
   6
Continuous
  10
 32.437256
  20
 7.801976
  30
 0.0
   0
VERTEX
   8
0
   6
Continuous
  10
 30.674940
  20
 8.916407
  30
 0.0
   0
VERTEX
   8
0
   6
Continuous
  10
 28.983446
  20
 10.151790
  30
 0.0
   0
VERTEX
   8
0
   6
Continuous
  10
 27.381693
  20
 11.493143
  30
 0.0
   0
VERTEX
   8
0
   6
Continuous
  10
 25.884085
  20
 12.925720
  30
 0.0
   0
VERTEX
   8
0
   6
Continuous
  10
 24.490131
  20
 14.447396
  30
 0.0
   0
VERTEX
   8
0
   6
Continuous
  10
 23.116817
  20
 16.166386
  30
 0.0
   0
VERTEX
   8
0
   6
Continuous
  10
 21.860102
  20
 17.981806
  30
 0.0
   0
VERTEX
   8
0
   6
Continuous
  10
 20.719400
  20
 19.891115
  30
 0.0
   0
VERTEX
   8
0
   6
Continuous
  10
 19.698662
  20
 21.885931
  30
 0.0
   0
VERTEX
   8
0
   6
Continuous
  10
 18.871937
  20
 23.814751
  30
 0.0
   0
VERTEX
   8
0
   6
Continuous
  10
 18.229523
  20
 25.662891
  30
 0.0
   0
VERTEX
   8
0
   6
Continuous
  10
 17.726803
  20
 27.549007
  30
 0.0
   0
VERTEX
   8
0
   6
Continuous
  10
 17.393318
  20
 29.343124
  30
 0.0
   0
VERTEX
   8
0
   6
Continuous
  10
 17.200014
  20
 31.169327
  30
 0.0
   0
VERTEX
   8
0
   6
Continuous
  10
 17.153816
  20
 32.895000
  30
 0.0
   0
SEQEND
   0
ENDSEC
   0
EOF
