  0
SECTION
  2
HEADER
  9
$ACADVER
  1
AC1015
  9
$ACADMAINTVER
 70
     6
  9
$DWGCODEPAGE
  3
ANSI_1252
  9
$INSBASE
 10
0.0
 20
0.0
 30
0.0
  9
$EXTMIN
 10
-115.50737
 20
-89.430321
 30
0.0
  9
$EXTMAX
 10
498.158844
 20
223.012772
 30
0.0
  9
$LIMMIN
 10
0.0
 20
0.0
  9
$LIMMAX
 10
297.0
 20
210.0
  9
$ORTHOMODE
 70
     0
  9
$REGENMODE
 70
     1
  9
$FILLMODE
 70
     1
  9
$QTEXTMODE
 70
     0
  9
$MIRRTEXT
 70
     1
  9
$LTSCALE
 40
1.0
  9
$ATTMODE
 70
     1
  9
$TEXTSIZE
 40
5.0
  9
$TRACEWID
 40
1.0
  9
$TEXTSTYLE
  7
STANDARD
  9
$CLAYER
  8
0
  9
$CELTYPE
  6
Continuous
  9
$CECOLOR
 62
   256
  9
$CELTSCALE
 40
1.0
  9
$DISPSILH
 70
     0
  9
$DIMSCALE
 40
1.0
  9
$DIMASZ
 40
3.0
  9
$DIMEXO
 40
1.0
  9
$DIMDLI
 40
7.5
  9
$DIMRND
 40
0.01
  9
$DIMDLE
 40
0.0
  9
$DIMEXE
 40
2.0
  9
$DIMTP
 40
0.0
  9
$DIMTM
 40
0.0
  9
$DIMTXT
 40
3.0
  9
$DIMCEN
 40
0.09
  9
$DIMTSZ
 40
0.0
  9
$DIMTOL
 70
     0
  9
$DIMLIM
 70
     0
  9
$DIMTIH
 70
     1
  9
$DIMTOH
 70
     1
  9
$DIMSE1
 70
     0
  9
$DIMSE2
 70
     0
  9
$DIMTAD
 70
     1
  9
$DIMZIN
 70
     0
  9
$DIMBLK
  1

  9
$DIMASO
 70
     0
  9
$DIMSHO
 70
     1
  9
$DIMPOST
  1

  9
$DIMAPOST
  1

  9
$DIMALT
 70
     0
  9
$DIMALTD
 70
     2
  9
$DIMALTF
 40
1.0
  9
$DIMLFAC
 40
1.0
  9
$DIMTOFL
 70
     1
  9
$DIMTVP
 40
0.0
  9
$DIMTIX
 70
     0
  9
$DIMSOXD
 70
     0
  9
$DIMSAH
 70
     0
  9
$DIMBLK1
  1

  9
$DIMBLK2
  1

  9
$DIMSTYLE
  2
STANDARD
  9
$DIMCLRD
 70
   256
  9
$DIMCLRE
 70
   256
  9
$DIMCLRT
 70
   256
  9
$DIMTFAC
 40
1.0
  9
$DIMGAP
 40
2.0
  9
$DIMJUST
 70
     0
  9
$DIMSD1
 70
     0
  9
$DIMSD2
 70
     0
  9
$DIMTOLJ
 70
     1
  9
$DIMTZIN
 70
     0
  9
$DIMALTZ
 70
     0
  9
$DIMALTTZ
 70
     0
  9
$DIMUPT
 70
     0
  9
$DIMDEC
 70
     2
  9
$DIMTDEC
 70
     2
  9
$DIMALTU
 70
     2
  9
$DIMALTTD
 70
     2
  9
$DIMTXSTY
  7
STANDARD
  9
$DIMAUNIT
 70
     0
  9
$DIMADEC
 70
     2
  9
$DIMALTRND
 40
0.0
  9
$DIMAZIN
 70
     0
  9
$DIMDSEP
 70
     0
  9
$DIMATFIT
 70
     0
  9
$DIMFRAC
 70
     0
  9
$DIMLDRBLK
  1

  9
$DIMLUNIT
 70
     2
  9
$DIMLWD
 70
     0
  9
$DIMLWE
 70
     0
  9
$DIMTMOVE
 70
     0
  9
$LUNITS
 70
     2
  9
$LUPREC
 70
     2
  9
$SKETCHINC
 40
1.0
  9
$FILLETRAD
 40
1.0
  9
$AUNITS
 70
     0
  9
$AUPREC
 70
     2
  9
$MENU
  1
acad
  9
$ELEVATION
 40
0.0
  9
$PELEVATION
 40
0.0
  9
$THICKNESS
 40
0.0
  9
$LIMCHECK
 70
     0
  9
$CHAMFERA
 40
0.0
  9
$CHAMFERB
 40
0.0
  9
$CHAMFERC
 40
0.0
  9
$CHAMFERD
 40
0.0
  9
$SKPOLY
 70
     0
  9
$TDCREATE
 40
0.000000000
  9
$TDUCREATE
 40
0.000000000
  9
$TDUPDATE
 40
2449702.667959363
  9
$TDUUPDATE
 40
0.000000000
  9
$TDINDWG
 40
0.0000000000
  9
$TDUSRTIMER
 40
0.0000000000
  9
$USRTIMER
 70
     1
  9
$ANGBASE
 50
0.0
  9
$ANGDIR
 70
     0
  9
$PDMODE
 70
     0
  9
$PDSIZE
 40
0.0
  9
$PLINEWID
 40
0.0
  9
$SPLFRAME
 70
     0
  9
$SPLINETYPE
 70
     5
  9
$SPLINESEGS
 70
    20
  9
$HANDSEED
  5
2BA
  9
$SURFTAB1
 70
     6
  9
$SURFTAB2
 70
     6
  9
$SURFTYPE
 70
     6
  9
$SURFU
 70
     6
  9
$SURFV
 70
     6
  9
$UCSBASE
  2

  9
$UCSNAME
  2

  9
$UCSORG
 10
0.0
 20
0.0
 30
0.0
  9
$UCSXDIR
 10
1.0
 20
0.0
 30
0.0
  9
$UCSYDIR
 10
0.0
 20
1.0
 30
0.0
  9
$UCSORTHOREF
  2

  9
$UCSORTHOVIEW
 70
     0
  9
$UCSORGTOP
 10
0.0
 20
0.0
 30
0.0
  9
$UCSORGBOTTOM
 10
0.0
 20
0.0
 30
0.0
  9
$UCSORGLEFT
 10
0.0
 20
0.0
 30
0.0
  9
$UCSORGRIGHT
 10
0.0
 20
0.0
 30
0.0
  9
$UCSORGFRONT
 10
0.0
 20
0.0
 30
0.0
  9
$UCSORGBACK
 10
0.0
 20
0.0
 30
0.0
  9
$PUCSBASE
  2

  9
$PUCSNAME
  2

  9
$PUCSORG
 10
0.0
 20
0.0
 30
0.0
  9
$PUCSXDIR
 10
1.0
 20
0.0
 30
0.0
  9
$PUCSYDIR
 10
0.0
 20
1.0
 30
0.0
  9
$PUCSORTHOREF
  2

  9
$PUCSORTHOVIEW
 70
     0
  9
$PUCSORGTOP
 10
0.0
 20
0.0
 30
0.0
  9
$PUCSORGBOTTOM
 10
0.0
 20
0.0
 30
0.0
  9
$PUCSORGLEFT
 10
0.0
 20
0.0
 30
0.0
  9
$PUCSORGRIGHT
 10
0.0
 20
0.0
 30
0.0
  9
$PUCSORGFRONT
 10
0.0
 20
0.0
 30
0.0
  9
$PUCSORGBACK
 10
0.0
 20
0.0
 30
0.0
  9
$USERI1
 70
     0
  9
$USERI2
 70
     0
  9
$USERI3
 70
     0
  9
$USERI4
 70
     0
  9
$USERI5
 70
     0
  9
$USERR1
 40
0.0
  9
$USERR2
 40
0.0
  9
$USERR3
 40
0.0
  9
$USERR4
 40
0.0
  9
$USERR5
 40
0.0
  9
$WORLDVIEW
 70
     1
  9
$SHADEDGE
 70
     3
  9
$SHADEDIF
 70
    70
  9
$TILEMODE
 70
     1
  9
$MAXACTVP
 70
    16
  9
$PINSBASE
 10
0.0
 20
0.0
 30
0.0
  9
$PLIMCHECK
 70
     0
  9
$PEXTMIN
 10
0.0
 20
0.0
 30
0.0
  9
$PEXTMAX
 10
0.0
 20
0.0
 30
0.0
  9
$PLIMMIN
 10
0.0
 20
0.0
  9
$PLIMMAX
 10
0.0
 20
0.0
  9
$UNITMODE
 70
     0
  9
$VISRETAIN
 70
     0
  9
$PLINEGEN
 70
     1
  9
$PSLTSCALE
 70
     1
  9
$TREEDEPTH
 70
  3020
  9
$CMLSTYLE
  2
STANDARD
  9
$CMLJUST
 70
     0
  9
$CMLSCALE
 40
1.0
  9
$PROXYGRAPHICS
 70
     0
  9
$MEASUREMENT
 70
     0
  9
$CELWEIGHT
370
     0
  9
$ENDCAPS
280
     0
  9
$JOINSTYLE
280
     0
  9
$LWDISPLAY
290
     0
  9
$INSUNITS
 70
     0
  9
$HYPERLINKBASE
  1

  9
$XEDIT
290
     1
  9
$CEPSNTYPE
380
     0
  9
$PSTYLEMODE
290
     1
  9
$FINGERPRINTGUID
  2

  9
$VERSIONGUID
  2

  9
$EXTNAMES
290
     1
  9
$PSVPSCALE
 40
0.0
  0
ENDSEC
  0
SECTION
  2
CLASSES
  0
CLASS
  1
LWPOLYLINE
  2
AcDbPolyline
  3
AutoCAD 2000
 90
    32768
280
     0
281
     1
  0
CLASS
  1
IMAGE
  2
AcDbRasterImage
  3
ISM
 90
    32895
280
     0
281
     1
  0
CLASS
  1
OLE2FRAME
  2
AcDbOle2Frame
  3
AutoCAD 2000
 90
    32768
280
     0
281
     1
  0
CLASS
  1
HATCH
  2
AcDbHatch
  3
AutoCAD 2000
 90
    32768
280
     0
281
     1
  0
CLASS
  1
DICTIONARYVAR
  2
AcDbDictionaryVar
  3
AutoCAD 2000
 90
    32768
280
     0
281
     0
  0
CLASS
  1
RASTERVARIABLES
  2
AcDbRasterVariables
  3
ISM
 90
    32768
280
     0
281
     0
  0
CLASS
  1
IMAGEDEF
  2
AcDbRasterImageDef
  3
ISM
 90
    32768
280
     0
281
     0
  0
CLASS
  1
IMAGEDEF_REACTOR
  2
AcDbRasterImageDefReactor
  3
ISM
 90
    32769
280
     0
281
     0
  0
CLASS
  1
IDBUFFER
  2
AcDbIdBuffer
  3
AutoCAD 2000
 90
    32768
280
     0
281
     0
  0
CLASS
  1
SPATIAL_FILTER
  2
AcDbSpatialFilter
  3
AutoCAD 2000
 90
    32768
280
     0
281
     0
  0
CLASS
  1
XRECORD
  2
AcDbXrecord
  3
AutoCAD 2000
 90
    32768
280
     0
281
     0
  0
CLASS
  1
SORTENTSTABLE
  2
AcDbSortentsTable
  3
AutoCAD 2000
 90
    32768
280
     0
281
     0
  0
CLASS
  1
LAYER_INDEX
  2
AcDbLayerIndex
  3
AutoCAD 2000
 90
    32768
280
     0
281
     0
  0
CLASS
  1
SPATIAL_INDEX
  2
AcDbSpatialIndex
  3
AutoCAD 2000
 90
    32768
280
     0
281
     0
  0
CLASS
  1
OBJECT_PTR
  2
CAseDLPNTableRecord
  3
"ASE-LPNTableRecord"
 90
    32769
280
     0
281
     0
  0
CLASS
  1
LAYOUT
  2
AcDbLayout
  3
AutoCAD 2000
 90
        0
280
     0
281
     0
  0
CLASS
  1
PLOTSETTINGS
  2
AcDbPlotSettings
  3
AutoCAD 2000
 90
    32768
280
     0
281
     0
  0
CLASS
  1
ACDBDICTIONARYWDFLT
  2
AcDbDictionaryWithDefault
  3
AutoCAD 2000
 90
        0
280
     0
281
     0
  0
CLASS
  1
ACDBPLACEHOLDER
  2
AcDbPlaceHolder
  3
AutoCAD 2000
 90
        0
280
     0
281
     0
  0
ENDSEC
  0
SECTION
  2
TABLES
  0
TABLE
  2
VPORT
  5
7
100
AcDbSymbolTable
 70
     1
  0
VPORT
  5
15
100
AcDbSymbolTableRecord
100
AcDbViewportTableRecord
  2
*ACTIVE
 70
     0
 10
0.0
 20
0.0
 11
1.0
 21
1.0
 12
0.0
 22
0.0
 13
0.0
 23
0.0
 14
5.0
 24
5.0
 15
5.0
 25
5.0
 16
0.0
 26
0.0
 36
1.0
 17
385.170818
 27
8.673228
 37
0.0
 40
717.268799
 41
1.745342
 42
50.0
 43
0.0
 44
0.0
 50
0.0
 51
0.0
 71
     0
 72
   100
 73
     1
 74
     1
 75
     0
 76
     0
 77
     0
 78
     0
281
     0
 65
     0
110
0.0
120
0.0
130
0.0
111
1.0
121
0.0
131
0.0
112
0.0
122
1.0
132
0.0
345
0
346
0
 79
     0
146
0.0
  0
ENDTAB
  0
TABLE
  2
LTYPE
  5
4
100
AcDbSymbolTable
 70
    15
  0
LTYPE
  5
11
100
AcDbSymbolTableRecord
100
AcDbLinetypeTableRecord
  2
ByBlock
 70
    64
  3

 72
    65
 73
     0
 40
0.0
  0
LTYPE
  5
12
100
AcDbSymbolTableRecord
100
AcDbLinetypeTableRecord
  2
ByLayer
 70
    64
  3

 72
    65
 73
     0
 40
0.0
  0
LTYPE
  5
13
100
AcDbSymbolTableRecord
100
AcDbLinetypeTableRecord
  2
Continuous
 70
    64
  3
Solid line
 72
    65
 73
     0
 40
0.0
  0
LTYPE
  5
24
100
AcDbSymbolTableRecord
100
AcDbLinetypeTableRecord
  2
BORDER
 70
     0
  3
BORDER
 72
    65
 73
     6
 40
1.75
 49
0.5
 74
     0
 49
-0.25
 74
     0
 49
0.5
 74
     0
 49
-0.25
 74
     0
 49
0.0
 74
     0
 49
-0.25
 74
     0
  0
LTYPE
  5
25
100
AcDbSymbolTableRecord
100
AcDbLinetypeTableRecord
  2
CENTER
 70
     0
  3
CENTER
 72
    65
 73
     4
 40
2.0
 49
1.25
 74
     0
 49
-0.25
 74
     0
 49
0.25
 74
     0
 49
-0.25
 74
     0
  0
LTYPE
  5
26
100
AcDbSymbolTableRecord
100
AcDbLinetypeTableRecord
  2
DASHDOT
 70
     0
  3
DASHDOT
 72
    65
 73
     4
 40
1.0
 49
0.5
 74
     0
 49
-0.25
 74
     0
 49
0.0
 74
     0
 49
-0.25
 74
     0
  0
LTYPE
  5
27
100
AcDbSymbolTableRecord
100
AcDbLinetypeTableRecord
  2
DASHED
 70
     0
  3
DASHED
 72
    65
 73
     2
 40
0.75
 49
0.5
 74
     0
 49
-0.25
 74
     0
  0
LTYPE
  5
28
100
AcDbSymbolTableRecord
100
AcDbLinetypeTableRecord
  2
DIVIDE
 70
     0
  3
DIVIDE
 72
    65
 73
     6
 40
1.25
 49
0.5
 74
     0
 49
-0.25
 74
     0
 49
0.0
 74
     0
 49
-0.25
 74
     0
 49
0.0
 74
     0
 49
-0.25
 74
     0
  0
LTYPE
  5
29
100
AcDbSymbolTableRecord
100
AcDbLinetypeTableRecord
  2
DOT
 70
     0
  3
DOT
 72
    65
 73
     2
 40
0.25
 49
0.0
 74
     0
 49
-0.25
 74
     0
  0
LTYPE
  5
2A
100
AcDbSymbolTableRecord
100
AcDbLinetypeTableRecord
  2
HIDDEN
 70
     0
  3
HIDDEN
 72
    65
 73
     2
 40
0.375
 49
0.25
 74
     0
 49
-0.125
 74
     0
  0
LTYPE
  5
2B
100
AcDbSymbolTableRecord
100
AcDbLinetypeTableRecord
  2
PHANTOM
 70
     0
  3
PHANTOM
 72
    65
 73
     6
 40
2.5
 49
1.25
 74
     0
 49
-0.25
 74
     0
 49
0.25
 74
     0
 49
-0.25
 74
     0
 49
0.25
 74
     0
 49
-0.25
 74
     0
  0
LTYPE
  5
2C
100
AcDbSymbolTableRecord
100
AcDbLinetypeTableRecord
  2
$INVISIBLE
 70
     0
  3
$INVISIBLE
 72
    65
 73
     2
 40
200.0
 49
-100.0
 74
     0
 49
-100.0
 74
     0
  0
LTYPE
  5
2D
100
AcDbSymbolTableRecord
100
AcDbLinetypeTableRecord
  2
$SNAPEXT
 70
     0
  3
$SNAPEXT
 72
    65
 73
     2
 40
0.04
 49
0.02
 74
     0
 49
-0.02
 74
     0
  0
LTYPE
  5
2E
100
AcDbSymbolTableRecord
100
AcDbLinetypeTableRecord
  2
$AUXILIARY
 70
     0
  3
$AUXILIARY
 72
    65
 73
     2
 40
0.1
 49
0.05
 74
     0
 49
-0.05
 74
     0
  0
LTYPE
  5
2F
100
AcDbSymbolTableRecord
100
AcDbLinetypeTableRecord
  2
$CONSTRUCTION
 70
     0
  3
$CONSTRUCTION
 72
    65
 73
     4
 40
0.3
 49
0.2
 74
     0
 49
-0.05
 74
     0
 49
0.0
 74
     0
 49
-0.05
 74
     0
  0
ENDTAB
  0
TABLE
  2
LAYER
  5
2
100
AcDbSymbolTable
 70
     5
  0
LAYER
  5
14
100
AcDbSymbolTableRecord
100
AcDbLayerTableRecord
  2
0
 70
     0
 62
     7
  6
Continuous
290
     1
370
    -3
390
0
1001
TCAD
1000
TCW_LAYER_ORDER
1002
{
1071
        0
1002
}
  0
LAYER
  5
30
100
AcDbSymbolTableRecord
100
AcDbLayerTableRecord
  2
$CONSTRUCTION
 70
     0
 62
     9
  6
$CONSTRUCTION
290
     1
370
    -3
390
0
1001
TCAD
1000
TCW_LAYER_ORDER
1002
{
1071
        0
1002
}
  0
LAYER
  5
31
100
AcDbSymbolTableRecord
100
AcDbLayerTableRecord
  2
COUCHE1
 70
     0
 62
    33
  6
Continuous
290
     1
370
    -3
390
0
1001
TCAD
1000
TCW_LAYER_ORDER
1002
{
1071
        0
1002
}
  0
LAYER
  5
32
100
AcDbSymbolTableRecord
100
AcDbLayerTableRecord
  2
COUCHE2
 70
     0
 62
    84
  6
Continuous
290
     1
370
    -3
390
0
1001
TCAD
1000
TCW_LAYER_ORDER
1002
{
1071
        0
1002
}
  0
LAYER
  5
33
100
AcDbSymbolTableRecord
100
AcDbLayerTableRecord
  2
COUCHE3
 70
     0
 62
     1
  6
Continuous
290
     1
370
    -3
390
0
1001
TCAD
1000
TCW_LAYER_ORDER
1002
{
1071
        0
1002
}
  0
ENDTAB
  0
TABLE
  2
STYLE
  5
3
100
AcDbSymbolTable
 70
     1
  0
STYLE
  5
17
100
AcDbSymbolTableRecord
100
AcDbTextStyleTableRecord
  2
STANDARD
 70
     0
 40
0.0
 41
1.0
 50
0.0
 71
     0
 42
3.0
  3

  4

1001
ACAD
1000
Times New Roman
1071
      290
  0
ENDTAB
  0
TABLE
  2
VIEW
  5
5
100
AcDbSymbolTable
 70
     1
  0
VIEW
  5
34
100
AcDbSymbolTableRecord
100
AcDbViewTableRecord
  2
Vue_0
 70
     0
 40
210.0
 10
148.5
 20
105.0
 41
297.0
 11
0.0
 21
0.0
 31
1.0
 12
0.0
 22
0.0
 32
0.0
 42
50.0
 43
0.0
 44
0.0
 50
0.0
 71
     0
281
     0
 72
     0
110
0.0
120
0.0
130
0.0
111
1.0
121
0.0
131
0.0
112
0.0
122
1.0
132
0.0
  0
ENDTAB
  0
TABLE
  2
UCS
  5
6
100
AcDbSymbolTable
 70
     0
  0
ENDTAB
  0
TABLE
  2
APPID
  5
8
100
AcDbSymbolTable
 70
     2
  0
APPID
  5
16
100
AcDbSymbolTableRecord
100
AcDbRegAppTableRecord
  2
ACAD
 70
     0
  0
APPID
  5
23
100
AcDbSymbolTableRecord
100
AcDbRegAppTableRecord
  2
TCAD
 70
     0
  0
ENDTAB
  0
TABLE
  2
DIMSTYLE
  5
9
100
AcDbSymbolTable
 70
     1
100
AcDbDimStyleTable
 71
     0
  0
DIMSTYLE
105
18
100
AcDbSymbolTableRecord
100
AcDbDimStyleTableRecord
  2
STANDARD
 70
     0
  3

  4

 40
1.0
 41
3.0
 42
1.0
 43
7.5
 44
2.0
 45
0.01
 46
0.0
 47
0.0
 48
0.0
 71
     0
 72
     0
 73
     1
 74
     1
 75
     0
 76
     0
 77
     1
 78
     0
 79
     0
140
3.0
141
0.09
142
0.0
143
1.0
144
1.0
145
0.0
146
1.0
147
2.0
148
0.01
170
     0
171
     2
172
     1
173
     0
174
     0
175
     0
176
   256
177
   256
178
   256
179
     2
271
     2
272
     2
273
     2
274
     2
275
     0
276
     0
277
     2
278
    46
279
     0
280
     0
281
     0
282
     0
283
     1
284
     0
285
     0
286
     0
288
     0
340
17
341
0
342
0
343
0
344
0
371
    -2
372
    -2
  0
ENDTAB
  0
TABLE
  2
BLOCK_RECORD
  5
1
100
AcDbSymbolTable
 70
     0
  0
BLOCK_RECORD
  5
A
100
AcDbSymbolTableRecord
100
AcDbBlockTableRecord
  2
*MODEL_SPACE
340
2B8
  0
BLOCK_RECORD
  5
B
100
AcDbSymbolTableRecord
100
AcDbBlockTableRecord
  2
*PAPER_SPACE
340
2B9
  0
ENDTAB
  0
ENDSEC
  0
SECTION
  2
BLOCKS
  0
BLOCK
  5
D
100
AcDbEntity
  8
0
100
AcDbBlockBegin
  2
*MODEL_SPACE
 70
     0
 10
0.0
 20
0.0
 30
0.0
  3
*MODEL_SPACE
  1

  0
ENDBLK
  5
E
100
AcDbEntity
  8
0
100
AcDbBlockEnd
  0
BLOCK
  5
F
100
AcDbEntity
 67
     1
  8
0
100
AcDbBlockBegin
  2
*PAPER_SPACE
 70
     0
 10
0.0
 20
0.0
 30
0.0
  3
*PAPER_SPACE
  1

  0
ENDBLK
  5
10
100
AcDbEntity
 67
     1
  8
0
100
AcDbBlockEnd
  0
ENDSEC
  0
SECTION
  2
ENTITIES
  0
LINE
  5
35
100
AcDbEntity
  8
0
 62
     7
100
AcDbLine
 10
295.566986
 20
212.570737
 30
0.0
 11
316.935236
 21
212.570737
 31
0.0
  0
LINE
  5
36
100
AcDbEntity
  8
0
 62
     7
100
AcDbLine
 10
316.935236
 20
212.570737
 30
0.0
 11
316.935236
 21
197.746157
 31
0.0
  0
LINE
  5
37
100
AcDbEntity
  8
0
 62
     7
100
AcDbLine
 10
316.935236
 20
197.746157
 30
0.0
 11
306.275733
 21
197.746157
 31
0.0
  0
LINE
  5
38
100
AcDbEntity
  8
0
 62
     7
100
AcDbLine
 10
306.275733
 20
197.746157
 30
0.0
 11
306.275733
 21
185.927166
 31
0.0
  0
LINE
  5
39
100
AcDbEntity
  8
0
 62
     7
100
AcDbLine
 10
306.275733
 20
185.927166
 30
0.0
 11
315.828906
 21
185.927166
 31
0.0
  0
LINE
  5
3A
100
AcDbEntity
  8
0
 62
     7
100
AcDbLine
 10
315.828906
 20
185.927166
 30
0.0
 11
315.828906
 21
171.268976
 31
0.0
  0
LINE
  5
3B
100
AcDbEntity
  8
0
 62
     7
100
AcDbLine
 10
315.828906
 20
171.268976
 30
0.0
 11
306.275733
 21
171.268976
 31
0.0
  0
LINE
  5
3C
100
AcDbEntity
  8
0
 62
     7
100
AcDbLine
 10
306.275733
 20
142.929809
 30
0.0
 11
272.323513
 21
142.929809
 31
0.0
  0
LINE
  5
3D
100
AcDbEntity
  8
0
 62
     7
100
AcDbLine
 10
339.197028
 20
185.558698
 30
0.0
 11
339.939679
 21
185.922189
 31
0.0
  0
LINE
  5
3E
100
AcDbEntity
  8
0
 62
     7
100
AcDbLine
 10
339.939679
 20
185.922189
 30
0.0
 11
340.504035
 21
186.402567
 31
0.0
  0
LINE
  5
3F
100
AcDbEntity
  8
0
 62
     7
100
AcDbLine
 10
340.504035
 20
186.402567
 30
0.0
 11
340.919822
 21
187.053081
 31
0.0
  0
LINE
  5
40
100
AcDbEntity
  8
0
 62
     7
100
AcDbLine
 10
340.919822
 20
187.053081
 30
0.0
 11
341.216816
 21
187.927117
 31
0.0
  0
LINE
  5
41
100
AcDbEntity
  8
0
 62
     7
100
AcDbLine
 10
341.216816
 20
187.927117
 30
0.0
 11
341.454427
 21
190.345751
 31
0.0
  0
LINE
  5
42
100
AcDbEntity
  8
0
 62
     7
100
AcDbLine
 10
341.454427
 20
190.345751
 30
0.0
 11
341.454427
 21
194.199139
 31
0.0
  0
LINE
  5
43
100
AcDbEntity
  8
0
 62
     7
100
AcDbLine
 10
341.454427
 20
194.199139
 30
0.0
 11
341.233231
 21
196.719382
 31
0.0
  0
LINE
  5
44
100
AcDbEntity
  8
0
 62
     7
100
AcDbLine
 10
341.233231
 20
196.719382
 30
0.0
 11
340.956754
 21
197.619517
 31
0.0
  0
LINE
  5
45
100
AcDbEntity
  8
0
 62
     7
100
AcDbLine
 10
340.956754
 20
197.619517
 30
0.0
 11
340.569692
 21
198.279662
 31
0.0
  0
LINE
  5
46
100
AcDbEntity
  8
0
 62
     7
100
AcDbLine
 10
340.569692
 20
198.279662
 30
0.0
 11
340.012312
 21
198.752225
 31
0.0
  0
LINE
  5
47
100
AcDbEntity
  8
0
 62
     7
100
AcDbLine
 10
340.012312
 20
198.752225
 30
0.0
 11
339.224932
 21
199.089782
 31
0.0
  0
LINE
  5
48
100
AcDbEntity
  8
0
 62
     7
100
AcDbLine
 10
339.224932
 20
199.089782
 30
0.0
 11
338.207551
 21
199.292333
 31
0.0
  0
LINE
  5
49
100
AcDbEntity
  8
0
 62
     7
100
AcDbLine
 10
338.207551
 20
199.292333
 30
0.0
 11
336.960168
 21
199.359878
 31
0.0
  0
LINE
  5
4A
100
AcDbEntity
  8
0
 62
     7
100
AcDbLine
 10
336.960168
 20
199.359878
 30
0.0
 11
337.176839
 21
199.359878
 31
0.0
  0
LINE
  5
4B
100
AcDbEntity
  8
0
 62
     7
100
AcDbLine
 10
337.176839
 20
199.359878
 30
0.0
 11
337.176839
 21
185.182371
 31
0.0
  0
LINE
  5
4C
100
AcDbEntity
  8
0
 62
     7
100
AcDbLine
 10
326.571503
 20
212.570737
 30
0.0
 11
340.822475
 21
212.570737
 31
0.0
  0
LINE
  5
4D
100
AcDbEntity
  8
0
 62
     7
100
AcDbLine
 10
340.822475
 20
212.570737
 30
0.0
 11
343.414756
 21
212.328623
 31
0.0
  0
LINE
  5
4E
100
AcDbEntity
  8
0
 62
     7
100
AcDbLine
 10
343.414756
 20
212.328623
 30
0.0
 11
345.673114
 21
211.602386
 31
0.0
  0
LINE
  5
4F
100
AcDbEntity
  8
0
 62
     7
100
AcDbLine
 10
345.673114
 20
211.602386
 30
0.0
 11
347.597551
 21
210.392025
 31
0.0
  0
LINE
  5
50
100
AcDbEntity
  8
0
 62
     7
100
AcDbLine
 10
347.597551
 20
210.392025
 30
0.0
 11
349.188067
 21
208.697541
 31
0.0
  0
LINE
  5
51
100
AcDbEntity
  8
0
 62
     7
100
AcDbLine
 10
349.188067
 20
208.697541
 30
0.0
 11
350.433647
 21
206.527912
 31
0.0
  0
LINE
  5
52
100
AcDbEntity
  8
0
 62
     7
100
AcDbLine
 10
350.433647
 20
206.527912
 30
0.0
 11
351.323353
 21
203.892316
 31
0.0
  0
LINE
  5
53
100
AcDbEntity
  8
0
 62
     7
100
AcDbLine
 10
351.323353
 20
203.892316
 30
0.0
 11
351.857185
 21
200.790751
 31
0.0
  0
LINE
  5
54
100
AcDbEntity
  8
0
 62
     7
100
AcDbLine
 10
351.857185
 20
200.790751
 30
0.0
 11
352.035141
 21
197.223216
 31
0.0
  0
LINE
  5
55
100
AcDbEntity
  8
0
 62
     7
100
AcDbLine
 10
352.035141
 20
197.223216
 30
0.0
 11
352.035141
 21
196.560296
 31
0.0
  0
LINE
  5
56
100
AcDbEntity
  8
0
 62
     7
100
AcDbLine
 10
352.035141
 20
196.560296
 30
0.0
 11
352.035141
 21
192.664651
 31
0.0
  0
LINE
  5
57
100
AcDbEntity
  8
0
 62
     7
100
AcDbLine
 10
352.035141
 20
192.664651
 30
0.0
 11
351.952952
 21
190.045135
 31
0.0
  0
LINE
  5
58
100
AcDbEntity
  8
0
 62
     7
100
AcDbLine
 10
351.952952
 20
190.045135
 30
0.0
 11
351.706424
 21
187.706584
 31
0.0
  0
LINE
  5
59
100
AcDbEntity
  8
0
 62
     7
100
AcDbLine
 10
351.706424
 20
187.706584
 30
0.0
 11
351.295556
 21
185.648998
 31
0.0
  0
LINE
  5
5A
100
AcDbEntity
  8
0
 62
     7
100
AcDbLine
 10
351.295556
 20
185.648998
 30
0.0
 11
350.72035
 21
183.872377
 31
0.0
  0
LINE
  5
5B
100
AcDbEntity
  8
0
 62
     7
100
AcDbLine
 10
350.72035
 20
183.872377
 30
0.0
 11
349.984356
 21
182.381611
 31
0.0
  0
LINE
  5
5C
100
AcDbEntity
  8
0
 62
     7
100
AcDbLine
 10
349.984356
 20
182.381611
 30
0.0
 11
349.091203
 21
181.181712
 31
0.0
  0
LINE
  5
5D
100
AcDbEntity
  8
0
 62
     7
100
AcDbLine
 10
349.091203
 20
181.181712
 30
0.0
 11
348.040892
 21
180.27268
 31
0.0
  0
LINE
  5
5E
100
AcDbEntity
  8
0
 62
     7
100
AcDbLine
 10
348.040892
 20
180.27268
 30
0.0
 11
346.833422
 21
179.654515
 31
0.0
  0
LINE
  5
5F
100
AcDbEntity
  8
0
 62
     7
100
AcDbLine
 10
346.833422
 20
179.654515
 30
0.0
 11
348.036224
 21
179.121569
 31
0.0
  0
LINE
  5
60
100
AcDbEntity
  8
0
 62
     7
100
AcDbLine
 10
348.036224
 20
179.121569
 30
0.0
 11
349.084021
 21
178.278139
 31
0.0
  0
LINE
  5
61
100
AcDbEntity
  8
0
 62
     7
100
AcDbLine
 10
349.084021
 20
178.278139
 30
0.0
 11
349.976815
 21
177.124226
 31
0.0
  0
LINE
  5
62
100
AcDbEntity
  8
0
 62
     7
100
AcDbLine
 10
349.976815
 20
177.124226
 30
0.0
 11
350.714607
 21
175.659829
 31
0.0
  0
LINE
  5
63
100
AcDbEntity
  8
0
 62
     7
100
AcDbLine
 10
350.714607
 20
175.659829
 30
0.0
 11
351.292325
 21
173.88424
 31
0.0
  0
LINE
  5
64
100
AcDbEntity
  8
0
 62
     7
100
AcDbLine
 10
351.292325
 20
173.88424
 30
0.0
 11
351.704987
 21
171.796846
 31
0.0
  0
LINE
  5
65
100
AcDbEntity
  8
0
 62
     7
100
AcDbLine
 10
351.704987
 20
171.796846
 30
0.0
 11
351.952593
 21
169.397646
 31
0.0
  0
LINE
  5
66
100
AcDbEntity
  8
0
 62
     7
100
AcDbLine
 10
351.952593
 20
169.397646
 30
0.0
 11
352.035141
 21
166.686641
 31
0.0
  0
LINE
  5
67
100
AcDbEntity
  8
0
 62
     7
100
AcDbLine
 10
352.035141
 20
166.686641
 30
0.0
 11
352.035141
 21
150.98521
 31
0.0
  0
LINE
  5
68
100
AcDbEntity
  8
0
 62
     7
100
AcDbLine
 10
352.035141
 20
150.98521
 30
0.0
 11
352.23704
 21
146.773952
 31
0.0
  0
LINE
  5
69
100
AcDbEntity
  8
0
 62
     7
100
AcDbLine
 10
352.936291
 20
142.929809
 30
0.0
 11
342.334238
 21
142.929809
 31
0.0
  0
LINE
  5
6A
100
AcDbEntity
  8
0
 62
     7
100
AcDbLine
 10
342.334238
 20
142.929809
 30
0.0
 11
341.874418
 21
144.627385
 31
0.0
  0
LINE
  5
6B
100
AcDbEntity
  8
0
 62
     7
100
AcDbLine
 10
341.874418
 20
144.627385
 30
0.0
 11
341.61447
 21
146.381748
 31
0.0
  0
LINE
  5
6C
100
AcDbEntity
  8
0
 62
     7
100
AcDbLine
 10
341.61447
 20
146.381748
 30
0.0
 11
341.454427
 21
151.563614
 31
0.0
  0
LINE
  5
6D
100
AcDbEntity
  8
0
 62
     7
100
AcDbLine
 10
341.454427
 20
151.563614
 30
0.0
 11
341.454427
 21
164.658265
 31
0.0
  0
LINE
  5
6E
100
AcDbEntity
  8
0
 62
     7
100
AcDbLine
 10
341.454427
 20
164.658265
 30
0.0
 11
341.224614
 21
168.908129
 31
0.0
  0
LINE
  5
6F
100
AcDbEntity
  8
0
 62
     7
100
AcDbLine
 10
341.224614
 20
168.908129
 30
0.0
 11
340.937365
 21
170.318241
 31
0.0
  0
LINE
  5
70
100
AcDbEntity
  8
0
 62
     7
100
AcDbLine
 10
340.937365
 20
170.318241
 30
0.0
 11
340.535221
 21
171.251808
 31
0.0
  0
LINE
  5
71
100
AcDbEntity
  8
0
 62
     7
100
AcDbLine
 10
340.535221
 20
171.251808
 30
0.0
 11
339.980612
 21
171.864944
 31
0.0
  0
LINE
  5
72
100
AcDbEntity
  8
0
 62
     7
100
AcDbLine
 10
339.980612
 20
171.864944
 30
0.0
 11
339.236012
 21
172.313845
 31
0.0
  0
LINE
  5
73
100
AcDbEntity
  8
0
 62
     7
100
AcDbLine
 10
339.236012
 20
172.313845
 30
0.0
 11
338.30142
 21
172.598513
 31
0.0
  0
LINE
  5
74
100
AcDbEntity
  8
0
 62
     7
100
AcDbLine
 10
337.176839
 20
172.718949
 30
0.0
 11
337.176839
 21
142.929809
 31
0.0
  0
LINE
  5
75
100
AcDbEntity
  8
0
 62
     7
100
AcDbLine
 10
337.176839
 20
142.929809
 30
0.0
 11
326.571503
 21
142.929809
 31
0.0
  0
LINE
  5
76
100
AcDbEntity
  8
0
 62
     7
100
AcDbLine
 10
362.82862
 20
212.570737
 30
0.0
 11
385.355728
 21
212.570737
 31
0.0
  0
LINE
  5
77
100
AcDbEntity
  8
0
 62
     7
100
AcDbLine
 10
385.355728
 20
212.570737
 30
0.0
 11
385.355728
 21
197.746157
 31
0.0
  0
LINE
  5
78
100
AcDbEntity
  8
0
 62
     7
100
AcDbLine
 10
385.355728
 20
197.746157
 30
0.0
 11
373.53737
 21
197.746157
 31
0.0
  0
LINE
  5
79
100
AcDbEntity
  8
0
 62
     7
100
AcDbLine
 10
373.53737
 20
197.746157
 30
0.0
 11
373.53737
 21
185.927166
 31
0.0
  0
LINE
  5
7A
100
AcDbEntity
  8
0
 62
     7
100
AcDbLine
 10
373.53737
 20
185.927166
 30
0.0
 11
383.965431
 21
185.927166
 31
0.0
  0
LINE
  5
7B
100
AcDbEntity
  8
0
 62
     7
100
AcDbLine
 10
383.965431
 20
185.927166
 30
0.0
 11
383.965431
 21
171.268976
 31
0.0
  0
LINE
  5
7C
100
AcDbEntity
  8
0
 62
     7
100
AcDbLine
 10
383.965431
 20
171.268976
 30
0.0
 11
373.53737
 21
171.268976
 31
0.0
  0
LINE
  5
7D
100
AcDbEntity
  8
0
 62
     7
100
AcDbLine
 10
373.53737
 20
171.268976
 30
0.0
 11
373.53737
 21
157.754387
 31
0.0
  0
LINE
  5
7E
100
AcDbEntity
  8
0
 62
     7
100
AcDbLine
 10
373.53737
 20
157.754387
 30
0.0
 11
385.716845
 21
157.754387
 31
0.0
  0
LINE
  5
7F
100
AcDbEntity
  8
0
 62
     7
100
AcDbLine
 10
385.716845
 20
142.929809
 30
0.0
 11
362.82862
 21
142.929809
 31
0.0
  0
LINE
  5
80
100
AcDbEntity
  8
0
 62
     7
100
AcDbLine
 10
395.408918
 20
212.570737
 30
0.0
 11
407.138641
 21
212.570737
 31
0.0
  0
LINE
  5
81
100
AcDbEntity
  8
0
 62
     7
100
AcDbLine
 10
407.138641
 20
212.570737
 30
0.0
 11
412.149954
 21
184.648866
 31
0.0
  0
LINE
  5
82
100
AcDbEntity
  8
0
 62
     7
100
AcDbLine
 10
413.356411
 20
212.570737
 30
0.0
 11
423.781189
 21
212.570737
 31
0.0
  0
LINE
  5
83
100
AcDbEntity
  8
0
 62
     7
100
AcDbLine
 10
423.781189
 20
142.929809
 30
0.0
 11
412.430641
 21
142.929809
 31
0.0
  0
LINE
  5
84
100
AcDbEntity
  8
0
 62
     7
100
AcDbLine
 10
412.430641
 20
142.929809
 30
0.0
 11
406.833333
 21
172.734793
 31
0.0
  0
LINE
  5
85
100
AcDbEntity
  8
0
 62
     7
100
AcDbLine
 10
405.85996
 20
165.817713
 30
0.0
 11
405.85996
 21
142.929809
 31
0.0
  0
LINE
  5
86
100
AcDbEntity
  8
0
 62
     7
100
AcDbLine
 10
405.85996
 20
142.929809
 30
0.0
 11
395.408918
 21
142.929809
 31
0.0
  0
LINE
  5
87
100
AcDbEntity
  8
0
 62
     7
100
AcDbLine
 10
460.822924
 20
163.786695
 30
0.0
 11
460.616856
 21
158.713106
 31
0.0
  0
LINE
  5
88
100
AcDbEntity
  8
0
 62
     7
100
AcDbLine
 10
460.616856
 20
158.713106
 30
0.0
 11
459.998696
 21
154.297161
 31
0.0
  0
LINE
  5
89
100
AcDbEntity
  8
0
 62
     7
100
AcDbLine
 10
459.998696
 20
154.297161
 30
0.0
 11
458.968442
 21
150.538858
 31
0.0
  0
LINE
  5
8A
100
AcDbEntity
  8
0
 62
     7
100
AcDbLine
 10
458.968442
 20
150.538858
 30
0.0
 11
458.29878
 21
148.906321
 31
0.0
  0
LINE
  5
8B
100
AcDbEntity
  8
0
 62
     7
100
AcDbLine
 10
458.29878
 20
148.906321
 30
0.0
 11
457.526094
 21
147.438194
 31
0.0
  0
LINE
  5
8C
100
AcDbEntity
  8
0
 62
     7
100
AcDbLine
 10
457.526094
 20
147.438194
 30
0.0
 11
456.651058
 21
146.138888
 31
0.0
  0
LINE
  5
8D
100
AcDbEntity
  8
0
 62
     7
100
AcDbLine
 10
456.651058
 20
146.138888
 30
0.0
 11
455.674384
 21
145.012824
 31
0.0
  0
LINE
  5
8E
100
AcDbEntity
  8
0
 62
     7
100
AcDbLine
 10
455.674384
 20
145.012824
 30
0.0
 11
454.596071
 21
144.060001
 31
0.0
  0
LINE
  5
8F
100
AcDbEntity
  8
0
 62
     7
100
AcDbLine
 10
454.596071
 20
144.060001
 30
0.0
 11
453.416119
 21
143.280418
 31
0.0
  0
LINE
  5
90
100
AcDbEntity
  8
0
 62
     7
100
AcDbLine
 10
452.134529
 20
142.674076
 30
0.0
 11
450.751299
 21
142.240974
 31
0.0
  0
LINE
  5
91
100
AcDbEntity
  8
0
 62
     7
100
AcDbLine
 10
450.751299
 20
142.240974
 30
0.0
 11
449.26643
 21
141.981112
 31
0.0
  0
LINE
  5
92
100
AcDbEntity
  8
0
 62
     7
100
AcDbLine
 10
449.26643
 20
141.981112
 30
0.0
 11
447.679922
 21
141.894491
 31
0.0
  0
LINE
  5
93
100
AcDbEntity
  8
0
 62
     7
100
AcDbLine
 10
447.679922
 20
141.894491
 30
0.0
 11
446.10324
 21
141.981319
 31
0.0
  0
LINE
  5
94
100
AcDbEntity
  8
0
 62
     7
100
AcDbLine
 10
446.10324
 20
141.981319
 30
0.0
 11
444.625712
 21
142.241799
 31
0.0
  0
LINE
  5
95
100
AcDbEntity
  8
0
 62
     7
100
AcDbLine
 10
444.625712
 20
142.241799
 30
0.0
 11
443.247339
 21
142.675933
 31
0.0
  0
LINE
  5
96
100
AcDbEntity
  8
0
 62
     7
100
AcDbLine
 10
441.968119
 20
143.283719
 30
0.0
 11
440.788054
 21
144.065159
 31
0.0
  0
LINE
  5
97
100
AcDbEntity
  8
0
 62
     7
100
AcDbLine
 10
440.788054
 20
144.065159
 30
0.0
 11
439.707142
 21
145.020251
 31
0.0
  0
LINE
  5
98
100
AcDbEntity
  8
0
 62
     7
100
AcDbLine
 10
439.707142
 20
145.020251
 30
0.0
 11
438.725384
 21
146.148997
 31
0.0
  0
LINE
  5
99
100
AcDbEntity
  8
0
 62
     7
100
AcDbLine
 10
438.725384
 20
146.148997
 30
0.0
 11
437.842779
 21
147.451396
 31
0.0
  0
LINE
  5
9A
100
AcDbEntity
  8
0
 62
     7
100
AcDbLine
 10
437.842779
 20
147.451396
 30
0.0
 11
437.061812
 21
148.922206
 31
0.0
  0
LINE
  5
9B
100
AcDbEntity
  8
0
 62
     7
100
AcDbLine
 10
437.061812
 20
148.922206
 30
0.0
 11
436.384975
 21
150.556188
 31
0.0
  0
LINE
  5
9C
100
AcDbEntity
  8
0
 62
     7
100
AcDbLine
 10
436.384975
 20
150.556188
 30
0.0
 11
435.343687
 21
154.313668
 31
0.0
  0
LINE
  5
9D
100
AcDbEntity
  8
0
 62
     7
100
AcDbLine
 10
435.343687
 20
154.313668
 30
0.0
 11
434.718916
 21
158.723837
 31
0.0
  0
LINE
  5
9E
100
AcDbEntity
  8
0
 62
     7
100
AcDbLine
 10
434.718916
 20
158.723837
 30
0.0
 11
434.51066
 21
163.786695
 31
0.0
  0
LINE
  5
9F
100
AcDbEntity
  8
0
 62
     7
100
AcDbLine
 10
434.51066
 20
163.786695
 30
0.0
 11
434.51066
 21
191.711208
 31
0.0
  0
LINE
  5
A0
100
AcDbEntity
  8
0
 62
     7
100
AcDbLine
 10
434.51066
 20
191.711208
 30
0.0
 11
434.718659
 21
196.761814
 31
0.0
  0
LINE
  5
A1
100
AcDbEntity
  8
0
 62
     7
100
AcDbLine
 10
434.718659
 20
196.761814
 30
0.0
 11
435.342662
 21
201.159094
 31
0.0
  0
LINE
  5
A2
100
AcDbEntity
  8
0
 62
     7
100
AcDbLine
 10
435.342662
 20
201.159094
 30
0.0
 11
436.382668
 21
204.90305
 31
0.0
  0
LINE
  5
A3
100
AcDbEntity
  8
0
 62
     7
100
AcDbLine
 10
436.382668
 20
204.90305
 30
0.0
 11
437.058672
 21
206.530032
 31
0.0
  0
LINE
  5
A4
100
AcDbEntity
  8
0
 62
     7
100
AcDbLine
 10
437.058672
 20
206.530032
 30
0.0
 11
437.838678
 21
207.993684
 31
0.0
  0
LINE
  5
A5
100
AcDbEntity
  8
0
 62
     7
100
AcDbLine
 10
437.838678
 20
207.993684
 30
0.0
 11
438.720448
 21
209.289252
 31
0.0
  0
LINE
  5
A6
100
AcDbEntity
  8
0
 62
     7
100
AcDbLine
 10
438.720448
 20
209.289252
 30
0.0
 11
439.701756
 21
210.412081
 31
0.0
  0
LINE
  5
A7
100
AcDbEntity
  8
0
 62
     7
100
AcDbLine
 10
439.701756
 20
210.412081
 30
0.0
 11
440.782603
 21
211.362171
 31
0.0
  0
LINE
  5
A8
100
AcDbEntity
  8
0
 62
     7
100
AcDbLine
 10
440.782603
 20
211.362171
 30
0.0
 11
441.962989
 21
212.139522
 31
0.0
  0
LINE
  5
A9
100
AcDbEntity
  8
0
 62
     7
100
AcDbLine
 10
441.962989
 20
212.139522
 30
0.0
 11
443.242914
 21
212.744134
 31
0.0
  0
LINE
  5
AA
100
AcDbEntity
  8
0
 62
     7
100
AcDbLine
 10
443.242914
 20
212.744134
 30
0.0
 11
444.622378
 21
213.176008
 31
0.0
  0
LINE
  5
AB
100
AcDbEntity
  8
0
 62
     7
100
AcDbLine
 10
444.622378
 20
213.176008
 30
0.0
 11
446.10138
 21
213.435142
 31
0.0
  0
LINE
  5
AC
100
AcDbEntity
  8
0
 62
     7
100
AcDbLine
 10
446.10138
 20
213.435142
 30
0.0
 11
447.679922
 21
213.521538
 31
0.0
  0
LINE
  5
AD
100
AcDbEntity
  8
0
 62
     7
100
AcDbLine
 10
447.679922
 20
213.521538
 30
0.0
 11
449.27015
 21
213.435761
 31
0.0
  0
LINE
  5
AE
100
AcDbEntity
  8
0
 62
     7
100
AcDbLine
 10
449.27015
 20
213.435761
 30
0.0
 11
450.757968
 21
213.178484
 31
0.0
  0
LINE
  5
AF
100
AcDbEntity
  8
0
 62
     7
100
AcDbLine
 10
450.757968
 20
213.178484
 30
0.0
 11
452.143378
 21
212.749705
 31
0.0
  0
LINE
  5
B0
100
AcDbEntity
  8
0
 62
     7
100
AcDbLine
 10
452.143378
 20
212.749705
 30
0.0
 11
453.426379
 21
212.149426
 31
0.0
  0
LINE
  5
B1
100
AcDbEntity
  8
0
 62
     7
100
AcDbLine
 10
453.426379
 20
212.149426
 30
0.0
 11
454.606972
 21
211.377646
 31
0.0
  0
LINE
  5
B2
100
AcDbEntity
  8
0
 62
     7
100
AcDbLine
 10
454.606972
 20
211.377646
 30
0.0
 11
455.685157
 21
210.434365
 31
0.0
  0
LINE
  5
B3
100
AcDbEntity
  8
0
 62
     7
100
AcDbLine
 10
455.685157
 20
210.434365
 30
0.0
 11
456.660933
 21
209.319583
 31
0.0
  0
LINE
  5
B4
100
AcDbEntity
  8
0
 62
     7
100
AcDbLine
 10
456.660933
 20
209.319583
 30
0.0
 11
457.534301
 21
208.033301
 31
0.0
  0
LINE
  5
B5
100
AcDbEntity
  8
0
 62
     7
100
AcDbLine
 10
457.534301
 20
208.033301
 30
0.0
 11
458.305064
 21
206.577696
 31
0.0
  0
LINE
  5
B6
100
AcDbEntity
  8
0
 62
     7
100
AcDbLine
 10
458.305064
 20
206.577696
 30
0.0
 11
458.973059
 21
204.955047
 31
0.0
  0
LINE
  5
B7
100
AcDbEntity
  8
0
 62
     7
100
AcDbLine
 10
458.973059
 20
204.955047
 30
0.0
 11
460.000748
 21
201.208615
 31
0.0
  0
LINE
  5
B8
100
AcDbEntity
  8
0
 62
     7
100
AcDbLine
 10
460.000748
 20
201.208615
 30
0.0
 11
460.617369
 21
196.794002
 31
0.0
  0
LINE
  5
B9
100
AcDbEntity
  8
0
 62
     7
100
AcDbLine
 10
460.617369
 20
196.794002
 30
0.0
 11
460.822924
 21
191.711208
 31
0.0
  0
LINE
  5
BA
100
AcDbEntity
  8
0
 62
     7
100
AcDbLine
 10
460.822924
 20
191.711208
 30
0.0
 11
460.822924
 21
185.60495
 31
0.0
  0
LINE
  5
BB
100
AcDbEntity
  8
0
 62
     7
100
AcDbLine
 10
460.822924
 20
185.60495
 30
0.0
 11
450.012407
 21
185.60495
 31
0.0
  0
LINE
  5
BC
100
AcDbEntity
  8
0
 62
     7
100
AcDbLine
 10
450.012407
 20
185.60495
 30
0.0
 11
450.012407
 21
194.199139
 31
0.0
  0
LINE
  5
BD
100
AcDbEntity
  8
0
 62
     7
100
AcDbLine
 10
450.012407
 20
194.199139
 30
0.0
 11
449.868153
 21
196.780788
 31
0.0
  0
LINE
  5
BE
100
AcDbEntity
  8
0
 62
     7
100
AcDbLine
 10
449.868153
 20
196.780788
 30
0.0
 11
449.435443
 21
198.461899
 31
0.0
  0
LINE
  5
BF
100
AcDbEntity
  8
0
 62
     7
100
AcDbLine
 10
449.435443
 20
198.461899
 30
0.0
 11
449.106068
 21
199.000324
 31
0.0
  0
LINE
  5
C0
100
AcDbEntity
  8
0
 62
     7
100
AcDbLine
 10
449.106068
 20
199.000324
 30
0.0
 11
448.694935
 21
199.384926
 31
0.0
  0
LINE
  5
C1
100
AcDbEntity
  8
0
 62
     7
100
AcDbLine
 10
448.694935
 20
199.384926
 30
0.0
 11
448.202044
 21
199.615704
 31
0.0
  0
LINE
  5
C2
100
AcDbEntity
  8
0
 62
     7
100
AcDbLine
 10
448.202044
 20
199.615704
 30
0.0
 11
447.627395
 21
199.692658
 31
0.0
  0
LINE
  5
C3
100
AcDbEntity
  8
0
 62
     7
100
AcDbLine
 10
447.627395
 20
199.692658
 30
0.0
 11
447.074531
 21
199.616364
 31
0.0
  0
LINE
  5
C4
100
AcDbEntity
  8
0
 62
     7
100
AcDbLine
 10
447.074531
 20
199.616364
 30
0.0
 11
446.599436
 21
199.387567
 31
0.0
  0
LINE
  5
C5
100
AcDbEntity
  8
0
 62
     7
100
AcDbLine
 10
446.599436
 20
199.387567
 30
0.0
 11
446.202108
 21
199.006267
 31
0.0
  0
LINE
  5
C6
100
AcDbEntity
  8
0
 62
     7
100
AcDbLine
 10
446.202108
 20
199.006267
 30
0.0
 11
445.882548
 21
198.472463
 31
0.0
  0
LINE
  5
C7
100
AcDbEntity
  8
0
 62
     7
100
AcDbLine
 10
445.882548
 20
198.472463
 30
0.0
 11
445.461509
 21
196.793994
 31
0.0
  0
LINE
  5
C8
100
AcDbEntity
  8
0
 62
     7
100
AcDbLine
 10
445.461509
 20
196.793994
 30
0.0
 11
445.321174
 21
194.199139
 31
0.0
  0
LINE
  5
C9
100
AcDbEntity
  8
0
 62
     7
100
AcDbLine
 10
445.321174
 20
194.199139
 30
0.0
 11
445.321174
 21
161.259149
 31
0.0
  0
LINE
  5
CA
100
AcDbEntity
  8
0
 62
     7
100
AcDbLine
 10
445.321174
 20
161.259149
 30
0.0
 11
445.460483
 21
158.66292
 31
0.0
  0
LINE
  5
CB
100
AcDbEntity
  8
0
 62
     7
100
AcDbLine
 10
445.460483
 20
158.66292
 30
0.0
 11
445.878444
 21
157.001672
 31
0.0
  0
LINE
  5
CC
100
AcDbEntity
  8
0
 62
     7
100
AcDbLine
 10
445.878444
 20
157.001672
 30
0.0
 11
446.200004
 21
156.479384
 31
0.0
  0
LINE
  5
CD
100
AcDbEntity
  8
0
 62
     7
100
AcDbLine
 10
446.200004
 20
156.479384
 30
0.0
 11
446.607437
 21
156.106324
 31
0.0
  0
LINE
  5
CE
100
AcDbEntity
  8
0
 62
     7
100
AcDbLine
 10
446.607437
 20
156.106324
 30
0.0
 11
447.100743
 21
155.882492
 31
0.0
  0
LINE
  5
CF
100
AcDbEntity
  8
0
 62
     7
100
AcDbLine
 10
447.100743
 20
155.882492
 30
0.0
 11
447.679922
 21
155.807889
 31
0.0
  0
LINE
  5
D0
100
AcDbEntity
  8
0
 62
     7
100
AcDbLine
 10
447.679922
 20
155.807889
 30
0.0
 11
448.244261
 21
155.88307
 31
0.0
  0
LINE
  5
D1
100
AcDbEntity
  8
0
 62
     7
100
AcDbLine
 10
448.244261
 20
155.88307
 30
0.0
 11
448.72756
 21
156.108634
 31
0.0
  0
LINE
  5
D2
100
AcDbEntity
  8
0
 62
     7
100
AcDbLine
 10
448.72756
 20
156.108634
 30
0.0
 11
449.129818
 21
156.484582
 31
0.0
  0
LINE
  5
D3
100
AcDbEntity
  8
0
 62
     7
100
AcDbLine
 10
449.129818
 20
156.484582
 30
0.0
 11
449.451036
 21
157.010914
 31
0.0
  0
LINE
  5
D4
100
AcDbEntity
  8
0
 62
     7
100
AcDbLine
 10
449.451036
 20
157.010914
 30
0.0
 11
449.872051
 21
158.674477
 31
0.0
  0
LINE
  5
D5
100
AcDbEntity
  8
0
 62
     7
100
AcDbLine
 10
449.872051
 20
158.674477
 30
0.0
 11
450.012407
 21
161.259149
 31
0.0
  0
LINE
  5
D6
100
AcDbEntity
  8
0
 62
     7
100
AcDbLine
 10
450.012407
 20
161.259149
 30
0.0
 11
450.012407
 21
171.427441
 31
0.0
  0
LINE
  5
D7
100
AcDbEntity
  8
0
 62
     7
100
AcDbLine
 10
450.012407
 20
171.427441
 30
0.0
 11
460.822924
 21
171.427441
 31
0.0
  0
LINE
  5
D8
100
AcDbEntity
  8
0
 62
     7
100
AcDbLine
 10
460.822924
 20
171.427441
 30
0.0
 11
460.822924
 21
163.786695
 31
0.0
  0
LINE
  5
D9
100
AcDbEntity
  8
0
 62
     7
100
AcDbLine
 10
471.38988
 20
212.570737
 30
0.0
 11
482.098627
 21
212.570737
 31
0.0
  0
LINE
  5
DA
100
AcDbEntity
  8
0
 62
     7
100
AcDbLine
 10
482.098627
 20
212.570737
 30
0.0
 11
482.098627
 21
187.461654
 31
0.0
  0
LINE
  5
DB
100
AcDbEntity
  8
0
 62
     7
100
AcDbLine
 10
482.098627
 20
187.461654
 30
0.0
 11
486.530512
 21
187.461654
 31
0.0
  0
LINE
  5
DC
100
AcDbEntity
  8
0
 62
     7
100
AcDbLine
 10
486.530512
 20
187.461654
 30
0.0
 11
486.530512
 21
212.570737
 31
0.0
  0
LINE
  5
DD
100
AcDbEntity
  8
0
 62
     7
100
AcDbLine
 10
486.530512
 20
212.570737
 30
0.0
 11
497.239257
 21
212.570737
 31
0.0
  0
LINE
  5
DE
100
AcDbEntity
  8
0
 62
     7
100
AcDbLine
 10
497.239257
 20
212.570737
 30
0.0
 11
497.239257
 21
142.929809
 31
0.0
  0
LINE
  5
DF
100
AcDbEntity
  8
0
 62
     7
100
AcDbLine
 10
497.239257
 20
142.929809
 30
0.0
 11
486.530512
 21
142.929809
 31
0.0
  0
LINE
  5
E0
100
AcDbEntity
  8
0
 62
     7
100
AcDbLine
 10
486.530512
 20
142.929809
 30
0.0
 11
486.530512
 21
172.555201
 31
0.0
  0
LINE
  5
E1
100
AcDbEntity
  8
0
 62
     7
100
AcDbLine
 10
486.530512
 20
172.555201
 30
0.0
 11
482.098627
 21
172.555201
 31
0.0
  0
LINE
  5
E2
100
AcDbEntity
  8
0
 62
     7
100
AcDbLine
 10
482.098627
 20
172.555201
 30
0.0
 11
482.098627
 21
142.929809
 31
0.0
  0
LINE
  5
E3
100
AcDbEntity
  8
0
 62
     7
100
AcDbLine
 10
482.098627
 20
142.929809
 30
0.0
 11
471.38988
 21
142.929809
 31
0.0
  0
LINE
  5
E4
100
AcDbEntity
  8
0
 62
     7
100
AcDbLine
 10
303.871519
 20
99.099953
 30
0.0
 11
293.808948
 21
99.099953
 31
0.0
  0
LINE
  5
E5
100
AcDbEntity
  8
0
 62
     7
100
AcDbLine
 10
293.808948
 20
99.099953
 30
0.0
 11
293.808948
 21
121.418908
 31
0.0
  0
LINE
  5
E6
100
AcDbEntity
  8
0
 62
     7
100
AcDbLine
 10
293.808948
 20
121.418908
 30
0.0
 11
331.188376
 21
121.418908
 31
0.0
  0
LINE
  5
E7
100
AcDbEntity
  8
0
 62
     7
100
AcDbLine
 10
331.188376
 20
121.418908
 30
0.0
 11
331.188376
 21
99.099953
 31
0.0
  0
LINE
  5
E8
100
AcDbEntity
  8
0
 62
     7
100
AcDbLine
 10
331.188376
 20
99.099953
 30
0.0
 11
321.125805
 21
99.099953
 31
0.0
  0
LINE
  5
E9
100
AcDbEntity
  8
0
 62
     7
100
AcDbLine
 10
344.905446
 20
16.571916
 30
0.0
 11
272.323513
 21
16.571916
 31
0.0
  0
LINE
  5
EA
100
AcDbEntity
  8
0
 62
     7
100
AcDbLine
 10
344.905446
 20
121.418908
 30
0.0
 11
381.285511
 21
121.418908
 31
0.0
  0
LINE
  5
EB
100
AcDbEntity
  8
0
 62
     7
100
AcDbLine
 10
381.285511
 20
121.418908
 30
0.0
 11
381.285511
 21
99.099953
 31
0.0
  0
LINE
  5
EC
100
AcDbEntity
  8
0
 62
     7
100
AcDbLine
 10
381.285511
 20
99.099953
 30
0.0
 11
362.199496
 21
99.099953
 31
0.0
  0
LINE
  5
ED
100
AcDbEntity
  8
0
 62
     7
100
AcDbLine
 10
362.199496
 20
99.099953
 30
0.0
 11
362.199496
 21
81.306025
 31
0.0
  0
LINE
  5
EE
100
AcDbEntity
  8
0
 62
     7
100
AcDbLine
 10
362.199496
 20
81.306025
 30
0.0
 11
379.040252
 21
81.306025
 31
0.0
  0
LINE
  5
EF
100
AcDbEntity
  8
0
 62
     7
100
AcDbLine
 10
379.040252
 20
81.306025
 30
0.0
 11
379.040252
 21
59.237577
 31
0.0
  0
LINE
  5
F0
100
AcDbEntity
  8
0
 62
     7
100
AcDbLine
 10
379.040252
 20
59.237577
 30
0.0
 11
362.199496
 21
59.237577
 31
0.0
  0
LINE
  5
F1
100
AcDbEntity
  8
0
 62
     7
100
AcDbLine
 10
362.199496
 20
59.237577
 30
0.0
 11
362.199496
 21
38.89087
 31
0.0
  0
LINE
  5
F2
100
AcDbEntity
  8
0
 62
     7
100
AcDbLine
 10
362.199496
 20
38.89087
 30
0.0
 11
381.868695
 21
38.89087
 31
0.0
  0
LINE
  5
F3
100
AcDbEntity
  8
0
 62
     7
100
AcDbLine
 10
381.868695
 20
38.89087
 30
0.0
 11
381.868695
 21
16.771916
 31
0.0
  0
LINE
  5
F4
100
AcDbEntity
  8
0
 62
     7
100
AcDbLine
 10
439.348406
 20
47.972731
 30
0.0
 11
439.2652
 21
44.029729
 31
0.0
  0
LINE
  5
F5
100
AcDbEntity
  8
0
 62
     7
100
AcDbLine
 10
439.2652
 20
44.029729
 30
0.0
 11
439.015617
 21
40.334254
 31
0.0
  0
LINE
  5
F6
100
AcDbEntity
  8
0
 62
     7
100
AcDbLine
 10
439.015617
 20
40.334254
 30
0.0
 11
438.599658
 21
36.886306
 31
0.0
  0
LINE
  5
F7
100
AcDbEntity
  8
0
 62
     7
100
AcDbLine
 10
438.599658
 20
36.886306
 30
0.0
 11
438.017321
 21
33.685885
 31
0.0
  0
LINE
  5
F8
100
AcDbEntity
  8
0
 62
     7
100
AcDbLine
 10
438.017321
 20
33.685885
 30
0.0
 11
437.268608
 21
30.73299
 31
0.0
  0
LINE
  5
F9
100
AcDbEntity
  8
0
 62
     7
100
AcDbLine
 10
437.268608
 20
30.73299
 30
0.0
 11
436.353517
 21
28.02762
 31
0.0
  0
LINE
  5
FA
100
AcDbEntity
  8
0
 62
     7
100
AcDbLine
 10
436.353517
 20
28.02762
 30
0.0
 11
435.272048
 21
25.569775
 31
0.0
  0
LINE
  5
FB
100
AcDbEntity
  8
0
 62
     7
100
AcDbLine
 10
435.272048
 20
25.569775
 30
0.0
 11
434.024202
 21
23.359456
 31
0.0
  0
LINE
  5
FC
100
AcDbEntity
  8
0
 62
     7
100
AcDbLine
 10
434.024202
 20
23.359456
 30
0.0
 11
432.611068
 21
21.403304
 31
0.0
  0
LINE
  5
FD
100
AcDbEntity
  8
0
 62
     7
100
AcDbLine
 10
432.611068
 20
21.403304
 30
0.0
 11
431.033793
 21
19.707972
 31
0.0
  0
LINE
  5
FE
100
AcDbEntity
  8
0
 62
     7
100
AcDbLine
 10
431.033793
 20
19.707972
 30
0.0
 11
429.292376
 21
18.273461
 31
0.0
  0
LINE
  5
FF
100
AcDbEntity
  8
0
 62
     7
100
AcDbLine
 10
429.292376
 20
18.273461
 30
0.0
 11
427.386818
 21
17.09977
 31
0.0
  0
LINE
  5
100
100
AcDbEntity
  8
0
 62
     7
100
AcDbLine
 10
425.317118
 20
16.186899
 30
0.0
 11
423.083277
 21
15.534848
 31
0.0
  0
LINE
  5
101
100
AcDbEntity
  8
0
 62
     7
100
AcDbLine
 10
423.083277
 20
15.534848
 30
0.0
 11
420.685293
 21
15.143618
 31
0.0
  0
LINE
  5
102
100
AcDbEntity
  8
0
 62
     7
100
AcDbLine
 10
420.685293
 20
15.143618
 30
0.0
 11
418.123167
 21
15.013208
 31
0.0
  0
LINE
  5
103
100
AcDbEntity
  8
0
 62
     7
100
AcDbLine
 10
418.123167
 20
15.013208
 30
0.0
 11
415.57691
 21
15.143929
 31
0.0
  0
LINE
  5
104
100
AcDbEntity
  8
0
 62
     7
100
AcDbLine
 10
415.57691
 20
15.143929
 30
0.0
 11
413.190782
 21
15.53609
 31
0.0
  0
LINE
  5
105
100
AcDbEntity
  8
0
 62
     7
100
AcDbLine
 10
413.190782
 20
15.53609
 30
0.0
 11
410.964782
 21
16.189694
 31
0.0
  0
LINE
  5
106
100
AcDbEntity
  8
0
 62
     7
100
AcDbLine
 10
408.898912
 20
17.104738
 30
0.0
 11
406.993169
 21
18.281225
 31
0.0
  0
LINE
  5
107
100
AcDbEntity
  8
0
 62
     7
100
AcDbLine
 10
406.993169
 20
18.281225
 30
0.0
 11
405.247556
 21
19.719153
 31
0.0
  0
LINE
  5
108
100
AcDbEntity
  8
0
 62
     7
100
AcDbLine
 10
405.247556
 20
19.719153
 30
0.0
 11
403.66207
 21
21.418523
 31
0.0
  0
LINE
  5
109
100
AcDbEntity
  8
0
 62
     7
100
AcDbLine
 10
403.66207
 20
21.418523
 30
0.0
 11
402.236712
 21
23.379336
 31
0.0
  0
LINE
  5
10A
100
AcDbEntity
  8
0
 62
     7
100
AcDbLine
 10
402.236712
 20
23.379336
 30
0.0
 11
400.975492
 21
25.593693
 31
0.0
  0
LINE
  5
10B
100
AcDbEntity
  8
0
 62
     7
100
AcDbLine
 10
400.975492
 20
25.593693
 30
0.0
 11
399.882435
 21
28.053712
 31
0.0
  0
LINE
  5
10C
100
AcDbEntity
  8
0
 62
     7
100
AcDbLine
 10
399.882435
 20
28.053712
 30
0.0
 11
398.957541
 21
30.759393
 31
0.0
  0
LINE
  5
10D
100
AcDbEntity
  8
0
 62
     7
100
AcDbLine
 10
398.957541
 20
30.759393
 30
0.0
 11
398.20081
 21
33.710736
 31
0.0
  0
LINE
  5
10E
100
AcDbEntity
  8
0
 62
     7
100
AcDbLine
 10
398.20081
 20
33.710736
 30
0.0
 11
397.612242
 21
36.90774
 31
0.0
  0
LINE
  5
10F
100
AcDbEntity
  8
0
 62
     7
100
AcDbLine
 10
397.612242
 20
36.90774
 30
0.0
 11
397.191837
 21
40.350408
 31
0.0
  0
LINE
  5
110
100
AcDbEntity
  8
0
 62
     7
100
AcDbLine
 10
397.191837
 20
40.350408
 30
0.0
 11
396.939595
 21
44.038738
 31
0.0
  0
LINE
  5
111
100
AcDbEntity
  8
0
 62
     7
100
AcDbLine
 10
396.939595
 20
44.038738
 30
0.0
 11
396.855516
 21
47.972731
 31
0.0
  0
LINE
  5
112
100
AcDbEntity
  8
0
 62
     7
100
AcDbLine
 10
396.855516
 20
47.972731
 30
0.0
 11
396.855516
 21
90.014113
 31
0.0
  0
LINE
  5
113
100
AcDbEntity
  8
0
 62
     7
100
AcDbLine
 10
396.855516
 20
90.014113
 30
0.0
 11
396.939491
 21
93.939002
 31
0.0
  0
LINE
  5
114
100
AcDbEntity
  8
0
 62
     7
100
AcDbLine
 10
396.939491
 20
93.939002
 30
0.0
 11
397.191423
 21
97.617988
 31
0.0
  0
LINE
  5
115
100
AcDbEntity
  8
0
 62
     7
100
AcDbLine
 10
397.191423
 20
97.617988
 30
0.0
 11
397.61131
 21
101.051073
 31
0.0
  0
LINE
  5
116
100
AcDbEntity
  8
0
 62
     7
100
AcDbLine
 10
397.61131
 20
101.051073
 30
0.0
 11
398.199153
 21
104.238256
 31
0.0
  0
LINE
  5
117
100
AcDbEntity
  8
0
 62
     7
100
AcDbLine
 10
398.199153
 20
104.238256
 30
0.0
 11
398.954952
 21
107.179539
 31
0.0
  0
LINE
  5
118
100
AcDbEntity
  8
0
 62
     7
100
AcDbLine
 10
398.954952
 20
107.179539
 30
0.0
 11
399.878707
 21
109.874921
 31
0.0
  0
LINE
  5
119
100
AcDbEntity
  8
0
 62
     7
100
AcDbLine
 10
399.878707
 20
109.874921
 30
0.0
 11
400.970418
 21
112.324402
 31
0.0
  0
LINE
  5
11A
100
AcDbEntity
  8
0
 62
     7
100
AcDbLine
 10
400.970418
 20
112.324402
 30
0.0
 11
402.230085
 21
114.527984
 31
0.0
  0
LINE
  5
11B
100
AcDbEntity
  8
0
 62
     7
100
AcDbLine
 10
402.230085
 20
114.527984
 30
0.0
 11
403.654097
 21
116.478509
 31
0.0
  0
LINE
  5
11C
100
AcDbEntity
  8
0
 62
     7
100
AcDbLine
 10
403.654097
 20
116.478509
 30
0.0
 11
405.238857
 21
118.16897
 31
0.0
  0
LINE
  5
11D
100
AcDbEntity
  8
0
 62
     7
100
AcDbLine
 10
405.238857
 20
118.16897
 30
0.0
 11
406.984367
 21
119.599366
 31
0.0
  0
LINE
  5
11E
100
AcDbEntity
  8
0
 62
     7
100
AcDbLine
 10
406.984367
 20
119.599366
 30
0.0
 11
408.890627
 21
120.769696
 31
0.0
  0
LINE
  5
11F
100
AcDbEntity
  8
0
 62
     7
100
AcDbLine
 10
408.890627
 20
120.769696
 30
0.0
 11
410.957637
 21
121.679962
 31
0.0
  0
LINE
  5
120
100
AcDbEntity
  8
0
 62
     7
100
AcDbLine
 10
410.957637
 20
121.679962
 30
0.0
 11
413.185397
 21
122.330164
 31
0.0
  0
LINE
  5
121
100
AcDbEntity
  8
0
 62
     7
100
AcDbLine
 10
413.185397
 20
122.330164
 30
0.0
 11
415.573907
 21
122.7203
 31
0.0
  0
LINE
  5
122
100
AcDbEntity
  8
0
 62
     7
100
AcDbLine
 10
415.573907
 20
122.7203
 30
0.0
 11
418.123167
 21
122.850373
 31
0.0
  0
LINE
  5
123
100
AcDbEntity
  8
0
 62
     7
100
AcDbLine
 10
418.123167
 20
122.850373
 30
0.0
 11
420.691298
 21
122.721232
 31
0.0
  0
LINE
  5
124
100
AcDbEntity
  8
0
 62
     7
100
AcDbLine
 10
420.691298
 20
122.721232
 30
0.0
 11
423.094045
 21
122.333891
 31
0.0
  0
LINE
  5
125
100
AcDbEntity
  8
0
 62
     7
100
AcDbLine
 10
423.094045
 20
122.333891
 30
0.0
 11
425.331407
 21
121.68835
 31
0.0
  0
LINE
  5
126
100
AcDbEntity
  8
0
 62
     7
100
AcDbLine
 10
425.331407
 20
121.68835
 30
0.0
 11
427.403385
 21
120.784608
 31
0.0
  0
LINE
  5
127
100
AcDbEntity
  8
0
 62
     7
100
AcDbLine
 10
427.403385
 20
120.784608
 30
0.0
 11
429.309978
 21
119.622665
 31
0.0
  0
LINE
  5
128
100
AcDbEntity
  8
0
 62
     7
100
AcDbLine
 10
429.309978
 20
119.622665
 30
0.0
 11
431.051188
 21
118.202521
 31
0.0
  0
LINE
  5
129
100
AcDbEntity
  8
0
 62
     7
100
AcDbLine
 10
431.051188
 20
118.202521
 30
0.0
 11
432.627013
 21
116.524175
 31
0.0
  0
LINE
  5
12A
100
AcDbEntity
  8
0
 62
     7
100
AcDbLine
 10
432.627013
 20
116.524175
 30
0.0
 11
434.037455
 21
114.587628
 31
0.0
  0
LINE
  5
12B
100
AcDbEntity
  8
0
 62
     7
100
AcDbLine
 10
434.037455
 20
114.587628
 30
0.0
 11
435.282195
 21
112.396162
 31
0.0
  0
LINE
  5
12C
100
AcDbEntity
  8
0
 62
     7
100
AcDbLine
 10
435.282195
 20
112.396162
 30
0.0
 11
436.360971
 21
109.953204
 31
0.0
  0
LINE
  5
12D
100
AcDbEntity
  8
0
 62
     7
100
AcDbLine
 10
436.360971
 20
109.953204
 30
0.0
 11
437.273784
 21
107.258754
 31
0.0
  0
LINE
  5
12E
100
AcDbEntity
  8
0
 62
     7
100
AcDbLine
 10
437.273784
 20
107.258754
 30
0.0
 11
438.020634
 21
104.312811
 31
0.0
  0
LINE
  5
12F
100
AcDbEntity
  8
0
 62
     7
100
AcDbLine
 10
438.020634
 20
104.312811
 30
0.0
 11
438.601521
 21
101.115376
 31
0.0
  0
LINE
  5
130
100
AcDbEntity
  8
0
 62
     7
100
AcDbLine
 10
438.601521
 20
101.115376
 30
0.0
 11
439.016446
 21
97.666449
 31
0.0
  0
LINE
  5
131
100
AcDbEntity
  8
0
 62
     7
100
AcDbLine
 10
439.016446
 20
97.666449
 30
0.0
 11
439.265407
 21
93.966028
 31
0.0
  0
LINE
  5
132
100
AcDbEntity
  8
0
 62
     7
100
AcDbLine
 10
439.265407
 20
93.966028
 30
0.0
 11
439.348406
 21
90.014113
 31
0.0
  0
LINE
  5
133
100
AcDbEntity
  8
0
 62
     7
100
AcDbLine
 10
439.348406
 20
90.014113
 30
0.0
 11
439.348406
 21
80.820919
 31
0.0
  0
LINE
  5
134
100
AcDbEntity
  8
0
 62
     7
100
AcDbLine
 10
439.348406
 20
80.820919
 30
0.0
 11
421.890004
 21
80.820919
 31
0.0
  0
LINE
  5
135
100
AcDbEntity
  8
0
 62
     7
100
AcDbLine
 10
421.890004
 20
80.820919
 30
0.0
 11
421.890004
 21
93.759787
 31
0.0
  0
LINE
  5
136
100
AcDbEntity
  8
0
 62
     7
100
AcDbLine
 10
421.890004
 20
93.759787
 30
0.0
 11
421.65704
 21
97.646556
 31
0.0
  0
LINE
  5
137
100
AcDbEntity
  8
0
 62
     7
100
AcDbLine
 10
421.65704
 20
97.646556
 30
0.0
 11
421.365868
 21
99.081518
 31
0.0
  0
LINE
  5
138
100
AcDbEntity
  8
0
 62
     7
100
AcDbLine
 10
421.365868
 20
99.081518
 30
0.0
 11
420.958236
 21
100.177531
 31
0.0
  0
LINE
  5
139
100
AcDbEntity
  8
0
 62
     7
100
AcDbLine
 10
420.958236
 20
100.177531
 30
0.0
 11
420.426314
 21
100.98815
 31
0.0
  0
LINE
  5
13A
100
AcDbEntity
  8
0
 62
     7
100
AcDbLine
 10
420.426314
 20
100.98815
 30
0.0
 11
419.762357
 21
101.567182
 31
0.0
  0
LINE
  5
13B
100
AcDbEntity
  8
0
 62
     7
100
AcDbLine
 10
419.762357
 20
101.567182
 30
0.0
 11
418.966366
 21
101.914626
 31
0.0
  0
LINE
  5
13C
100
AcDbEntity
  8
0
 62
     7
100
AcDbLine
 10
418.966366
 20
101.914626
 30
0.0
 11
418.03834
 21
102.030484
 31
0.0
  0
LINE
  5
13D
100
AcDbEntity
  8
0
 62
     7
100
AcDbLine
 10
418.03834
 20
102.030484
 30
0.0
 11
417.145493
 21
101.91562
 31
0.0
  0
LINE
  5
13E
100
AcDbEntity
  8
0
 62
     7
100
AcDbLine
 10
417.145493
 20
101.91562
 30
0.0
 11
416.378238
 21
101.571157
 31
0.0
  0
LINE
  5
13F
100
AcDbEntity
  8
0
 62
     7
100
AcDbLine
 10
416.378238
 20
101.571157
 30
0.0
 11
415.736575
 21
100.997095
 31
0.0
  0
LINE
  5
140
100
AcDbEntity
  8
0
 62
     7
100
AcDbLine
 10
415.736575
 20
100.997095
 30
0.0
 11
415.220503
 21
100.193434
 31
0.0
  0
LINE
  5
141
100
AcDbEntity
  8
0
 62
     7
100
AcDbLine
 10
415.220503
 20
100.193434
 30
0.0
 11
414.82386
 21
99.102393
 31
0.0
  0
LINE
  5
142
100
AcDbEntity
  8
0
 62
     7
100
AcDbLine
 10
414.82386
 20
99.102393
 30
0.0
 11
414.540548
 21
97.666438
 31
0.0
  0
LINE
  5
143
100
AcDbEntity
  8
0
 62
     7
100
AcDbLine
 10
414.540548
 20
97.666438
 30
0.0
 11
414.313918
 21
93.759787
 31
0.0
  0
LINE
  5
144
100
AcDbEntity
  8
0
 62
     7
100
AcDbLine
 10
414.313918
 20
93.759787
 30
0.0
 11
414.313918
 21
44.167415
 31
0.0
  0
LINE
  5
145
100
AcDbEntity
  8
0
 62
     7
100
AcDbLine
 10
414.313918
 20
44.167415
 30
0.0
 11
414.538892
 21
40.258697
 31
0.0
  0
LINE
  5
146
100
AcDbEntity
  8
0
 62
     7
100
AcDbLine
 10
414.538892
 20
40.258697
 30
0.0
 11
414.820133
 21
38.832205
 31
0.0
  0
LINE
  5
147
100
AcDbEntity
  8
0
 62
     7
100
AcDbLine
 10
414.820133
 20
38.832205
 30
0.0
 11
415.213877
 21
37.757624
 31
0.0
  0
LINE
  5
148
100
AcDbEntity
  8
0
 62
     7
100
AcDbLine
 10
415.213877
 20
37.757624
 30
0.0
 11
415.733179
 21
36.971301
 31
0.0
  0
LINE
  5
149
100
AcDbEntity
  8
0
 62
     7
100
AcDbLine
 10
415.733179
 20
36.971301
 30
0.0
 11
416.391161
 21
36.409646
 31
0.0
  0
LINE
  5
14A
100
AcDbEntity
  8
0
 62
     7
100
AcDbLine
 10
416.391161
 20
36.409646
 30
0.0
 11
417.187824
 21
36.072658
 31
0.0
  0
LINE
  5
14B
100
AcDbEntity
  8
0
 62
     7
100
AcDbLine
 10
417.187824
 20
36.072658
 30
0.0
 11
418.123167
 21
35.960337
 31
0.0
  0
LINE
  5
14C
100
AcDbEntity
  8
0
 62
     7
100
AcDbLine
 10
418.123167
 20
35.960337
 30
0.0
 11
419.034542
 21
36.073527
 31
0.0
  0
LINE
  5
14D
100
AcDbEntity
  8
0
 62
     7
100
AcDbLine
 10
419.034542
 20
36.073527
 30
0.0
 11
419.815043
 21
36.413124
 31
0.0
  0
LINE
  5
14E
100
AcDbEntity
  8
0
 62
     7
100
AcDbLine
 10
419.815043
 20
36.413124
 30
0.0
 11
420.464669
 21
36.979128
 31
0.0
  0
LINE
  5
14F
100
AcDbEntity
  8
0
 62
     7
100
AcDbLine
 10
420.464669
 20
36.979128
 30
0.0
 11
420.983419
 21
37.77154
 31
0.0
  0
LINE
  5
150
100
AcDbEntity
  8
0
 62
     7
100
AcDbLine
 10
420.983419
 20
37.77154
 30
0.0
 11
421.380034
 21
38.850471
 31
0.0
  0
LINE
  5
151
100
AcDbEntity
  8
0
 62
     7
100
AcDbLine
 10
421.380034
 20
38.850471
 30
0.0
 11
421.663337
 21
40.276094
 31
0.0
  0
LINE
  5
152
100
AcDbEntity
  8
0
 62
     7
100
AcDbLine
 10
421.663337
 20
40.276094
 30
0.0
 11
421.890004
 21
44.167415
 31
0.0
  0
LINE
  5
153
100
AcDbEntity
  8
0
 62
     7
100
AcDbLine
 10
421.890004
 20
44.167415
 30
0.0
 11
421.890004
 21
59.476156
 31
0.0
  0
LINE
  5
154
100
AcDbEntity
  8
0
 62
     7
100
AcDbLine
 10
421.890004
 20
59.476156
 30
0.0
 11
439.348406
 21
59.476156
 31
0.0
  0
LINE
  5
155
100
AcDbEntity
  8
0
 62
     7
100
AcDbLine
 10
439.348406
 20
59.476156
 30
0.0
 11
439.348406
 21
47.972731
 31
0.0
  0
LINE
  5
156
100
AcDbEntity
  8
0
 62
     7
100
AcDbLine
 10
456.413478
 20
121.418908
 30
0.0
 11
473.707528
 21
121.418908
 31
0.0
  0
LINE
  5
157
100
AcDbEntity
  8
0
 62
     7
100
AcDbLine
 10
473.707528
 20
121.418908
 30
0.0
 11
473.707528
 21
83.616257
 31
0.0
  0
LINE
  5
158
100
AcDbEntity
  8
0
 62
     7
100
AcDbLine
 10
473.707528
 20
83.616257
 30
0.0
 11
480.864782
 21
83.616257
 31
0.0
  0
LINE
  5
159
100
AcDbEntity
  8
0
 62
     7
100
AcDbLine
 10
480.864782
 20
83.616257
 30
0.0
 11
480.864782
 21
121.418908
 31
0.0
  0
LINE
  5
15A
100
AcDbEntity
  8
0
 62
     7
100
AcDbLine
 10
480.864782
 20
121.418908
 30
0.0
 11
498.158832
 21
121.418908
 31
0.0
  0
LINE
  5
15B
100
AcDbEntity
  8
0
 62
     7
100
AcDbLine
 10
498.158832
 20
121.418908
 30
0.0
 11
498.158832
 21
16.571916
 31
0.0
  0
LINE
  5
15C
100
AcDbEntity
  8
0
 62
     7
100
AcDbLine
 10
498.158832
 20
16.571916
 30
0.0
 11
480.864782
 21
16.571916
 31
0.0
  0
LINE
  5
15D
100
AcDbEntity
  8
0
 62
     7
100
AcDbLine
 10
480.864782
 20
16.571916
 30
0.0
 11
480.864782
 21
61.174036
 31
0.0
  0
LINE
  5
15E
100
AcDbEntity
  8
0
 62
     7
100
AcDbLine
 10
480.864782
 20
61.174036
 30
0.0
 11
473.707528
 21
61.174036
 31
0.0
  0
LINE
  5
15F
100
AcDbEntity
  8
0
 62
     7
100
AcDbLine
 10
473.707528
 20
61.174036
 30
0.0
 11
473.707528
 21
16.571916
 31
0.0
  0
LINE
  5
160
100
AcDbEntity
  8
0
 62
     7
100
AcDbLine
 10
473.707528
 20
16.571916
 30
0.0
 11
456.413478
 21
16.571916
 31
0.0
  0
LINE
  5
161
100
AcDbEntity
  8
0
 62
     7
100
AcDbLine
 10
295.237853
 20
-5.079005
 30
0.0
 11
307.534545
 21
-5.079005
 31
0.0
  0
LINE
  5
162
100
AcDbEntity
  8
0
 62
     7
100
AcDbLine
 10
319.862567
 20
-74.719935
 30
0.0
 11
295.237853
 21
-74.719935
 31
0.0
  0
LINE
  5
163
100
AcDbEntity
  8
0
 62
     7
100
AcDbLine
 10
319.862567
 20
-5.079005
 30
0.0
 11
333.331628
 21
-5.079005
 31
0.0
  0
LINE
  5
164
100
AcDbEntity
  8
0
 62
     7
100
AcDbLine
 10
333.331628
 20
-5.079005
 30
0.0
 11
339.086041
 21
-33.000875
 31
0.0
  0
LINE
  5
165
100
AcDbEntity
  8
0
 62
     7
100
AcDbLine
 10
340.471399
 20
-33.000875
 30
0.0
 11
340.471399
 21
-5.079005
 31
0.0
  0
LINE
  5
166
100
AcDbEntity
  8
0
 62
     7
100
AcDbLine
 10
340.471399
 20
-5.079005
 30
0.0
 11
352.442013
 21
-5.079005
 31
0.0
  0
LINE
  5
167
100
AcDbEntity
  8
0
 62
     7
100
AcDbLine
 10
339.40835
 20
-74.719935
 30
0.0
 11
332.981046
 21
-44.914945
 31
0.0
  0
LINE
  5
168
100
AcDbEntity
  8
0
 62
     7
100
AcDbLine
 10
331.863339
 20
-51.832026
 30
0.0
 11
331.863339
 21
-74.719935
 31
0.0
  0
LINE
  5
169
100
AcDbEntity
  8
0
 62
     7
100
AcDbLine
 10
331.863339
 20
-74.719935
 30
0.0
 11
319.862567
 21
-74.719935
 31
0.0
  0
LINE
  5
16A
100
AcDbEntity
  8
0
 62
     7
100
AcDbLine
 10
363.786147
 20
-49.536896
 30
0.0
 11
375.964095
 21
-49.536896
 31
0.0
  0
LINE
  5
16B
100
AcDbEntity
  8
0
 62
     7
100
AcDbLine
 10
375.964095
 20
-49.536896
 30
0.0
 11
375.964095
 21
-55.894059
 31
0.0
  0
LINE
  5
16C
100
AcDbEntity
  8
0
 62
     7
100
AcDbLine
 10
375.964095
 20
-55.894059
 30
0.0
 11
376.142437
 21
-58.641493
 31
0.0
  0
LINE
  5
16D
100
AcDbEntity
  8
0
 62
     7
100
AcDbLine
 10
376.142437
 20
-58.641493
 30
0.0
 11
376.365381
 21
-59.671029
 31
0.0
  0
LINE
  5
16E
100
AcDbEntity
  8
0
 62
     7
100
AcDbLine
 10
376.365381
 20
-59.671029
 30
0.0
 11
376.677507
 21
-60.471113
 31
0.0
  0
LINE
  5
16F
100
AcDbEntity
  8
0
 62
     7
100
AcDbLine
 10
376.677507
 20
-60.471113
 30
0.0
 11
377.080794
 21
-61.07082
 31
0.0
  0
LINE
  5
170
100
AcDbEntity
  8
0
 62
     7
100
AcDbLine
 10
377.080794
 20
-61.07082
 30
0.0
 11
377.577269
 21
-61.499179
 31
0.0
  0
LINE
  5
171
100
AcDbEntity
  8
0
 62
     7
100
AcDbLine
 10
377.577269
 20
-61.499179
 30
0.0
 11
378.166932
 21
-61.756189
 31
0.0
  0
LINE
  5
172
100
AcDbEntity
  8
0
 62
     7
100
AcDbLine
 10
378.166932
 20
-61.756189
 30
0.0
 11
378.849783
 21
-61.841852
 31
0.0
  0
LINE
  5
173
100
AcDbEntity
  8
0
 62
     7
100
AcDbLine
 10
378.849783
 20
-61.841852
 30
0.0
 11
379.489382
 21
-61.763122
 31
0.0
  0
LINE
  5
174
100
AcDbEntity
  8
0
 62
     7
100
AcDbLine
 10
379.489382
 20
-61.763122
 30
0.0
 11
380.062429
 21
-61.52691
 31
0.0
  0
LINE
  5
175
100
AcDbEntity
  8
0
 62
     7
100
AcDbLine
 10
380.062429
 20
-61.52691
 30
0.0
 11
380.568924
 21
-61.133216
 31
0.0
  0
LINE
  5
176
100
AcDbEntity
  8
0
 62
     7
100
AcDbLine
 10
380.568924
 20
-61.133216
 30
0.0
 11
381.008868
 21
-60.582041
 31
0.0
  0
LINE
  5
177
100
AcDbEntity
  8
0
 62
     7
100
AcDbLine
 10
381.008868
 20
-60.582041
 30
0.0
 11
381.618834
 21
-59.101048
 31
0.0
  0
LINE
  5
178
100
AcDbEntity
  8
0
 62
     7
100
AcDbLine
 10
381.618834
 20
-59.101048
 30
0.0
 11
381.822176
 21
-57.177645
 31
0.0
  0
LINE
  5
179
100
AcDbEntity
  8
0
 62
     7
100
AcDbLine
 10
381.822176
 20
-57.177645
 30
0.0
 11
381.606581
 21
-55.248653
 31
0.0
  0
LINE
  5
17A
100
AcDbEntity
  8
0
 62
     7
100
AcDbLine
 10
381.606581
 20
-55.248653
 30
0.0
 11
380.95986
 21
-53.301805
 31
0.0
  0
LINE
  5
17B
100
AcDbEntity
  8
0
 62
     7
100
AcDbLine
 10
380.95986
 20
-53.301805
 30
0.0
 11
379.866405
 21
-51.336505
 31
0.0
  0
LINE
  5
17C
100
AcDbEntity
  8
0
 62
     7
100
AcDbLine
 10
379.866405
 20
-51.336505
 30
0.0
 11
378.310719
 21
-49.352021
 31
0.0
  0
LINE
  5
17D
100
AcDbEntity
  8
0
 62
     7
100
AcDbLine
 10
378.310719
 20
-49.352021
 30
0.0
 11
375.837809
 21
-46.623747
 31
0.0
  0
LINE
  5
17E
100
AcDbEntity
  8
0
 62
     7
100
AcDbLine
 10
375.837809
 20
-46.623747
 30
0.0
 11
371.238323
 21
-41.374556
 31
0.0
  0
LINE
  5
17F
100
AcDbEntity
  8
0
 62
     7
100
AcDbLine
 10
371.238323
 20
-41.374556
 30
0.0
 11
368.221173
 21
-37.284763
 31
0.0
  0
LINE
  5
180
100
AcDbEntity
  8
0
 62
     7
100
AcDbLine
 10
368.221173
 20
-37.284763
 30
0.0
 11
367.364571
 21
-36.03009
 31
0.0
  0
LINE
  5
181
100
AcDbEntity
  8
0
 62
     7
100
AcDbLine
 10
367.364571
 20
-36.03009
 30
0.0
 11
366.609869
 21
-34.598119
 31
0.0
  0
LINE
  5
182
100
AcDbEntity
  8
0
 62
     7
100
AcDbLine
 10
366.609869
 20
-34.598119
 30
0.0
 11
365.957068
 21
-32.988846
 31
0.0
  0
LINE
  5
183
100
AcDbEntity
  8
0
 62
     7
100
AcDbLine
 10
365.957068
 20
-32.988846
 30
0.0
 11
365.406167
 21
-31.202273
 31
0.0
  0
LINE
  5
184
100
AcDbEntity
  8
0
 62
     7
100
AcDbLine
 10
365.406167
 20
-31.202273
 30
0.0
 11
364.656235
 21
-27.285537
 31
0.0
  0
LINE
  5
185
100
AcDbEntity
  8
0
 62
     7
100
AcDbLine
 10
364.656235
 20
-27.285537
 30
0.0
 11
364.406259
 21
-23.035947
 31
0.0
  0
LINE
  5
186
100
AcDbEntity
  8
0
 62
     7
100
AcDbLine
 10
364.406259
 20
-23.035947
 30
0.0
 11
364.652053
 21
-18.833553
 31
0.0
  0
LINE
  5
187
100
AcDbEntity
  8
0
 62
     7
100
AcDbLine
 10
364.652053
 20
-18.833553
 30
0.0
 11
365.389437
 21
-15.116278
 31
0.0
  0
LINE
  5
188
100
AcDbEntity
  8
0
 62
     7
100
AcDbLine
 10
365.389437
 20
-15.116278
 30
0.0
 11
365.942475
 21
-13.43956
 31
0.0
  0
LINE
  5
189
100
AcDbEntity
  8
0
 62
     7
100
AcDbLine
 10
365.942475
 20
-13.43956
 30
0.0
 11
366.618412
 21
-11.88412
 31
0.0
  0
LINE
  5
18A
100
AcDbEntity
  8
0
 62
     7
100
AcDbLine
 10
366.618412
 20
-11.88412
 30
0.0
 11
367.417246
 21
-10.44996
 31
0.0
  0
LINE
  5
18B
100
AcDbEntity
  8
0
 62
     7
100
AcDbLine
 10
367.417246
 20
-10.44996
 30
0.0
 11
368.338978
 21
-9.137078
 31
0.0
  0
LINE
  5
18C
100
AcDbEntity
  8
0
 62
     7
100
AcDbLine
 10
368.338978
 20
-9.137078
 30
0.0
 11
369.370409
 21
-7.963145
 31
0.0
  0
LINE
  5
18D
100
AcDbEntity
  8
0
 62
     7
100
AcDbLine
 10
369.370409
 20
-7.963145
 30
0.0
 11
370.49835
 21
-6.945734
 31
0.0
  0
LINE
  5
18E
100
AcDbEntity
  8
0
 62
     7
100
AcDbLine
 10
370.49835
 20
-6.945734
 30
0.0
 11
371.722802
 21
-6.084843
 31
0.0
  0
LINE
  5
18F
100
AcDbEntity
  8
0
 62
     7
100
AcDbLine
 10
371.722802
 20
-6.084843
 30
0.0
 11
373.043764
 21
-5.380474
 31
0.0
  0
LINE
  5
190
100
AcDbEntity
  8
0
 62
     7
100
AcDbLine
 10
373.043764
 20
-5.380474
 30
0.0
 11
374.461237
 21
-4.832625
 31
0.0
  0
LINE
  5
191
100
AcDbEntity
  8
0
 62
     7
100
AcDbLine
 10
374.461237
 20
-4.832625
 30
0.0
 11
375.97522
 21
-4.441296
 31
0.0
  0
LINE
  5
192
100
AcDbEntity
  8
0
 62
     7
100
AcDbLine
 10
375.97522
 20
-4.441296
 30
0.0
 11
377.585714
 21
-4.206489
 31
0.0
  0
LINE
  5
193
100
AcDbEntity
  8
0
 62
     7
100
AcDbLine
 10
377.585714
 20
-4.206489
 30
0.0
 11
379.29272
 21
-4.128201
 31
0.0
  0
LINE
  5
194
100
AcDbEntity
  8
0
 62
     7
100
AcDbLine
 10
379.29272
 20
-4.128201
 30
0.0
 11
380.985195
 21
-4.199762
 31
0.0
  0
LINE
  5
195
100
AcDbEntity
  8
0
 62
     7
100
AcDbLine
 10
380.985195
 20
-4.199762
 30
0.0
 11
382.571916
 21
-4.41439
 31
0.0
  0
LINE
  5
196
100
AcDbEntity
  8
0
 62
     7
100
AcDbLine
 10
382.571916
 20
-4.41439
 30
0.0
 11
384.05288
 21
-4.772086
 31
0.0
  0
LINE
  5
197
100
AcDbEntity
  8
0
 62
     7
100
AcDbLine
 10
384.05288
 20
-4.772086
 30
0.0
 11
385.42809
 21
-5.272849
 31
0.0
  0
LINE
  5
198
100
AcDbEntity
  8
0
 62
     7
100
AcDbLine
 10
385.42809
 20
-5.272849
 30
0.0
 11
386.697545
 21
-5.916679
 31
0.0
  0
LINE
  5
199
100
AcDbEntity
  8
0
 62
     7
100
AcDbLine
 10
386.697545
 20
-5.916679
 30
0.0
 11
387.861245
 21
-6.703577
 31
0.0
  0
LINE
  5
19A
100
AcDbEntity
  8
0
 62
     7
100
AcDbLine
 10
387.861245
 20
-6.703577
 30
0.0
 11
388.919191
 21
-7.633543
 31
0.0
  0
LINE
  5
19B
100
AcDbEntity
  8
0
 62
     7
100
AcDbLine
 10
388.919191
 20
-7.633543
 30
0.0
 11
389.871382
 21
-8.706576
 31
0.0
  0
LINE
  5
19C
100
AcDbEntity
  8
0
 62
     7
100
AcDbLine
 10
389.871382
 20
-8.706576
 30
0.0
 11
390.714469
 21
-9.920375
 31
0.0
  0
LINE
  5
19D
100
AcDbEntity
  8
0
 62
     7
100
AcDbLine
 10
390.714469
 20
-9.920375
 30
0.0
 11
391.445146
 21
-11.272538
 31
0.0
  0
LINE
  5
19E
100
AcDbEntity
  8
0
 62
     7
100
AcDbLine
 10
391.445146
 20
-11.272538
 30
0.0
 11
392.063413
 21
-12.763064
 31
0.0
  0
LINE
  5
19F
100
AcDbEntity
  8
0
 62
     7
100
AcDbLine
 10
392.063413
 20
-12.763064
 30
0.0
 11
392.569269
 21
-14.391953
 31
0.0
  0
LINE
  5
1A0
100
AcDbEntity
  8
0
 62
     7
100
AcDbLine
 10
392.569269
 20
-14.391953
 30
0.0
 11
393.243752
 21
-18.064825
 31
0.0
  0
LINE
  5
1A1
100
AcDbEntity
  8
0
 62
     7
100
AcDbLine
 10
393.243752
 20
-18.064825
 30
0.0
 11
393.468595
 21
-22.291154
 31
0.0
  0
LINE
  5
1A2
100
AcDbEntity
  8
0
 62
     7
100
AcDbLine
 10
393.468595
 20
-22.291154
 30
0.0
 11
393.468595
 21
-28.730192
 31
0.0
  0
LINE
  5
1A3
100
AcDbEntity
  8
0
 62
     7
100
AcDbLine
 10
393.468595
 20
-28.730192
 30
0.0
 11
381.763747
 21
-28.730192
 31
0.0
  0
LINE
  5
1A4
100
AcDbEntity
  8
0
 62
     7
100
AcDbLine
 10
381.763747
 20
-28.730192
 30
0.0
 11
381.763747
 21
-23.20234
 31
0.0
  0
LINE
  5
1A5
100
AcDbEntity
  8
0
 62
     7
100
AcDbLine
 10
381.763747
 20
-23.20234
 30
0.0
 11
381.594566
 21
-20.64875
 31
0.0
  0
LINE
  5
1A6
100
AcDbEntity
  8
0
 62
     7
100
AcDbLine
 10
381.594566
 20
-20.64875
 30
0.0
 11
381.087086
 21
-18.962027
 31
0.0
  0
LINE
  5
1A7
100
AcDbEntity
  8
0
 62
     7
100
AcDbLine
 10
381.087086
 20
-18.962027
 30
0.0
 11
380.702687
 21
-18.413779
 31
0.0
  0
LINE
  5
1A8
100
AcDbEntity
  8
0
 62
     7
100
AcDbLine
 10
380.702687
 20
-18.413779
 30
0.0
 11
380.226174
 21
-18.022163
 31
0.0
  0
LINE
  5
1A9
100
AcDbEntity
  8
0
 62
     7
100
AcDbLine
 10
380.226174
 20
-18.022163
 30
0.0
 11
379.657545
 21
-17.787176
 31
0.0
  0
LINE
  5
1AA
100
AcDbEntity
  8
0
 62
     7
100
AcDbLine
 10
379.657545
 20
-17.787176
 30
0.0
 11
378.996801
 21
-17.708819
 31
0.0
  0
LINE
  5
1AB
100
AcDbEntity
  8
0
 62
     7
100
AcDbLine
 10
378.996801
 20
-17.708819
 30
0.0
 11
377.970023
 21
-17.983867
 31
0.0
  0
LINE
  5
1AC
100
AcDbEntity
  8
0
 62
     7
100
AcDbLine
 10
377.970023
 20
-17.983867
 30
0.0
 11
377.151545
 21
-18.808842
 31
0.0
  0
LINE
  5
1AD
100
AcDbEntity
  8
0
 62
     7
100
AcDbLine
 10
377.151545
 20
-18.808842
 30
0.0
 11
376.615768
 21
-20.125809
 31
0.0
  0
LINE
  5
1AE
100
AcDbEntity
  8
0
 62
     7
100
AcDbLine
 10
376.615768
 20
-20.125809
 30
0.0
 11
376.43719
 21
-21.876496
 31
0.0
  0
LINE
  5
1AF
100
AcDbEntity
  8
0
 62
     7
100
AcDbLine
 10
376.43719
 20
-21.876496
 30
0.0
 11
376.546182
 21
-22.810189
 31
0.0
  0
LINE
  5
1B0
100
AcDbEntity
  8
0
 62
     7
100
AcDbLine
 10
376.546182
 20
-22.810189
 30
0.0
 11
376.873168
 21
-23.886579
 31
0.0
  0
LINE
  5
1B1
100
AcDbEntity
  8
0
 62
     7
100
AcDbLine
 10
376.873168
 20
-23.886579
 30
0.0
 11
378.181126
 21
-26.467453
 31
0.0
  0
LINE
  5
1B2
100
AcDbEntity
  8
0
 62
     7
100
AcDbLine
 10
378.181126
 20
-26.467453
 30
0.0
 11
380.361063
 21
-29.619119
 31
0.0
  0
LINE
  5
1B3
100
AcDbEntity
  8
0
 62
     7
100
AcDbLine
 10
380.361063
 20
-29.619119
 30
0.0
 11
383.412978
 21
-33.341579
 31
0.0
  0
LINE
  5
1B4
100
AcDbEntity
  8
0
 62
     7
100
AcDbLine
 10
383.412978
 20
-33.341579
 30
0.0
 11
383.699476
 21
-33.700769
 31
0.0
  0
LINE
  5
1B5
100
AcDbEntity
  8
0
 62
     7
100
AcDbLine
 10
383.699476
 20
-33.700769
 30
0.0
 11
384.526917
 21
-34.654215
 31
0.0
  0
LINE
  5
1B6
100
AcDbEntity
  8
0
 62
     7
100
AcDbLine
 10
384.526917
 20
-34.654215
 30
0.0
 11
387.443692
 21
-38.171041
 31
0.0
  0
LINE
  5
1B7
100
AcDbEntity
  8
0
 62
     7
100
AcDbLine
 10
387.443692
 20
-38.171041
 30
0.0
 11
389.710206
 21
-41.159964
 31
0.0
  0
LINE
  5
1B8
100
AcDbEntity
  8
0
 62
     7
100
AcDbLine
 10
389.710206
 20
-41.159964
 30
0.0
 11
391.32646
 21
-43.620982
 31
0.0
  0
LINE
  5
1B9
100
AcDbEntity
  8
0
 62
     7
100
AcDbLine
 10
391.32646
 20
-43.620982
 30
0.0
 11
392.292457
 21
-45.554097
 31
0.0
  0
LINE
  5
1BA
100
AcDbEntity
  8
0
 62
     7
100
AcDbLine
 10
392.292457
 20
-45.554097
 30
0.0
 11
393.060035
 21
-47.935742
 31
0.0
  0
LINE
  5
1BB
100
AcDbEntity
  8
0
 62
     7
100
AcDbLine
 10
393.060035
 20
-47.935742
 30
0.0
 11
393.613731
 21
-50.527315
 31
0.0
  0
LINE
  5
1BC
100
AcDbEntity
  8
0
 62
     7
100
AcDbLine
 10
393.613731
 20
-50.527315
 30
0.0
 11
393.948737
 21
-53.299842
 31
0.0
  0
LINE
  5
1BD
100
AcDbEntity
  8
0
 62
     7
100
AcDbLine
 10
393.948737
 20
-53.299842
 30
0.0
 11
394.060438
 21
-56.224199
 31
0.0
  0
LINE
  5
1BE
100
AcDbEntity
  8
0
 62
     7
100
AcDbLine
 10
394.060438
 20
-56.224199
 30
0.0
 11
393.805024
 21
-60.54119
 31
0.0
  0
LINE
  5
1BF
100
AcDbEntity
  8
0
 62
     7
100
AcDbLine
 10
393.805024
 20
-60.54119
 30
0.0
 11
393.038831
 21
-64.361809
 31
0.0
  0
LINE
  5
1C0
100
AcDbEntity
  8
0
 62
     7
100
AcDbLine
 10
393.038831
 20
-64.361809
 30
0.0
 11
392.464192
 21
-66.08598
 31
0.0
  0
LINE
  5
1C1
100
AcDbEntity
  8
0
 62
     7
100
AcDbLine
 10
392.464192
 20
-66.08598
 30
0.0
 11
391.761858
 21
-67.68606
 31
0.0
  0
LINE
  5
1C2
100
AcDbEntity
  8
0
 62
     7
100
AcDbLine
 10
391.761858
 20
-67.68606
 30
0.0
 11
390.931829
 21
-69.162049
 31
0.0
  0
LINE
  5
1C3
100
AcDbEntity
  8
0
 62
     7
100
AcDbLine
 10
390.931829
 20
-69.162049
 30
0.0
 11
389.974105
 21
-70.513949
 31
0.0
  0
LINE
  5
1C4
100
AcDbEntity
  8
0
 62
     7
100
AcDbLine
 10
389.974105
 20
-70.513949
 30
0.0
 11
388.902684
 21
-71.723187
 31
0.0
  0
LINE
  5
1C5
100
AcDbEntity
  8
0
 62
     7
100
AcDbLine
 10
388.902684
 20
-71.723187
 30
0.0
 11
387.731604
 21
-72.771194
 31
0.0
  0
LINE
  5
1C6
100
AcDbEntity
  8
0
 62
     7
100
AcDbLine
 10
387.731604
 20
-72.771194
 30
0.0
 11
386.460866
 21
-73.657969
 31
0.0
  0
LINE
  5
1C7
100
AcDbEntity
  8
0
 62
     7
100
AcDbLine
 10
386.460866
 20
-73.657969
 30
0.0
 11
385.09047
 21
-74.383512
 31
0.0
  0
LINE
  5
1C8
100
AcDbEntity
  8
0
 62
     7
100
AcDbLine
 10
383.620414
 20
-74.947823
 30
0.0
 11
382.0507
 21
-75.350902
 31
0.0
  0
LINE
  5
1C9
100
AcDbEntity
  8
0
 62
     7
100
AcDbLine
 10
382.0507
 20
-75.350902
 30
0.0
 11
380.381328
 21
-75.59275
 31
0.0
  0
LINE
  5
1CA
100
AcDbEntity
  8
0
 62
     7
100
AcDbLine
 10
380.381328
 20
-75.59275
 30
0.0
 11
378.612296
 21
-75.673366
 31
0.0
  0
LINE
  5
1CB
100
AcDbEntity
  8
0
 62
     7
100
AcDbLine
 10
378.612296
 20
-75.673366
 30
0.0
 11
376.856226
 21
-75.592008
 31
0.0
  0
LINE
  5
1CC
100
AcDbEntity
  8
0
 62
     7
100
AcDbLine
 10
376.856226
 20
-75.592008
 30
0.0
 11
375.207857
 21
-75.347933
 31
0.0
  0
LINE
  5
1CD
100
AcDbEntity
  8
0
 62
     7
100
AcDbLine
 10
375.207857
 20
-75.347933
 30
0.0
 11
373.667191
 21
-74.941142
 31
0.0
  0
LINE
  5
1CE
100
AcDbEntity
  8
0
 62
     7
100
AcDbLine
 10
372.234227
 20
-74.371634
 30
0.0
 11
370.908964
 21
-73.639408
 31
0.0
  0
LINE
  5
1CF
100
AcDbEntity
  8
0
 62
     7
100
AcDbLine
 10
370.908964
 20
-73.639408
 30
0.0
 11
369.691404
 21
-72.744464
 31
0.0
  0
LINE
  5
1D0
100
AcDbEntity
  8
0
 62
     7
100
AcDbLine
 10
369.691404
 20
-72.744464
 30
0.0
 11
368.581545
 21
-71.686803
 31
0.0
  0
LINE
  5
1D1
100
AcDbEntity
  8
0
 62
     7
100
AcDbLine
 10
368.581545
 20
-71.686803
 30
0.0
 11
367.579388
 21
-70.466422
 31
0.0
  0
LINE
  5
1D2
100
AcDbEntity
  8
0
 62
     7
100
AcDbLine
 10
367.579388
 20
-70.466422
 30
0.0
 11
366.690347
 21
-69.093229
 31
0.0
  0
LINE
  5
1D3
100
AcDbEntity
  8
0
 62
     7
100
AcDbLine
 10
366.690347
 20
-69.093229
 30
0.0
 11
365.919844
 21
-67.577126
 31
0.0
  0
LINE
  5
1D4
100
AcDbEntity
  8
0
 62
     7
100
AcDbLine
 10
365.919844
 20
-67.577126
 30
0.0
 11
365.26788
 21
-65.918114
 31
0.0
  0
LINE
  5
1D5
100
AcDbEntity
  8
0
 62
     7
100
AcDbLine
 10
365.26788
 20
-65.918114
 30
0.0
 11
364.734455
 21
-64.116193
 31
0.0
  0
LINE
  5
1D6
100
AcDbEntity
  8
0
 62
     7
100
AcDbLine
 10
364.734455
 20
-64.116193
 30
0.0
 11
364.023223
 21
-60.08362
 31
0.0
  0
LINE
  5
1D7
100
AcDbEntity
  8
0
 62
     7
100
AcDbLine
 10
364.023223
 20
-60.08362
 30
0.0
 11
363.786147
 21
-55.479406
 31
0.0
  0
LINE
  5
1D8
100
AcDbEntity
  8
0
 62
     7
100
AcDbLine
 10
363.786147
 20
-55.479406
 30
0.0
 11
363.786147
 21
-49.536896
 31
0.0
  0
LINE
  5
1D9
100
AcDbEntity
  8
0
 62
     7
100
AcDbLine
 10
405.180275
 20
-5.079005
 30
0.0
 11
417.476966
 21
-5.079005
 31
0.0
  0
LINE
  5
1DA
100
AcDbEntity
  8
0
 62
     7
100
AcDbLine
 10
429.804988
 20
-74.719935
 30
0.0
 11
405.180275
 21
-74.719935
 31
0.0
  0
LINE
  5
1DB
100
AcDbEntity
  8
0
 62
     7
100
AcDbLine
 10
442.827343
 20
-18.371739
 30
0.0
 11
442.101679
 21
-18.371739
 31
0.0
  0
LINE
  5
1DC
100
AcDbEntity
  8
0
 62
     7
100
AcDbLine
 10
442.827343
 20
-61.387579
 30
0.0
 11
444.142127
 21
-61.32255
 31
0.0
  0
LINE
  5
1DD
100
AcDbEntity
  8
0
 62
     7
100
AcDbLine
 10
444.142127
 20
-61.32255
 30
0.0
 11
445.185735
 21
-61.12744
 31
0.0
  0
LINE
  5
1DE
100
AcDbEntity
  8
0
 62
     7
100
AcDbLine
 10
445.185735
 20
-61.12744
 30
0.0
 11
445.95817
 21
-60.802251
 31
0.0
  0
LINE
  5
1DF
100
AcDbEntity
  8
0
 62
     7
100
AcDbLine
 10
445.95817
 20
-60.802251
 30
0.0
 11
446.45943
 21
-60.346981
 31
0.0
  0
LINE
  5
1E0
100
AcDbEntity
  8
0
 62
     7
100
AcDbLine
 10
446.45943
 20
-60.346981
 30
0.0
 11
446.77937
 21
-59.678458
 31
0.0
  0
LINE
  5
1E1
100
AcDbEntity
  8
0
 62
     7
100
AcDbLine
 10
446.77937
 20
-59.678458
 30
0.0
 11
447.007903
 21
-58.713464
 31
0.0
  0
LINE
  5
1E2
100
AcDbEntity
  8
0
 62
     7
100
AcDbLine
 10
447.007903
 20
-58.713464
 30
0.0
 11
447.190747
 21
-55.894059
 31
0.0
  0
LINE
  5
1E3
100
AcDbEntity
  8
0
 62
     7
100
AcDbLine
 10
447.190747
 20
-55.894059
 30
0.0
 11
447.190747
 21
-23.907517
 31
0.0
  0
LINE
  5
1E4
100
AcDbEntity
  8
0
 62
     7
100
AcDbLine
 10
447.190747
 20
-23.907517
 30
0.0
 11
447.006489
 21
-21.087834
 31
0.0
  0
LINE
  5
1E5
100
AcDbEntity
  8
0
 62
     7
100
AcDbLine
 10
447.006489
 20
-21.087834
 30
0.0
 11
446.77619
 21
-20.116472
 31
0.0
  0
LINE
  5
1E6
100
AcDbEntity
  8
0
 62
     7
100
AcDbLine
 10
446.77619
 20
-20.116472
 30
0.0
 11
446.453777
 21
-19.437427
 31
0.0
  0
LINE
  5
1E7
100
AcDbEntity
  8
0
 62
     7
100
AcDbLine
 10
446.453777
 20
-19.437427
 30
0.0
 11
445.950749
 21
-18.971219
 31
0.0
  0
LINE
  5
1E8
100
AcDbEntity
  8
0
 62
     7
100
AcDbLine
 10
445.950749
 20
-18.971219
 30
0.0
 11
445.178667
 21
-18.638202
 31
0.0
  0
LINE
  5
1E9
100
AcDbEntity
  8
0
 62
     7
100
AcDbLine
 10
445.178667
 20
-18.638202
 30
0.0
 11
444.137532
 21
-18.438375
 31
0.0
  0
LINE
  5
1EA
100
AcDbEntity
  8
0
 62
     7
100
AcDbLine
 10
444.137532
 20
-18.438375
 30
0.0
 11
442.827343
 21
-18.371739
 31
0.0
  0
LINE
  5
1EB
100
AcDbEntity
  8
0
 62
     7
100
AcDbLine
 10
442.827343
 20
-18.371739
 30
0.0
 11
442.827343
 21
-18.371739
 31
0.0
  0
LINE
  5
1EC
100
AcDbEntity
  8
0
 62
     7
100
AcDbLine
 10
429.804988
 20
-5.079005
 30
0.0
 11
444.039295
 21
-5.079005
 31
0.0
  0
LINE
  5
1ED
100
AcDbEntity
  8
0
 62
     7
100
AcDbLine
 10
444.039295
 20
-5.079005
 30
0.0
 11
448.204246
 21
-5.342165
 31
0.0
  0
LINE
  5
1EE
100
AcDbEntity
  8
0
 62
     7
100
AcDbLine
 10
448.204246
 20
-5.342165
 30
0.0
 11
450.01491
 21
-5.671077
 31
0.0
  0
LINE
  5
1EF
100
AcDbEntity
  8
0
 62
     7
100
AcDbLine
 10
450.01491
 20
-5.671077
 30
0.0
 11
451.644367
 21
-6.131542
 31
0.0
  0
LINE
  5
1F0
100
AcDbEntity
  8
0
 62
     7
100
AcDbLine
 10
451.644367
 20
-6.131542
 30
0.0
 11
453.092617
 21
-6.723561
 31
0.0
  0
LINE
  5
1F1
100
AcDbEntity
  8
0
 62
     7
100
AcDbLine
 10
453.092617
 20
-6.723561
 30
0.0
 11
454.35966
 21
-7.447135
 31
0.0
  0
LINE
  5
1F2
100
AcDbEntity
  8
0
 62
     7
100
AcDbLine
 10
454.35966
 20
-7.447135
 30
0.0
 11
455.445496
 21
-8.302262
 31
0.0
  0
LINE
  5
1F3
100
AcDbEntity
  8
0
 62
     7
100
AcDbLine
 10
455.445496
 20
-8.302262
 30
0.0
 11
456.350125
 21
-9.288945
 31
0.0
  0
LINE
  5
1F4
100
AcDbEntity
  8
0
 62
     7
100
AcDbLine
 10
456.350125
 20
-9.288945
 30
0.0
 11
457.113253
 21
-10.444783
 31
0.0
  0
LINE
  5
1F5
100
AcDbEntity
  8
0
 62
     7
100
AcDbLine
 10
457.113253
 20
-10.444783
 30
0.0
 11
457.774632
 21
-11.807282
 31
0.0
  0
LINE
  5
1F6
100
AcDbEntity
  8
0
 62
     7
100
AcDbLine
 10
457.774632
 20
-11.807282
 30
0.0
 11
458.334262
 21
-13.376442
 31
0.0
  0
LINE
  5
1F7
100
AcDbEntity
  8
0
 62
     7
100
AcDbLine
 10
458.334262
 20
-13.376442
 30
0.0
 11
458.792144
 21
-15.152264
 31
0.0
  0
LINE
  5
1F8
100
AcDbEntity
  8
0
 62
     7
100
AcDbLine
 10
458.792144
 20
-15.152264
 30
0.0
 11
459.402661
 21
-19.323893
 31
0.0
  0
LINE
  5
1F9
100
AcDbEntity
  8
0
 62
     7
100
AcDbLine
 10
459.402661
 20
-19.323893
 30
0.0
 11
459.606182
 21
-24.322172
 31
0.0
  0
LINE
  5
1FA
100
AcDbEntity
  8
0
 62
     7
100
AcDbLine
 10
459.606182
 20
-24.322172
 30
0.0
 11
459.606182
 21
-55.561282
 31
0.0
  0
LINE
  5
1FB
100
AcDbEntity
  8
0
 62
     7
100
AcDbLine
 10
459.606182
 20
-55.561282
 30
0.0
 11
459.360894
 21
-60.730615
 31
0.0
  0
LINE
  5
1FC
100
AcDbEntity
  8
0
 62
     7
100
AcDbLine
 10
459.360894
 20
-60.730615
 30
0.0
 11
459.054319
 21
-62.895833
 31
0.0
  0
LINE
  5
1FD
100
AcDbEntity
  8
0
 62
     7
100
AcDbLine
 10
459.054319
 20
-62.895833
 30
0.0
 11
458.625124
 21
-64.781423
 31
0.0
  0
LINE
  5
1FE
100
AcDbEntity
  8
0
 62
     7
100
AcDbLine
 10
458.625124
 20
-64.781423
 30
0.0
 11
458.06902
 21
-66.444833
 31
0.0
  0
LINE
  5
1FF
100
AcDbEntity
  8
0
 62
     7
100
AcDbLine
 10
458.06902
 20
-66.444833
 30
0.0
 11
457.381815
 21
-67.943497
 31
0.0
  0
LINE
  5
200
100
AcDbEntity
  8
0
 62
     7
100
AcDbLine
 10
457.381815
 20
-67.943497
 30
0.0
 11
456.563506
 21
-69.277421
 31
0.0
  0
LINE
  5
201
100
AcDbEntity
  8
0
 62
     7
100
AcDbLine
 10
456.563506
 20
-69.277421
 30
0.0
 11
455.614095
 21
-70.44661
 31
0.0
  0
LINE
  5
202
100
AcDbEntity
  8
0
 62
     7
100
AcDbLine
 10
455.614095
 20
-70.44661
 30
0.0
 11
454.511625
 21
-71.617699
 31
0.0
  0
LINE
  5
203
100
AcDbEntity
  8
0
 62
     7
100
AcDbLine
 10
454.511625
 20
-71.617699
 30
0.0
 11
453.34732
 21
-72.577
 31
0.0
  0
LINE
  5
204
100
AcDbEntity
  8
0
 62
     7
100
AcDbLine
 10
453.34732
 20
-72.577
 30
0.0
 11
452.121178
 21
-73.324518
 31
0.0
  0
LINE
  5
205
100
AcDbEntity
  8
0
 62
     7
100
AcDbLine
 10
452.121178
 20
-73.324518
 30
0.0
 11
450.8332
 21
-73.860258
 31
0.0
  0
LINE
  5
206
100
AcDbEntity
  8
0
 62
     7
100
AcDbLine
 10
450.8332
 20
-73.860258
 30
0.0
 11
449.297456
 21
-74.236362
 31
0.0
  0
LINE
  5
207
100
AcDbEntity
  8
0
 62
     7
100
AcDbLine
 10
442.088485
 20
-74.719935
 30
0.0
 11
440.5203
 21
-74.719935
 31
0.0
  0
LINE
  5
208
100
AcDbEntity
  8
0
 62
     7
100
AcDbLine
 10
440.5203
 20
-74.719935
 30
0.0
 11
429.804988
 21
-74.719935
 31
0.0
  0
LINE
  5
209
100
AcDbEntity
  8
0
 62
     7
100
AcDbLine
 10
471.80038
 20
-5.079005
 30
0.0
 11
497.667913
 21
-5.079005
 31
0.0
  0
LINE
  5
20A
100
AcDbEntity
  8
0
 62
     7
100
AcDbLine
 10
497.667913
 20
-5.079005
 30
0.0
 11
497.667913
 21
-19.903582
 31
0.0
  0
LINE
  5
20B
100
AcDbEntity
  8
0
 62
     7
100
AcDbLine
 10
497.667913
 20
-19.903582
 30
0.0
 11
484.097071
 21
-19.903582
 31
0.0
  0
LINE
  5
20C
100
AcDbEntity
  8
0
 62
     7
100
AcDbLine
 10
484.097071
 20
-19.903582
 30
0.0
 11
484.097071
 21
-31.722575
 31
0.0
  0
LINE
  5
20D
100
AcDbEntity
  8
0
 62
     7
100
AcDbLine
 10
484.097071
 20
-31.722575
 30
0.0
 11
496.071455
 21
-31.722575
 31
0.0
  0
LINE
  5
20E
100
AcDbEntity
  8
0
 62
     7
100
AcDbLine
 10
496.071455
 20
-31.722575
 30
0.0
 11
496.071455
 21
-46.380765
 31
0.0
  0
LINE
  5
20F
100
AcDbEntity
  8
0
 62
     7
100
AcDbLine
 10
496.071455
 20
-46.380765
 30
0.0
 11
484.097071
 21
-46.380765
 31
0.0
  0
LINE
  5
210
100
AcDbEntity
  8
0
 62
     7
100
AcDbLine
 10
484.097071
 20
-46.380765
 30
0.0
 11
484.097071
 21
-59.895352
 31
0.0
  0
LINE
  5
211
100
AcDbEntity
  8
0
 62
     7
100
AcDbLine
 10
484.097071
 20
-59.895352
 30
0.0
 11
498.082579
 21
-59.895352
 31
0.0
  0
LINE
  5
212
100
AcDbEntity
  8
0
 62
     7
100
AcDbLine
 10
498.082579
 20
-59.895352
 30
0.0
 11
498.082579
 21
-74.719935
 31
0.0
  0
LINE
  5
213
100
AcDbEntity
  8
0
 62
     7
100
AcDbLine
 10
498.082579
 20
-74.719935
 30
0.0
 11
471.80038
 21
-74.719935
 31
0.0
  0
LINE
  5
214
100
AcDbEntity
  8
0
370
     0
  6
Continuous
 62
     7
100
AcDbLine
 10
412.149954
 20
184.648866
 30
0.0
 11
413.356411
 21
184.648866
 31
0.0
  0
LINE
  5
215
100
AcDbEntity
  8
0
 62
     7
100
AcDbLine
 10
413.356411
 20
184.648866
 30
0.0
 11
413.356411
 21
212.570737
 31
0.0
  0
LINE
  5
216
100
AcDbEntity
  8
0
 62
     7
100
AcDbLine
 10
405.735629
 20
172.734793
 30
0.0
 11
405.85996
 21
165.817713
 31
0.0
  0
LINE
  5
217
100
AcDbEntity
  8
0
370
     0
  6
Continuous
 62
     7
100
AcDbLine
 10
406.833333
 20
172.734793
 30
0.0
 11
405.735629
 21
172.734793
 31
0.0
  0
LINE
  5
218
100
AcDbEntity
  8
0
370
     0
  6
Continuous
 62
     7
100
AcDbLine
 10
337.176839
 20
185.182371
 30
0.0
 11
337.176839
 21
172.718949
 31
0.0
  0
LINE
  5
219
100
AcDbEntity
  8
0
370
     0
  6
Continuous
 62
     7
100
AcDbLine
 10
337.638836
 20
185.268433
 30
0.0
 11
337.638836
 21
172.669472
 31
0.0
  0
LINE
  5
21A
100
AcDbEntity
  8
0
 62
     7
100
AcDbLine
 10
337.638836
 20
185.268433
 30
0.0
 11
339.197028
 21
185.558698
 31
0.0
  0
LINE
  5
21B
100
AcDbEntity
  8
0
 62
     7
100
AcDbLine
 10
338.30142
 20
172.598513
 30
0.0
 11
337.638836
 21
172.669472
 31
0.0
  0
LINE
  5
21C
100
AcDbEntity
  8
0
370
     0
  6
Continuous
 62
     7
100
AcDbLine
 10
331.720571
 20
-44.914945
 30
0.0
 11
332.981046
 21
-44.914945
 31
0.0
  0
LINE
  5
21D
100
AcDbEntity
  8
0
370
     0
  6
Continuous
 62
     7
100
AcDbLine
 10
339.086041
 20
-33.000875
 30
0.0
 11
340.471399
 21
-33.000875
 31
0.0
  0
LINE
  5
21E
100
AcDbEntity
  8
0
 62
     7
100
AcDbLine
 10
331.720571
 20
-44.914945
 30
0.0
 11
331.863339
 21
-51.832026
 31
0.0
  0
LINE
  5
21F
100
AcDbEntity
  8
0
370
     0
  6
Continuous
 62
     7
100
AcDbLine
 10
442.674696
 20
-61.387579
 30
0.0
 11
442.674696
 21
-74.695889
 31
0.0
  0
LINE
  5
220
100
AcDbEntity
  8
0
 62
     7
100
AcDbLine
 10
442.674696
 20
-61.387579
 30
0.0
 11
442.827343
 21
-61.387579
 31
0.0
  0
LINE
  5
221
100
AcDbEntity
  8
0
 62
     7
100
AcDbLine
 10
471.80038
 20
-74.719935
 30
0.0
 11
442.674696
 21
-74.695889
 31
0.0
  0
LINE
  5
222
100
AcDbEntity
  8
0
 62
     7
100
AcDbLine
 10
442.101679
 20
-74.719394
 30
0.0
 11
442.088485
 21
-74.719935
 31
0.0
  0
LINE
  5
223
100
AcDbEntity
  8
0
 62
     7
100
AcDbLine
 10
442.101679
 20
-18.371739
 30
0.0
 11
442.101679
 21
-74.719394
 31
0.0
  0
LINE
  5
224
100
AcDbEntity
  8
0
370
     0
  6
Continuous
 62
     7
100
AcDbLine
 10
352.936291
 20
142.929809
 30
0.0
 11
362.82862
 21
142.929809
 31
0.0
  0
LINE
  5
225
100
AcDbEntity
  8
0
370
     0
  6
Continuous
 62
     7
100
AcDbLine
 10
385.716845
 20
142.929809
 30
0.0
 11
395.408918
 21
142.929809
 31
0.0
  0
LINE
  5
226
100
AcDbEntity
  8
0
370
     0
  6
Continuous
 62
     7
100
AcDbLine
 10
452.675057
 20
142.929809
 30
0.0
 11
471.38988
 21
142.929809
 31
0.0
  0
LINE
  5
227
100
AcDbEntity
  8
0
370
     0
  6
Continuous
 62
     7
100
AcDbLine
 10
423.781189
 20
142.929809
 30
0.0
 11
442.713001
 21
142.929809
 31
0.0
  0
LINE
  5
228
100
AcDbEntity
  8
0
370
     0
  6
Continuous
 62
     7
100
AcDbLine
 10
306.275733
 20
142.929809
 30
0.0
 11
326.571503
 21
142.929809
 31
0.0
  0
LINE
  5
229
100
AcDbEntity
  8
0
370
     0
  6
Continuous
 62
     7
100
AcDbLine
 10
306.275733
 20
143.129809
 30
0.0
 11
326.571503
 21
143.129809
 31
0.0
  0
LINE
  5
22A
100
AcDbEntity
  8
0
370
     0
  6
Continuous
 62
     7
100
AcDbLine
 10
352.899911
 20
143.129809
 30
0.0
 11
362.82862
 21
143.129809
 31
0.0
  0
LINE
  5
22B
100
AcDbEntity
  8
0
370
     0
  6
Continuous
 62
     7
100
AcDbLine
 10
385.716845
 20
143.129809
 30
0.0
 11
395.408918
 21
143.129809
 31
0.0
  0
LINE
  5
22C
100
AcDbEntity
  8
0
370
     0
  6
Continuous
 62
     7
100
AcDbLine
 10
423.781189
 20
143.129809
 30
0.0
 11
442.292057
 21
143.129809
 31
0.0
  0
LINE
  5
22D
100
AcDbEntity
  8
0
370
     0
  6
Continuous
 62
     7
100
AcDbLine
 10
453.097785
 20
143.129809
 30
0.0
 11
471.38988
 21
143.129809
 31
0.0
  0
LINE
  5
22E
100
AcDbEntity
  8
0
 62
     7
100
AcDbLine
 10
471.38988
 20
143.129809
 30
0.0
 11
471.38988
 21
212.570737
 31
0.0
  0
LINE
  5
22F
100
AcDbEntity
  8
0
 62
     7
100
AcDbLine
 10
453.416119
 20
143.280418
 30
0.0
 11
453.097785
 21
143.129809
 31
0.0
  0
LINE
  5
230
100
AcDbEntity
  8
0
 62
     7
100
AcDbLine
 10
452.675057
 20
142.929809
 30
0.0
 11
452.134529
 21
142.674076
 31
0.0
  0
LINE
  5
231
100
AcDbEntity
  8
0
 62
     7
100
AcDbLine
 10
443.247339
 20
142.675933
 30
0.0
 11
442.713001
 21
142.929809
 31
0.0
  0
LINE
  5
232
100
AcDbEntity
  8
0
 62
     7
100
AcDbLine
 10
442.292057
 20
143.129809
 30
0.0
 11
441.968119
 21
143.283719
 31
0.0
  0
LINE
  5
233
100
AcDbEntity
  8
0
 62
     7
100
AcDbLine
 10
423.781189
 20
212.570737
 30
0.0
 11
423.781189
 21
143.129809
 31
0.0
  0
LINE
  5
234
100
AcDbEntity
  8
0
 62
     7
100
AcDbLine
 10
395.408918
 20
143.129809
 30
0.0
 11
395.408918
 21
212.570737
 31
0.0
  0
LINE
  5
235
100
AcDbEntity
  8
0
 62
     7
100
AcDbLine
 10
385.716845
 20
157.754387
 30
0.0
 11
385.716845
 21
143.129809
 31
0.0
  0
LINE
  5
236
100
AcDbEntity
  8
0
 62
     7
100
AcDbLine
 10
362.82862
 20
143.129809
 30
0.0
 11
362.82862
 21
212.570737
 31
0.0
  0
LINE
  5
237
100
AcDbEntity
  8
0
 62
     7
100
AcDbLine
 10
352.23704
 20
146.773952
 30
0.0
 11
352.899911
 21
143.129809
 31
0.0
  0
LINE
  5
238
100
AcDbEntity
  8
0
 62
     7
100
AcDbLine
 10
306.275733
 20
171.268976
 30
0.0
 11
306.275733
 21
143.129809
 31
0.0
  0
LINE
  5
239
100
AcDbEntity
  8
0
 62
     7
100
AcDbLine
 10
326.571503
 20
143.129809
 30
0.0
 11
326.571503
 21
212.570737
 31
0.0
  0
LINE
  5
23A
100
AcDbEntity
  8
0
370
     0
  6
Continuous
 62
     7
100
AcDbLine
 10
321.125805
 20
16.771916
 30
0.0
 11
344.905446
 21
16.771916
 31
0.0
  0
LINE
  5
23B
100
AcDbEntity
  8
0
370
     0
  6
Continuous
 62
     7
100
AcDbLine
 10
381.868695
 20
16.771916
 30
0.0
 11
409.650315
 21
16.771916
 31
0.0
  0
LINE
  5
23C
100
AcDbEntity
  8
0
370
     0
  6
Continuous
 62
     7
100
AcDbLine
 10
426.643493
 20
16.771916
 30
0.0
 11
456.413478
 21
16.771916
 31
0.0
  0
LINE
  5
23D
100
AcDbEntity
  8
0
370
     0
  6
Continuous
 62
     7
100
AcDbLine
 10
307.534545
 20
-74.519935
 30
0.0
 11
319.862567
 21
-74.519935
 31
0.0
  0
LINE
  5
23E
100
AcDbEntity
  8
0
370
     0
  6
Continuous
 62
     7
100
AcDbLine
 10
352.442013
 20
-74.519935
 30
0.0
 11
372.607374
 21
-74.519935
 31
0.0
  0
LINE
  5
23F
100
AcDbEntity
  8
0
370
     0
  6
Continuous
 62
     7
100
AcDbLine
 10
384.735082
 20
-74.519935
 30
0.0
 11
405.180275
 21
-74.519935
 31
0.0
  0
LINE
  5
240
100
AcDbEntity
  8
0
370
     0
  6
Continuous
 62
     7
100
AcDbLine
 10
417.476966
 20
-74.519935
 30
0.0
 11
429.804988
 21
-74.519935
 31
0.0
  0
LINE
  5
241
100
AcDbEntity
  8
0
370
     0
  6
Continuous
 62
     7
100
AcDbLine
 10
449.023143
 20
-74.275582
 30
0.0
 11
449.024334
 21
-74.519935
 31
0.0
  0
LINE
  5
242
100
AcDbEntity
  8
0
370
     0
  6
Continuous
 62
     7
100
AcDbLine
 10
449.024334
 20
-74.519935
 30
0.0
 11
471.80038
 21
-74.519935
 31
0.0
  0
LINE
  5
243
100
AcDbEntity
  8
0
 62
     7
100
AcDbLine
 10
449.297456
 20
-74.236362
 30
0.0
 11
449.023143
 21
-74.275582
 31
0.0
  0
LINE
  5
244
100
AcDbEntity
  8
0
 62
     7
100
AcDbLine
 10
471.80038
 20
-74.519935
 30
0.0
 11
471.80038
 21
-5.079005
 31
0.0
  0
LINE
  5
245
100
AcDbEntity
  8
0
 62
     7
100
AcDbLine
 10
429.804988
 20
-74.519935
 30
0.0
 11
429.804988
 21
-5.079005
 31
0.0
  0
LINE
  5
246
100
AcDbEntity
  8
0
 62
     7
100
AcDbLine
 10
417.476966
 20
-5.079005
 30
0.0
 11
417.476966
 21
-74.519935
 31
0.0
  0
LINE
  5
247
100
AcDbEntity
  8
0
 62
     7
100
AcDbLine
 10
405.180275
 20
-74.519935
 30
0.0
 11
405.180275
 21
-5.079005
 31
0.0
  0
LINE
  5
248
100
AcDbEntity
  8
0
 62
     7
100
AcDbLine
 10
405.180275
 20
-74.719935
 30
0.0
 11
384.214073
 21
-74.719935
 31
0.0
  0
LINE
  5
249
100
AcDbEntity
  8
0
 62
     7
100
AcDbLine
 10
373.110602
 20
-74.719935
 30
0.0
 11
339.40835
 21
-74.719935
 31
0.0
  0
LINE
  5
24A
100
AcDbEntity
  8
0
 62
     7
100
AcDbLine
 10
385.09047
 20
-74.383512
 30
0.0
 11
384.735082
 21
-74.519935
 31
0.0
  0
LINE
  5
24B
100
AcDbEntity
  8
0
 62
     7
100
AcDbLine
 10
384.214073
 20
-74.719935
 30
0.0
 11
383.620414
 21
-74.947823
 31
0.0
  0
LINE
  5
24C
100
AcDbEntity
  8
0
 62
     7
100
AcDbLine
 10
373.667191
 20
-74.941142
 30
0.0
 11
373.110602
 21
-74.719935
 31
0.0
  0
LINE
  5
24D
100
AcDbEntity
  8
0
 62
     7
100
AcDbLine
 10
372.607374
 20
-74.519935
 30
0.0
 11
372.234227
 21
-74.371634
 31
0.0
  0
LINE
  5
24E
100
AcDbEntity
  8
0
 62
     7
100
AcDbLine
 10
352.442013
 20
-5.079005
 30
0.0
 11
352.442013
 21
-74.519935
 31
0.0
  0
LINE
  5
24F
100
AcDbEntity
  8
0
 62
     7
100
AcDbLine
 10
307.534545
 20
-5.079005
 30
0.0
 11
307.534545
 21
-74.519935
 31
0.0
  0
LINE
  5
250
100
AcDbEntity
  8
0
 62
     7
100
AcDbLine
 10
319.862567
 20
-74.519935
 30
0.0
 11
319.862567
 21
-5.079005
 31
0.0
  0
LINE
  5
251
100
AcDbEntity
  8
0
 62
     7
100
AcDbLine
 10
321.125805
 20
99.099953
 30
0.0
 11
321.125805
 21
16.771916
 31
0.0
  0
LINE
  5
252
100
AcDbEntity
  8
0
 62
     7
100
AcDbLine
 10
344.905446
 20
16.771916
 30
0.0
 11
344.905446
 21
121.418908
 31
0.0
  0
LINE
  5
253
100
AcDbEntity
  8
0
 62
     7
100
AcDbLine
 10
456.413478
 20
16.571916
 30
0.0
 11
426.190045
 21
16.571916
 31
0.0
  0
LINE
  5
254
100
AcDbEntity
  8
0
 62
     7
100
AcDbLine
 10
410.10185
 20
16.571916
 30
0.0
 11
344.905446
 21
16.571916
 31
0.0
  0
LINE
  5
255
100
AcDbEntity
  8
0
 62
     7
100
AcDbLine
 10
410.964782
 20
16.189694
 30
0.0
 11
410.10185
 21
16.571916
 31
0.0
  0
LINE
  5
256
100
AcDbEntity
  8
0
 62
     7
100
AcDbLine
 10
409.650315
 20
16.771916
 30
0.0
 11
408.898912
 21
17.104738
 31
0.0
  0
LINE
  5
257
100
AcDbEntity
  8
0
 62
     7
100
AcDbLine
 10
427.386818
 20
17.09977
 30
0.0
 11
426.643493
 21
16.771916
 31
0.0
  0
LINE
  5
258
100
AcDbEntity
  8
0
 62
     7
100
AcDbLine
 10
426.190045
 20
16.571916
 30
0.0
 11
425.317118
 21
16.186899
 31
0.0
  0
LINE
  5
259
100
AcDbEntity
  8
0
 62
     7
100
AcDbLine
 10
456.413478
 20
16.771916
 30
0.0
 11
456.413478
 21
121.418908
 31
0.0
  0
LINE
  5
25A
100
AcDbEntity
  8
0
370
     0
  6
Continuous
 62
     7
100
AcDbLine
 10
272.323513
 20
143.129809
 30
0.0
 11
295.566986
 21
143.129809
 31
0.0
  0
LINE
  5
25B
100
AcDbEntity
  8
0
 62
     7
100
AcDbLine
 10
295.566986
 20
143.129809
 30
0.0
 11
295.566986
 21
212.570737
 31
0.0
  0
LINE
  5
25C
100
AcDbEntity
  8
0
370
     0
  6
Continuous
 62
     7
100
AcDbLine
 10
272.323513
 20
212.570737
 30
0.0
 11
272.323513
 21
143.129809
 31
0.0
  0
LINE
  5
25D
100
AcDbEntity
  8
0
370
     0
  6
Continuous
 62
     7
100
AcDbLine
 10
272.323513
 20
16.771916
 30
0.0
 11
303.871519
 21
16.771916
 31
0.0
  0
LINE
  5
25E
100
AcDbEntity
  8
0
 62
     7
100
AcDbLine
 10
303.871519
 20
16.771916
 30
0.0
 11
303.871519
 21
99.099953
 31
0.0
  0
LINE
  5
25F
100
AcDbEntity
  8
0
370
     0
  6
Continuous
 62
     7
100
AcDbLine
 10
272.323513
 20
-74.519935
 30
0.0
 11
295.237853
 21
-74.519935
 31
0.0
  0
LINE
  5
260
100
AcDbEntity
  8
0
370
     0
  6
Continuous
 62
     7
100
AcDbLine
 10
295.237853
 20
-74.719935
 30
0.0
 11
272.323513
 21
-74.719935
 31
0.0
  0
LINE
  5
261
100
AcDbEntity
  8
0
 62
     7
100
AcDbLine
 10
295.237853
 20
-74.519935
 30
0.0
 11
295.237853
 21
-5.079005
 31
0.0
  0
LINE
  5
262
100
AcDbEntity
  8
0
370
     0
  6
Continuous
 62
     7
100
AcDbLine
 10
272.323513
 20
16.571916
 30
0.0
 11
272.323513
 21
-74.519935
 31
0.0
  0
LINE
  5
263
100
AcDbEntity
  8
0
370
     0
  6
Continuous
 62
     7
100
AcDbLine
 10
272.323513
 20
-74.719935
 30
0.0
 11
218.289788
 21
68.995412
 31
0.0
  0
LINE
  5
264
100
AcDbEntity
  8
0
370
     0
  6
Continuous
 62
     7
100
AcDbLine
 10
218.289788
 20
68.995412
 30
0.0
 11
272.323513
 21
212.570737
 31
0.0
  0
LINE
  5
265
100
AcDbEntity
  8
0
370
     0
  6
Continuous
 62
     7
100
AcDbLine
 10
254.323513
 20
69.070552
 30
0.0
 11
272.323513
 21
69.070552
 31
0.0
  0
LINE
  5
266
100
AcDbEntity
  8
0
370
     0
  6
Continuous
 62
     7
100
AcDbLine
 10
272.323513
 20
68.970552
 30
0.0
 11
254.323513
 21
68.970552
 31
0.0
  0
LINE
  5
267
100
AcDbEntity
  8
0
370
     0
  6
Continuous
 62
     7
100
AcDbLine
 10
272.323513
 20
142.929809
 30
0.0
 11
272.323513
 21
69.070552
 31
0.0
  0
LINE
  5
268
100
AcDbEntity
  8
0
370
     0
  6
Continuous
 62
     7
100
AcDbLine
 10
272.323513
 20
68.970552
 30
0.0
 11
272.323513
 21
16.771916
 31
0.0
  0
POLYLINE
  5
269
100
AcDbEntity
  8
0
370
     0
  6
Continuous
 62
     7
100
AcDb2dPolyline
 66
     1
 10
0.0
 20
0.0
 30
0.0
 70
   128
  0
VERTEX
  5
26A
100
AcDbEntity
  8
0
  6
Continuous
 62
     7
100
AcDbVertex
100
AcDb2dVertex
 10
254.323513
 20
24.302484
 30
0.0
  0
VERTEX
  5
26B
100
AcDbEntity
  8
0
  6
Continuous
 62
     7
100
AcDbVertex
100
AcDb2dVertex
 10
237.521142
 20
68.992323
 30
0.0
  0
VERTEX
  5
26C
100
AcDbEntity
  8
0
  6
Continuous
 62
     7
100
AcDbVertex
100
AcDb2dVertex
 10
254.323513
 20
113.638621
 30
0.0
  0
VERTEX
  5
26D
100
AcDbEntity
  8
0
  6
Continuous
 62
     7
100
AcDbVertex
100
AcDb2dVertex
 10
254.323513
 20
69.070552
 30
0.0
  0
SEQEND
  5
26E
100
AcDbEntity
  8
0
  6
Continuous
 62
     7
  0
LINE
  5
26F
100
AcDbEntity
  8
0
370
     0
  6
Continuous
 62
     7
100
AcDbLine
 10
254.323513
 20
68.970552
 30
0.0
 11
254.323513
 21
24.302484
 31
0.0
  0
LINE
  5
270
100
AcDbEntity
  8
0
370
     0
  6
Continuous
100
AcDbLine
 10
-27.365835
 20
222.641244
 30
0.0
 11
101.378208
 21
148.851799
 31
0.0
  0
POLYLINE
  5
271
100
AcDbEntity
  8
0
370
     0
  6
Continuous
100
AcDb2dPolyline
 66
     1
 10
0.0
 20
0.0
 30
0.0
 70
   128
  0
VERTEX
  5
272
100
AcDbEntity
  8
0
  6
Continuous
100
AcDbVertex
100
AcDb2dVertex
 10
101.568752
 20
149.169373
 30
0.0
  0
VERTEX
  5
273
100
AcDbEntity
  8
0
  6
Continuous
100
AcDbVertex
100
AcDb2dVertex
 10
103.617621
 20
152.584153
 30
0.0
  0
VERTEX
  5
274
100
AcDbEntity
  8
0
  6
Continuous
100
AcDbVertex
100
AcDb2dVertex
 10
117.800567
 20
154.077095
 30
0.0
  0
VERTEX
  5
275
100
AcDbEntity
  8
0
  6
Continuous
100
AcDbVertex
100
AcDb2dVertex
 10
133.476455
 20
169.006512
 30
0.0
  0
VERTEX
  5
276
100
AcDbEntity
  8
0
  6
Continuous
100
AcDbVertex
100
AcDb2dVertex
 10
147.659401
 20
159.302391
 30
0.0
  0
VERTEX
  5
277
100
AcDbEntity
  8
0
  6
Continuous
100
AcDbVertex
100
AcDb2dVertex
 10
169.307055
 20
161.541803
 30
0.0
  0
VERTEX
  5
278
100
AcDbEntity
  8
0
  6
Continuous
100
AcDbVertex
100
AcDb2dVertex
 10
166.321172
 20
139.894149
 30
0.0
  0
VERTEX
  5
279
100
AcDbEntity
  8
0
  6
Continuous
100
AcDbVertex
100
AcDb2dVertex
 10
164.208019
 20
129.727627
 30
0.0
  0
VERTEX
  5
27A
100
AcDbEntity
  8
0
  6
Continuous
100
AcDbVertex
100
AcDb2dVertex
 10
184.236472
 20
118.992965
 30
0.0
  0
VERTEX
  5
27B
100
AcDbEntity
  8
0
  6
Continuous
100
AcDbVertex
100
AcDb2dVertex
 10
184.516401
 20
117.96658
 30
0.0
  0
VERTEX
  5
27C
100
AcDbEntity
  8
0
  6
Continuous
100
AcDbVertex
100
AcDb2dVertex
 10
165.108159
 20
105.276576
 30
0.0
  0
VERTEX
  5
27D
100
AcDbEntity
  8
0
  6
Continuous
100
AcDbVertex
100
AcDb2dVertex
 10
158.783835
 20
103.631508
 30
0.0
  0
VERTEX
  5
27E
100
AcDbEntity
  8
0
  6
Continuous
100
AcDbVertex
100
AcDb2dVertex
 10
157.133589
 20
95.692064
 30
0.0
  0
VERTEX
  5
27F
100
AcDbEntity
  8
0
  6
Continuous
100
AcDbVertex
100
AcDb2dVertex
 10
178.264706
 20
55.542943
 30
0.0
  0
VERTEX
  5
280
100
AcDbEntity
  8
0
  6
Continuous
100
AcDbVertex
100
AcDb2dVertex
 10
200.658831
 20
-17.6112
 30
0.0
  0
VERTEX
  5
281
100
AcDbEntity
  8
0
  6
Continuous
100
AcDbVertex
100
AcDb2dVertex
 10
167.067643
 20
-55.681213
 30
0.0
  0
VERTEX
  5
282
100
AcDbEntity
  8
0
  6
Continuous
100
AcDbVertex
100
AcDb2dVertex
 10
143.180576
 20
-71.357101
 30
0.0
  0
VERTEX
  5
283
100
AcDbEntity
  8
0
  6
Continuous
100
AcDbVertex
100
AcDb2dVertex
 10
93.167029
 20
-72.103572
 30
0.0
  0
VERTEX
  5
284
100
AcDbEntity
  8
0
  6
Continuous
100
AcDbVertex
100
AcDb2dVertex
 10
64.6775
 20
-35.057595
 30
0.0
  0
VERTEX
  5
285
100
AcDbEntity
  8
0
  6
Continuous
100
AcDbVertex
100
AcDb2dVertex
 10
46.110528
 20
-11.068267
 30
0.0
  0
VERTEX
  5
286
100
AcDbEntity
  8
0
  6
Continuous
100
AcDbVertex
100
AcDb2dVertex
 10
16.243371
 20
37.60484
 30
0.0
  0
VERTEX
  5
287
100
AcDbEntity
  8
0
  6
Continuous
100
AcDbVertex
100
AcDb2dVertex
 10
-9.845948
 20
20.458813
 30
0.0
  0
VERTEX
  5
288
100
AcDbEntity
  8
0
  6
Continuous
100
AcDbVertex
100
AcDb2dVertex
 10
-1.634769
 20
66.740006
 30
0.0
  0
VERTEX
  5
289
100
AcDbEntity
  8
0
  6
Continuous
100
AcDbVertex
100
AcDb2dVertex
 10
40.914069
 20
67.486476
 30
0.0
  0
VERTEX
  5
28A
100
AcDbEntity
  8
0
  6
Continuous
100
AcDbVertex
100
AcDb2dVertex
 10
93.9135
 20
27.177051
 30
0.0
  0
VERTEX
  5
28B
100
AcDbEntity
  8
0
  6
Continuous
100
AcDbVertex
100
AcDb2dVertex
 10
126.998765
 20
112.809502
 30
0.0
  0
VERTEX
  5
28C
100
AcDbEntity
  8
0
  6
Continuous
100
AcDbVertex
100
AcDb2dVertex
 10
101.378208
 20
148.851799
 30
0.0
  0
SEQEND
  5
28D
100
AcDbEntity
  8
0
  6
Continuous
  0
LINE
  5
28E
100
AcDbEntity
  8
0
370
     0
  6
Continuous
100
AcDbLine
 10
101.568752
 20
149.169373
 30
0.0
 11
-25.838502
 21
222.19264
 31
0.0
  0
POLYLINE
  5
28F
100
AcDbEntity
  8
0
370
     0
  6
Continuous
100
AcDb2dPolyline
 66
     1
 10
0.0
 20
0.0
 30
0.0
 70
   128
  0
VERTEX
  5
290
100
AcDbEntity
  8
0
  6
Continuous
100
AcDbVertex
100
AcDb2dVertex
 10
-27.365835
 20
222.641244
 30
0.0
  0
VERTEX
  5
291
100
AcDbEntity
  8
0
  6
Continuous
100
AcDbVertex
100
AcDb2dVertex
 10
-31.236721
 20
214.017517
 30
0.0
  0
VERTEX
  5
292
100
AcDbEntity
  8
0
  6
Continuous
100
AcDbVertex
100
AcDb2dVertex
 10
-21.016825
 20
211.147424
 30
0.0
  0
VERTEX
  5
293
100
AcDbEntity
  8
0
  6
Continuous
100
AcDbVertex
100
AcDb2dVertex
 10
-32.32255
 20
200.573981
 30
0.0
  0
VERTEX
  5
294
100
AcDbEntity
  8
0
  6
Continuous
100
AcDbVertex
100
AcDb2dVertex
 10
-24.418719
 20
178.491651
 30
0.0
  0
VERTEX
  5
295
100
AcDbEntity
  8
0
  6
Continuous
100
AcDbVertex
100
AcDb2dVertex
 10
-16.850359
 20
179.840403
 30
0.0
  0
VERTEX
  5
296
100
AcDbEntity
  8
0
  6
Continuous
100
AcDbVertex
100
AcDb2dVertex
 10
60.794009
 20
126.090234
 30
0.0
  0
SEQEND
  5
297
100
AcDbEntity
  8
0
  6
Continuous
  0
LINE
  5
298
100
AcDbEntity
  8
0
370
     0
  6
Continuous
100
AcDbLine
 10
-39.913825
 20
-20.423126
 30
0.0
 11
-29.375918
 21
-28.185061
 31
0.0
  0
LINE
  5
299
100
AcDbEntity
  8
0
370
     0
  6
Continuous
100
AcDbLine
 10
-39.780427
 20
-19.975433
 30
0.0
 11
-29.104902
 21
-27.838734
 31
0.0
  0
POLYLINE
  5
29A
100
AcDbEntity
  8
0
370
     0
  6
Continuous
100
AcDb2dPolyline
 66
     1
 10
0.0
 20
0.0
 30
0.0
 70
   128
  0
VERTEX
  5
29B
100
AcDbEntity
  8
0
  6
Continuous
100
AcDbVertex
100
AcDb2dVertex
 10
-29.104902
 20
-27.838734
 30
0.0
  0
VERTEX
  5
29C
100
AcDbEntity
  8
0
  6
Continuous
100
AcDbVertex
100
AcDb2dVertex
 10
8.999203
 20
20.85387
 30
0.0
  0
VERTEX
  5
29D
100
AcDbEntity
  8
0
  6
Continuous
100
AcDbVertex
100
AcDb2dVertex
 10
66.908824
 20
-72.767007
 30
0.0
  0
VERTEX
  5
29E
100
AcDbEntity
  8
0
  6
Continuous
100
AcDbVertex
100
AcDb2dVertex
 10
16.37604
 20
-89.430321
 30
0.0
  0
VERTEX
  5
29F
100
AcDbEntity
  8
0
  6
Continuous
100
AcDbVertex
100
AcDb2dVertex
 10
-12.113478
 20
-87.268646
 30
0.0
  0
VERTEX
  5
2A0
100
AcDbEntity
  8
0
  6
Continuous
100
AcDbVertex
100
AcDb2dVertex
 10
-52.186858
 20
-57.334781
 30
0.0
  0
VERTEX
  5
2A1
100
AcDbEntity
  8
0
  6
Continuous
100
AcDbVertex
100
AcDb2dVertex
 10
-29.375918
 20
-28.185061
 30
0.0
  0
SEQEND
  5
2A2
100
AcDbEntity
  8
0
  6
Continuous
  0
POLYLINE
  5
2A3
100
AcDbEntity
  8
0
370
     0
  6
Continuous
100
AcDb2dPolyline
 66
     1
 10
0.0
 20
0.0
 30
0.0
 70
   128
  0
VERTEX
  5
2A4
100
AcDbEntity
  8
0
  6
Continuous
100
AcDbVertex
100
AcDb2dVertex
 10
60.794009
 20
126.090234
 30
0.0
  0
VERTEX
  5
2A5
100
AcDbEntity
  8
0
  6
Continuous
100
AcDbVertex
100
AcDb2dVertex
 10
-12.313074
 20
116.565871
 30
0.0
  0
VERTEX
  5
2A6
100
AcDbEntity
  8
0
  6
Continuous
100
AcDbVertex
100
AcDb2dVertex
 10
-9.749184
 20
80.811253
 30
0.0
  0
VERTEX
  5
2A7
100
AcDbEntity
  8
0
  6
Continuous
100
AcDbVertex
100
AcDb2dVertex
 10
-39.780427
 20
-19.975433
 30
0.0
  0
SEQEND
  5
2A8
100
AcDbEntity
  8
0
  6
Continuous
  0
POLYLINE
  5
2A9
100
AcDbEntity
  8
0
370
     0
  6
Continuous
100
AcDb2dPolyline
 66
     1
 10
0.0
 20
0.0
 30
0.0
 70
   128
  0
VERTEX
  5
2AA
100
AcDbEntity
  8
0
  6
Continuous
100
AcDbVertex
100
AcDb2dVertex
 10
-39.913825
 20
-20.423126
 30
0.0
  0
VERTEX
  5
2AB
100
AcDbEntity
  8
0
  6
Continuous
100
AcDbVertex
100
AcDb2dVertex
 10
-48.784476
 20
-21.87511
 30
0.0
  0
VERTEX
  5
2AC
100
AcDbEntity
  8
0
  6
Continuous
100
AcDbVertex
100
AcDb2dVertex
 10
-73.023348
 20
-37.275136
 30
0.0
  0
VERTEX
  5
2AD
100
AcDbEntity
  8
0
  6
Continuous
100
AcDbVertex
100
AcDb2dVertex
 10
-67.357414
 20
7.514742
 30
0.0
  0
VERTEX
  5
2AE
100
AcDbEntity
  8
0
  6
Continuous
100
AcDbVertex
100
AcDb2dVertex
 10
-91.595098
 20
45.868499
 30
0.0
  0
VERTEX
  5
2AF
100
AcDbEntity
  8
0
  6
Continuous
100
AcDbVertex
100
AcDb2dVertex
 10
-115.50737
 20
111.366107
 30
0.0
  0
VERTEX
  5
2B0
100
AcDbEntity
  8
0
  6
Continuous
100
AcDbVertex
100
AcDb2dVertex
 10
-89.222158
 20
157.629656
 30
0.0
  0
VERTEX
  5
2B1
100
AcDbEntity
  8
0
  6
Continuous
100
AcDbVertex
100
AcDb2dVertex
 10
-66.648521
 20
175.144118
 30
0.0
  0
VERTEX
  5
2B2
100
AcDbEntity
  8
0
  6
Continuous
100
AcDbVertex
100
AcDb2dVertex
 10
-59.02107
 20
175.748742
 30
0.0
  0
VERTEX
  5
2B3
100
AcDbEntity
  8
0
  6
Continuous
100
AcDbVertex
100
AcDb2dVertex
 10
-65.786151
 20
206.811045
 30
0.0
  0
VERTEX
  5
2B4
100
AcDbEntity
  8
0
  6
Continuous
100
AcDbVertex
100
AcDb2dVertex
 10
-88.324895
 20
214.797699
 30
0.0
  0
VERTEX
  5
2B5
100
AcDbEntity
  8
0
  6
Continuous
100
AcDbVertex
100
AcDb2dVertex
 10
-88.962407
 20
218.11682
 30
0.0
  0
VERTEX
  5
2B6
100
AcDbEntity
  8
0
  6
Continuous
100
AcDbVertex
100
AcDb2dVertex
 10
-27.199072
 20
223.012766
 30
0.0
  0
SEQEND
  5
2B7
100
AcDbEntity
  8
0
  6
Continuous
  0
ENDSEC
  0
SECTION
  2
OBJECTS
  0
DICTIONARY
  5
19
100
AcDbDictionary
280
     0
281
     1
  3
ACAD_GROUP
350
1A
  3
ACAD_MLINESTYLE
350
1B
  3
ACAD_LAYOUT
350
1E
  3
ACAD_PLOTSETTINGS
350
22
  3
ACAD_PLOTSTYLENAME
350
1F
  0
DICTIONARY
  5
1A
102
{ACAD_REACTORS
330
19
102
}
100
AcDbDictionary
280
     0
281
     1
  0
DICTIONARY
  5
1B
102
{ACAD_REACTORS
330
19
102
}
100
AcDbDictionary
280
     0
281
     1
  3
Standard
350
1C
  0
MLINESTYLE
  5
1C
100
AcDbMlineStyle
  2
STANDARD
 70
     0
  3

 62
   256
 51
90.0
 52
90.0
 71
     3
 49
5.0
 62
   256
  6
BYLAYER
 49
0.0
 62
   256
  6
BYLAYER
 49
-5.0
 62
   256
  6
BYLAYER
  0
ACDBDICTIONARYWDFLT
  5
1F
102
{ACAD_REACTORS
330
19
102
}
100
AcDbDictionary
281
     1
  3
Normal
350
1D
100
AcDbDictionaryWithDefault
340
1D
  0
ACDBPLACEHOLDER
  5
1D
102
{ACAD_REACTORS
330
1F
102
}
  0
LAYOUT
  5
21
102
{ACAD_REACTORS
330
1E
102
}
100
AcDbPlotSettings
  1

  2

  4

  6

 40
0.0
 41
0.0
 42
0.0
 43
0.0
 44
0.0
 45
0.0
 46
0.0
 47
0.0
 48
0.0
 49
0.0
140
0.0
141
0.0
142
1.0
143
1.0
 70
     0
 72
     0
 73
     0
 74
     0
  7

 75
     0
147
1.0
148
0.0
149
0.0
100
AcDbLayout
  1
Layout1
 70
     0
 71
     0
 10
0.0
 20
0.0
 11
0.0
 21
0.0
 12
0.0
 22
0.0
 32
0.0
 14
0.0
 24
0.0
 34
0.0
 15
0.0
 25
0.0
 35
0.0
146
0.0
 13
0.0
 23
0.0
 33
0.0
 16
0.0
 26
0.0
 36
0.0
 17
0.0
 27
0.0
 37
0.0
 76
     0
330
B
331
0
345
0
346
0
  0
DICTIONARY
  5
1E
102
{ACAD_REACTORS
330
19
102
}
100
AcDbDictionary
280
     0
281
     1
  3
Model
350
2B8
  3
Papier 1
350
2B9
  0
DICTIONARY
  5
22
102
{ACAD_REACTORS
330
19
102
}
100
AcDbDictionary
280
     0
281
     1
  0
LAYOUT
  5
2B8
100
AcDbPlotSettings
  1

  2

  4

  6

 40
0.0
 41
0.0
 42
0.0
 43
0.0
 44
0.0
 45
0.0
 46
0.0
 47
0.0
 48
0.0
 49
0.0
140
0.0
141
0.0
142
1.0
143
1.0
 70
     0
 72
     0
 73
     0
 74
     0
  7

 75
     0
147
1.0
148
0.0
149
0.0
100
AcDbLayout
  1
Model
 70
     0
 71
     0
 10
0.0
 20
0.0
 11
0.0
 21
0.0
 12
0.0
 22
0.0
 32
0.0
 14
0.0
 24
0.0
 34
0.0
 15
0.0
 25
0.0
 35
0.0
146
0.0
 13
0.0
 23
0.0
 33
0.0
 16
0.0
 26
0.0
 36
0.0
 17
0.0
 27
0.0
 37
0.0
 76
     0
330
A
331
0
345
0
346
0
  0
LAYOUT
  5
2B9
100
AcDbPlotSettings
  1

  2

  4

  6

 40
0.0
 41
0.0
 42
0.0
 43
0.0
 44
0.0
 45
0.0
 46
0.0
 47
0.0
 48
0.0
 49
0.0
140
0.0
141
0.0
142
1.0
143
1.0
 70
     0
 72
     0
 73
     0
 74
     0
  7

 75
     0
147
1.0
148
0.0
149
0.0
100
AcDbLayout
  1
Papier 1
 70
     1
 71
     1
 10
0.0
 20
0.0
 11
0.0
 21
0.0
 12
0.0
 22
0.0
 32
0.0
 14
0.0
 24
0.0
 34
0.0
 15
0.0
 25
0.0
 35
0.0
146
0.0
 13
0.0
 23
0.0
 33
0.0
 16
0.0
 26
0.0
 36
0.0
 17
0.0
 27
0.0
 37
0.0
 76
     0
330
B
331
0
345
0
346
0
  0
ENDSEC
  0
EOF
