  0
SECTION
  2
HEADER
  9
$ACADVER
  1
AC1015
  9
$ACADMAINTVER
 70
     6
  9
$DWGCODEPAGE
  3
ANSI_1252
  9
$INSBASE
 10
0.0
 20
0.0
 30
0.0
  9
$EXTMIN
 10
85.825935
 20
-80.747604
 30
0.0
  9
$EXTMAX
 10
414.422638
 20
161.369186
 30
0.0
  9
$LIMMIN
 10
0.0
 20
0.0
  9
$LIMMAX
 10
297.0
 20
210.0
  9
$ORTHOMODE
 70
     0
  9
$REGENMODE
 70
     1
  9
$FILLMODE
 70
     1
  9
$QTEXTMODE
 70
     0
  9
$MIRRTEXT
 70
     1
  9
$LTSCALE
 40
1.0
  9
$ATTMODE
 70
     1
  9
$TEXTSIZE
 40
5.0
  9
$TRACEWID
 40
1.0
  9
$TEXTSTYLE
  7
STANDARD
  9
$CLAYER
  8
0
  9
$CELTYPE
  6
Continuous
  9
$CECOLOR
 62
     7
  9
$CELTSCALE
 40
1.0
  9
$DISPSILH
 70
     0
  9
$DIMSCALE
 40
1.0
  9
$DIMASZ
 40
3.0
  9
$DIMEXO
 40
1.0
  9
$DIMDLI
 40
7.5
  9
$DIMRND
 40
0.01
  9
$DIMDLE
 40
0.0
  9
$DIMEXE
 40
2.0
  9
$DIMTP
 40
0.0
  9
$DIMTM
 40
0.0
  9
$DIMTXT
 40
3.0
  9
$DIMCEN
 40
0.09
  9
$DIMTSZ
 40
0.0
  9
$DIMTOL
 70
     0
  9
$DIMLIM
 70
     0
  9
$DIMTIH
 70
     1
  9
$DIMTOH
 70
     1
  9
$DIMSE1
 70
     0
  9
$DIMSE2
 70
     0
  9
$DIMTAD
 70
     1
  9
$DIMZIN
 70
     0
  9
$DIMBLK
  1

  9
$DIMASO
 70
     0
  9
$DIMSHO
 70
     1
  9
$DIMPOST
  1

  9
$DIMAPOST
  1

  9
$DIMALT
 70
     0
  9
$DIMALTD
 70
     2
  9
$DIMALTF
 40
1.0
  9
$DIMLFAC
 40
1.0
  9
$DIMTOFL
 70
     1
  9
$DIMTVP
 40
0.0
  9
$DIMTIX
 70
     0
  9
$DIMSOXD
 70
     0
  9
$DIMSAH
 70
     0
  9
$DIMBLK1
  1

  9
$DIMBLK2
  1

  9
$DIMSTYLE
  2
STANDARD
  9
$DIMCLRD
 70
     7
  9
$DIMCLRE
 70
     7
  9
$DIMCLRT
 70
     7
  9
$DIMTFAC
 40
1.0
  9
$DIMGAP
 40
2.0
  9
$DIMJUST
 70
     0
  9
$DIMSD1
 70
     0
  9
$DIMSD2
 70
     0
  9
$DIMTOLJ
 70
     1
  9
$DIMTZIN
 70
     0
  9
$DIMALTZ
 70
     0
  9
$DIMALTTZ
 70
     0
  9
$DIMUPT
 70
     0
  9
$DIMDEC
 70
     2
  9
$DIMTDEC
 70
     2
  9
$DIMALTU
 70
     2
  9
$DIMALTTD
 70
     2
  9
$DIMTXSTY
  7
STANDARD
  9
$DIMAUNIT
 70
     0
  9
$DIMADEC
 70
     2
  9
$DIMALTRND
 40
0.0
  9
$DIMAZIN
 70
     0
  9
$DIMDSEP
 70
     0
  9
$DIMATFIT
 70
     0
  9
$DIMFRAC
 70
     0
  9
$DIMLDRBLK
  1

  9
$DIMLUNIT
 70
     2
  9
$DIMLWD
 70
     0
  9
$DIMLWE
 70
     0
  9
$DIMTMOVE
 70
     0
  9
$LUNITS
 70
     2
  9
$LUPREC
 70
     2
  9
$SKETCHINC
 40
1.0
  9
$FILLETRAD
 40
1.0
  9
$AUNITS
 70
     0
  9
$AUPREC
 70
     2
  9
$MENU
  1
acad
  9
$ELEVATION
 40
0.0
  9
$PELEVATION
 40
0.0
  9
$THICKNESS
 40
0.0
  9
$LIMCHECK
 70
     0
  9
$CHAMFERA
 40
0.0
  9
$CHAMFERB
 40
0.0
  9
$CHAMFERC
 40
0.0
  9
$CHAMFERD
 40
0.0
  9
$SKPOLY
 70
     0
  9
$TDCREATE
 40
0.000000000
  9
$TDUCREATE
 40
0.000000000
  9
$TDUPDATE
 40
2449702.667959363
  9
$TDUUPDATE
 40
0.000000000
  9
$TDINDWG
 40
0.0000000000
  9
$TDUSRTIMER
 40
0.0000000000
  9
$USRTIMER
 70
     1
  9
$ANGBASE
 50
0.0
  9
$ANGDIR
 70
     0
  9
$PDMODE
 70
     0
  9
$PDSIZE
 40
0.0
  9
$PLINEWID
 40
0.0
  9
$SPLFRAME
 70
     0
  9
$SPLINETYPE
 70
     5
  9
$SPLINESEGS
 70
    20
  9
$HANDSEED
  5
14E
  9
$SURFTAB1
 70
     6
  9
$SURFTAB2
 70
     6
  9
$SURFTYPE
 70
     6
  9
$SURFU
 70
     6
  9
$SURFV
 70
     6
  9
$UCSBASE
  2

  9
$UCSNAME
  2

  9
$UCSORG
 10
0.0
 20
0.0
 30
0.0
  9
$UCSXDIR
 10
1.0
 20
0.0
 30
0.0
  9
$UCSYDIR
 10
0.0
 20
1.0
 30
0.0
  9
$UCSORTHOREF
  2

  9
$UCSORTHOVIEW
 70
     0
  9
$UCSORGTOP
 10
0.0
 20
0.0
 30
0.0
  9
$UCSORGBOTTOM
 10
0.0
 20
0.0
 30
0.0
  9
$UCSORGLEFT
 10
0.0
 20
0.0
 30
0.0
  9
$UCSORGRIGHT
 10
0.0
 20
0.0
 30
0.0
  9
$UCSORGFRONT
 10
0.0
 20
0.0
 30
0.0
  9
$UCSORGBACK
 10
0.0
 20
0.0
 30
0.0
  9
$PUCSBASE
  2

  9
$PUCSNAME
  2

  9
$PUCSORG
 10
0.0
 20
0.0
 30
0.0
  9
$PUCSXDIR
 10
1.0
 20
0.0
 30
0.0
  9
$PUCSYDIR
 10
0.0
 20
1.0
 30
0.0
  9
$PUCSORTHOREF
  2

  9
$PUCSORTHOVIEW
 70
     0
  9
$PUCSORGTOP
 10
0.0
 20
0.0
 30
0.0
  9
$PUCSORGBOTTOM
 10
0.0
 20
0.0
 30
0.0
  9
$PUCSORGLEFT
 10
0.0
 20
0.0
 30
0.0
  9
$PUCSORGRIGHT
 10
0.0
 20
0.0
 30
0.0
  9
$PUCSORGFRONT
 10
0.0
 20
0.0
 30
0.0
  9
$PUCSORGBACK
 10
0.0
 20
0.0
 30
0.0
  9
$USERI1
 70
     0
  9
$USERI2
 70
     0
  9
$USERI3
 70
     0
  9
$USERI4
 70
     0
  9
$USERI5
 70
     0
  9
$USERR1
 40
0.0
  9
$USERR2
 40
0.0
  9
$USERR3
 40
0.0
  9
$USERR4
 40
0.0
  9
$USERR5
 40
0.0
  9
$WORLDVIEW
 70
     1
  9
$SHADEDGE
 70
     3
  9
$SHADEDIF
 70
    70
  9
$TILEMODE
 70
     1
  9
$MAXACTVP
 70
    16
  9
$PINSBASE
 10
0.0
 20
0.0
 30
0.0
  9
$PLIMCHECK
 70
     0
  9
$PEXTMIN
 10
0.0
 20
0.0
 30
0.0
  9
$PEXTMAX
 10
0.0
 20
0.0
 30
0.0
  9
$PLIMMIN
 10
0.0
 20
0.0
  9
$PLIMMAX
 10
0.0
 20
0.0
  9
$UNITMODE
 70
     0
  9
$VISRETAIN
 70
     0
  9
$PLINEGEN
 70
     1
  9
$PSLTSCALE
 70
     1
  9
$TREEDEPTH
 70
  3020
  9
$CMLSTYLE
  2
STANDARD
  9
$CMLJUST
 70
     0
  9
$CMLSCALE
 40
1.0
  9
$PROXYGRAPHICS
 70
     0
  9
$MEASUREMENT
 70
     0
  9
$CELWEIGHT
370
     0
  9
$ENDCAPS
280
     0
  9
$JOINSTYLE
280
     0
  9
$LWDISPLAY
290
     0
  9
$INSUNITS
 70
     0
  9
$HYPERLINKBASE
  1

  9
$XEDIT
290
     1
  9
$CEPSNTYPE
380
     0
  9
$PSTYLEMODE
290
     1
  9
$FINGERPRINTGUID
  2

  9
$VERSIONGUID
  2

  9
$EXTNAMES
290
     1
  9
$PSVPSCALE
 40
0.0
  0
ENDSEC
  0
SECTION
  2
CLASSES
  0
CLASS
  1
LWPOLYLINE
  2
AcDbPolyline
  3
AutoCAD 2000
 90
    32768
280
     0
281
     1
  0
CLASS
  1
IMAGE
  2
AcDbRasterImage
  3
ISM
 90
    32895
280
     0
281
     1
  0
CLASS
  1
OLE2FRAME
  2
AcDbOle2Frame
  3
AutoCAD 2000
 90
    32768
280
     0
281
     1
  0
CLASS
  1
HATCH
  2
AcDbHatch
  3
AutoCAD 2000
 90
    32768
280
     0
281
     1
  0
CLASS
  1
DICTIONARYVAR
  2
AcDbDictionaryVar
  3
AutoCAD 2000
 90
    32768
280
     0
281
     0
  0
CLASS
  1
RASTERVARIABLES
  2
AcDbRasterVariables
  3
ISM
 90
    32768
280
     0
281
     0
  0
CLASS
  1
IMAGEDEF
  2
AcDbRasterImageDef
  3
ISM
 90
    32768
280
     0
281
     0
  0
CLASS
  1
IMAGEDEF_REACTOR
  2
AcDbRasterImageDefReactor
  3
ISM
 90
    32769
280
     0
281
     0
  0
CLASS
  1
IDBUFFER
  2
AcDbIdBuffer
  3
AutoCAD 2000
 90
    32768
280
     0
281
     0
  0
CLASS
  1
SPATIAL_FILTER
  2
AcDbSpatialFilter
  3
AutoCAD 2000
 90
    32768
280
     0
281
     0
  0
CLASS
  1
XRECORD
  2
AcDbXrecord
  3
AutoCAD 2000
 90
    32768
280
     0
281
     0
  0
CLASS
  1
SORTENTSTABLE
  2
AcDbSortentsTable
  3
AutoCAD 2000
 90
    32768
280
     0
281
     0
  0
CLASS
  1
LAYER_INDEX
  2
AcDbLayerIndex
  3
AutoCAD 2000
 90
    32768
280
     0
281
     0
  0
CLASS
  1
SPATIAL_INDEX
  2
AcDbSpatialIndex
  3
AutoCAD 2000
 90
    32768
280
     0
281
     0
  0
CLASS
  1
OBJECT_PTR
  2
CAseDLPNTableRecord
  3
"ASE-LPNTableRecord"
 90
    32769
280
     0
281
     0
  0
CLASS
  1
LAYOUT
  2
AcDbLayout
  3
AutoCAD 2000
 90
        0
280
     0
281
     0
  0
CLASS
  1
PLOTSETTINGS
  2
AcDbPlotSettings
  3
AutoCAD 2000
 90
    32768
280
     0
281
     0
  0
CLASS
  1
ACDBDICTIONARYWDFLT
  2
AcDbDictionaryWithDefault
  3
AutoCAD 2000
 90
        0
280
     0
281
     0
  0
CLASS
  1
ACDBPLACEHOLDER
  2
AcDbPlaceHolder
  3
AutoCAD 2000
 90
        0
280
     0
281
     0
  0
ENDSEC
  0
SECTION
  2
TABLES
  0
TABLE
  2
VPORT
  5
7
100
AcDbSymbolTable
 70
     1
  0
VPORT
  5
15
100
AcDbSymbolTableRecord
100
AcDbViewportTableRecord
  2
*ACTIVE
 70
     0
 10
0.0
 20
0.0
 11
1.0
 21
1.0
 12
0.0
 22
0.0
 13
0.0
 23
0.0
 14
5.0
 24
5.0
 15
5.0
 25
5.0
 16
0.0
 26
0.0
 36
1.0
 17
250.124272
 27
40.310792
 37
0.0
 40
246.959137
 41
2.232143
 42
50.0
 43
0.0
 44
0.0
 50
0.0
 51
0.0
 71
     0
 72
   100
 73
     1
 74
     1
 75
     0
 76
     0
 77
     0
 78
     0
281
     0
 65
     0
110
0.0
120
0.0
130
0.0
111
1.0
121
0.0
131
0.0
112
0.0
122
1.0
132
0.0
345
0
346
0
 79
     0
146
0.0
  0
ENDTAB
  0
TABLE
  2
LTYPE
  5
4
100
AcDbSymbolTable
 70
    14
  0
LTYPE
  5
11
100
AcDbSymbolTableRecord
100
AcDbLinetypeTableRecord
  2
ByBlock
 70
    64
  3

 72
    65
 73
     0
 40
0.0
  0
LTYPE
  5
12
100
AcDbSymbolTableRecord
100
AcDbLinetypeTableRecord
  2
ByLayer
 70
    64
  3

 72
    65
 73
     0
 40
0.0
  0
LTYPE
  5
13
100
AcDbSymbolTableRecord
100
AcDbLinetypeTableRecord
  2
Continuous
 70
    64
  3
Solid line
 72
    65
 73
     0
 40
0.0
  0
LTYPE
  5
24
100
AcDbSymbolTableRecord
100
AcDbLinetypeTableRecord
  2
BORDER
 70
     0
  3
BORDER
 72
    65
 73
     6
 40
1.75
 49
0.5
 74
     0
 49
-0.25
 74
     0
 49
0.5
 74
     0
 49
-0.25
 74
     0
 49
0.0
 74
     0
 49
-0.25
 74
     0
  0
LTYPE
  5
25
100
AcDbSymbolTableRecord
100
AcDbLinetypeTableRecord
  2
CENTER
 70
     0
  3
CENTER
 72
    65
 73
     4
 40
2.0
 49
1.25
 74
     0
 49
-0.25
 74
     0
 49
0.25
 74
     0
 49
-0.25
 74
     0
  0
LTYPE
  5
26
100
AcDbSymbolTableRecord
100
AcDbLinetypeTableRecord
  2
DASHDOT
 70
     0
  3
DASHDOT
 72
    65
 73
     4
 40
1.0
 49
0.5
 74
     0
 49
-0.25
 74
     0
 49
0.0
 74
     0
 49
-0.25
 74
     0
  0
LTYPE
  5
27
100
AcDbSymbolTableRecord
100
AcDbLinetypeTableRecord
  2
DASHED
 70
     0
  3
DASHED
 72
    65
 73
     2
 40
0.75
 49
0.5
 74
     0
 49
-0.25
 74
     0
  0
LTYPE
  5
28
100
AcDbSymbolTableRecord
100
AcDbLinetypeTableRecord
  2
DIVIDE
 70
     0
  3
DIVIDE
 72
    65
 73
     6
 40
1.25
 49
0.5
 74
     0
 49
-0.25
 74
     0
 49
0.0
 74
     0
 49
-0.25
 74
     0
 49
0.0
 74
     0
 49
-0.25
 74
     0
  0
LTYPE
  5
29
100
AcDbSymbolTableRecord
100
AcDbLinetypeTableRecord
  2
DOT
 70
     0
  3
DOT
 72
    65
 73
     2
 40
0.25
 49
0.0
 74
     0
 49
-0.25
 74
     0
  0
LTYPE
  5
2A
100
AcDbSymbolTableRecord
100
AcDbLinetypeTableRecord
  2
HIDDEN
 70
     0
  3
HIDDEN
 72
    65
 73
     2
 40
0.375
 49
0.25
 74
     0
 49
-0.125
 74
     0
  0
LTYPE
  5
2B
100
AcDbSymbolTableRecord
100
AcDbLinetypeTableRecord
  2
PHANTOM
 70
     0
  3
PHANTOM
 72
    65
 73
     6
 40
2.5
 49
1.25
 74
     0
 49
-0.25
 74
     0
 49
0.25
 74
     0
 49
-0.25
 74
     0
 49
0.25
 74
     0
 49
-0.25
 74
     0
  0
LTYPE
  5
2C
100
AcDbSymbolTableRecord
100
AcDbLinetypeTableRecord
  2
$INVISIBLE
 70
     0
  3
$INVISIBLE
 72
    65
 73
     2
 40
200.0
 49
-100.0
 74
     0
 49
-100.0
 74
     0
  0
LTYPE
  5
2D
100
AcDbSymbolTableRecord
100
AcDbLinetypeTableRecord
  2
$SNAPEXT
 70
     0
  3
$SNAPEXT
 72
    65
 73
     2
 40
0.04
 49
0.02
 74
     0
 49
-0.02
 74
     0
  0
LTYPE
  5
2E
100
AcDbSymbolTableRecord
100
AcDbLinetypeTableRecord
  2
$AUXILIARY
 70
     0
  3
$AUXILIARY
 72
    65
 73
     2
 40
0.1
 49
0.05
 74
     0
 49
-0.05
 74
     0
  0
ENDTAB
  0
TABLE
  2
LAYER
  5
2
100
AcDbSymbolTable
 70
     1
  0
LAYER
  5
14
100
AcDbSymbolTableRecord
100
AcDbLayerTableRecord
  2
0
 70
     0
 62
     7
  6
Continuous
290
     1
370
    -3
390
0
1001
TCAD
1000
TCW_LAYER_ORDER
1002
{
1071
        0
1002
}
  0
ENDTAB
  0
TABLE
  2
STYLE
  5
3
100
AcDbSymbolTable
 70
     1
  0
STYLE
  5
17
100
AcDbSymbolTableRecord
100
AcDbTextStyleTableRecord
  2
STANDARD
 70
     0
 40
0.0
 41
1.0
 50
0.0
 71
     0
 42
3.0
  3
TIMES.TTF
  4

1001
ACAD
1000
Times New Roman
1071
      290
  0
ENDTAB
  0
TABLE
  2
VIEW
  5
5
100
AcDbSymbolTable
 70
     1
  0
VIEW
  5
2F
100
AcDbSymbolTableRecord
100
AcDbViewTableRecord
  2
Vue_0
 70
     0
 40
210.0
 10
148.5
 20
105.0
 41
297.0
 11
0.0
 21
0.0
 31
1.0
 12
0.0
 22
0.0
 32
0.0
 42
50.0
 43
0.0
 44
0.0
 50
0.0
 71
     0
281
     0
 72
     0
110
0.0
120
0.0
130
0.0
111
1.0
121
0.0
131
0.0
112
0.0
122
1.0
132
0.0
  0
ENDTAB
  0
TABLE
  2
UCS
  5
6
100
AcDbSymbolTable
 70
     0
  0
ENDTAB
  0
TABLE
  2
APPID
  5
8
100
AcDbSymbolTable
 70
     2
  0
APPID
  5
16
100
AcDbSymbolTableRecord
100
AcDbRegAppTableRecord
  2
ACAD
 70
     0
  0
APPID
  5
23
100
AcDbSymbolTableRecord
100
AcDbRegAppTableRecord
  2
TCAD
 70
     0
  0
ENDTAB
  0
TABLE
  2
DIMSTYLE
  5
9
100
AcDbSymbolTable
 70
     1
100
AcDbDimStyleTable
 71
     0
  0
DIMSTYLE
105
18
100
AcDbSymbolTableRecord
100
AcDbDimStyleTableRecord
  2
STANDARD
 70
     0
  3

  4

 40
1.0
 41
3.0
 42
1.0
 43
7.5
 44
2.0
 45
0.01
 46
0.0
 47
0.0
 48
0.0
 71
     0
 72
     0
 73
     1
 74
     1
 75
     0
 76
     0
 77
     1
 78
     0
 79
     0
140
3.0
141
0.09
142
0.0
143
1.0
144
1.0
145
0.0
146
1.0
147
2.0
148
0.01
170
     0
171
     2
172
     1
173
     0
174
     0
175
     0
176
     7
177
     7
178
     7
179
     2
271
     2
272
     2
273
     2
274
     2
275
     0
276
     0
277
     2
278
    46
279
     0
280
     0
281
     0
282
     0
283
     1
284
     0
285
     0
286
     0
288
     0
340
17
341
0
342
0
343
0
344
0
371
    -2
372
    -2
  0
ENDTAB
  0
TABLE
  2
BLOCK_RECORD
  5
1
100
AcDbSymbolTable
 70
     0
  0
BLOCK_RECORD
  5
A
100
AcDbSymbolTableRecord
100
AcDbBlockTableRecord
  2
*MODEL_SPACE
340
14C
  0
BLOCK_RECORD
  5
B
100
AcDbSymbolTableRecord
100
AcDbBlockTableRecord
  2
*PAPER_SPACE
340
14D
  0
ENDTAB
  0
ENDSEC
  0
SECTION
  2
BLOCKS
  0
BLOCK
  5
D
100
AcDbEntity
  8
0
100
AcDbBlockBegin
  2
*MODEL_SPACE
 70
     0
 10
0.0
 20
0.0
 30
0.0
  3
*MODEL_SPACE
  1

  0
ENDBLK
  5
E
100
AcDbEntity
  8
0
100
AcDbBlockEnd
  0
BLOCK
  5
F
100
AcDbEntity
 67
     1
  8
0
100
AcDbBlockBegin
  2
*PAPER_SPACE
 70
     0
 10
0.0
 20
0.0
 30
0.0
  3
*PAPER_SPACE
  1

  0
ENDBLK
  5
10
100
AcDbEntity
 67
     1
  8
0
100
AcDbBlockEnd
  0
ENDSEC
  0
SECTION
  2
ENTITIES
  0
LINE
  5
30
100
AcDbEntity
  8
0
  6
Continuous
100
AcDbLine
 10
113.604542
 20
107.926351
 30
0.0
 11
115.151203
 21
108.249562
 31
0.0
  0
LINE
  5
31
100
AcDbEntity
  8
0
  6
Continuous
100
AcDbLine
 10
115.151203
 20
108.249562
 30
0.0
 11
119.800632
 21
109.158874
 31
0.0
  0
LINE
  5
32
100
AcDbEntity
  8
0
  6
Continuous
100
AcDbLine
 10
119.800632
 20
109.158874
 30
0.0
 11
125.557407
 21
110.158805
 31
0.0
  0
LINE
  5
33
100
AcDbEntity
  8
0
  6
Continuous
100
AcDbLine
 10
125.557407
 20
110.158805
 30
0.0
 11
130.866962
 21
110.955953
 31
0.0
  0
LINE
  5
34
100
AcDbEntity
  8
0
  6
Continuous
100
AcDbLine
 10
130.866962
 20
110.955953
 30
0.0
 11
136.164081
 21
111.630992
 31
0.0
  0
LINE
  5
35
100
AcDbEntity
  8
0
  6
Continuous
100
AcDbLine
 10
136.164081
 20
111.630992
 30
0.0
 11
141.466358
 21
112.186912
 31
0.0
  0
LINE
  5
36
100
AcDbEntity
  8
0
  6
Continuous
100
AcDbLine
 10
141.466358
 20
112.186912
 30
0.0
 11
146.089527
 21
112.572696
 31
0.0
  0
LINE
  5
37
100
AcDbEntity
  8
0
  6
Continuous
100
AcDbLine
 10
146.089527
 20
112.572696
 30
0.0
 11
150.719013
 21
112.866
 31
0.0
  0
LINE
  5
38
100
AcDbEntity
  8
0
  6
Continuous
100
AcDbLine
 10
150.719013
 20
112.866
 30
0.0
 11
155.995518
 21
113.088304
 31
0.0
  0
LINE
  5
39
100
AcDbEntity
  8
0
  6
Continuous
100
AcDbLine
 10
155.995518
 20
113.088304
 30
0.0
 11
161.272602
 21
113.189775
 31
0.0
  0
LINE
  5
3A
100
AcDbEntity
  8
0
  6
Continuous
100
AcDbLine
 10
161.272602
 20
113.189775
 30
0.0
 11
166.539966
 21
113.169944
 31
0.0
  0
LINE
  5
3B
100
AcDbEntity
  8
0
  6
Continuous
100
AcDbLine
 10
166.539966
 20
113.169944
 30
0.0
 11
172.242756
 21
113.019635
 31
0.0
  0
LINE
  5
3C
100
AcDbEntity
  8
0
  6
Continuous
100
AcDbLine
 10
172.242756
 20
113.019635
 30
0.0
 11
176.844105
 21
112.791352
 31
0.0
  0
LINE
  5
3D
100
AcDbEntity
  8
0
  6
Continuous
100
AcDbLine
 10
176.844105
 20
112.791352
 30
0.0
 11
181.005192
 21
112.482621
 31
0.0
  0
LINE
  5
3E
100
AcDbEntity
  8
0
  6
Continuous
100
AcDbLine
 10
181.005192
 20
112.482621
 30
0.0
 11
184.939869
 21
112.071765
 31
0.0
  0
LINE
  5
3F
100
AcDbEntity
  8
0
  6
Continuous
100
AcDbLine
 10
184.939869
 20
112.071765
 30
0.0
 11
188.20969
 21
111.614612
 31
0.0
  0
LINE
  5
40
100
AcDbEntity
  8
0
  6
Continuous
100
AcDbLine
 10
188.20969
 20
111.614612
 30
0.0
 11
190.826267
 21
111.145804
 31
0.0
  0
LINE
  5
41
100
AcDbEntity
  8
0
  6
Continuous
100
AcDbLine
 10
190.826267
 20
111.145804
 30
0.0
 11
192.891483
 21
110.677686
 31
0.0
  0
LINE
  5
42
100
AcDbEntity
  8
0
  6
Continuous
100
AcDbLine
 10
192.891483
 20
110.677686
 30
0.0
 11
195.171863
 21
110.039323
 31
0.0
  0
LINE
  5
43
100
AcDbEntity
  8
0
  6
Continuous
100
AcDbLine
 10
195.171863
 20
110.039323
 30
0.0
 11
197.328373
 21
109.32491
 31
0.0
  0
LINE
  5
44
100
AcDbEntity
  8
0
  6
Continuous
100
AcDbLine
 10
197.328373
 20
109.32491
 30
0.0
 11
199.268665
 21
108.578923
 31
0.0
  0
LINE
  5
45
100
AcDbEntity
  8
0
  6
Continuous
100
AcDbLine
 10
199.268665
 20
108.578923
 30
0.0
 11
200.879474
 21
107.847503
 31
0.0
  0
LINE
  5
46
100
AcDbEntity
  8
0
  6
Continuous
100
AcDbLine
 10
200.879474
 20
107.847503
 30
0.0
 11
202.363666
 21
107.063214
 31
0.0
  0
LINE
  5
47
100
AcDbEntity
  8
0
  6
Continuous
100
AcDbLine
 10
202.363666
 20
107.063214
 30
0.0
 11
203.445774
 21
106.386851
 31
0.0
  0
LINE
  5
48
100
AcDbEntity
  8
0
  6
Continuous
100
AcDbLine
 10
203.445774
 20
106.386851
 30
0.0
 11
204.224369
 21
105.795901
 31
0.0
  0
LINE
  5
49
100
AcDbEntity
  8
0
  6
Continuous
100
AcDbLine
 10
204.224369
 20
105.795901
 30
0.0
 11
205.063663
 21
105.023564
 31
0.0
  0
LINE
  5
4A
100
AcDbEntity
  8
0
  6
Continuous
100
AcDbLine
 10
205.063663
 20
105.023564
 30
0.0
 11
205.486469
 21
104.502652
 31
0.0
  0
LINE
  5
4B
100
AcDbEntity
  8
0
  6
Continuous
100
AcDbLine
 10
205.486469
 20
104.502652
 30
0.0
 11
205.619678
 21
104.244523
 31
0.0
  0
LINE
  5
4C
100
AcDbEntity
  8
0
  6
Continuous
100
AcDbLine
 10
205.619678
 20
104.244523
 30
0.0
 11
205.633869
 21
103.829045
 31
0.0
  0
LINE
  5
4D
100
AcDbEntity
  8
0
  6
Continuous
100
AcDbLine
 10
205.633869
 20
103.829045
 30
0.0
 11
205.525562
 21
103.619622
 31
0.0
  0
LINE
  5
4E
100
AcDbEntity
  8
0
  6
Continuous
100
AcDbLine
 10
205.525562
 20
103.619622
 30
0.0
 11
205.166462
 21
103.409513
 31
0.0
  0
LINE
  5
4F
100
AcDbEntity
  8
0
  6
Continuous
100
AcDbLine
 10
205.166462
 20
103.409513
 30
0.0
 11
204.452564
 21
103.199351
 31
0.0
  0
LINE
  5
50
100
AcDbEntity
  8
0
  6
Continuous
100
AcDbLine
 10
204.452564
 20
103.199351
 30
0.0
 11
203.939472
 21
103.144071
 31
0.0
  0
LINE
  5
51
100
AcDbEntity
  8
0
  6
Continuous
100
AcDbLine
 10
203.939472
 20
103.144071
 30
0.0
 11
202.976459
 21
103.177472
 31
0.0
  0
LINE
  5
52
100
AcDbEntity
  8
0
  6
Continuous
100
AcDbLine
 10
202.976459
 20
103.177472
 30
0.0
 11
198.707264
 21
103.593011
 31
0.0
  0
LINE
  5
53
100
AcDbEntity
  8
0
  6
Continuous
100
AcDbLine
 10
198.707264
 20
103.593011
 30
0.0
 11
195.107975
 21
104.130166
 31
0.0
  0
LINE
  5
54
100
AcDbEntity
  8
0
  6
Continuous
100
AcDbLine
 10
195.107975
 20
104.130166
 30
0.0
 11
185.957981
 21
105.619931
 31
0.0
  0
LINE
  5
55
100
AcDbEntity
  8
0
  6
Continuous
100
AcDbLine
 10
185.957981
 20
105.619931
 30
0.0
 11
180.72472
 21
106.375012
 31
0.0
  0
LINE
  5
56
100
AcDbEntity
  8
0
  6
Continuous
100
AcDbLine
 10
180.72472
 20
106.375012
 30
0.0
 11
174.173099
 21
107.177285
 31
0.0
  0
LINE
  5
57
100
AcDbEntity
  8
0
  6
Continuous
100
AcDbLine
 10
174.173099
 20
107.177285
 30
0.0
 11
168.925297
 21
107.693246
 31
0.0
  0
LINE
  5
58
100
AcDbEntity
  8
0
  6
Continuous
100
AcDbLine
 10
168.925297
 20
107.693246
 30
0.0
 11
164.33115
 21
108.030942
 31
0.0
  0
LINE
  5
59
100
AcDbEntity
  8
0
  6
Continuous
100
AcDbLine
 10
164.33115
 20
108.030942
 30
0.0
 11
155.788837
 21
108.518243
 31
0.0
  0
LINE
  5
5A
100
AcDbEntity
  8
0
  6
Continuous
100
AcDbLine
 10
155.788837
 20
108.518243
 30
0.0
 11
150.529392
 21
108.730445
 31
0.0
  0
LINE
  5
5B
100
AcDbEntity
  8
0
  6
Continuous
100
AcDbLine
 10
150.529392
 20
108.730445
 30
0.0
 11
145.261524
 21
108.805602
 31
0.0
  0
LINE
  5
5C
100
AcDbEntity
  8
0
  6
Continuous
100
AcDbLine
 10
145.261524
 20
108.805602
 30
0.0
 11
138.232303
 21
108.740695
 31
0.0
  0
LINE
  5
5D
100
AcDbEntity
  8
0
  6
Continuous
100
AcDbLine
 10
138.232303
 20
108.740695
 30
0.0
 11
132.078098
 21
108.563035
 31
0.0
  0
LINE
  5
5E
100
AcDbEntity
  8
0
  6
Continuous
100
AcDbLine
 10
132.078098
 20
108.563035
 30
0.0
 11
126.793873
 21
108.311572
 31
0.0
  0
LINE
  5
5F
100
AcDbEntity
  8
0
  6
Continuous
100
AcDbLine
 10
126.793873
 20
108.311572
 30
0.0
 11
120.186878
 21
107.866851
 31
0.0
  0
LINE
  5
60
100
AcDbEntity
  8
0
  6
Continuous
100
AcDbLine
 10
120.186878
 20
107.866851
 30
0.0
 11
113.577869
 21
107.282062
 31
0.0
  0
LINE
  5
61
100
AcDbEntity
  8
0
  6
Continuous
100
AcDbLine
 10
113.577869
 20
107.282062
 30
0.0
 11
113.598438
 21
107.778447
 31
0.0
  0
LINE
  5
62
100
AcDbEntity
  8
0
  6
Continuous
100
AcDbLine
 10
113.598438
 20
107.778447
 30
0.0
 11
91.557972
 21
103.605964
 31
0.0
  0
LINE
  5
63
100
AcDbEntity
  8
0
  6
Continuous
100
AcDbLine
 10
91.557972
 20
103.605964
 30
0.0
 11
91.366123
 21
97.544682
 31
0.0
  0
LINE
  5
64
100
AcDbEntity
  8
0
  6
Continuous
100
AcDbLine
 10
91.366123
 20
97.544682
 30
0.0
 11
93.050922
 21
97.455044
 31
0.0
  0
LINE
  5
65
100
AcDbEntity
  8
0
  6
Continuous
100
AcDbLine
 10
93.050922
 20
97.455044
 30
0.0
 11
94.578907
 21
97.85735
 31
0.0
  0
LINE
  5
66
100
AcDbEntity
  8
0
  6
Continuous
100
AcDbLine
 10
94.578907
 20
97.85735
 30
0.0
 11
99.175449
 21
99.004507
 31
0.0
  0
LINE
  5
67
100
AcDbEntity
  8
0
  6
Continuous
100
AcDbLine
 10
99.175449
 20
99.004507
 30
0.0
 11
104.873203
 21
100.299085
 31
0.0
  0
LINE
  5
68
100
AcDbEntity
  8
0
  6
Continuous
100
AcDbLine
 10
104.873203
 20
100.299085
 30
0.0
 11
110.134723
 21
101.368177
 31
0.0
  0
LINE
  5
69
100
AcDbEntity
  8
0
  6
Continuous
100
AcDbLine
 10
110.134723
 20
101.368177
 30
0.0
 11
115.39014
 21
102.314673
 31
0.0
  0
LINE
  5
6A
100
AcDbEntity
  8
0
  6
Continuous
100
AcDbLine
 10
115.39014
 20
102.314673
 30
0.0
 11
120.656833
 21
103.142463
 31
0.0
  0
LINE
  5
6B
100
AcDbEntity
  8
0
  6
Continuous
100
AcDbLine
 10
120.656833
 20
103.142463
 30
0.0
 11
125.254093
 21
103.765435
 31
0.0
  0
LINE
  5
6C
100
AcDbEntity
  8
0
  6
Continuous
100
AcDbLine
 10
125.254093
 20
103.765435
 30
0.0
 11
129.862324
 21
104.296372
 31
0.0
  0
LINE
  5
6D
100
AcDbEntity
  8
0
  6
Continuous
100
AcDbLine
 10
129.862324
 20
104.296372
 30
0.0
 11
135.120426
 21
104.789664
 31
0.0
  0
LINE
  5
6E
100
AcDbEntity
  8
0
  6
Continuous
100
AcDbLine
 10
135.120426
 20
104.789664
 30
0.0
 11
140.385303
 21
105.162311
 31
0.0
  0
LINE
  5
6F
100
AcDbEntity
  8
0
  6
Continuous
100
AcDbLine
 10
140.385303
 20
105.162311
 30
0.0
 11
145.646763
 21
105.413331
 31
0.0
  0
LINE
  5
70
100
AcDbEntity
  8
0
  6
Continuous
100
AcDbLine
 10
145.646763
 20
105.413331
 30
0.0
 11
151.349705
 21
105.556413
 31
0.0
  0
LINE
  5
71
100
AcDbEntity
  8
0
  6
Continuous
100
AcDbLine
 10
151.349705
 20
105.556413
 30
0.0
 11
155.95673
 21
105.565015
 31
0.0
  0
LINE
  5
72
100
AcDbEntity
  8
0
  6
Continuous
100
AcDbLine
 10
155.95673
 20
105.565015
 30
0.0
 11
160.128193
 21
105.470645
 31
0.0
  0
LINE
  5
73
100
AcDbEntity
  8
0
  6
Continuous
100
AcDbLine
 10
160.128193
 20
105.470645
 30
0.0
 11
164.078769
 21
105.262595
 31
0.0
  0
LINE
  5
74
100
AcDbEntity
  8
0
  6
Continuous
100
AcDbLine
 10
164.078769
 20
105.262595
 30
0.0
 11
167.367695
 21
104.974174
 31
0.0
  0
LINE
  5
75
100
AcDbEntity
  8
0
  6
Continuous
100
AcDbLine
 10
167.367695
 20
104.974174
 30
0.0
 11
170.004963
 21
104.640512
 31
0.0
  0
LINE
  5
76
100
AcDbEntity
  8
0
  6
Continuous
100
AcDbLine
 10
170.004963
 20
104.640512
 30
0.0
 11
172.091526
 21
104.279203
 31
0.0
  0
LINE
  5
77
100
AcDbEntity
  8
0
  6
Continuous
100
AcDbLine
 10
172.091526
 20
104.279203
 30
0.0
 11
174.401691
 21
103.758912
 31
0.0
  0
LINE
  5
78
100
AcDbEntity
  8
0
  6
Continuous
100
AcDbLine
 10
174.401691
 20
103.758912
 30
0.0
 11
176.592106
 21
103.156354
 31
0.0
  0
LINE
  5
79
100
AcDbEntity
  8
0
  6
Continuous
100
AcDbLine
 10
176.592106
 20
103.156354
 30
0.0
 11
178.568195
 21
102.511104
 31
0.0
  0
LINE
  5
7A
100
AcDbEntity
  8
0
  6
Continuous
100
AcDbLine
 10
178.568195
 20
102.511104
 30
0.0
 11
180.214496
 21
101.863456
 31
0.0
  0
LINE
  5
7B
100
AcDbEntity
  8
0
  6
Continuous
100
AcDbLine
 10
180.214496
 20
101.863456
 30
0.0
 11
181.737079
 21
101.156518
 31
0.0
  0
LINE
  5
7C
100
AcDbEntity
  8
0
  6
Continuous
100
AcDbLine
 10
181.737079
 20
101.156518
 30
0.0
 11
182.852482
 21
100.536682
 31
0.0
  0
LINE
  5
7D
100
AcDbEntity
  8
0
  6
Continuous
100
AcDbLine
 10
182.852482
 20
100.536682
 30
0.0
 11
183.66045
 21
99.986547
 31
0.0
  0
LINE
  5
7E
100
AcDbEntity
  8
0
  6
Continuous
100
AcDbLine
 10
183.66045
 20
99.986547
 30
0.0
 11
184.538379
 21
99.258385
 31
0.0
  0
LINE
  5
7F
100
AcDbEntity
  8
0
  6
Continuous
100
AcDbLine
 10
184.538379
 20
99.258385
 30
0.0
 11
184.9874
 21
98.759903
 31
0.0
  0
LINE
  5
80
100
AcDbEntity
  8
0
  6
Continuous
100
AcDbLine
 10
184.9874
 20
98.759903
 30
0.0
 11
185.133671
 21
98.508952
 31
0.0
  0
LINE
  5
81
100
AcDbEntity
  8
0
  6
Continuous
100
AcDbLine
 10
185.133671
 20
98.508952
 30
0.0
 11
185.169147
 21
98.094751
 31
0.0
  0
LINE
  5
82
100
AcDbEntity
  8
0
  6
Continuous
100
AcDbLine
 10
185.169147
 20
98.094751
 30
0.0
 11
185.071811
 21
97.880049
 31
0.0
  0
LINE
  5
83
100
AcDbEntity
  8
0
  6
Continuous
100
AcDbLine
 10
185.071811
 20
97.880049
 30
0.0
 11
184.724018
 21
97.651761
 31
0.0
  0
LINE
  5
84
100
AcDbEntity
  8
0
  6
Continuous
100
AcDbLine
 10
184.724018
 20
97.651761
 30
0.0
 11
184.021808
 21
97.405166
 31
0.0
  0
LINE
  5
85
100
AcDbEntity
  8
0
  6
Continuous
100
AcDbLine
 10
184.021808
 20
97.405166
 30
0.0
 11
183.512211
 21
97.323576
 31
0.0
  0
LINE
  5
86
100
AcDbEntity
  8
0
  6
Continuous
100
AcDbLine
 10
183.512211
 20
97.323576
 30
0.0
 11
182.548786
 21
97.307426
 31
0.0
  0
LINE
  5
87
100
AcDbEntity
  8
0
  6
Continuous
100
AcDbLine
 10
182.548786
 20
97.307426
 30
0.0
 11
178.263904
 21
97.502911
 31
0.0
  0
LINE
  5
88
100
AcDbEntity
  8
0
  6
Continuous
100
AcDbLine
 10
178.263904
 20
97.502911
 30
0.0
 11
174.641743
 21
97.854297
 31
0.0
  0
LINE
  5
89
100
AcDbEntity
  8
0
  6
Continuous
100
AcDbLine
 10
174.641743
 20
97.854297
 30
0.0
 11
165.42728
 21
98.87166
 31
0.0
  0
LINE
  5
8A
100
AcDbEntity
  8
0
  6
Continuous
100
AcDbLine
 10
165.42728
 20
98.87166
 30
0.0
 11
160.162098
 21
99.356678
 31
0.0
  0
LINE
  5
8B
100
AcDbEntity
  8
0
  6
Continuous
100
AcDbLine
 10
160.162098
 20
99.356678
 30
0.0
 11
153.5779
 21
99.821044
 31
0.0
  0
LINE
  5
8C
100
AcDbEntity
  8
0
  6
Continuous
100
AcDbLine
 10
153.5779
 20
99.821044
 30
0.0
 11
148.310489
 21
100.066507
 31
0.0
  0
LINE
  5
8D
100
AcDbEntity
  8
0
  6
Continuous
100
AcDbLine
 10
148.310489
 20
100.066507
 30
0.0
 11
143.705097
 21
100.167562
 31
0.0
  0
LINE
  5
8E
100
AcDbEntity
  8
0
  6
Continuous
100
AcDbLine
 10
143.705097
 20
100.167562
 30
0.0
 11
135.14899
 21
100.215031
 31
0.0
  0
LINE
  5
8F
100
AcDbEntity
  8
0
  6
Continuous
100
AcDbLine
 10
135.14899
 20
100.215031
 30
0.0
 11
129.885563
 21
100.156532
 31
0.0
  0
LINE
  5
90
100
AcDbEntity
  8
0
  6
Continuous
100
AcDbLine
 10
129.885563
 20
100.156532
 30
0.0
 11
124.620823
 21
99.96074
 31
0.0
  0
LINE
  5
91
100
AcDbEntity
  8
0
  6
Continuous
100
AcDbLine
 10
124.620823
 20
99.96074
 30
0.0
 11
117.604236
 21
99.534529
 31
0.0
  0
LINE
  5
92
100
AcDbEntity
  8
0
  6
Continuous
100
AcDbLine
 10
117.604236
 20
99.534529
 30
0.0
 11
111.467274
 21
99.04069
 31
0.0
  0
LINE
  5
93
100
AcDbEntity
  8
0
  6
Continuous
100
AcDbLine
 10
111.467274
 20
99.04069
 30
0.0
 11
106.202991
 21
98.51788
 31
0.0
  0
LINE
  5
94
100
AcDbEntity
  8
0
  6
Continuous
100
AcDbLine
 10
106.202991
 20
98.51788
 30
0.0
 11
99.627628
 21
97.73405
 31
0.0
  0
LINE
  5
95
100
AcDbEntity
  8
0
  6
Continuous
100
AcDbLine
 10
99.627628
 20
97.73405
 30
0.0
 11
93.057407
 21
96.810237
 31
0.0
  0
LINE
  5
96
100
AcDbEntity
  8
0
  6
Continuous
100
AcDbLine
 10
93.057407
 20
96.810237
 30
0.0
 11
93.052418
 21
97.307024
 31
0.0
  0
LINE
  5
97
100
AcDbEntity
  8
0
  6
Continuous
100
AcDbLine
 10
237.816542
 20
97.261602
 30
0.0
 11
253.725935
 21
146.230585
 31
0.0
  0
LINE
  5
98
100
AcDbEntity
  8
0
  6
Continuous
100
AcDbLine
 10
253.725935
 20
146.230585
 30
0.0
 11
254.184645
 21
147.47558
 31
0.0
  0
LINE
  5
99
100
AcDbEntity
  8
0
  6
Continuous
100
AcDbLine
 10
254.184645
 20
147.47558
 30
0.0
 11
254.715544
 21
148.616693
 31
0.0
  0
LINE
  5
9A
100
AcDbEntity
  8
0
  6
Continuous
100
AcDbLine
 10
254.715544
 20
148.616693
 30
0.0
 11
255.316938
 21
149.659601
 31
0.0
  0
LINE
  5
9B
100
AcDbEntity
  8
0
  6
Continuous
100
AcDbLine
 10
255.316938
 20
149.659601
 30
0.0
 11
255.987059
 21
150.610285
 31
0.0
  0
LINE
  5
9C
100
AcDbEntity
  8
0
  6
Continuous
100
AcDbLine
 10
255.987059
 20
150.610285
 30
0.0
 11
256.724256
 21
151.474481
 31
0.0
  0
LINE
  5
9D
100
AcDbEntity
  8
0
  6
Continuous
100
AcDbLine
 10
256.724256
 20
151.474481
 30
0.0
 11
257.526747
 21
152.25799
 31
0.0
  0
LINE
  5
9E
100
AcDbEntity
  8
0
  6
Continuous
100
AcDbLine
 10
257.526747
 20
152.25799
 30
0.0
 11
258.392836
 21
152.966791
 31
0.0
  0
LINE
  5
9F
100
AcDbEntity
  8
0
  6
Continuous
100
AcDbLine
 10
258.392836
 20
152.966791
 30
0.0
 11
259.320768
 21
153.606485
 31
0.0
  0
LINE
  5
A0
100
AcDbEntity
  8
0
  6
Continuous
100
AcDbLine
 10
259.320768
 20
153.606485
 30
0.0
 11
260.308866
 21
154.183176
 31
0.0
  0
LINE
  5
A1
100
AcDbEntity
  8
0
  6
Continuous
100
AcDbLine
 10
260.308866
 20
154.183176
 30
0.0
 11
261.355375
 21
154.702493
 31
0.0
  0
LINE
  5
A2
100
AcDbEntity
  8
0
  6
Continuous
100
AcDbLine
 10
261.355375
 20
154.702493
 30
0.0
 11
262.45857
 21
155.170297
 31
0.0
  0
LINE
  5
A3
100
AcDbEntity
  8
0
  6
Continuous
100
AcDbLine
 10
262.45857
 20
155.170297
 30
0.0
 11
263.616728
 21
155.592478
 31
0.0
  0
LINE
  5
A4
100
AcDbEntity
  8
0
  6
Continuous
100
AcDbLine
 10
263.616728
 20
155.592478
 30
0.0
 11
264.828123
 21
155.974878
 31
0.0
  0
LINE
  5
A5
100
AcDbEntity
  8
0
  6
Continuous
100
AcDbLine
 10
264.828123
 20
155.974878
 30
0.0
 11
266.091047
 21
156.323297
 31
0.0
  0
LINE
  5
A6
100
AcDbEntity
  8
0
  6
Continuous
100
AcDbLine
 10
266.091047
 20
156.323297
 30
0.0
 11
267.403761
 21
156.643488
 31
0.0
  0
LINE
  5
A7
100
AcDbEntity
  8
0
  6
Continuous
100
AcDbLine
 10
267.403761
 20
156.643488
 30
0.0
 11
270.17169
 21
157.222788
 31
0.0
  0
LINE
  5
A8
100
AcDbEntity
  8
0
  6
Continuous
100
AcDbLine
 10
270.17169
 20
157.222788
 30
0.0
 11
275.113768
 21
158.10589
 31
0.0
  0
LINE
  5
A9
100
AcDbEntity
  8
0
  6
Continuous
100
AcDbLine
 10
275.113768
 20
158.10589
 30
0.0
 11
276.636259
 21
156.847193
 31
0.0
  0
LINE
  5
AA
100
AcDbEntity
  8
0
  6
Continuous
100
AcDbLine
 10
276.636259
 20
156.847193
 30
0.0
 11
278.06793
 21
158.61738
 31
0.0
  0
LINE
  5
AB
100
AcDbEntity
  8
0
  6
Continuous
100
AcDbLine
 10
278.06793
 20
158.61738
 30
0.0
 11
293.96298
 21
161.36918
 31
0.0
  0
LINE
  5
AC
100
AcDbEntity
  8
0
  6
Continuous
100
AcDbLine
 10
293.96298
 20
161.36918
 30
0.0
 11
294.089109
 21
114.575006
 31
0.0
  0
LINE
  5
AD
100
AcDbEntity
  8
0
  6
Continuous
100
AcDbLine
 10
294.089109
 20
114.575006
 30
0.0
 11
276.781065
 21
103.115961
 31
0.0
  0
LINE
  5
AE
100
AcDbEntity
  8
0
  6
Continuous
100
AcDbLine
 10
276.781065
 20
103.115961
 30
0.0
 11
237.816542
 21
97.261602
 31
0.0
  0
LINE
  5
AF
100
AcDbEntity
  8
0
  6
Continuous
100
AcDbLine
 10
237.816542
 20
97.261602
 30
0.0
 11
239.183607
 21
89.701647
 31
0.0
  0
LINE
  5
B0
100
AcDbEntity
  8
0
  6
Continuous
100
AcDbLine
 10
239.183607
 20
89.701647
 30
0.0
 11
240.433989
 21
90.812425
 31
0.0
  0
LINE
  5
B1
100
AcDbEntity
  8
0
  6
Continuous
100
AcDbLine
 10
240.433989
 20
90.812425
 30
0.0
 11
241.852034
 21
91.699266
 31
0.0
  0
LINE
  5
B2
100
AcDbEntity
  8
0
  6
Continuous
100
AcDbLine
 10
241.852034
 20
91.699266
 30
0.0
 11
243.398039
 21
92.337415
 31
0.0
  0
LINE
  5
B3
100
AcDbEntity
  8
0
  6
Continuous
100
AcDbLine
 10
243.398039
 20
92.337415
 30
0.0
 11
244.753019
 21
92.666059
 31
0.0
  0
LINE
  5
B4
100
AcDbEntity
  8
0
  6
Continuous
100
AcDbLine
 10
244.753019
 20
92.666059
 30
0.0
 11
315.586515
 21
104.69285
 31
0.0
  0
LINE
  5
B5
100
AcDbEntity
  8
0
  6
Continuous
100
AcDbLine
 10
315.586515
 20
104.69285
 30
0.0
 11
335.586027
 21
104.548685
 31
0.0
  0
LINE
  5
B6
100
AcDbEntity
  8
0
  6
Continuous
100
AcDbLine
 10
335.586027
 20
104.548685
 30
0.0
 11
407.054747
 21
91.315611
 31
0.0
  0
LINE
  5
B7
100
AcDbEntity
  8
0
  6
Continuous
100
AcDbLine
 10
407.054747
 20
91.315611
 30
0.0
 11
408.625822
 21
90.742094
 31
0.0
  0
LINE
  5
B8
100
AcDbEntity
  8
0
  6
Continuous
100
AcDbLine
 10
408.625822
 20
90.742094
 30
0.0
 11
410.079435
 21
89.914697
 31
0.0
  0
LINE
  5
B9
100
AcDbEntity
  8
0
  6
Continuous
100
AcDbLine
 10
410.079435
 20
89.914697
 30
0.0
 11
411.374632
 21
88.856592
 31
0.0
  0
LINE
  5
BA
100
AcDbEntity
  8
0
  6
Continuous
100
AcDbLine
 10
411.374632
 20
88.856592
 30
0.0
 11
412.475431
 21
87.597383
 31
0.0
  0
LINE
  5
BB
100
AcDbEntity
  8
0
  6
Continuous
100
AcDbLine
 10
412.475431
 20
87.597383
 30
0.0
 11
413.351042
 21
86.172361
 31
0.0
  0
LINE
  5
BC
100
AcDbEntity
  8
0
  6
Continuous
100
AcDbLine
 10
413.351042
 20
86.172361
 30
0.0
 11
413.976835
 21
84.621355
 31
0.0
  0
LINE
  5
BD
100
AcDbEntity
  8
0
  6
Continuous
100
AcDbLine
 10
413.976835
 20
84.621355
 30
0.0
 11
414.335539
 21
82.987646
 31
0.0
  0
LINE
  5
BE
100
AcDbEntity
  8
0
  6
Continuous
100
AcDbLine
 10
414.335539
 20
82.987646
 30
0.0
 11
414.422636
 21
81.596136
 31
0.0
  0
LINE
  5
BF
100
AcDbEntity
  8
0
  6
Continuous
100
AcDbLine
 10
414.422636
 20
81.596136
 30
0.0
 11
414.342436
 21
70.480085
 31
0.0
  0
LINE
  5
C0
100
AcDbEntity
  8
0
  6
Continuous
100
AcDbLine
 10
414.342436
 20
70.480085
 30
0.0
 11
412.831633
 21
68.990946
 31
0.0
  0
LINE
  5
C1
100
AcDbEntity
  8
0
  6
Continuous
100
AcDbLine
 10
412.831633
 20
68.990946
 30
0.0
 11
414.320829
 21
67.480177
 31
0.0
  0
LINE
  5
C2
100
AcDbEntity
  8
0
  6
Continuous
100
AcDbLine
 10
414.320829
 20
67.480177
 30
0.0
 11
414.129942
 21
40.980829
 31
0.0
  0
LINE
  5
C3
100
AcDbEntity
  8
0
  6
Continuous
100
AcDbLine
 10
414.129942
 20
40.980829
 30
0.0
 11
335.232847
 21
55.549944
 31
0.0
  0
LINE
  5
C4
100
AcDbEntity
  8
0
  6
Continuous
100
AcDbLine
 10
335.232847
 20
55.549944
 30
0.0
 11
315.233335
 21
55.694126
 31
0.0
  0
LINE
  5
C5
100
AcDbEntity
  8
0
  6
Continuous
100
AcDbLine
 10
315.233335
 20
55.694126
 30
0.0
 11
236.134443
 21
42.263963
 31
0.0
  0
LINE
  5
C6
100
AcDbEntity
  8
0
  6
Continuous
100
AcDbLine
 10
236.134443
 20
42.263963
 30
0.0
 11
236.325468
 21
68.763277
 31
0.0
  0
LINE
  5
C7
100
AcDbEntity
  8
0
  6
Continuous
100
AcDbLine
 10
236.325468
 20
68.763277
 30
0.0
 11
237.836241
 21
70.252424
 31
0.0
  0
LINE
  5
C8
100
AcDbEntity
  8
0
  6
Continuous
100
AcDbLine
 10
237.836241
 20
70.252424
 30
0.0
 11
236.34709
 21
71.763197
 31
0.0
  0
LINE
  5
C9
100
AcDbEntity
  8
0
  6
Continuous
100
AcDbLine
 10
236.34709
 20
71.763197
 30
0.0
 11
236.468275
 21
83.715219
 31
0.0
  0
LINE
  5
CA
100
AcDbEntity
  8
0
  6
Continuous
100
AcDbLine
 10
236.468275
 20
83.715219
 30
0.0
 11
236.758924
 21
85.36231
 31
0.0
  0
LINE
  5
CB
100
AcDbEntity
  8
0
  6
Continuous
100
AcDbLine
 10
236.758924
 20
85.36231
 30
0.0
 11
237.320005
 21
86.937906
 31
0.0
  0
LINE
  5
CC
100
AcDbEntity
  8
0
  6
Continuous
100
AcDbLine
 10
237.320005
 20
86.937906
 30
0.0
 11
238.135832
 21
88.397993
 31
0.0
  0
LINE
  5
CD
100
AcDbEntity
  8
0
  6
Continuous
100
AcDbLine
 10
238.135832
 20
88.397993
 30
0.0
 11
239.183607
 21
89.701647
 31
0.0
  0
LINE
  5
CE
100
AcDbEntity
  8
0
  6
Continuous
100
AcDbLine
 10
239.183607
 20
89.701647
 30
0.0
 11
235.476469
 21
94.624845
 31
0.0
  0
LINE
  5
CF
100
AcDbEntity
  8
0
  6
Continuous
100
AcDbLine
 10
91.834936
 20
-78.706607
 30
0.0
 11
90.818182
 21
-75.492163
 31
0.0
  0
LINE
  5
D0
100
AcDbEntity
  8
0
  6
Continuous
100
AcDbLine
 10
90.818182
 20
-75.492163
 30
0.0
 11
108.560644
 21
-69.880022
 31
0.0
  0
LINE
  5
D1
100
AcDbEntity
  8
0
  6
Continuous
100
AcDbLine
 10
108.560644
 20
-69.880022
 30
0.0
 11
113.483739
 21
-69.656879
 31
0.0
  0
LINE
  5
D2
100
AcDbEntity
  8
0
  6
Continuous
100
AcDbLine
 10
113.483739
 20
-69.656879
 30
0.0
 11
118.932714
 21
-68.943992
 31
0.0
  0
LINE
  5
D3
100
AcDbEntity
  8
0
  6
Continuous
100
AcDbLine
 10
118.932714
 20
-68.943992
 30
0.0
 11
132.761846
 21
-65.958832
 31
0.0
  0
LINE
  5
D4
100
AcDbEntity
  8
0
  6
Continuous
100
AcDbLine
 10
132.761846
 20
-65.958832
 30
0.0
 11
149.372411
 21
-61.964479
 31
0.0
  0
LINE
  5
D5
100
AcDbEntity
  8
0
  6
Continuous
100
AcDbLine
 10
149.372411
 20
-61.964479
 30
0.0
 11
151.373846
 21
-60.549963
 31
0.0
  0
LINE
  5
D6
100
AcDbEntity
  8
0
  6
Continuous
100
AcDbLine
 10
151.373846
 20
-60.549963
 30
0.0
 11
155.67069
 21
-57.913969
 31
0.0
  0
LINE
  5
D7
100
AcDbEntity
  8
0
  6
Continuous
100
AcDbLine
 10
155.67069
 20
-57.913969
 30
0.0
 11
160.376684
 21
-55.730686
 31
0.0
  0
LINE
  5
D8
100
AcDbEntity
  8
0
  6
Continuous
100
AcDbLine
 10
160.376684
 20
-55.730686
 30
0.0
 11
166.906347
 21
-53.227356
 31
0.0
  0
LINE
  5
D9
100
AcDbEntity
  8
0
  6
Continuous
100
AcDbLine
 10
166.906347
 20
-53.227356
 30
0.0
 11
173.938543
 21
-51.047195
 31
0.0
  0
LINE
  5
DA
100
AcDbEntity
  8
0
  6
Continuous
100
AcDbLine
 10
173.938543
 20
-51.047195
 30
0.0
 11
185.596685
 21
-48.047123
 31
0.0
  0
LINE
  5
DB
100
AcDbEntity
  8
0
  6
Continuous
100
AcDbLine
 10
185.596685
 20
-48.047123
 30
0.0
 11
197.197271
 21
-45.645256
 31
0.0
  0
LINE
  5
DC
100
AcDbEntity
  8
0
  6
Continuous
100
AcDbLine
 10
197.197271
 20
-45.645256
 30
0.0
 11
206.257696
 21
-44.159115
 31
0.0
  0
LINE
  5
DD
100
AcDbEntity
  8
0
  6
Continuous
100
AcDbLine
 10
206.257696
 20
-44.159115
 30
0.0
 11
214.113287
 21
-43.203964
 31
0.0
  0
LINE
  5
DE
100
AcDbEntity
  8
0
  6
Continuous
100
AcDbLine
 10
214.113287
 20
-43.203964
 30
0.0
 11
230.936986
 21
-37.547512
 31
0.0
  0
LINE
  5
DF
100
AcDbEntity
  8
0
  6
Continuous
100
AcDbLine
 10
230.936986
 20
-37.547512
 30
0.0
 11
243.887609
 21
-32.836769
 31
0.0
  0
LINE
  5
E0
100
AcDbEntity
  8
0
  6
Continuous
100
AcDbLine
 10
243.887609
 20
-32.836769
 30
0.0
 11
253.101324
 21
-29.170818
 31
0.0
  0
LINE
  5
E1
100
AcDbEntity
  8
0
  6
Continuous
100
AcDbLine
 10
253.101324
 20
-29.170818
 30
0.0
 11
265.334264
 21
-23.859176
 31
0.0
  0
LINE
  5
E2
100
AcDbEntity
  8
0
  6
Continuous
100
AcDbLine
 10
265.334264
 20
-23.859176
 30
0.0
 11
293.164098
 21
-11.239567
 31
0.0
  0
LINE
  5
E3
100
AcDbEntity
  8
0
  6
Continuous
100
AcDbLine
 10
293.164098
 20
-11.239567
 30
0.0
 11
305.91538
 21
-5.854343
 31
0.0
  0
LINE
  5
E4
100
AcDbEntity
  8
0
  6
Continuous
100
AcDbLine
 10
305.91538
 20
-5.854343
 30
0.0
 11
318.264684
 21
-1.100796
 31
0.0
  0
LINE
  5
E5
100
AcDbEntity
  8
0
  6
Continuous
100
AcDbLine
 10
318.264684
 20
-1.100796
 30
0.0
 11
331.725561
 21
3.755512
 31
0.0
  0
LINE
  5
E6
100
AcDbEntity
  8
0
  6
Continuous
100
AcDbLine
 10
331.725561
 20
3.755512
 30
0.0
 11
331.545995
 21
4.334744
 31
0.0
  0
LINE
  5
E7
100
AcDbEntity
  8
0
  6
Continuous
100
AcDbLine
 10
331.545995
 20
4.334744
 30
0.0
 11
314.962194
 21
0.963513
 31
0.0
  0
LINE
  5
E8
100
AcDbEntity
  8
0
  6
Continuous
100
AcDbLine
 10
314.962194
 20
0.963513
 30
0.0
 11
297.229101
 21
-2.233738
 31
0.0
  0
LINE
  5
E9
100
AcDbEntity
  8
0
  6
Continuous
100
AcDbLine
 10
297.229101
 20
-2.233738
 30
0.0
 11
282.9213
 21
-4.485393
 31
0.0
  0
LINE
  5
EA
100
AcDbEntity
  8
0
  6
Continuous
100
AcDbLine
 10
282.9213
 20
-4.485393
 30
0.0
 11
267.917486
 21
-6.448086
 31
0.0
  0
LINE
  5
EB
100
AcDbEntity
  8
0
  6
Continuous
100
AcDbLine
 10
267.917486
 20
-6.448086
 30
0.0
 11
262.517522
 21
-24.020252
 31
0.0
  0
LINE
  5
EC
100
AcDbEntity
  8
0
  6
Continuous
100
AcDbLine
 10
262.517522
 20
-24.020252
 30
0.0
 11
250.885717
 21
-28.999962
 31
0.0
  0
LINE
  5
ED
100
AcDbEntity
  8
0
  6
Continuous
100
AcDbLine
 10
250.885717
 20
-28.999962
 30
0.0
 11
257.516576
 21
-7.421833
 31
0.0
  0
LINE
  5
EE
100
AcDbEntity
  8
0
  6
Continuous
100
AcDbLine
 10
257.516576
 20
-7.421833
 30
0.0
 11
249.781377
 21
-7.72485
 31
0.0
  0
LINE
  5
EF
100
AcDbEntity
  8
0
  6
Continuous
100
AcDbLine
 10
249.781377
 20
-7.72485
 30
0.0
 11
237.404546
 21
-7.66663
 31
0.0
  0
LINE
  5
F0
100
AcDbEntity
  8
0
  6
Continuous
100
AcDbLine
 10
237.404546
 20
-7.66663
 30
0.0
 11
224.777776
 21
-7.492008
 31
0.0
  0
LINE
  5
F1
100
AcDbEntity
  8
0
  6
Continuous
100
AcDbLine
 10
224.777776
 20
-7.492008
 30
0.0
 11
246.005926
 21
-30.950668
 31
0.0
  0
LINE
  5
F2
100
AcDbEntity
  8
0
  6
Continuous
100
AcDbLine
 10
246.005926
 20
-30.950668
 30
0.0
 11
235.835149
 21
-34.741485
 31
0.0
  0
LINE
  5
F3
100
AcDbEntity
  8
0
  6
Continuous
100
AcDbLine
 10
235.835149
 20
-34.741485
 30
0.0
 11
211.650701
 21
-8.015652
 31
0.0
  0
LINE
  5
F4
100
AcDbEntity
  8
0
  6
Continuous
100
AcDbLine
 10
211.650701
 20
-8.015652
 30
0.0
 11
205.494573
 21
-8.801182
 31
0.0
  0
LINE
  5
F5
100
AcDbEntity
  8
0
  6
Continuous
100
AcDbLine
 10
205.494573
 20
-8.801182
 30
0.0
 11
199.571386
 21
-10.01704
 31
0.0
  0
LINE
  5
F6
100
AcDbEntity
  8
0
  6
Continuous
100
AcDbLine
 10
199.571386
 20
-10.01704
 30
0.0
 11
193.16654
 21
-11.641361
 31
0.0
  0
LINE
  5
F7
100
AcDbEntity
  8
0
  6
Continuous
100
AcDbLine
 10
193.16654
 20
-11.641361
 30
0.0
 11
186.784795
 21
-13.602855
 31
0.0
  0
LINE
  5
F8
100
AcDbEntity
  8
0
  6
Continuous
100
AcDbLine
 10
186.784795
 20
-13.602855
 30
0.0
 11
180.482275
 21
-15.951565
 31
0.0
  0
LINE
  5
F9
100
AcDbEntity
  8
0
  6
Continuous
100
AcDbLine
 10
180.482275
 20
-15.951565
 30
0.0
 11
177.378179
 21
-17.286716
 31
0.0
  0
LINE
  5
FA
100
AcDbEntity
  8
0
  6
Continuous
100
AcDbLine
 10
177.378179
 20
-17.286716
 30
0.0
 11
174.314886
 21
-18.737476
 31
0.0
  0
LINE
  5
FB
100
AcDbEntity
  8
0
  6
Continuous
100
AcDbLine
 10
174.314886
 20
-18.737476
 30
0.0
 11
171.299352
 21
-20.310036
 31
0.0
  0
LINE
  5
FC
100
AcDbEntity
  8
0
  6
Continuous
100
AcDbLine
 10
171.299352
 20
-20.310036
 30
0.0
 11
168.338781
 21
-22.010628
 31
0.0
  0
LINE
  5
FD
100
AcDbEntity
  8
0
  6
Continuous
100
AcDbLine
 10
168.338781
 20
-22.010628
 30
0.0
 11
165.439947
 21
-23.845566
 31
0.0
  0
LINE
  5
FE
100
AcDbEntity
  8
0
  6
Continuous
100
AcDbLine
 10
165.439947
 20
-23.845566
 30
0.0
 11
162.609899
 21
-25.821087
 31
0.0
  0
LINE
  5
FF
100
AcDbEntity
  8
0
  6
Continuous
100
AcDbLine
 10
162.609899
 20
-25.821087
 30
0.0
 11
159.85581
 21
-27.943424
 31
0.0
  0
LINE
  5
100
100
AcDbEntity
  8
0
  6
Continuous
100
AcDbLine
 10
159.85581
 20
-27.943424
 30
0.0
 11
157.184515
 21
-30.218876
 31
0.0
  0
LINE
  5
101
100
AcDbEntity
  8
0
  6
Continuous
100
AcDbLine
 10
157.184515
 20
-30.218876
 30
0.0
 11
154.603063
 21
-32.653652
 31
0.0
  0
LINE
  5
102
100
AcDbEntity
  8
0
  6
Continuous
100
AcDbLine
 10
154.603063
 20
-32.653652
 30
0.0
 11
152.118505
 21
-35.253979
 31
0.0
  0
LINE
  5
103
100
AcDbEntity
  8
0
  6
Continuous
100
AcDbLine
 10
152.118505
 20
-35.253979
 30
0.0
 11
149.737737
 21
-38.026222
 31
0.0
  0
LINE
  5
104
100
AcDbEntity
  8
0
  6
Continuous
100
AcDbLine
 10
149.737737
 20
-38.026222
 30
0.0
 11
147.467931
 21
-40.976551
 31
0.0
  0
LINE
  5
105
100
AcDbEntity
  8
0
  6
Continuous
100
AcDbLine
 10
147.467931
 20
-40.976551
 30
0.0
 11
142.529333
 21
-48.342281
 31
0.0
  0
LINE
  5
106
100
AcDbEntity
  8
0
  6
Continuous
100
AcDbLine
 10
142.529333
 20
-48.342281
 30
0.0
 11
133.75205
 21
-51.474575
 31
0.0
  0
LINE
  5
107
100
AcDbEntity
  8
0
  6
Continuous
100
AcDbLine
 10
133.75205
 20
-51.474575
 30
0.0
 11
115.852972
 21
-57.592216
 31
0.0
  0
LINE
  5
108
100
AcDbEntity
  8
0
  6
Continuous
100
AcDbLine
 10
115.852972
 20
-57.592216
 30
0.0
 11
107.363378
 21
-60.849733
 31
0.0
  0
LINE
  5
109
100
AcDbEntity
  8
0
  6
Continuous
100
AcDbLine
 10
107.363378
 20
-60.849733
 30
0.0
 11
105.960699
 21
-61.438661
 31
0.0
  0
LINE
  5
10A
100
AcDbEntity
  8
0
  6
Continuous
100
AcDbLine
 10
105.960699
 20
-61.438661
 30
0.0
 11
108.266271
 21
-68.924301
 31
0.0
  0
LINE
  5
10B
100
AcDbEntity
  8
0
  6
Continuous
100
AcDbLine
 10
108.266271
 20
-68.924301
 30
0.0
 11
90.516576
 21
-74.538719
 31
0.0
  0
LINE
  5
10C
100
AcDbEntity
  8
0
  6
Continuous
100
AcDbLine
 10
90.516576
 20
-74.538719
 30
0.0
 11
85.825933
 21
-59.709413
 31
0.0
  0
LINE
  5
10D
100
AcDbEntity
  8
0
  6
Continuous
100
AcDbLine
 10
85.825933
 20
-59.709413
 30
0.0
 11
92.77976
 21
-55.903995
 31
0.0
  0
LINE
  5
10E
100
AcDbEntity
  8
0
  6
Continuous
100
AcDbLine
 10
92.77976
 20
-55.903995
 30
0.0
 11
99.944738
 21
-52.491627
 31
0.0
  0
LINE
  5
10F
100
AcDbEntity
  8
0
  6
Continuous
100
AcDbLine
 10
99.944738
 20
-52.491627
 30
0.0
 11
106.777105
 21
-49.666546
 31
0.0
  0
LINE
  5
110
100
AcDbEntity
  8
0
  6
Continuous
100
AcDbLine
 10
106.777105
 20
-49.666546
 30
0.0
 11
117.555639
 21
-45.753437
 31
0.0
  0
LINE
  5
111
100
AcDbEntity
  8
0
  6
Continuous
100
AcDbLine
 10
117.555639
 20
-45.753437
 30
0.0
 11
137.394994
 21
-38.982525
 31
0.0
  0
LINE
  5
112
100
AcDbEntity
  8
0
  6
Continuous
100
AcDbLine
 10
137.394994
 20
-38.982525
 30
0.0
 11
139.806768
 21
-35.476337
 31
0.0
  0
LINE
  5
113
100
AcDbEntity
  8
0
  6
Continuous
100
AcDbLine
 10
139.806768
 20
-35.476337
 30
0.0
 11
142.361639
 21
-32.171444
 31
0.0
  0
LINE
  5
114
100
AcDbEntity
  8
0
  6
Continuous
100
AcDbLine
 10
142.361639
 20
-32.171444
 30
0.0
 11
145.049078
 21
-29.061706
 31
0.0
  0
LINE
  5
115
100
AcDbEntity
  8
0
  6
Continuous
100
AcDbLine
 10
145.049078
 20
-29.061706
 30
0.0
 11
147.858648
 21
-26.140941
 31
0.0
  0
LINE
  5
116
100
AcDbEntity
  8
0
  6
Continuous
100
AcDbLine
 10
147.858648
 20
-26.140941
 30
0.0
 11
150.77976
 21
-23.402996
 31
0.0
  0
LINE
  5
117
100
AcDbEntity
  8
0
  6
Continuous
100
AcDbLine
 10
150.77976
 20
-23.402996
 30
0.0
 11
153.801855
 21
-20.841751
 31
0.0
  0
LINE
  5
118
100
AcDbEntity
  8
0
  6
Continuous
100
AcDbLine
 10
153.801855
 20
-20.841751
 30
0.0
 11
156.914526
 21
-18.450947
 31
0.0
  0
LINE
  5
119
100
AcDbEntity
  8
0
  6
Continuous
100
AcDbLine
 10
156.914526
 20
-18.450947
 30
0.0
 11
160.107214
 21
-16.224476
 31
0.0
  0
LINE
  5
11A
100
AcDbEntity
  8
0
  6
Continuous
100
AcDbLine
 10
160.107214
 20
-16.224476
 30
0.0
 11
163.369268
 21
-14.156139
 31
0.0
  0
LINE
  5
11B
100
AcDbEntity
  8
0
  6
Continuous
100
AcDbLine
 10
163.369268
 20
-14.156139
 30
0.0
 11
166.690465
 21
-12.239818
 31
0.0
  0
LINE
  5
11C
100
AcDbEntity
  8
0
  6
Continuous
100
AcDbLine
 10
166.690465
 20
-12.239818
 30
0.0
 11
170.059972
 21
-10.469326
 31
0.0
  0
LINE
  5
11D
100
AcDbEntity
  8
0
  6
Continuous
100
AcDbLine
 10
170.059972
 20
-10.469326
 30
0.0
 11
173.467474
 21
-8.838474
 31
0.0
  0
LINE
  5
11E
100
AcDbEntity
  8
0
  6
Continuous
100
AcDbLine
 10
173.467474
 20
-8.838474
 30
0.0
 11
176.902288
 21
-7.341114
 31
0.0
  0
LINE
  5
11F
100
AcDbEntity
  8
0
  6
Continuous
100
AcDbLine
 10
176.902288
 20
-7.341114
 30
0.0
 11
183.812292
 21
-4.72224
 31
0.0
  0
LINE
  5
120
100
AcDbEntity
  8
0
  6
Continuous
100
AcDbLine
 10
183.812292
 20
-4.72224
 30
0.0
 11
190.705572
 21
-2.563396
 31
0.0
  0
LINE
  5
121
100
AcDbEntity
  8
0
  6
Continuous
100
AcDbLine
 10
190.705572
 20
-2.563396
 30
0.0
 11
197.498083
 21
-0.815227
 31
0.0
  0
LINE
  5
122
100
AcDbEntity
  8
0
  6
Continuous
100
AcDbLine
 10
197.498083
 20
-0.815227
 30
0.0
 11
203.820623
 21
0.487927
 31
0.0
  0
LINE
  5
123
100
AcDbEntity
  8
0
  6
Continuous
100
AcDbLine
 10
203.820623
 20
0.487927
 30
0.0
 11
209.831701
 21
1.308354
 31
0.0
  0
LINE
  5
124
100
AcDbEntity
  8
0
  6
Continuous
100
AcDbLine
 10
209.831701
 20
1.308354
 30
0.0
 11
215.87763
 21
1.777462
 31
0.0
  0
LINE
  5
125
100
AcDbEntity
  8
0
  6
Continuous
100
AcDbLine
 10
215.87763
 20
1.777462
 30
0.0
 11
224.995275
 21
2.001393
 31
0.0
  0
LINE
  5
126
100
AcDbEntity
  8
0
  6
Continuous
100
AcDbLine
 10
224.995275
 20
2.001393
 30
0.0
 11
246.369695
 21
1.71806
 31
0.0
  0
LINE
  5
127
100
AcDbEntity
  8
0
  6
Continuous
100
AcDbLine
 10
246.369695
 20
1.71806
 30
0.0
 11
255.513219
 21
1.916615
 31
0.0
  0
LINE
  5
128
100
AcDbEntity
  8
0
  6
Continuous
100
AcDbLine
 10
255.513219
 20
1.916615
 30
0.0
 11
261.584692
 21
2.360363
 31
0.0
  0
LINE
  5
129
100
AcDbEntity
  8
0
  6
Continuous
100
AcDbLine
 10
261.584692
 20
2.360363
 30
0.0
 11
274.747106
 21
3.900898
 31
0.0
  0
LINE
  5
12A
100
AcDbEntity
  8
0
  6
Continuous
100
AcDbLine
 10
274.747106
 20
3.900898
 30
0.0
 11
288.638891
 21
5.92342
 31
0.0
  0
LINE
  5
12B
100
AcDbEntity
  8
0
  6
Continuous
100
AcDbLine
 10
288.638891
 20
5.92342
 30
0.0
 11
306.248205
 21
8.927876
 31
0.0
  0
LINE
  5
12C
100
AcDbEntity
  8
0
  6
Continuous
100
AcDbLine
 10
306.248205
 20
8.927876
 30
0.0
 11
323.193578
 21
12.220341
 31
0.0
  0
LINE
  5
12D
100
AcDbEntity
  8
0
  6
Continuous
100
AcDbLine
 10
323.193578
 20
12.220341
 30
0.0
 11
329.561315
 21
13.560101
 31
0.0
  0
LINE
  5
12E
100
AcDbEntity
  8
0
  6
Continuous
100
AcDbLine
 10
329.561315
 20
13.560101
 30
0.0
 11
330.466283
 21
10.699764
 31
0.0
  0
LINE
  5
12F
100
AcDbEntity
  8
0
  6
Continuous
100
AcDbLine
 10
330.466283
 20
10.699764
 30
0.0
 11
362.88297
 21
20.953564
 31
0.0
  0
LINE
  5
130
100
AcDbEntity
  8
0
  6
Continuous
100
AcDbLine
 10
362.88297
 20
20.953564
 30
0.0
 11
378.841955
 21
18.993664
 31
0.0
  0
LINE
  5
131
100
AcDbEntity
  8
0
  6
Continuous
100
AcDbLine
 10
378.841955
 20
18.993664
 30
0.0
 11
378.98557
 21
16.940869
 31
0.0
  0
LINE
  5
132
100
AcDbEntity
  8
0
  6
Continuous
100
AcDbLine
 10
378.98557
 20
16.940869
 30
0.0
 11
378.731786
 21
14.834362
 31
0.0
  0
LINE
  5
133
100
AcDbEntity
  8
0
  6
Continuous
100
AcDbLine
 10
378.731786
 20
14.834362
 30
0.0
 11
378.098608
 21
12.759663
 31
0.0
  0
LINE
  5
134
100
AcDbEntity
  8
0
  6
Continuous
100
AcDbLine
 10
378.098608
 20
12.759663
 30
0.0
 11
377.104467
 21
10.802632
 31
0.0
  0
LINE
  5
135
100
AcDbEntity
  8
0
  6
Continuous
100
AcDbLine
 10
377.104467
 20
10.802632
 30
0.0
 11
375.962499
 21
9.426327
 31
0.0
  0
LINE
  5
136
100
AcDbEntity
  8
0
  6
Continuous
100
AcDbLine
 10
375.962499
 20
9.426327
 30
0.0
 11
374.159582
 21
8.054875
 31
0.0
  0
LINE
  5
137
100
AcDbEntity
  8
0
  6
Continuous
100
AcDbLine
 10
374.159582
 20
8.054875
 30
0.0
 11
371.745153
 21
6.806179
 31
0.0
  0
LINE
  5
138
100
AcDbEntity
  8
0
  6
Continuous
100
AcDbLine
 10
371.745153
 20
6.806179
 30
0.0
 11
358.889379
 21
1.868344
 31
0.0
  0
LINE
  5
139
100
AcDbEntity
  8
0
  6
Continuous
100
AcDbLine
 10
358.889379
 20
1.868344
 30
0.0
 11
322.1182
 21
-11.293934
 31
0.0
  0
LINE
  5
13A
100
AcDbEntity
  8
0
  6
Continuous
100
AcDbLine
 10
322.1182
 20
-11.293934
 30
0.0
 11
309.977392
 21
-15.96384
 31
0.0
  0
LINE
  5
13B
100
AcDbEntity
  8
0
  6
Continuous
100
AcDbLine
 10
309.977392
 20
-15.96384
 30
0.0
 11
297.470373
 21
-21.252098
 31
0.0
  0
LINE
  5
13C
100
AcDbEntity
  8
0
  6
Continuous
100
AcDbLine
 10
297.470373
 20
-21.252098
 30
0.0
 11
263.448888
 21
-36.610386
 31
0.0
  0
LINE
  5
13D
100
AcDbEntity
  8
0
  6
Continuous
100
AcDbLine
 10
263.448888
 20
-36.610386
 30
0.0
 11
254.06278
 21
-40.554085
 31
0.0
  0
LINE
  5
13E
100
AcDbEntity
  8
0
  6
Continuous
100
AcDbLine
 10
254.06278
 20
-40.554085
 30
0.0
 11
244.459814
 21
-44.254799
 31
0.0
  0
LINE
  5
13F
100
AcDbEntity
  8
0
  6
Continuous
100
AcDbLine
 10
244.459814
 20
-44.254799
 30
0.0
 11
227.963689
 21
-50.09568
 31
0.0
  0
LINE
  5
140
100
AcDbEntity
  8
0
  6
Continuous
100
AcDbLine
 10
227.963689
 20
-50.09568
 30
0.0
 11
211.3187
 21
-55.531816
 31
0.0
  0
LINE
  5
141
100
AcDbEntity
  8
0
  6
Continuous
100
AcDbLine
 10
211.3187
 20
-55.531816
 30
0.0
 11
187.858068
 21
-62.656462
 31
0.0
  0
LINE
  5
142
100
AcDbEntity
  8
0
  6
Continuous
100
AcDbLine
 10
187.858068
 20
-62.656462
 30
0.0
 11
166.844366
 21
-68.645717
 31
0.0
  0
LINE
  5
143
100
AcDbEntity
  8
0
  6
Continuous
100
AcDbLine
 10
166.844366
 20
-68.645717
 30
0.0
 11
149.602758
 21
-73.137119
 31
0.0
  0
LINE
  5
144
100
AcDbEntity
  8
0
  6
Continuous
100
AcDbLine
 10
149.602758
 20
-73.137119
 30
0.0
 11
132.275854
 21
-77.239554
 31
0.0
  0
LINE
  5
145
100
AcDbEntity
  8
0
  6
Continuous
100
AcDbLine
 10
132.275854
 20
-77.239554
 30
0.0
 11
120.850164
 21
-79.663728
 31
0.0
  0
LINE
  5
146
100
AcDbEntity
  8
0
  6
Continuous
100
AcDbLine
 10
120.850164
 20
-79.663728
 30
0.0
 11
115.334447
 21
-80.407591
 31
0.0
  0
LINE
  5
147
100
AcDbEntity
  8
0
  6
Continuous
100
AcDbLine
 10
115.334447
 20
-80.407591
 30
0.0
 11
109.804662
 21
-80.747608
 31
0.0
  0
LINE
  5
148
100
AcDbEntity
  8
0
  6
Continuous
100
AcDbLine
 10
109.804662
 20
-80.747608
 30
0.0
 11
103.820318
 21
-80.675721
 31
0.0
  0
LINE
  5
149
100
AcDbEntity
  8
0
  6
Continuous
100
AcDbLine
 10
103.820318
 20
-80.675721
 30
0.0
 11
98.340978
 21
-80.256418
 31
0.0
  0
LINE
  5
14A
100
AcDbEntity
  8
0
  6
Continuous
100
AcDbLine
 10
98.340978
 20
-80.256418
 30
0.0
 11
95.039953
 21
-79.674077
 31
0.0
  0
LINE
  5
14B
100
AcDbEntity
  8
0
  6
Continuous
100
AcDbLine
 10
95.039953
 20
-79.674077
 30
0.0
 11
91.834936
 21
-78.706607
 31
0.0
  0
ENDSEC
  0
SECTION
  2
OBJECTS
  0
DICTIONARY
  5
19
100
AcDbDictionary
280
     0
281
     1
  3
ACAD_GROUP
350
1A
  3
ACAD_MLINESTYLE
350
1B
  3
ACAD_LAYOUT
350
1E
  3
ACAD_PLOTSETTINGS
350
22
  3
ACAD_PLOTSTYLENAME
350
1F
  0
DICTIONARY
  5
1A
102
{ACAD_REACTORS
330
19
102
}
100
AcDbDictionary
280
     0
281
     1
  0
DICTIONARY
  5
1B
102
{ACAD_REACTORS
330
19
102
}
100
AcDbDictionary
280
     0
281
     1
  3
Standard
350
1C
  0
MLINESTYLE
  5
1C
100
AcDbMlineStyle
  2
STANDARD
 70
     0
  3

 62
   256
 51
90.0
 52
90.0
 71
     3
 49
5.0
 62
     7
  6
BYLAYER
 49
0.0
 62
     7
  6
BYLAYER
 49
-5.0
 62
     7
  6
BYLAYER
  0
ACDBDICTIONARYWDFLT
  5
1F
102
{ACAD_REACTORS
330
19
102
}
100
AcDbDictionary
281
     1
  3
Normal
350
1D
100
AcDbDictionaryWithDefault
340
1D
  0
ACDBPLACEHOLDER
  5
1D
102
{ACAD_REACTORS
330
1F
102
}
  0
LAYOUT
  5
21
102
{ACAD_REACTORS
330
1E
102
}
100
AcDbPlotSettings
  1

  2

  4

  6

 40
0.0
 41
0.0
 42
0.0
 43
0.0
 44
0.0
 45
0.0
 46
0.0
 47
0.0
 48
0.0
 49
0.0
140
0.0
141
0.0
142
1.0
143
1.0
 70
     0
 72
     0
 73
     0
 74
     0
  7

 75
     0
147
1.0
148
0.0
149
0.0
100
AcDbLayout
  1
Layout1
 70
     0
 71
     0
 10
0.0
 20
0.0
 11
0.0
 21
0.0
 12
0.0
 22
0.0
 32
0.0
 14
0.0
 24
0.0
 34
0.0
 15
0.0
 25
0.0
 35
0.0
146
0.0
 13
0.0
 23
0.0
 33
0.0
 16
0.0
 26
0.0
 36
0.0
 17
0.0
 27
0.0
 37
0.0
 76
     0
330
B
331
0
345
0
346
0
  0
DICTIONARY
  5
1E
102
{ACAD_REACTORS
330
19
102
}
100
AcDbDictionary
280
     0
281
     1
  3
Model
350
14C
  3
Papier 1
350
14D
  0
DICTIONARY
  5
22
102
{ACAD_REACTORS
330
19
102
}
100
AcDbDictionary
280
     0
281
     1
  0
LAYOUT
  5
14C
100
AcDbPlotSettings
  1

  2

  4

  6

 40
0.0
 41
0.0
 42
0.0
 43
0.0
 44
0.0
 45
0.0
 46
0.0
 47
0.0
 48
0.0
 49
0.0
140
0.0
141
0.0
142
1.0
143
1.0
 70
     0
 72
     0
 73
     0
 74
     0
  7

 75
     0
147
1.0
148
0.0
149
0.0
100
AcDbLayout
  1
Model
 70
     0
 71
     0
 10
0.0
 20
0.0
 11
0.0
 21
0.0
 12
0.0
 22
0.0
 32
0.0
 14
0.0
 24
0.0
 34
0.0
 15
0.0
 25
0.0
 35
0.0
146
0.0
 13
0.0
 23
0.0
 33
0.0
 16
0.0
 26
0.0
 36
0.0
 17
0.0
 27
0.0
 37
0.0
 76
     0
330
A
331
0
345
0
346
0
  0
LAYOUT
  5
14D
100
AcDbPlotSettings
  1

  2

  4

  6

 40
0.0
 41
0.0
 42
0.0
 43
0.0
 44
0.0
 45
0.0
 46
0.0
 47
0.0
 48
0.0
 49
0.0
140
0.0
141
0.0
142
1.0
143
1.0
 70
     0
 72
     0
 73
     0
 74
     0
  7

 75
     0
147
1.0
148
0.0
149
0.0
100
AcDbLayout
  1
Papier 1
 70
     1
 71
     1
 10
0.0
 20
0.0
 11
0.0
 21
0.0
 12
0.0
 22
0.0
 32
0.0
 14
0.0
 24
0.0
 34
0.0
 15
0.0
 25
0.0
 35
0.0
146
0.0
 13
0.0
 23
0.0
 33
0.0
 16
0.0
 26
0.0
 36
0.0
 17
0.0
 27
0.0
 37
0.0
 76
     0
330
B
331
0
345
0
346
0
  0
ENDSEC
  0
EOF
