   0
SECTION
   2
ENTITIES
   0
POLYLINE
   8
0
  66
 1
   6
Continuous
  10
 0.0
  20
 0.0
  30
 0.0
  70
 128
   0
VERTEX
   8
0
   6
Continuous
  10
 5.673019
  20
 13.248039
  30
 0.0
   0
VERTEX
   8
0
   6
Continuous
  10
 5.868469
  20
 16.076210
  30
 0.0
   0
VERTEX
   8
0
   6
Continuous
  10
 6.779457
  20
 19.500320
  30
 0.0
   0
VERTEX
   8
0
   6
Continuous
  10
 8.391018
  20
 22.655426
  30
 0.0
   0
VERTEX
   8
0
   6
Continuous
  10
 10.449860
  20
 26.013245
  30
 0.0
   0
VERTEX
   8
0
   6
Continuous
  10
 15.637096
  20
 32.526001
  30
 0.0
   0
VERTEX
   8
0
   6
Continuous
  10
 17.004978
  20
 33.974792
  30
 0.0
   0
VERTEX
   8
0
   6
Continuous
  10
 18.576931
  20
 35.652847
  30
 0.0
   0
VERTEX
   8
0
   6
Continuous
  10
 20.649296
  20
 37.697144
  30
 0.0
   0
VERTEX
   8
0
   6
Continuous
  10
 22.599293
  20
 39.647141
  30
 0.0
   0
VERTEX
   8
0
   6
Continuous
  10
 24.952366
  20
 42.060730
  30
 0.0
   0
VERTEX
   8
0
   6
Continuous
  10
 27.241032
  20
 44.105408
  30
 0.0
   0
VERTEX
   8
0
   6
Continuous
  10
 30.301792
  20
 46.894638
  30
 0.0
   0
VERTEX
   8
0
   6
Continuous
  10
 32.018078
  20
 48.859940
  30
 0.0
   0
VERTEX
   8
0
   6
Continuous
  10
 32.627445
  20
 49.902878
  30
 0.0
   0
VERTEX
   8
0
   6
Continuous
  10
 32.596149
  20
 51.437851
  30
 0.0
   0
VERTEX
   8
0
   6
Continuous
  10
 32.181210
  20
 53.189575
  30
 0.0
   0
VERTEX
   8
0
   6
Continuous
  10
 31.211201
  20
 55.902908
  30
 0.0
   0
VERTEX
   8
0
   6
Continuous
  10
 29.946239
  20
 59.404602
  30
 0.0
   0
VERTEX
   8
0
   6
Continuous
  10
 29.161152
  20
 61.652832
  30
 0.0
   0
VERTEX
   8
0
   6
Continuous
  10
 28.439510
  20
 65.913803
  30
 0.0
   0
VERTEX
   8
0
   6
Continuous
  10
 28.759899
  20
 68.668564
  30
 0.0
   0
VERTEX
   8
0
   6
Continuous
  10
 28.683178
  20
 69.628067
  30
 0.0
   0
VERTEX
   8
0
   6
Continuous
  10
 23.888035
  20
 70.463058
  30
 0.0
   0
VERTEX
   8
0
   6
Continuous
  10
 19.475346
  20
 72.333710
  30
 0.0
   0
VERTEX
   8
0
   6
Continuous
  10
 17.438313
  20
 73.763321
  30
 0.0
   0
VERTEX
   8
0
   6
Continuous
  10
 15.817959
  20
 75.176315
  30
 0.0
   0
VERTEX
   8
0
   6
Continuous
  10
 13.113850
  20
 78.105530
  30
 0.0
   0
VERTEX
   8
0
   6
Continuous
  10
 11.289810
  20
 81.264816
  30
 0.0
   0
VERTEX
   8
0
   6
Continuous
  10
 10.194538
  20
 84.430130
  30
 0.0
   0
VERTEX
   8
0
   6
Continuous
  10
 9.573017
  20
 88.864700
  30
 0.0
   0
VERTEX
   8
0
   6
Continuous
  10
 9.821659
  20
 92.508102
  30
 0.0
   0
VERTEX
   8
0
   6
Continuous
  10
 10.724159
  20
 96.506912
  30
 0.0
   0
VERTEX
   8
0
   6
Continuous
  10
 12.427738
  20
 99.868698
  30
 0.0
   0
VERTEX
   8
0
   6
Continuous
  10
 14.466900
  20
 102.596207
  30
 0.0
   0
VERTEX
   8
0
   6
Continuous
  10
 15.964642
  20
 104.126099
  30
 0.0
   0
VERTEX
   8
0
   6
Continuous
  10
 18.923046
  20
 106.373398
  30
 0.0
   0
VERTEX
   8
0
   6
Continuous
  10
 22.923519
  20
 108.222900
  30
 0.0
   0
VERTEX
   8
0
   6
Continuous
  10
 25.630192
  20
 108.947495
  30
 0.0
   0
VERTEX
   8
0
   6
Continuous
  10
 29.502369
  20
 109.227402
  30
 0.0
   0
VERTEX
   8
0
   6
Continuous
  10
 33.990520
  20
 108.732193
  30
 0.0
   0
VERTEX
   8
0
   6
Continuous
  10
 38.354206
  20
 107.029205
  30
 0.0
   0
VERTEX
   8
0
   6
Continuous
  10
 42.241093
  20
 104.416092
  30
 0.0
   0
VERTEX
   8
0
   6
Continuous
  10
 44.588505
  20
 101.780197
  30
 0.0
   0
VERTEX
   8
0
   6
Continuous
  10
 46.977139
  20
 98.318832
  30
 0.0
   0
VERTEX
   8
0
   6
Continuous
  10
 48.737820
  20
 92.712845
  30
 0.0
   0
VERTEX
   8
0
   6
Continuous
  10
 49.002369
  20
 90.160721
  30
 0.0
   0
VERTEX
   8
0
   6
Continuous
  10
 48.817692
  20
 86.878738
  30
 0.0
   0
VERTEX
   8
0
   6
Continuous
  10
 47.165363
  20
 81.164413
  30
 0.0
   0
VERTEX
   8
0
   6
Continuous
  10
 46.068134
  20
 79.444962
  30
 0.0
   0
VERTEX
   8
0
   6
Continuous
  10
 44.429539
  20
 76.972641
  30
 0.0
   0
VERTEX
   8
0
   6
Continuous
  10
 43.766369
  20
 76.247147
  30
 0.0
   0
VERTEX
   8
0
   6
Continuous
  10
 43.880840
  20
 75.858765
  30
 0.0
   0
VERTEX
   8
0
   6
Continuous
  10
 46.501209
  20
 75.093277
  30
 0.0
   0
VERTEX
   8
0
   6
Continuous
  10
 51.163654
  20
 74.999435
  30
 0.0
   0
VERTEX
   8
0
   6
Continuous
  10
 53.576870
  20
 75.619583
  30
 0.0
   0
VERTEX
   8
0
   6
Continuous
  10
 55.565128
  20
 76.437912
  30
 0.0
   0
VERTEX
   8
0
   6
Continuous
  10
 57.358860
  20
 78.987549
  30
 0.0
   0
VERTEX
   8
0
   6
Continuous
  10
 58.824657
  20
 83.805115
  30
 0.0
   0
VERTEX
   8
0
   6
Continuous
  10
 59.623379
  20
 87.556381
  30
 0.0
   0
VERTEX
   8
0
   6
Continuous
  10
 60.227139
  20
 88.684189
  30
 0.0
   0
VERTEX
   8
0
   6
Continuous
  10
 61.930729
  20
 89.780228
  30
 0.0
   0
VERTEX
   8
0
   6
Continuous
  10
 63.261051
  20
 89.685699
  30
 0.0
   0
VERTEX
   8
0
   6
Continuous
  10
 64.344498
  20
 88.901566
  30
 0.0
   0
VERTEX
   8
0
   6
Continuous
  10
 65.215347
  20
 87.740372
  30
 0.0
   0
VERTEX
   8
0
   6
Continuous
  10
 66.903244
  20
 81.628265
  30
 0.0
   0
VERTEX
   8
0
   6
Continuous
  10
 68.369629
  20
 75.944656
  30
 0.0
   0
VERTEX
   8
0
   6
Continuous
  10
 69.017136
  20
 73.775497
  30
 0.0
   0
VERTEX
   8
0
   6
Continuous
  10
 69.856033
  20
 70.497726
  30
 0.0
   0
VERTEX
   8
0
   6
Continuous
  10
 71.473495
  20
 64.315201
  30
 0.0
   0
VERTEX
   8
0
   6
Continuous
  10
 71.413544
  20
 61.899551
  30
 0.0
   0
VERTEX
   8
0
   6
Continuous
  10
 70.271866
  20
 60.189148
  30
 0.0
   0
VERTEX
   8
0
   6
Continuous
  10
 68.976028
  20
 59.570389
  30
 0.0
   0
VERTEX
   8
0
   6
Continuous
  10
 63.952366
  20
 59.177399
  30
 0.0
   0
VERTEX
   8
0
   6
Continuous
  10
 57.661213
  20
 58.751877
  30
 0.0
   0
VERTEX
   8
0
   6
Continuous
  10
 52.675114
  20
 57.686630
  30
 0.0
   0
VERTEX
   8
0
   6
Continuous
  10
 51.904850
  20
 57.223618
  30
 0.0
   0
VERTEX
   8
0
   6
Continuous
  10
 51.452244
  20
 56.078232
  30
 0.0
   0
VERTEX
   8
0
   6
Continuous
  10
 51.560993
  20
 54.369370
  30
 0.0
   0
VERTEX
   8
0
   6
Continuous
  10
 52.406269
  20
 52.325211
  30
 0.0
   0
VERTEX
   8
0
   6
Continuous
  10
 55.088848
  20
 50.097214
  30
 0.0
   0
VERTEX
   8
0
   6
Continuous
  10
 58.073559
  20
 48.531921
  30
 0.0
   0
VERTEX
   8
0
   6
Continuous
  10
 61.055164
  20
 47.180206
  30
 0.0
   0
VERTEX
   8
0
   6
Continuous
  10
 65.005249
  20
 45.280273
  30
 0.0
   0
VERTEX
   8
0
   6
Continuous
  10
 68.786926
  20
 42.995285
  30
 0.0
   0
VERTEX
   8
0
   6
Continuous
  10
 71.999298
  20
 40.140976
  30
 0.0
   0
VERTEX
   8
0
   6
Continuous
  10
 73.299286
  20
 38.840988
  30
 0.0
   0
VERTEX
   8
0
   6
Continuous
  10
 75.132095
  20
 36.557114
  30
 0.0
   0
VERTEX
   8
0
   6
Continuous
  10
 77.418900
  20
 33.427261
  30
 0.0
   0
VERTEX
   8
0
   6
Continuous
  10
 79.212540
  20
 30.670898
  30
 0.0
   0
VERTEX
   8
0
   6
Continuous
  10
 82.276932
  20
 25.935303
  30
 0.0
   0
VERTEX
   8
0
   6
Continuous
  10
 84.071747
  20
 23.180122
  30
 0.0
   0
VERTEX
   8
0
   6
Continuous
  10
 86.571182
  20
 19.829544
  30
 0.0
   0
VERTEX
   8
0
   6
Continuous
  10
 87.693924
  20
 18.568993
  30
 0.0
   0
VERTEX
   8
0
   6
Continuous
  10
 88.820694
  20
 17.322472
  30
 0.0
   0
VERTEX
   8
0
   6
Continuous
  10
 91.101425
  20
 16.126465
  30
 0.0
   0
VERTEX
   8
0
   6
Continuous
  10
 93.428589
  20
 15.636971
  30
 0.0
   0
VERTEX
   8
0
   6
Continuous
  10
 95.926010
  20
 15.855042
  30
 0.0
   0
VERTEX
   8
0
   6
Continuous
  10
 96.919266
  20
 16.243820
  30
 0.0
   0
VERTEX
   8
0
   6
Continuous
  10
 98.477585
  20
 19.018845
  30
 0.0
   0
VERTEX
   8
0
   6
Continuous
  10
 99.469955
  20
 20.193146
  30
 0.0
   0
VERTEX
   8
0
   6
Continuous
  10
 101.655655
  20
 21.005325
  30
 0.0
   0
VERTEX
   8
0
   6
Continuous
  10
 104.322968
  20
 20.897995
  30
 0.0
   0
VERTEX
   8
0
   6
Continuous
  10
 106.154861
  20
 19.913544
  30
 0.0
   0
VERTEX
   8
0
   6
Continuous
  10
 107.120773
  20
 18.677071
  30
 0.0
   0
VERTEX
   8
0
   6
Continuous
  10
 108.148361
  20
 16.056755
  30
 0.0
   0
VERTEX
   8
0
   6
Continuous
  10
 108.581665
  20
 13.241844
  30
 0.0
   0
VERTEX
   8
0
   6
Continuous
  10
 108.417267
  20
 11.427017
  30
 0.0
   0
VERTEX
   8
0
   6
Continuous
  10
 107.000366
  20
 8.546043
  30
 0.0
   0
VERTEX
   8
0
   6
Continuous
  10
 104.614365
  20
 6.680824
  30
 0.0
   0
VERTEX
   8
0
   6
Continuous
  10
 101.807175
  20
 5.939255
  30
 0.0
   0
VERTEX
   8
0
   6
Continuous
  10
 95.493576
  20
 5.319504
  30
 0.0
   0
VERTEX
   8
0
   6
Continuous
  10
 86.279083
  20
 5.227402
  30
 0.0
   0
VERTEX
   8
0
   6
Continuous
  10
 83.019028
  20
 5.660736
  30
 0.0
   0
VERTEX
   8
0
   6
Continuous
  10
 79.291748
  20
 6.483444
  30
 0.0
   0
VERTEX
   8
0
   6
Continuous
  10
 76.000946
  20
 8.174225
  30
 0.0
   0
VERTEX
   8
0
   6
Continuous
  10
 73.059006
  20
 10.650696
  30
 0.0
   0
VERTEX
   8
0
   6
Continuous
  10
 68.255798
  20
 16.897514
  30
 0.0
   0
VERTEX
   8
0
   6
Continuous
  10
 66.519913
  20
 19.494942
  30
 0.0
   0
VERTEX
   8
0
   6
Continuous
  10
 64.102692
  20
 23.144409
  30
 0.0
   0
VERTEX
   8
0
   6
Continuous
  10
 62.088505
  20
 26.113541
  30
 0.0
   0
VERTEX
   8
0
   6
Continuous
  10
 59.363361
  20
 29.671707
  30
 0.0
   0
VERTEX
   8
0
   6
Continuous
  10
 57.451344
  20
 31.659698
  30
 0.0
   0
VERTEX
   8
0
   6
Continuous
  10
 54.114819
  20
 34.389847
  30
 0.0
   0
VERTEX
   8
0
   6
Continuous
  10
 50.799503
  20
 36.057877
  30
 0.0
   0
VERTEX
   8
0
   6
Continuous
  10
 47.655445
  20
 36.515091
  30
 0.0
   0
VERTEX
   8
0
   6
Continuous
  10
 47.139713
  20
 37.165085
  30
 0.0
   0
VERTEX
   8
0
   6
Continuous
  10
 47.149639
  20
 41.448074
  30
 0.0
   0
VERTEX
   8
0
   6
Continuous
  10
 47.944874
  20
 41.818588
  30
 0.0
   0
VERTEX
   8
0
   6
Continuous
  10
 50.917599
  20
 41.592636
  30
 0.0
   0
VERTEX
   8
0
   6
Continuous
  10
 54.443539
  20
 40.568573
  30
 0.0
   0
VERTEX
   8
0
   6
Continuous
  10
 57.049290
  20
 39.057648
  30
 0.0
   0
VERTEX
   8
0
   6
Continuous
  10
 60.574863
  20
 36.299896
  30
 0.0
   0
VERTEX
   8
0
   6
Continuous
  10
 64.674713
  20
 31.949753
  30
 0.0
   0
VERTEX
   8
0
   6
Continuous
  10
 68.744446
  20
 26.269485
  30
 0.0
   0
VERTEX
   8
0
   6
Continuous
  10
 72.805084
  20
 20.146790
  30
 0.0
   0
VERTEX
   8
0
   6
Continuous
  10
 74.410416
  20
 17.852104
  30
 0.0
   0
VERTEX
   8
0
   6
Continuous
  10
 76.516449
  20
 15.191483
  30
 0.0
   0
VERTEX
   8
0
   6
Continuous
  10
 77.688873
  20
 13.980576
  30
 0.0
   0
VERTEX
   8
0
   6
Continuous
  10
 78.637375
  20
 12.989143
  30
 0.0
   0
VERTEX
   8
0
   6
Continuous
  10
 80.348145
  20
 12.089844
  30
 0.0
   0
VERTEX
   8
0
   6
Continuous
  10
 83.886047
  20
 11.077759
  30
 0.0
   0
VERTEX
   8
0
   6
Continuous
  10
 87.350967
  20
 10.644432
  30
 0.0
   0
VERTEX
   8
0
   6
Continuous
  10
 89.084564
  20
 10.804733
  30
 0.0
   0
VERTEX
   8
0
   6
Continuous
  10
 87.860184
  20
 11.585243
  30
 0.0
   0
VERTEX
   8
0
   6
Continuous
  10
 85.853287
  20
 12.828331
  30
 0.0
   0
VERTEX
   8
0
   6
Continuous
  10
 82.122482
  20
 16.464172
  30
 0.0
   0
VERTEX
   8
0
   6
Continuous
  10
 78.505096
  20
 21.513474
  30
 0.0
   0
VERTEX
   8
0
   6
Continuous
  10
 72.116776
  20
 31.375153
  30
 0.0
   0
VERTEX
   8
0
   6
Continuous
  10
 70.233124
  20
 33.824814
  30
 0.0
   0
VERTEX
   8
0
   6
Continuous
  10
 68.413193
  20
 35.904907
  30
 0.0
   0
VERTEX
   8
0
   6
Continuous
  10
 66.037476
  20
 38.079163
  30
 0.0
   0
VERTEX
   8
0
   6
Continuous
  10
 63.204304
  20
 40.012680
  30
 0.0
   0
VERTEX
   8
0
   6
Continuous
  10
 56.852650
  20
 42.977676
  30
 0.0
   0
VERTEX
   8
0
   6
Continuous
  10
 52.686726
  20
 45.095108
  30
 0.0
   0
VERTEX
   8
0
   6
Continuous
  10
 49.652729
  20
 47.261078
  30
 0.0
   0
VERTEX
   8
0
   6
Continuous
  10
 47.621227
  20
 49.527512
  30
 0.0
   0
VERTEX
   8
0
   6
Continuous
  10
 46.345249
  20
 52.186935
  30
 0.0
   0
VERTEX
   8
0
   6
Continuous
  10
 45.763325
  20
 55.502243
  30
 0.0
   0
VERTEX
   8
0
   6
Continuous
  10
 46.153538
  20
 58.141541
  30
 0.0
   0
VERTEX
   8
0
   6
Continuous
  10
 47.981113
  20
 61.281982
  30
 0.0
   0
VERTEX
   8
0
   6
Continuous
  10
 50.981876
  20
 63.047882
  30
 0.0
   0
VERTEX
   8
0
   6
Continuous
  10
 55.129490
  20
 63.883606
  30
 0.0
   0
VERTEX
   8
0
   6
Continuous
  10
 63.519039
  20
 64.593704
  30
 0.0
   0
VERTEX
   8
0
   6
Continuous
  10
 65.519684
  20
 64.754929
  30
 0.0
   0
VERTEX
   8
0
   6
Continuous
  10
 65.505066
  20
 65.508194
  30
 0.0
   0
VERTEX
   8
0
   6
Continuous
  10
 64.824646
  20
 67.849655
  30
 0.0
   0
VERTEX
   8
0
   6
Continuous
  10
 63.501453
  20
 73.026459
  30
 0.0
   0
VERTEX
   8
0
   6
Continuous
  10
 62.751568
  20
 75.608627
  30
 0.0
   0
VERTEX
   8
0
   6
Continuous
  10
 62.261257
  20
 76.282120
  30
 0.0
   0
VERTEX
   8
0
   6
Continuous
  10
 61.381214
  20
 74.748550
  30
 0.0
   0
VERTEX
   8
0
   6
Continuous
  10
 58.996349
  20
 72.150085
  30
 0.0
   0
VERTEX
   8
0
   6
Continuous
  10
 55.908054
  20
 70.389664
  30
 0.0
   0
VERTEX
   8
0
   6
Continuous
  10
 52.719074
  20
 69.760696
  30
 0.0
   0
VERTEX
   8
0
   6
Continuous
  10
 49.435703
  20
 69.577393
  30
 0.0
   0
VERTEX
   8
0
   6
Continuous
  10
 45.541294
  20
 69.799667
  30
 0.0
   0
VERTEX
   8
0
   6
Continuous
  10
 41.793156
  20
 70.519470
  30
 0.0
   0
VERTEX
   8
0
   6
Continuous
  10
 40.065311
  20
 71.473679
  30
 0.0
   0
VERTEX
   8
0
   6
Continuous
  10
 38.667027
  20
 72.675400
  30
 0.0
   0
VERTEX
   8
0
   6
Continuous
  10
 35.724735
  20
 76.457169
  30
 0.0
   0
VERTEX
   8
0
   6
Continuous
  10
 35.894245
  20
 77.061905
  30
 0.0
   0
VERTEX
   8
0
   6
Continuous
  10
 38.450642
  20
 78.612473
  30
 0.0
   0
VERTEX
   8
0
   6
Continuous
  10
 40.573040
  20
 80.606705
  30
 0.0
   0
VERTEX
   8
0
   6
Continuous
  10
 42.440517
  20
 83.939255
  30
 0.0
   0
VERTEX
   8
0
   6
Continuous
  10
 43.275539
  20
 86.994186
  30
 0.0
   0
VERTEX
   8
0
   6
Continuous
  10
 43.367634
  20
 90.159348
  30
 0.0
   0
VERTEX
   8
0
   6
Continuous
  10
 42.837635
  20
 93.745987
  30
 0.0
   0
VERTEX
   8
0
   6
Continuous
  10
 40.801128
  20
 97.776154
  30
 0.0
   0
VERTEX
   8
0
   6
Continuous
  10
 38.723988
  20
 100.032349
  30
 0.0
   0
VERTEX
   8
0
   6
Continuous
  10
 36.708515
  20
 101.483536
  30
 0.0
   0
VERTEX
   8
0
   6
Continuous
  10
 35.838009
  20
 102.119629
  30
 0.0
   0
VERTEX
   8
0
   6
Continuous
  10
 34.792713
  20
 102.602798
  30
 0.0
   0
VERTEX
   8
0
   6
Continuous
  10
 31.510250
  20
 103.435303
  30
 0.0
   0
VERTEX
   8
0
   6
Continuous
  10
 27.995281
  20
 103.584503
  30
 0.0
   0
VERTEX
   8
0
   6
Continuous
  10
 24.222202
  20
 102.807602
  30
 0.0
   0
VERTEX
   8
0
   6
Continuous
  10
 21.386921
  20
 101.309494
  30
 0.0
   0
VERTEX
   8
0
   6
Continuous
  10
 19.265347
  20
 99.566513
  30
 0.0
   0
VERTEX
   8
0
   6
Continuous
  10
 17.114155
  20
 96.915588
  30
 0.0
   0
VERTEX
   8
0
   6
Continuous
  10
 15.356617
  20
 92.823151
  30
 0.0
   0
VERTEX
   8
0
   6
Continuous
  10
 14.985706
  20
 89.938324
  30
 0.0
   0
VERTEX
   8
0
   6
Continuous
  10
 15.237499
  20
 86.729172
  30
 0.0
   0
VERTEX
   8
0
   6
Continuous
  10
 17.070530
  20
 82.144272
  30
 0.0
   0
VERTEX
   8
0
   6
Continuous
  10
 19.529316
  20
 79.104355
  30
 0.0
   0
VERTEX
   8
0
   6
Continuous
  10
 23.372868
  20
 76.520660
  30
 0.0
   0
VERTEX
   8
0
   6
Continuous
  10
 26.874599
  20
 75.616287
  30
 0.0
   0
VERTEX
   8
0
   6
Continuous
  10
 29.934307
  20
 75.428787
  30
 0.0
   0
VERTEX
   8
0
   6
Continuous
  10
 32.577442
  20
 75.818283
  30
 0.0
   0
VERTEX
   8
0
   6
Continuous
  10
 33.983570
  20
 75.918594
  30
 0.0
   0
VERTEX
   8
0
   6
Continuous
  10
 34.273014
  20
 75.513412
  30
 0.0
   0
VERTEX
   8
0
   6
Continuous
  10
 34.861576
  20
 71.076828
  30
 0.0
   0
VERTEX
   8
0
   6
Continuous
  10
 34.189945
  20
 67.706497
  30
 0.0
   0
VERTEX
   8
0
   6
Continuous
  10
 33.846455
  20
 66.327393
  30
 0.0
   0
VERTEX
   8
0
   6
Continuous
  10
 34.764217
  20
 62.489243
  30
 0.0
   0
VERTEX
   8
0
   6
Continuous
  10
 37.004124
  20
 56.279160
  30
 0.0
   0
VERTEX
   8
0
   6
Continuous
  10
 38.256809
  20
 50.657883
  30
 0.0
   0
VERTEX
   8
0
   6
Continuous
  10
 37.669880
  20
 47.841934
  30
 0.0
   0
VERTEX
   8
0
   6
Continuous
  10
 36.832600
  20
 45.997162
  30
 0.0
   0
VERTEX
   8
0
   6
Continuous
  10
 35.539814
  20
 44.473282
  30
 0.0
   0
VERTEX
   8
0
   6
Continuous
  10
 33.185703
  20
 42.060730
  30
 0.0
   0
VERTEX
   8
0
   6
Continuous
  10
 32.140354
  20
 41.156082
  30
 0.0
   0
VERTEX
   8
0
   6
Continuous
  10
 30.894466
  20
 40.018631
  30
 0.0
   0
VERTEX
   8
0
   6
Continuous
  10
 28.227032
  20
 37.486069
  30
 0.0
   0
VERTEX
   8
0
   6
Continuous
  10
 23.868000
  20
 33.178436
  30
 0.0
   0
VERTEX
   8
0
   6
Continuous
  10
 22.607021
  20
 31.839417
  30
 0.0
   0
VERTEX
   8
0
   6
Continuous
  10
 21.702366
  20
 30.794067
  30
 0.0
   0
VERTEX
   8
0
   6
Continuous
  10
 19.728497
  20
 28.651276
  30
 0.0
   0
VERTEX
   8
0
   6
Continuous
  10
 17.711308
  20
 26.335144
  30
 0.0
   0
VERTEX
   8
0
   6
Continuous
  10
 16.247448
  20
 24.349480
  30
 0.0
   0
VERTEX
   8
0
   6
Continuous
  10
 17.675228
  20
 25.504539
  30
 0.0
   0
VERTEX
   8
0
   6
Continuous
  10
 22.490047
  20
 29.573044
  30
 0.0
   0
VERTEX
   8
0
   6
Continuous
  10
 25.067432
  20
 31.545670
  30
 0.0
   0
VERTEX
   8
0
   6
Continuous
  10
 30.901035
  20
 35.678726
  30
 0.0
   0
VERTEX
   8
0
   6
Continuous
  10
 35.061131
  20
 38.235306
  30
 0.0
   0
VERTEX
   8
0
   6
Continuous
  10
 38.718983
  20
 39.994125
  30
 0.0
   0
VERTEX
   8
0
   6
Continuous
  10
 41.562305
  20
 41.050781
  30
 0.0
   0
VERTEX
   8
0
   6
Continuous
  10
 45.905827
  20
 41.834488
  30
 0.0
   0
VERTEX
   8
0
   6
Continuous
  10
 46.526928
  20
 41.617325
  30
 0.0
   0
VERTEX
   8
0
   6
Continuous
  10
 46.556202
  20
 37.140594
  30
 0.0
   0
VERTEX
   8
0
   6
Continuous
  10
 46.240459
  20
 36.624741
  30
 0.0
   0
VERTEX
   8
0
   6
Continuous
  10
 44.480137
  20
 36.182602
  30
 0.0
   0
VERTEX
   8
0
   6
Continuous
  10
 40.169315
  20
 34.643784
  30
 0.0
   0
VERTEX
   8
0
   6
Continuous
  10
 36.219044
  20
 32.527405
  30
 0.0
   0
VERTEX
   8
0
   6
Continuous
  10
 34.158298
  20
 31.121475
  30
 0.0
   0
VERTEX
   8
0
   6
Continuous
  10
 30.117329
  20
 28.445770
  30
 0.0
   0
VERTEX
   8
0
   6
Continuous
  10
 28.300480
  20
 27.012619
  30
 0.0
   0
VERTEX
   8
0
   6
Continuous
  10
 25.717319
  20
 25.045799
  30
 0.0
   0
VERTEX
   8
0
   6
Continuous
  10
 19.630749
  20
 19.865685
  30
 0.0
   0
VERTEX
   8
0
   6
Continuous
  10
 18.451099
  20
 18.168579
  30
 0.0
   0
VERTEX
   8
0
   6
Continuous
  10
 18.893421
  20
 17.367722
  30
 0.0
   0
VERTEX
   8
0
   6
Continuous
  10
 21.239819
  20
 15.814850
  30
 0.0
   0
VERTEX
   8
0
   6
Continuous
  10
 24.102482
  20
 13.910843
  30
 0.0
   0
VERTEX
   8
0
   6
Continuous
  10
 25.585377
  20
 12.145493
  30
 0.0
   0
VERTEX
   8
0
   6
Continuous
  10
 26.190159
  20
 10.943138
  30
 0.0
   0
VERTEX
   8
0
   6
Continuous
  10
 26.069981
  20
 9.526451
  30
 0.0
   0
VERTEX
   8
0
   6
Continuous
  10
 24.605335
  20
 7.534492
  30
 0.0
   0
VERTEX
   8
0
   6
Continuous
  10
 21.825176
  20
 6.621262
  30
 0.0
   0
VERTEX
   8
0
   6
Continuous
  10
 14.119038
  20
 6.527405
  30
 0.0
   0
VERTEX
   8
0
   6
Continuous
  10
 11.079967
  20
 6.773758
  30
 0.0
   0
VERTEX
   8
0
   6
Continuous
  10
 8.500584
  20
 7.842278
  30
 0.0
   0
VERTEX
   8
0
   6
Continuous
  10
 6.849850
  20
 9.406128
  30
 0.0
   0
VERTEX
   8
0
   6
Continuous
  10
 6.130493
  20
 10.889214
  30
 0.0
   0
VERTEX
   8
0
   6
Continuous
  10
 5.673019
  20
 13.248039
  30
 0.0
   0
SEQEND
   0
ENDSEC
   0
EOF
