  0
SECTION
  2
HEADER
  9
$ACADVER
  1
AC1015
  9
$ACADMAINTVER
 70
     6
  9
$DWGCODEPAGE
  3
ANSI_1252
  9
$INSBASE
 10
0.0
 20
0.0
 30
0.0
  9
$EXTMIN
 10
15.172515
 20
-31.88612
 30
0.0
  9
$EXTMAX
 10
312.46994
 20
225.598007
 30
0.0
  9
$LIMMIN
 10
17.739143
 20
-53.541245
  9
$LIMMAX
 10
309.498962
 20
226.615921
  9
$ORTHOMODE
 70
     0
  9
$REGENMODE
 70
     1
  9
$FILLMODE
 70
     1
  9
$QTEXTMODE
 70
     0
  9
$MIRRTEXT
 70
     1
  9
$LTSCALE
 40
1.0
  9
$ATTMODE
 70
     1
  9
$TEXTSIZE
 40
0.2
  9
$TRACEWID
 40
0.05
  9
$TEXTSTYLE
  7
STANDARD
  9
$CLAYER
  8
0
  9
$CELTYPE
  6
Continuous
  9
$CECOLOR
 62
     7
  9
$CELTSCALE
 40
1.0
  9
$DISPSILH
 70
     0
  9
$DIMSCALE
 40
1.0
  9
$DIMASZ
 40
2.5
  9
$DIMEXO
 40
0.625
  9
$DIMDLI
 40
3.75
  9
$DIMRND
 40
0.0
  9
$DIMDLE
 40
0.0
  9
$DIMEXE
 40
1.25
  9
$DIMTP
 40
0.0
  9
$DIMTM
 40
0.0
  9
$DIMTXT
 40
2.5
  9
$DIMCEN
 40
0.09
  9
$DIMTSZ
 40
0.0
  9
$DIMTOL
 70
     0
  9
$DIMLIM
 70
     0
  9
$DIMTIH
 70
     0
  9
$DIMTOH
 70
     0
  9
$DIMSE1
 70
     0
  9
$DIMSE2
 70
     0
  9
$DIMTAD
 70
     1
  9
$DIMZIN
 70
     8
  9
$DIMBLK
  1

  9
$DIMASO
 70
     0
  9
$DIMSHO
 70
     1
  9
$DIMPOST
  1
<>
  9
$DIMAPOST
  1
<>
  9
$DIMALT
 70
     0
  9
$DIMALTD
 70
     3
  9
$DIMALTF
 40
0.03937
  9
$DIMLFAC
 40
1.0
  9
$DIMTOFL
 70
     1
  9
$DIMTVP
 40
0.0
  9
$DIMTIX
 70
     0
  9
$DIMSOXD
 70
     0
  9
$DIMSAH
 70
     0
  9
$DIMBLK1
  1

  9
$DIMBLK2
  1

  9
$DIMSTYLE
  2
ISO-25
  9
$DIMCLRD
 70
     0
  9
$DIMCLRE
 70
     0
  9
$DIMCLRT
 70
     0
  9
$DIMTFAC
 40
1.0
  9
$DIMGAP
 40
0.625
  9
$DIMJUST
 70
     0
  9
$DIMSD1
 70
     0
  9
$DIMSD2
 70
     0
  9
$DIMTOLJ
 70
     0
  9
$DIMTZIN
 70
     8
  9
$DIMALTZ
 70
     0
  9
$DIMALTTZ
 70
     0
  9
$DIMUPT
 70
     0
  9
$DIMDEC
 70
     2
  9
$DIMTDEC
 70
     2
  9
$DIMALTU
 70
     2
  9
$DIMALTTD
 70
     3
  9
$DIMTXSTY
  7
STANDARD
  9
$DIMAUNIT
 70
     0
  9
$DIMADEC
 70
     2
  9
$DIMALTRND
 40
0.0
  9
$DIMAZIN
 70
     0
  9
$DIMDSEP
 70
     0
  9
$DIMATFIT
 70
     0
  9
$DIMFRAC
 70
     0
  9
$DIMLDRBLK
  1

  9
$DIMLUNIT
 70
     2
  9
$DIMLWD
 70
     0
  9
$DIMLWE
 70
     0
  9
$DIMTMOVE
 70
     0
  9
$LUNITS
 70
     2
  9
$LUPREC
 70
     4
  9
$SKETCHINC
 40
0.1
  9
$FILLETRAD
 40
0.0
  9
$AUNITS
 70
     0
  9
$AUPREC
 70
     0
  9
$MENU
  1
acad
  9
$ELEVATION
 40
0.0
  9
$PELEVATION
 40
0.0
  9
$THICKNESS
 40
0.0
  9
$LIMCHECK
 70
     0
  9
$CHAMFERA
 40
0.0
  9
$CHAMFERB
 40
0.0
  9
$CHAMFERC
 40
0.0
  9
$CHAMFERD
 40
0.0
  9
$SKPOLY
 70
     0
  9
$TDCREATE
 40
0.000000000
  9
$TDUCREATE
 40
0.000000000
  9
$TDUPDATE
 40
0.000000000
  9
$TDUUPDATE
 40
0.000000000
  9
$TDINDWG
 40
0.0000000000
  9
$TDUSRTIMER
 40
0.0000000000
  9
$USRTIMER
 70
     1
  9
$ANGBASE
 50
0.0
  9
$ANGDIR
 70
     0
  9
$PDMODE
 70
     0
  9
$PDSIZE
 40
0.0
  9
$PLINEWID
 40
0.0
  9
$SPLFRAME
 70
     0
  9
$SPLINETYPE
 70
     6
  9
$SPLINESEGS
 70
    20
  9
$HANDSEED
  5
45C
  9
$SURFTAB1
 70
     6
  9
$SURFTAB2
 70
     6
  9
$SURFTYPE
 70
     6
  9
$SURFU
 70
     6
  9
$SURFV
 70
     6
  9
$UCSBASE
  2

  9
$UCSNAME
  2

  9
$UCSORG
 10
0.0
 20
0.0
 30
0.0
  9
$UCSXDIR
 10
1.0
 20
0.0
 30
0.0
  9
$UCSYDIR
 10
0.0
 20
1.0
 30
0.0
  9
$UCSORTHOREF
  2

  9
$UCSORTHOVIEW
 70
     0
  9
$UCSORGTOP
 10
0.0
 20
0.0
 30
0.0
  9
$UCSORGBOTTOM
 10
0.0
 20
0.0
 30
0.0
  9
$UCSORGLEFT
 10
0.0
 20
0.0
 30
0.0
  9
$UCSORGRIGHT
 10
0.0
 20
0.0
 30
0.0
  9
$UCSORGFRONT
 10
0.0
 20
0.0
 30
0.0
  9
$UCSORGBACK
 10
0.0
 20
0.0
 30
0.0
  9
$PUCSBASE
  2

  9
$PUCSNAME
  2

  9
$PUCSORG
 10
0.0
 20
0.0
 30
0.0
  9
$PUCSXDIR
 10
1.0
 20
0.0
 30
0.0
  9
$PUCSYDIR
 10
0.0
 20
1.0
 30
0.0
  9
$PUCSORTHOREF
  2

  9
$PUCSORTHOVIEW
 70
     0
  9
$PUCSORGTOP
 10
0.0
 20
0.0
 30
0.0
  9
$PUCSORGBOTTOM
 10
0.0
 20
0.0
 30
0.0
  9
$PUCSORGLEFT
 10
0.0
 20
0.0
 30
0.0
  9
$PUCSORGRIGHT
 10
0.0
 20
0.0
 30
0.0
  9
$PUCSORGFRONT
 10
0.0
 20
0.0
 30
0.0
  9
$PUCSORGBACK
 10
0.0
 20
0.0
 30
0.0
  9
$USERI1
 70
     0
  9
$USERI2
 70
     0
  9
$USERI3
 70
     0
  9
$USERI4
 70
     0
  9
$USERI5
 70
     0
  9
$USERR1
 40
0.0
  9
$USERR2
 40
0.0
  9
$USERR3
 40
0.0
  9
$USERR4
 40
0.0
  9
$USERR5
 40
0.0
  9
$WORLDVIEW
 70
     1
  9
$SHADEDGE
 70
     3
  9
$SHADEDIF
 70
    70
  9
$TILEMODE
 70
     1
  9
$MAXACTVP
 70
    16
  9
$PINSBASE
 10
0.0
 20
0.0
 30
0.0
  9
$PLIMCHECK
 70
     0
  9
$PEXTMIN
 10
0.0
 20
0.0
 30
0.0
  9
$PEXTMAX
 10
12.0
 20
9.0
 30
0.0
  9
$PLIMMIN
 10
0.0
 20
0.0
  9
$PLIMMAX
 10
12.0
 20
9.0
  9
$UNITMODE
 70
     0
  9
$VISRETAIN
 70
     0
  9
$PLINEGEN
 70
     1
  9
$PSLTSCALE
 70
     0
  9
$TREEDEPTH
 70
  3020
  9
$CMLSTYLE
  2
STANDARD
  9
$CMLJUST
 70
     0
  9
$CMLSCALE
 40
1.0
  9
$PROXYGRAPHICS
 70
     0
  9
$MEASUREMENT
 70
     0
  9
$CELWEIGHT
370
     0
  9
$ENDCAPS
280
     0
  9
$JOINSTYLE
280
     0
  9
$LWDISPLAY
290
     0
  9
$INSUNITS
 70
     0
  9
$HYPERLINKBASE
  1

  9
$XEDIT
290
     1
  9
$CEPSNTYPE
380
     0
  9
$PSTYLEMODE
290
     1
  9
$FINGERPRINTGUID
  2

  9
$VERSIONGUID
  2

  9
$EXTNAMES
290
     1
  9
$PSVPSCALE
 40
0.0
  0
ENDSEC
  0
SECTION
  2
CLASSES
  0
CLASS
  1
LWPOLYLINE
  2
AcDbPolyline
  3
AutoCAD 2000
 90
    32768
280
     0
281
     1
  0
CLASS
  1
IMAGE
  2
AcDbRasterImage
  3
ISM
 90
    32895
280
     0
281
     1
  0
CLASS
  1
OLE2FRAME
  2
AcDbOle2Frame
  3
AutoCAD 2000
 90
    32768
280
     0
281
     1
  0
CLASS
  1
HATCH
  2
AcDbHatch
  3
AutoCAD 2000
 90
    32768
280
     0
281
     1
  0
CLASS
  1
DICTIONARYVAR
  2
AcDbDictionaryVar
  3
AutoCAD 2000
 90
    32768
280
     0
281
     0
  0
CLASS
  1
RASTERVARIABLES
  2
AcDbRasterVariables
  3
ISM
 90
    32768
280
     0
281
     0
  0
CLASS
  1
IMAGEDEF
  2
AcDbRasterImageDef
  3
ISM
 90
    32768
280
     0
281
     0
  0
CLASS
  1
IMAGEDEF_REACTOR
  2
AcDbRasterImageDefReactor
  3
ISM
 90
    32769
280
     0
281
     0
  0
CLASS
  1
IDBUFFER
  2
AcDbIdBuffer
  3
AutoCAD 2000
 90
    32768
280
     0
281
     0
  0
CLASS
  1
SPATIAL_FILTER
  2
AcDbSpatialFilter
  3
AutoCAD 2000
 90
    32768
280
     0
281
     0
  0
CLASS
  1
XRECORD
  2
AcDbXrecord
  3
AutoCAD 2000
 90
    32768
280
     0
281
     0
  0
CLASS
  1
SORTENTSTABLE
  2
AcDbSortentsTable
  3
AutoCAD 2000
 90
    32768
280
     0
281
     0
  0
CLASS
  1
LAYER_INDEX
  2
AcDbLayerIndex
  3
AutoCAD 2000
 90
    32768
280
     0
281
     0
  0
CLASS
  1
SPATIAL_INDEX
  2
AcDbSpatialIndex
  3
AutoCAD 2000
 90
    32768
280
     0
281
     0
  0
CLASS
  1
OBJECT_PTR
  2
CAseDLPNTableRecord
  3
"ASE-LPNTableRecord"
 90
    32769
280
     0
281
     0
  0
CLASS
  1
LAYOUT
  2
AcDbLayout
  3
AutoCAD 2000
 90
        0
280
     0
281
     0
  0
CLASS
  1
PLOTSETTINGS
  2
AcDbPlotSettings
  3
AutoCAD 2000
 90
    32768
280
     0
281
     0
  0
CLASS
  1
ACDBDICTIONARYWDFLT
  2
AcDbDictionaryWithDefault
  3
AutoCAD 2000
 90
        0
280
     0
281
     0
  0
CLASS
  1
ACDBPLACEHOLDER
  2
AcDbPlaceHolder
  3
AutoCAD 2000
 90
        0
280
     0
281
     0
  0
ENDSEC
  0
SECTION
  2
TABLES
  0
TABLE
  2
VPORT
  5
7
100
AcDbSymbolTable
 70
     1
  0
VPORT
  5
15
100
AcDbSymbolTableRecord
100
AcDbViewportTableRecord
  2
*ACTIVE
 70
     0
 10
0.0
 20
0.0
 11
1.0
 21
1.0
 12
0.0
 22
0.0
 13
0.0
 23
0.0
 14
10.0
 24
10.0
 15
10.0
 25
10.0
 16
0.0
 26
0.0
 36
1.0
 17
163.619043
 27
88.53207
 37
3.0
 40
284.925415
 41
1.973913
 42
50.0
 43
0.0
 44
0.0
 50
0.0
 51
0.0
 71
     0
 72
   100
 73
     1
 74
     1
 75
     0
 76
     0
 77
     0
 78
     0
281
     0
 65
     0
110
0.0
120
0.0
130
0.0
111
1.0
121
0.0
131
0.0
112
0.0
122
1.0
132
0.0
345
0
346
0
 79
     0
146
0.0
  0
ENDTAB
  0
TABLE
  2
LTYPE
  5
4
100
AcDbSymbolTable
 70
    15
  0
LTYPE
  5
11
100
AcDbSymbolTableRecord
100
AcDbLinetypeTableRecord
  2
ByBlock
 70
    64
  3

 72
    65
 73
     0
 40
0.0
  0
LTYPE
  5
12
100
AcDbSymbolTableRecord
100
AcDbLinetypeTableRecord
  2
ByLayer
 70
    64
  3

 72
    65
 73
     0
 40
0.0
  0
LTYPE
  5
13
100
AcDbSymbolTableRecord
100
AcDbLinetypeTableRecord
  2
Continuous
 70
    64
  3
Solid line
 72
    65
 73
     0
 40
0.0
  0
LTYPE
  5
24
100
AcDbSymbolTableRecord
100
AcDbLinetypeTableRecord
  2
BORDER
 70
     0
  3
BORDER
 72
    65
 73
     6
 40
1.75
 49
0.5
 74
     0
 49
-0.25
 74
     0
 49
0.5
 74
     0
 49
-0.25
 74
     0
 49
0.0
 74
     0
 49
-0.25
 74
     0
  0
LTYPE
  5
25
100
AcDbSymbolTableRecord
100
AcDbLinetypeTableRecord
  2
CENTER
 70
     0
  3
CENTER
 72
    65
 73
     4
 40
2.0
 49
1.25
 74
     0
 49
-0.25
 74
     0
 49
0.25
 74
     0
 49
-0.25
 74
     0
  0
LTYPE
  5
26
100
AcDbSymbolTableRecord
100
AcDbLinetypeTableRecord
  2
DASHDOT
 70
     0
  3
DASHDOT
 72
    65
 73
     4
 40
1.0
 49
0.5
 74
     0
 49
-0.25
 74
     0
 49
0.0
 74
     0
 49
-0.25
 74
     0
  0
LTYPE
  5
27
100
AcDbSymbolTableRecord
100
AcDbLinetypeTableRecord
  2
DASHED
 70
     0
  3
DASHED
 72
    65
 73
     2
 40
0.75
 49
0.5
 74
     0
 49
-0.25
 74
     0
  0
LTYPE
  5
28
100
AcDbSymbolTableRecord
100
AcDbLinetypeTableRecord
  2
DIVIDE
 70
     0
  3
DIVIDE
 72
    65
 73
     6
 40
1.25
 49
0.5
 74
     0
 49
-0.25
 74
     0
 49
0.0
 74
     0
 49
-0.25
 74
     0
 49
0.0
 74
     0
 49
-0.25
 74
     0
  0
LTYPE
  5
29
100
AcDbSymbolTableRecord
100
AcDbLinetypeTableRecord
  2
DOT
 70
     0
  3
DOT
 72
    65
 73
     2
 40
0.25
 49
0.0
 74
     0
 49
-0.25
 74
     0
  0
LTYPE
  5
2A
100
AcDbSymbolTableRecord
100
AcDbLinetypeTableRecord
  2
HIDDEN
 70
     0
  3
HIDDEN
 72
    65
 73
     2
 40
0.375
 49
0.25
 74
     0
 49
-0.125
 74
     0
  0
LTYPE
  5
2B
100
AcDbSymbolTableRecord
100
AcDbLinetypeTableRecord
  2
PHANTOM
 70
     0
  3
PHANTOM
 72
    65
 73
     6
 40
2.5
 49
1.25
 74
     0
 49
-0.25
 74
     0
 49
0.25
 74
     0
 49
-0.25
 74
     0
 49
0.25
 74
     0
 49
-0.25
 74
     0
  0
LTYPE
  5
2C
100
AcDbSymbolTableRecord
100
AcDbLinetypeTableRecord
  2
$INVISIBLE
 70
     0
  3
$INVISIBLE
 72
    65
 73
     2
 40
200.0
 49
-100.0
 74
     0
 49
-100.0
 74
     0
  0
LTYPE
  5
2D
100
AcDbSymbolTableRecord
100
AcDbLinetypeTableRecord
  2
$SNAPEXT
 70
     0
  3
$SNAPEXT
 72
    65
 73
     2
 40
0.04
 49
0.02
 74
     0
 49
-0.02
 74
     0
  0
LTYPE
  5
2E
100
AcDbSymbolTableRecord
100
AcDbLinetypeTableRecord
  2
$AUXILIARY
 70
     0
  3
$AUXILIARY
 72
    65
 73
     2
 40
0.1
 49
0.05
 74
     0
 49
-0.05
 74
     0
  0
LTYPE
  5
2F
100
AcDbSymbolTableRecord
100
AcDbLinetypeTableRecord
  2
$CONSTRUCTION
 70
     0
  3
$CONSTRUCTION
 72
    65
 73
     4
 40
0.3
 49
0.2
 74
     0
 49
-0.05
 74
     0
 49
0.0
 74
     0
 49
-0.05
 74
     0
  0
ENDTAB
  0
TABLE
  2
LAYER
  5
2
100
AcDbSymbolTable
 70
     3
  0
LAYER
  5
14
100
AcDbSymbolTableRecord
100
AcDbLayerTableRecord
  2
0
 70
     0
 62
     7
  6
Continuous
290
     1
370
    -3
390
0
1001
TCAD
1000
TCW_LAYER_ORDER
1002
{
1071
        0
1002
}
  0
LAYER
  5
30
100
AcDbSymbolTableRecord
100
AcDbLayerTableRecord
  2
Calque 1
 70
     0
 62
     7
  6
Continuous
290
     1
370
    -3
390
0
1001
TCAD
1000
TCW_LAYER_ORDER
1002
{
1071
        0
1002
}
  0
LAYER
  5
31
100
AcDbSymbolTableRecord
100
AcDbLayerTableRecord
  2
$CONSTRUCTION
 70
     0
 62
     9
  6
$CONSTRUCTION
290
     1
370
    -3
390
0
1001
TCAD
1000
TCW_LAYER_ORDER
1002
{
1071
        0
1002
}
  0
ENDTAB
  0
TABLE
  2
STYLE
  5
3
100
AcDbSymbolTable
 70
     2
  0
STYLE
  5
17
100
AcDbSymbolTableRecord
100
AcDbTextStyleTableRecord
  2
STANDARD
 70
     0
 40
0.0
 41
1.0
 50
0.0
 71
     0
 42
2.5
  3
TXT.SHX
  4

  0
STYLE
  5
33
100
AcDbSymbolTableRecord
100
AcDbTextStyleTableRecord
  2
_TCW_TXTSTY_1
 70
     0
 40
0.0
 41
1.0
 50
0.0
 71
     0
 42
0.6
  3

  4

1001
ACAD
1000
Times New Roman
1071
      290
  0
ENDTAB
  0
TABLE
  2
VIEW
  5
5
100
AcDbSymbolTable
 70
     1
  0
VIEW
  5
32
100
AcDbSymbolTableRecord
100
AcDbViewTableRecord
  2
Vue_0
 70
     0
 40
210.0
 10
148.5
 20
105.0
 41
297.0
 11
0.0
 21
0.0
 31
1.0
 12
0.0
 22
0.0
 32
0.0
 42
50.0
 43
0.0
 44
0.0
 50
0.0
 71
     0
281
     0
 72
     0
110
0.0
120
0.0
130
0.0
111
1.0
121
0.0
131
0.0
112
0.0
122
1.0
132
0.0
  0
ENDTAB
  0
TABLE
  2
UCS
  5
6
100
AcDbSymbolTable
 70
     0
  0
ENDTAB
  0
TABLE
  2
APPID
  5
8
100
AcDbSymbolTable
 70
     2
  0
APPID
  5
16
100
AcDbSymbolTableRecord
100
AcDbRegAppTableRecord
  2
ACAD
 70
     0
  0
APPID
  5
23
100
AcDbSymbolTableRecord
100
AcDbRegAppTableRecord
  2
TCAD
 70
     0
  0
ENDTAB
  0
TABLE
  2
DIMSTYLE
  5
9
100
AcDbSymbolTable
 70
     2
100
AcDbDimStyleTable
 71
     0
  0
DIMSTYLE
105
18
100
AcDbSymbolTableRecord
100
AcDbDimStyleTableRecord
  2
STANDARD
 70
     0
  3

  4

 40
1.0
 41
3.0
 42
1.0
 43
7.5
 44
2.0
 45
0.2
 46
0.0
 47
0.0
 48
0.0
 71
     0
 72
     0
 73
     1
 74
     1
 75
     0
 76
     0
 77
     1
 78
     0
 79
     0
140
3.0
141
0.09
142
0.0
143
1.0
144
1.0
145
0.0
146
1.0
147
2.0
148
0.01
170
     0
171
     2
172
     1
173
     0
174
     0
175
     0
176
     7
177
     7
178
     7
179
     2
271
     2
272
     2
273
     2
274
     2
275
     0
276
     0
277
     2
278
    46
279
     0
280
     0
281
     0
282
     0
283
     1
284
     0
285
     8
286
     0
288
     0
340
33
341
0
342
0
343
0
344
0
371
    -2
372
    -2
  0
DIMSTYLE
105
34
100
AcDbSymbolTableRecord
100
AcDbDimStyleTableRecord
  2
ISO-25
 70
     0
  3
<>
  4
<>
 40
1.0
 41
2.5
 42
0.625
 43
3.75
 44
1.25
 45
0.0
 46
0.0
 47
0.0
 48
0.0
 71
     0
 72
     0
 73
     0
 74
     0
 75
     0
 76
     0
 77
     1
 78
     8
 79
     0
140
2.5
141
0.09
142
0.0
143
0.03937
144
1.0
145
0.0
146
1.0
147
0.625
148
0.01
170
     0
171
     3
172
     1
173
     0
174
     0
175
     0
176
     0
177
     0
178
     0
179
     2
271
     2
272
     2
273
     2
274
     3
275
     0
276
     0
277
     2
278
    46
279
     0
280
     0
281
     0
282
     0
283
     0
284
     8
285
     0
286
     0
288
     0
340
17
341
0
342
0
343
0
344
0
371
    -2
372
    -2
  0
ENDTAB
  0
TABLE
  2
BLOCK_RECORD
  5
1
100
AcDbSymbolTable
 70
     2
  0
BLOCK_RECORD
  5
A
100
AcDbSymbolTableRecord
100
AcDbBlockTableRecord
  2
*MODEL_SPACE
340
45A
  0
BLOCK_RECORD
  5
B
100
AcDbSymbolTableRecord
100
AcDbBlockTableRecord
  2
*PAPER_SPACE
340
45B
  0
BLOCK_RECORD
  5
13D
100
AcDbSymbolTableRecord
100
AcDbBlockTableRecord
  2
*E0
340
0
102
{BLKREFS
331
17F
102
}
  0
BLOCK_RECORD
  5
180
100
AcDbSymbolTableRecord
100
AcDbBlockTableRecord
  2
*E1
340
0
102
{BLKREFS
331
1C2
102
}
  0
ENDTAB
  0
ENDSEC
  0
SECTION
  2
BLOCKS
  0
BLOCK
  5
D
100
AcDbEntity
  8
0
100
AcDbBlockBegin
  2
*MODEL_SPACE
 70
     0
 10
0.0
 20
0.0
 30
0.0
  3
*MODEL_SPACE
  1

  0
ENDBLK
  5
E
100
AcDbEntity
  8
0
100
AcDbBlockEnd
  0
BLOCK
  5
F
100
AcDbEntity
 67
     1
  8
0
100
AcDbBlockBegin
  2
*PAPER_SPACE
 70
     0
 10
0.0
 20
0.0
 30
0.0
  3
*PAPER_SPACE
  1

  0
ENDBLK
  5
10
100
AcDbEntity
 67
     1
  8
0
100
AcDbBlockEnd
  0
BLOCK
  5
13E
100
AcDbEntity
  8
0
100
AcDbBlockBegin
  2
*E0
 70
     1
 10
0.0
 20
0.0
 30
0.0
  3
*E0
  1

  0
POLYLINE
  5
13F
100
AcDbEntity
  8
0
370
     0
  6
Continuous
 62
     7
100
AcDb2dPolyline
 66
     1
 10
0.0
 20
0.0
 30
0.0
 70
   128
  0
VERTEX
  5
140
100
AcDbEntity
  8
0
  6
Continuous
 62
     7
100
AcDbVertex
100
AcDb2dVertex
 10
248.673922
 20
79.465738
 30
0.0
  0
VERTEX
  5
141
100
AcDbEntity
  8
0
  6
Continuous
 62
     7
100
AcDbVertex
100
AcDb2dVertex
 10
249.722841
 20
80.713895
 30
0.0
  0
VERTEX
  5
142
100
AcDbEntity
  8
0
  6
Continuous
 62
     7
100
AcDbVertex
100
AcDb2dVertex
 10
250.813898
 20
81.933428
 30
0.0
  0
VERTEX
  5
143
100
AcDbEntity
  8
0
  6
Continuous
 62
     7
100
AcDbVertex
100
AcDb2dVertex
 10
251.945344
 20
83.123158
 30
0.0
  0
VERTEX
  5
144
100
AcDbEntity
  8
0
  6
Continuous
 62
     7
100
AcDbVertex
100
AcDb2dVertex
 10
253.115435
 20
84.281911
 30
0.0
  0
VERTEX
  5
145
100
AcDbEntity
  8
0
  6
Continuous
 62
     7
100
AcDbVertex
100
AcDb2dVertex
 10
254.322422
 20
85.408508
 30
0.0
  0
VERTEX
  5
146
100
AcDbEntity
  8
0
  6
Continuous
 62
     7
100
AcDbVertex
100
AcDb2dVertex
 10
255.564559
 20
86.501774
 30
0.0
  0
VERTEX
  5
147
100
AcDbEntity
  8
0
  6
Continuous
 62
     7
100
AcDbVertex
100
AcDb2dVertex
 10
256.8401
 20
87.560531
 30
0.0
  0
VERTEX
  5
148
100
AcDbEntity
  8
0
  6
Continuous
 62
     7
100
AcDbVertex
100
AcDb2dVertex
 10
258.147297
 20
88.583603
 30
0.0
  0
VERTEX
  5
149
100
AcDbEntity
  8
0
  6
Continuous
 62
     7
100
AcDbVertex
100
AcDb2dVertex
 10
259.484403
 20
89.569813
 30
0.0
  0
VERTEX
  5
14A
100
AcDbEntity
  8
0
  6
Continuous
 62
     7
100
AcDbVertex
100
AcDb2dVertex
 10
260.849672
 20
90.517985
 30
0.0
  0
VERTEX
  5
14B
100
AcDbEntity
  8
0
  6
Continuous
 62
     7
100
AcDbVertex
100
AcDb2dVertex
 10
262.241357
 20
91.426942
 30
0.0
  0
VERTEX
  5
14C
100
AcDbEntity
  8
0
  6
Continuous
 62
     7
100
AcDbVertex
100
AcDb2dVertex
 10
263.657711
 20
92.295507
 30
0.0
  0
VERTEX
  5
14D
100
AcDbEntity
  8
0
  6
Continuous
 62
     7
100
AcDbVertex
100
AcDb2dVertex
 10
265.096988
 20
93.122503
 30
0.0
  0
VERTEX
  5
14E
100
AcDbEntity
  8
0
  6
Continuous
 62
     7
100
AcDbVertex
100
AcDb2dVertex
 10
266.55744
 20
93.906755
 30
0.0
  0
VERTEX
  5
14F
100
AcDbEntity
  8
0
  6
Continuous
 62
     7
100
AcDbVertex
100
AcDb2dVertex
 10
268.03732
 20
94.647084
 30
0.0
  0
VERTEX
  5
150
100
AcDbEntity
  8
0
  6
Continuous
 62
     7
100
AcDbVertex
100
AcDb2dVertex
 10
269.534883
 20
95.342315
 30
0.0
  0
VERTEX
  5
151
100
AcDbEntity
  8
0
  6
Continuous
 62
     7
100
AcDbVertex
100
AcDb2dVertex
 10
271.04838
 20
95.991271
 30
0.0
  0
VERTEX
  5
152
100
AcDbEntity
  8
0
  6
Continuous
 62
     7
100
AcDbVertex
100
AcDb2dVertex
 10
272.576066
 20
96.592775
 30
0.0
  0
VERTEX
  5
153
100
AcDbEntity
  8
0
  6
Continuous
 62
     7
100
AcDbVertex
100
AcDb2dVertex
 10
274.116193
 20
97.14565
 30
0.0
  0
VERTEX
  5
154
100
AcDbEntity
  8
0
  6
Continuous
 62
     7
100
AcDbVertex
100
AcDb2dVertex
 10
275.667015
 20
97.64872
 30
0.0
  0
VERTEX
  5
155
100
AcDbEntity
  8
0
  6
Continuous
 62
     7
100
AcDbVertex
100
AcDb2dVertex
 10
276.769192
 20
97.961052
 30
0.0
  0
VERTEX
  5
156
100
AcDbEntity
  8
0
  6
Continuous
 62
     7
100
AcDbVertex
100
AcDb2dVertex
 10
277.937307
 20
98.24149
 30
0.0
  0
VERTEX
  5
157
100
AcDbEntity
  8
0
  6
Continuous
 62
     7
100
AcDbVertex
100
AcDb2dVertex
 10
279.162836
 20
98.487748
 30
0.0
  0
VERTEX
  5
158
100
AcDbEntity
  8
0
  6
Continuous
 62
     7
100
AcDbVertex
100
AcDb2dVertex
 10
280.437255
 20
98.697546
 30
0.0
  0
VERTEX
  5
159
100
AcDbEntity
  8
0
  6
Continuous
 62
     7
100
AcDbVertex
100
AcDb2dVertex
 10
281.752041
 20
98.868598
 30
0.0
  0
VERTEX
  5
15A
100
AcDbEntity
  8
0
  6
Continuous
 62
     7
100
AcDbVertex
100
AcDb2dVertex
 10
283.098671
 20
98.998621
 30
0.0
  0
VERTEX
  5
15B
100
AcDbEntity
  8
0
  6
Continuous
 62
     7
100
AcDbVertex
100
AcDb2dVertex
 10
284.468621
 20
99.085333
 30
0.0
  0
VERTEX
  5
15C
100
AcDbEntity
  8
0
  6
Continuous
 62
     7
100
AcDbVertex
100
AcDb2dVertex
 10
285.853367
 20
99.126449
 30
0.0
  0
VERTEX
  5
15D
100
AcDbEntity
  8
0
  6
Continuous
 62
     7
100
AcDbVertex
100
AcDb2dVertex
 10
287.244386
 20
99.119687
 30
0.0
  0
VERTEX
  5
15E
100
AcDbEntity
  8
0
  6
Continuous
 62
     7
100
AcDbVertex
100
AcDb2dVertex
 10
288.633155
 20
99.062763
 30
0.0
  0
VERTEX
  5
15F
100
AcDbEntity
  8
0
  6
Continuous
 62
     7
100
AcDbVertex
100
AcDb2dVertex
 10
290.011149
 20
98.953393
 30
0.0
  0
VERTEX
  5
160
100
AcDbEntity
  8
0
  6
Continuous
 62
     7
100
AcDbVertex
100
AcDb2dVertex
 10
291.369846
 20
98.789295
 30
0.0
  0
VERTEX
  5
161
100
AcDbEntity
  8
0
  6
Continuous
 62
     7
100
AcDbVertex
100
AcDb2dVertex
 10
292.700722
 20
98.568185
 30
0.0
  0
VERTEX
  5
162
100
AcDbEntity
  8
0
  6
Continuous
 62
     7
100
AcDbVertex
100
AcDb2dVertex
 10
293.995254
 20
98.287779
 30
0.0
  0
VERTEX
  5
163
100
AcDbEntity
  8
0
  6
Continuous
 62
     7
100
AcDbVertex
100
AcDb2dVertex
 10
295.244917
 20
97.945795
 30
0.0
  0
VERTEX
  5
164
100
AcDbEntity
  8
0
  6
Continuous
 62
     7
100
AcDbVertex
100
AcDb2dVertex
 10
296.441189
 20
97.539948
 30
0.0
  0
VERTEX
  5
165
100
AcDbEntity
  8
0
  6
Continuous
 62
     7
100
AcDbVertex
100
AcDb2dVertex
 10
297.575545
 20
97.067956
 30
0.0
  0
VERTEX
  5
166
100
AcDbEntity
  8
0
  6
Continuous
 62
     7
100
AcDbVertex
100
AcDb2dVertex
 10
298.639463
 20
96.527535
 30
0.0
  0
VERTEX
  5
167
100
AcDbEntity
  8
0
  6
Continuous
 62
     7
100
AcDbVertex
100
AcDb2dVertex
 10
299.624419
 20
95.916402
 30
0.0
  0
VERTEX
  5
168
100
AcDbEntity
  8
0
  6
Continuous
 62
     7
100
AcDbVertex
100
AcDb2dVertex
 10
300.521889
 20
95.232273
 30
0.0
  0
VERTEX
  5
169
100
AcDbEntity
  8
0
  6
Continuous
 62
     7
100
AcDbVertex
100
AcDb2dVertex
 10
301.556058
 20
94.31773
 30
0.0
  0
VERTEX
  5
16A
100
AcDbEntity
  8
0
  6
Continuous
 62
     7
100
AcDbVertex
100
AcDb2dVertex
 10
302.513701
 20
93.392861
 30
0.0
  0
VERTEX
  5
16B
100
AcDbEntity
  8
0
  6
Continuous
 62
     7
100
AcDbVertex
100
AcDb2dVertex
 10
303.397303
 20
92.456052
 30
0.0
  0
VERTEX
  5
16C
100
AcDbEntity
  8
0
  6
Continuous
 62
     7
100
AcDbVertex
100
AcDb2dVertex
 10
304.209351
 20
91.505688
 30
0.0
  0
VERTEX
  5
16D
100
AcDbEntity
  8
0
  6
Continuous
 62
     7
100
AcDbVertex
100
AcDb2dVertex
 10
304.95233
 20
90.540155
 30
0.0
  0
VERTEX
  5
16E
100
AcDbEntity
  8
0
  6
Continuous
 62
     7
100
AcDbVertex
100
AcDb2dVertex
 10
305.628725
 20
89.557839
 30
0.0
  0
VERTEX
  5
16F
100
AcDbEntity
  8
0
  6
Continuous
 62
     7
100
AcDbVertex
100
AcDb2dVertex
 10
306.241023
 20
88.557125
 30
0.0
  0
VERTEX
  5
170
100
AcDbEntity
  8
0
  6
Continuous
 62
     7
100
AcDbVertex
100
AcDb2dVertex
 10
306.791709
 20
87.536398
 30
0.0
  0
VERTEX
  5
171
100
AcDbEntity
  8
0
  6
Continuous
 62
     7
100
AcDbVertex
100
AcDb2dVertex
 10
307.283268
 20
86.494044
 30
0.0
  0
VERTEX
  5
172
100
AcDbEntity
  8
0
  6
Continuous
 62
     7
100
AcDbVertex
100
AcDb2dVertex
 10
307.718186
 20
85.428449
 30
0.0
  0
VERTEX
  5
173
100
AcDbEntity
  8
0
  6
Continuous
 62
     7
100
AcDbVertex
100
AcDb2dVertex
 10
308.098949
 20
84.337999
 30
0.0
  0
VERTEX
  5
174
100
AcDbEntity
  8
0
  6
Continuous
 62
     7
100
AcDbVertex
100
AcDb2dVertex
 10
308.428042
 20
83.221078
 30
0.0
  0
VERTEX
  5
175
100
AcDbEntity
  8
0
  6
Continuous
 62
     7
100
AcDbVertex
100
AcDb2dVertex
 10
308.707951
 20
82.076073
 30
0.0
  0
VERTEX
  5
176
100
AcDbEntity
  8
0
  6
Continuous
 62
     7
100
AcDbVertex
100
AcDb2dVertex
 10
308.941162
 20
80.901368
 30
0.0
  0
VERTEX
  5
177
100
AcDbEntity
  8
0
  6
Continuous
 62
     7
100
AcDbVertex
100
AcDb2dVertex
 10
309.13016
 20
79.69535
 30
0.0
  0
VERTEX
  5
178
100
AcDbEntity
  8
0
  6
Continuous
 62
     7
100
AcDbVertex
100
AcDb2dVertex
 10
309.277431
 20
78.456404
 30
0.0
  0
VERTEX
  5
179
100
AcDbEntity
  8
0
  6
Continuous
 62
     7
100
AcDbVertex
100
AcDb2dVertex
 10
309.385461
 20
77.182916
 30
0.0
  0
VERTEX
  5
17A
100
AcDbEntity
  8
0
  6
Continuous
 62
     7
100
AcDbVertex
100
AcDb2dVertex
 10
309.456735
 20
75.873271
 30
0.0
  0
VERTEX
  5
17B
100
AcDbEntity
  8
0
  6
Continuous
 62
     7
100
AcDbVertex
100
AcDb2dVertex
 10
309.493738
 20
74.525854
 30
0.0
  0
VERTEX
  5
17C
100
AcDbEntity
  8
0
  6
Continuous
 62
     7
100
AcDbVertex
100
AcDb2dVertex
 10
309.498957
 20
73.139052
 30
0.0
  0
SEQEND
  5
17D
100
AcDbEntity
  8
0
  6
Continuous
 62
     7
  0
ENDBLK
  5
17E
100
AcDbEntity
  8
0
100
AcDbBlockEnd
  0
BLOCK
  5
181
100
AcDbEntity
  8
0
100
AcDbBlockBegin
  2
*E1
 70
     1
 10
0.0
 20
0.0
 30
0.0
  3
*E1
  1

  0
POLYLINE
  5
182
100
AcDbEntity
  8
0
370
     0
  6
Continuous
 62
     7
100
AcDb2dPolyline
 66
     1
 10
0.0
 20
0.0
 30
0.0
 70
   128
  0
VERTEX
  5
183
100
AcDbEntity
  8
0
  6
Continuous
 62
     7
100
AcDbVertex
100
AcDb2dVertex
 10
248.673922
 20
58.465738
 30
0.0
  0
VERTEX
  5
184
100
AcDbEntity
  8
0
  6
Continuous
 62
     7
100
AcDbVertex
100
AcDb2dVertex
 10
249.722841
 20
57.217581
 30
0.0
  0
VERTEX
  5
185
100
AcDbEntity
  8
0
  6
Continuous
 62
     7
100
AcDbVertex
100
AcDb2dVertex
 10
250.813898
 20
55.998048
 30
0.0
  0
VERTEX
  5
186
100
AcDbEntity
  8
0
  6
Continuous
 62
     7
100
AcDbVertex
100
AcDb2dVertex
 10
251.945344
 20
54.808318
 30
0.0
  0
VERTEX
  5
187
100
AcDbEntity
  8
0
  6
Continuous
 62
     7
100
AcDbVertex
100
AcDb2dVertex
 10
253.115435
 20
53.649566
 30
0.0
  0
VERTEX
  5
188
100
AcDbEntity
  8
0
  6
Continuous
 62
     7
100
AcDbVertex
100
AcDb2dVertex
 10
254.322422
 20
52.522968
 30
0.0
  0
VERTEX
  5
189
100
AcDbEntity
  8
0
  6
Continuous
 62
     7
100
AcDbVertex
100
AcDb2dVertex
 10
255.564559
 20
51.429703
 30
0.0
  0
VERTEX
  5
18A
100
AcDbEntity
  8
0
  6
Continuous
 62
     7
100
AcDbVertex
100
AcDb2dVertex
 10
256.8401
 20
50.370946
 30
0.0
  0
VERTEX
  5
18B
100
AcDbEntity
  8
0
  6
Continuous
 62
     7
100
AcDbVertex
100
AcDb2dVertex
 10
258.147297
 20
49.347874
 30
0.0
  0
VERTEX
  5
18C
100
AcDbEntity
  8
0
  6
Continuous
 62
     7
100
AcDbVertex
100
AcDb2dVertex
 10
259.484403
 20
48.361663
 30
0.0
  0
VERTEX
  5
18D
100
AcDbEntity
  8
0
  6
Continuous
 62
     7
100
AcDbVertex
100
AcDb2dVertex
 10
260.849672
 20
47.413491
 30
0.0
  0
VERTEX
  5
18E
100
AcDbEntity
  8
0
  6
Continuous
 62
     7
100
AcDbVertex
100
AcDb2dVertex
 10
262.241357
 20
46.504535
 30
0.0
  0
VERTEX
  5
18F
100
AcDbEntity
  8
0
  6
Continuous
 62
     7
100
AcDbVertex
100
AcDb2dVertex
 10
263.657711
 20
45.63597
 30
0.0
  0
VERTEX
  5
190
100
AcDbEntity
  8
0
  6
Continuous
 62
     7
100
AcDbVertex
100
AcDb2dVertex
 10
265.096988
 20
44.808973
 30
0.0
  0
VERTEX
  5
191
100
AcDbEntity
  8
0
  6
Continuous
 62
     7
100
AcDbVertex
100
AcDb2dVertex
 10
266.55744
 20
44.024722
 30
0.0
  0
VERTEX
  5
192
100
AcDbEntity
  8
0
  6
Continuous
 62
     7
100
AcDbVertex
100
AcDb2dVertex
 10
268.03732
 20
43.284392
 30
0.0
  0
VERTEX
  5
193
100
AcDbEntity
  8
0
  6
Continuous
 62
     7
100
AcDbVertex
100
AcDb2dVertex
 10
269.534883
 20
42.589162
 30
0.0
  0
VERTEX
  5
194
100
AcDbEntity
  8
0
  6
Continuous
 62
     7
100
AcDbVertex
100
AcDb2dVertex
 10
271.04838
 20
41.940206
 30
0.0
  0
VERTEX
  5
195
100
AcDbEntity
  8
0
  6
Continuous
 62
     7
100
AcDbVertex
100
AcDb2dVertex
 10
272.576066
 20
41.338702
 30
0.0
  0
VERTEX
  5
196
100
AcDbEntity
  8
0
  6
Continuous
 62
     7
100
AcDbVertex
100
AcDb2dVertex
 10
274.116193
 20
40.785827
 30
0.0
  0
VERTEX
  5
197
100
AcDbEntity
  8
0
  6
Continuous
 62
     7
100
AcDbVertex
100
AcDb2dVertex
 10
275.667015
 20
40.282757
 30
0.0
  0
VERTEX
  5
198
100
AcDbEntity
  8
0
  6
Continuous
 62
     7
100
AcDbVertex
100
AcDb2dVertex
 10
276.769192
 20
39.970425
 30
0.0
  0
VERTEX
  5
199
100
AcDbEntity
  8
0
  6
Continuous
 62
     7
100
AcDbVertex
100
AcDb2dVertex
 10
277.937307
 20
39.689988
 30
0.0
  0
VERTEX
  5
19A
100
AcDbEntity
  8
0
  6
Continuous
 62
     7
100
AcDbVertex
100
AcDb2dVertex
 10
279.162836
 20
39.443729
 30
0.0
  0
VERTEX
  5
19B
100
AcDbEntity
  8
0
  6
Continuous
 62
     7
100
AcDbVertex
100
AcDb2dVertex
 10
280.437255
 20
39.233931
 30
0.0
  0
VERTEX
  5
19C
100
AcDbEntity
  8
0
  6
Continuous
 62
     7
100
AcDbVertex
100
AcDb2dVertex
 10
281.752041
 20
39.062879
 30
0.0
  0
VERTEX
  5
19D
100
AcDbEntity
  8
0
  6
Continuous
 62
     7
100
AcDbVertex
100
AcDb2dVertex
 10
283.098671
 20
38.932856
 30
0.0
  0
VERTEX
  5
19E
100
AcDbEntity
  8
0
  6
Continuous
 62
     7
100
AcDbVertex
100
AcDb2dVertex
 10
284.468621
 20
38.846144
 30
0.0
  0
VERTEX
  5
19F
100
AcDbEntity
  8
0
  6
Continuous
 62
     7
100
AcDbVertex
100
AcDb2dVertex
 10
285.853367
 20
38.805028
 30
0.0
  0
VERTEX
  5
1A0
100
AcDbEntity
  8
0
  6
Continuous
 62
     7
100
AcDbVertex
100
AcDb2dVertex
 10
287.244386
 20
38.81179
 30
0.0
  0
VERTEX
  5
1A1
100
AcDbEntity
  8
0
  6
Continuous
 62
     7
100
AcDbVertex
100
AcDb2dVertex
 10
288.633155
 20
38.868714
 30
0.0
  0
VERTEX
  5
1A2
100
AcDbEntity
  8
0
  6
Continuous
 62
     7
100
AcDbVertex
100
AcDb2dVertex
 10
290.01115
 20
38.978083
 30
0.0
  0
VERTEX
  5
1A3
100
AcDbEntity
  8
0
  6
Continuous
 62
     7
100
AcDbVertex
100
AcDb2dVertex
 10
291.369847
 20
39.142181
 30
0.0
  0
VERTEX
  5
1A4
100
AcDbEntity
  8
0
  6
Continuous
 62
     7
100
AcDbVertex
100
AcDb2dVertex
 10
292.700722
 20
39.363292
 30
0.0
  0
VERTEX
  5
1A5
100
AcDbEntity
  8
0
  6
Continuous
 62
     7
100
AcDbVertex
100
AcDb2dVertex
 10
293.995254
 20
39.643697
 30
0.0
  0
VERTEX
  5
1A6
100
AcDbEntity
  8
0
  6
Continuous
 62
     7
100
AcDbVertex
100
AcDb2dVertex
 10
295.244917
 20
39.985681
 30
0.0
  0
VERTEX
  5
1A7
100
AcDbEntity
  8
0
  6
Continuous
 62
     7
100
AcDbVertex
100
AcDb2dVertex
 10
296.441189
 20
40.391528
 30
0.0
  0
VERTEX
  5
1A8
100
AcDbEntity
  8
0
  6
Continuous
 62
     7
100
AcDbVertex
100
AcDb2dVertex
 10
297.575545
 20
40.86352
 30
0.0
  0
VERTEX
  5
1A9
100
AcDbEntity
  8
0
  6
Continuous
 62
     7
100
AcDbVertex
100
AcDb2dVertex
 10
298.639463
 20
41.403941
 30
0.0
  0
VERTEX
  5
1AA
100
AcDbEntity
  8
0
  6
Continuous
 62
     7
100
AcDbVertex
100
AcDb2dVertex
 10
299.624419
 20
42.015074
 30
0.0
  0
VERTEX
  5
1AB
100
AcDbEntity
  8
0
  6
Continuous
 62
     7
100
AcDbVertex
100
AcDb2dVertex
 10
300.521889
 20
42.699203
 30
0.0
  0
VERTEX
  5
1AC
100
AcDbEntity
  8
0
  6
Continuous
 62
     7
100
AcDbVertex
100
AcDb2dVertex
 10
301.556058
 20
43.613746
 30
0.0
  0
VERTEX
  5
1AD
100
AcDbEntity
  8
0
  6
Continuous
 62
     7
100
AcDbVertex
100
AcDb2dVertex
 10
302.513701
 20
44.538615
 30
0.0
  0
VERTEX
  5
1AE
100
AcDbEntity
  8
0
  6
Continuous
 62
     7
100
AcDbVertex
100
AcDb2dVertex
 10
303.397303
 20
45.475424
 30
0.0
  0
VERTEX
  5
1AF
100
AcDbEntity
  8
0
  6
Continuous
 62
     7
100
AcDbVertex
100
AcDb2dVertex
 10
304.209351
 20
46.425788
 30
0.0
  0
VERTEX
  5
1B0
100
AcDbEntity
  8
0
  6
Continuous
 62
     7
100
AcDbVertex
100
AcDb2dVertex
 10
304.95233
 20
47.391321
 30
0.0
  0
VERTEX
  5
1B1
100
AcDbEntity
  8
0
  6
Continuous
 62
     7
100
AcDbVertex
100
AcDb2dVertex
 10
305.628725
 20
48.373637
 30
0.0
  0
VERTEX
  5
1B2
100
AcDbEntity
  8
0
  6
Continuous
 62
     7
100
AcDbVertex
100
AcDb2dVertex
 10
306.241023
 20
49.374352
 30
0.0
  0
VERTEX
  5
1B3
100
AcDbEntity
  8
0
  6
Continuous
 62
     7
100
AcDbVertex
100
AcDb2dVertex
 10
306.791709
 20
50.395078
 30
0.0
  0
VERTEX
  5
1B4
100
AcDbEntity
  8
0
  6
Continuous
 62
     7
100
AcDbVertex
100
AcDb2dVertex
 10
307.283268
 20
51.437432
 30
0.0
  0
VERTEX
  5
1B5
100
AcDbEntity
  8
0
  6
Continuous
 62
     7
100
AcDbVertex
100
AcDb2dVertex
 10
307.718186
 20
52.503027
 30
0.0
  0
VERTEX
  5
1B6
100
AcDbEntity
  8
0
  6
Continuous
 62
     7
100
AcDbVertex
100
AcDb2dVertex
 10
308.098949
 20
53.593478
 30
0.0
  0
VERTEX
  5
1B7
100
AcDbEntity
  8
0
  6
Continuous
 62
     7
100
AcDbVertex
100
AcDb2dVertex
 10
308.428042
 20
54.710398
 30
0.0
  0
VERTEX
  5
1B8
100
AcDbEntity
  8
0
  6
Continuous
 62
     7
100
AcDbVertex
100
AcDb2dVertex
 10
308.707951
 20
55.855404
 30
0.0
  0
VERTEX
  5
1B9
100
AcDbEntity
  8
0
  6
Continuous
 62
     7
100
AcDbVertex
100
AcDb2dVertex
 10
308.941162
 20
57.030108
 30
0.0
  0
VERTEX
  5
1BA
100
AcDbEntity
  8
0
  6
Continuous
 62
     7
100
AcDbVertex
100
AcDb2dVertex
 10
309.13016
 20
58.236126
 30
0.0
  0
VERTEX
  5
1BB
100
AcDbEntity
  8
0
  6
Continuous
 62
     7
100
AcDbVertex
100
AcDb2dVertex
 10
309.277431
 20
59.475072
 30
0.0
  0
VERTEX
  5
1BC
100
AcDbEntity
  8
0
  6
Continuous
 62
     7
100
AcDbVertex
100
AcDb2dVertex
 10
309.385461
 20
60.748561
 30
0.0
  0
VERTEX
  5
1BD
100
AcDbEntity
  8
0
  6
Continuous
 62
     7
100
AcDbVertex
100
AcDb2dVertex
 10
309.456735
 20
62.058206
 30
0.0
  0
VERTEX
  5
1BE
100
AcDbEntity
  8
0
  6
Continuous
 62
     7
100
AcDbVertex
100
AcDb2dVertex
 10
309.493738
 20
63.405622
 30
0.0
  0
VERTEX
  5
1BF
100
AcDbEntity
  8
0
  6
Continuous
 62
     7
100
AcDbVertex
100
AcDb2dVertex
 10
309.498957
 20
64.792424
 30
0.0
  0
SEQEND
  5
1C0
100
AcDbEntity
  8
0
  6
Continuous
 62
     7
  0
ENDBLK
  5
1C1
100
AcDbEntity
  8
0
100
AcDbBlockEnd
  0
ENDSEC
  0
SECTION
  2
ENTITIES
  0
LINE
  5
35
100
AcDbEntity
  8
Calque 1
 62
     7
100
AcDbLine
 10
30.408279
 20
71.523725
 30
0.0
 11
29.02985
 21
71.804243
 31
0.0
  0
LINE
  5
36
100
AcDbEntity
  8
Calque 1
 62
     7
100
AcDbLine
 10
29.02985
 20
71.804243
 30
0.0
 11
27.895474
 21
72.206321
 31
0.0
  0
LINE
  5
37
100
AcDbEntity
  8
Calque 1
 62
     7
100
AcDbLine
 10
27.895474
 20
72.206321
 30
0.0
 11
26.437325
 21
72.694967
 31
0.0
  0
LINE
  5
38
100
AcDbEntity
  8
Calque 1
 62
     7
100
AcDbLine
 10
26.437325
 20
72.694967
 30
0.0
 11
25.98592
 21
72.81495
 31
0.0
  0
LINE
  5
39
100
AcDbEntity
  8
Calque 1
 62
     7
100
AcDbLine
 10
25.98592
 20
72.81495
 30
0.0
 11
25.886294
 21
73.244957
 31
0.0
  0
LINE
  5
3A
100
AcDbEntity
  8
Calque 1
 62
     7
100
AcDbLine
 10
25.886294
 20
73.244957
 30
0.0
 11
26.152145
 21
74.090073
 31
0.0
  0
LINE
  5
3B
100
AcDbEntity
  8
Calque 1
 62
     7
100
AcDbLine
 10
26.152145
 20
74.090073
 30
0.0
 11
26.797172
 21
75.455382
 31
0.0
  0
LINE
  5
3C
100
AcDbEntity
  8
Calque 1
 62
     7
100
AcDbLine
 10
26.797172
 20
75.455382
 30
0.0
 11
27.868279
 21
77.810137
 31
0.0
  0
LINE
  5
3D
100
AcDbEntity
  8
Calque 1
 62
     7
100
AcDbLine
 10
27.868279
 20
77.810137
 30
0.0
 11
26.599166
 21
79.216228
 31
0.0
  0
LINE
  5
3E
100
AcDbEntity
  8
Calque 1
 62
     7
100
AcDbLine
 10
26.599166
 20
79.216228
 30
0.0
 11
25.005769
 21
80.553303
 31
0.0
  0
LINE
  5
3F
100
AcDbEntity
  8
Calque 1
 62
     7
100
AcDbLine
 10
25.005769
 20
80.553303
 30
0.0
 11
24.221644
 21
80.252832
 31
0.0
  0
LINE
  5
40
100
AcDbEntity
  8
Calque 1
 62
     7
100
AcDbLine
 10
24.221644
 20
80.252832
 30
0.0
 11
22.751758
 21
79.453758
 31
0.0
  0
LINE
  5
41
100
AcDbEntity
  8
Calque 1
 62
     7
100
AcDbLine
 10
22.751758
 20
79.453758
 30
0.0
 11
21.276315
 21
78.549463
 31
0.0
  0
LINE
  5
42
100
AcDbEntity
  8
Calque 1
 62
     7
100
AcDbLine
 10
21.276315
 20
78.549463
 30
0.0
 11
20.475516
 21
77.933327
 31
0.0
  0
LINE
  5
43
100
AcDbEntity
  8
Calque 1
 62
     7
100
AcDbLine
 10
20.475516
 20
77.933327
 30
0.0
 11
20.126165
 21
77.993418
 31
0.0
  0
LINE
  5
44
100
AcDbEntity
  8
Calque 1
 62
     7
100
AcDbLine
 10
20.126165
 20
77.993418
 30
0.0
 11
19.573617
 21
78.478469
 31
0.0
  0
LINE
  5
45
100
AcDbEntity
  8
Calque 1
 62
     7
100
AcDbLine
 10
19.573617
 20
78.478469
 30
0.0
 11
19.062517
 21
79.127609
 31
0.0
  0
LINE
  5
46
100
AcDbEntity
  8
Calque 1
 62
     7
100
AcDbLine
 10
19.062517
 20
79.127609
 30
0.0
 11
18.331312
 21
80.320463
 31
0.0
  0
LINE
  5
47
100
AcDbEntity
  8
Calque 1
 62
     7
100
AcDbLine
 10
18.331312
 20
80.320463
 30
0.0
 11
18.093364
 21
81.101696
 31
0.0
  0
LINE
  5
48
100
AcDbEntity
  8
Calque 1
 62
     7
100
AcDbLine
 10
18.093364
 20
81.101696
 30
0.0
 11
17.781201
 21
83.653177
 31
0.0
  0
LINE
  5
49
100
AcDbEntity
  8
Calque 1
 62
     7
100
AcDbLine
 10
17.776378
 20
84.003036
 30
0.0
 11
17.739143
 21
86.704123
 31
0.0
  0
LINE
  5
4A
100
AcDbEntity
  8
Calque 1
 62
     7
100
AcDbLine
 10
17.739143
 20
86.704123
 30
0.0
 11
18.029346
 21
89.271472
 31
0.0
  0
LINE
  5
4B
100
AcDbEntity
  8
Calque 1
 62
     7
100
AcDbLine
 10
18.029346
 20
89.271472
 30
0.0
 11
18.484326
 21
90.678884
 31
0.0
  0
LINE
  5
4C
100
AcDbEntity
  8
Calque 1
 62
     7
100
AcDbLine
 10
18.484326
 20
90.678884
 30
0.0
 11
19.163566
 21
92.28227
 31
0.0
  0
LINE
  5
4D
100
AcDbEntity
  8
Calque 1
 62
     7
100
AcDbLine
 10
19.163566
 20
92.28227
 30
0.0
 11
19.880996
 21
93.681598
 31
0.0
  0
LINE
  5
4E
100
AcDbEntity
  8
Calque 1
 62
     7
100
AcDbLine
 10
19.880996
 20
93.681598
 30
0.0
 11
20.450548
 21
94.476835
 31
0.0
  0
LINE
  5
4F
100
AcDbEntity
  8
Calque 1
 62
     7
100
AcDbLine
 10
20.450548
 20
94.476835
 30
0.0
 11
20.924788
 21
94.647391
 31
0.0
  0
LINE
  5
50
100
AcDbEntity
  8
Calque 1
 62
     7
100
AcDbLine
 10
20.924788
 20
94.647391
 30
0.0
 11
21.607343
 21
94.371778
 31
0.0
  0
LINE
  5
51
100
AcDbEntity
  8
Calque 1
 62
     7
100
AcDbLine
 10
21.607343
 20
94.371778
 30
0.0
 11
24.043143
 21
92.994529
 31
0.0
  0
LINE
  5
52
100
AcDbEntity
  8
Calque 1
 62
     7
100
AcDbLine
 10
24.043143
 20
92.994529
 30
0.0
 11
25.336428
 21
92.478128
 31
0.0
  0
LINE
  5
53
100
AcDbEntity
  8
Calque 1
 62
     7
100
AcDbLine
 10
25.336428
 20
92.478128
 30
0.0
 11
25.709981
 21
92.524246
 31
0.0
  0
LINE
  5
54
100
AcDbEntity
  8
Calque 1
 62
     7
100
AcDbLine
 10
25.709981
 20
92.524246
 30
0.0
 11
25.98433
 21
92.763377
 31
0.0
  0
LINE
  5
55
100
AcDbEntity
  8
Calque 1
 62
     7
100
AcDbLine
 10
25.98433
 20
92.763377
 30
0.0
 11
26.483982
 21
93.791078
 31
0.0
  0
LINE
  5
56
100
AcDbEntity
  8
Calque 1
 62
     7
100
AcDbLine
 10
26.483982
 20
93.791078
 30
0.0
 11
27.060311
 21
94.7083
 31
0.0
  0
LINE
  5
57
100
AcDbEntity
  8
Calque 1
 62
     7
100
AcDbLine
 10
27.060311
 20
94.7083
 30
0.0
 11
27.265146
 21
94.842586
 31
0.0
  0
LINE
  5
58
100
AcDbEntity
  8
Calque 1
 62
     7
100
AcDbLine
 10
27.265146
 20
94.842586
 30
0.0
 11
27.410944
 21
95.17223
 31
0.0
  0
LINE
  5
59
100
AcDbEntity
  8
Calque 1
 62
     7
100
AcDbLine
 10
27.410944
 20
95.17223
 30
0.0
 11
27.405894
 21
95.9783
 31
0.0
  0
LINE
  5
5A
100
AcDbEntity
  8
Calque 1
 62
     7
100
AcDbLine
 10
27.405894
 20
95.9783
 30
0.0
 11
27.212582
 21
96.277279
 31
0.0
  0
LINE
  5
5B
100
AcDbEntity
  8
Calque 1
 62
     7
100
AcDbLine
 10
27.212582
 20
96.277279
 30
0.0
 11
26.975932
 21
96.401633
 31
0.0
  0
LINE
  5
5C
100
AcDbEntity
  8
Calque 1
 62
     7
100
AcDbLine
 10
26.975932
 20
96.401633
 30
0.0
 11
26.223063
 21
96.759073
 31
0.0
  0
LINE
  5
5D
100
AcDbEntity
  8
Calque 1
 62
     7
100
AcDbLine
 10
26.223063
 20
96.759073
 30
0.0
 11
24.998334
 21
97.568992
 31
0.0
  0
LINE
  5
5E
100
AcDbEntity
  8
Calque 1
 62
     7
100
AcDbLine
 10
24.998334
 20
97.568992
 30
0.0
 11
23.856602
 21
98.437788
 31
0.0
  0
LINE
  5
5F
100
AcDbEntity
  8
Calque 1
 62
     7
100
AcDbLine
 10
23.856602
 20
98.437788
 30
0.0
 11
23.352723
 21
98.971856
 31
0.0
  0
LINE
  5
60
100
AcDbEntity
  8
Calque 1
 62
     7
100
AcDbLine
 10
23.352723
 20
98.971856
 30
0.0
 11
23.941456
 21
100.170935
 31
0.0
  0
LINE
  5
61
100
AcDbEntity
  8
Calque 1
 62
     7
100
AcDbLine
 10
23.941456
 20
100.170935
 30
0.0
 11
25.462799
 21
102.22961
 31
0.0
  0
LINE
  5
62
100
AcDbEntity
  8
Calque 1
 62
     7
100
AcDbLine
 10
25.462799
 20
102.22961
 30
0.0
 11
27.549469
 21
104.688053
 31
0.0
  0
LINE
  5
63
100
AcDbEntity
  8
Calque 1
 62
     7
100
AcDbLine
 10
27.549469
 20
104.688053
 30
0.0
 11
29.834182
 21
107.086437
 31
0.0
  0
LINE
  5
64
100
AcDbEntity
  8
Calque 1
 62
     7
100
AcDbLine
 10
29.834182
 20
107.086437
 30
0.0
 11
32.513565
 21
109.431621
 31
0.0
  0
LINE
  5
65
100
AcDbEntity
  8
Calque 1
 62
     7
100
AcDbLine
 10
32.513565
 20
109.431621
 30
0.0
 11
33.60259
 21
110.214395
 31
0.0
  0
LINE
  5
66
100
AcDbEntity
  8
Calque 1
 62
     7
100
AcDbLine
 10
33.60259
 20
110.214395
 30
0.0
 11
34.236025
 21
110.512744
 31
0.0
  0
LINE
  5
67
100
AcDbEntity
  8
Calque 1
 62
     7
100
AcDbLine
 10
34.236025
 20
110.512744
 30
0.0
 11
35.025146
 21
109.816242
 31
0.0
  0
LINE
  5
68
100
AcDbEntity
  8
Calque 1
 62
     7
100
AcDbLine
 10
35.025146
 20
109.816242
 30
0.0
 11
36.357791
 21
107.937142
 31
0.0
  0
LINE
  5
69
100
AcDbEntity
  8
Calque 1
 62
     7
100
AcDbLine
 10
36.357791
 20
107.937142
 30
0.0
 11
37.440037
 21
106.561633
 31
0.0
  0
LINE
  5
6A
100
AcDbEntity
  8
Calque 1
 62
     7
100
AcDbLine
 10
37.440037
 20
106.561633
 30
0.0
 11
38.18673
 21
107.055522
 31
0.0
  0
LINE
  5
6B
100
AcDbEntity
  8
Calque 1
 62
     7
100
AcDbLine
 10
38.18673
 20
107.055522
 30
0.0
 11
39.544123
 21
107.968169
 31
0.0
  0
LINE
  5
6C
100
AcDbEntity
  8
Calque 1
 62
     7
100
AcDbLine
 10
39.544123
 20
107.968169
 30
0.0
 11
40.157874
 21
108.37203
 31
0.0
  0
LINE
  5
6D
100
AcDbEntity
  8
Calque 1
 62
     7
100
AcDbLine
 10
40.157874
 20
108.37203
 30
0.0
 11
40.495641
 21
108.754971
 31
0.0
  0
LINE
  5
6E
100
AcDbEntity
  8
Calque 1
 62
     7
100
AcDbLine
 10
40.495641
 20
108.754971
 30
0.0
 11
40.206334
 21
109.599983
 31
0.0
  0
LINE
  5
6F
100
AcDbEntity
  8
Calque 1
 62
     7
100
AcDbLine
 10
40.206334
 20
109.599983
 30
0.0
 11
39.312438
 21
111.114781
 31
0.0
  0
LINE
  5
70
100
AcDbEntity
  8
Calque 1
 62
     7
100
AcDbLine
 10
39.312438
 20
111.114781
 30
0.0
 11
38.078698
 21
113.177063
 31
0.0
  0
LINE
  5
71
100
AcDbEntity
  8
Calque 1
 62
     7
100
AcDbLine
 10
38.078698
 20
113.177063
 30
0.0
 11
40.679306
 21
114.887415
 31
0.0
  0
LINE
  5
72
100
AcDbEntity
  8
Calque 1
 62
     7
100
AcDbLine
 10
40.679306
 20
114.887415
 30
0.0
 11
44.114134
 21
116.712264
 31
0.0
  0
LINE
  5
73
100
AcDbEntity
  8
Calque 1
 62
     7
100
AcDbLine
 10
44.114134
 20
116.712264
 30
0.0
 11
47.91892
 21
118.424768
 31
0.0
  0
LINE
  5
74
100
AcDbEntity
  8
Calque 1
 62
     7
100
AcDbLine
 10
47.91892
 20
118.424768
 30
0.0
 11
51.6294
 21
119.798084
 31
0.0
  0
LINE
  5
75
100
AcDbEntity
  8
Calque 1
 62
     7
100
AcDbLine
 10
51.6294
 20
119.798084
 30
0.0
 11
52.517734
 21
119.95138
 31
0.0
  0
LINE
  5
76
100
AcDbEntity
  8
Calque 1
 62
     7
100
AcDbLine
 10
52.517734
 20
119.95138
 30
0.0
 11
53.214675
 21
119.805779
 31
0.0
  0
LINE
  5
77
100
AcDbEntity
  8
Calque 1
 62
     7
100
AcDbLine
 10
53.214675
 20
119.805779
 30
0.0
 11
53.669809
 21
119.386021
 31
0.0
  0
LINE
  5
78
100
AcDbEntity
  8
Calque 1
 62
     7
100
AcDbLine
 10
53.669809
 20
119.386021
 30
0.0
 11
53.832723
 21
118.716846
 31
0.0
  0
LINE
  5
79
100
AcDbEntity
  8
Calque 1
 62
     7
100
AcDbLine
 10
53.832723
 20
118.716846
 30
0.0
 11
54.176168
 21
116.36281
 31
0.0
  0
LINE
  5
7A
100
AcDbEntity
  8
Calque 1
 62
     7
100
AcDbLine
 10
54.176168
 20
116.36281
 30
0.0
 11
54.582714
 21
114.941548
 31
0.0
  0
LINE
  5
7B
100
AcDbEntity
  8
Calque 1
 62
     7
100
AcDbLine
 10
54.582714
 20
114.941548
 30
0.0
 11
54.866216
 21
114.801067
 31
0.0
  0
LINE
  5
7C
100
AcDbEntity
  8
Calque 1
 62
     7
100
AcDbLine
 10
54.866216
 20
114.801067
 30
0.0
 11
55.340335
 21
114.864157
 31
0.0
  0
LINE
  5
7D
100
AcDbEntity
  8
Calque 1
 62
     7
100
AcDbLine
 10
55.340335
 20
114.864157
 30
0.0
 11
57.2973
 21
115.0283
 31
0.0
  0
LINE
  5
7E
100
AcDbEntity
  8
Calque 1
 62
     7
100
AcDbLine
 10
57.2973
 20
115.0283
 30
0.0
 11
58.433544
 21
115.0283
 31
0.0
  0
LINE
  5
7F
100
AcDbEntity
  8
Calque 1
 62
     7
100
AcDbLine
 10
58.433544
 20
115.0283
 30
0.0
 11
58.265856
 21
117.780799
 31
0.0
  0
LINE
  5
80
100
AcDbEntity
  8
Calque 1
 62
     7
100
AcDbLine
 10
58.265856
 20
117.780799
 30
0.0
 11
58.098165
 21
120.533298
 31
0.0
  0
LINE
  5
81
100
AcDbEntity
  8
Calque 1
 62
     7
100
AcDbLine
 10
58.098165
 20
120.533298
 30
0.0
 11
58.843932
 21
120.885244
 31
0.0
  0
LINE
  5
82
100
AcDbEntity
  8
Calque 1
 62
     7
100
AcDbLine
 10
58.843932
 20
120.885244
 30
0.0
 11
59.999716
 21
121.110489
 31
0.0
  0
LINE
  5
83
100
AcDbEntity
  8
Calque 1
 62
     7
100
AcDbLine
 10
59.999716
 20
121.110489
 30
0.0
 11
62.040812
 21
121.224732
 31
0.0
  0
LINE
  5
84
100
AcDbEntity
  8
Calque 1
 62
     7
100
AcDbLine
 10
62.040812
 20
121.224732
 30
0.0
 11
67.46689
 21
121.170557
 31
0.0
  0
LINE
  5
85
100
AcDbEntity
  8
Calque 1
 62
     7
100
AcDbLine
 10
67.46689
 20
121.170557
 30
0.0
 11
72.498066
 21
120.823423
 31
0.0
  0
LINE
  5
86
100
AcDbEntity
  8
Calque 1
 62
     7
100
AcDbLine
 10
72.498066
 20
120.823423
 30
0.0
 11
74.045534
 21
120.571465
 31
0.0
  0
LINE
  5
87
100
AcDbEntity
  8
Calque 1
 62
     7
100
AcDbLine
 10
74.045534
 20
120.571465
 30
0.0
 11
74.433733
 21
120.431396
 31
0.0
  0
LINE
  5
88
100
AcDbEntity
  8
Calque 1
 62
     7
100
AcDbLine
 10
74.433733
 20
120.431396
 30
0.0
 11
74.51024
 21
120.284031
 31
0.0
  0
LINE
  5
89
100
AcDbEntity
  8
Calque 1
 62
     7
100
AcDbLine
 10
74.51024
 20
120.284031
 30
0.0
 11
73.996074
 21
118.106689
 31
0.0
  0
LINE
  5
8A
100
AcDbEntity
  8
Calque 1
 62
     7
100
AcDbLine
 10
73.996074
 20
118.106689
 30
0.0
 11
73.603127
 21
115.549799
 31
0.0
  0
LINE
  5
8B
100
AcDbEntity
  8
Calque 1
 62
     7
100
AcDbLine
 10
73.603127
 20
115.549799
 30
0.0
 11
73.826962
 21
115.144614
 31
0.0
  0
LINE
  5
8C
100
AcDbEntity
  8
Calque 1
 62
     7
100
AcDbLine
 10
73.826962
 20
115.144614
 30
0.0
 11
74.444933
 21
114.797497
 31
0.0
  0
LINE
  5
8D
100
AcDbEntity
  8
Calque 1
 62
     7
100
AcDbLine
 10
74.444933
 20
114.797497
 30
0.0
 11
75.336734
 21
114.555399
 31
0.0
  0
LINE
  5
8E
100
AcDbEntity
  8
Calque 1
 62
     7
100
AcDbLine
 10
75.336734
 20
114.555399
 30
0.0
 11
76.382059
 21
114.465269
 31
0.0
  0
LINE
  5
8F
100
AcDbEntity
  8
Calque 1
 62
     7
100
AcDbLine
 10
76.382059
 20
114.465269
 30
0.0
 11
77.398279
 21
114.46668
 31
0.0
  0
LINE
  5
90
100
AcDbEntity
  8
Calque 1
 62
     7
100
AcDbLine
 10
77.398279
 20
114.46668
 30
0.0
 11
78.074749
 21
116.590911
 31
0.0
  0
LINE
  5
91
100
AcDbEntity
  8
Calque 1
 62
     7
100
AcDbLine
 10
78.074749
 20
116.590911
 30
0.0
 11
78.981828
 21
118.85766
 31
0.0
  0
LINE
  5
92
100
AcDbEntity
  8
Calque 1
 62
     7
100
AcDbLine
 10
78.981828
 20
118.85766
 30
0.0
 11
79.823523
 21
118.811431
 31
0.0
  0
LINE
  5
93
100
AcDbEntity
  8
Calque 1
 62
     7
100
AcDbLine
 10
79.823523
 20
118.811431
 30
0.0
 11
81.424491
 21
118.29828
 31
0.0
  0
LINE
  5
94
100
AcDbEntity
  8
Calque 1
 62
     7
100
AcDbLine
 10
81.424491
 20
118.29828
 30
0.0
 11
85.829796
 21
116.387217
 31
0.0
  0
LINE
  5
95
100
AcDbEntity
  8
Calque 1
 62
     7
100
AcDbLine
 10
85.829796
 20
116.387217
 30
0.0
 11
90.048841
 21
114.156474
 31
0.0
  0
LINE
  5
96
100
AcDbEntity
  8
Calque 1
 62
     7
100
AcDbLine
 10
90.048841
 20
114.156474
 30
0.0
 11
91.416984
 21
113.243722
 31
0.0
  0
LINE
  5
97
100
AcDbEntity
  8
Calque 1
 62
     7
100
AcDbLine
 10
91.416984
 20
113.243722
 30
0.0
 11
91.932723
 21
112.63805
 31
0.0
  0
LINE
  5
98
100
AcDbEntity
  8
Calque 1
 62
     7
100
AcDbLine
 10
91.932723
 20
112.63805
 30
0.0
 11
91.358339
 21
111.551985
 31
0.0
  0
LINE
  5
99
100
AcDbEntity
  8
Calque 1
 62
     7
100
AcDbLine
 10
91.358339
 20
111.551985
 30
0.0
 11
90.215007
 21
109.515648
 31
0.0
  0
LINE
  5
9A
100
AcDbEntity
  8
Calque 1
 62
     7
100
AcDbLine
 10
90.215007
 20
109.515648
 30
0.0
 11
89.858617
 21
108.534702
 31
0.0
  0
LINE
  5
9B
100
AcDbEntity
  8
Calque 1
 62
     7
100
AcDbLine
 10
89.858617
 20
108.534702
 30
0.0
 11
89.815811
 21
107.973142
 31
0.0
  0
LINE
  5
9C
100
AcDbEntity
  8
Calque 1
 62
     7
100
AcDbLine
 10
89.815811
 20
107.973142
 30
0.0
 11
91.212724
 21
106.853795
 31
0.0
  0
LINE
  5
9D
100
AcDbEntity
  8
Calque 1
 62
     7
100
AcDbLine
 10
91.212724
 20
106.853795
 30
0.0
 11
92.439479
 21
106.009765
 31
0.0
  0
LINE
  5
9E
100
AcDbEntity
  8
Calque 1
 62
     7
100
AcDbLine
 10
92.439479
 20
106.009765
 30
0.0
 11
93.524169
 21
107.344032
 31
0.0
  0
LINE
  5
9F
100
AcDbEntity
  8
Calque 1
 62
     7
100
AcDbLine
 10
93.524169
 20
107.344032
 30
0.0
 11
95.300181
 21
109.361313
 31
0.0
  0
LINE
  5
A0
100
AcDbEntity
  8
Calque 1
 62
     7
100
AcDbLine
 10
95.300181
 20
109.361313
 30
0.0
 11
95.85138
 21
109.809563
 31
0.0
  0
LINE
  5
A1
100
AcDbEntity
  8
Calque 1
 62
     7
100
AcDbLine
 10
95.85138
 20
109.809563
 30
0.0
 11
96.244989
 21
109.9483
 31
0.0
  0
LINE
  5
A2
100
AcDbEntity
  8
Calque 1
 62
     7
100
AcDbLine
 10
96.244989
 20
109.9483
 30
0.0
 11
97.304257
 21
109.124127
 31
0.0
  0
LINE
  5
A3
100
AcDbEntity
  8
Calque 1
 62
     7
100
AcDbLine
 10
97.304257
 20
109.124127
 30
0.0
 11
99.329153
 21
107.163123
 31
0.0
  0
LINE
  5
A4
100
AcDbEntity
  8
Calque 1
 62
     7
100
AcDbLine
 10
99.329153
 20
107.163123
 30
0.0
 11
101.558991
 21
104.83256
 31
0.0
  0
LINE
  5
A5
100
AcDbEntity
  8
Calque 1
 62
     7
100
AcDbLine
 10
101.558991
 20
104.83256
 30
0.0
 11
103.233082
 21
102.899712
 31
0.0
  0
LINE
  5
A6
100
AcDbEntity
  8
Calque 1
 62
     7
100
AcDbLine
 10
103.233082
 20
102.899712
 30
0.0
 11
104.534524
 21
101.284422
 31
0.0
  0
LINE
  5
A7
100
AcDbEntity
  8
Calque 1
 62
     7
100
AcDbLine
 10
104.534524
 20
101.284422
 30
0.0
 11
105.544229
 21
99.790869
 31
0.0
  0
LINE
  5
A8
100
AcDbEntity
  8
Calque 1
 62
     7
100
AcDbLine
 10
105.544229
 20
99.790869
 30
0.0
 11
105.84955
 21
99.077532
 31
0.0
  0
LINE
  5
A9
100
AcDbEntity
  8
Calque 1
 62
     7
100
AcDbLine
 10
105.84955
 20
99.077532
 30
0.0
 11
105.901657
 21
98.620673
 31
0.0
  0
LINE
  5
AA
100
AcDbEntity
  8
Calque 1
 62
     7
100
AcDbLine
 10
105.901657
 20
98.620673
 30
0.0
 11
104.83997
 21
97.606716
 31
0.0
  0
LINE
  5
AB
100
AcDbEntity
  8
Calque 1
 62
     7
100
AcDbLine
 10
104.83997
 20
97.606716
 30
0.0
 11
102.965219
 21
96.1489
 31
0.0
  0
LINE
  5
AC
100
AcDbEntity
  8
Calque 1
 62
     7
100
AcDbLine
 10
102.965219
 20
96.1489
 30
0.0
 11
102.00327
 21
95.320448
 31
0.0
  0
LINE
  5
AD
100
AcDbEntity
  8
Calque 1
 62
     7
100
AcDbLine
 10
102.00327
 20
95.320448
 30
0.0
 11
102.90109
 21
93.92132
 31
0.0
  0
LINE
  5
AE
100
AcDbEntity
  8
Calque 1
 62
     7
100
AcDbLine
 10
102.90109
 20
93.92132
 30
0.0
 11
103.798906
 21
92.522192
 31
0.0
  0
LINE
  5
AF
100
AcDbEntity
  8
Calque 1
 62
     7
100
AcDbLine
 10
103.798906
 20
92.522192
 30
0.0
 11
106.213854
 21
93.35459
 31
0.0
  0
LINE
  5
B0
100
AcDbEntity
  8
Calque 1
 62
     7
100
AcDbLine
 10
106.213854
 20
93.35459
 30
0.0
 11
108.034542
 21
93.898293
 31
0.0
  0
LINE
  5
B1
100
AcDbEntity
  8
Calque 1
 62
     7
100
AcDbLine
 10
108.034542
 20
93.898293
 30
0.0
 11
109.020734
 21
94.036591
 31
0.0
  0
LINE
  5
B2
100
AcDbEntity
  8
Calque 1
 62
     7
100
AcDbLine
 10
109.020734
 20
94.036591
 30
0.0
 11
109.44227
 21
93.615879
 31
0.0
  0
LINE
  5
B3
100
AcDbEntity
  8
Calque 1
 62
     7
100
AcDbLine
 10
109.44227
 20
93.615879
 30
0.0
 11
109.905382
 21
92.815579
 31
0.0
  0
LINE
  5
B4
100
AcDbEntity
  8
Calque 1
 62
     7
100
AcDbLine
 10
109.905382
 20
92.815579
 30
0.0
 11
110.299882
 21
91.18749
 31
0.0
  0
LINE
  5
B5
100
AcDbEntity
  8
Calque 1
 62
     7
100
AcDbLine
 10
110.299882
 20
91.18749
 30
0.0
 11
110.408189
 21
87.934967
 31
0.0
  0
LINE
  5
B6
100
AcDbEntity
  8
Calque 1
 62
     7
100
AcDbLine
 10
110.408189
 20
87.934967
 30
0.0
 11
110.284935
 21
84.316027
 31
0.0
  0
LINE
  5
B7
100
AcDbEntity
  8
Calque 1
 62
     7
100
AcDbLine
 10
110.284935
 20
84.316027
 30
0.0
 11
109.995444
 21
83.159262
 31
0.0
  0
LINE
  5
B8
100
AcDbEntity
  8
Calque 1
 62
     7
100
AcDbLine
 10
109.995444
 20
83.159262
 30
0.0
 11
109.443489
 21
81.726078
 31
0.0
  0
LINE
  5
B9
100
AcDbEntity
  8
Calque 1
 62
     7
100
AcDbLine
 10
109.443489
 20
81.726078
 30
0.0
 11
108.51882
 21
79.698007
 31
0.0
  0
LINE
  5
BA
100
AcDbEntity
  8
Calque 1
 62
     7
100
AcDbLine
 10
108.51882
 20
79.698007
 30
0.0
 11
107.484225
 21
77.783163
 31
0.0
  0
LINE
  5
BB
100
AcDbEntity
  8
Calque 1
 62
     7
100
AcDbLine
 10
107.484225
 20
77.783163
 30
0.0
 11
106.560498
 21
76.358109
 31
0.0
  0
LINE
  5
BC
100
AcDbEntity
  8
Calque 1
 62
     7
100
AcDbLine
 10
106.560498
 20
76.358109
 30
0.0
 11
105.968436
 21
75.799411
 31
0.0
  0
LINE
  5
BD
100
AcDbEntity
  8
Calque 1
 62
     7
100
AcDbLine
 10
105.968436
 20
75.799411
 30
0.0
 11
105.295598
 21
76.303229
 31
0.0
  0
LINE
  5
BE
100
AcDbEntity
  8
Calque 1
 62
     7
100
AcDbLine
 10
105.295598
 20
76.303229
 30
0.0
 11
104.091579
 21
77.514537
 31
0.0
  0
LINE
  5
BF
100
AcDbEntity
  8
Calque 1
 62
     7
100
AcDbLine
 10
104.091579
 20
77.514537
 30
0.0
 11
102.509297
 21
79.229664
 31
0.0
  0
LINE
  5
C0
100
AcDbEntity
  8
Calque 1
 62
     7
100
AcDbLine
 10
102.509297
 20
79.229664
 30
0.0
 11
101.242676
 21
78.505716
 31
0.0
  0
LINE
  5
C1
100
AcDbEntity
  8
Calque 1
 62
     7
100
AcDbLine
 10
101.242676
 20
78.505716
 30
0.0
 11
100.203046
 21
77.993427
 31
0.0
  0
LINE
  5
C2
100
AcDbEntity
  8
Calque 1
 62
     7
100
AcDbLine
 10
100.203046
 20
77.993427
 30
0.0
 11
99.482168
 21
77.778367
 31
0.0
  0
LINE
  5
C3
100
AcDbEntity
  8
Calque 1
 62
     7
100
AcDbLine
 10
99.482168
 20
77.778367
 30
0.0
 11
99.151892
 21
77.639955
 31
0.0
  0
LINE
  5
C4
100
AcDbEntity
  8
Calque 1
 62
     7
100
AcDbLine
 10
99.151892
 20
77.639955
 30
0.0
 11
99.003957
 21
77.223737
 31
0.0
  0
LINE
  5
C5
100
AcDbEntity
  8
Calque 1
 62
     7
100
AcDbLine
 10
99.003957
 20
77.223737
 30
0.0
 11
99.250949
 21
75.517189
 31
0.0
  0
LINE
  5
C6
100
AcDbEntity
  8
Calque 1
 62
     7
100
AcDbLine
 10
99.250949
 20
75.517189
 30
0.0
 11
99.62979
 21
73.193591
 31
0.0
  0
LINE
  5
C7
100
AcDbEntity
  8
Calque 1
 62
     7
100
AcDbLine
 10
99.62979
 20
73.193591
 30
0.0
 11
99.617501
 21
72.01735
 31
0.0
  0
LINE
  5
C8
100
AcDbEntity
  8
Calque 1
 62
     7
100
AcDbLine
 10
99.617501
 20
72.01735
 30
0.0
 11
99.370734
 21
71.826003
 31
0.0
  0
LINE
  5
C9
100
AcDbEntity
  8
Calque 1
 62
     7
100
AcDbLine
 10
99.370734
 20
71.826003
 30
0.0
 11
98.874806
 21
71.726747
 31
0.0
  0
LINE
  5
CA
100
AcDbEntity
  8
Calque 1
 62
     7
100
AcDbLine
 10
98.874806
 20
71.726747
 30
0.0
 11
93.660874
 21
71.42057
 31
0.0
  0
LINE
  5
CB
100
AcDbEntity
  8
Calque 1
 62
     7
100
AcDbLine
 10
93.660874
 20
71.42057
 30
0.0
 11
87.614142
 21
71.463543
 31
0.0
  0
LINE
  5
CC
100
AcDbEntity
  8
Calque 1
 62
     7
100
AcDbLine
 10
87.614142
 20
71.463543
 30
0.0
 11
84.366077
 21
71.649054
 31
0.0
  0
LINE
  5
CD
100
AcDbEntity
  8
Calque 1
 62
     7
100
AcDbLine
 10
84.366077
 20
71.649054
 30
0.0
 11
84.218506
 21
76.617012
 31
0.0
  0
LINE
  5
CE
100
AcDbEntity
  8
Calque 1
 62
     7
100
AcDbLine
 10
83.258705
 20
77.249486
 30
0.0
 11
81.527938
 21
77.320027
 31
0.0
  0
LINE
  5
CF
100
AcDbEntity
  8
Calque 1
 62
     7
100
AcDbLine
 10
81.527938
 20
77.320027
 30
0.0
 11
79.797168
 21
77.390571
 31
0.0
  0
LINE
  5
D0
100
AcDbEntity
  8
Calque 1
 62
     7
100
AcDbLine
 10
79.797168
 20
77.390571
 30
0.0
 11
79.742292
 21
75.607212
 31
0.0
  0
LINE
  5
D1
100
AcDbEntity
  8
Calque 1
 62
     7
100
AcDbLine
 10
79.742292
 20
75.607212
 30
0.0
 11
79.671737
 21
72.906633
 31
0.0
  0
LINE
  5
D2
100
AcDbEntity
  8
Calque 1
 62
     7
100
AcDbLine
 10
79.671737
 20
72.906633
 30
0.0
 11
79.521074
 21
72.139589
 31
0.0
  0
LINE
  5
D3
100
AcDbEntity
  8
Calque 1
 62
     7
100
AcDbLine
 10
79.521074
 20
72.139589
 30
0.0
 11
78.950501
 21
71.839732
 31
0.0
  0
LINE
  5
D4
100
AcDbEntity
  8
Calque 1
 62
     7
100
AcDbLine
 10
78.950501
 20
71.839732
 30
0.0
 11
76.35432
 21
71.731874
 31
0.0
  0
LINE
  5
D5
100
AcDbEntity
  8
Calque 1
 62
     7
100
AcDbLine
 10
76.35432
 20
71.731874
 30
0.0
 11
71.635842
 21
71.72616
 31
0.0
  0
LINE
  5
D6
100
AcDbEntity
  8
Calque 1
 62
     7
100
AcDbLine
 10
71.635842
 20
71.72616
 30
0.0
 11
67.06858
 21
71.804745
 31
0.0
  0
LINE
  5
D7
100
AcDbEntity
  8
Calque 1
 62
     7
100
AcDbLine
 10
67.06858
 20
71.804745
 30
0.0
 11
64.926049
 21
71.94979
 31
0.0
  0
LINE
  5
D8
100
AcDbEntity
  8
Calque 1
 62
     7
100
AcDbLine
 10
64.926049
 20
71.94979
 30
0.0
 11
64.612018
 21
74.61922
 31
0.0
  0
LINE
  5
D9
100
AcDbEntity
  8
Calque 1
 62
     7
100
AcDbLine
 10
64.612018
 20
74.61922
 30
0.0
 11
64.49375
 21
77.092883
 31
0.0
  0
LINE
  5
DA
100
AcDbEntity
  8
Calque 1
 62
     7
100
AcDbLine
 10
64.49375
 20
77.092883
 30
0.0
 11
63.401013
 21
77.433926
 31
0.0
  0
LINE
  5
DB
100
AcDbEntity
  8
Calque 1
 62
     7
100
AcDbLine
 10
63.401013
 20
77.433926
 30
0.0
 11
62.244845
 21
77.744493
 31
0.0
  0
LINE
  5
DC
100
AcDbEntity
  8
Calque 1
 62
     7
100
AcDbLine
 10
62.244845
 20
77.744493
 30
0.0
 11
61.581689
 21
77.71203
 31
0.0
  0
LINE
  5
DD
100
AcDbEntity
  8
Calque 1
 62
     7
100
AcDbLine
 10
61.581689
 20
77.71203
 30
0.0
 11
61.245731
 21
77.255359
 31
0.0
  0
LINE
  5
DE
100
AcDbEntity
  8
Calque 1
 62
     7
100
AcDbLine
 10
61.245731
 20
77.255359
 30
0.0
 11
61.071153
 21
76.2933
 31
0.0
  0
LINE
  5
DF
100
AcDbEntity
  8
Calque 1
 62
     7
100
AcDbLine
 10
61.071153
 20
76.2933
 30
0.0
 11
60.890731
 21
73.188855
 31
0.0
  0
LINE
  5
E0
100
AcDbEntity
  8
Calque 1
 62
     7
100
AcDbLine
 10
60.890731
 20
73.188855
 30
0.0
 11
60.888191
 21
71.566078
 31
0.0
  0
LINE
  5
E1
100
AcDbEntity
  8
Calque 1
 62
     7
100
AcDbLine
 10
60.888191
 20
71.566078
 30
0.0
 11
53.268191
 21
71.566078
 31
0.0
  0
LINE
  5
E2
100
AcDbEntity
  8
Calque 1
 62
     7
100
AcDbLine
 10
53.268191
 20
71.566078
 30
0.0
 11
45.648191
 21
71.566078
 31
0.0
  0
LINE
  5
E3
100
AcDbEntity
  8
Calque 1
 62
     7
100
AcDbLine
 10
45.648191
 20
71.566078
 30
0.0
 11
45.606259
 21
73.894411
 31
0.0
  0
LINE
  5
E4
100
AcDbEntity
  8
Calque 1
 62
     7
100
AcDbLine
 10
45.606259
 20
73.894411
 30
0.0
 11
45.622721
 21
77.51834
 31
0.0
  0
LINE
  5
E5
100
AcDbEntity
  8
Calque 1
 62
     7
100
AcDbLine
 10
44.484804
 20
77.774967
 30
0.0
 11
43.248752
 21
77.774967
 31
0.0
  0
LINE
  5
E6
100
AcDbEntity
  8
Calque 1
 62
     7
100
AcDbLine
 10
43.248752
 20
77.774967
 30
0.0
 11
42.317947
 21
77.681371
 31
0.0
  0
LINE
  5
E7
100
AcDbEntity
  8
Calque 1
 62
     7
100
AcDbLine
 10
42.317947
 20
77.681371
 30
0.0
 11
41.815783
 21
77.456343
 31
0.0
  0
LINE
  5
E8
100
AcDbEntity
  8
Calque 1
 62
     7
100
AcDbLine
 10
41.815783
 20
77.456343
 30
0.0
 11
41.394978
 21
74.916868
 31
0.0
  0
LINE
  5
E9
100
AcDbEntity
  8
Calque 1
 62
     7
100
AcDbLine
 10
41.394978
 20
74.916868
 30
0.0
 11
41.170954
 21
72.935949
 31
0.0
  0
LINE
  5
EA
100
AcDbEntity
  8
Calque 1
 62
     7
100
AcDbLine
 10
41.170954
 20
72.935949
 30
0.0
 11
40.850791
 21
71.946043
 31
0.0
  0
LINE
  5
EB
100
AcDbEntity
  8
Calque 1
 62
     7
100
AcDbLine
 10
40.850791
 20
71.946043
 30
0.0
 11
40.574754
 21
71.71544
 31
0.0
  0
LINE
  5
EC
100
AcDbEntity
  8
Calque 1
 62
     7
100
AcDbLine
 10
40.574754
 20
71.71544
 30
0.0
 11
40.178798
 21
71.603853
 31
0.0
  0
LINE
  5
ED
100
AcDbEntity
  8
Calque 1
 62
     7
100
AcDbLine
 10
40.178798
 20
71.603853
 30
0.0
 11
38.899284
 21
71.566078
 31
0.0
  0
LINE
  5
EE
100
AcDbEntity
  8
Calque 1
 62
     7
100
AcDbLine
 10
38.899284
 20
71.566078
 30
0.0
 11
34.473303
 21
71.447922
 31
0.0
  0
LINE
  5
EF
100
AcDbEntity
  8
Calque 1
 62
     7
100
AcDbLine
 10
34.473303
 20
71.447922
 30
0.0
 11
30.408279
 21
71.523725
 31
0.0
  0
LINE
  5
F0
100
AcDbEntity
  8
Calque 1
 62
     7
100
AcDbLine
 10
30.408279
 20
71.523725
 30
0.0
 11
30.408279
 21
71.523725
 31
0.0
  0
LINE
  5
F1
100
AcDbEntity
  8
Calque 1
 62
     7
100
AcDbLine
 10
76.410501
 20
145.226078
 30
0.0
 11
63.728874
 21
145.226078
 31
0.0
  0
LINE
  5
F2
100
AcDbEntity
  8
Calque 1
 62
     7
100
AcDbLine
 10
63.728874
 20
145.226078
 30
0.0
 11
54.423991
 21
145.302076
 31
0.0
  0
LINE
  5
F3
100
AcDbEntity
  8
Calque 1
 62
     7
100
AcDbLine
 10
54.423991
 20
145.302076
 30
0.0
 11
47.824421
 21
145.326467
 31
0.0
  0
LINE
  5
F4
100
AcDbEntity
  8
Calque 1
 62
     7
100
AcDbLine
 10
47.824421
 20
145.326467
 30
0.0
 11
46.271716
 21
145.385099
 31
0.0
  0
LINE
  5
F5
100
AcDbEntity
  8
Calque 1
 62
     7
100
AcDbLine
 10
46.271716
 20
145.385099
 30
0.0
 11
44.538634
 21
145.573935
 31
0.0
  0
LINE
  5
F6
100
AcDbEntity
  8
Calque 1
 62
     7
100
AcDbLine
 10
44.538634
 20
145.573935
 30
0.0
 11
43.24939
 21
145.845962
 31
0.0
  0
LINE
  5
F7
100
AcDbEntity
  8
Calque 1
 62
     7
100
AcDbLine
 10
43.24939
 20
145.845962
 30
0.0
 11
40.89386
 21
146.828221
 31
0.0
  0
LINE
  5
F8
100
AcDbEntity
  8
Calque 1
 62
     7
100
AcDbLine
 10
40.89386
 20
146.828221
 30
0.0
 11
39.359225
 21
147.780183
 31
0.0
  0
LINE
  5
F9
100
AcDbEntity
  8
Calque 1
 62
     7
100
AcDbLine
 10
39.359225
 20
147.780183
 30
0.0
 11
38.519645
 21
148.330522
 31
0.0
  0
LINE
  5
FA
100
AcDbEntity
  8
Calque 1
 62
     7
100
AcDbLine
 10
38.519645
 20
148.330522
 30
0.0
 11
37.198631
 21
149.521453
 31
0.0
  0
LINE
  5
FB
100
AcDbEntity
  8
Calque 1
 62
     7
100
AcDbLine
 10
37.198631
 20
149.521453
 30
0.0
 11
35.236559
 21
151.755421
 31
0.0
  0
LINE
  5
FC
100
AcDbEntity
  8
Calque 1
 62
     7
100
AcDbLine
 10
35.236559
 20
151.755421
 30
0.0
 11
34.089591
 21
153.541853
 31
0.0
  0
LINE
  5
FD
100
AcDbEntity
  8
Calque 1
 62
     7
100
AcDbLine
 10
34.089591
 20
153.541853
 30
0.0
 11
33.512723
 21
154.927969
 31
0.0
  0
LINE
  5
FE
100
AcDbEntity
  8
Calque 1
 62
     7
100
AcDbLine
 10
33.512723
 20
154.927969
 30
0.0
 11
33.02311
 21
156.259939
 31
0.0
  0
LINE
  5
FF
100
AcDbEntity
  8
Calque 1
 62
     7
100
AcDbLine
 10
33.02311
 20
156.259939
 30
0.0
 11
32.453991
 21
157.621033
 31
0.0
  0
LINE
  5
100
100
AcDbEntity
  8
Calque 1
 62
     7
100
AcDbLine
 10
32.453991
 20
157.621033
 30
0.0
 11
32.090181
 21
159.174866
 31
0.0
  0
LINE
  5
101
100
AcDbEntity
  8
Calque 1
 62
     7
100
AcDbLine
 10
32.090181
 20
159.174866
 30
0.0
 11
31.895019
 21
161.153094
 31
0.0
  0
LINE
  5
102
100
AcDbEntity
  8
Calque 1
 62
     7
100
AcDbLine
 10
31.895019
 20
161.153094
 30
0.0
 11
31.831844
 21
163.787376
 31
0.0
  0
LINE
  5
103
100
AcDbEntity
  8
Calque 1
 62
     7
100
AcDbLine
 10
31.831844
 20
163.787376
 30
0.0
 11
31.938152
 21
167.426291
 31
0.0
  0
LINE
  5
104
100
AcDbEntity
  8
Calque 1
 62
     7
100
AcDbLine
 10
31.938152
 20
167.426291
 30
0.0
 11
32.388985
 21
169.939744
 31
0.0
  0
LINE
  5
105
100
AcDbEntity
  8
Calque 1
 62
     7
100
AcDbLine
 10
32.388985
 20
169.939744
 30
0.0
 11
33.452674
 21
173.068134
 31
0.0
  0
LINE
  5
106
100
AcDbEntity
  8
Calque 1
 62
     7
100
AcDbLine
 10
33.452674
 20
173.068134
 30
0.0
 11
34.634859
 21
175.282744
 31
0.0
  0
LINE
  5
107
100
AcDbEntity
  8
Calque 1
 62
     7
100
AcDbLine
 10
34.634859
 20
175.282744
 30
0.0
 11
38.927381
 21
179.671712
 31
0.0
  0
LINE
  5
108
100
AcDbEntity
  8
Calque 1
 62
     7
100
AcDbLine
 10
38.927381
 20
179.671712
 30
0.0
 11
47.684063
 21
188.300292
 31
0.0
  0
LINE
  5
109
100
AcDbEntity
  8
Calque 1
 62
     7
100
AcDbLine
 10
47.684063
 20
188.300292
 30
0.0
 11
50.918169
 21
191.644975
 31
0.0
  0
LINE
  5
10A
100
AcDbEntity
  8
Calque 1
 62
     7
100
AcDbLine
 10
50.918169
 20
191.644975
 30
0.0
 11
51.770451
 21
192.775869
 31
0.0
  0
LINE
  5
10B
100
AcDbEntity
  8
Calque 1
 62
     7
100
AcDbLine
 10
51.770451
 20
192.775869
 30
0.0
 11
52.375127
 21
193.856398
 31
0.0
  0
LINE
  5
10C
100
AcDbEntity
  8
Calque 1
 62
     7
100
AcDbLine
 10
52.375127
 20
193.856398
 30
0.0
 11
53.268279
 21
195.70829
 31
0.0
  0
LINE
  5
10D
100
AcDbEntity
  8
Calque 1
 62
     7
100
AcDbLine
 10
53.268279
 20
195.70829
 30
0.0
 11
53.280584
 21
206.803295
 31
0.0
  0
LINE
  5
10E
100
AcDbEntity
  8
Calque 1
 62
     7
100
AcDbLine
 10
53.280584
 20
206.803295
 30
0.0
 11
53.435387
 21
217.42375
 31
0.0
  0
LINE
  5
10F
100
AcDbEntity
  8
Calque 1
 62
     7
100
AcDbLine
 10
53.435387
 20
217.42375
 30
0.0
 11
53.658604
 21
219.673035
 31
0.0
  0
LINE
  5
110
100
AcDbEntity
  8
Calque 1
 62
     7
100
AcDbLine
 10
53.658604
 20
219.673035
 30
0.0
 11
54.017099
 21
220.594439
 31
0.0
  0
LINE
  5
111
100
AcDbEntity
  8
Calque 1
 62
     7
100
AcDbLine
 10
54.017099
 20
220.594439
 30
0.0
 11
57.352016
 21
220.712905
 31
0.0
  0
LINE
  5
112
100
AcDbEntity
  8
Calque 1
 62
     7
100
AcDbLine
 10
57.352016
 20
220.712905
 30
0.0
 11
64.440365
 21
220.665345
 31
0.0
  0
LINE
  5
113
100
AcDbEntity
  8
Calque 1
 62
     7
100
AcDbLine
 10
64.440365
 20
220.665345
 30
0.0
 11
71.5661
 21
220.505893
 31
0.0
  0
LINE
  5
114
100
AcDbEntity
  8
Calque 1
 62
     7
100
AcDbLine
 10
71.5661
 20
220.505893
 30
0.0
 11
75.013174
 21
220.28868
 31
0.0
  0
LINE
  5
115
100
AcDbEntity
  8
Calque 1
 62
     7
100
AcDbLine
 10
75.013174
 20
220.28868
 30
0.0
 11
75.165284
 21
219.487187
 31
0.0
  0
LINE
  5
116
100
AcDbEntity
  8
Calque 1
 62
     7
100
AcDbLine
 10
75.165284
 20
219.487187
 30
0.0
 11
75.273027
 21
217.152871
 31
0.0
  0
LINE
  5
117
100
AcDbEntity
  8
Calque 1
 62
     7
100
AcDbLine
 10
75.273027
 20
217.152871
 30
0.0
 11
75.379882
 21
206.998968
 31
0.0
  0
LINE
  5
118
100
AcDbEntity
  8
Calque 1
 62
     7
100
AcDbLine
 10
75.379882
 20
206.998968
 30
0.0
 11
75.498818
 21
195.455868
 31
0.0
  0
LINE
  5
119
100
AcDbEntity
  8
Calque 1
 62
     7
100
AcDbLine
 10
75.498818
 20
195.455868
 30
0.0
 11
75.689083
 21
193.587319
 31
0.0
  0
LINE
  5
11A
100
AcDbEntity
  8
Calque 1
 62
     7
100
AcDbLine
 10
75.689083
 20
193.587319
 30
0.0
 11
76.045672
 21
192.610825
 31
0.0
  0
LINE
  5
11B
100
AcDbEntity
  8
Calque 1
 62
     7
100
AcDbLine
 10
76.045672
 20
192.610825
 30
0.0
 11
76.738405
 21
191.611922
 31
0.0
  0
LINE
  5
11C
100
AcDbEntity
  8
Calque 1
 62
     7
100
AcDbLine
 10
76.738405
 20
191.611922
 30
0.0
 11
78.208616
 21
189.924761
 31
0.0
  0
LINE
  5
11D
100
AcDbEntity
  8
Calque 1
 62
     7
100
AcDbLine
 10
78.208616
 20
189.924761
 30
0.0
 11
83.736228
 21
184.207285
 31
0.0
  0
LINE
  5
11E
100
AcDbEntity
  8
Calque 1
 62
     7
100
AcDbLine
 10
83.736228
 20
184.207285
 30
0.0
 11
90.803834
 21
176.847698
 31
0.0
  0
LINE
  5
11F
100
AcDbEntity
  8
Calque 1
 62
     7
100
AcDbLine
 10
90.803834
 20
176.847698
 30
0.0
 11
91.181185
 21
176.215712
 31
0.0
  0
LINE
  5
120
100
AcDbEntity
  8
Calque 1
 62
     7
100
AcDbLine
 10
91.181185
 20
176.215712
 30
0.0
 11
91.804727
 21
175.276179
 31
0.0
  0
LINE
  5
121
100
AcDbEntity
  8
Calque 1
 62
     7
100
AcDbLine
 10
91.804727
 20
175.276179
 30
0.0
 11
92.516401
 21
173.803212
 31
0.0
  0
LINE
  5
122
100
AcDbEntity
  8
Calque 1
 62
     7
100
AcDbLine
 10
92.516401
 20
173.803212
 30
0.0
 11
93.10113
 21
172.291913
 31
0.0
  0
LINE
  5
123
100
AcDbEntity
  8
Calque 1
 62
     7
100
AcDbLine
 10
93.10113
 20
172.291913
 30
0.0
 11
93.343834
 21
171.237385
 31
0.0
  0
LINE
  5
124
100
AcDbEntity
  8
Calque 1
 62
     7
100
AcDbLine
 10
93.343834
 20
171.237385
 30
0.0
 11
93.427708
 21
170.578019
 31
0.0
  0
LINE
  5
125
100
AcDbEntity
  8
Calque 1
 62
     7
100
AcDbLine
 10
93.427708
 20
170.578019
 30
0.0
 11
93.629361
 21
170.200704
 31
0.0
  0
LINE
  5
126
100
AcDbEntity
  8
Calque 1
 62
     7
100
AcDbLine
 10
93.629361
 20
170.200704
 30
0.0
 11
93.811401
 21
168.872313
 31
0.0
  0
LINE
  5
127
100
AcDbEntity
  8
Calque 1
 62
     7
100
AcDbLine
 10
93.811401
 20
168.872313
 30
0.0
 11
93.805942
 21
165.456825
 31
0.0
  0
LINE
  5
128
100
AcDbEntity
  8
Calque 1
 62
     7
100
AcDbLine
 10
93.805942
 20
165.456825
 30
0.0
 11
93.702751
 21
162.692311
 31
0.0
  0
LINE
  5
129
100
AcDbEntity
  8
Calque 1
 62
     7
100
AcDbLine
 10
93.702751
 20
162.692311
 30
0.0
 11
93.486316
 21
160.603927
 31
0.0
  0
LINE
  5
12A
100
AcDbEntity
  8
Calque 1
 62
     7
100
AcDbLine
 10
93.486316
 20
160.603927
 30
0.0
 11
93.059489
 21
158.568923
 31
0.0
  0
LINE
  5
12B
100
AcDbEntity
  8
Calque 1
 62
     7
100
AcDbLine
 10
93.059489
 20
158.568923
 30
0.0
 11
92.325117
 21
155.964551
 31
0.0
  0
LINE
  5
12C
100
AcDbEntity
  8
Calque 1
 62
     7
100
AcDbLine
 10
92.325117
 20
155.964551
 30
0.0
 11
91.358635
 21
154.130107
 31
0.0
  0
LINE
  5
12D
100
AcDbEntity
  8
Calque 1
 62
     7
100
AcDbLine
 10
91.358635
 20
154.130107
 30
0.0
 11
89.877798
 21
151.830873
 31
0.0
  0
LINE
  5
12E
100
AcDbEntity
  8
Calque 1
 62
     7
100
AcDbLine
 10
89.877798
 20
151.830873
 30
0.0
 11
89.006643
 21
150.655735
 31
0.0
  0
LINE
  5
12F
100
AcDbEntity
  8
Calque 1
 62
     7
100
AcDbLine
 10
89.006643
 20
150.655735
 30
0.0
 11
87.840355
 21
149.363251
 31
0.0
  0
LINE
  5
130
100
AcDbEntity
  8
Calque 1
 62
     7
100
AcDbLine
 10
87.840355
 20
149.363251
 30
0.0
 11
86.616392
 21
148.19762
 31
0.0
  0
LINE
  5
131
100
AcDbEntity
  8
Calque 1
 62
     7
100
AcDbLine
 10
86.616392
 20
148.19762
 30
0.0
 11
85.572211
 21
147.403044
 31
0.0
  0
LINE
  5
132
100
AcDbEntity
  8
Calque 1
 62
     7
100
AcDbLine
 10
85.572211
 20
147.403044
 30
0.0
 11
83.222837
 21
146.244694
 31
0.0
  0
LINE
  5
133
100
AcDbEntity
  8
Calque 1
 62
     7
100
AcDbLine
 10
83.222837
 20
146.244694
 30
0.0
 11
80.797596
 21
145.456756
 31
0.0
  0
LINE
  5
134
100
AcDbEntity
  8
Calque 1
 62
     7
100
AcDbLine
 10
80.797596
 20
145.456756
 30
0.0
 11
78.715969
 21
145.141876
 31
0.0
  0
LINE
  5
135
100
AcDbEntity
  8
Calque 1
 62
     7
100
AcDbLine
 10
78.715969
 20
145.141876
 30
0.0
 11
76.410501
 21
145.226078
 31
0.0
  0
LINE
  5
136
100
AcDbEntity
  8
Calque 1
 62
     7
100
AcDbLine
 10
77.397441
 20
145.402701
 30
0.0
 11
77.397441
 21
145.402701
 31
0.0
  0
LINE
  5
137
100
AcDbEntity
  8
0
370
     0
  6
Continuous
 62
     7
100
AcDbLine
 10
44.484804
 20
77.774967
 30
0.0
 11
45.622721
 21
77.51834
 31
0.0
  0
LINE
  5
138
100
AcDbEntity
  8
0
370
     0
  6
Continuous
 62
     7
100
AcDbLine
 10
84.218506
 20
76.617012
 30
0.0
 11
84.203744
 21
77.128824
 31
0.0
  0
LINE
  5
139
100
AcDbEntity
  8
0
370
     0
  6
Continuous
 62
     7
100
AcDbLine
 10
84.203744
 20
77.128824
 30
0.0
 11
83.258705
 21
77.249486
 31
0.0
  0
LINE
  5
13A
100
AcDbEntity
  8
0
370
     0
  6
Continuous
 62
     7
100
AcDbLine
 10
248.673922
 20
79.465738
 30
0.0
 11
223.844018
 21
79.465738
 31
0.0
  0
LINE
  5
13B
100
AcDbEntity
  8
0
370
     0
  6
Continuous
 62
     7
100
AcDbLine
 10
223.844018
 20
78.047575
 30
0.0
 11
223.844018
 21
58.465738
 31
0.0
  0
LINE
  5
13C
100
AcDbEntity
  8
0
370
     0
  6
Continuous
 62
     7
100
AcDbLine
 10
223.844018
 20
58.465738
 30
0.0
 11
248.673922
 21
58.465738
 31
0.0
  0
INSERT
  5
17F
100
AcDbEntity
  8
0
  6
Continuous
 62
     7
100
AcDbBlockReference
  2
*E0
 10
0.0
 20
0.0
 30
0.0
1001
TCAD
1000
TC25ExternalObject
1002
{
1000
TCW30CURVE
1000

1070
     0
1071
        0
1040
1.0
1040
0.0
1000
Continuous
1000
0
1070
    21
1071
       10
1071
      162
1010
248.673922
1020
79.465738
1030
0.0
1071
     6274
1010
255.522377
1020
87.879589
1030
0.0
1071
     6274
1010
265.296436
1020
94.463552
1030
0.0
1071
      130
1010
275.667015
1020
97.64872
1030
0.0
1071
     6274
1010
282.77613
1020
99.832178
1030
0.0
1071
     6274
1010
294.849315
1020
100.041525
1030
0.0
1071
      130
1010
300.521889
1020
95.232273
1030
0.0
1071
     6274
1010
307.676958
1020
89.166151
1030
0.0
1071
     6274
1010
309.564589
1020
82.519273
1030
0.0
1071
      162
1010
309.498957
1020
73.139052
1030
0.0
1070
     3
1071
        5
1000
$SPLINESEGS
1070
    18
1070
    20
1000
$SPLFRAME
1070
    18
1070
     0
1000
$SPLINETYPE
1070
    18
1070
     1
1000
$SHOWCONTRPTS
1070
    18
1070
     1
1000
$CURVESMOOTH
1070
    18
1070
     1
1002
}
  0
INSERT
  5
1C2
100
AcDbEntity
  8
0
  6
Continuous
 62
     7
100
AcDbBlockReference
  2
*E1
 10
0.0
 20
0.0
 30
0.0
1001
TCAD
1000
TC25ExternalObject
1002
{
1000
TCW30CURVE
1000

1070
     0
1071
        0
1040
1.0
1040
0.0
1000
Continuous
1000
0
1070
    21
1071
       10
1071
      162
1010
248.673922
1020
58.465738
1030
0.0
1071
     6274
1010
255.522377
1020
50.051888
1030
0.0
1071
     6274
1010
265.296436
1020
43.467924
1030
0.0
1071
      130
1010
275.667015
1020
40.282757
1030
0.0
1071
     6274
1010
282.77613
1020
38.099299
1030
0.0
1071
     6274
1010
294.849315
1020
37.889951
1030
0.0
1071
      130
1010
300.521889
1020
42.699203
1030
0.0
1071
     6274
1010
307.676958
1020
48.765325
1030
0.0
1071
     6274
1010
309.564589
1020
55.412204
1030
0.0
1071
      162
1010
309.498957
1020
64.792424
1030
0.0
1070
     3
1071
        5
1000
$SPLINESEGS
1070
    18
1070
    20
1000
$SPLFRAME
1070
    18
1070
     0
1000
$SPLINETYPE
1070
    18
1070
     1
1000
$SHOWCONTRPTS
1070
    18
1070
     1
1000
$CURVESMOOTH
1070
    18
1070
     1
1002
}
  0
LINE
  5
1C3
100
AcDbEntity
  8
0
370
     0
  6
Continuous
 62
     7
100
AcDbLine
 10
309.498957
 20
64.792424
 30
0.0
 11
309.498957
 21
73.139052
 31
0.0
  0
LINE
  5
1C4
100
AcDbEntity
  8
Calque 1
 62
     7
100
AcDbLine
 10
227.091956
 20
137.492249
 30
0.0
 11
227.956823
 21
140.591791
 31
0.0
  0
LINE
  5
1C5
100
AcDbEntity
  8
Calque 1
 62
     7
100
AcDbLine
 10
227.956823
 20
140.591791
 30
0.0
 11
228.503336
 21
141.754011
 31
0.0
  0
LINE
  5
1C6
100
AcDbEntity
  8
Calque 1
 62
     7
100
AcDbLine
 10
228.503336
 20
141.754011
 30
0.0
 11
229.252802
 21
142.890814
 31
0.0
  0
LINE
  5
1C7
100
AcDbEntity
  8
Calque 1
 62
     7
100
AcDbLine
 10
229.252802
 20
142.890814
 30
0.0
 11
230.181062
 21
143.981571
 31
0.0
  0
LINE
  5
1C8
100
AcDbEntity
  8
Calque 1
 62
     7
100
AcDbLine
 10
230.181062
 20
143.981571
 30
0.0
 11
231.26396
 21
145.005654
 31
0.0
  0
LINE
  5
1C9
100
AcDbEntity
  8
Calque 1
 62
     7
100
AcDbLine
 10
231.26396
 20
145.005654
 30
0.0
 11
232.477336
 21
145.942433
 31
0.0
  0
LINE
  5
1CA
100
AcDbEntity
  8
Calque 1
 62
     7
100
AcDbLine
 10
232.477336
 20
145.942433
 30
0.0
 11
233.797034
 21
146.771279
 31
0.0
  0
LINE
  5
1CB
100
AcDbEntity
  8
Calque 1
 62
     7
100
AcDbLine
 10
233.797034
 20
146.771279
 30
0.0
 11
235.198894
 21
147.471563
 31
0.0
  0
LINE
  5
1CC
100
AcDbEntity
  8
Calque 1
 62
     7
100
AcDbLine
 10
235.198894
 20
147.471563
 30
0.0
 11
236.658759
 21
148.022655
 31
0.0
  0
LINE
  5
1CD
100
AcDbEntity
  8
Calque 1
 62
     7
100
AcDbLine
 10
236.658759
 20
148.022655
 30
0.0
 11
237.751329
 21
148.272983
 31
0.0
  0
LINE
  5
1CE
100
AcDbEntity
  8
Calque 1
 62
     7
100
AcDbLine
 10
237.751329
 20
148.272983
 30
0.0
 11
239.391842
 21
148.450206
 31
0.0
  0
LINE
  5
1CF
100
AcDbEntity
  8
Calque 1
 62
     7
100
AcDbLine
 10
239.391842
 20
148.450206
 30
0.0
 11
245.65994
 21
148.684031
 31
0.0
  0
LINE
  5
1D0
100
AcDbEntity
  8
Calque 1
 62
     7
100
AcDbLine
 10
245.65994
 20
148.684031
 30
0.0
 11
253.108896
 21
148.853141
 31
0.0
  0
LINE
  5
1D1
100
AcDbEntity
  8
Calque 1
 62
     7
100
AcDbLine
 10
253.108896
 20
148.853141
 30
0.0
 11
254.062539
 21
150.653132
 31
0.0
  0
LINE
  5
1D2
100
AcDbEntity
  8
Calque 1
 62
     7
100
AcDbLine
 10
254.062539
 20
150.653132
 30
0.0
 11
255.429655
 21
153.004492
 31
0.0
  0
LINE
  5
1D3
100
AcDbEntity
  8
Calque 1
 62
     7
100
AcDbLine
 10
255.429655
 20
153.004492
 30
0.0
 11
256.833665
 21
154.890781
 31
0.0
  0
LINE
  5
1D4
100
AcDbEntity
  8
Calque 1
 62
     7
100
AcDbLine
 10
256.833665
 20
154.890781
 30
0.0
 11
257.698786
 21
155.857266
 31
0.0
  0
LINE
  5
1D5
100
AcDbEntity
  8
Calque 1
 62
     7
100
AcDbLine
 10
257.698786
 20
155.857266
 30
0.0
 11
258.419807
 21
156.372244
 31
0.0
  0
LINE
  5
1D6
100
AcDbEntity
  8
Calque 1
 62
     7
100
AcDbLine
 10
258.419807
 20
156.372244
 30
0.0
 11
259.314557
 21
156.577358
 31
0.0
  0
LINE
  5
1D7
100
AcDbEntity
  8
Calque 1
 62
     7
100
AcDbLine
 10
259.314557
 20
156.577358
 30
0.0
 11
260.700863
 21
156.614253
 31
0.0
  0
LINE
  5
1D8
100
AcDbEntity
  8
Calque 1
 62
     7
100
AcDbLine
 10
260.700863
 20
156.614253
 30
0.0
 11
262.905425
 21
156.614253
 31
0.0
  0
LINE
  5
1D9
100
AcDbEntity
  8
Calque 1
 62
     7
100
AcDbLine
 10
262.905425
 20
156.614253
 30
0.0
 11
262.905425
 21
157.858917
 31
0.0
  0
LINE
  5
1DA
100
AcDbEntity
  8
Calque 1
 62
     7
100
AcDbLine
 10
262.905425
 20
157.858917
 30
0.0
 11
262.905425
 21
159.103582
 31
0.0
  0
LINE
  5
1DB
100
AcDbEntity
  8
Calque 1
 62
     7
100
AcDbLine
 10
262.905425
 20
159.103582
 30
0.0
 11
265.233759
 21
159.275961
 31
0.0
  0
LINE
  5
1DC
100
AcDbEntity
  8
Calque 1
 62
     7
100
AcDbLine
 10
265.233759
 20
159.275961
 30
0.0
 11
269.396536
 21
159.578774
 31
0.0
  0
LINE
  5
1DD
100
AcDbEntity
  8
Calque 1
 62
     7
100
AcDbLine
 10
269.396536
 20
159.578774
 30
0.0
 11
272.110803
 21
159.866113
 31
0.0
  0
LINE
  5
1DE
100
AcDbEntity
  8
Calque 1
 62
     7
100
AcDbLine
 10
272.110803
 20
159.866113
 30
0.0
 11
272.597343
 21
159.920529
 31
0.0
  0
LINE
  5
1DF
100
AcDbEntity
  8
Calque 1
 62
     7
100
AcDbLine
 10
272.597343
 20
159.920529
 30
0.0
 11
272.926333
 21
159.833459
 31
0.0
  0
LINE
  5
1E0
100
AcDbEntity
  8
Calque 1
 62
     7
100
AcDbLine
 10
272.926333
 20
159.833459
 30
0.0
 11
273.472686
 21
159.00715
 31
0.0
  0
LINE
  5
1E1
100
AcDbEntity
  8
Calque 1
 62
     7
100
AcDbLine
 10
273.472686
 20
159.00715
 30
0.0
 11
273.932155
 21
158.244022
 31
0.0
  0
LINE
  5
1E2
100
AcDbEntity
  8
Calque 1
 62
     7
100
AcDbLine
 10
273.932155
 20
158.244022
 30
0.0
 11
274.3599
 21
157.835809
 31
0.0
  0
LINE
  5
1E3
100
AcDbEntity
  8
Calque 1
 62
     7
100
AcDbLine
 10
274.3599
 20
157.835809
 30
0.0
 11
277.513569
 21
157.991604
 31
0.0
  0
LINE
  5
1E4
100
AcDbEntity
  8
Calque 1
 62
     7
100
AcDbLine
 10
277.513569
 20
157.991604
 30
0.0
 11
281.88835
 21
158.467084
 31
0.0
  0
LINE
  5
1E5
100
AcDbEntity
  8
Calque 1
 62
     7
100
AcDbLine
 10
281.88835
 20
158.467084
 30
0.0
 11
283.324746
 21
158.7479
 31
0.0
  0
LINE
  5
1E6
100
AcDbEntity
  8
Calque 1
 62
     7
100
AcDbLine
 10
295.757461
 20
160.100907
 30
0.0
 11
298.162883
 21
160.030922
 31
0.0
  0
LINE
  5
1E7
100
AcDbEntity
  8
Calque 1
 62
     7
100
AcDbLine
 10
298.162883
 20
160.030922
 30
0.0
 11
300.549408
 21
160.073167
 31
0.0
  0
LINE
  5
1E8
100
AcDbEntity
  8
Calque 1
 62
     7
100
AcDbLine
 10
300.823678
 20
160.078022
 30
0.0
 11
302.67844
 21
158.333291
 31
0.0
  0
LINE
  5
1E9
100
AcDbEntity
  8
Calque 1
 62
     7
100
AcDbLine
 10
302.67844
 20
158.333291
 30
0.0
 11
305.520979
 21
155.260986
 31
0.0
  0
LINE
  5
1EA
100
AcDbEntity
  8
Calque 1
 62
     7
100
AcDbLine
 10
305.520979
 20
155.260986
 30
0.0
 11
307.026797
 21
153.368835
 31
0.0
  0
LINE
  5
1EB
100
AcDbEntity
  8
Calque 1
 62
     7
100
AcDbLine
 10
307.026797
 20
153.368835
 30
0.0
 11
307.787113
 21
152.155594
 31
0.0
  0
LINE
  5
1EC
100
AcDbEntity
  8
Calque 1
 62
     7
100
AcDbLine
 10
307.787113
 20
152.155594
 30
0.0
 11
308.886563
 21
150.019418
 31
0.0
  0
LINE
  5
1ED
100
AcDbEntity
  8
Calque 1
 62
     7
100
AcDbLine
 10
308.886563
 20
150.019418
 30
0.0
 11
310.74944
 21
145.748697
 31
0.0
  0
LINE
  5
1EE
100
AcDbEntity
  8
Calque 1
 62
     7
100
AcDbLine
 10
310.74944
 20
145.748697
 30
0.0
 11
311.686716
 21
142.446613
 31
0.0
  0
LINE
  5
1EF
100
AcDbEntity
  8
Calque 1
 62
     7
100
AcDbLine
 10
311.686716
 20
142.446613
 30
0.0
 11
312.259933
 21
139.248609
 31
0.0
  0
LINE
  5
1F0
100
AcDbEntity
  8
Calque 1
 62
     7
100
AcDbLine
 10
312.259933
 20
139.248609
 30
0.0
 11
312.469951
 21
136.147771
 31
0.0
  0
LINE
  5
1F1
100
AcDbEntity
  8
Calque 1
 62
     7
100
AcDbLine
 10
312.469951
 20
136.147771
 30
0.0
 11
312.31763
 21
133.137182
 31
0.0
  0
LINE
  5
1F2
100
AcDbEntity
  8
Calque 1
 62
     7
100
AcDbLine
 10
312.31763
 20
133.137182
 30
0.0
 11
311.838126
 21
129.791861
 31
0.0
  0
LINE
  5
1F3
100
AcDbEntity
  8
Calque 1
 62
     7
100
AcDbLine
 10
311.838126
 20
129.791861
 30
0.0
 11
310.881387
 21
126.275364
 31
0.0
  0
LINE
  5
1F4
100
AcDbEntity
  8
Calque 1
 62
     7
100
AcDbLine
 10
310.881387
 20
126.275364
 30
0.0
 11
309.837004
 21
123.341546
 31
0.0
  0
LINE
  5
1F5
100
AcDbEntity
  8
Calque 1
 62
     7
100
AcDbLine
 10
309.837004
 20
123.341546
 30
0.0
 11
308.51632
 21
120.586807
 31
0.0
  0
LINE
  5
1F6
100
AcDbEntity
  8
Calque 1
 62
     7
100
AcDbLine
 10
308.51632
 20
120.586807
 30
0.0
 11
306.921972
 21
118.014172
 31
0.0
  0
LINE
  5
1F7
100
AcDbEntity
  8
Calque 1
 62
     7
100
AcDbLine
 10
306.921972
 20
118.014172
 30
0.0
 11
305.0566
 21
115.626669
 31
0.0
  0
LINE
  5
1F8
100
AcDbEntity
  8
Calque 1
 62
     7
100
AcDbLine
 10
305.0566
 20
115.626669
 30
0.0
 11
302.922843
 21
113.427325
 31
0.0
  0
LINE
  5
1F9
100
AcDbEntity
  8
Calque 1
 62
     7
100
AcDbLine
 10
302.922843
 20
113.427325
 30
0.0
 11
300.523339
 21
111.419164
 31
0.0
  0
LINE
  5
1FA
100
AcDbEntity
  8
Calque 1
 62
     7
100
AcDbLine
 10
300.523339
 20
111.419164
 30
0.0
 11
297.860726
 21
109.605215
 31
0.0
  0
LINE
  5
1FB
100
AcDbEntity
  8
Calque 1
 62
     7
100
AcDbLine
 10
297.860726
 20
109.605215
 30
0.0
 11
294.937645
 21
107.988504
 31
0.0
  0
LINE
  5
1FC
100
AcDbEntity
  8
Calque 1
 62
     7
100
AcDbLine
 10
294.937645
 20
107.988504
 30
0.0
 11
293.173756
 21
107.185291
 31
0.0
  0
LINE
  5
1FD
100
AcDbEntity
  8
Calque 1
 62
     7
100
AcDbLine
 10
293.173756
 20
107.185291
 30
0.0
 11
291.903756
 21
106.689401
 31
0.0
  0
LINE
  5
1FE
100
AcDbEntity
  8
Calque 1
 62
     7
100
AcDbLine
 10
291.903756
 20
106.689401
 30
0.0
 11
289.660781
 21
105.911905
 31
0.0
  0
LINE
  5
1FF
100
AcDbEntity
  8
Calque 1
 62
     7
100
AcDbLine
 10
289.660781
 20
105.911905
 30
0.0
 11
287.394907
 21
105.427483
 31
0.0
  0
LINE
  5
200
100
AcDbEntity
  8
Calque 1
 62
     7
100
AcDbLine
 10
287.394907
 20
105.427483
 30
0.0
 11
284.719985
 21
105.178845
 31
0.0
  0
LINE
  5
201
100
AcDbEntity
  8
Calque 1
 62
     7
100
AcDbLine
 10
284.719985
 20
105.178845
 30
0.0
 11
281.24987
 21
105.108697
 31
0.0
  0
LINE
  5
202
100
AcDbEntity
  8
Calque 1
 62
     7
100
AcDbLine
 10
281.24987
 20
105.108697
 30
0.0
 11
278.271554
 21
105.133232
 31
0.0
  0
LINE
  5
203
100
AcDbEntity
  8
Calque 1
 62
     7
100
AcDbLine
 10
278.271554
 20
105.133232
 30
0.0
 11
276.271548
 21
105.283977
 31
0.0
  0
LINE
  5
204
100
AcDbEntity
  8
Calque 1
 62
     7
100
AcDbLine
 10
276.271548
 20
105.283977
 30
0.0
 11
274.432369
 21
105.676644
 31
0.0
  0
LINE
  5
205
100
AcDbEntity
  8
Calque 1
 62
     7
100
AcDbLine
 10
274.432369
 20
105.676644
 30
0.0
 11
271.936536
 21
106.426946
 31
0.0
  0
LINE
  5
206
100
AcDbEntity
  8
Calque 1
 62
     7
100
AcDbLine
 10
271.936536
 20
106.426946
 30
0.0
 11
267.858688
 21
108.077448
 31
0.0
  0
LINE
  5
207
100
AcDbEntity
  8
Calque 1
 62
     7
100
AcDbLine
 10
267.858688
 20
108.077448
 30
0.0
 11
266.034082
 21
108.974901
 31
0.0
  0
LINE
  5
208
100
AcDbEntity
  8
Calque 1
 62
     7
100
AcDbLine
 10
266.034082
 20
108.974901
 30
0.0
 11
265.210241
 21
109.525317
 31
0.0
  0
LINE
  5
209
100
AcDbEntity
  8
Calque 1
 62
     7
100
AcDbLine
 10
265.210241
 20
109.525317
 30
0.0
 11
264.849372
 21
109.765364
 31
0.0
  0
LINE
  5
20A
100
AcDbEntity
  8
Calque 1
 62
     7
100
AcDbLine
 10
264.849372
 20
109.765364
 30
0.0
 11
264.357418
 21
109.970392
 31
0.0
  0
LINE
  5
20B
100
AcDbEntity
  8
Calque 1
 62
     7
100
AcDbLine
 10
264.357418
 20
109.970392
 30
0.0
 11
263.552724
 21
110.527246
 31
0.0
  0
LINE
  5
20C
100
AcDbEntity
  8
Calque 1
 62
     7
100
AcDbLine
 10
263.552724
 20
110.527246
 30
0.0
 11
261.391012
 21
112.34705
 31
0.0
  0
LINE
  5
20D
100
AcDbEntity
  8
Calque 1
 62
     7
100
AcDbLine
 10
261.391012
 20
112.34705
 30
0.0
 11
259.136028
 21
114.526017
 31
0.0
  0
LINE
  5
20E
100
AcDbEntity
  8
Calque 1
 62
     7
100
AcDbLine
 10
259.136028
 20
114.526017
 30
0.0
 11
257.559561
 21
116.365384
 31
0.0
  0
LINE
  5
20F
100
AcDbEntity
  8
Calque 1
 62
     7
100
AcDbLine
 10
257.559561
 20
116.365384
 30
0.0
 11
256.981519
 21
117.103141
 31
0.0
  0
LINE
  5
210
100
AcDbEntity
  8
Calque 1
 62
     7
100
AcDbLine
 10
256.981519
 20
117.103141
 30
0.0
 11
256.132092
 21
118.23203
 31
0.0
  0
LINE
  5
211
100
AcDbEntity
  8
Calque 1
 62
     7
100
AcDbLine
 10
256.132092
 20
118.23203
 30
0.0
 11
255.266378
 21
119.360919
 31
0.0
  0
LINE
  5
212
100
AcDbEntity
  8
Calque 1
 62
     7
100
AcDbLine
 10
255.266378
 20
119.360919
 30
0.0
 11
254.494204
 21
120.655862
 31
0.0
  0
LINE
  5
213
100
AcDbEntity
  8
Calque 1
 62
     7
100
AcDbLine
 10
254.494204
 20
120.655862
 30
0.0
 11
253.90938
 21
121.809697
 31
0.0
  0
LINE
  5
214
100
AcDbEntity
  8
Calque 1
 62
     7
100
AcDbLine
 10
253.90938
 20
121.809697
 30
0.0
 11
246.549138
 21
121.998822
 31
0.0
  0
LINE
  5
215
100
AcDbEntity
  8
Calque 1
 62
     7
100
AcDbLine
 10
246.549138
 20
121.998822
 30
0.0
 11
239.411558
 21
122.337561
 31
0.0
  0
LINE
  5
216
100
AcDbEntity
  8
Calque 1
 62
     7
100
AcDbLine
 10
239.411558
 20
122.337561
 30
0.0
 11
237.406534
 21
122.622993
 31
0.0
  0
LINE
  5
217
100
AcDbEntity
  8
Calque 1
 62
     7
100
AcDbLine
 10
237.406534
 20
122.622993
 30
0.0
 11
235.953203
 21
123.033739
 31
0.0
  0
LINE
  5
218
100
AcDbEntity
  8
Calque 1
 62
     7
100
AcDbLine
 10
235.953203
 20
123.033739
 30
0.0
 11
233.794276
 21
123.923977
 31
0.0
  0
LINE
  5
219
100
AcDbEntity
  8
Calque 1
 62
     7
100
AcDbLine
 10
233.794276
 20
123.923977
 30
0.0
 11
232.595744
 21
124.572982
 31
0.0
  0
LINE
  5
21A
100
AcDbEntity
  8
Calque 1
 62
     7
100
AcDbLine
 10
232.595744
 20
124.572982
 30
0.0
 11
231.225981
 21
125.654726
 31
0.0
  0
LINE
  5
21B
100
AcDbEntity
  8
Calque 1
 62
     7
100
AcDbLine
 10
231.225981
 20
125.654726
 30
0.0
 11
230.478533
 21
126.333133
 31
0.0
  0
LINE
  5
21C
100
AcDbEntity
  8
Calque 1
 62
     7
100
AcDbLine
 10
230.478533
 20
126.333133
 30
0.0
 11
230.167648
 21
126.85417
 31
0.0
  0
LINE
  5
21D
100
AcDbEntity
  8
Calque 1
 62
     7
100
AcDbLine
 10
230.167648
 20
126.85417
 30
0.0
 11
230.100126
 21
127.143006
 31
0.0
  0
LINE
  5
21E
100
AcDbEntity
  8
Calque 1
 62
     7
100
AcDbLine
 10
230.100126
 20
127.143006
 30
0.0
 11
229.937783
 21
127.263141
 31
0.0
  0
LINE
  5
21F
100
AcDbEntity
  8
Calque 1
 62
     7
100
AcDbLine
 10
229.937783
 20
127.263141
 30
0.0
 11
229.60702
 21
127.574027
 31
0.0
  0
LINE
  5
220
100
AcDbEntity
  8
Calque 1
 62
     7
100
AcDbLine
 10
229.60702
 20
127.574027
 30
0.0
 11
229.13457
 21
128.321475
 31
0.0
  0
LINE
  5
221
100
AcDbEntity
  8
Calque 1
 62
     7
100
AcDbLine
 10
229.13457
 20
128.321475
 30
0.0
 11
227.953321
 21
130.446727
 31
0.0
  0
LINE
  5
222
100
AcDbEntity
  8
Calque 1
 62
     7
100
AcDbLine
 10
227.953321
 20
130.446727
 30
0.0
 11
227.523994
 21
131.404973
 31
0.0
  0
LINE
  5
223
100
AcDbEntity
  8
Calque 1
 62
     7
100
AcDbLine
 10
227.523994
 20
131.404973
 30
0.0
 11
227.345425
 21
132.210616
 31
0.0
  0
LINE
  5
224
100
AcDbEntity
  8
Calque 1
 62
     7
100
AcDbLine
 10
227.345425
 20
132.210616
 30
0.0
 11
227.262523
 21
132.702851
 31
0.0
  0
LINE
  5
225
100
AcDbEntity
  8
Calque 1
 62
     7
100
AcDbLine
 10
227.262523
 20
132.702851
 30
0.0
 11
227.063203
 21
132.907586
 31
0.0
  0
LINE
  5
226
100
AcDbEntity
  8
Calque 1
 62
     7
100
AcDbLine
 10
227.063203
 20
132.907586
 30
0.0
 11
226.863884
 21
133.156294
 31
0.0
  0
LINE
  5
227
100
AcDbEntity
  8
Calque 1
 62
     7
100
AcDbLine
 10
226.863884
 20
133.156294
 30
0.0
 11
226.780981
 21
133.754253
 31
0.0
  0
LINE
  5
228
100
AcDbEntity
  8
Calque 1
 62
     7
100
AcDbLine
 10
226.780981
 20
133.754253
 30
0.0
 11
226.780981
 21
134.600919
 31
0.0
  0
LINE
  5
229
100
AcDbEntity
  8
Calque 1
 62
     7
100
AcDbLine
 10
226.780981
 20
134.600919
 30
0.0
 11
232.00466
 21
134.600919
 31
0.0
  0
LINE
  5
22A
100
AcDbEntity
  8
Calque 1
 62
     7
100
AcDbLine
 10
232.00466
 20
134.600919
 30
0.0
 11
237.22834
 21
134.600919
 31
0.0
  0
LINE
  5
22B
100
AcDbEntity
  8
Calque 1
 62
     7
100
AcDbLine
 10
237.22834
 20
134.600919
 30
0.0
 11
238.078689
 21
133.78828
 31
0.0
  0
LINE
  5
22C
100
AcDbEntity
  8
Calque 1
 62
     7
100
AcDbLine
 10
238.078689
 20
133.78828
 30
0.0
 11
238.856665
 21
133.187368
 31
0.0
  0
LINE
  5
22D
100
AcDbEntity
  8
Calque 1
 62
     7
100
AcDbLine
 10
238.856665
 20
133.187368
 30
0.0
 11
239.639752
 21
132.837691
 31
0.0
  0
LINE
  5
22E
100
AcDbEntity
  8
Calque 1
 62
     7
100
AcDbLine
 10
239.639752
 20
132.837691
 30
0.0
 11
240.394619
 21
132.727592
 31
0.0
  0
LINE
  5
22F
100
AcDbEntity
  8
Calque 1
 62
     7
100
AcDbLine
 10
240.394619
 20
132.727592
 30
0.0
 11
241.087938
 21
132.84541
 31
0.0
  0
LINE
  5
230
100
AcDbEntity
  8
Calque 1
 62
     7
100
AcDbLine
 10
241.087938
 20
132.84541
 30
0.0
 11
241.686379
 21
133.179486
 31
0.0
  0
LINE
  5
231
100
AcDbEntity
  8
Calque 1
 62
     7
100
AcDbLine
 10
241.686379
 20
133.179486
 30
0.0
 11
242.156614
 21
133.718161
 31
0.0
  0
LINE
  5
232
100
AcDbEntity
  8
Calque 1
 62
     7
100
AcDbLine
 10
242.156614
 20
133.718161
 30
0.0
 11
242.465314
 21
134.449775
 31
0.0
  0
LINE
  5
233
100
AcDbEntity
  8
Calque 1
 62
     7
100
AcDbLine
 10
242.465314
 20
134.449775
 30
0.0
 11
242.579149
 21
135.362668
 31
0.0
  0
LINE
  5
234
100
AcDbEntity
  8
Calque 1
 62
     7
100
AcDbLine
 10
242.579149
 20
135.362668
 30
0.0
 11
242.411402
 21
136.471721
 31
0.0
  0
LINE
  5
235
100
AcDbEntity
  8
Calque 1
 62
     7
100
AcDbLine
 10
242.411402
 20
136.471721
 30
0.0
 11
241.599843
 21
137.299489
 31
0.0
  0
LINE
  5
236
100
AcDbEntity
  8
Calque 1
 62
     7
100
AcDbLine
 10
241.599843
 20
137.299489
 30
0.0
 11
240.615173
 21
137.869115
 31
0.0
  0
LINE
  5
237
100
AcDbEntity
  8
Calque 1
 62
     7
100
AcDbLine
 10
240.615173
 20
137.869115
 30
0.0
 11
239.633361
 21
137.86721
 31
0.0
  0
LINE
  5
238
100
AcDbEntity
  8
Calque 1
 62
     7
100
AcDbLine
 10
239.633361
 20
137.86721
 30
0.0
 11
238.413116
 21
137.382464
 31
0.0
  0
LINE
  5
239
100
AcDbEntity
  8
Calque 1
 62
     7
100
AcDbLine
 10
238.413116
 20
137.382464
 30
0.0
 11
237.574282
 21
136.427315
 31
0.0
  0
LINE
  5
23A
100
AcDbEntity
  8
Calque 1
 62
     7
100
AcDbLine
 10
237.574282
 20
136.427315
 30
0.0
 11
237.240748
 21
136.225872
 31
0.0
  0
LINE
  5
23B
100
AcDbEntity
  8
Calque 1
 62
     7
100
AcDbLine
 10
237.240748
 20
136.225872
 30
0.0
 11
236.371792
 21
136.098511
 31
0.0
  0
LINE
  5
23C
100
AcDbEntity
  8
Calque 1
 62
     7
100
AcDbLine
 10
236.371792
 20
136.098511
 30
0.0
 11
232.178165
 21
135.99854
 31
0.0
  0
LINE
  5
23D
100
AcDbEntity
  8
Calque 1
 62
     7
100
AcDbLine
 10
232.178165
 20
135.99854
 30
0.0
 11
226.946781
 21
136.063214
 31
0.0
  0
LINE
  5
23E
100
AcDbEntity
  8
Calque 1
 62
     7
100
AcDbLine
 10
226.946781
 20
136.063214
 30
0.0
 11
227.091956
 21
137.492249
 31
0.0
  0
LINE
  5
23F
100
AcDbEntity
  8
Calque 1
 62
     7
100
AcDbLine
 10
227.091956
 20
137.492249
 30
0.0
 11
227.091956
 21
137.492249
 31
0.0
  0
LINE
  5
240
100
AcDbEntity
  8
0
370
     0
  6
Continuous
 62
     7
100
AcDbLine
 10
295.757461
 20
160.100907
 30
0.0
 11
289.169316
 21
159.64795
 31
0.0
  0
LINE
  5
241
100
AcDbEntity
  8
0
370
     0
  6
Continuous
 62
     7
100
AcDbLine
 10
289.169316
 20
159.64795
 30
0.0
 11
283.324746
 21
158.7479
 31
0.0
  0
LINE
  5
242
100
AcDbEntity
  8
Calque 1
 62
     7
100
AcDbLine
 10
128.45384
 20
127.61642
 30
0.0
 11
126.272915
 21
128.55211
 31
0.0
  0
LINE
  5
243
100
AcDbEntity
  8
Calque 1
 62
     7
100
AcDbLine
 10
126.272915
 20
128.55211
 30
0.0
 11
124.287094
 21
129.841666
 31
0.0
  0
LINE
  5
244
100
AcDbEntity
  8
Calque 1
 62
     7
100
AcDbLine
 10
124.287094
 20
129.841666
 30
0.0
 11
122.691622
 21
131.333455
 31
0.0
  0
LINE
  5
245
100
AcDbEntity
  8
Calque 1
 62
     7
100
AcDbLine
 10
122.691622
 20
131.333455
 30
0.0
 11
121.681749
 21
132.875841
 31
0.0
  0
LINE
  5
246
100
AcDbEntity
  8
Calque 1
 62
     7
100
AcDbLine
 10
121.681749
 20
132.875841
 30
0.0
 11
121.000293
 21
134.357115
 31
0.0
  0
LINE
  5
247
100
AcDbEntity
  8
Calque 1
 62
     7
100
AcDbLine
 10
121.000293
 20
134.357115
 30
0.0
 11
120.852196
 21
141.887035
 31
0.0
  0
LINE
  5
248
100
AcDbEntity
  8
Calque 1
 62
     7
100
AcDbLine
 10
120.852196
 20
141.887035
 30
0.0
 11
120.872418
 21
160.393084
 31
0.0
  0
LINE
  5
249
100
AcDbEntity
  8
Calque 1
 62
     7
100
AcDbLine
 10
120.872418
 20
160.393084
 30
0.0
 11
121.000578
 21
185.937704
 31
0.0
  0
LINE
  5
24A
100
AcDbEntity
  8
Calque 1
 62
     7
100
AcDbLine
 10
121.000578
 20
185.937704
 30
0.0
 11
115.638423
 21
185.964606
 31
0.0
  0
LINE
  5
24B
100
AcDbEntity
  8
Calque 1
 62
     7
100
AcDbLine
 10
115.638423
 20
185.964606
 30
0.0
 11
110.276269
 21
185.991508
 31
0.0
  0
LINE
  5
24C
100
AcDbEntity
  8
Calque 1
 62
     7
100
AcDbLine
 10
110.276269
 20
185.991508
 30
0.0
 11
110.274032
 21
193.682172
 31
0.0
  0
LINE
  5
24D
100
AcDbEntity
  8
Calque 1
 62
     7
100
AcDbLine
 10
110.272238
 20
194.374981
 30
0.0
 11
110.251199
 21
202.501842
 31
0.0
  0
LINE
  5
24E
100
AcDbEntity
  8
Calque 1
 62
     7
100
AcDbLine
 10
110.251199
 20
202.501842
 30
0.0
 11
110.230588
 21
203.630849
 31
0.0
  0
LINE
  5
24F
100
AcDbEntity
  8
Calque 1
 62
     7
100
AcDbLine
 10
110.230588
 20
203.630849
 30
0.0
 11
117.283325
 21
203.743159
 31
0.0
  0
LINE
  5
250
100
AcDbEntity
  8
Calque 1
 62
     7
100
AcDbLine
 10
117.283325
 20
203.743159
 30
0.0
 11
135.907384
 21
203.867014
 31
0.0
  0
LINE
  5
251
100
AcDbEntity
  8
Calque 1
 62
     7
100
AcDbLine
 10
135.907384
 20
203.867014
 30
0.0
 11
147.610309
 21
203.860777
 31
0.0
  0
LINE
  5
252
100
AcDbEntity
  8
Calque 1
 62
     7
100
AcDbLine
 10
147.610309
 20
203.860777
 30
0.0
 11
147.610309
 21
178.345378
 31
0.0
  0
LINE
  5
253
100
AcDbEntity
  8
Calque 1
 62
     7
100
AcDbLine
 10
147.610309
 20
178.345378
 30
0.0
 11
169.280502
 21
178.345378
 31
0.0
  0
LINE
  5
254
100
AcDbEntity
  8
Calque 1
 62
     7
100
AcDbLine
 10
169.280502
 20
178.345378
 30
0.0
 11
169.280502
 21
203.92725
 31
0.0
  0
LINE
  5
255
100
AcDbEntity
  8
Calque 1
 62
     7
100
AcDbLine
 10
169.280502
 20
203.92725
 30
0.0
 11
175.334025
 21
203.940776
 31
0.0
  0
LINE
  5
256
100
AcDbEntity
  8
Calque 1
 62
     7
100
AcDbLine
 10
175.334025
 20
203.940776
 30
0.0
 11
187.769334
 21
203.974879
 31
0.0
  0
LINE
  5
257
100
AcDbEntity
  8
Calque 1
 62
     7
100
AcDbLine
 10
187.769334
 20
203.974879
 30
0.0
 11
200.202132
 21
203.906008
 31
0.0
  0
LINE
  5
258
100
AcDbEntity
  8
Calque 1
 62
     7
100
AcDbLine
 10
200.202132
 20
203.906008
 30
0.0
 11
205.964306
 21
203.743484
 31
0.0
  0
LINE
  5
259
100
AcDbEntity
  8
Calque 1
 62
     7
100
AcDbLine
 10
205.964306
 20
203.743484
 30
0.0
 11
206.035242
 21
194.936092
 31
0.0
  0
LINE
  5
25A
100
AcDbEntity
  8
Calque 1
 62
     7
100
AcDbLine
 10
206.035242
 20
194.936092
 30
0.0
 11
205.802712
 21
186.120949
 31
0.0
  0
LINE
  5
25B
100
AcDbEntity
  8
Calque 1
 62
     7
100
AcDbLine
 10
205.802712
 20
186.120949
 30
0.0
 11
201.808414
 21
185.932732
 31
0.0
  0
LINE
  5
25C
100
AcDbEntity
  8
Calque 1
 62
     7
100
AcDbLine
 10
201.808414
 20
185.932732
 30
0.0
 11
196.12491
 21
185.789537
 31
0.0
  0
LINE
  5
25D
100
AcDbEntity
  8
Calque 1
 62
     7
100
AcDbLine
 10
196.12491
 20
185.789537
 30
0.0
 11
194.343215
 21
185.738164
 31
0.0
  0
LINE
  5
25E
100
AcDbEntity
  8
Calque 1
 62
     7
100
AcDbLine
 10
194.343215
 20
185.738164
 30
0.0
 11
194.270043
 21
160.465667
 31
0.0
  0
LINE
  5
25F
100
AcDbEntity
  8
Calque 1
 62
     7
100
AcDbLine
 10
194.270043
 20
160.465667
 30
0.0
 11
194.196901
 21
135.193171
 31
0.0
  0
LINE
  5
260
100
AcDbEntity
  8
Calque 1
 62
     7
100
AcDbLine
 10
194.196901
 20
135.193171
 30
0.0
 11
193.42481
 21
133.543915
 31
0.0
  0
LINE
  5
261
100
AcDbEntity
  8
Calque 1
 62
     7
100
AcDbLine
 10
193.42481
 20
133.543915
 30
0.0
 11
192.096953
 21
131.412903
 31
0.0
  0
LINE
  5
262
100
AcDbEntity
  8
Calque 1
 62
     7
100
AcDbLine
 10
192.096953
 20
131.412903
 30
0.0
 11
190.319923
 21
129.561579
 31
0.0
  0
LINE
  5
263
100
AcDbEntity
  8
Calque 1
 62
     7
100
AcDbLine
 10
190.319923
 20
129.561579
 30
0.0
 11
188.294755
 21
128.161838
 31
0.0
  0
LINE
  5
264
100
AcDbEntity
  8
Calque 1
 62
     7
100
AcDbLine
 10
188.294755
 20
128.161838
 30
0.0
 11
187.251941
 21
127.685026
 31
0.0
  0
LINE
  5
265
100
AcDbEntity
  8
Calque 1
 62
     7
100
AcDbLine
 10
187.251941
 20
127.685026
 30
0.0
 11
186.222479
 21
127.38557
 31
0.0
  0
LINE
  5
266
100
AcDbEntity
  8
Calque 1
 62
     7
100
AcDbLine
 10
186.222479
 20
127.38557
 30
0.0
 11
183.65325
 21
127.172524
 31
0.0
  0
LINE
  5
267
100
AcDbEntity
  8
Calque 1
 62
     7
100
AcDbLine
 10
183.65325
 20
127.172524
 30
0.0
 11
179.316608
 21
127.029727
 31
0.0
  0
LINE
  5
268
100
AcDbEntity
  8
Calque 1
 62
     7
100
AcDbLine
 10
179.316608
 20
127.029727
 30
0.0
 11
173.721352
 21
126.936956
 31
0.0
  0
LINE
  5
269
100
AcDbEntity
  8
Calque 1
 62
     7
100
AcDbLine
 10
173.721352
 20
126.936956
 30
0.0
 11
173.667719
 21
148.432535
 31
0.0
  0
LINE
  5
26A
100
AcDbEntity
  8
Calque 1
 62
     7
100
AcDbLine
 10
173.667719
 20
148.432535
 30
0.0
 11
141.760686
 21
148.432535
 31
0.0
  0
LINE
  5
26B
100
AcDbEntity
  8
Calque 1
 62
     7
100
AcDbLine
 10
141.760686
 20
148.432535
 30
0.0
 11
141.760686
 21
127.234037
 31
0.0
  0
LINE
  5
26C
100
AcDbEntity
  8
Calque 1
 62
     7
100
AcDbLine
 10
141.760686
 20
127.234037
 30
0.0
 11
135.312418
 21
127.225526
 31
0.0
  0
LINE
  5
26D
100
AcDbEntity
  8
Calque 1
 62
     7
100
AcDbLine
 10
135.312418
 20
127.225526
 30
0.0
 11
131.042121
 21
127.339986
 31
0.0
  0
LINE
  5
26E
100
AcDbEntity
  8
Calque 1
 62
     7
100
AcDbLine
 10
131.042121
 20
127.339986
 30
0.0
 11
128.453839
 21
127.616406
 31
0.0
  0
LINE
  5
26F
100
AcDbEntity
  8
Calque 1
 62
     7
100
AcDbLine
 10
128.453839
 20
127.616406
 30
0.0
 11
128.45384
 21
127.61642
 31
0.0
  0
LINE
  5
270
100
AcDbEntity
  8
Calque 1
 62
     7
100
AcDbLine
 10
224.614353
 20
200.699517
 30
0.0
 11
225.47922
 21
203.799059
 31
0.0
  0
LINE
  5
271
100
AcDbEntity
  8
Calque 1
 62
     7
100
AcDbLine
 10
225.47922
 20
203.799059
 30
0.0
 11
226.025733
 21
204.961279
 31
0.0
  0
LINE
  5
272
100
AcDbEntity
  8
Calque 1
 62
     7
100
AcDbLine
 10
226.025733
 20
204.961279
 30
0.0
 11
226.775199
 21
206.098082
 31
0.0
  0
LINE
  5
273
100
AcDbEntity
  8
Calque 1
 62
     7
100
AcDbLine
 10
226.775199
 20
206.098082
 30
0.0
 11
227.703459
 21
207.188839
 31
0.0
  0
LINE
  5
274
100
AcDbEntity
  8
Calque 1
 62
     7
100
AcDbLine
 10
227.703459
 20
207.188839
 30
0.0
 11
228.786357
 21
208.212922
 31
0.0
  0
LINE
  5
275
100
AcDbEntity
  8
Calque 1
 62
     7
100
AcDbLine
 10
228.786357
 20
208.212922
 30
0.0
 11
229.999733
 21
209.149701
 31
0.0
  0
LINE
  5
276
100
AcDbEntity
  8
Calque 1
 62
     7
100
AcDbLine
 10
229.999733
 20
209.149701
 30
0.0
 11
231.319431
 21
209.978547
 31
0.0
  0
LINE
  5
277
100
AcDbEntity
  8
Calque 1
 62
     7
100
AcDbLine
 10
231.319431
 20
209.978547
 30
0.0
 11
232.721291
 21
210.678831
 31
0.0
  0
LINE
  5
278
100
AcDbEntity
  8
Calque 1
 62
     7
100
AcDbLine
 10
232.721291
 20
210.678831
 30
0.0
 11
234.181156
 21
211.229923
 31
0.0
  0
LINE
  5
279
100
AcDbEntity
  8
Calque 1
 62
     7
100
AcDbLine
 10
234.181156
 20
211.229923
 30
0.0
 11
235.273726
 21
211.480251
 31
0.0
  0
LINE
  5
27A
100
AcDbEntity
  8
Calque 1
 62
     7
100
AcDbLine
 10
235.273726
 20
211.480251
 30
0.0
 11
236.914239
 21
211.657474
 31
0.0
  0
LINE
  5
27B
100
AcDbEntity
  8
Calque 1
 62
     7
100
AcDbLine
 10
236.914239
 20
211.657474
 30
0.0
 11
243.182337
 21
211.891299
 31
0.0
  0
LINE
  5
27C
100
AcDbEntity
  8
Calque 1
 62
     7
100
AcDbLine
 10
243.182337
 20
211.891299
 30
0.0
 11
250.631293
 21
212.060409
 31
0.0
  0
LINE
  5
27D
100
AcDbEntity
  8
Calque 1
 62
     7
100
AcDbLine
 10
250.631293
 20
212.060409
 30
0.0
 11
251.584936
 21
213.8604
 31
0.0
  0
LINE
  5
27E
100
AcDbEntity
  8
Calque 1
 62
     7
100
AcDbLine
 10
251.584936
 20
213.8604
 30
0.0
 11
252.952052
 21
216.21176
 31
0.0
  0
LINE
  5
27F
100
AcDbEntity
  8
Calque 1
 62
     7
100
AcDbLine
 10
252.952052
 20
216.21176
 30
0.0
 11
254.356062
 21
218.098049
 31
0.0
  0
LINE
  5
280
100
AcDbEntity
  8
Calque 1
 62
     7
100
AcDbLine
 10
254.356062
 20
218.098049
 30
0.0
 11
255.221183
 21
219.064534
 31
0.0
  0
LINE
  5
281
100
AcDbEntity
  8
Calque 1
 62
     7
100
AcDbLine
 10
255.221183
 20
219.064534
 30
0.0
 11
255.942204
 21
219.579512
 31
0.0
  0
LINE
  5
282
100
AcDbEntity
  8
Calque 1
 62
     7
100
AcDbLine
 10
255.942204
 20
219.579512
 30
0.0
 11
256.836954
 21
219.784626
 31
0.0
  0
LINE
  5
283
100
AcDbEntity
  8
Calque 1
 62
     7
100
AcDbLine
 10
256.836954
 20
219.784626
 30
0.0
 11
258.22326
 21
219.821521
 31
0.0
  0
LINE
  5
284
100
AcDbEntity
  8
Calque 1
 62
     7
100
AcDbLine
 10
258.22326
 20
219.821521
 30
0.0
 11
260.427822
 21
219.821521
 31
0.0
  0
LINE
  5
285
100
AcDbEntity
  8
Calque 1
 62
     7
100
AcDbLine
 10
260.427822
 20
219.821521
 30
0.0
 11
271.882297
 21
221.043077
 31
0.0
  0
LINE
  5
286
100
AcDbEntity
  8
Calque 1
 62
     7
100
AcDbLine
 10
271.882297
 20
221.043077
 30
0.0
 11
275.035966
 21
221.198872
 31
0.0
  0
LINE
  5
287
100
AcDbEntity
  8
Calque 1
 62
     7
100
AcDbLine
 10
275.035966
 20
221.198872
 30
0.0
 11
279.410747
 21
221.674352
 31
0.0
  0
LINE
  5
288
100
AcDbEntity
  8
Calque 1
 62
     7
100
AcDbLine
 10
279.410747
 20
221.674352
 30
0.0
 11
280.847143
 21
221.955168
 31
0.0
  0
LINE
  5
289
100
AcDbEntity
  8
Calque 1
 62
     7
100
AcDbLine
 10
280.847143
 20
221.955168
 30
0.0
 11
281.200564
 21
222.243118
 31
0.0
  0
LINE
  5
28A
100
AcDbEntity
  8
Calque 1
 62
     7
100
AcDbLine
 10
281.200564
 20
222.243118
 30
0.0
 11
281.493453
 21
222.721241
 31
0.0
  0
LINE
  5
28B
100
AcDbEntity
  8
Calque 1
 62
     7
100
AcDbLine
 10
281.493453
 20
222.721241
 30
0.0
 11
282.229357
 21
223.846998
 31
0.0
  0
LINE
  5
28C
100
AcDbEntity
  8
Calque 1
 62
     7
100
AcDbLine
 10
282.229357
 20
223.846998
 30
0.0
 11
283.558852
 21
224.901741
 31
0.0
  0
LINE
  5
28D
100
AcDbEntity
  8
Calque 1
 62
     7
100
AcDbLine
 10
283.558852
 20
224.901741
 30
0.0
 11
284.157793
 21
225.264437
 31
0.0
  0
LINE
  5
28E
100
AcDbEntity
  8
Calque 1
 62
     7
100
AcDbLine
 10
284.157793
 20
225.264437
 30
0.0
 11
284.808003
 21
225.473573
 31
0.0
  0
LINE
  5
28F
100
AcDbEntity
  8
Calque 1
 62
     7
100
AcDbLine
 10
284.808003
 20
225.473573
 30
0.0
 11
287.114171
 21
225.598008
 31
0.0
  0
LINE
  5
290
100
AcDbEntity
  8
Calque 1
 62
     7
100
AcDbLine
 10
287.114171
 20
225.598008
 30
0.0
 11
288.870036
 21
225.542314
 31
0.0
  0
LINE
  5
291
100
AcDbEntity
  8
Calque 1
 62
     7
100
AcDbLine
 10
288.870036
 20
225.542314
 30
0.0
 11
290.132003
 21
225.306958
 31
0.0
  0
LINE
  5
292
100
AcDbEntity
  8
Calque 1
 62
     7
100
AcDbLine
 10
290.132003
 20
225.306958
 30
0.0
 11
291.150966
 21
224.811562
 31
0.0
  0
LINE
  5
293
100
AcDbEntity
  8
Calque 1
 62
     7
100
AcDbLine
 10
291.150966
 20
224.811562
 30
0.0
 11
292.177819
 21
223.97575
 31
0.0
  0
LINE
  5
294
100
AcDbEntity
  8
Calque 1
 62
     7
100
AcDbLine
 10
292.177819
 20
223.97575
 30
0.0
 11
292.709589
 21
223.537051
 31
0.0
  0
LINE
  5
295
100
AcDbEntity
  8
Calque 1
 62
     7
100
AcDbLine
 10
292.709589
 20
223.537051
 30
0.0
 11
293.279858
 21
223.308175
 31
0.0
  0
LINE
  5
296
100
AcDbEntity
  8
Calque 1
 62
     7
100
AcDbLine
 10
293.279858
 20
223.308175
 30
0.0
 11
295.68528
 21
223.23819
 31
0.0
  0
LINE
  5
297
100
AcDbEntity
  8
Calque 1
 62
     7
100
AcDbLine
 10
295.68528
 20
223.23819
 30
0.0
 11
298.071805
 21
223.280435
 31
0.0
  0
LINE
  5
298
100
AcDbEntity
  8
Calque 1
 62
     7
100
AcDbLine
 10
298.346075
 20
223.28529
 30
0.0
 11
300.200837
 21
221.540559
 31
0.0
  0
LINE
  5
299
100
AcDbEntity
  8
Calque 1
 62
     7
100
AcDbLine
 10
300.200837
 20
221.540559
 30
0.0
 11
303.043376
 21
218.468254
 31
0.0
  0
LINE
  5
29A
100
AcDbEntity
  8
Calque 1
 62
     7
100
AcDbLine
 10
303.043376
 20
218.468254
 30
0.0
 11
304.549194
 21
216.576103
 31
0.0
  0
LINE
  5
29B
100
AcDbEntity
  8
Calque 1
 62
     7
100
AcDbLine
 10
304.549194
 20
216.576103
 30
0.0
 11
305.30951
 21
215.362862
 31
0.0
  0
LINE
  5
29C
100
AcDbEntity
  8
Calque 1
 62
     7
100
AcDbLine
 10
305.30951
 20
215.362862
 30
0.0
 11
306.40896
 21
213.226686
 31
0.0
  0
LINE
  5
29D
100
AcDbEntity
  8
Calque 1
 62
     7
100
AcDbLine
 10
306.40896
 20
213.226686
 30
0.0
 11
308.271837
 21
208.955965
 31
0.0
  0
LINE
  5
29E
100
AcDbEntity
  8
Calque 1
 62
     7
100
AcDbLine
 10
308.271837
 20
208.955965
 30
0.0
 11
309.209113
 21
205.653881
 31
0.0
  0
LINE
  5
29F
100
AcDbEntity
  8
Calque 1
 62
     7
100
AcDbLine
 10
309.209113
 20
205.653881
 30
0.0
 11
309.78233
 21
202.455877
 31
0.0
  0
LINE
  5
2A0
100
AcDbEntity
  8
Calque 1
 62
     7
100
AcDbLine
 10
309.78233
 20
202.455877
 30
0.0
 11
309.992348
 21
199.355039
 31
0.0
  0
LINE
  5
2A1
100
AcDbEntity
  8
Calque 1
 62
     7
100
AcDbLine
 10
309.992348
 20
199.355039
 30
0.0
 11
309.840027
 21
196.34445
 31
0.0
  0
LINE
  5
2A2
100
AcDbEntity
  8
Calque 1
 62
     7
100
AcDbLine
 10
309.840027
 20
196.34445
 30
0.0
 11
309.360523
 21
192.999129
 31
0.0
  0
LINE
  5
2A3
100
AcDbEntity
  8
Calque 1
 62
     7
100
AcDbLine
 10
309.360523
 20
192.999129
 30
0.0
 11
308.403784
 21
189.482632
 31
0.0
  0
LINE
  5
2A4
100
AcDbEntity
  8
Calque 1
 62
     7
100
AcDbLine
 10
308.403784
 20
189.482632
 30
0.0
 11
307.359401
 21
186.548814
 31
0.0
  0
LINE
  5
2A5
100
AcDbEntity
  8
Calque 1
 62
     7
100
AcDbLine
 10
307.359401
 20
186.548814
 30
0.0
 11
306.038717
 21
183.794075
 31
0.0
  0
LINE
  5
2A6
100
AcDbEntity
  8
Calque 1
 62
     7
100
AcDbLine
 10
306.038717
 20
183.794075
 30
0.0
 11
304.444369
 21
181.22144
 31
0.0
  0
LINE
  5
2A7
100
AcDbEntity
  8
Calque 1
 62
     7
100
AcDbLine
 10
304.444369
 20
181.22144
 30
0.0
 11
302.578997
 21
178.833937
 31
0.0
  0
LINE
  5
2A8
100
AcDbEntity
  8
Calque 1
 62
     7
100
AcDbLine
 10
302.578997
 20
178.833937
 30
0.0
 11
300.44524
 21
176.634593
 31
0.0
  0
LINE
  5
2A9
100
AcDbEntity
  8
Calque 1
 62
     7
100
AcDbLine
 10
300.44524
 20
176.634593
 30
0.0
 11
298.045736
 21
174.626432
 31
0.0
  0
LINE
  5
2AA
100
AcDbEntity
  8
Calque 1
 62
     7
100
AcDbLine
 10
298.045736
 20
174.626432
 30
0.0
 11
295.383123
 21
172.812483
 31
0.0
  0
LINE
  5
2AB
100
AcDbEntity
  8
Calque 1
 62
     7
100
AcDbLine
 10
295.383123
 20
172.812483
 30
0.0
 11
292.460042
 21
171.195772
 31
0.0
  0
LINE
  5
2AC
100
AcDbEntity
  8
Calque 1
 62
     7
100
AcDbLine
 10
292.460042
 20
171.195772
 30
0.0
 11
290.696153
 21
170.392559
 31
0.0
  0
LINE
  5
2AD
100
AcDbEntity
  8
Calque 1
 62
     7
100
AcDbLine
 10
290.696153
 20
170.392559
 30
0.0
 11
289.426153
 21
169.896669
 31
0.0
  0
LINE
  5
2AE
100
AcDbEntity
  8
Calque 1
 62
     7
100
AcDbLine
 10
289.426153
 20
169.896669
 30
0.0
 11
287.183178
 21
169.119173
 31
0.0
  0
LINE
  5
2AF
100
AcDbEntity
  8
Calque 1
 62
     7
100
AcDbLine
 10
287.183178
 20
169.119173
 30
0.0
 11
284.917304
 21
168.634751
 31
0.0
  0
LINE
  5
2B0
100
AcDbEntity
  8
Calque 1
 62
     7
100
AcDbLine
 10
284.917304
 20
168.634751
 30
0.0
 11
282.242382
 21
168.386113
 31
0.0
  0
LINE
  5
2B1
100
AcDbEntity
  8
Calque 1
 62
     7
100
AcDbLine
 10
282.242382
 20
168.386113
 30
0.0
 11
278.772267
 21
168.315965
 31
0.0
  0
LINE
  5
2B2
100
AcDbEntity
  8
Calque 1
 62
     7
100
AcDbLine
 10
278.772267
 20
168.315965
 30
0.0
 11
275.793951
 21
168.3405
 31
0.0
  0
LINE
  5
2B3
100
AcDbEntity
  8
Calque 1
 62
     7
100
AcDbLine
 10
275.793951
 20
168.3405
 30
0.0
 11
273.793945
 21
168.491245
 31
0.0
  0
LINE
  5
2B4
100
AcDbEntity
  8
Calque 1
 62
     7
100
AcDbLine
 10
273.793945
 20
168.491245
 30
0.0
 11
271.954766
 21
168.883912
 31
0.0
  0
LINE
  5
2B5
100
AcDbEntity
  8
Calque 1
 62
     7
100
AcDbLine
 10
271.954766
 20
168.883912
 30
0.0
 11
269.458933
 21
169.634214
 31
0.0
  0
LINE
  5
2B6
100
AcDbEntity
  8
Calque 1
 62
     7
100
AcDbLine
 10
269.458933
 20
169.634214
 30
0.0
 11
265.381085
 21
171.284716
 31
0.0
  0
LINE
  5
2B7
100
AcDbEntity
  8
Calque 1
 62
     7
100
AcDbLine
 10
265.381085
 20
171.284716
 30
0.0
 11
263.556479
 21
172.182169
 31
0.0
  0
LINE
  5
2B8
100
AcDbEntity
  8
Calque 1
 62
     7
100
AcDbLine
 10
263.556479
 20
172.182169
 30
0.0
 11
262.732638
 21
172.732585
 31
0.0
  0
LINE
  5
2B9
100
AcDbEntity
  8
Calque 1
 62
     7
100
AcDbLine
 10
262.732638
 20
172.732585
 30
0.0
 11
262.371769
 21
172.972632
 31
0.0
  0
LINE
  5
2BA
100
AcDbEntity
  8
Calque 1
 62
     7
100
AcDbLine
 10
262.371769
 20
172.972632
 30
0.0
 11
261.879815
 21
173.17766
 31
0.0
  0
LINE
  5
2BB
100
AcDbEntity
  8
Calque 1
 62
     7
100
AcDbLine
 10
261.879815
 20
173.17766
 30
0.0
 11
261.075121
 21
173.734514
 31
0.0
  0
LINE
  5
2BC
100
AcDbEntity
  8
Calque 1
 62
     7
100
AcDbLine
 10
261.075121
 20
173.734514
 30
0.0
 11
258.913409
 21
175.554318
 31
0.0
  0
LINE
  5
2BD
100
AcDbEntity
  8
Calque 1
 62
     7
100
AcDbLine
 10
258.913409
 20
175.554318
 30
0.0
 11
256.658425
 21
177.733285
 31
0.0
  0
LINE
  5
2BE
100
AcDbEntity
  8
Calque 1
 62
     7
100
AcDbLine
 10
256.658425
 20
177.733285
 30
0.0
 11
255.081958
 21
179.572652
 31
0.0
  0
LINE
  5
2BF
100
AcDbEntity
  8
Calque 1
 62
     7
100
AcDbLine
 10
255.081958
 20
179.572652
 30
0.0
 11
254.503916
 21
180.310409
 31
0.0
  0
LINE
  5
2C0
100
AcDbEntity
  8
Calque 1
 62
     7
100
AcDbLine
 10
254.503916
 20
180.310409
 30
0.0
 11
253.654489
 21
181.439298
 31
0.0
  0
LINE
  5
2C1
100
AcDbEntity
  8
Calque 1
 62
     7
100
AcDbLine
 10
253.654489
 20
181.439298
 30
0.0
 11
252.788775
 21
182.568187
 31
0.0
  0
LINE
  5
2C2
100
AcDbEntity
  8
Calque 1
 62
     7
100
AcDbLine
 10
252.788775
 20
182.568187
 30
0.0
 11
252.016601
 21
183.86313
 31
0.0
  0
LINE
  5
2C3
100
AcDbEntity
  8
Calque 1
 62
     7
100
AcDbLine
 10
252.016601
 20
183.86313
 30
0.0
 11
251.431777
 21
185.016965
 31
0.0
  0
LINE
  5
2C4
100
AcDbEntity
  8
Calque 1
 62
     7
100
AcDbLine
 10
251.431777
 20
185.016965
 30
0.0
 11
244.071535
 21
185.20609
 31
0.0
  0
LINE
  5
2C5
100
AcDbEntity
  8
Calque 1
 62
     7
100
AcDbLine
 10
244.071535
 20
185.20609
 30
0.0
 11
236.933955
 21
185.544829
 31
0.0
  0
LINE
  5
2C6
100
AcDbEntity
  8
Calque 1
 62
     7
100
AcDbLine
 10
236.933955
 20
185.544829
 30
0.0
 11
234.928931
 21
185.830261
 31
0.0
  0
LINE
  5
2C7
100
AcDbEntity
  8
Calque 1
 62
     7
100
AcDbLine
 10
234.928931
 20
185.830261
 30
0.0
 11
233.4756
 21
186.241007
 31
0.0
  0
LINE
  5
2C8
100
AcDbEntity
  8
Calque 1
 62
     7
100
AcDbLine
 10
233.4756
 20
186.241007
 30
0.0
 11
231.316673
 21
187.131245
 31
0.0
  0
LINE
  5
2C9
100
AcDbEntity
  8
Calque 1
 62
     7
100
AcDbLine
 10
231.316673
 20
187.131245
 30
0.0
 11
230.118141
 21
187.78025
 31
0.0
  0
LINE
  5
2CA
100
AcDbEntity
  8
Calque 1
 62
     7
100
AcDbLine
 10
230.118141
 20
187.78025
 30
0.0
 11
228.748378
 21
188.861994
 31
0.0
  0
LINE
  5
2CB
100
AcDbEntity
  8
Calque 1
 62
     7
100
AcDbLine
 10
228.748378
 20
188.861994
 30
0.0
 11
228.00093
 21
189.540401
 31
0.0
  0
LINE
  5
2CC
100
AcDbEntity
  8
Calque 1
 62
     7
100
AcDbLine
 10
228.00093
 20
189.540401
 30
0.0
 11
227.690045
 21
190.061438
 31
0.0
  0
LINE
  5
2CD
100
AcDbEntity
  8
Calque 1
 62
     7
100
AcDbLine
 10
227.690045
 20
190.061438
 30
0.0
 11
227.622523
 21
190.350274
 31
0.0
  0
LINE
  5
2CE
100
AcDbEntity
  8
Calque 1
 62
     7
100
AcDbLine
 10
227.622523
 20
190.350274
 30
0.0
 11
227.46018
 21
190.470409
 31
0.0
  0
LINE
  5
2CF
100
AcDbEntity
  8
Calque 1
 62
     7
100
AcDbLine
 10
227.46018
 20
190.470409
 30
0.0
 11
227.129417
 21
190.781295
 31
0.0
  0
LINE
  5
2D0
100
AcDbEntity
  8
Calque 1
 62
     7
100
AcDbLine
 10
227.129417
 20
190.781295
 30
0.0
 11
226.656967
 21
191.528743
 31
0.0
  0
LINE
  5
2D1
100
AcDbEntity
  8
Calque 1
 62
     7
100
AcDbLine
 10
226.656967
 20
191.528743
 30
0.0
 11
225.475718
 21
193.653995
 31
0.0
  0
LINE
  5
2D2
100
AcDbEntity
  8
Calque 1
 62
     7
100
AcDbLine
 10
225.475718
 20
193.653995
 30
0.0
 11
225.046391
 21
194.612241
 31
0.0
  0
LINE
  5
2D3
100
AcDbEntity
  8
Calque 1
 62
     7
100
AcDbLine
 10
225.046391
 20
194.612241
 30
0.0
 11
224.867822
 21
195.417884
 31
0.0
  0
LINE
  5
2D4
100
AcDbEntity
  8
Calque 1
 62
     7
100
AcDbLine
 10
224.867822
 20
195.417884
 30
0.0
 11
224.78492
 21
195.910119
 31
0.0
  0
LINE
  5
2D5
100
AcDbEntity
  8
Calque 1
 62
     7
100
AcDbLine
 10
224.78492
 20
195.910119
 30
0.0
 11
224.5856
 21
196.114854
 31
0.0
  0
LINE
  5
2D6
100
AcDbEntity
  8
Calque 1
 62
     7
100
AcDbLine
 10
224.5856
 20
196.114854
 30
0.0
 11
224.386281
 21
196.363562
 31
0.0
  0
LINE
  5
2D7
100
AcDbEntity
  8
Calque 1
 62
     7
100
AcDbLine
 10
224.386281
 20
196.363562
 30
0.0
 11
224.303378
 21
196.961521
 31
0.0
  0
LINE
  5
2D8
100
AcDbEntity
  8
Calque 1
 62
     7
100
AcDbLine
 10
224.303378
 20
196.961521
 30
0.0
 11
224.303378
 21
197.808187
 31
0.0
  0
LINE
  5
2D9
100
AcDbEntity
  8
Calque 1
 62
     7
100
AcDbLine
 10
224.303378
 20
197.808187
 30
0.0
 11
229.527057
 21
197.808187
 31
0.0
  0
LINE
  5
2DA
100
AcDbEntity
  8
Calque 1
 62
     7
100
AcDbLine
 10
229.527057
 20
197.808187
 30
0.0
 11
234.750737
 21
197.808187
 31
0.0
  0
LINE
  5
2DB
100
AcDbEntity
  8
Calque 1
 62
     7
100
AcDbLine
 10
234.750737
 20
197.808187
 30
0.0
 11
235.601086
 21
196.995548
 31
0.0
  0
LINE
  5
2DC
100
AcDbEntity
  8
Calque 1
 62
     7
100
AcDbLine
 10
235.601086
 20
196.995548
 30
0.0
 11
236.379062
 21
196.394636
 31
0.0
  0
LINE
  5
2DD
100
AcDbEntity
  8
Calque 1
 62
     7
100
AcDbLine
 10
236.379062
 20
196.394636
 30
0.0
 11
237.162149
 21
196.044959
 31
0.0
  0
LINE
  5
2DE
100
AcDbEntity
  8
Calque 1
 62
     7
100
AcDbLine
 10
237.162149
 20
196.044959
 30
0.0
 11
237.917016
 21
195.93486
 31
0.0
  0
LINE
  5
2DF
100
AcDbEntity
  8
Calque 1
 62
     7
100
AcDbLine
 10
237.917016
 20
195.93486
 30
0.0
 11
238.610335
 21
196.052678
 31
0.0
  0
LINE
  5
2E0
100
AcDbEntity
  8
Calque 1
 62
     7
100
AcDbLine
 10
238.610335
 20
196.052678
 30
0.0
 11
239.208776
 21
196.386754
 31
0.0
  0
LINE
  5
2E1
100
AcDbEntity
  8
Calque 1
 62
     7
100
AcDbLine
 10
239.208776
 20
196.386754
 30
0.0
 11
239.679011
 21
196.925429
 31
0.0
  0
LINE
  5
2E2
100
AcDbEntity
  8
Calque 1
 62
     7
100
AcDbLine
 10
239.679011
 20
196.925429
 30
0.0
 11
239.987711
 21
197.657043
 31
0.0
  0
LINE
  5
2E3
100
AcDbEntity
  8
Calque 1
 62
     7
100
AcDbLine
 10
239.987711
 20
197.657043
 30
0.0
 11
240.101546
 21
198.569936
 31
0.0
  0
LINE
  5
2E4
100
AcDbEntity
  8
Calque 1
 62
     7
100
AcDbLine
 10
240.101546
 20
198.569936
 30
0.0
 11
239.933799
 21
199.678989
 31
0.0
  0
LINE
  5
2E5
100
AcDbEntity
  8
Calque 1
 62
     7
100
AcDbLine
 10
239.933799
 20
199.678989
 30
0.0
 11
239.12224
 21
200.506757
 31
0.0
  0
LINE
  5
2E6
100
AcDbEntity
  8
Calque 1
 62
     7
100
AcDbLine
 10
239.12224
 20
200.506757
 30
0.0
 11
238.13757
 21
201.076383
 31
0.0
  0
LINE
  5
2E7
100
AcDbEntity
  8
Calque 1
 62
     7
100
AcDbLine
 10
238.13757
 20
201.076383
 30
0.0
 11
237.155758
 21
201.074478
 31
0.0
  0
LINE
  5
2E8
100
AcDbEntity
  8
Calque 1
 62
     7
100
AcDbLine
 10
237.155758
 20
201.074478
 30
0.0
 11
235.935513
 21
200.589732
 31
0.0
  0
LINE
  5
2E9
100
AcDbEntity
  8
Calque 1
 62
     7
100
AcDbLine
 10
235.935513
 20
200.589732
 30
0.0
 11
235.096679
 21
199.634583
 31
0.0
  0
LINE
  5
2EA
100
AcDbEntity
  8
Calque 1
 62
     7
100
AcDbLine
 10
235.096679
 20
199.634583
 30
0.0
 11
234.763145
 21
199.43314
 31
0.0
  0
LINE
  5
2EB
100
AcDbEntity
  8
Calque 1
 62
     7
100
AcDbLine
 10
234.763145
 20
199.43314
 30
0.0
 11
233.894189
 21
199.305779
 31
0.0
  0
LINE
  5
2EC
100
AcDbEntity
  8
Calque 1
 62
     7
100
AcDbLine
 10
233.894189
 20
199.305779
 30
0.0
 11
229.700562
 21
199.205808
 31
0.0
  0
LINE
  5
2ED
100
AcDbEntity
  8
Calque 1
 62
     7
100
AcDbLine
 10
229.700562
 20
199.205808
 30
0.0
 11
224.469178
 21
199.270482
 31
0.0
  0
LINE
  5
2EE
100
AcDbEntity
  8
Calque 1
 62
     7
100
AcDbLine
 10
224.469178
 20
199.270482
 30
0.0
 11
224.614353
 21
200.699517
 31
0.0
  0
LINE
  5
2EF
100
AcDbEntity
  8
Calque 1
 62
     7
100
AcDbLine
 10
224.614353
 20
200.699517
 30
0.0
 11
224.614353
 21
200.699517
 31
0.0
  0
POINT
  5
2F0
100
AcDbEntity
  8
0
  6
Continuous
 62
     7
100
AcDbPoint
 10
159.902638
 20
94.832295
 30
0.0
1001
TCAD
1000
TC25ExternalObject
1002
{
1000
TCW30POINT
1000

1070
     0
1071
        0
1040
1.0
1040
0.0
1000
Continuous
1000
0
1070
    15
1070
    21
1071
        1
1071
      242
1010
159.902638
1020
94.832295
1030
0.0
1070
     3
1071
        3
1000
$POINTSIZE
1070
     5
1040
14.007858
1000
$POINTTYPE
1070
    18
1070
     5
1000
ExplodeScale
1070
     5
1040
1.0
1002
}
  0
LINE
  5
2F1
100
AcDbEntity
  8
Calque 1
 62
     7
100
AcDbLine
 10
114.156487
 20
28.535806
 30
0.0
 11
110.558019
 21
28.33573
 31
0.0
  0
LINE
  5
2F2
100
AcDbEntity
  8
Calque 1
 62
     7
100
AcDbLine
 10
110.558019
 20
28.33573
 30
0.0
 11
108.35291
 21
28.38755
 31
0.0
  0
LINE
  5
2F3
100
AcDbEntity
  8
Calque 1
 62
     7
100
AcDbLine
 10
108.35291
 20
28.38755
 30
0.0
 11
93.812637
 21
21.313904
 31
0.0
  0
LINE
  5
2F4
100
AcDbEntity
  8
Calque 1
 62
     7
100
AcDbLine
 10
93.812637
 20
21.313904
 30
0.0
 11
79.272368
 21
14.240259
 31
0.0
  0
LINE
  5
2F5
100
AcDbEntity
  8
Calque 1
 62
     7
100
AcDbLine
 10
79.272368
 20
14.240259
 30
0.0
 11
78.338656
 21
14.6491
 31
0.0
  0
LINE
  5
2F6
100
AcDbEntity
  8
Calque 1
 62
     7
100
AcDbLine
 10
78.338656
 20
14.6491
 30
0.0
 11
72.636472
 21
17.075832
 31
0.0
  0
LINE
  5
2F7
100
AcDbEntity
  8
Calque 1
 62
     7
100
AcDbLine
 10
72.636472
 20
17.075832
 30
0.0
 11
70.317658
 21
18.043944
 31
0.0
  0
LINE
  5
2F8
100
AcDbEntity
  8
Calque 1
 62
     7
100
AcDbLine
 10
70.317658
 20
18.043944
 30
0.0
 11
67.196826
 21
16.525702
 31
0.0
  0
LINE
  5
2F9
100
AcDbEntity
  8
Calque 1
 62
     7
100
AcDbLine
 10
67.196826
 20
16.525702
 30
0.0
 11
64.787175
 21
15.435001
 31
0.0
  0
LINE
  5
2FA
100
AcDbEntity
  8
Calque 1
 62
     7
100
AcDbLine
 10
64.787175
 20
15.435001
 30
0.0
 11
63.376207
 21
14.944683
 31
0.0
  0
LINE
  5
2FB
100
AcDbEntity
  8
Calque 1
 62
     7
100
AcDbLine
 10
63.376207
 20
14.944683
 30
0.0
 11
62.292776
 21
15.186497
 31
0.0
  0
LINE
  5
2FC
100
AcDbEntity
  8
Calque 1
 62
     7
100
AcDbLine
 10
62.292776
 20
15.186497
 30
0.0
 11
60.67064
 21
15.856003
 31
0.0
  0
LINE
  5
2FD
100
AcDbEntity
  8
Calque 1
 62
     7
100
AcDbLine
 10
60.67064
 20
15.856003
 30
0.0
 11
57.864245
 21
17.116484
 31
0.0
  0
LINE
  5
2FE
100
AcDbEntity
  8
Calque 1
 62
     7
100
AcDbLine
 10
57.864245
 20
17.116484
 30
0.0
 11
54.488391
 21
18.503066
 31
0.0
  0
LINE
  5
2FF
100
AcDbEntity
  8
Calque 1
 62
     7
100
AcDbLine
 10
54.488391
 20
18.503066
 30
0.0
 11
51.344089
 21
19.79769
 31
0.0
  0
LINE
  5
300
100
AcDbEntity
  8
Calque 1
 62
     7
100
AcDbLine
 10
51.344089
 20
19.79769
 30
0.0
 11
48.582694
 21
20.965606
 31
0.0
  0
LINE
  5
301
100
AcDbEntity
  8
Calque 1
 62
     7
100
AcDbLine
 10
48.582694
 20
20.965606
 30
0.0
 11
45.812448
 21
22.128693
 31
0.0
  0
LINE
  5
302
100
AcDbEntity
  8
Calque 1
 62
     7
100
AcDbLine
 10
45.812448
 20
22.128693
 30
0.0
 11
44.281411
 21
22.796176
 31
0.0
  0
LINE
  5
303
100
AcDbEntity
  8
Calque 1
 62
     7
100
AcDbLine
 10
44.281411
 20
22.796176
 30
0.0
 11
41.900391
 21
23.842753
 31
0.0
  0
LINE
  5
304
100
AcDbEntity
  8
Calque 1
 62
     7
100
AcDbLine
 10
41.900391
 20
23.842753
 30
0.0
 11
38.288026
 21
25.380779
 31
0.0
  0
LINE
  5
305
100
AcDbEntity
  8
Calque 1
 62
     7
100
AcDbLine
 10
38.288026
 20
25.380779
 30
0.0
 11
35.817597
 21
26.422645
 31
0.0
  0
LINE
  5
306
100
AcDbEntity
  8
Calque 1
 62
     7
100
AcDbLine
 10
35.817597
 20
26.422645
 30
0.0
 11
33.947506
 21
27.049649
 31
0.0
  0
LINE
  5
307
100
AcDbEntity
  8
Calque 1
 62
     7
100
AcDbLine
 10
33.947506
 20
27.049649
 30
0.0
 11
32.339847
 21
27.352098
 31
0.0
  0
LINE
  5
308
100
AcDbEntity
  8
Calque 1
 62
     7
100
AcDbLine
 10
32.339847
 20
27.352098
 30
0.0
 11
30.656711
 21
27.4203
 31
0.0
  0
LINE
  5
309
100
AcDbEntity
  8
Calque 1
 62
     7
100
AcDbLine
 10
30.656711
 20
27.4203
 30
0.0
 11
28.297629
 21
27.592143
 31
0.0
  0
LINE
  5
30A
100
AcDbEntity
  8
Calque 1
 62
     7
100
AcDbLine
 10
28.297629
 20
27.592143
 30
0.0
 11
25.976216
 21
28.17567
 31
0.0
  0
LINE
  5
30B
100
AcDbEntity
  8
Calque 1
 62
     7
100
AcDbLine
 10
25.976216
 20
28.17567
 30
0.0
 11
24.387831
 21
28.765118
 31
0.0
  0
LINE
  5
30C
100
AcDbEntity
  8
Calque 1
 62
     7
100
AcDbLine
 10
24.387831
 20
28.765118
 30
0.0
 11
23.17753
 21
29.389866
 31
0.0
  0
LINE
  5
30D
100
AcDbEntity
  8
Calque 1
 62
     7
100
AcDbLine
 10
23.17753
 20
29.389866
 30
0.0
 11
22.036553
 21
30.244135
 31
0.0
  0
LINE
  5
30E
100
AcDbEntity
  8
Calque 1
 62
     7
100
AcDbLine
 10
22.036553
 20
30.244135
 30
0.0
 11
20.656141
 21
31.522143
 31
0.0
  0
LINE
  5
30F
100
AcDbEntity
  8
Calque 1
 62
     7
100
AcDbLine
 10
20.656141
 20
31.522143
 30
0.0
 11
19.700579
 21
32.585538
 31
0.0
  0
LINE
  5
310
100
AcDbEntity
  8
Calque 1
 62
     7
100
AcDbLine
 10
19.700579
 20
32.585538
 30
0.0
 11
18.847057
 21
33.808718
 31
0.0
  0
LINE
  5
311
100
AcDbEntity
  8
Calque 1
 62
     7
100
AcDbLine
 10
18.847057
 20
33.808718
 30
0.0
 11
18.108203
 21
35.157439
 31
0.0
  0
LINE
  5
312
100
AcDbEntity
  8
Calque 1
 62
     7
100
AcDbLine
 10
18.108203
 20
35.157439
 30
0.0
 11
17.496648
 21
36.597459
 31
0.0
  0
LINE
  5
313
100
AcDbEntity
  8
Calque 1
 62
     7
100
AcDbLine
 10
17.496648
 20
36.597459
 30
0.0
 11
17.025019
 21
38.094532
 31
0.0
  0
LINE
  5
314
100
AcDbEntity
  8
Calque 1
 62
     7
100
AcDbLine
 10
17.025019
 20
38.094532
 30
0.0
 11
16.705947
 21
39.614415
 31
0.0
  0
LINE
  5
315
100
AcDbEntity
  8
Calque 1
 62
     7
100
AcDbLine
 10
16.705947
 20
39.614415
 30
0.0
 11
16.552058
 21
41.122866
 31
0.0
  0
LINE
  5
316
100
AcDbEntity
  8
Calque 1
 62
     7
100
AcDbLine
 10
16.566059
 20
41.978924
 30
0.0
 11
16.575982
 21
42.58564
 31
0.0
  0
LINE
  5
317
100
AcDbEntity
  8
Calque 1
 62
     7
100
AcDbLine
 10
16.575982
 20
42.58564
 30
0.0
 11
16.847056
 21
44.251277
 31
0.0
  0
LINE
  5
318
100
AcDbEntity
  8
Calque 1
 62
     7
100
AcDbLine
 10
16.847056
 20
44.251277
 30
0.0
 11
17.297836
 21
45.749599
 31
0.0
  0
LINE
  5
319
100
AcDbEntity
  8
Calque 1
 62
     7
100
AcDbLine
 10
17.297836
 20
45.749599
 30
0.0
 11
17.7836
 21
46.701911
 31
0.0
  0
LINE
  5
31A
100
AcDbEntity
  8
Calque 1
 62
     7
100
AcDbLine
 10
17.7836
 20
46.701911
 30
0.0
 11
17.994374
 21
46.854971
 31
0.0
  0
LINE
  5
31B
100
AcDbEntity
  8
Calque 1
 62
     7
100
AcDbLine
 10
17.994374
 20
46.854971
 30
0.0
 11
18.159622
 21
46.729516
 31
0.0
  0
LINE
  5
31C
100
AcDbEntity
  8
Calque 1
 62
     7
100
AcDbLine
 10
18.159622
 20
46.729516
 30
0.0
 11
20.285565
 21
45.746454
 31
0.0
  0
LINE
  5
31D
100
AcDbEntity
  8
Calque 1
 62
     7
100
AcDbLine
 10
20.285565
 20
45.746454
 30
0.0
 11
23.731531
 21
44.307967
 31
0.0
  0
LINE
  5
31E
100
AcDbEntity
  8
Calque 1
 62
     7
100
AcDbLine
 10
23.731531
 20
44.307967
 30
0.0
 11
26.332323
 21
43.242929
 31
0.0
  0
LINE
  5
31F
100
AcDbEntity
  8
Calque 1
 62
     7
100
AcDbLine
 10
26.332323
 20
43.242929
 30
0.0
 11
27.459676
 21
42.786532
 31
0.0
  0
LINE
  5
320
100
AcDbEntity
  8
Calque 1
 62
     7
100
AcDbLine
 10
27.459676
 20
42.786532
 30
0.0
 11
28.186117
 21
42.323316
 31
0.0
  0
LINE
  5
321
100
AcDbEntity
  8
Calque 1
 62
     7
100
AcDbLine
 10
28.186117
 20
42.323316
 30
0.0
 11
28.597328
 21
41.777266
 31
0.0
  0
LINE
  5
322
100
AcDbEntity
  8
Calque 1
 62
     7
100
AcDbLine
 10
28.597328
 20
41.777266
 30
0.0
 11
28.778991
 21
41.072369
 31
0.0
  0
LINE
  5
323
100
AcDbEntity
  8
Calque 1
 62
     7
100
AcDbLine
 10
28.778991
 20
41.072369
 30
0.0
 11
29.000528
 21
40.260292
 31
0.0
  0
LINE
  5
324
100
AcDbEntity
  8
Calque 1
 62
     7
100
AcDbLine
 10
29.000528
 20
40.260292
 30
0.0
 11
29.550471
 21
39.75785
 31
0.0
  0
LINE
  5
325
100
AcDbEntity
  8
Calque 1
 62
     7
100
AcDbLine
 10
29.550471
 20
39.75785
 30
0.0
 11
30.956178
 21
39.127413
 31
0.0
  0
LINE
  5
326
100
AcDbEntity
  8
Calque 1
 62
     7
100
AcDbLine
 10
30.956178
 20
39.127413
 30
0.0
 11
32.098376
 21
39.075642
 31
0.0
  0
LINE
  5
327
100
AcDbEntity
  8
Calque 1
 62
     7
100
AcDbLine
 10
32.098376
 20
39.075642
 30
0.0
 11
32.573358
 21
39.26739
 31
0.0
  0
LINE
  5
328
100
AcDbEntity
  8
Calque 1
 62
     7
100
AcDbLine
 10
32.573358
 20
39.26739
 30
0.0
 11
32.985697
 21
39.604564
 31
0.0
  0
LINE
  5
329
100
AcDbEntity
  8
Calque 1
 62
     7
100
AcDbLine
 10
32.985697
 20
39.604564
 30
0.0
 11
33.626764
 21
40.716207
 31
0.0
  0
LINE
  5
32A
100
AcDbEntity
  8
Calque 1
 62
     7
100
AcDbLine
 10
33.626764
 20
40.716207
 30
0.0
 11
33.891512
 21
41.871752
 31
0.0
  0
LINE
  5
32B
100
AcDbEntity
  8
Calque 1
 62
     7
100
AcDbLine
 10
33.891512
 20
41.871752
 30
0.0
 11
33.746523
 21
42.317057
 31
0.0
  0
LINE
  5
32C
100
AcDbEntity
  8
Calque 1
 62
     7
100
AcDbLine
 10
33.746523
 20
42.317057
 30
0.0
 11
33.395642
 21
42.869547
 31
0.0
  0
LINE
  5
32D
100
AcDbEntity
  8
Calque 1
 62
     7
100
AcDbLine
 10
33.395642
 20
42.869547
 30
0.0
 11
32.811967
 21
43.521259
 31
0.0
  0
LINE
  5
32E
100
AcDbEntity
  8
Calque 1
 62
     7
100
AcDbLine
 10
32.811967
 20
43.521259
 30
0.0
 11
32.154271
 21
43.966281
 31
0.0
  0
LINE
  5
32F
100
AcDbEntity
  8
Calque 1
 62
     7
100
AcDbLine
 10
32.154271
 20
43.966281
 30
0.0
 11
31.502347
 21
44.165366
 31
0.0
  0
LINE
  5
330
100
AcDbEntity
  8
Calque 1
 62
     7
100
AcDbLine
 10
31.502347
 20
44.165366
 30
0.0
 11
30.935992
 21
44.079269
 31
0.0
  0
LINE
  5
331
100
AcDbEntity
  8
Calque 1
 62
     7
100
AcDbLine
 10
30.935992
 20
44.079269
 30
0.0
 11
30.583062
 21
44.005164
 31
0.0
  0
LINE
  5
332
100
AcDbEntity
  8
Calque 1
 62
     7
100
AcDbLine
 10
30.583062
 20
44.005164
 30
0.0
 11
30.262961
 21
44.084071
 31
0.0
  0
LINE
  5
333
100
AcDbEntity
  8
Calque 1
 62
     7
100
AcDbLine
 10
30.262961
 20
44.084071
 30
0.0
 11
29.871065
 21
44.073378
 31
0.0
  0
LINE
  5
334
100
AcDbEntity
  8
Calque 1
 62
     7
100
AcDbLine
 10
29.871065
 20
44.073378
 30
0.0
 11
29.343466
 21
43.779575
 31
0.0
  0
LINE
  5
335
100
AcDbEntity
  8
Calque 1
 62
     7
100
AcDbLine
 10
29.343466
 20
43.779575
 30
0.0
 11
28.965411
 21
43.547703
 31
0.0
  0
LINE
  5
336
100
AcDbEntity
  8
Calque 1
 62
     7
100
AcDbLine
 10
28.965411
 20
43.547703
 30
0.0
 11
28.558482
 21
43.498837
 31
0.0
  0
LINE
  5
337
100
AcDbEntity
  8
Calque 1
 62
     7
100
AcDbLine
 10
28.558482
 20
43.498837
 30
0.0
 11
27.174965
 21
43.999001
 31
0.0
  0
LINE
  5
338
100
AcDbEntity
  8
Calque 1
 62
     7
100
AcDbLine
 10
27.174965
 20
43.999001
 30
0.0
 11
24.832178
 21
45.003774
 31
0.0
  0
LINE
  5
339
100
AcDbEntity
  8
Calque 1
 62
     7
100
AcDbLine
 10
24.832178
 20
45.003774
 30
0.0
 11
21.843666
 21
46.258704
 31
0.0
  0
LINE
  5
33A
100
AcDbEntity
  8
Calque 1
 62
     7
100
AcDbLine
 10
21.843666
 20
46.258704
 30
0.0
 11
18.966583
 21
47.495517
 31
0.0
  0
LINE
  5
33B
100
AcDbEntity
  8
Calque 1
 62
     7
100
AcDbLine
 10
18.966583
 20
47.495517
 30
0.0
 11
18.450621
 21
47.730537
 31
0.0
  0
LINE
  5
33C
100
AcDbEntity
  8
Calque 1
 62
     7
100
AcDbLine
 10
18.450621
 20
47.730537
 30
0.0
 11
18.253087
 21
47.968876
 31
0.0
  0
LINE
  5
33D
100
AcDbEntity
  8
Calque 1
 62
     7
100
AcDbLine
 10
18.253087
 20
47.968876
 30
0.0
 11
18.354889
 21
48.330114
 31
0.0
  0
LINE
  5
33E
100
AcDbEntity
  8
Calque 1
 62
     7
100
AcDbLine
 10
18.354889
 20
48.330114
 30
0.0
 11
18.736936
 21
48.933833
 31
0.0
  0
LINE
  5
33F
100
AcDbEntity
  8
Calque 1
 62
     7
100
AcDbLine
 10
18.736936
 20
48.933833
 30
0.0
 11
20.20929
 21
50.997358
 31
0.0
  0
LINE
  5
340
100
AcDbEntity
  8
Calque 1
 62
     7
100
AcDbLine
 10
20.20929
 20
50.997358
 30
0.0
 11
21.494286
 21
52.393363
 31
0.0
  0
LINE
  5
341
100
AcDbEntity
  8
Calque 1
 62
     7
100
AcDbLine
 10
21.494286
 20
52.393363
 30
0.0
 11
22.973569
 21
53.462141
 31
0.0
  0
LINE
  5
342
100
AcDbEntity
  8
Calque 1
 62
     7
100
AcDbLine
 10
22.973569
 20
53.462141
 30
0.0
 11
25.028784
 21
54.543989
 31
0.0
  0
LINE
  5
343
100
AcDbEntity
  8
Calque 1
 62
     7
100
AcDbLine
 10
25.028784
 20
54.543989
 30
0.0
 11
27.537046
 21
55.622797
 31
0.0
  0
LINE
  5
344
100
AcDbEntity
  8
Calque 1
 62
     7
100
AcDbLine
 10
27.537046
 20
55.622797
 30
0.0
 11
29.515776
 21
55.965372
 31
0.0
  0
LINE
  5
345
100
AcDbEntity
  8
Calque 1
 62
     7
100
AcDbLine
 10
29.515776
 20
55.965372
 30
0.0
 11
31.274676
 21
56.004776
 31
0.0
  0
LINE
  5
346
100
AcDbEntity
  8
Calque 1
 62
     7
100
AcDbLine
 10
31.274676
 20
56.004776
 30
0.0
 11
32.94114
 21
55.868692
 31
0.0
  0
LINE
  5
347
100
AcDbEntity
  8
Calque 1
 62
     7
100
AcDbLine
 10
32.94114
 20
55.868692
 30
0.0
 11
34.536238
 21
55.548684
 31
0.0
  0
LINE
  5
348
100
AcDbEntity
  8
Calque 1
 62
     7
100
AcDbLine
 10
34.536238
 20
55.548684
 30
0.0
 11
36.081044
 21
55.036311
 31
0.0
  0
LINE
  5
349
100
AcDbEntity
  8
Calque 1
 62
     7
100
AcDbLine
 10
36.081044
 20
55.036311
 30
0.0
 11
37.596628
 21
54.323136
 31
0.0
  0
LINE
  5
34A
100
AcDbEntity
  8
Calque 1
 62
     7
100
AcDbLine
 10
37.596628
 20
54.323136
 30
0.0
 11
39.104065
 21
53.400722
 31
0.0
  0
LINE
  5
34B
100
AcDbEntity
  8
Calque 1
 62
     7
100
AcDbLine
 10
39.104065
 20
53.400722
 30
0.0
 11
40.624424
 21
52.260627
 31
0.0
  0
LINE
  5
34C
100
AcDbEntity
  8
Calque 1
 62
     7
100
AcDbLine
 10
40.624424
 20
52.260627
 30
0.0
 11
42.178777
 21
50.894417
 31
0.0
  0
LINE
  5
34D
100
AcDbEntity
  8
Calque 1
 62
     7
100
AcDbLine
 10
42.178777
 20
50.894417
 30
0.0
 11
43.025559
 21
50.291244
 31
0.0
  0
LINE
  5
34E
100
AcDbEntity
  8
Calque 1
 62
     7
100
AcDbLine
 10
43.025559
 20
50.291244
 30
0.0
 11
44.068279
 21
49.773629
 31
0.0
  0
LINE
  5
34F
100
AcDbEntity
  8
Calque 1
 62
     7
100
AcDbLine
 10
44.068279
 20
49.773629
 30
0.0
 11
50.765292
 21
47.122828
 31
0.0
  0
LINE
  5
350
100
AcDbEntity
  8
Calque 1
 62
     7
100
AcDbLine
 10
50.765292
 20
47.122828
 30
0.0
 11
57.673593
 21
44.219024
 31
0.0
  0
LINE
  5
351
100
AcDbEntity
  8
Calque 1
 62
     7
100
AcDbLine
 10
57.673593
 20
44.219024
 30
0.0
 11
60.059986
 21
43.183043
 31
0.0
  0
LINE
  5
352
100
AcDbEntity
  8
Calque 1
 62
     7
100
AcDbLine
 10
60.059986
 20
43.183043
 30
0.0
 11
62.823681
 21
42.016768
 31
0.0
  0
LINE
  5
353
100
AcDbEntity
  8
Calque 1
 62
     7
100
AcDbLine
 10
62.823681
 20
42.016768
 30
0.0
 11
65.271536
 21
41.029301
 31
0.0
  0
LINE
  5
354
100
AcDbEntity
  8
Calque 1
 62
     7
100
AcDbLine
 10
65.271536
 20
41.029301
 30
0.0
 11
66.115318
 21
40.628254
 31
0.0
  0
LINE
  5
355
100
AcDbEntity
  8
Calque 1
 62
     7
100
AcDbLine
 10
66.115318
 20
40.628254
 30
0.0
 11
66.619847
 21
40.263479
 31
0.0
  0
LINE
  5
356
100
AcDbEntity
  8
Calque 1
 62
     7
100
AcDbLine
 10
66.619847
 20
40.263479
 30
0.0
 11
66.940115
 21
39.774556
 31
0.0
  0
LINE
  5
357
100
AcDbEntity
  8
Calque 1
 62
     7
100
AcDbLine
 10
66.940115
 20
39.774556
 30
0.0
 11
67.231115
 21
39.001064
 31
0.0
  0
LINE
  5
358
100
AcDbEntity
  8
Calque 1
 62
     7
100
AcDbLine
 10
67.231115
 20
39.001064
 30
0.0
 11
67.679589
 21
37.074677
 31
0.0
  0
LINE
  5
359
100
AcDbEntity
  8
Calque 1
 62
     7
100
AcDbLine
 10
67.679589
 20
37.074677
 30
0.0
 11
67.977628
 21
36.603142
 31
0.0
  0
LINE
  5
35A
100
AcDbEntity
  8
Calque 1
 62
     7
100
AcDbLine
 10
67.977628
 20
36.603142
 30
0.0
 11
68.926049
 21
35.996599
 31
0.0
  0
LINE
  5
35B
100
AcDbEntity
  8
Calque 1
 62
     7
100
AcDbLine
 10
68.926049
 20
35.996599
 30
0.0
 11
72.985834
 21
34.266393
 31
0.0
  0
LINE
  5
35C
100
AcDbEntity
  8
Calque 1
 62
     7
100
AcDbLine
 10
72.985834
 20
34.266393
 30
0.0
 11
74.748344
 21
33.459455
 31
0.0
  0
LINE
  5
35D
100
AcDbEntity
  8
Calque 1
 62
     7
100
AcDbLine
 10
74.748344
 20
33.459455
 30
0.0
 11
75.150576
 21
33.28447
 31
0.0
  0
LINE
  5
35E
100
AcDbEntity
  8
Calque 1
 62
     7
100
AcDbLine
 10
75.150576
 20
33.28447
 30
0.0
 11
75.589042
 21
33.283962
 31
0.0
  0
LINE
  5
35F
100
AcDbEntity
  8
Calque 1
 62
     7
100
AcDbLine
 10
75.589042
 20
33.283962
 30
0.0
 11
77.129748
 21
33.911821
 31
0.0
  0
LINE
  5
360
100
AcDbEntity
  8
Calque 1
 62
     7
100
AcDbLine
 10
77.129748
 20
33.911821
 30
0.0
 11
78.634755
 21
34.786227
 31
0.0
  0
LINE
  5
361
100
AcDbEntity
  8
Calque 1
 62
     7
100
AcDbLine
 10
78.634755
 20
34.786227
 30
0.0
 11
78.932614
 21
35.213721
 31
0.0
  0
LINE
  5
362
100
AcDbEntity
  8
Calque 1
 62
     7
100
AcDbLine
 10
78.932614
 20
35.213721
 30
0.0
 11
79.124738
 21
35.823898
 31
0.0
  0
LINE
  5
363
100
AcDbEntity
  8
Calque 1
 62
     7
100
AcDbLine
 10
79.124738
 20
35.823898
 30
0.0
 11
79.394986
 21
36.89691
 31
0.0
  0
LINE
  5
364
100
AcDbEntity
  8
Calque 1
 62
     7
100
AcDbLine
 10
79.394986
 20
36.89691
 30
0.0
 11
87.363386
 21
40.773428
 31
0.0
  0
LINE
  5
365
100
AcDbEntity
  8
Calque 1
 62
     7
100
AcDbLine
 10
87.363386
 20
40.773428
 30
0.0
 11
95.331787
 21
44.649948
 31
0.0
  0
LINE
  5
366
100
AcDbEntity
  8
Calque 1
 62
     7
100
AcDbLine
 10
95.331787
 20
44.649948
 30
0.0
 11
95.608364
 21
46.432196
 31
0.0
  0
LINE
  5
367
100
AcDbEntity
  8
Calque 1
 62
     7
100
AcDbLine
 10
95.608364
 20
46.432196
 30
0.0
 11
96.332685
 21
49.56608
 31
0.0
  0
LINE
  5
368
100
AcDbEntity
  8
Calque 1
 62
     7
100
AcDbLine
 10
96.332685
 20
49.56608
 30
0.0
 11
96.862767
 21
50.8458
 31
0.0
  0
LINE
  5
369
100
AcDbEntity
  8
Calque 1
 62
     7
100
AcDbLine
 10
96.862767
 20
50.8458
 30
0.0
 11
97.559771
 21
52.093527
 31
0.0
  0
LINE
  5
36A
100
AcDbEntity
  8
Calque 1
 62
     7
100
AcDbLine
 10
97.559771
 20
52.093527
 30
0.0
 11
98.520092
 21
53.560572
 31
0.0
  0
LINE
  5
36B
100
AcDbEntity
  8
Calque 1
 62
     7
100
AcDbLine
 10
98.520092
 20
53.560572
 30
0.0
 11
99.382144
 21
54.649213
 31
0.0
  0
LINE
  5
36C
100
AcDbEntity
  8
Calque 1
 62
     7
100
AcDbLine
 10
99.382144
 20
54.649213
 30
0.0
 11
100.388593
 21
55.627943
 31
0.0
  0
LINE
  5
36D
100
AcDbEntity
  8
Calque 1
 62
     7
100
AcDbLine
 10
100.388593
 20
55.627943
 30
0.0
 11
101.782105
 21
56.765255
 31
0.0
  0
LINE
  5
36E
100
AcDbEntity
  8
Calque 1
 62
     7
100
AcDbLine
 10
101.782105
 20
56.765255
 30
0.0
 11
103.916693
 21
58.176876
 31
0.0
  0
LINE
  5
36F
100
AcDbEntity
  8
Calque 1
 62
     7
100
AcDbLine
 10
103.916693
 20
58.176876
 30
0.0
 11
106.19416
 21
59.206584
 31
0.0
  0
LINE
  5
370
100
AcDbEntity
  8
Calque 1
 62
     7
100
AcDbLine
 10
106.19416
 20
59.206584
 30
0.0
 11
108.562815
 21
59.852907
 31
0.0
  0
LINE
  5
371
100
AcDbEntity
  8
Calque 1
 62
     7
100
AcDbLine
 10
108.562815
 20
59.852907
 30
0.0
 11
110.970964
 21
60.114377
 31
0.0
  0
LINE
  5
372
100
AcDbEntity
  8
Calque 1
 62
     7
100
AcDbLine
 10
110.970964
 20
60.114377
 30
0.0
 11
113.366917
 21
59.989523
 31
0.0
  0
LINE
  5
373
100
AcDbEntity
  8
Calque 1
 62
     7
100
AcDbLine
 10
113.366917
 20
59.989523
 30
0.0
 11
115.698979
 21
59.476875
 31
0.0
  0
LINE
  5
374
100
AcDbEntity
  8
Calque 1
 62
     7
100
AcDbLine
 10
115.698979
 20
59.476875
 30
0.0
 11
117.915459
 21
58.574963
 31
0.0
  0
LINE
  5
375
100
AcDbEntity
  8
Calque 1
 62
     7
100
AcDbLine
 10
117.915459
 20
58.574963
 30
0.0
 11
119.964665
 21
57.282317
 31
0.0
  0
LINE
  5
376
100
AcDbEntity
  8
Calque 1
 62
     7
100
AcDbLine
 10
119.964665
 20
57.282317
 30
0.0
 11
121.544945
 21
55.949793
 31
0.0
  0
LINE
  5
377
100
AcDbEntity
  8
Calque 1
 62
     7
100
AcDbLine
 10
121.544945
 20
55.949793
 30
0.0
 11
114.770114
 21
49.398727
 31
0.0
  0
LINE
  5
378
100
AcDbEntity
  8
Calque 1
 62
     7
100
AcDbLine
 10
114.770114
 20
49.398727
 30
0.0
 11
114.309867
 21
49.54051
 31
0.0
  0
LINE
  5
379
100
AcDbEntity
  8
Calque 1
 62
     7
100
AcDbLine
 10
114.309867
 20
49.54051
 30
0.0
 11
113.532453
 21
50.041514
 31
0.0
  0
LINE
  5
37A
100
AcDbEntity
  8
Calque 1
 62
     7
100
AcDbLine
 10
113.532453
 20
50.041514
 30
0.0
 11
112.660176
 21
50.581514
 31
0.0
  0
LINE
  5
37B
100
AcDbEntity
  8
Calque 1
 62
     7
100
AcDbLine
 10
112.660176
 20
50.581514
 30
0.0
 11
111.971857
 21
50.817052
 31
0.0
  0
LINE
  5
37C
100
AcDbEntity
  8
Calque 1
 62
     7
100
AcDbLine
 10
111.971857
 20
50.817052
 30
0.0
 11
110.752019
 21
50.461505
 31
0.0
  0
LINE
  5
37D
100
AcDbEntity
  8
Calque 1
 62
     7
100
AcDbLine
 10
110.752019
 20
50.461505
 30
0.0
 11
108.601828
 21
49.580382
 31
0.0
  0
LINE
  5
37E
100
AcDbEntity
  8
Calque 1
 62
     7
100
AcDbLine
 10
108.601828
 20
49.580382
 30
0.0
 11
105.789115
 21
48.324986
 31
0.0
  0
LINE
  5
37F
100
AcDbEntity
  8
Calque 1
 62
     7
100
AcDbLine
 10
105.789115
 20
48.324986
 30
0.0
 11
105.697505
 21
47.163691
 31
0.0
  0
LINE
  5
380
100
AcDbEntity
  8
Calque 1
 62
     7
100
AcDbLine
 10
105.697505
 20
47.163691
 30
0.0
 11
105.156757
 21
42.264399
 31
0.0
  0
LINE
  5
381
100
AcDbEntity
  8
Calque 1
 62
     7
100
AcDbLine
 10
105.156757
 20
42.264399
 30
0.0
 11
105.15747
 21
41.765983
 31
0.0
  0
LINE
  5
382
100
AcDbEntity
  8
Calque 1
 62
     7
100
AcDbLine
 10
105.15747
 20
41.765983
 30
0.0
 11
105.68068
 21
41.263892
 31
0.0
  0
LINE
  5
383
100
AcDbEntity
  8
Calque 1
 62
     7
100
AcDbLine
 10
105.68068
 20
41.263892
 30
0.0
 11
108.59703
 21
38.941739
 31
0.0
  0
LINE
  5
384
100
AcDbEntity
  8
Calque 1
 62
     7
100
AcDbLine
 10
108.59703
 20
38.941739
 30
0.0
 11
110.825632
 21
37.122833
 31
0.0
  0
LINE
  5
385
100
AcDbEntity
  8
Calque 1
 62
     7
100
AcDbLine
 10
110.825632
 20
37.122833
 30
0.0
 11
113.871501
 21
38.604607
 31
0.0
  0
LINE
  5
386
100
AcDbEntity
  8
Calque 1
 62
     7
100
AcDbLine
 10
113.871501
 20
38.604607
 30
0.0
 11
116.485991
 21
39.984285
 31
0.0
  0
LINE
  5
387
100
AcDbEntity
  8
Calque 1
 62
     7
100
AcDbLine
 10
116.485991
 20
39.984285
 30
0.0
 11
116.978115
 21
40.428791
 31
0.0
  0
LINE
  5
388
100
AcDbEntity
  8
Calque 1
 62
     7
100
AcDbLine
 10
116.978115
 20
40.428791
 30
0.0
 11
117.235797
 21
40.922622
 31
0.0
  0
LINE
  5
389
100
AcDbEntity
  8
Calque 1
 62
     7
100
AcDbLine
 10
117.235797
 20
40.922622
 30
0.0
 11
117.499357
 21
41.464831
 31
0.0
  0
LINE
  5
38A
100
AcDbEntity
  8
Calque 1
 62
     7
100
AcDbLine
 10
117.499357
 20
41.464831
 30
0.0
 11
118.003309
 21
41.713109
 31
0.0
  0
LINE
  5
38B
100
AcDbEntity
  8
Calque 1
 62
     7
100
AcDbLine
 10
118.003309
 20
41.713109
 30
0.0
 11
119.128344
 21
41.729251
 31
0.0
  0
LINE
  5
38C
100
AcDbEntity
  8
Calque 1
 62
     7
100
AcDbLine
 10
119.128344
 20
41.729251
 30
0.0
 11
121.255159
 21
41.575052
 31
0.0
  0
LINE
  5
38D
100
AcDbEntity
  8
Calque 1
 62
     7
100
AcDbLine
 10
121.255159
 20
41.575052
 30
0.0
 11
124.727064
 21
41.373503
 31
0.0
  0
LINE
  5
38E
100
AcDbEntity
  8
Calque 1
 62
     7
100
AcDbLine
 10
124.727064
 20
41.373503
 30
0.0
 11
125.991669
 21
41.207956
 31
0.0
  0
LINE
  5
38F
100
AcDbEntity
  8
Calque 1
 62
     7
100
AcDbLine
 10
125.991669
 20
41.207956
 30
0.0
 11
126.343531
 21
40.999115
 31
0.0
  0
LINE
  5
390
100
AcDbEntity
  8
Calque 1
 62
     7
100
AcDbLine
 10
126.343531
 20
40.999115
 30
0.0
 11
126.51592
 21
40.671104
 31
0.0
  0
LINE
  5
391
100
AcDbEntity
  8
Calque 1
 62
     7
100
AcDbLine
 10
126.51592
 20
40.671104
 30
0.0
 11
126.344753
 21
39.552205
 31
0.0
  0
LINE
  5
392
100
AcDbEntity
  8
Calque 1
 62
     7
100
AcDbLine
 10
126.344753
 20
39.552205
 30
0.0
 11
125.52311
 21
37.640514
 31
0.0
  0
LINE
  5
393
100
AcDbEntity
  8
Calque 1
 62
     7
100
AcDbLine
 10
125.52311
 20
37.640514
 30
0.0
 11
124.71887
 21
36.165741
 31
0.0
  0
LINE
  5
394
100
AcDbEntity
  8
Calque 1
 62
     7
100
AcDbLine
 10
124.71887
 20
36.165741
 30
0.0
 11
123.726245
 21
34.6738
 31
0.0
  0
LINE
  5
395
100
AcDbEntity
  8
Calque 1
 62
     7
100
AcDbLine
 10
123.726245
 20
34.6738
 30
0.0
 11
122.652477
 21
33.31275
 31
0.0
  0
LINE
  5
396
100
AcDbEntity
  8
Calque 1
 62
     7
100
AcDbLine
 10
122.652477
 20
33.31275
 30
0.0
 11
121.60481
 21
32.230652
 31
0.0
  0
LINE
  5
397
100
AcDbEntity
  8
Calque 1
 62
     7
100
AcDbLine
 10
121.60481
 20
32.230652
 30
0.0
 11
120.133639
 21
31.218976
 31
0.0
  0
LINE
  5
398
100
AcDbEntity
  8
Calque 1
 62
     7
100
AcDbLine
 10
120.133639
 20
31.218976
 30
0.0
 11
118.004793
 21
30.068972
 31
0.0
  0
LINE
  5
399
100
AcDbEntity
  8
Calque 1
 62
     7
100
AcDbLine
 10
118.004793
 20
30.068972
 30
0.0
 11
115.813875
 21
29.076096
 31
0.0
  0
LINE
  5
39A
100
AcDbEntity
  8
Calque 1
 62
     7
100
AcDbLine
 10
115.813875
 20
29.076096
 30
0.0
 11
114.156487
 21
28.535806
 31
0.0
  0
LINE
  5
39B
100
AcDbEntity
  8
Calque 1
 62
     7
100
AcDbLine
 10
114.156487
 20
28.535806
 30
0.0
 11
114.156487
 21
28.535806
 31
0.0
  0
LINE
  5
39C
100
AcDbEntity
  8
0
370
     0
  6
Continuous
 62
     7
100
AcDbLine
 10
15.172515
 20
4.140808
 30
0.0
 11
15.172515
 21
7.415689
 31
0.0
  0
LINE
  5
39D
100
AcDbEntity
  8
0
370
     0
  6
Continuous
 62
     7
100
AcDbLine
 10
15.172515
 20
8.140808
 30
0.0
 11
43.985998
 21
8.140808
 31
0.0
  0
LINE
  5
39E
100
AcDbEntity
  8
0
370
     0
  6
Continuous
 62
     7
100
AcDbLine
 10
43.985998
 20
8.140808
 30
0.0
 11
66.968181
 21
8.140808
 31
0.0
  0
LINE
  5
39F
100
AcDbEntity
  8
0
370
     0
  6
Continuous
 62
     7
100
AcDbLine
 10
66.968181
 20
8.140808
 30
0.0
 11
66.968181
 21
4.140808
 31
0.0
  0
LINE
  5
3A0
100
AcDbEntity
  8
0
370
     0
  6
Continuous
 62
     7
100
AcDbLine
 10
66.968181
 20
4.140808
 30
0.0
 11
79.316816
 21
4.140808
 31
0.0
  0
LINE
  5
3A1
100
AcDbEntity
  8
0
370
     0
  6
Continuous
 62
     7
100
AcDbLine
 10
79.316816
 20
4.140808
 30
0.0
 11
79.316816
 21
8.140808
 31
0.0
  0
LINE
  5
3A2
100
AcDbEntity
  8
0
370
     0
  6
Continuous
 62
     7
100
AcDbLine
 10
79.316816
 20
8.140808
 30
0.0
 11
97.496752
 21
8.140808
 31
0.0
  0
LINE
  5
3A3
100
AcDbEntity
  8
0
370
     0
  6
Continuous
 62
     7
100
AcDbLine
 10
97.496752
 20
8.140808
 30
0.0
 11
97.496752
 21
4.140808
 31
0.0
  0
LINE
  5
3A4
100
AcDbEntity
  8
0
370
     0
  6
Continuous
 62
     7
100
AcDbLine
 10
97.496752
 20
4.140808
 30
0.0
 11
128.368341
 21
4.140808
 31
0.0
  0
POLYLINE
  5
3A5
100
AcDbEntity
  8
0
370
     0
  6
Continuous
 62
     7
100
AcDb2dPolyline
 66
     1
 10
0.0
 20
0.0
 30
0.0
 70
   128
  0
VERTEX
  5
3A6
100
AcDbEntity
  8
0
  6
Continuous
 62
     7
100
AcDbVertex
100
AcDb2dVertex
 10
128.368341
 20
4.140808
 30
0.0
  0
VERTEX
  5
3A7
100
AcDbEntity
  8
0
  6
Continuous
 62
     7
100
AcDbVertex
100
AcDb2dVertex
 10
128.368341
 20
-10.859192
 30
0.0
  0
VERTEX
  5
3A8
100
AcDbEntity
  8
0
  6
Continuous
 62
     7
100
AcDbVertex
100
AcDb2dVertex
 10
97.496752
 20
-10.859192
 30
0.0
  0
VERTEX
  5
3A9
100
AcDbEntity
  8
0
  6
Continuous
 62
     7
100
AcDbVertex
100
AcDb2dVertex
 10
97.496752
 20
-14.859192
 30
0.0
  0
VERTEX
  5
3AA
100
AcDbEntity
  8
0
  6
Continuous
 62
     7
100
AcDbVertex
100
AcDb2dVertex
 10
79.316816
 20
-14.859192
 30
0.0
  0
VERTEX
  5
3AB
100
AcDbEntity
  8
0
  6
Continuous
 62
     7
100
AcDbVertex
100
AcDb2dVertex
 10
79.316816
 20
-10.859192
 30
0.0
  0
VERTEX
  5
3AC
100
AcDbEntity
  8
0
  6
Continuous
 62
     7
100
AcDbVertex
100
AcDb2dVertex
 10
66.968181
 20
-10.859192
 30
0.0
  0
VERTEX
  5
3AD
100
AcDbEntity
  8
0
  6
Continuous
 62
     7
100
AcDbVertex
100
AcDb2dVertex
 10
66.968181
 20
-14.859192
 30
0.0
  0
VERTEX
  5
3AE
100
AcDbEntity
  8
0
  6
Continuous
 62
     7
100
AcDbVertex
100
AcDb2dVertex
 10
43.985998
 20
-14.859192
 30
0.0
  0
VERTEX
  5
3AF
100
AcDbEntity
  8
0
  6
Continuous
 62
     7
100
AcDbVertex
100
AcDb2dVertex
 10
43.985998
 20
-10.859192
 30
0.0
  0
VERTEX
  5
3B0
100
AcDbEntity
  8
0
  6
Continuous
 62
     7
100
AcDbVertex
100
AcDb2dVertex
 10
15.172515
 20
-10.859192
 30
0.0
  0
VERTEX
  5
3B1
100
AcDbEntity
  8
0
  6
Continuous
 62
     7
100
AcDbVertex
100
AcDb2dVertex
 10
15.172515
 20
4.140808
 30
0.0
  0
SEQEND
  5
3B2
100
AcDbEntity
  8
0
  6
Continuous
 62
     7
  0
LINE
  5
3B3
100
AcDbEntity
  8
Calque 1
 62
     7
100
AcDbLine
 10
206.305496
 20
5.423345
 30
0.0
 11
238.137269
 21
23.480843
 31
0.0
  0
LINE
  5
3B4
100
AcDbEntity
  8
Calque 1
 62
     7
100
AcDbLine
 10
238.137269
 20
23.480843
 30
0.0
 11
243.390191
 21
26.600754
 31
0.0
  0
LINE
  5
3B5
100
AcDbEntity
  8
Calque 1
 62
     7
100
AcDbLine
 10
243.390191
 20
26.600754
 30
0.0
 11
243.455833
 21
29.118304
 31
0.0
  0
LINE
  5
3B6
100
AcDbEntity
  8
Calque 1
 62
     7
100
AcDbLine
 10
243.455833
 20
29.118304
 30
0.0
 11
243.199881
 21
34.869288
 31
0.0
  0
LINE
  5
3B7
100
AcDbEntity
  8
Calque 1
 62
     7
100
AcDbLine
 10
243.199881
 20
34.869288
 30
0.0
 11
242.98411
 21
38.595332
 31
0.0
  0
LINE
  5
3B8
100
AcDbEntity
  8
Calque 1
 62
     7
100
AcDbLine
 10
242.98411
 20
38.595332
 30
0.0
 11
242.791517
 21
40.941034
 31
0.0
  0
LINE
  5
3B9
100
AcDbEntity
  8
Calque 1
 62
     7
100
AcDbLine
 10
242.791517
 20
40.941034
 30
0.0
 11
242.686617
 21
41.733035
 31
0.0
  0
LINE
  5
3BA
100
AcDbEntity
  8
Calque 1
 62
     7
100
AcDbLine
 10
242.686617
 20
41.733035
 30
0.0
 11
239.333314
 21
39.98344
 31
0.0
  0
LINE
  5
3BB
100
AcDbEntity
  8
Calque 1
 62
     7
100
AcDbLine
 10
239.333314
 20
39.98344
 30
0.0
 11
235.980014
 21
38.233846
 31
0.0
  0
LINE
  5
3BC
100
AcDbEntity
  8
Calque 1
 62
     7
100
AcDbLine
 10
235.980014
 20
38.233846
 30
0.0
 11
235.831845
 21
36.545921
 31
0.0
  0
LINE
  5
3BD
100
AcDbEntity
  8
Calque 1
 62
     7
100
AcDbLine
 10
235.831845
 20
36.545921
 30
0.0
 11
235.683676
 21
34.857998
 31
0.0
  0
LINE
  5
3BE
100
AcDbEntity
  8
Calque 1
 62
     7
100
AcDbLine
 10
235.683676
 20
34.857998
 30
0.0
 11
233.450798
 21
33.647199
 31
0.0
  0
LINE
  5
3BF
100
AcDbEntity
  8
Calque 1
 62
     7
100
AcDbLine
 10
233.450798
 20
33.647199
 30
0.0
 11
227.862424
 21
30.4462
 31
0.0
  0
LINE
  5
3C0
100
AcDbEntity
  8
Calque 1
 62
     7
100
AcDbLine
 10
227.862424
 20
30.4462
 30
0.0
 11
224.506933
 21
28.455987
 31
0.0
  0
LINE
  5
3C1
100
AcDbEntity
  8
Calque 1
 62
     7
100
AcDbLine
 10
224.506933
 20
28.455987
 30
0.0
 11
224.565578
 21
29.89092
 31
0.0
  0
LINE
  5
3C2
100
AcDbEntity
  8
Calque 1
 62
     7
100
AcDbLine
 10
224.565578
 20
29.89092
 30
0.0
 11
224.604866
 21
32.355915
 31
0.0
  0
LINE
  5
3C3
100
AcDbEntity
  8
Calque 1
 62
     7
100
AcDbLine
 10
224.604866
 20
32.355915
 30
0.0
 11
224.650743
 21
33.115281
 31
0.0
  0
LINE
  5
3C4
100
AcDbEntity
  8
Calque 1
 62
     7
100
AcDbLine
 10
224.650743
 20
33.115281
 30
0.0
 11
224.788227
 21
33.49452
 31
0.0
  0
LINE
  5
3C5
100
AcDbEntity
  8
Calque 1
 62
     7
100
AcDbLine
 10
224.788227
 20
33.49452
 30
0.0
 11
224.859478
 21
33.848605
 31
0.0
  0
LINE
  5
3C6
100
AcDbEntity
  8
Calque 1
 62
     7
100
AcDbLine
 10
224.859478
 20
33.848605
 30
0.0
 11
224.838878
 21
36.398626
 31
0.0
  0
LINE
  5
3C7
100
AcDbEntity
  8
Calque 1
 62
     7
100
AcDbLine
 10
224.838878
 20
36.398626
 30
0.0
 11
224.949743
 21
38.703118
 31
0.0
  0
LINE
  5
3C8
100
AcDbEntity
  8
Calque 1
 62
     7
100
AcDbLine
 10
224.949743
 20
38.703118
 30
0.0
 11
230.544447
 21
41.736243
 31
0.0
  0
LINE
  5
3C9
100
AcDbEntity
  8
Calque 1
 62
     7
100
AcDbLine
 10
230.544447
 20
41.736243
 30
0.0
 11
239.676577
 21
46.831959
 31
0.0
  0
LINE
  5
3CA
100
AcDbEntity
  8
Calque 1
 62
     7
100
AcDbLine
 10
239.676577
 20
46.831959
 30
0.0
 11
235.771484
 21
49.874023
 31
0.0
  0
LINE
  5
3CB
100
AcDbEntity
  8
Calque 1
 62
     7
100
AcDbLine
 10
235.771484
 20
49.874023
 30
0.0
 11
234.047962
 21
51.352175
 31
0.0
  0
LINE
  5
3CC
100
AcDbEntity
  8
Calque 1
 62
     7
100
AcDbLine
 10
234.047962
 20
51.352175
 30
0.0
 11
233.08846
 21
52.007112
 31
0.0
  0
LINE
  5
3CD
100
AcDbEntity
  8
Calque 1
 62
     7
100
AcDbLine
 10
233.08846
 20
52.007112
 30
0.0
 11
232.295028
 21
52.365182
 31
0.0
  0
LINE
  5
3CE
100
AcDbEntity
  8
Calque 1
 62
     7
100
AcDbLine
 10
232.295028
 20
52.365182
 30
0.0
 11
226.024987
 21
48.620974
 31
0.0
  0
LINE
  5
3CF
100
AcDbEntity
  8
Calque 1
 62
     7
100
AcDbLine
 10
226.024987
 20
48.620974
 30
0.0
 11
217.68867
 21
43.77469
 31
0.0
  0
LINE
  5
3D0
100
AcDbEntity
  8
Calque 1
 62
     7
100
AcDbLine
 10
217.68867
 20
43.77469
 30
0.0
 11
215.917746
 21
42.705764
 31
0.0
  0
LINE
  5
3D1
100
AcDbEntity
  8
Calque 1
 62
     7
100
AcDbLine
 10
215.917746
 20
42.705764
 30
0.0
 11
215.577999
 21
42.290995
 31
0.0
  0
LINE
  5
3D2
100
AcDbEntity
  8
Calque 1
 62
     7
100
AcDbLine
 10
215.577999
 20
42.290995
 30
0.0
 11
215.39684
 21
41.777153
 31
0.0
  0
LINE
  5
3D3
100
AcDbEntity
  8
Calque 1
 62
     7
100
AcDbLine
 10
215.39684
 20
41.777153
 30
0.0
 11
214.761381
 21
38.370021
 31
0.0
  0
LINE
  5
3D4
100
AcDbEntity
  8
Calque 1
 62
     7
100
AcDbLine
 10
214.761381
 20
38.370021
 30
0.0
 11
214.478264
 21
36.686156
 31
0.0
  0
LINE
  5
3D5
100
AcDbEntity
  8
Calque 1
 62
     7
100
AcDbLine
 10
214.478264
 20
36.686156
 30
0.0
 11
214.300499
 21
35.279294
 31
0.0
  0
LINE
  5
3D6
100
AcDbEntity
  8
Calque 1
 62
     7
100
AcDbLine
 10
214.300499
 20
35.279294
 30
0.0
 11
214.261838
 21
34.358725
 31
0.0
  0
LINE
  5
3D7
100
AcDbEntity
  8
Calque 1
 62
     7
100
AcDbLine
 10
214.261838
 20
34.358725
 30
0.0
 11
209.733943
 21
31.679724
 31
0.0
  0
LINE
  5
3D8
100
AcDbEntity
  8
Calque 1
 62
     7
100
AcDbLine
 10
209.733943
 20
31.679724
 30
0.0
 11
199.388303
 21
25.489379
 31
0.0
  0
LINE
  5
3D9
100
AcDbEntity
  8
Calque 1
 62
     7
100
AcDbLine
 10
199.388303
 20
25.489379
 30
0.0
 11
198.437303
 21
24.690545
 31
0.0
  0
LINE
  5
3DA
100
AcDbEntity
  8
Calque 1
 62
     7
100
AcDbLine
 10
198.437303
 20
24.690545
 30
0.0
 11
198.443826
 21
24.190808
 31
0.0
  0
LINE
  5
3DB
100
AcDbEntity
  8
Calque 1
 62
     7
100
AcDbLine
 10
198.443826
 20
24.190808
 30
0.0
 11
198.580654
 21
22.423316
 31
0.0
  0
LINE
  5
3DC
100
AcDbEntity
  8
Calque 1
 62
     7
100
AcDbLine
 10
198.580654
 20
22.423316
 30
0.0
 11
198.614661
 21
21.853701
 31
0.0
  0
LINE
  5
3DD
100
AcDbEntity
  8
Calque 1
 62
     7
100
AcDbLine
 10
198.614661
 20
21.853701
 30
0.0
 11
198.478284
 21
21.470284
 31
0.0
  0
LINE
  5
3DE
100
AcDbEntity
  8
Calque 1
 62
     7
100
AcDbLine
 10
198.478284
 20
21.470284
 30
0.0
 11
197.237933
 21
20.66395
 31
0.0
  0
LINE
  5
3DF
100
AcDbEntity
  8
Calque 1
 62
     7
100
AcDbLine
 10
197.237933
 20
20.66395
 30
0.0
 11
195.913895
 21
20.091551
 31
0.0
  0
LINE
  5
3E0
100
AcDbEntity
  8
Calque 1
 62
     7
100
AcDbLine
 10
195.913895
 20
20.091551
 30
0.0
 11
195.46232
 21
20.069413
 31
0.0
  0
LINE
  5
3E1
100
AcDbEntity
  8
Calque 1
 62
     7
100
AcDbLine
 10
195.46232
 20
20.069413
 30
0.0
 11
195.016795
 21
20.194972
 31
0.0
  0
LINE
  5
3E2
100
AcDbEntity
  8
Calque 1
 62
     7
100
AcDbLine
 10
195.016795
 20
20.194972
 30
0.0
 11
194.345085
 21
20.657334
 31
0.0
  0
LINE
  5
3E3
100
AcDbEntity
  8
Calque 1
 62
     7
100
AcDbLine
 10
194.345085
 20
20.657334
 30
0.0
 11
193.770808
 21
21.416829
 31
0.0
  0
LINE
  5
3E4
100
AcDbEntity
  8
Calque 1
 62
     7
100
AcDbLine
 10
193.770808
 20
21.416829
 30
0.0
 11
193.345518
 21
22.384376
 31
0.0
  0
LINE
  5
3E5
100
AcDbEntity
  8
Calque 1
 62
     7
100
AcDbLine
 10
193.345518
 20
22.384376
 30
0.0
 11
193.120775
 21
23.470894
 31
0.0
  0
LINE
  5
3E6
100
AcDbEntity
  8
Calque 1
 62
     7
100
AcDbLine
 10
193.120775
 20
23.470894
 30
0.0
 11
192.960787
 21
24.455025
 31
0.0
  0
LINE
  5
3E7
100
AcDbEntity
  8
Calque 1
 62
     7
100
AcDbLine
 10
192.960787
 20
24.455025
 30
0.0
 11
192.621932
 21
25.173027
 31
0.0
  0
LINE
  5
3E8
100
AcDbEntity
  8
Calque 1
 62
     7
100
AcDbLine
 10
192.621932
 20
25.173027
 30
0.0
 11
191.977038
 21
25.798584
 31
0.0
  0
LINE
  5
3E9
100
AcDbEntity
  8
Calque 1
 62
     7
100
AcDbLine
 10
191.977038
 20
25.798584
 30
0.0
 11
190.898928
 21
26.505384
 31
0.0
  0
LINE
  5
3EA
100
AcDbEntity
  8
Calque 1
 62
     7
100
AcDbLine
 10
190.898928
 20
26.505384
 30
0.0
 11
183.06174
 21
31.321015
 31
0.0
  0
LINE
  5
3EB
100
AcDbEntity
  8
Calque 1
 62
     7
100
AcDbLine
 10
183.06174
 20
31.321015
 30
0.0
 11
179.794585
 21
33.327761
 31
0.0
  0
LINE
  5
3EC
100
AcDbEntity
  8
Calque 1
 62
     7
100
AcDbLine
 10
179.794585
 20
33.327761
 30
0.0
 11
177.622163
 21
34.778979
 31
0.0
  0
LINE
  5
3ED
100
AcDbEntity
  8
Calque 1
 62
     7
100
AcDbLine
 10
177.622163
 20
34.778979
 30
0.0
 11
177.266773
 21
34.994304
 31
0.0
  0
LINE
  5
3EE
100
AcDbEntity
  8
Calque 1
 62
     7
100
AcDbLine
 10
177.266773
 20
34.994304
 30
0.0
 11
175.924954
 21
35.706669
 31
0.0
  0
LINE
  5
3EF
100
AcDbEntity
  8
Calque 1
 62
     7
100
AcDbLine
 10
175.924954
 20
35.706669
 30
0.0
 11
174.812934
 21
36.701396
 31
0.0
  0
LINE
  5
3F0
100
AcDbEntity
  8
Calque 1
 62
     7
100
AcDbLine
 10
174.812934
 20
36.701396
 30
0.0
 11
173.697222
 21
38.515506
 31
0.0
  0
LINE
  5
3F1
100
AcDbEntity
  8
Calque 1
 62
     7
100
AcDbLine
 10
173.697222
 20
38.515506
 30
0.0
 11
172.419474
 21
40.544606
 31
0.0
  0
LINE
  5
3F2
100
AcDbEntity
  8
Calque 1
 62
     7
100
AcDbLine
 10
172.419474
 20
40.544606
 30
0.0
 11
170.9229
 21
42.201578
 31
0.0
  0
LINE
  5
3F3
100
AcDbEntity
  8
Calque 1
 62
     7
100
AcDbLine
 10
170.9229
 20
42.201578
 30
0.0
 11
169.080482
 21
43.602714
 31
0.0
  0
LINE
  5
3F4
100
AcDbEntity
  8
Calque 1
 62
     7
100
AcDbLine
 10
169.080482
 20
43.602714
 30
0.0
 11
166.765207
 21
44.864307
 31
0.0
  0
LINE
  5
3F5
100
AcDbEntity
  8
Calque 1
 62
     7
100
AcDbLine
 10
166.765207
 20
44.864307
 30
0.0
 11
164.965511
 21
45.587294
 31
0.0
  0
LINE
  5
3F6
100
AcDbEntity
  8
Calque 1
 62
     7
100
AcDbLine
 10
164.965511
 20
45.587294
 30
0.0
 11
163.20118
 21
45.961101
 31
0.0
  0
LINE
  5
3F7
100
AcDbEntity
  8
Calque 1
 62
     7
100
AcDbLine
 10
163.20118
 20
45.961101
 30
0.0
 11
161.177056
 21
46.019391
 31
0.0
  0
LINE
  5
3F8
100
AcDbEntity
  8
Calque 1
 62
     7
100
AcDbLine
 10
161.177056
 20
46.019391
 30
0.0
 11
158.597982
 21
45.795825
 31
0.0
  0
LINE
  5
3F9
100
AcDbEntity
  8
Calque 1
 62
     7
100
AcDbLine
 10
158.597982
 20
45.795825
 30
0.0
 11
156.742021
 21
45.172475
 31
0.0
  0
LINE
  5
3FA
100
AcDbEntity
  8
Calque 1
 62
     7
100
AcDbLine
 10
156.742021
 20
45.172475
 30
0.0
 11
154.212423
 21
43.9091
 31
0.0
  0
LINE
  5
3FB
100
AcDbEntity
  8
Calque 1
 62
     7
100
AcDbLine
 10
154.212423
 20
43.9091
 30
0.0
 11
151.852811
 21
42.471712
 31
0.0
  0
LINE
  5
3FC
100
AcDbEntity
  8
Calque 1
 62
     7
100
AcDbLine
 10
151.852811
 20
42.471712
 30
0.0
 11
150.506808
 21
41.326321
 31
0.0
  0
LINE
  5
3FD
100
AcDbEntity
  8
Calque 1
 62
     7
100
AcDbLine
 10
150.506808
 20
41.326321
 30
0.0
 11
150.141169
 21
40.636855
 31
0.0
  0
LINE
  5
3FE
100
AcDbEntity
  8
Calque 1
 62
     7
100
AcDbLine
 10
150.141169
 20
40.636855
 30
0.0
 11
150.069311
 21
40.200262
 31
0.0
  0
LINE
  5
3FF
100
AcDbEntity
  8
Calque 1
 62
     7
100
AcDbLine
 10
150.069311
 20
40.200262
 30
0.0
 11
153.097162
 21
37.954471
 31
0.0
  0
LINE
  5
400
100
AcDbEntity
  8
Calque 1
 62
     7
100
AcDbLine
 10
153.097162
 20
37.954471
 30
0.0
 11
157.695333
 21
34.872192
 31
0.0
  0
LINE
  5
401
100
AcDbEntity
  8
Calque 1
 62
     7
100
AcDbLine
 10
157.695333
 20
34.872192
 30
0.0
 11
158.79355
 21
34.273189
 31
0.0
  0
LINE
  5
402
100
AcDbEntity
  8
Calque 1
 62
     7
100
AcDbLine
 10
158.79355
 20
34.273189
 30
0.0
 11
159.498074
 21
34.035531
 31
0.0
  0
LINE
  5
403
100
AcDbEntity
  8
Calque 1
 62
     7
100
AcDbLine
 10
159.498074
 20
34.035531
 30
0.0
 11
161.055003
 21
34.154746
 31
0.0
  0
LINE
  5
404
100
AcDbEntity
  8
Calque 1
 62
     7
100
AcDbLine
 10
161.055003
 20
34.154746
 30
0.0
 11
162.034625
 21
34.080021
 31
0.0
  0
LINE
  5
405
100
AcDbEntity
  8
Calque 1
 62
     7
100
AcDbLine
 10
162.034625
 20
34.080021
 30
0.0
 11
162.927205
 21
33.725607
 31
0.0
  0
LINE
  5
406
100
AcDbEntity
  8
Calque 1
 62
     7
100
AcDbLine
 10
162.927205
 20
33.725607
 30
0.0
 11
163.621747
 21
33.156116
 31
0.0
  0
LINE
  5
407
100
AcDbEntity
  8
Calque 1
 62
     7
100
AcDbLine
 10
163.621747
 20
33.156116
 30
0.0
 11
164.007256
 21
32.436166
 31
0.0
  0
LINE
  5
408
100
AcDbEntity
  8
Calque 1
 62
     7
100
AcDbLine
 10
164.007256
 20
32.436166
 30
0.0
 11
164.035975
 21
31.617556
 31
0.0
  0
LINE
  5
409
100
AcDbEntity
  8
Calque 1
 62
     7
100
AcDbLine
 10
164.035975
 20
31.617556
 30
0.0
 11
163.863367
 21
30.613175
 31
0.0
  0
LINE
  5
40A
100
AcDbEntity
  8
Calque 1
 62
     7
100
AcDbLine
 10
163.863367
 20
30.613175
 30
0.0
 11
163.405744
 21
29.590722
 31
0.0
  0
LINE
  5
40B
100
AcDbEntity
  8
Calque 1
 62
     7
100
AcDbLine
 10
163.405744
 20
29.590722
 30
0.0
 11
162.43598
 21
28.981148
 31
0.0
  0
LINE
  5
40C
100
AcDbEntity
  8
Calque 1
 62
     7
100
AcDbLine
 10
162.43598
 20
28.981148
 30
0.0
 11
161.341379
 21
28.677688
 31
0.0
  0
LINE
  5
40D
100
AcDbEntity
  8
Calque 1
 62
     7
100
AcDbLine
 10
161.341379
 20
28.677688
 30
0.0
 11
160.303979
 21
29.027106
 31
0.0
  0
LINE
  5
40E
100
AcDbEntity
  8
Calque 1
 62
     7
100
AcDbLine
 10
160.303979
 20
29.027106
 30
0.0
 11
159.509337
 21
29.587328
 31
0.0
  0
LINE
  5
40F
100
AcDbEntity
  8
Calque 1
 62
     7
100
AcDbLine
 10
159.509337
 20
29.587328
 30
0.0
 11
158.928513
 21
30.287374
 31
0.0
  0
LINE
  5
410
100
AcDbEntity
  8
Calque 1
 62
     7
100
AcDbLine
 10
158.928513
 20
30.287374
 30
0.0
 11
158.594766
 21
31.073207
 31
0.0
  0
LINE
  5
411
100
AcDbEntity
  8
Calque 1
 62
     7
100
AcDbLine
 10
158.594766
 20
31.073207
 30
0.0
 11
158.541355
 21
31.890787
 31
0.0
  0
LINE
  5
412
100
AcDbEntity
  8
Calque 1
 62
     7
100
AcDbLine
 10
158.541355
 20
31.890787
 30
0.0
 11
158.566558
 21
32.406179
 31
0.0
  0
LINE
  5
413
100
AcDbEntity
  8
Calque 1
 62
     7
100
AcDbLine
 10
158.566558
 20
32.406179
 30
0.0
 11
158.246839
 21
32.871067
 31
0.0
  0
LINE
  5
414
100
AcDbEntity
  8
Calque 1
 62
     7
100
AcDbLine
 10
158.246839
 20
32.871067
 30
0.0
 11
155.133444
 21
34.934862
 31
0.0
  0
LINE
  5
415
100
AcDbEntity
  8
Calque 1
 62
     7
100
AcDbLine
 10
155.133444
 20
34.934862
 30
0.0
 11
151.562091
 21
37.190766
 31
0.0
  0
LINE
  5
416
100
AcDbEntity
  8
Calque 1
 62
     7
100
AcDbLine
 10
151.562091
 20
37.190766
 30
0.0
 11
149.206507
 21
38.578838
 31
0.0
  0
LINE
  5
417
100
AcDbEntity
  8
Calque 1
 62
     7
100
AcDbLine
 10
149.206507
 20
38.578838
 30
0.0
 11
148.830164
 21
38.487145
 31
0.0
  0
LINE
  5
418
100
AcDbEntity
  8
Calque 1
 62
     7
100
AcDbLine
 10
148.830164
 20
38.487145
 30
0.0
 11
148.493577
 21
38.002445
 31
0.0
  0
LINE
  5
419
100
AcDbEntity
  8
Calque 1
 62
     7
100
AcDbLine
 10
148.493577
 20
38.002445
 30
0.0
 11
147.520739
 21
35.719039
 31
0.0
  0
LINE
  5
41A
100
AcDbEntity
  8
Calque 1
 62
     7
100
AcDbLine
 10
147.520739
 20
35.719039
 30
0.0
 11
147.160205
 21
34.481371
 31
0.0
  0
LINE
  5
41B
100
AcDbEntity
  8
Calque 1
 62
     7
100
AcDbLine
 10
147.160205
 20
34.481371
 30
0.0
 11
147.091791
 21
33.803389
 31
0.0
  0
LINE
  5
41C
100
AcDbEntity
  8
Calque 1
 62
     7
100
AcDbLine
 10
147.091791
 20
33.803389
 30
0.0
 11
147.033116
 21
33.077002
 31
0.0
  0
LINE
  5
41D
100
AcDbEntity
  8
Calque 1
 62
     7
100
AcDbLine
 10
147.033116
 20
33.077002
 30
0.0
 11
146.894296
 21
31.899473
 31
0.0
  0
LINE
  5
41E
100
AcDbEntity
  8
Calque 1
 62
     7
100
AcDbLine
 10
146.921977
 20
31.231446
 30
0.0
 11
146.962488
 21
30.253817
 31
0.0
  0
LINE
  5
41F
100
AcDbEntity
  8
Calque 1
 62
     7
100
AcDbLine
 10
146.962488
 20
30.253817
 30
0.0
 11
147.207704
 21
28.468418
 31
0.0
  0
LINE
  5
420
100
AcDbEntity
  8
Calque 1
 62
     7
100
AcDbLine
 10
147.207704
 20
28.468418
 30
0.0
 11
147.599947
 21
26.87166
 31
0.0
  0
LINE
  5
421
100
AcDbEntity
  8
Calque 1
 62
     7
100
AcDbLine
 10
147.599947
 20
26.87166
 30
0.0
 11
148.633198
 21
24.637637
 31
0.0
  0
LINE
  5
422
100
AcDbEntity
  8
Calque 1
 62
     7
100
AcDbLine
 10
148.633198
 20
24.637637
 30
0.0
 11
150.17744
 21
22.466072
 31
0.0
  0
LINE
  5
423
100
AcDbEntity
  8
Calque 1
 62
     7
100
AcDbLine
 10
150.17744
 20
22.466072
 30
0.0
 11
152.053054
 21
20.570585
 31
0.0
  0
LINE
  5
424
100
AcDbEntity
  8
Calque 1
 62
     7
100
AcDbLine
 10
152.053054
 20
20.570585
 30
0.0
 11
154.080422
 21
19.1648
 31
0.0
  0
LINE
  5
425
100
AcDbEntity
  8
Calque 1
 62
     7
100
AcDbLine
 10
154.080422
 20
19.1648
 30
0.0
 11
156.331786
 21
18.25983
 31
0.0
  0
LINE
  5
426
100
AcDbEntity
  8
Calque 1
 62
     7
100
AcDbLine
 10
156.331786
 20
18.25983
 30
0.0
 11
159.012545
 21
17.559822
 31
0.0
  0
LINE
  5
427
100
AcDbEntity
  8
Calque 1
 62
     7
100
AcDbLine
 10
159.012545
 20
17.559822
 30
0.0
 11
161.400419
 21
17.21383
 31
0.0
  0
LINE
  5
428
100
AcDbEntity
  8
Calque 1
 62
     7
100
AcDbLine
 10
161.400419
 20
17.21383
 30
0.0
 11
162.258812
 21
17.22017
 31
0.0
  0
LINE
  5
429
100
AcDbEntity
  8
Calque 1
 62
     7
100
AcDbLine
 10
162.258812
 20
17.22017
 30
0.0
 11
162.773128
 21
17.37091
 31
0.0
  0
LINE
  5
42A
100
AcDbEntity
  8
Calque 1
 62
     7
100
AcDbLine
 10
162.773128
 20
17.37091
 30
0.0
 11
163.026461
 21
17.338897
 31
0.0
  0
LINE
  5
42B
100
AcDbEntity
  8
Calque 1
 62
     7
100
AcDbLine
 10
163.026461
 20
17.338897
 30
0.0
 11
163.312848
 21
17.02507
 31
0.0
  0
LINE
  5
42C
100
AcDbEntity
  8
Calque 1
 62
     7
100
AcDbLine
 10
163.312848
 20
17.02507
 30
0.0
 11
164.511029
 21
15.967846
 31
0.0
  0
LINE
  5
42D
100
AcDbEntity
  8
Calque 1
 62
     7
100
AcDbLine
 10
164.511029
 20
15.967846
 30
0.0
 11
167.639555
 21
13.939704
 31
0.0
  0
LINE
  5
42E
100
AcDbEntity
  8
Calque 1
 62
     7
100
AcDbLine
 10
167.639555
 20
13.939704
 30
0.0
 11
171.762411
 21
11.345254
 31
0.0
  0
LINE
  5
42F
100
AcDbEntity
  8
Calque 1
 62
     7
100
AcDbLine
 10
171.762411
 20
11.345254
 30
0.0
 11
174.068582
 21
9.85894
 31
0.0
  0
LINE
  5
430
100
AcDbEntity
  8
Calque 1
 62
     7
100
AcDbLine
 10
174.068582
 20
9.85894
 30
0.0
 11
176.838657
 21
8.140821
 31
0.0
  0
LINE
  5
431
100
AcDbEntity
  8
Calque 1
 62
     7
100
AcDbLine
 10
176.838657
 20
8.140821
 30
0.0
 11
181.363267
 21
5.281285
 31
0.0
  0
LINE
  5
432
100
AcDbEntity
  8
Calque 1
 62
     7
100
AcDbLine
 10
181.363267
 20
5.281285
 30
0.0
 11
182.623986
 21
4.515727
 31
0.0
  0
LINE
  5
433
100
AcDbEntity
  8
Calque 1
 62
     7
100
AcDbLine
 10
182.623986
 20
4.515727
 30
0.0
 11
184.279318
 21
3.48126
 31
0.0
  0
LINE
  5
434
100
AcDbEntity
  8
Calque 1
 62
     7
100
AcDbLine
 10
184.279318
 20
3.48126
 30
0.0
 11
185.530469
 21
2.682822
 31
0.0
  0
LINE
  5
435
100
AcDbEntity
  8
Calque 1
 62
     7
100
AcDbLine
 10
185.530469
 20
2.682822
 30
0.0
 11
186.37256
 21
2.41754
 31
0.0
  0
LINE
  5
436
100
AcDbEntity
  8
Calque 1
 62
     7
100
AcDbLine
 10
186.37256
 20
2.41754
 30
0.0
 11
187.216574
 21
2.686251
 31
0.0
  0
LINE
  5
437
100
AcDbEntity
  8
Calque 1
 62
     7
100
AcDbLine
 10
187.216574
 20
2.686251
 30
0.0
 11
188.473497
 21
3.48979
 31
0.0
  0
LINE
  5
438
100
AcDbEntity
  8
Calque 1
 62
     7
100
AcDbLine
 10
188.473497
 20
3.48979
 30
0.0
 11
190.597433
 21
4.727738
 31
0.0
  0
LINE
  5
439
100
AcDbEntity
  8
Calque 1
 62
     7
100
AcDbLine
 10
190.597433
 20
4.727738
 30
0.0
 11
192.190946
 21
3.773154
 31
0.0
  0
LINE
  5
43A
100
AcDbEntity
  8
Calque 1
 62
     7
100
AcDbLine
 10
192.190946
 20
3.773154
 30
0.0
 11
193.76339
 21
2.796995
 31
0.0
  0
LINE
  5
43B
100
AcDbEntity
  8
Calque 1
 62
     7
100
AcDbLine
 10
193.76339
 20
2.796995
 30
0.0
 11
195.060255
 21
2.210856
 31
0.0
  0
LINE
  5
43C
100
AcDbEntity
  8
Calque 1
 62
     7
100
AcDbLine
 10
195.060255
 20
2.210856
 30
0.0
 11
196.345677
 21
1.618589
 31
0.0
  0
LINE
  5
43D
100
AcDbEntity
  8
Calque 1
 62
     7
100
AcDbLine
 10
196.345677
 20
1.618589
 30
0.0
 11
196.960598
 21
1.227544
 31
0.0
  0
LINE
  5
43E
100
AcDbEntity
  8
Calque 1
 62
     7
100
AcDbLine
 10
196.960598
 20
1.227544
 30
0.0
 11
197.350624
 21
1.040715
 31
0.0
  0
LINE
  5
43F
100
AcDbEntity
  8
Calque 1
 62
     7
100
AcDbLine
 10
197.350624
 20
1.040715
 30
0.0
 11
197.735396
 21
1.082167
 31
0.0
  0
LINE
  5
440
100
AcDbEntity
  8
Calque 1
 62
     7
100
AcDbLine
 10
197.735396
 20
1.082167
 30
0.0
 11
198.037999
 21
1.163648
 31
0.0
  0
LINE
  5
441
100
AcDbEntity
  8
Calque 1
 62
     7
100
AcDbLine
 10
198.037999
 20
1.163648
 30
0.0
 11
198.230509
 21
1.073082
 31
0.0
  0
LINE
  5
442
100
AcDbEntity
  8
Calque 1
 62
     7
100
AcDbLine
 10
198.230509
 20
1.073082
 30
0.0
 11
198.50791
 21
1.03798
 31
0.0
  0
LINE
  5
443
100
AcDbEntity
  8
Calque 1
 62
     7
100
AcDbLine
 10
198.50791
 20
1.03798
 30
0.0
 11
199.014628
 21
1.252828
 31
0.0
  0
LINE
  5
444
100
AcDbEntity
  8
Calque 1
 62
     7
100
AcDbLine
 10
199.014628
 20
1.252828
 30
0.0
 11
206.305496
 21
5.423345
 31
0.0
  0
LINE
  5
445
100
AcDbEntity
  8
Calque 1
 62
     7
100
AcDbLine
 10
206.305496
 20
5.423345
 30
0.0
 11
206.305496
 21
5.423345
 31
0.0
  0
LINE
  5
446
100
AcDbEntity
  8
0
370
     0
  6
Continuous
 62
     7
100
AcDbLine
 10
145.699162
 20
-12.88612
 30
0.0
 11
145.699162
 21
-9.61124
 31
0.0
  0
LINE
  5
447
100
AcDbEntity
  8
0
370
     0
  6
Continuous
 62
     7
100
AcDbLine
 10
145.699162
 20
-8.88612
 30
0.0
 11
170.949022
 21
-8.88612
 31
0.0
  0
LINE
  5
448
100
AcDbEntity
  8
0
370
     0
  6
Continuous
 62
     7
100
AcDbLine
 10
170.949022
 20
-8.88612
 30
0.0
 11
191.088792
 21
-8.88612
 31
0.0
  0
LINE
  5
449
100
AcDbEntity
  8
0
370
     0
  6
Continuous
 62
     7
100
AcDbLine
 10
191.088792
 20
-8.88612
 30
0.0
 11
191.088792
 21
-12.88612
 31
0.0
  0
LINE
  5
44A
100
AcDbEntity
  8
0
370
     0
  6
Continuous
 62
     7
100
AcDbLine
 10
191.088792
 20
-12.88612
 30
0.0
 11
198.935555
 21
-12.88612
 31
0.0
  0
LINE
  5
44B
100
AcDbEntity
  8
0
370
     0
  6
Continuous
 62
     7
100
AcDbLine
 10
198.935555
 20
-12.88612
 30
0.0
 11
198.935555
 21
-8.88612
 31
0.0
  0
LINE
  5
44C
100
AcDbEntity
  8
0
370
     0
  6
Continuous
 62
     7
100
AcDbLine
 10
214.638376
 20
-8.88612
 30
0.0
 11
214.638376
 21
-12.88612
 31
0.0
  0
LINE
  5
44D
100
AcDbEntity
  8
0
370
     0
  6
Continuous
 62
     7
100
AcDbLine
 10
214.638376
 20
-12.88612
 30
0.0
 11
244.895042
 21
-12.88612
 31
0.0
  0
LINE
  5
44E
100
AcDbEntity
  8
0
370
     0
  6
Continuous
 62
     7
100
AcDbLine
 10
244.895042
 20
-12.88612
 30
0.0
 11
244.895042
 21
-27.88612
 31
0.0
  0
LINE
  5
44F
100
AcDbEntity
  8
0
370
     0
  6
Continuous
 62
     7
100
AcDbLine
 10
191.088792
 20
-27.88612
 30
0.0
 11
191.088792
 21
-31.88612
 31
0.0
  0
LINE
  5
450
100
AcDbEntity
  8
0
370
     0
  6
Continuous
 62
     7
100
AcDbLine
 10
191.088792
 20
-31.88612
 30
0.0
 11
170.949022
 21
-31.88612
 31
0.0
  0
LINE
  5
451
100
AcDbEntity
  8
0
370
     0
  6
Continuous
 62
     7
100
AcDbLine
 10
170.949022
 20
-31.88612
 30
0.0
 11
170.949022
 21
-27.88612
 31
0.0
  0
LINE
  5
452
100
AcDbEntity
  8
0
370
     0
  6
Continuous
 62
     7
100
AcDbLine
 10
170.949022
 20
-27.88612
 30
0.0
 11
145.699162
 21
-27.88612
 31
0.0
  0
LINE
  5
453
100
AcDbEntity
  8
0
370
     0
  6
Continuous
 62
     7
100
AcDbLine
 10
145.699162
 20
-27.88612
 30
0.0
 11
145.699162
 21
-12.88612
 31
0.0
  0
LINE
  5
454
100
AcDbEntity
  8
0
370
     0
  6
Continuous
 62
     7
100
AcDbLine
 10
191.088792
 20
-27.88612
 30
0.0
 11
198.935555
 21
-27.88612
 31
0.0
  0
LINE
  5
455
100
AcDbEntity
  8
0
370
     0
  6
Continuous
 62
     7
100
AcDbLine
 10
198.935555
 20
-27.88612
 30
0.0
 11
198.935555
 21
-31.88612
 31
0.0
  0
LINE
  5
456
100
AcDbEntity
  8
0
370
     0
  6
Continuous
 62
     7
100
AcDbLine
 10
214.638376
 20
-31.88612
 30
0.0
 11
214.638376
 21
-27.88612
 31
0.0
  0
LINE
  5
457
100
AcDbEntity
  8
0
370
     0
  6
Continuous
 62
     7
100
AcDbLine
 10
214.638376
 20
-27.88612
 30
0.0
 11
244.895042
 21
-27.88612
 31
0.0
  0
LINE
  5
458
100
AcDbEntity
  8
0
370
     0
  6
Continuous
 62
     7
100
AcDbLine
 10
198.935555
 20
-8.88612
 30
0.0
 11
214.638376
 21
-8.88612
 31
0.0
  0
LINE
  5
459
100
AcDbEntity
  8
0
370
     0
  6
Continuous
 62
     7
100
AcDbLine
 10
198.935555
 20
-31.88612
 30
0.0
 11
214.638376
 21
-31.88612
 31
0.0
  0
ENDSEC
  0
SECTION
  2
OBJECTS
  0
DICTIONARY
  5
19
100
AcDbDictionary
280
     0
281
     1
  3
ACAD_GROUP
350
1A
  3
ACAD_MLINESTYLE
350
1B
  3
ACAD_LAYOUT
350
1E
  3
ACAD_PLOTSETTINGS
350
22
  3
ACAD_PLOTSTYLENAME
350
1F
  0
DICTIONARY
  5
1A
102
{ACAD_REACTORS
330
19
102
}
100
AcDbDictionary
280
     0
281
     1
  0
DICTIONARY
  5
1B
102
{ACAD_REACTORS
330
19
102
}
100
AcDbDictionary
280
     0
281
     1
  3
Standard
350
1C
  0
MLINESTYLE
  5
1C
100
AcDbMlineStyle
  2
STANDARD
 70
     0
  3

 62
   256
 51
90.0
 52
90.0
 71
     3
 49
5.0
 62
     7
  6
BYLAYER
 49
0.0
 62
     7
  6
BYLAYER
 49
-5.0
 62
     7
  6
BYLAYER
  0
ACDBDICTIONARYWDFLT
  5
1F
102
{ACAD_REACTORS
330
19
102
}
100
AcDbDictionary
281
     1
  3
Normal
350
1D
100
AcDbDictionaryWithDefault
340
1D
  0
ACDBPLACEHOLDER
  5
1D
102
{ACAD_REACTORS
330
1F
102
}
  0
LAYOUT
  5
21
102
{ACAD_REACTORS
330
1E
102
}
100
AcDbPlotSettings
  1

  2

  4

  6

 40
0.0
 41
0.0
 42
0.0
 43
0.0
 44
0.0
 45
0.0
 46
0.0
 47
0.0
 48
0.0
 49
0.0
140
0.0
141
0.0
142
1.0
143
1.0
 70
     0
 72
     0
 73
     0
 74
     0
  7

 75
     0
147
1.0
148
0.0
149
0.0
100
AcDbLayout
  1
Layout1
 70
     0
 71
     0
 10
0.0
 20
0.0
 11
0.0
 21
0.0
 12
0.0
 22
0.0
 32
0.0
 14
0.0
 24
0.0
 34
0.0
 15
0.0
 25
0.0
 35
0.0
146
0.0
 13
0.0
 23
0.0
 33
0.0
 16
0.0
 26
0.0
 36
0.0
 17
0.0
 27
0.0
 37
0.0
 76
     0
330
B
331
0
345
0
346
0
  0
DICTIONARY
  5
1E
102
{ACAD_REACTORS
330
19
102
}
100
AcDbDictionary
280
     0
281
     1
  3
Model
350
45A
  3
_PAPER_SPACE
350
45B
  0
DICTIONARY
  5
22
102
{ACAD_REACTORS
330
19
102
}
100
AcDbDictionary
280
     0
281
     1
  0
LAYOUT
  5
45A
100
AcDbPlotSettings
  1

  2

  4

  6

 40
0.0
 41
0.0
 42
0.0
 43
0.0
 44
0.0
 45
0.0
 46
0.0
 47
0.0
 48
0.0
 49
0.0
140
0.0
141
0.0
142
1.0
143
1.0
 70
     0
 72
     0
 73
     0
 74
     0
  7

 75
     0
147
1.0
148
0.0
149
0.0
100
AcDbLayout
  1
Model
 70
     0
 71
     0
 10
0.0
 20
0.0
 11
0.0
 21
0.0
 12
0.0
 22
0.0
 32
0.0
 14
0.0
 24
0.0
 34
0.0
 15
0.0
 25
0.0
 35
0.0
146
0.0
 13
0.0
 23
0.0
 33
0.0
 16
0.0
 26
0.0
 36
0.0
 17
0.0
 27
0.0
 37
0.0
 76
     0
330
A
331
0
345
0
346
0
  0
LAYOUT
  5
45B
100
AcDbPlotSettings
  1

  2

  4

  6

 40
0.0
 41
0.0
 42
0.0
 43
0.0
 44
12.0
 45
9.0
 46
0.0
 47
0.0
 48
0.0
 49
0.0
140
0.0
141
0.0
142
1.0
143
1.0
 70
     0
 72
     0
 73
     0
 74
     0
  7

 75
     0
147
1.0
148
0.0
149
0.0
100
AcDbLayout
  1
_PAPER_SPACE
 70
     1
 71
     1
 10
0.0
 20
0.0
 11
12.0
 21
9.0
 12
0.0
 22
0.0
 32
0.0
 14
0.0
 24
0.0
 34
0.0
 15
0.0
 25
0.0
 35
0.0
146
0.0
 13
0.0
 23
0.0
 33
0.0
 16
0.0
 26
0.0
 36
0.0
 17
0.0
 27
0.0
 37
0.0
 76
     0
330
B
331
0
345
0
346
0
  0
ENDSEC
  0
EOF
