  0
SECTION
  2
HEADER
  9
$ACADVER
  1
AC1015
  9
$ACADMAINTVER
 70
     6
  9
$DWGCODEPAGE
  3
ANSI_1252
  9
$INSBASE
 10
0.0
 20
0.0
 30
0.0
  9
$EXTMIN
 10
70.853508
 20
170.386078
 30
0.0
  9
$EXTMAX
 10
175.881607
 20
206.703018
 30
0.0
  9
$LIMMIN
 10
62.169521
 20
173.687622
  9
$LIMMAX
 10
192.273972
 20
206.703018
  9
$ORTHOMODE
 70
     0
  9
$REGENMODE
 70
     1
  9
$FILLMODE
 70
     1
  9
$QTEXTMODE
 70
     0
  9
$MIRRTEXT
 70
     1
  9
$LTSCALE
 40
1.0
  9
$ATTMODE
 70
     1
  9
$TEXTSIZE
 40
0.2
  9
$TRACEWID
 40
0.05
  9
$TEXTSTYLE
  7
STANDARD
  9
$CLAYER
  8
0
  9
$CELTYPE
  6
Continuous
  9
$CECOLOR
 62
     7
  9
$CELTSCALE
 40
1.0
  9
$DISPSILH
 70
     0
  9
$DIMSCALE
 40
1.0
  9
$DIMASZ
 40
2.5
  9
$DIMEXO
 40
0.625
  9
$DIMDLI
 40
3.75
  9
$DIMRND
 40
0.0
  9
$DIMDLE
 40
0.0
  9
$DIMEXE
 40
1.25
  9
$DIMTP
 40
0.0
  9
$DIMTM
 40
0.0
  9
$DIMTXT
 40
2.5
  9
$DIMCEN
 40
0.09
  9
$DIMTSZ
 40
0.0
  9
$DIMTOL
 70
     0
  9
$DIMLIM
 70
     0
  9
$DIMTIH
 70
     0
  9
$DIMTOH
 70
     0
  9
$DIMSE1
 70
     0
  9
$DIMSE2
 70
     0
  9
$DIMTAD
 70
     1
  9
$DIMZIN
 70
     8
  9
$DIMBLK
  1

  9
$DIMASO
 70
     0
  9
$DIMSHO
 70
     1
  9
$DIMPOST
  1
<>
  9
$DIMAPOST
  1
<>
  9
$DIMALT
 70
     0
  9
$DIMALTD
 70
     3
  9
$DIMALTF
 40
0.03937
  9
$DIMLFAC
 40
1.0
  9
$DIMTOFL
 70
     1
  9
$DIMTVP
 40
0.0
  9
$DIMTIX
 70
     0
  9
$DIMSOXD
 70
     0
  9
$DIMSAH
 70
     0
  9
$DIMBLK1
  1

  9
$DIMBLK2
  1

  9
$DIMSTYLE
  2
ISO-25
  9
$DIMCLRD
 70
     0
  9
$DIMCLRE
 70
     0
  9
$DIMCLRT
 70
     0
  9
$DIMTFAC
 40
1.0
  9
$DIMGAP
 40
0.625
  9
$DIMJUST
 70
     0
  9
$DIMSD1
 70
     0
  9
$DIMSD2
 70
     0
  9
$DIMTOLJ
 70
     0
  9
$DIMTZIN
 70
     8
  9
$DIMALTZ
 70
     0
  9
$DIMALTTZ
 70
     0
  9
$DIMUPT
 70
     0
  9
$DIMDEC
 70
     2
  9
$DIMTDEC
 70
     2
  9
$DIMALTU
 70
     2
  9
$DIMALTTD
 70
     3
  9
$DIMTXSTY
  7
STANDARD
  9
$DIMAUNIT
 70
     0
  9
$DIMADEC
 70
     2
  9
$DIMALTRND
 40
0.0
  9
$DIMAZIN
 70
     0
  9
$DIMDSEP
 70
     0
  9
$DIMATFIT
 70
     0
  9
$DIMFRAC
 70
     0
  9
$DIMLDRBLK
  1

  9
$DIMLUNIT
 70
     2
  9
$DIMLWD
 70
     0
  9
$DIMLWE
 70
     0
  9
$DIMTMOVE
 70
     0
  9
$LUNITS
 70
     2
  9
$LUPREC
 70
     4
  9
$SKETCHINC
 40
0.1
  9
$FILLETRAD
 40
0.0
  9
$AUNITS
 70
     0
  9
$AUPREC
 70
     0
  9
$MENU
  1
acad
  9
$ELEVATION
 40
0.0
  9
$PELEVATION
 40
0.0
  9
$THICKNESS
 40
0.0
  9
$LIMCHECK
 70
     0
  9
$CHAMFERA
 40
0.0
  9
$CHAMFERB
 40
0.0
  9
$CHAMFERC
 40
0.0
  9
$CHAMFERD
 40
0.0
  9
$SKPOLY
 70
     0
  9
$TDCREATE
 40
0.000000000
  9
$TDUCREATE
 40
0.000000000
  9
$TDUPDATE
 40
0.000000000
  9
$TDUUPDATE
 40
0.000000000
  9
$TDINDWG
 40
0.0000000000
  9
$TDUSRTIMER
 40
0.0000000000
  9
$USRTIMER
 70
     1
  9
$ANGBASE
 50
0.0
  9
$ANGDIR
 70
     0
  9
$PDMODE
 70
     0
  9
$PDSIZE
 40
0.0
  9
$PLINEWID
 40
0.0
  9
$SPLFRAME
 70
     0
  9
$SPLINETYPE
 70
     6
  9
$SPLINESEGS
 70
     8
  9
$HANDSEED
  5
AB
  9
$SURFTAB1
 70
     6
  9
$SURFTAB2
 70
     6
  9
$SURFTYPE
 70
     6
  9
$SURFU
 70
     6
  9
$SURFV
 70
     6
  9
$UCSBASE
  2

  9
$UCSNAME
  2

  9
$UCSORG
 10
0.0
 20
0.0
 30
0.0
  9
$UCSXDIR
 10
1.0
 20
0.0
 30
0.0
  9
$UCSYDIR
 10
0.0
 20
1.0
 30
0.0
  9
$UCSORTHOREF
  2

  9
$UCSORTHOVIEW
 70
     0
  9
$UCSORGTOP
 10
0.0
 20
0.0
 30
0.0
  9
$UCSORGBOTTOM
 10
0.0
 20
0.0
 30
0.0
  9
$UCSORGLEFT
 10
0.0
 20
0.0
 30
0.0
  9
$UCSORGRIGHT
 10
0.0
 20
0.0
 30
0.0
  9
$UCSORGFRONT
 10
0.0
 20
0.0
 30
0.0
  9
$UCSORGBACK
 10
0.0
 20
0.0
 30
0.0
  9
$PUCSBASE
  2

  9
$PUCSNAME
  2

  9
$PUCSORG
 10
0.0
 20
0.0
 30
0.0
  9
$PUCSXDIR
 10
1.0
 20
0.0
 30
0.0
  9
$PUCSYDIR
 10
0.0
 20
1.0
 30
0.0
  9
$PUCSORTHOREF
  2

  9
$PUCSORTHOVIEW
 70
     0
  9
$PUCSORGTOP
 10
0.0
 20
0.0
 30
0.0
  9
$PUCSORGBOTTOM
 10
0.0
 20
0.0
 30
0.0
  9
$PUCSORGLEFT
 10
0.0
 20
0.0
 30
0.0
  9
$PUCSORGRIGHT
 10
0.0
 20
0.0
 30
0.0
  9
$PUCSORGFRONT
 10
0.0
 20
0.0
 30
0.0
  9
$PUCSORGBACK
 10
0.0
 20
0.0
 30
0.0
  9
$USERI1
 70
     0
  9
$USERI2
 70
     0
  9
$USERI3
 70
     0
  9
$USERI4
 70
     0
  9
$USERI5
 70
     0
  9
$USERR1
 40
0.0
  9
$USERR2
 40
0.0
  9
$USERR3
 40
0.0
  9
$USERR4
 40
0.0
  9
$USERR5
 40
0.0
  9
$WORLDVIEW
 70
     1
  9
$SHADEDGE
 70
     3
  9
$SHADEDIF
 70
    70
  9
$TILEMODE
 70
     1
  9
$MAXACTVP
 70
    16
  9
$PINSBASE
 10
0.0
 20
0.0
 30
0.0
  9
$PLIMCHECK
 70
     0
  9
$PEXTMIN
 10
0.0
 20
0.0
 30
0.0
  9
$PEXTMAX
 10
12.0
 20
9.0
 30
0.0
  9
$PLIMMIN
 10
0.0
 20
0.0
  9
$PLIMMAX
 10
12.0
 20
9.0
  9
$UNITMODE
 70
     0
  9
$VISRETAIN
 70
     0
  9
$PLINEGEN
 70
     1
  9
$PSLTSCALE
 70
     0
  9
$TREEDEPTH
 70
  3020
  9
$CMLSTYLE
  2
STANDARD
  9
$CMLJUST
 70
     0
  9
$CMLSCALE
 40
1.0
  9
$PROXYGRAPHICS
 70
     0
  9
$MEASUREMENT
 70
     0
  9
$CELWEIGHT
370
     0
  9
$ENDCAPS
280
     0
  9
$JOINSTYLE
280
     0
  9
$LWDISPLAY
290
     0
  9
$INSUNITS
 70
     0
  9
$HYPERLINKBASE
  1

  9
$XEDIT
290
     1
  9
$CEPSNTYPE
380
     0
  9
$PSTYLEMODE
290
     1
  9
$FINGERPRINTGUID
  2

  9
$VERSIONGUID
  2

  9
$EXTNAMES
290
     1
  9
$PSVPSCALE
 40
0.0
  0
ENDSEC
  0
SECTION
  2
CLASSES
  0
CLASS
  1
LWPOLYLINE
  2
AcDbPolyline
  3
AutoCAD 2000
 90
    32768
280
     0
281
     1
  0
CLASS
  1
IMAGE
  2
AcDbRasterImage
  3
ISM
 90
    32895
280
     0
281
     1
  0
CLASS
  1
OLE2FRAME
  2
AcDbOle2Frame
  3
AutoCAD 2000
 90
    32768
280
     0
281
     1
  0
CLASS
  1
HATCH
  2
AcDbHatch
  3
AutoCAD 2000
 90
    32768
280
     0
281
     1
  0
CLASS
  1
DICTIONARYVAR
  2
AcDbDictionaryVar
  3
AutoCAD 2000
 90
    32768
280
     0
281
     0
  0
CLASS
  1
RASTERVARIABLES
  2
AcDbRasterVariables
  3
ISM
 90
    32768
280
     0
281
     0
  0
CLASS
  1
IMAGEDEF
  2
AcDbRasterImageDef
  3
ISM
 90
    32768
280
     0
281
     0
  0
CLASS
  1
IMAGEDEF_REACTOR
  2
AcDbRasterImageDefReactor
  3
ISM
 90
    32769
280
     0
281
     0
  0
CLASS
  1
IDBUFFER
  2
AcDbIdBuffer
  3
AutoCAD 2000
 90
    32768
280
     0
281
     0
  0
CLASS
  1
SPATIAL_FILTER
  2
AcDbSpatialFilter
  3
AutoCAD 2000
 90
    32768
280
     0
281
     0
  0
CLASS
  1
XRECORD
  2
AcDbXrecord
  3
AutoCAD 2000
 90
    32768
280
     0
281
     0
  0
CLASS
  1
SORTENTSTABLE
  2
AcDbSortentsTable
  3
AutoCAD 2000
 90
    32768
280
     0
281
     0
  0
CLASS
  1
LAYER_INDEX
  2
AcDbLayerIndex
  3
AutoCAD 2000
 90
    32768
280
     0
281
     0
  0
CLASS
  1
SPATIAL_INDEX
  2
AcDbSpatialIndex
  3
AutoCAD 2000
 90
    32768
280
     0
281
     0
  0
CLASS
  1
OBJECT_PTR
  2
CAseDLPNTableRecord
  3
"ASE-LPNTableRecord"
 90
    32769
280
     0
281
     0
  0
CLASS
  1
LAYOUT
  2
AcDbLayout
  3
AutoCAD 2000
 90
        0
280
     0
281
     0
  0
CLASS
  1
PLOTSETTINGS
  2
AcDbPlotSettings
  3
AutoCAD 2000
 90
    32768
280
     0
281
     0
  0
CLASS
  1
ACDBDICTIONARYWDFLT
  2
AcDbDictionaryWithDefault
  3
AutoCAD 2000
 90
        0
280
     0
281
     0
  0
CLASS
  1
ACDBPLACEHOLDER
  2
AcDbPlaceHolder
  3
AutoCAD 2000
 90
        0
280
     0
281
     0
  0
ENDSEC
  0
SECTION
  2
TABLES
  0
TABLE
  2
VPORT
  5
7
100
AcDbSymbolTable
 70
     1
  0
VPORT
  5
15
100
AcDbSymbolTableRecord
100
AcDbViewportTableRecord
  2
*ACTIVE
 70
     0
 10
0.0
 20
0.0
 11
1.0
 21
1.0
 12
0.0
 22
0.0
 13
0.0
 23
0.0
 14
10.0
 24
10.0
 15
10.0
 25
10.0
 16
0.0
 26
0.0
 36
1.0
 17
124.599195
 27
178.559299
 37
1.0
 40
51.432709
 41
2.580198
 42
50.0
 43
0.0
 44
0.0
 50
0.0
 51
0.0
 71
     0
 72
   100
 73
     1
 74
     1
 75
     0
 76
     0
 77
     0
 78
     0
281
     0
 65
     0
110
0.0
120
0.0
130
0.0
111
1.0
121
0.0
131
0.0
112
0.0
122
1.0
132
0.0
345
0
346
0
 79
     0
146
0.0
  0
ENDTAB
  0
TABLE
  2
LTYPE
  5
4
100
AcDbSymbolTable
 70
    15
  0
LTYPE
  5
11
100
AcDbSymbolTableRecord
100
AcDbLinetypeTableRecord
  2
ByBlock
 70
    64
  3

 72
    65
 73
     0
 40
0.0
  0
LTYPE
  5
12
100
AcDbSymbolTableRecord
100
AcDbLinetypeTableRecord
  2
ByLayer
 70
    64
  3

 72
    65
 73
     0
 40
0.0
  0
LTYPE
  5
13
100
AcDbSymbolTableRecord
100
AcDbLinetypeTableRecord
  2
Continuous
 70
    64
  3
Solid line
 72
    65
 73
     0
 40
0.0
  0
LTYPE
  5
24
100
AcDbSymbolTableRecord
100
AcDbLinetypeTableRecord
  2
BORDER
 70
     0
  3
BORDER
 72
    65
 73
     6
 40
1.75
 49
0.5
 74
     0
 49
-0.25
 74
     0
 49
0.5
 74
     0
 49
-0.25
 74
     0
 49
0.0
 74
     0
 49
-0.25
 74
     0
  0
LTYPE
  5
25
100
AcDbSymbolTableRecord
100
AcDbLinetypeTableRecord
  2
CENTER
 70
     0
  3
CENTER
 72
    65
 73
     4
 40
2.0
 49
1.25
 74
     0
 49
-0.25
 74
     0
 49
0.25
 74
     0
 49
-0.25
 74
     0
  0
LTYPE
  5
26
100
AcDbSymbolTableRecord
100
AcDbLinetypeTableRecord
  2
DASHDOT
 70
     0
  3
DASHDOT
 72
    65
 73
     4
 40
1.0
 49
0.5
 74
     0
 49
-0.25
 74
     0
 49
0.0
 74
     0
 49
-0.25
 74
     0
  0
LTYPE
  5
27
100
AcDbSymbolTableRecord
100
AcDbLinetypeTableRecord
  2
DASHED
 70
     0
  3
DASHED
 72
    65
 73
     2
 40
0.75
 49
0.5
 74
     0
 49
-0.25
 74
     0
  0
LTYPE
  5
28
100
AcDbSymbolTableRecord
100
AcDbLinetypeTableRecord
  2
DIVIDE
 70
     0
  3
DIVIDE
 72
    65
 73
     6
 40
1.25
 49
0.5
 74
     0
 49
-0.25
 74
     0
 49
0.0
 74
     0
 49
-0.25
 74
     0
 49
0.0
 74
     0
 49
-0.25
 74
     0
  0
LTYPE
  5
29
100
AcDbSymbolTableRecord
100
AcDbLinetypeTableRecord
  2
DOT
 70
     0
  3
DOT
 72
    65
 73
     2
 40
0.25
 49
0.0
 74
     0
 49
-0.25
 74
     0
  0
LTYPE
  5
2A
100
AcDbSymbolTableRecord
100
AcDbLinetypeTableRecord
  2
HIDDEN
 70
     0
  3
HIDDEN
 72
    65
 73
     2
 40
0.375
 49
0.25
 74
     0
 49
-0.125
 74
     0
  0
LTYPE
  5
2B
100
AcDbSymbolTableRecord
100
AcDbLinetypeTableRecord
  2
PHANTOM
 70
     0
  3
PHANTOM
 72
    65
 73
     6
 40
2.5
 49
1.25
 74
     0
 49
-0.25
 74
     0
 49
0.25
 74
     0
 49
-0.25
 74
     0
 49
0.25
 74
     0
 49
-0.25
 74
     0
  0
LTYPE
  5
2C
100
AcDbSymbolTableRecord
100
AcDbLinetypeTableRecord
  2
$INVISIBLE
 70
     0
  3
$INVISIBLE
 72
    65
 73
     2
 40
200.0
 49
-100.0
 74
     0
 49
-100.0
 74
     0
  0
LTYPE
  5
2D
100
AcDbSymbolTableRecord
100
AcDbLinetypeTableRecord
  2
$SNAPEXT
 70
     0
  3
$SNAPEXT
 72
    65
 73
     2
 40
0.04
 49
0.02
 74
     0
 49
-0.02
 74
     0
  0
LTYPE
  5
2E
100
AcDbSymbolTableRecord
100
AcDbLinetypeTableRecord
  2
$AUXILIARY
 70
     0
  3
$AUXILIARY
 72
    65
 73
     2
 40
0.1
 49
0.05
 74
     0
 49
-0.05
 74
     0
  0
LTYPE
  5
2F
100
AcDbSymbolTableRecord
100
AcDbLinetypeTableRecord
  2
$CONSTRUCTION
 70
     0
  3
$CONSTRUCTION
 72
    65
 73
     4
 40
0.3
 49
0.2
 74
     0
 49
-0.05
 74
     0
 49
0.0
 74
     0
 49
-0.05
 74
     0
  0
ENDTAB
  0
TABLE
  2
LAYER
  5
2
100
AcDbSymbolTable
 70
     3
  0
LAYER
  5
14
100
AcDbSymbolTableRecord
100
AcDbLayerTableRecord
  2
0
 70
     0
 62
     7
  6
Continuous
290
     1
370
    -3
390
0
1001
TCAD
1000
TCW_LAYER_ORDER
1002
{
1071
        0
1002
}
  0
LAYER
  5
30
100
AcDbSymbolTableRecord
100
AcDbLayerTableRecord
  2
Calque 1
 70
     0
 62
     7
  6
Continuous
290
     1
370
    -3
390
0
1001
TCAD
1000
TCW_LAYER_ORDER
1002
{
1071
        0
1002
}
  0
LAYER
  5
31
100
AcDbSymbolTableRecord
100
AcDbLayerTableRecord
  2
$CONSTRUCTION
 70
     0
 62
     9
  6
$CONSTRUCTION
290
     1
370
    -3
390
0
1001
TCAD
1000
TCW_LAYER_ORDER
1002
{
1071
        0
1002
}
  0
ENDTAB
  0
TABLE
  2
STYLE
  5
3
100
AcDbSymbolTable
 70
     2
  0
STYLE
  5
17
100
AcDbSymbolTableRecord
100
AcDbTextStyleTableRecord
  2
STANDARD
 70
     0
 40
0.0
 41
1.0
 50
0.0
 71
     0
 42
2.5
  3
TXT.SHX
  4

  0
STYLE
  5
33
100
AcDbSymbolTableRecord
100
AcDbTextStyleTableRecord
  2
_TCW_TXTSTY_1
 70
     0
 40
0.0
 41
1.0
 50
0.0
 71
     0
 42
0.6
  3

  4

1001
ACAD
1000
Times New Roman
1071
      290
  0
ENDTAB
  0
TABLE
  2
VIEW
  5
5
100
AcDbSymbolTable
 70
     1
  0
VIEW
  5
32
100
AcDbSymbolTableRecord
100
AcDbViewTableRecord
  2
Vue_0
 70
     0
 40
210.0
 10
148.5
 20
105.0
 41
297.0
 11
0.0
 21
0.0
 31
1.0
 12
0.0
 22
0.0
 32
0.0
 42
50.0
 43
0.0
 44
0.0
 50
0.0
 71
     0
281
     0
 72
     0
110
0.0
120
0.0
130
0.0
111
1.0
121
0.0
131
0.0
112
0.0
122
1.0
132
0.0
  0
ENDTAB
  0
TABLE
  2
UCS
  5
6
100
AcDbSymbolTable
 70
     0
  0
ENDTAB
  0
TABLE
  2
APPID
  5
8
100
AcDbSymbolTable
 70
     2
  0
APPID
  5
16
100
AcDbSymbolTableRecord
100
AcDbRegAppTableRecord
  2
ACAD
 70
     0
  0
APPID
  5
23
100
AcDbSymbolTableRecord
100
AcDbRegAppTableRecord
  2
TCAD
 70
     0
  0
ENDTAB
  0
TABLE
  2
DIMSTYLE
  5
9
100
AcDbSymbolTable
 70
     2
100
AcDbDimStyleTable
 71
     0
  0
DIMSTYLE
105
18
100
AcDbSymbolTableRecord
100
AcDbDimStyleTableRecord
  2
STANDARD
 70
     0
  3

  4

 40
1.0
 41
3.0
 42
1.0
 43
7.5
 44
2.0
 45
0.2
 46
0.0
 47
0.0
 48
0.0
 71
     0
 72
     0
 73
     1
 74
     1
 75
     0
 76
     0
 77
     1
 78
     0
 79
     0
140
3.0
141
0.09
142
0.0
143
1.0
144
1.0
145
0.0
146
1.0
147
2.0
148
0.01
170
     0
171
     2
172
     1
173
     0
174
     0
175
     0
176
     7
177
     7
178
     7
179
     0
271
     2
272
     2
273
     2
274
     2
275
     0
276
     0
277
     2
278
    46
279
     0
280
     0
281
     0
282
     0
283
     1
284
     0
285
     8
286
     0
288
     0
340
33
341
0
342
0
343
0
344
0
371
    -2
372
    -2
  0
DIMSTYLE
105
34
100
AcDbSymbolTableRecord
100
AcDbDimStyleTableRecord
  2
ISO-25
 70
     0
  3
<>
  4
<>
 40
1.0
 41
2.5
 42
0.625
 43
3.75
 44
1.25
 45
0.0
 46
0.0
 47
0.0
 48
0.0
 71
     0
 72
     0
 73
     0
 74
     0
 75
     0
 76
     0
 77
     1
 78
     8
 79
     0
140
2.5
141
0.09
142
0.0
143
0.03937
144
1.0
145
0.0
146
1.0
147
0.625
148
0.01
170
     0
171
     3
172
     1
173
     0
174
     0
175
     0
176
     0
177
     0
178
     0
179
     2
271
     2
272
     2
273
     2
274
     3
275
     0
276
     0
277
     2
278
    46
279
     0
280
     0
281
     0
282
     0
283
     0
284
     8
285
     0
286
     0
288
     0
340
17
341
0
342
0
343
0
344
0
371
    -2
372
    -2
  0
ENDTAB
  0
TABLE
  2
BLOCK_RECORD
  5
1
100
AcDbSymbolTable
 70
     0
  0
BLOCK_RECORD
  5
A
100
AcDbSymbolTableRecord
100
AcDbBlockTableRecord
  2
*MODEL_SPACE
340
A9
  0
BLOCK_RECORD
  5
B
100
AcDbSymbolTableRecord
100
AcDbBlockTableRecord
  2
*PAPER_SPACE
340
AA
  0
ENDTAB
  0
ENDSEC
  0
SECTION
  2
BLOCKS
  0
BLOCK
  5
D
100
AcDbEntity
  8
0
100
AcDbBlockBegin
  2
*MODEL_SPACE
 70
     0
 10
0.0
 20
0.0
 30
0.0
  3
*MODEL_SPACE
  1

  0
ENDBLK
  5
E
100
AcDbEntity
  8
0
100
AcDbBlockEnd
  0
BLOCK
  5
F
100
AcDbEntity
 67
     1
  8
0
100
AcDbBlockBegin
  2
*PAPER_SPACE
 70
     0
 10
0.0
 20
0.0
 30
0.0
  3
*PAPER_SPACE
  1

  0
ENDBLK
  5
10
100
AcDbEntity
 67
     1
  8
0
100
AcDbBlockEnd
  0
ENDSEC
  0
SECTION
  2
ENTITIES
  0
LINE
  5
35
100
AcDbEntity
  8
Calque 1
 62
     7
100
AcDbLine
 10
74.499255
 20
177.00797
 30
0.0
 11
71.328678
 21
180.187567
 31
0.0
  0
LINE
  5
36
100
AcDbEntity
  8
Calque 1
 62
     7
100
AcDbLine
 10
71.328678
 20
180.187567
 30
0.0
 11
71.328678
 21
186.958787
 31
0.0
  0
LINE
  5
37
100
AcDbEntity
  8
Calque 1
 62
     7
100
AcDbLine
 10
71.328678
 20
186.958787
 30
0.0
 11
71.328678
 21
193.730006
 31
0.0
  0
LINE
  5
38
100
AcDbEntity
  8
Calque 1
 62
     7
100
AcDbLine
 10
71.328678
 20
193.730006
 30
0.0
 11
77.819789
 21
200.216515
 31
0.0
  0
LINE
  5
39
100
AcDbEntity
  8
Calque 1
 62
     7
100
AcDbLine
 10
77.819789
 20
200.216515
 30
0.0
 11
84.3109
 21
206.703023
 31
0.0
  0
LINE
  5
3A
100
AcDbEntity
  8
Calque 1
 62
     7
100
AcDbLine
 10
84.3109
 20
206.703023
 30
0.0
 11
84.3109
 21
200.218817
 31
0.0
  0
LINE
  5
3B
100
AcDbEntity
  8
Calque 1
 62
     7
100
AcDbLine
 10
84.3109
 20
200.218817
 30
0.0
 11
84.3109
 21
193.734609
 31
0.0
  0
LINE
  5
3C
100
AcDbEntity
  8
Calque 1
 62
     7
100
AcDbLine
 10
84.3109
 20
193.734609
 30
0.0
 11
87.538464
 21
196.953018
 31
0.0
  0
LINE
  5
3D
100
AcDbEntity
  8
Calque 1
 62
     7
100
AcDbLine
 10
87.538464
 20
196.953018
 30
0.0
 11
90.76603
 21
200.171427
 31
0.0
  0
LINE
  5
3E
100
AcDbEntity
  8
Calque 1
 62
     7
100
AcDbLine
 10
90.76603
 20
200.171427
 30
0.0
 11
94.008724
 21
196.807304
 31
0.0
  0
LINE
  5
3F
100
AcDbEntity
  8
Calque 1
 62
     7
100
AcDbLine
 10
94.008724
 20
196.807304
 30
0.0
 11
97.251418
 21
193.443181
 31
0.0
  0
LINE
  5
40
100
AcDbEntity
  8
Calque 1
 62
     7
100
AcDbLine
 10
97.251418
 20
193.443181
 30
0.0
 11
94.028082
 21
190.194758
 31
0.0
  0
LINE
  5
41
100
AcDbEntity
  8
Calque 1
 62
     7
100
AcDbLine
 10
94.028082
 20
190.194758
 30
0.0
 11
90.804746
 21
186.946332
 31
0.0
  0
LINE
  5
42
100
AcDbEntity
  8
Calque 1
 62
     7
100
AcDbLine
 10
90.804746
 20
186.946332
 30
0.0
 11
94.031294
 21
183.703647
 31
0.0
  0
LINE
  5
43
100
AcDbEntity
  8
Calque 1
 62
     7
100
AcDbLine
 10
94.031294
 20
183.703647
 30
0.0
 11
97.257841
 21
180.460959
 31
0.0
  0
LINE
  5
44
100
AcDbEntity
  8
Calque 1
 62
     7
100
AcDbLine
 10
97.257841
 20
180.460959
 30
0.0
 11
94.044566
 21
177.074292
 31
0.0
  0
LINE
  5
45
100
AcDbEntity
  8
Calque 1
 62
     7
100
AcDbLine
 10
94.044566
 20
177.074292
 30
0.0
 11
90.831291
 21
173.687626
 31
0.0
  0
LINE
  5
46
100
AcDbEntity
  8
Calque 1
 62
     7
100
AcDbLine
 10
90.831291
 20
173.687626
 30
0.0
 11
87.503409
 21
177.002371
 31
0.0
  0
LINE
  5
47
100
AcDbEntity
  8
Calque 1
 62
     7
100
AcDbLine
 10
87.503409
 20
177.002371
 30
0.0
 11
84.175526
 21
180.317113
 31
0.0
  0
LINE
  5
48
100
AcDbEntity
  8
Calque 1
 62
     7
100
AcDbLine
 10
84.175526
 20
180.317113
 30
0.0
 11
80.922678
 21
177.072743
 31
0.0
  0
LINE
  5
49
100
AcDbEntity
  8
Calque 1
 62
     7
100
AcDbLine
 10
74.499255
 20
177.00797
 30
0.0
 11
74.499255
 21
177.00797
 31
0.0
  0
LINE
  5
4A
100
AcDbEntity
  8
Calque 1
 62
     7
100
AcDbLine
 10
104.286586
 20
177.008154
 30
0.0
 11
101.116189
 21
180.187567
 31
0.0
  0
LINE
  5
4B
100
AcDbEntity
  8
Calque 1
 62
     7
100
AcDbLine
 10
101.116189
 20
180.187567
 30
0.0
 11
101.116189
 21
186.819979
 31
0.0
  0
LINE
  5
4C
100
AcDbEntity
  8
Calque 1
 62
     7
100
AcDbLine
 10
101.116189
 20
186.819979
 30
0.0
 11
101.116189
 21
193.452387
 31
0.0
  0
LINE
  5
4D
100
AcDbEntity
  8
Calque 1
 62
     7
100
AcDbLine
 10
101.116189
 20
193.452387
 30
0.0
 11
104.361745
 21
196.688737
 31
0.0
  0
LINE
  5
4E
100
AcDbEntity
  8
Calque 1
 62
     7
100
AcDbLine
 10
104.361745
 20
196.688737
 30
0.0
 11
107.6073
 21
199.925086
 31
0.0
  0
LINE
  5
4F
100
AcDbEntity
  8
Calque 1
 62
     7
100
AcDbLine
 10
107.6073
 20
199.925086
 30
0.0
 11
110.852856
 21
196.688737
 31
0.0
  0
LINE
  5
50
100
AcDbEntity
  8
Calque 1
 62
     7
100
AcDbLine
 10
110.852856
 20
196.688737
 30
0.0
 11
114.098411
 21
193.452387
 31
0.0
  0
LINE
  5
51
100
AcDbEntity
  8
Calque 1
 62
     7
100
AcDbLine
 10
114.098411
 20
193.452387
 30
0.0
 11
114.098411
 21
186.810959
 31
0.0
  0
LINE
  5
52
100
AcDbEntity
  8
Calque 1
 62
     7
100
AcDbLine
 10
114.098411
 20
186.810959
 30
0.0
 11
114.098411
 21
180.169531
 31
0.0
  0
LINE
  5
53
100
AcDbEntity
  8
Calque 1
 62
     7
100
AcDbLine
 10
114.098411
 20
180.169531
 30
0.0
 11
110.918995
 21
176.999134
 31
0.0
  0
LINE
  5
54
100
AcDbEntity
  8
Calque 1
 62
     7
100
AcDbLine
 10
104.286586
 20
177.008154
 30
0.0
 11
104.286586
 21
177.008154
 31
0.0
  0
LINE
  5
55
100
AcDbEntity
  8
Calque 1
 62
     7
100
AcDbLine
 10
122.084777
 20
177.00797
 30
0.0
 11
118.914199
 21
180.187567
 31
0.0
  0
LINE
  5
56
100
AcDbEntity
  8
Calque 1
 62
     7
100
AcDbLine
 10
118.914199
 20
180.187567
 30
0.0
 11
118.914199
 21
186.958787
 31
0.0
  0
LINE
  5
57
100
AcDbEntity
  8
Calque 1
 62
     7
100
AcDbLine
 10
118.914199
 20
186.958787
 30
0.0
 11
118.914199
 21
193.730006
 31
0.0
  0
LINE
  5
58
100
AcDbEntity
  8
Calque 1
 62
     7
100
AcDbLine
 10
118.914199
 20
193.730006
 30
0.0
 11
125.40531
 21
200.216515
 31
0.0
  0
LINE
  5
59
100
AcDbEntity
  8
Calque 1
 62
     7
100
AcDbLine
 10
125.40531
 20
200.216515
 30
0.0
 11
131.896421
 21
206.703023
 31
0.0
  0
LINE
  5
5A
100
AcDbEntity
  8
Calque 1
 62
     7
100
AcDbLine
 10
131.896421
 20
206.703023
 30
0.0
 11
131.896421
 21
200.218817
 31
0.0
  0
LINE
  5
5B
100
AcDbEntity
  8
Calque 1
 62
     7
100
AcDbLine
 10
131.896421
 20
200.218817
 30
0.0
 11
131.896421
 21
193.734609
 31
0.0
  0
LINE
  5
5C
100
AcDbEntity
  8
Calque 1
 62
     7
100
AcDbLine
 10
131.896421
 20
193.734609
 30
0.0
 11
135.143529
 21
196.972508
 31
0.0
  0
LINE
  5
5D
100
AcDbEntity
  8
Calque 1
 62
     7
100
AcDbLine
 10
135.143529
 20
196.972508
 30
0.0
 11
138.39064
 21
200.210404
 31
0.0
  0
LINE
  5
5E
100
AcDbEntity
  8
Calque 1
 62
     7
100
AcDbLine
 10
138.39064
 20
200.210404
 30
0.0
 11
141.702238
 21
196.898806
 31
0.0
  0
LINE
  5
5F
100
AcDbEntity
  8
Calque 1
 62
     7
100
AcDbLine
 10
141.702238
 20
196.898806
 30
0.0
 11
145.013839
 21
193.587208
 31
0.0
  0
LINE
  5
60
100
AcDbEntity
  8
Calque 1
 62
     7
100
AcDbLine
 10
145.013839
 20
193.587208
 30
0.0
 11
141.702052
 21
190.26677
 31
0.0
  0
LINE
  5
61
100
AcDbEntity
  8
Calque 1
 62
     7
100
AcDbLine
 10
141.702052
 20
190.26677
 30
0.0
 11
138.390267
 21
186.946332
 31
0.0
  0
LINE
  5
62
100
AcDbEntity
  8
Calque 1
 62
     7
100
AcDbLine
 10
138.390267
 20
186.946332
 30
0.0
 11
141.703508
 21
183.633092
 31
0.0
  0
LINE
  5
63
100
AcDbEntity
  8
Calque 1
 62
     7
100
AcDbLine
 10
141.703508
 20
183.633092
 30
0.0
 11
145.016752
 21
180.319848
 31
0.0
  0
LINE
  5
64
100
AcDbEntity
  8
Calque 1
 62
     7
100
AcDbLine
 10
145.016752
 20
180.319848
 30
0.0
 11
141.702142
 21
177.005238
 31
0.0
  0
LINE
  5
65
100
AcDbEntity
  8
Calque 1
 62
     7
100
AcDbLine
 10
135.074289
 20
177.003872
 30
0.0
 11
131.761048
 21
180.317113
 31
0.0
  0
LINE
  5
66
100
AcDbEntity
  8
Calque 1
 62
     7
100
AcDbLine
 10
131.761048
 20
180.317113
 30
0.0
 11
128.508202
 21
177.072743
 31
0.0
  0
LINE
  5
67
100
AcDbEntity
  8
Calque 1
 62
     7
100
AcDbLine
 10
128.508202
 20
177.072743
 30
0.0
 11
125.255354
 21
173.828373
 31
0.0
  0
LINE
  5
68
100
AcDbEntity
  8
Calque 1
 62
     7
100
AcDbLine
 10
125.255354
 20
173.828373
 30
0.0
 11
122.084777
 21
177.00797
 31
0.0
  0
LINE
  5
69
100
AcDbEntity
  8
Calque 1
 62
     7
100
AcDbLine
 10
122.084777
 20
177.00797
 30
0.0
 11
122.084777
 21
177.00797
 31
0.0
  0
LINE
  5
6A
100
AcDbEntity
  8
Calque 1
 62
     7
100
AcDbLine
 10
152.902487
 20
177.148999
 30
0.0
 11
149.590703
 21
180.469437
 31
0.0
  0
LINE
  5
6B
100
AcDbEntity
  8
Calque 1
 62
     7
100
AcDbLine
 10
149.590703
 20
180.469437
 30
0.0
 11
149.590703
 21
186.958609
 31
0.0
  0
LINE
  5
6C
100
AcDbEntity
  8
Calque 1
 62
     7
100
AcDbLine
 10
149.590703
 20
186.958609
 30
0.0
 11
149.590703
 21
193.447784
 31
0.0
  0
LINE
  5
6D
100
AcDbEntity
  8
Calque 1
 62
     7
100
AcDbLine
 10
149.590703
 20
193.447784
 30
0.0
 11
156.081814
 21
199.934292
 31
0.0
  0
LINE
  5
6E
100
AcDbEntity
  8
Calque 1
 62
     7
100
AcDbLine
 10
156.081814
 20
199.934292
 30
0.0
 11
162.572925
 21
206.4208
 31
0.0
  0
LINE
  5
6F
100
AcDbEntity
  8
Calque 1
 62
     7
100
AcDbLine
 10
162.572925
 20
206.4208
 30
0.0
 11
162.572925
 21
200.143659
 31
0.0
  0
LINE
  5
70
100
AcDbEntity
  8
Calque 1
 62
     7
100
AcDbLine
 10
162.572925
 20
200.143659
 30
0.0
 11
162.636515
 21
195.710425
 31
0.0
  0
LINE
  5
71
100
AcDbEntity
  8
Calque 1
 62
     7
100
AcDbLine
 10
162.636515
 20
195.710425
 30
0.0
 11
162.789403
 21
193.866515
 31
0.0
  0
LINE
  5
72
100
AcDbEntity
  8
Calque 1
 62
     7
100
AcDbLine
 10
162.789403
 20
193.866515
 30
0.0
 11
166.1009
 21
196.971157
 31
0.0
  0
LINE
  5
73
100
AcDbEntity
  8
Calque 1
 62
     7
100
AcDbLine
 10
166.1009
 20
196.971157
 30
0.0
 11
169.195916
 21
200.075801
 31
0.0
  0
LINE
  5
74
100
AcDbEntity
  8
Calque 1
 62
     7
100
AcDbLine
 10
169.195916
 20
200.075801
 30
0.0
 11
172.375533
 21
196.905207
 31
0.0
  0
LINE
  5
75
100
AcDbEntity
  8
Calque 1
 62
     7
100
AcDbLine
 10
172.375533
 20
196.905207
 30
0.0
 11
174.621135
 21
194.580304
 31
0.0
  0
LINE
  5
76
100
AcDbEntity
  8
Calque 1
 62
     7
100
AcDbLine
 10
174.621135
 20
194.580304
 30
0.0
 11
175.555147
 21
193.442972
 31
0.0
  0
LINE
  5
77
100
AcDbEntity
  8
Calque 1
 62
     7
100
AcDbLine
 10
175.555147
 20
193.442972
 30
0.0
 11
174.643158
 21
192.327841
 31
0.0
  0
LINE
  5
78
100
AcDbEntity
  8
Calque 1
 62
     7
100
AcDbLine
 10
174.643158
 20
192.327841
 30
0.0
 11
172.450505
 21
190.056317
 31
0.0
  0
LINE
  5
79
100
AcDbEntity
  8
Calque 1
 62
     7
100
AcDbLine
 10
172.450505
 20
190.056317
 30
0.0
 11
169.34586
 21
186.961302
 31
0.0
  0
LINE
  5
7A
100
AcDbEntity
  8
Calque 1
 62
     7
100
AcDbLine
 10
169.34586
 20
186.961302
 30
0.0
 11
172.450505
 21
183.847826
 31
0.0
  0
LINE
  5
7B
100
AcDbEntity
  8
Calque 1
 62
     7
100
AcDbLine
 10
172.450505
 20
183.847826
 30
0.0
 11
174.643158
 21
181.565976
 31
0.0
  0
LINE
  5
7C
100
AcDbEntity
  8
Calque 1
 62
     7
100
AcDbLine
 10
174.643158
 20
181.565976
 30
0.0
 11
175.555147
 21
180.451939
 31
0.0
  0
LINE
  5
7D
100
AcDbEntity
  8
Calque 1
 62
     7
100
AcDbLine
 10
175.555147
 20
180.451939
 30
0.0
 11
174.621166
 21
179.321156
 31
0.0
  0
LINE
  5
7E
100
AcDbEntity
  8
Calque 1
 62
     7
100
AcDbLine
 10
174.621166
 20
179.321156
 30
0.0
 11
172.375637
 21
176.999041
 31
0.0
  0
LINE
  5
7F
100
AcDbEntity
  8
Calque 1
 62
     7
100
AcDbLine
 10
165.959504
 20
177.07438
 30
0.0
 11
162.722881
 21
180.320212
 31
0.0
  0
LINE
  5
80
100
AcDbEntity
  8
Calque 1
 62
     7
100
AcDbLine
 10
162.722881
 20
180.320212
 30
0.0
 11
159.468576
 21
177.074388
 31
0.0
  0
LINE
  5
81
100
AcDbEntity
  8
Calque 1
 62
     7
100
AcDbLine
 10
159.468576
 20
177.074388
 30
0.0
 11
156.214275
 21
173.828565
 31
0.0
  0
LINE
  5
82
100
AcDbEntity
  8
Calque 1
 62
     7
100
AcDbLine
 10
156.214275
 20
173.828565
 30
0.0
 11
152.902487
 21
177.148999
 31
0.0
  0
LINE
  5
83
100
AcDbEntity
  8
Calque 1
 62
     7
100
AcDbLine
 10
152.902487
 20
177.148999
 30
0.0
 11
152.902487
 21
177.148999
 31
0.0
  0
LINE
  5
84
100
AcDbEntity
  8
Calque 1
 62
     7
100
AcDbLine
 10
80.922678
 20
177.072743
 30
0.0
 11
79.119976
 21
175.274738
 31
0.0
  0
LINE
  5
85
100
AcDbEntity
  8
Calque 1
 62
     7
100
AcDbLine
 10
76.227571
 20
175.274738
 30
0.0
 11
74.499255
 21
177.00797
 31
0.0
  0
LINE
  5
86
100
AcDbEntity
  8
Calque 1
 62
     7
100
AcDbLine
 10
110.918995
 20
176.999134
 30
0.0
 11
109.112841
 21
175.274738
 31
0.0
  0
LINE
  5
87
100
AcDbEntity
  8
Calque 1
 62
     7
100
AcDbLine
 10
106.09212
 20
175.274738
 30
0.0
 11
104.286586
 21
177.008154
 31
0.0
  0
LINE
  5
88
100
AcDbEntity
  8
Calque 1
 62
     7
100
AcDbLine
 10
136.803422
 20
175.274738
 30
0.0
 11
135.074289
 21
177.003872
 31
0.0
  0
LINE
  5
89
100
AcDbEntity
  8
Calque 1
 62
     7
100
AcDbLine
 10
141.702142
 20
177.005238
 30
0.0
 11
139.971642
 21
175.274738
 31
0.0
  0
LINE
  5
8A
100
AcDbEntity
  8
Calque 1
 62
     7
100
AcDbLine
 10
167.754041
 20
175.274738
 30
0.0
 11
165.959504
 21
177.07438
 31
0.0
  0
LINE
  5
8B
100
AcDbEntity
  8
Calque 1
 62
     7
100
AcDbLine
 10
172.375637
 20
176.999041
 30
0.0
 11
170.646429
 21
175.274738
 31
0.0
  0
LINE
  5
8C
100
AcDbEntity
  8
0
370
     0
  6
Continuous
 62
     7
100
AcDbLine
 10
70.853506
 20
175.274738
 30
0.0
 11
76.227571
 21
175.274738
 31
0.0
  0
POLYLINE
  5
8D
100
AcDbEntity
  8
0
370
     0
  6
Continuous
 62
     7
100
AcDb2dPolyline
 66
     1
 10
0.0
 20
0.0
 30
0.0
 70
   128
  0
VERTEX
  5
8E
100
AcDbEntity
  8
0
  6
Continuous
 62
     7
100
AcDbVertex
100
AcDb2dVertex
 10
79.119976
 20
175.274738
 30
0.0
  0
VERTEX
  5
8F
100
AcDbEntity
  8
0
  6
Continuous
 62
     7
100
AcDbVertex
100
AcDb2dVertex
 10
87.966209
 20
175.274738
 30
0.0
  0
VERTEX
  5
90
100
AcDbEntity
  8
0
  6
Continuous
 62
     7
100
AcDbVertex
100
AcDb2dVertex
 10
90.948776
 20
172.303948
 30
0.0
  0
VERTEX
  5
91
100
AcDbEntity
  8
0
  6
Continuous
 62
     7
100
AcDbVertex
100
AcDb2dVertex
 10
93.767466
 20
175.274738
 30
0.0
  0
VERTEX
  5
92
100
AcDbEntity
  8
0
  6
Continuous
 62
     7
100
AcDbVertex
100
AcDb2dVertex
 10
106.09212
 20
175.274738
 30
0.0
  0
SEQEND
  5
93
100
AcDbEntity
  8
0
  6
Continuous
 62
     7
  0
POLYLINE
  5
94
100
AcDbEntity
  8
0
370
     0
  6
Continuous
 62
     7
100
AcDb2dPolyline
 66
     1
 10
0.0
 20
0.0
 30
0.0
 70
   128
  0
VERTEX
  5
95
100
AcDbEntity
  8
0
  6
Continuous
 62
     7
100
AcDbVertex
100
AcDb2dVertex
 10
109.112841
 20
175.274738
 30
0.0
  0
VERTEX
  5
96
100
AcDbEntity
  8
0
  6
Continuous
 62
     7
100
AcDbVertex
100
AcDb2dVertex
 10
122.582511
 20
175.274738
 30
0.0
  0
VERTEX
  5
97
100
AcDbEntity
  8
0
  6
Continuous
 62
     7
100
AcDbVertex
100
AcDb2dVertex
 10
125.325622
 20
172.523825
 30
0.0
  0
VERTEX
  5
98
100
AcDbEntity
  8
0
  6
Continuous
 62
     7
100
AcDbVertex
100
AcDb2dVertex
 10
128.083722
 20
175.274738
 30
0.0
  0
VERTEX
  5
99
100
AcDbEntity
  8
0
  6
Continuous
 62
     7
100
AcDbVertex
100
AcDb2dVertex
 10
136.803422
 20
175.274738
 30
0.0
  0
SEQEND
  5
9A
100
AcDbEntity
  8
0
  6
Continuous
 62
     7
  0
POLYLINE
  5
9B
100
AcDbEntity
  8
0
370
     0
  6
Continuous
 62
     7
100
AcDb2dPolyline
 66
     1
 10
0.0
 20
0.0
 30
0.0
 70
   128
  0
VERTEX
  5
9C
100
AcDbEntity
  8
0
  6
Continuous
 62
     7
100
AcDbVertex
100
AcDb2dVertex
 10
139.971642
 20
175.274738
 30
0.0
  0
VERTEX
  5
9D
100
AcDbEntity
  8
0
  6
Continuous
 62
     7
100
AcDbVertex
100
AcDb2dVertex
 10
152.934917
 20
175.274738
 30
0.0
  0
VERTEX
  5
9E
100
AcDbEntity
  8
0
  6
Continuous
 62
     7
100
AcDbVertex
100
AcDb2dVertex
 10
155.983676
 20
172.218012
 30
0.0
  0
VERTEX
  5
9F
100
AcDbEntity
  8
0
  6
Continuous
 62
     7
100
AcDbVertex
100
AcDb2dVertex
 10
159.048387
 20
175.274738
 30
0.0
  0
VERTEX
  5
A0
100
AcDbEntity
  8
0
  6
Continuous
 62
     7
100
AcDbVertex
100
AcDb2dVertex
 10
167.754041
 20
175.274738
 30
0.0
  0
SEQEND
  5
A1
100
AcDbEntity
  8
0
  6
Continuous
 62
     7
  0
POLYLINE
  5
A2
100
AcDbEntity
  8
0
370
     0
  6
Continuous
 62
     7
100
AcDb2dPolyline
 66
     1
 10
0.0
 20
0.0
 30
0.0
 70
   128
  0
VERTEX
  5
A3
100
AcDbEntity
  8
0
  6
Continuous
 62
     7
100
AcDbVertex
100
AcDb2dVertex
 10
170.646429
 20
175.274738
 30
0.0
  0
VERTEX
  5
A4
100
AcDbEntity
  8
0
  6
Continuous
 62
     7
100
AcDbVertex
100
AcDb2dVertex
 10
175.881614
 20
175.274738
 30
0.0
  0
VERTEX
  5
A5
100
AcDbEntity
  8
0
  6
Continuous
 62
     7
100
AcDbVertex
100
AcDb2dVertex
 10
171.154193
 20
170.386084
 30
0.0
  0
VERTEX
  5
A6
100
AcDbEntity
  8
0
  6
Continuous
 62
     7
100
AcDbVertex
100
AcDb2dVertex
 10
75.728293
 20
170.386084
 30
0.0
  0
VERTEX
  5
A7
100
AcDbEntity
  8
0
  6
Continuous
 62
     7
100
AcDbVertex
100
AcDb2dVertex
 10
70.853506
 20
175.274738
 30
0.0
  0
SEQEND
  5
A8
100
AcDbEntity
  8
0
  6
Continuous
 62
     7
  0
ENDSEC
  0
SECTION
  2
OBJECTS
  0
DICTIONARY
  5
19
100
AcDbDictionary
280
     0
281
     1
  3
ACAD_GROUP
350
1A
  3
ACAD_MLINESTYLE
350
1B
  3
ACAD_LAYOUT
350
1E
  3
ACAD_PLOTSETTINGS
350
22
  3
ACAD_PLOTSTYLENAME
350
1F
  0
DICTIONARY
  5
1A
102
{ACAD_REACTORS
330
19
102
}
100
AcDbDictionary
280
     0
281
     1
  0
DICTIONARY
  5
1B
102
{ACAD_REACTORS
330
19
102
}
100
AcDbDictionary
280
     0
281
     1
  3
Standard
350
1C
  0
MLINESTYLE
  5
1C
100
AcDbMlineStyle
  2
STANDARD
 70
     0
  3

 62
   256
 51
90.0
 52
90.0
 71
     3
 49
5.0
 62
     7
  6
BYLAYER
 49
0.0
 62
     7
  6
BYLAYER
 49
-5.0
 62
     7
  6
BYLAYER
  0
ACDBDICTIONARYWDFLT
  5
1F
102
{ACAD_REACTORS
330
19
102
}
100
AcDbDictionary
281
     1
  3
Normal
350
1D
100
AcDbDictionaryWithDefault
340
1D
  0
ACDBPLACEHOLDER
  5
1D
102
{ACAD_REACTORS
330
1F
102
}
  0
LAYOUT
  5
21
102
{ACAD_REACTORS
330
1E
102
}
100
AcDbPlotSettings
  1

  2

  4

  6

 40
0.0
 41
0.0
 42
0.0
 43
0.0
 44
0.0
 45
0.0
 46
0.0
 47
0.0
 48
0.0
 49
0.0
140
0.0
141
0.0
142
1.0
143
1.0
 70
     0
 72
     0
 73
     0
 74
     0
  7

 75
     0
147
1.0
148
0.0
149
0.0
100
AcDbLayout
  1
Layout1
 70
     0
 71
     0
 10
0.0
 20
0.0
 11
0.0
 21
0.0
 12
0.0
 22
0.0
 32
0.0
 14
0.0
 24
0.0
 34
0.0
 15
0.0
 25
0.0
 35
0.0
146
0.0
 13
0.0
 23
0.0
 33
0.0
 16
0.0
 26
0.0
 36
0.0
 17
0.0
 27
0.0
 37
0.0
 76
     0
330
B
331
0
345
0
346
0
  0
DICTIONARY
  5
1E
102
{ACAD_REACTORS
330
19
102
}
100
AcDbDictionary
280
     0
281
     1
  3
Model
350
A9
  3
_PAPER_SPACE
350
AA
  0
DICTIONARY
  5
22
102
{ACAD_REACTORS
330
19
102
}
100
AcDbDictionary
280
     0
281
     1
  0
LAYOUT
  5
A9
100
AcDbPlotSettings
  1

  2

  4

  6

 40
0.0
 41
0.0
 42
0.0
 43
0.0
 44
0.0
 45
0.0
 46
0.0
 47
0.0
 48
0.0
 49
0.0
140
0.0
141
0.0
142
1.0
143
1.0
 70
     0
 72
     0
 73
     0
 74
     0
  7

 75
     0
147
1.0
148
0.0
149
0.0
100
AcDbLayout
  1
Model
 70
     0
 71
     0
 10
0.0
 20
0.0
 11
0.0
 21
0.0
 12
0.0
 22
0.0
 32
0.0
 14
0.0
 24
0.0
 34
0.0
 15
0.0
 25
0.0
 35
0.0
146
0.0
 13
0.0
 23
0.0
 33
0.0
 16
0.0
 26
0.0
 36
0.0
 17
0.0
 27
0.0
 37
0.0
 76
     0
330
A
331
0
345
0
346
0
  0
LAYOUT
  5
AA
100
AcDbPlotSettings
  1

  2

  4

  6

 40
0.0
 41
0.0
 42
0.0
 43
0.0
 44
12.0
 45
9.0
 46
0.0
 47
0.0
 48
0.0
 49
0.0
140
0.0
141
0.0
142
1.0
143
1.0
 70
     0
 72
     0
 73
     0
 74
     0
  7

 75
     0
147
1.0
148
0.0
149
0.0
100
AcDbLayout
  1
_PAPER_SPACE
 70
     1
 71
     1
 10
0.0
 20
0.0
 11
12.0
 21
9.0
 12
0.0
 22
0.0
 32
0.0
 14
0.0
 24
0.0
 34
0.0
 15
0.0
 25
0.0
 35
0.0
146
0.0
 13
0.0
 23
0.0
 33
0.0
 16
0.0
 26
0.0
 36
0.0
 17
0.0
 27
0.0
 37
0.0
 76
     0
330
B
331
0
345
0
346
0
  0
ENDSEC
  0
EOF
