  0
SECTION
  2
HEADER
  9
$ACADVER
  1
AC1015
  9
$ACADMAINTVER
 70
     6
  9
$DWGCODEPAGE
  3
ANSI_1252
  9
$INSBASE
 10
0.0
 20
0.0
 30
0.0
  9
$EXTMIN
 10
91.863937
 20
39.444901
 30
0.0
  9
$EXTMAX
 10
274.013123
 20
164.585495
 30
0.0
  9
$LIMMIN
 10
0.0
 20
0.0
  9
$LIMMAX
 10
297.0
 20
210.0
  9
$ORTHOMODE
 70
     0
  9
$REGENMODE
 70
     1
  9
$FILLMODE
 70
     1
  9
$QTEXTMODE
 70
     0
  9
$MIRRTEXT
 70
     1
  9
$LTSCALE
 40
1.0
  9
$ATTMODE
 70
     1
  9
$TEXTSIZE
 40
5.0
  9
$TRACEWID
 40
1.0
  9
$TEXTSTYLE
  7
STANDARD
  9
$CLAYER
  8
0
  9
$CELTYPE
  6
Continuous
  9
$CECOLOR
 62
     1
  9
$CELTSCALE
 40
1.0
  9
$DISPSILH
 70
     0
  9
$DIMSCALE
 40
1.0
  9
$DIMASZ
 40
3.0
  9
$DIMEXO
 40
1.0
  9
$DIMDLI
 40
7.5
  9
$DIMRND
 40
0.01
  9
$DIMDLE
 40
0.0
  9
$DIMEXE
 40
2.0
  9
$DIMTP
 40
0.0
  9
$DIMTM
 40
0.0
  9
$DIMTXT
 40
3.0
  9
$DIMCEN
 40
0.09
  9
$DIMTSZ
 40
0.0
  9
$DIMTOL
 70
     0
  9
$DIMLIM
 70
     0
  9
$DIMTIH
 70
     1
  9
$DIMTOH
 70
     1
  9
$DIMSE1
 70
     0
  9
$DIMSE2
 70
     0
  9
$DIMTAD
 70
     1
  9
$DIMZIN
 70
     0
  9
$DIMBLK
  1

  9
$DIMASO
 70
     0
  9
$DIMSHO
 70
     1
  9
$DIMPOST
  1

  9
$DIMAPOST
  1

  9
$DIMALT
 70
     0
  9
$DIMALTD
 70
     2
  9
$DIMALTF
 40
1.0
  9
$DIMLFAC
 40
1.0
  9
$DIMTOFL
 70
     1
  9
$DIMTVP
 40
0.0
  9
$DIMTIX
 70
     0
  9
$DIMSOXD
 70
     0
  9
$DIMSAH
 70
     0
  9
$DIMBLK1
  1

  9
$DIMBLK2
  1

  9
$DIMSTYLE
  2
STANDARD
  9
$DIMCLRD
 70
     1
  9
$DIMCLRE
 70
     1
  9
$DIMCLRT
 70
     1
  9
$DIMTFAC
 40
1.0
  9
$DIMGAP
 40
2.0
  9
$DIMJUST
 70
     0
  9
$DIMSD1
 70
     0
  9
$DIMSD2
 70
     0
  9
$DIMTOLJ
 70
     1
  9
$DIMTZIN
 70
     0
  9
$DIMALTZ
 70
     0
  9
$DIMALTTZ
 70
     0
  9
$DIMUPT
 70
     0
  9
$DIMDEC
 70
     2
  9
$DIMTDEC
 70
     2
  9
$DIMALTU
 70
     2
  9
$DIMALTTD
 70
     2
  9
$DIMTXSTY
  7
STANDARD
  9
$DIMAUNIT
 70
     0
  9
$DIMADEC
 70
     2
  9
$DIMALTRND
 40
0.0
  9
$DIMAZIN
 70
     0
  9
$DIMDSEP
 70
     0
  9
$DIMATFIT
 70
     0
  9
$DIMFRAC
 70
     0
  9
$DIMLDRBLK
  1

  9
$DIMLUNIT
 70
     2
  9
$DIMLWD
 70
     0
  9
$DIMLWE
 70
     0
  9
$DIMTMOVE
 70
     0
  9
$LUNITS
 70
     2
  9
$LUPREC
 70
     2
  9
$SKETCHINC
 40
1.0
  9
$FILLETRAD
 40
1.0
  9
$AUNITS
 70
     0
  9
$AUPREC
 70
     2
  9
$MENU
  1
acad
  9
$ELEVATION
 40
0.0
  9
$PELEVATION
 40
0.0
  9
$THICKNESS
 40
0.0
  9
$LIMCHECK
 70
     0
  9
$CHAMFERA
 40
0.0
  9
$CHAMFERB
 40
0.0
  9
$CHAMFERC
 40
0.0
  9
$CHAMFERD
 40
0.0
  9
$SKPOLY
 70
     0
  9
$TDCREATE
 40
0.000000000
  9
$TDUCREATE
 40
0.000000000
  9
$TDUPDATE
 40
2449702.667959363
  9
$TDUUPDATE
 40
0.000000000
  9
$TDINDWG
 40
0.0000000000
  9
$TDUSRTIMER
 40
0.0000000000
  9
$USRTIMER
 70
     1
  9
$ANGBASE
 50
0.0
  9
$ANGDIR
 70
     0
  9
$PDMODE
 70
     0
  9
$PDSIZE
 40
0.0
  9
$PLINEWID
 40
0.0
  9
$SPLFRAME
 70
     0
  9
$SPLINETYPE
 70
     5
  9
$SPLINESEGS
 70
    20
  9
$HANDSEED
  5
115
  9
$SURFTAB1
 70
     6
  9
$SURFTAB2
 70
     6
  9
$SURFTYPE
 70
     6
  9
$SURFU
 70
     6
  9
$SURFV
 70
     6
  9
$UCSBASE
  2

  9
$UCSNAME
  2

  9
$UCSORG
 10
0.0
 20
0.0
 30
0.0
  9
$UCSXDIR
 10
1.0
 20
0.0
 30
0.0
  9
$UCSYDIR
 10
0.0
 20
1.0
 30
0.0
  9
$UCSORTHOREF
  2

  9
$UCSORTHOVIEW
 70
     0
  9
$UCSORGTOP
 10
0.0
 20
0.0
 30
0.0
  9
$UCSORGBOTTOM
 10
0.0
 20
0.0
 30
0.0
  9
$UCSORGLEFT
 10
0.0
 20
0.0
 30
0.0
  9
$UCSORGRIGHT
 10
0.0
 20
0.0
 30
0.0
  9
$UCSORGFRONT
 10
0.0
 20
0.0
 30
0.0
  9
$UCSORGBACK
 10
0.0
 20
0.0
 30
0.0
  9
$PUCSBASE
  2

  9
$PUCSNAME
  2

  9
$PUCSORG
 10
0.0
 20
0.0
 30
0.0
  9
$PUCSXDIR
 10
1.0
 20
0.0
 30
0.0
  9
$PUCSYDIR
 10
0.0
 20
1.0
 30
0.0
  9
$PUCSORTHOREF
  2

  9
$PUCSORTHOVIEW
 70
     0
  9
$PUCSORGTOP
 10
0.0
 20
0.0
 30
0.0
  9
$PUCSORGBOTTOM
 10
0.0
 20
0.0
 30
0.0
  9
$PUCSORGLEFT
 10
0.0
 20
0.0
 30
0.0
  9
$PUCSORGRIGHT
 10
0.0
 20
0.0
 30
0.0
  9
$PUCSORGFRONT
 10
0.0
 20
0.0
 30
0.0
  9
$PUCSORGBACK
 10
0.0
 20
0.0
 30
0.0
  9
$USERI1
 70
     0
  9
$USERI2
 70
     0
  9
$USERI3
 70
     0
  9
$USERI4
 70
     0
  9
$USERI5
 70
     0
  9
$USERR1
 40
0.0
  9
$USERR2
 40
0.0
  9
$USERR3
 40
0.0
  9
$USERR4
 40
0.0
  9
$USERR5
 40
0.0
  9
$WORLDVIEW
 70
     1
  9
$SHADEDGE
 70
     3
  9
$SHADEDIF
 70
    70
  9
$TILEMODE
 70
     1
  9
$MAXACTVP
 70
    16
  9
$PINSBASE
 10
0.0
 20
0.0
 30
0.0
  9
$PLIMCHECK
 70
     0
  9
$PEXTMIN
 10
0.0
 20
0.0
 30
0.0
  9
$PEXTMAX
 10
0.0
 20
0.0
 30
0.0
  9
$PLIMMIN
 10
0.0
 20
0.0
  9
$PLIMMAX
 10
0.0
 20
0.0
  9
$UNITMODE
 70
     0
  9
$VISRETAIN
 70
     0
  9
$PLINEGEN
 70
     1
  9
$PSLTSCALE
 70
     1
  9
$TREEDEPTH
 70
  3020
  9
$CMLSTYLE
  2
STANDARD
  9
$CMLJUST
 70
     0
  9
$CMLSCALE
 40
1.0
  9
$PROXYGRAPHICS
 70
     0
  9
$MEASUREMENT
 70
     0
  9
$CELWEIGHT
370
     0
  9
$ENDCAPS
280
     0
  9
$JOINSTYLE
280
     0
  9
$LWDISPLAY
290
     0
  9
$INSUNITS
 70
     0
  9
$HYPERLINKBASE
  1

  9
$XEDIT
290
     1
  9
$CEPSNTYPE
380
     0
  9
$PSTYLEMODE
290
     1
  9
$FINGERPRINTGUID
  2

  9
$VERSIONGUID
  2

  9
$EXTNAMES
290
     1
  9
$PSVPSCALE
 40
0.0
  0
ENDSEC
  0
SECTION
  2
CLASSES
  0
CLASS
  1
LWPOLYLINE
  2
AcDbPolyline
  3
AutoCAD 2000
 90
    32768
280
     0
281
     1
  0
CLASS
  1
IMAGE
  2
AcDbRasterImage
  3
ISM
 90
    32895
280
     0
281
     1
  0
CLASS
  1
OLE2FRAME
  2
AcDbOle2Frame
  3
AutoCAD 2000
 90
    32768
280
     0
281
     1
  0
CLASS
  1
HATCH
  2
AcDbHatch
  3
AutoCAD 2000
 90
    32768
280
     0
281
     1
  0
CLASS
  1
DICTIONARYVAR
  2
AcDbDictionaryVar
  3
AutoCAD 2000
 90
    32768
280
     0
281
     0
  0
CLASS
  1
RASTERVARIABLES
  2
AcDbRasterVariables
  3
ISM
 90
    32768
280
     0
281
     0
  0
CLASS
  1
IMAGEDEF
  2
AcDbRasterImageDef
  3
ISM
 90
    32768
280
     0
281
     0
  0
CLASS
  1
IMAGEDEF_REACTOR
  2
AcDbRasterImageDefReactor
  3
ISM
 90
    32769
280
     0
281
     0
  0
CLASS
  1
IDBUFFER
  2
AcDbIdBuffer
  3
AutoCAD 2000
 90
    32768
280
     0
281
     0
  0
CLASS
  1
SPATIAL_FILTER
  2
AcDbSpatialFilter
  3
AutoCAD 2000
 90
    32768
280
     0
281
     0
  0
CLASS
  1
XRECORD
  2
AcDbXrecord
  3
AutoCAD 2000
 90
    32768
280
     0
281
     0
  0
CLASS
  1
SORTENTSTABLE
  2
AcDbSortentsTable
  3
AutoCAD 2000
 90
    32768
280
     0
281
     0
  0
CLASS
  1
LAYER_INDEX
  2
AcDbLayerIndex
  3
AutoCAD 2000
 90
    32768
280
     0
281
     0
  0
CLASS
  1
SPATIAL_INDEX
  2
AcDbSpatialIndex
  3
AutoCAD 2000
 90
    32768
280
     0
281
     0
  0
CLASS
  1
OBJECT_PTR
  2
CAseDLPNTableRecord
  3
"ASE-LPNTableRecord"
 90
    32769
280
     0
281
     0
  0
CLASS
  1
LAYOUT
  2
AcDbLayout
  3
AutoCAD 2000
 90
        0
280
     0
281
     0
  0
CLASS
  1
PLOTSETTINGS
  2
AcDbPlotSettings
  3
AutoCAD 2000
 90
    32768
280
     0
281
     0
  0
CLASS
  1
ACDBDICTIONARYWDFLT
  2
AcDbDictionaryWithDefault
  3
AutoCAD 2000
 90
        0
280
     0
281
     0
  0
CLASS
  1
ACDBPLACEHOLDER
  2
AcDbPlaceHolder
  3
AutoCAD 2000
 90
        0
280
     0
281
     0
  0
ENDSEC
  0
SECTION
  2
TABLES
  0
TABLE
  2
VPORT
  5
7
100
AcDbSymbolTable
 70
     1
  0
VPORT
  5
15
100
AcDbSymbolTableRecord
100
AcDbViewportTableRecord
  2
*ACTIVE
 70
     0
 10
0.0
 20
0.0
 11
1.0
 21
1.0
 12
0.0
 22
0.0
 13
0.0
 23
0.0
 14
5.0
 24
5.0
 15
5.0
 25
5.0
 16
0.0
 26
0.0
 36
1.0
 17
182.93852
 27
102.015203
 37
0.0
 40
127.643402
 41
1.741615
 42
50.0
 43
0.0
 44
0.0
 50
0.0
 51
0.0
 71
     0
 72
   100
 73
     1
 74
     1
 75
     0
 76
     0
 77
     0
 78
     0
281
     0
 65
     0
110
0.0
120
0.0
130
0.0
111
1.0
121
0.0
131
0.0
112
0.0
122
1.0
132
0.0
345
0
346
0
 79
     0
146
0.0
  0
ENDTAB
  0
TABLE
  2
LTYPE
  5
4
100
AcDbSymbolTable
 70
    15
  0
LTYPE
  5
11
100
AcDbSymbolTableRecord
100
AcDbLinetypeTableRecord
  2
ByBlock
 70
    64
  3

 72
    65
 73
     0
 40
0.0
  0
LTYPE
  5
12
100
AcDbSymbolTableRecord
100
AcDbLinetypeTableRecord
  2
ByLayer
 70
    64
  3

 72
    65
 73
     0
 40
0.0
  0
LTYPE
  5
13
100
AcDbSymbolTableRecord
100
AcDbLinetypeTableRecord
  2
Continuous
 70
    64
  3
Solid line
 72
    65
 73
     0
 40
0.0
  0
LTYPE
  5
24
100
AcDbSymbolTableRecord
100
AcDbLinetypeTableRecord
  2
BORDER
 70
     0
  3
BORDER
 72
    65
 73
     6
 40
1.75
 49
0.5
 74
     0
 49
-0.25
 74
     0
 49
0.5
 74
     0
 49
-0.25
 74
     0
 49
0.0
 74
     0
 49
-0.25
 74
     0
  0
LTYPE
  5
25
100
AcDbSymbolTableRecord
100
AcDbLinetypeTableRecord
  2
CENTER
 70
     0
  3
CENTER
 72
    65
 73
     4
 40
2.0
 49
1.25
 74
     0
 49
-0.25
 74
     0
 49
0.25
 74
     0
 49
-0.25
 74
     0
  0
LTYPE
  5
26
100
AcDbSymbolTableRecord
100
AcDbLinetypeTableRecord
  2
DASHDOT
 70
     0
  3
DASHDOT
 72
    65
 73
     4
 40
1.0
 49
0.5
 74
     0
 49
-0.25
 74
     0
 49
0.0
 74
     0
 49
-0.25
 74
     0
  0
LTYPE
  5
27
100
AcDbSymbolTableRecord
100
AcDbLinetypeTableRecord
  2
DASHED
 70
     0
  3
DASHED
 72
    65
 73
     2
 40
0.75
 49
0.5
 74
     0
 49
-0.25
 74
     0
  0
LTYPE
  5
28
100
AcDbSymbolTableRecord
100
AcDbLinetypeTableRecord
  2
DIVIDE
 70
     0
  3
DIVIDE
 72
    65
 73
     6
 40
1.25
 49
0.5
 74
     0
 49
-0.25
 74
     0
 49
0.0
 74
     0
 49
-0.25
 74
     0
 49
0.0
 74
     0
 49
-0.25
 74
     0
  0
LTYPE
  5
29
100
AcDbSymbolTableRecord
100
AcDbLinetypeTableRecord
  2
DOT
 70
     0
  3
DOT
 72
    65
 73
     2
 40
0.25
 49
0.0
 74
     0
 49
-0.25
 74
     0
  0
LTYPE
  5
2A
100
AcDbSymbolTableRecord
100
AcDbLinetypeTableRecord
  2
HIDDEN
 70
     0
  3
HIDDEN
 72
    65
 73
     2
 40
0.375
 49
0.25
 74
     0
 49
-0.125
 74
     0
  0
LTYPE
  5
2B
100
AcDbSymbolTableRecord
100
AcDbLinetypeTableRecord
  2
PHANTOM
 70
     0
  3
PHANTOM
 72
    65
 73
     6
 40
2.5
 49
1.25
 74
     0
 49
-0.25
 74
     0
 49
0.25
 74
     0
 49
-0.25
 74
     0
 49
0.25
 74
     0
 49
-0.25
 74
     0
  0
LTYPE
  5
2C
100
AcDbSymbolTableRecord
100
AcDbLinetypeTableRecord
  2
$INVISIBLE
 70
     0
  3
$INVISIBLE
 72
    65
 73
     2
 40
200.0
 49
-100.0
 74
     0
 49
-100.0
 74
     0
  0
LTYPE
  5
2D
100
AcDbSymbolTableRecord
100
AcDbLinetypeTableRecord
  2
$SNAPEXT
 70
     0
  3
$SNAPEXT
 72
    65
 73
     2
 40
0.04
 49
0.02
 74
     0
 49
-0.02
 74
     0
  0
LTYPE
  5
2E
100
AcDbSymbolTableRecord
100
AcDbLinetypeTableRecord
  2
$AUXILIARY
 70
     0
  3
$AUXILIARY
 72
    65
 73
     2
 40
0.1
 49
0.05
 74
     0
 49
-0.05
 74
     0
  0
LTYPE
  5
2F
100
AcDbSymbolTableRecord
100
AcDbLinetypeTableRecord
  2
$CONSTRUCTION
 70
     0
  3
$CONSTRUCTION
 72
    65
 73
     4
 40
0.3
 49
0.2
 74
     0
 49
-0.05
 74
     0
 49
0.0
 74
     0
 49
-0.05
 74
     0
  0
ENDTAB
  0
TABLE
  2
LAYER
  5
2
100
AcDbSymbolTable
 70
     2
  0
LAYER
  5
14
100
AcDbSymbolTableRecord
100
AcDbLayerTableRecord
  2
0
 70
     0
 62
     7
  6
Continuous
290
     1
370
    -3
390
0
1001
TCAD
1000
TCW_LAYER_ORDER
1002
{
1071
        0
1002
}
  0
LAYER
  5
30
100
AcDbSymbolTableRecord
100
AcDbLayerTableRecord
  2
$CONSTRUCTION
 70
     0
 62
     9
  6
$CONSTRUCTION
290
     1
370
    -3
390
0
1001
TCAD
1000
TCW_LAYER_ORDER
1002
{
1071
        0
1002
}
  0
ENDTAB
  0
TABLE
  2
STYLE
  5
3
100
AcDbSymbolTable
 70
     1
  0
STYLE
  5
17
100
AcDbSymbolTableRecord
100
AcDbTextStyleTableRecord
  2
STANDARD
 70
     0
 40
0.0
 41
1.0
 50
0.0
 71
     0
 42
3.0
  3

  4

1001
ACAD
1000
Times New Roman
1071
      290
  0
ENDTAB
  0
TABLE
  2
VIEW
  5
5
100
AcDbSymbolTable
 70
     1
  0
VIEW
  5
31
100
AcDbSymbolTableRecord
100
AcDbViewTableRecord
  2
Vue_0
 70
     0
 40
210.0
 10
148.5
 20
105.0
 41
297.0
 11
0.0
 21
0.0
 31
1.0
 12
0.0
 22
0.0
 32
0.0
 42
50.0
 43
0.0
 44
0.0
 50
0.0
 71
     0
281
     0
 72
     0
110
0.0
120
0.0
130
0.0
111
1.0
121
0.0
131
0.0
112
0.0
122
1.0
132
0.0
  0
ENDTAB
  0
TABLE
  2
UCS
  5
6
100
AcDbSymbolTable
 70
     0
  0
ENDTAB
  0
TABLE
  2
APPID
  5
8
100
AcDbSymbolTable
 70
     2
  0
APPID
  5
16
100
AcDbSymbolTableRecord
100
AcDbRegAppTableRecord
  2
ACAD
 70
     0
  0
APPID
  5
23
100
AcDbSymbolTableRecord
100
AcDbRegAppTableRecord
  2
TCAD
 70
     0
  0
ENDTAB
  0
TABLE
  2
DIMSTYLE
  5
9
100
AcDbSymbolTable
 70
     1
100
AcDbDimStyleTable
 71
     0
  0
DIMSTYLE
105
18
100
AcDbSymbolTableRecord
100
AcDbDimStyleTableRecord
  2
STANDARD
 70
     0
  3

  4

 40
1.0
 41
3.0
 42
1.0
 43
7.5
 44
2.0
 45
0.01
 46
0.0
 47
0.0
 48
0.0
 71
     0
 72
     0
 73
     1
 74
     1
 75
     0
 76
     0
 77
     1
 78
     0
 79
     0
140
3.0
141
0.09
142
0.0
143
1.0
144
1.0
145
0.0
146
1.0
147
2.0
148
0.01
170
     0
171
     2
172
     1
173
     0
174
     0
175
     0
176
     1
177
     1
178
     1
179
     2
271
     2
272
     2
273
     2
274
     2
275
     0
276
     0
277
     2
278
    46
279
     0
280
     0
281
     0
282
     0
283
     1
284
     0
285
     0
286
     0
288
     0
340
17
341
0
342
0
343
0
344
0
371
    -2
372
    -2
  0
ENDTAB
  0
TABLE
  2
BLOCK_RECORD
  5
1
100
AcDbSymbolTable
 70
     0
  0
BLOCK_RECORD
  5
A
100
AcDbSymbolTableRecord
100
AcDbBlockTableRecord
  2
*MODEL_SPACE
340
113
  0
BLOCK_RECORD
  5
B
100
AcDbSymbolTableRecord
100
AcDbBlockTableRecord
  2
*PAPER_SPACE
340
114
  0
ENDTAB
  0
ENDSEC
  0
SECTION
  2
BLOCKS
  0
BLOCK
  5
D
100
AcDbEntity
  8
0
100
AcDbBlockBegin
  2
*MODEL_SPACE
 70
     0
 10
0.0
 20
0.0
 30
0.0
  3
*MODEL_SPACE
  1

  0
ENDBLK
  5
E
100
AcDbEntity
  8
0
100
AcDbBlockEnd
  0
BLOCK
  5
F
100
AcDbEntity
 67
     1
  8
0
100
AcDbBlockBegin
  2
*PAPER_SPACE
 70
     0
 10
0.0
 20
0.0
 30
0.0
  3
*PAPER_SPACE
  1

  0
ENDBLK
  5
10
100
AcDbEntity
 67
     1
  8
0
100
AcDbBlockEnd
  0
ENDSEC
  0
SECTION
  2
ENTITIES
  0
LINE
  5
32
100
AcDbEntity
  8
0
370
     0
  6
Continuous
 62
     1
100
AcDbLine
 10
163.662162
 20
118.85056
 30
0.0
 11
154.509604
 21
124.134797
 31
0.0
  0
LINE
  5
33
100
AcDbEntity
  8
0
370
     0
  6
Continuous
 62
     1
100
AcDbLine
 10
153.201322
 20
151.853599
 30
0.0
 11
162.714392
 21
157.610397
 31
0.0
  0
LINE
  5
34
100
AcDbEntity
  8
0
370
     0
  6
Continuous
 62
     1
100
AcDbLine
 10
162.714392
 20
157.610397
 30
0.0
 11
163.409273
 21
149.693713
 31
0.0
  0
LINE
  5
35
100
AcDbEntity
  8
0
370
     0
  6
Continuous
 62
     1
100
AcDbLine
 10
163.409273
 20
149.693713
 30
0.0
 11
153.643036
 21
142.49494
 31
0.0
  0
LINE
  5
36
100
AcDbEntity
  8
0
370
     0
  6
Continuous
 62
     1
100
AcDbLine
 10
153.838654
 20
138.350333
 30
0.0
 11
165.29538
 21
143.91131
 31
0.0
  0
LINE
  5
37
100
AcDbEntity
  8
0
370
     0
  6
Continuous
 62
     1
100
AcDbLine
 10
165.29538
 20
143.91131
 30
0.0
 11
165.493917
 21
136.168348
 31
0.0
  0
LINE
  5
38
100
AcDbEntity
  8
0
370
     0
  6
Continuous
 62
     1
100
AcDbLine
 10
165.493917
 20
136.168348
 30
0.0
 11
154.255383
 21
129.521028
 31
0.0
  0
LINE
  5
39
100
AcDbEntity
  8
0
370
     0
  6
Continuous
 62
     1
100
AcDbLine
 10
152.809604
 20
160.153016
 30
0.0
 11
153.201322
 21
151.853599
 31
0.0
  0
LINE
  5
3A
100
AcDbEntity
  8
0
370
     0
  6
Continuous
 62
     1
100
AcDbLine
 10
153.643036
 20
142.49494
 30
0.0
 11
153.838654
 21
138.350333
 31
0.0
  0
LINE
  5
3B
100
AcDbEntity
  8
0
370
     0
  6
Continuous
 62
     1
100
AcDbLine
 10
154.255383
 20
129.521028
 30
0.0
 11
154.509604
 21
124.134797
 31
0.0
  0
LINE
  5
3C
100
AcDbEntity
  8
0
370
     0
  6
Continuous
 62
     1
100
AcDbLine
 10
195.704867
 20
135.387401
 30
0.0
 11
201.700639
 21
132.960085
 31
0.0
  0
LINE
  5
3D
100
AcDbEntity
  8
0
370
     0
  6
Continuous
 62
     1
100
AcDbLine
 10
188.3215
 20
131.576937
 30
0.0
 11
188.550507
 21
142.693896
 31
0.0
  0
LINE
  5
3E
100
AcDbEntity
  8
0
370
     0
  6
Continuous
 62
     1
100
AcDbLine
 10
188.550507
 20
142.693896
 30
0.0
 11
181.347014
 21
139.337344
 31
0.0
  0
LINE
  5
3F
100
AcDbEntity
  8
0
370
     0
  6
Continuous
 62
     1
100
AcDbLine
 10
181.347014
 20
139.337344
 30
0.0
 11
179.995803
 21
127.280149
 31
0.0
  0
LINE
  5
40
100
AcDbEntity
  8
0
370
     0
  6
Continuous
 62
     1
100
AcDbLine
 10
176.308657
 20
125.377259
 30
0.0
 11
175.396252
 21
138.079563
 31
0.0
  0
LINE
  5
41
100
AcDbEntity
  8
0
370
     0
  6
Continuous
 62
     1
100
AcDbLine
 10
175.396252
 20
138.079563
 30
0.0
 11
168.591378
 21
134.380026
 31
0.0
  0
LINE
  5
42
100
AcDbEntity
  8
0
370
     0
  6
Continuous
 62
     1
100
AcDbLine
 10
168.591378
 20
134.380026
 30
0.0
 11
168.453887
 21
121.32351
 31
0.0
  0
LINE
  5
43
100
AcDbEntity
  8
0
370
     0
  6
Continuous
 62
     1
100
AcDbLine
 10
195.704867
 20
135.387401
 30
0.0
 11
188.3215
 21
131.576937
 31
0.0
  0
LINE
  5
44
100
AcDbEntity
  8
0
370
     0
  6
Continuous
 62
     1
100
AcDbLine
 10
179.995803
 20
127.280149
 30
0.0
 11
176.308657
 21
125.377259
 31
0.0
  0
LINE
  5
45
100
AcDbEntity
  8
0
370
     0
  6
Continuous
 62
     1
100
AcDbLine
 10
168.453887
 20
121.32351
 30
0.0
 11
163.662162
 21
118.85056
 31
0.0
  0
LINE
  5
46
100
AcDbEntity
  8
0
370
     0
  6
Continuous
 62
     1
100
AcDbLine
 10
131.757046
 20
118.85056
 30
0.0
 11
140.909604
 21
124.134797
 31
0.0
  0
LINE
  5
47
100
AcDbEntity
  8
0
370
     0
  6
Continuous
 62
     1
100
AcDbLine
 10
142.217885
 20
151.853599
 30
0.0
 11
132.704815
 21
157.610397
 31
0.0
  0
LINE
  5
48
100
AcDbEntity
  8
0
370
     0
  6
Continuous
 62
     1
100
AcDbLine
 10
132.704815
 20
157.610397
 30
0.0
 11
132.009935
 21
149.693713
 31
0.0
  0
LINE
  5
49
100
AcDbEntity
  8
0
370
     0
  6
Continuous
 62
     1
100
AcDbLine
 10
132.009935
 20
149.693713
 30
0.0
 11
141.776172
 21
142.49494
 31
0.0
  0
LINE
  5
4A
100
AcDbEntity
  8
0
370
     0
  6
Continuous
 62
     1
100
AcDbLine
 10
141.580554
 20
138.350333
 30
0.0
 11
130.123828
 21
143.91131
 31
0.0
  0
LINE
  5
4B
100
AcDbEntity
  8
0
370
     0
  6
Continuous
 62
     1
100
AcDbLine
 10
130.123828
 20
143.91131
 30
0.0
 11
129.92529
 21
136.168348
 31
0.0
  0
LINE
  5
4C
100
AcDbEntity
  8
0
370
     0
  6
Continuous
 62
     1
100
AcDbLine
 10
129.92529
 20
136.168348
 30
0.0
 11
141.163825
 21
129.521028
 31
0.0
  0
LINE
  5
4D
100
AcDbEntity
  8
0
370
     0
  6
Continuous
 62
     1
100
AcDbLine
 10
142.609604
 20
160.153016
 30
0.0
 11
142.217885
 21
151.853599
 31
0.0
  0
LINE
  5
4E
100
AcDbEntity
  8
0
370
     0
  6
Continuous
 62
     1
100
AcDbLine
 10
141.776172
 20
142.49494
 30
0.0
 11
141.580554
 21
138.350333
 31
0.0
  0
LINE
  5
4F
100
AcDbEntity
  8
0
370
     0
  6
Continuous
 62
     1
100
AcDbLine
 10
141.163825
 20
129.521028
 30
0.0
 11
140.909604
 21
124.134797
 31
0.0
  0
LINE
  5
50
100
AcDbEntity
  8
0
370
     0
  6
Continuous
 62
     1
100
AcDbLine
 10
99.71434
 20
135.387401
 30
0.0
 11
93.718569
 21
132.960085
 31
0.0
  0
LINE
  5
51
100
AcDbEntity
  8
0
370
     0
  6
Continuous
 62
     1
100
AcDbLine
 10
107.097708
 20
131.576937
 30
0.0
 11
106.868701
 21
142.693896
 31
0.0
  0
LINE
  5
52
100
AcDbEntity
  8
0
370
     0
  6
Continuous
 62
     1
100
AcDbLine
 10
106.868701
 20
142.693896
 30
0.0
 11
114.072193
 21
139.337344
 31
0.0
  0
LINE
  5
53
100
AcDbEntity
  8
0
370
     0
  6
Continuous
 62
     1
100
AcDbLine
 10
114.072193
 20
139.337344
 30
0.0
 11
115.423405
 21
127.280149
 31
0.0
  0
LINE
  5
54
100
AcDbEntity
  8
0
370
     0
  6
Continuous
 62
     1
100
AcDbLine
 10
119.11055
 20
125.377259
 30
0.0
 11
120.022956
 21
138.079563
 31
0.0
  0
LINE
  5
55
100
AcDbEntity
  8
0
370
     0
  6
Continuous
 62
     1
100
AcDbLine
 10
120.022956
 20
138.079563
 30
0.0
 11
126.82783
 21
134.380026
 31
0.0
  0
LINE
  5
56
100
AcDbEntity
  8
0
370
     0
  6
Continuous
 62
     1
100
AcDbLine
 10
126.82783
 20
134.380026
 30
0.0
 11
126.965321
 21
121.32351
 31
0.0
  0
LINE
  5
57
100
AcDbEntity
  8
0
370
     0
  6
Continuous
 62
     1
100
AcDbLine
 10
99.71434
 20
135.387401
 30
0.0
 11
107.097708
 21
131.576937
 31
0.0
  0
LINE
  5
58
100
AcDbEntity
  8
0
370
     0
  6
Continuous
 62
     1
100
AcDbLine
 10
115.423405
 20
127.280149
 30
0.0
 11
119.11055
 21
125.377259
 31
0.0
  0
LINE
  5
59
100
AcDbEntity
  8
0
370
     0
  6
Continuous
 62
     1
100
AcDbLine
 10
126.965321
 20
121.32351
 30
0.0
 11
131.757046
 21
118.85056
 31
0.0
  0
LINE
  5
5A
100
AcDbEntity
  8
0
370
     0
  6
Continuous
 62
     1
100
AcDbLine
 10
200.804842
 20
126.553984
 30
0.0
 11
201.700612
 21
132.960133
 31
0.0
  0
LINE
  5
5B
100
AcDbEntity
  8
0
370
     0
  6
Continuous
 62
     1
100
AcDbLine
 10
193.813198
 20
122.065034
 30
0.0
 11
203.555269
 21
116.704878
 31
0.0
  0
LINE
  5
5C
100
AcDbEntity
  8
0
370
     0
  6
Continuous
 62
     1
100
AcDbLine
 10
203.555269
 20
116.704878
 30
0.0
 11
197.046663
 21
112.144748
 31
0.0
  0
LINE
  5
5D
100
AcDbEntity
  8
0
370
     0
  6
Continuous
 62
     1
100
AcDbLine
 10
197.046663
 20
112.144748
 30
0.0
 11
185.929221
 21
117.003165
 31
0.0
  0
LINE
  5
5E
100
AcDbEntity
  8
0
370
     0
  6
Continuous
 62
     1
100
AcDbLine
 10
182.437697
 20
114.761449
 30
0.0
 11
192.982011
 21
107.620128
 31
0.0
  0
LINE
  5
5F
100
AcDbEntity
  8
0
370
     0
  6
Continuous
 62
     1
100
AcDbLine
 10
192.982011
 20
107.620128
 30
0.0
 11
186.37568
 21
103.576704
 31
0.0
  0
LINE
  5
60
100
AcDbEntity
  8
0
370
     0
  6
Continuous
 62
     1
100
AcDbLine
 10
186.37568
 20
103.576704
 30
0.0
 11
174.999661
 21
109.985894
 31
0.0
  0
LINE
  5
61
100
AcDbEntity
  8
0
370
     0
  6
Continuous
 62
     1
100
AcDbLine
 10
200.804842
 20
126.553984
 30
0.0
 11
193.813198
 21
122.065034
 31
0.0
  0
LINE
  5
62
100
AcDbEntity
  8
0
370
     0
  6
Continuous
 62
     1
100
AcDbLine
 10
185.929221
 20
117.003165
 30
0.0
 11
182.437697
 21
114.761449
 31
0.0
  0
LINE
  5
63
100
AcDbEntity
  8
0
370
     0
  6
Continuous
 62
     1
100
AcDbLine
 10
174.999661
 20
109.985894
 30
0.0
 11
170.46216
 21
107.072614
 31
0.0
  0
LINE
  5
64
100
AcDbEntity
  8
0
370
     0
  6
Continuous
 62
     1
100
AcDbLine
 10
94.614366
 20
126.553984
 30
0.0
 11
93.718596
 21
132.960133
 31
0.0
  0
LINE
  5
65
100
AcDbEntity
  8
0
370
     0
  6
Continuous
 62
     1
100
AcDbLine
 10
101.606009
 20
122.065034
 30
0.0
 11
91.863938
 21
116.704878
 31
0.0
  0
LINE
  5
66
100
AcDbEntity
  8
0
370
     0
  6
Continuous
 62
     1
100
AcDbLine
 10
91.863938
 20
116.704878
 30
0.0
 11
98.372545
 21
112.144748
 31
0.0
  0
LINE
  5
67
100
AcDbEntity
  8
0
370
     0
  6
Continuous
 62
     1
100
AcDbLine
 10
98.372545
 20
112.144748
 30
0.0
 11
109.489986
 21
117.003165
 31
0.0
  0
LINE
  5
68
100
AcDbEntity
  8
0
370
     0
  6
Continuous
 62
     1
100
AcDbLine
 10
112.981511
 20
114.761449
 30
0.0
 11
102.437197
 21
107.620128
 31
0.0
  0
LINE
  5
69
100
AcDbEntity
  8
0
370
     0
  6
Continuous
 62
     1
100
AcDbLine
 10
102.437197
 20
107.620128
 30
0.0
 11
109.043528
 21
103.576704
 31
0.0
  0
LINE
  5
6A
100
AcDbEntity
  8
0
370
     0
  6
Continuous
 62
     1
100
AcDbLine
 10
109.043528
 20
103.576704
 30
0.0
 11
120.419547
 21
109.985894
 31
0.0
  0
LINE
  5
6B
100
AcDbEntity
  8
0
370
     0
  6
Continuous
 62
     1
100
AcDbLine
 10
94.614366
 20
126.553984
 30
0.0
 11
101.606009
 21
122.065034
 31
0.0
  0
LINE
  5
6C
100
AcDbEntity
  8
0
370
     0
  6
Continuous
 62
     1
100
AcDbLine
 10
109.489986
 20
117.003165
 30
0.0
 11
112.981511
 21
114.761449
 31
0.0
  0
LINE
  5
6D
100
AcDbEntity
  8
0
370
     0
  6
Continuous
 62
     1
100
AcDbLine
 10
120.419547
 20
109.985894
 30
0.0
 11
124.957047
 21
107.072614
 31
0.0
  0
LINE
  5
6E
100
AcDbEntity
  8
0
370
     0
  6
Continuous
 62
     1
100
AcDbLine
 10
152.809604
 20
43.423738
 30
0.0
 11
147.709604
 21
39.444902
 31
0.0
  0
LINE
  5
6F
100
AcDbEntity
  8
0
370
     0
  6
Continuous
 62
     1
100
AcDbLine
 10
163.662162
 20
84.726194
 30
0.0
 11
154.509604
 21
79.441957
 31
0.0
  0
LINE
  5
70
100
AcDbEntity
  8
0
370
     0
  6
Continuous
 62
     1
100
AcDbLine
 10
153.201322
 20
51.723155
 30
0.0
 11
162.714392
 21
45.966357
 31
0.0
  0
LINE
  5
71
100
AcDbEntity
  8
0
370
     0
  6
Continuous
 62
     1
100
AcDbLine
 10
162.714392
 20
45.966357
 30
0.0
 11
163.409273
 21
53.883041
 31
0.0
  0
LINE
  5
72
100
AcDbEntity
  8
0
370
     0
  6
Continuous
 62
     1
100
AcDbLine
 10
163.409273
 20
53.883041
 30
0.0
 11
153.643036
 21
61.081814
 31
0.0
  0
LINE
  5
73
100
AcDbEntity
  8
0
370
     0
  6
Continuous
 62
     1
100
AcDbLine
 10
153.838654
 20
65.226421
 30
0.0
 11
165.29538
 21
59.665444
 31
0.0
  0
LINE
  5
74
100
AcDbEntity
  8
0
370
     0
  6
Continuous
 62
     1
100
AcDbLine
 10
165.29538
 20
59.665444
 30
0.0
 11
165.493917
 21
67.408407
 31
0.0
  0
LINE
  5
75
100
AcDbEntity
  8
0
370
     0
  6
Continuous
 62
     1
100
AcDbLine
 10
165.493917
 20
67.408407
 30
0.0
 11
154.255383
 21
74.055726
 31
0.0
  0
LINE
  5
76
100
AcDbEntity
  8
0
370
     0
  6
Continuous
 62
     1
100
AcDbLine
 10
152.809604
 20
43.423738
 30
0.0
 11
153.201322
 21
51.723155
 31
0.0
  0
LINE
  5
77
100
AcDbEntity
  8
0
370
     0
  6
Continuous
 62
     1
100
AcDbLine
 10
153.643036
 20
61.081814
 30
0.0
 11
153.838654
 21
65.226421
 31
0.0
  0
LINE
  5
78
100
AcDbEntity
  8
0
370
     0
  6
Continuous
 62
     1
100
AcDbLine
 10
154.255383
 20
74.055726
 30
0.0
 11
154.509604
 21
79.441957
 31
0.0
  0
LINE
  5
79
100
AcDbEntity
  8
0
370
     0
  6
Continuous
 62
     1
100
AcDbLine
 10
195.704867
 20
68.189353
 30
0.0
 11
201.700639
 21
70.616669
 31
0.0
  0
LINE
  5
7A
100
AcDbEntity
  8
0
370
     0
  6
Continuous
 62
     1
100
AcDbLine
 10
188.3215
 20
71.999817
 30
0.0
 11
188.550507
 21
60.882858
 31
0.0
  0
LINE
  5
7B
100
AcDbEntity
  8
0
370
     0
  6
Continuous
 62
     1
100
AcDbLine
 10
188.550507
 20
60.882858
 30
0.0
 11
181.347014
 21
64.23941
 31
0.0
  0
LINE
  5
7C
100
AcDbEntity
  8
0
370
     0
  6
Continuous
 62
     1
100
AcDbLine
 10
181.347014
 20
64.23941
 30
0.0
 11
179.995803
 21
76.296605
 31
0.0
  0
LINE
  5
7D
100
AcDbEntity
  8
0
370
     0
  6
Continuous
 62
     1
100
AcDbLine
 10
176.308657
 20
78.199495
 30
0.0
 11
175.396252
 21
65.497191
 31
0.0
  0
LINE
  5
7E
100
AcDbEntity
  8
0
370
     0
  6
Continuous
 62
     1
100
AcDbLine
 10
175.396252
 20
65.497191
 30
0.0
 11
168.591378
 21
69.196728
 31
0.0
  0
LINE
  5
7F
100
AcDbEntity
  8
0
370
     0
  6
Continuous
 62
     1
100
AcDbLine
 10
168.591378
 20
69.196728
 30
0.0
 11
168.453887
 21
82.253244
 31
0.0
  0
LINE
  5
80
100
AcDbEntity
  8
0
370
     0
  6
Continuous
 62
     1
100
AcDbLine
 10
195.704867
 20
68.189353
 30
0.0
 11
188.3215
 21
71.999817
 31
0.0
  0
LINE
  5
81
100
AcDbEntity
  8
0
370
     0
  6
Continuous
 62
     1
100
AcDbLine
 10
179.995803
 20
76.296605
 30
0.0
 11
176.308657
 21
78.199495
 31
0.0
  0
LINE
  5
82
100
AcDbEntity
  8
0
370
     0
  6
Continuous
 62
     1
100
AcDbLine
 10
168.453887
 20
82.253244
 30
0.0
 11
163.662162
 21
84.726194
 31
0.0
  0
LINE
  5
83
100
AcDbEntity
  8
0
370
     0
  6
Continuous
 62
     1
100
AcDbLine
 10
142.609604
 20
43.423738
 30
0.0
 11
147.709604
 21
39.444902
 31
0.0
  0
LINE
  5
84
100
AcDbEntity
  8
0
370
     0
  6
Continuous
 62
     1
100
AcDbLine
 10
131.757046
 20
84.726194
 30
0.0
 11
140.909604
 21
79.441957
 31
0.0
  0
LINE
  5
85
100
AcDbEntity
  8
0
370
     0
  6
Continuous
 62
     1
100
AcDbLine
 10
142.217885
 20
51.723155
 30
0.0
 11
132.704815
 21
45.966357
 31
0.0
  0
LINE
  5
86
100
AcDbEntity
  8
0
370
     0
  6
Continuous
 62
     1
100
AcDbLine
 10
132.704815
 20
45.966357
 30
0.0
 11
132.009935
 21
53.883041
 31
0.0
  0
LINE
  5
87
100
AcDbEntity
  8
0
370
     0
  6
Continuous
 62
     1
100
AcDbLine
 10
132.009935
 20
53.883041
 30
0.0
 11
141.776172
 21
61.081814
 31
0.0
  0
LINE
  5
88
100
AcDbEntity
  8
0
370
     0
  6
Continuous
 62
     1
100
AcDbLine
 10
141.580554
 20
65.226421
 30
0.0
 11
130.123828
 21
59.665444
 31
0.0
  0
LINE
  5
89
100
AcDbEntity
  8
0
370
     0
  6
Continuous
 62
     1
100
AcDbLine
 10
130.123828
 20
59.665444
 30
0.0
 11
129.92529
 21
67.408407
 31
0.0
  0
LINE
  5
8A
100
AcDbEntity
  8
0
370
     0
  6
Continuous
 62
     1
100
AcDbLine
 10
129.92529
 20
67.408407
 30
0.0
 11
141.163825
 21
74.055726
 31
0.0
  0
LINE
  5
8B
100
AcDbEntity
  8
0
370
     0
  6
Continuous
 62
     1
100
AcDbLine
 10
142.609604
 20
43.423738
 30
0.0
 11
142.217885
 21
51.723155
 31
0.0
  0
LINE
  5
8C
100
AcDbEntity
  8
0
370
     0
  6
Continuous
 62
     1
100
AcDbLine
 10
141.776172
 20
61.081814
 30
0.0
 11
141.580554
 21
65.226421
 31
0.0
  0
LINE
  5
8D
100
AcDbEntity
  8
0
370
     0
  6
Continuous
 62
     1
100
AcDbLine
 10
141.163825
 20
74.055726
 30
0.0
 11
140.909604
 21
79.441957
 31
0.0
  0
LINE
  5
8E
100
AcDbEntity
  8
0
370
     0
  6
Continuous
 62
     1
100
AcDbLine
 10
99.71434
 20
68.189353
 30
0.0
 11
93.718569
 21
70.616669
 31
0.0
  0
LINE
  5
8F
100
AcDbEntity
  8
0
370
     0
  6
Continuous
 62
     1
100
AcDbLine
 10
107.097708
 20
71.999817
 30
0.0
 11
106.868701
 21
60.882858
 31
0.0
  0
LINE
  5
90
100
AcDbEntity
  8
0
370
     0
  6
Continuous
 62
     1
100
AcDbLine
 10
106.868701
 20
60.882858
 30
0.0
 11
114.072193
 21
64.23941
 31
0.0
  0
LINE
  5
91
100
AcDbEntity
  8
0
370
     0
  6
Continuous
 62
     1
100
AcDbLine
 10
114.072193
 20
64.23941
 30
0.0
 11
115.423405
 21
76.296605
 31
0.0
  0
LINE
  5
92
100
AcDbEntity
  8
0
370
     0
  6
Continuous
 62
     1
100
AcDbLine
 10
119.11055
 20
78.199495
 30
0.0
 11
120.022956
 21
65.497191
 31
0.0
  0
LINE
  5
93
100
AcDbEntity
  8
0
370
     0
  6
Continuous
 62
     1
100
AcDbLine
 10
120.022956
 20
65.497191
 30
0.0
 11
126.82783
 21
69.196728
 31
0.0
  0
LINE
  5
94
100
AcDbEntity
  8
0
370
     0
  6
Continuous
 62
     1
100
AcDbLine
 10
126.82783
 20
69.196728
 30
0.0
 11
126.965321
 21
82.253244
 31
0.0
  0
LINE
  5
95
100
AcDbEntity
  8
0
370
     0
  6
Continuous
 62
     1
100
AcDbLine
 10
99.71434
 20
68.189353
 30
0.0
 11
107.097708
 21
71.999817
 31
0.0
  0
LINE
  5
96
100
AcDbEntity
  8
0
370
     0
  6
Continuous
 62
     1
100
AcDbLine
 10
115.423405
 20
76.296605
 30
0.0
 11
119.11055
 21
78.199495
 31
0.0
  0
LINE
  5
97
100
AcDbEntity
  8
0
370
     0
  6
Continuous
 62
     1
100
AcDbLine
 10
126.965321
 20
82.253244
 30
0.0
 11
131.757046
 21
84.726194
 31
0.0
  0
LINE
  5
98
100
AcDbEntity
  8
0
370
     0
  6
Continuous
 62
     1
100
AcDbLine
 10
200.804842
 20
77.02277
 30
0.0
 11
201.700612
 21
70.616621
 31
0.0
  0
LINE
  5
99
100
AcDbEntity
  8
0
370
     0
  6
Continuous
 62
     1
100
AcDbLine
 10
193.813198
 20
81.51172
 30
0.0
 11
203.555269
 21
86.871876
 31
0.0
  0
LINE
  5
9A
100
AcDbEntity
  8
0
370
     0
  6
Continuous
 62
     1
100
AcDbLine
 10
203.555269
 20
86.871876
 30
0.0
 11
197.046663
 21
91.432006
 31
0.0
  0
LINE
  5
9B
100
AcDbEntity
  8
0
370
     0
  6
Continuous
 62
     1
100
AcDbLine
 10
197.046663
 20
91.432006
 30
0.0
 11
185.929221
 21
86.573589
 31
0.0
  0
LINE
  5
9C
100
AcDbEntity
  8
0
370
     0
  6
Continuous
 62
     1
100
AcDbLine
 10
182.437697
 20
88.815305
 30
0.0
 11
192.982011
 21
95.956626
 31
0.0
  0
LINE
  5
9D
100
AcDbEntity
  8
0
370
     0
  6
Continuous
 62
     1
100
AcDbLine
 10
192.982011
 20
95.956626
 30
0.0
 11
186.37568
 21
100.00005
 31
0.0
  0
LINE
  5
9E
100
AcDbEntity
  8
0
370
     0
  6
Continuous
 62
     1
100
AcDbLine
 10
186.37568
 20
100.00005
 30
0.0
 11
174.999661
 21
93.59086
 31
0.0
  0
LINE
  5
9F
100
AcDbEntity
  8
0
370
     0
  6
Continuous
 62
     1
100
AcDbLine
 10
200.804842
 20
77.02277
 30
0.0
 11
193.813198
 21
81.51172
 31
0.0
  0
LINE
  5
A0
100
AcDbEntity
  8
0
370
     0
  6
Continuous
 62
     1
100
AcDbLine
 10
185.929221
 20
86.573589
 30
0.0
 11
182.437697
 21
88.815305
 31
0.0
  0
LINE
  5
A1
100
AcDbEntity
  8
0
370
     0
  6
Continuous
 62
     1
100
AcDbLine
 10
174.999661
 20
93.59086
 30
0.0
 11
170.46216
 21
96.50414
 31
0.0
  0
LINE
  5
A2
100
AcDbEntity
  8
0
370
     0
  6
Continuous
 62
     1
100
AcDbLine
 10
94.614366
 20
77.02277
 30
0.0
 11
93.718596
 21
70.616621
 31
0.0
  0
LINE
  5
A3
100
AcDbEntity
  8
0
370
     0
  6
Continuous
 62
     1
100
AcDbLine
 10
101.606009
 20
81.51172
 30
0.0
 11
91.863938
 21
86.871876
 31
0.0
  0
LINE
  5
A4
100
AcDbEntity
  8
0
370
     0
  6
Continuous
 62
     1
100
AcDbLine
 10
91.863938
 20
86.871876
 30
0.0
 11
98.372545
 21
91.432006
 31
0.0
  0
LINE
  5
A5
100
AcDbEntity
  8
0
370
     0
  6
Continuous
 62
     1
100
AcDbLine
 10
98.372545
 20
91.432006
 30
0.0
 11
109.489986
 21
86.573589
 31
0.0
  0
LINE
  5
A6
100
AcDbEntity
  8
0
370
     0
  6
Continuous
 62
     1
100
AcDbLine
 10
112.981511
 20
88.815305
 30
0.0
 11
102.437197
 21
95.956626
 31
0.0
  0
LINE
  5
A7
100
AcDbEntity
  8
0
370
     0
  6
Continuous
 62
     1
100
AcDbLine
 10
102.437197
 20
95.956626
 30
0.0
 11
109.043528
 21
100.00005
 31
0.0
  0
LINE
  5
A8
100
AcDbEntity
  8
0
370
     0
  6
Continuous
 62
     1
100
AcDbLine
 10
109.043528
 20
100.00005
 30
0.0
 11
120.419547
 21
93.59086
 31
0.0
  0
LINE
  5
A9
100
AcDbEntity
  8
0
370
     0
  6
Continuous
 62
     1
100
AcDbLine
 10
94.614366
 20
77.02277
 30
0.0
 11
101.606009
 21
81.51172
 31
0.0
  0
LINE
  5
AA
100
AcDbEntity
  8
0
370
     0
  6
Continuous
 62
     1
100
AcDbLine
 10
109.489986
 20
86.573589
 30
0.0
 11
112.981511
 21
88.815305
 31
0.0
  0
LINE
  5
AB
100
AcDbEntity
  8
0
370
     0
  6
Continuous
 62
     1
100
AcDbLine
 10
120.419547
 20
93.59086
 30
0.0
 11
124.957047
 21
96.50414
 31
0.0
  0
POLYLINE
  5
AC
100
AcDbEntity
  8
0
370
     0
  6
Continuous
 62
     1
100
AcDb2dPolyline
 66
     1
 10
0.0
 20
0.0
 30
0.0
 70
   128
  0
VERTEX
  5
AD
100
AcDbEntity
  8
0
  6
Continuous
 62
     1
100
AcDbVertex
100
AcDb2dVertex
 10
124.957047
 20
103.338377
 30
0.0
  0
VERTEX
  5
AE
100
AcDbEntity
  8
0
  6
Continuous
 62
     1
100
AcDbVertex
100
AcDb2dVertex
 10
130.957047
 20
103.338377
 30
0.0
  0
VERTEX
  5
AF
100
AcDbEntity
  8
0
  6
Continuous
 62
     1
100
AcDbVertex
100
AcDb2dVertex
 10
130.957047
 20
100.238377
 30
0.0
  0
VERTEX
  5
B0
100
AcDbEntity
  8
0
  6
Continuous
 62
     1
100
AcDbVertex
100
AcDb2dVertex
 10
124.957047
 20
100.238377
 30
0.0
  0
SEQEND
  5
B1
100
AcDbEntity
  8
0
  6
Continuous
 62
     1
  0
POLYLINE
  5
B2
100
AcDbEntity
  8
0
370
     0
  6
Continuous
 62
     1
100
AcDb2dPolyline
 66
     1
 10
0.0
 20
0.0
 30
0.0
 70
   128
  0
VERTEX
  5
B3
100
AcDbEntity
  8
0
  6
Continuous
 62
     1
100
AcDbVertex
100
AcDb2dVertex
 10
170.46216
 20
103.338377
 30
0.0
  0
VERTEX
  5
B4
100
AcDbEntity
  8
0
  6
Continuous
 62
     1
100
AcDbVertex
100
AcDb2dVertex
 10
164.46216
 20
103.338377
 30
0.0
  0
VERTEX
  5
B5
100
AcDbEntity
  8
0
  6
Continuous
 62
     1
100
AcDbVertex
100
AcDb2dVertex
 10
164.46216
 20
100.238377
 30
0.0
  0
VERTEX
  5
B6
100
AcDbEntity
  8
0
  6
Continuous
 62
     1
100
AcDbVertex
100
AcDb2dVertex
 10
170.46216
 20
100.238377
 30
0.0
  0
SEQEND
  5
B7
100
AcDbEntity
  8
0
  6
Continuous
 62
     1
  0
LINE
  5
B8
100
AcDbEntity
  8
0
370
     0
  6
Continuous
 62
     1
100
AcDbLine
 10
124.957047
 20
107.072614
 30
0.0
 11
124.957047
 21
103.338377
 31
0.0
  0
LINE
  5
B9
100
AcDbEntity
  8
0
370
     0
  6
Continuous
 62
     1
100
AcDbLine
 10
124.957047
 20
100.238377
 30
0.0
 11
124.957047
 21
96.50414
 31
0.0
  0
LINE
  5
BA
100
AcDbEntity
  8
0
370
     0
  6
Continuous
 62
     1
100
AcDbLine
 10
170.46216
 20
107.072614
 30
0.0
 11
170.46216
 21
103.338377
 31
0.0
  0
LINE
  5
BB
100
AcDbEntity
  8
0
370
     0
  6
Continuous
 62
     1
100
AcDbLine
 10
170.46216
 20
100.238377
 30
0.0
 11
170.46216
 21
96.50414
 31
0.0
  0
POLYLINE
  5
BC
100
AcDbEntity
  8
0
370
     0
  6
Continuous
 62
     1
100
AcDb2dPolyline
 66
     1
 10
0.0
 20
0.0
 30
0.0
 70
   128
  0
VERTEX
  5
BD
100
AcDbEntity
  8
0
  6
Continuous
 62
     1
100
AcDbVertex
100
AcDb2dVertex
 10
146.159604
 20
162.922598
 30
0.0
  0
VERTEX
  5
BE
100
AcDbEntity
  8
0
  6
Continuous
 62
     1
100
AcDbVertex
100
AcDb2dVertex
 10
146.159604
 20
101.588377
 30
0.0
  0
VERTEX
  5
BF
100
AcDbEntity
  8
0
  6
Continuous
 62
     1
100
AcDbVertex
100
AcDb2dVertex
 10
149.259604
 20
101.588377
 30
0.0
  0
VERTEX
  5
C0
100
AcDbEntity
  8
0
  6
Continuous
 62
     1
100
AcDbVertex
100
AcDb2dVertex
 10
149.259604
 20
162.922598
 30
0.0
  0
SEQEND
  5
C1
100
AcDbEntity
  8
0
  6
Continuous
 62
     1
  0
LINE
  5
C2
100
AcDbEntity
  8
0
370
     0
  6
Continuous
 62
     1
100
AcDbLine
 10
152.809604
 20
160.153016
 30
0.0
 11
149.989997
 21
162.352771
 31
0.0
  0
LINE
  5
C3
100
AcDbEntity
  8
0
370
     0
  6
Continuous
 62
     1
100
AcDbLine
 10
142.609604
 20
160.153016
 30
0.0
 11
146.159604
 21
162.922598
 31
0.0
  0
LINE
  5
C4
100
AcDbEntity
  8
0
370
     0
  6
Continuous
 62
     1
100
AcDbLine
 10
270.034284
 20
106.199508
 30
0.0
 11
274.013121
 21
101.099508
 31
0.0
  0
LINE
  5
C5
100
AcDbEntity
  8
0
370
     0
  6
Continuous
 62
     1
100
AcDbLine
 10
228.731829
 20
117.052066
 30
0.0
 11
234.016065
 21
107.899508
 31
0.0
  0
LINE
  5
C6
100
AcDbEntity
  8
0
370
     0
  6
Continuous
 62
     1
100
AcDbLine
 10
261.734868
 20
106.591227
 30
0.0
 11
267.491665
 21
116.104296
 31
0.0
  0
LINE
  5
C7
100
AcDbEntity
  8
0
370
     0
  6
Continuous
 62
     1
100
AcDbLine
 10
267.491665
 20
116.104296
 30
0.0
 11
259.574982
 21
116.799177
 31
0.0
  0
LINE
  5
C8
100
AcDbEntity
  8
0
370
     0
  6
Continuous
 62
     1
100
AcDbLine
 10
259.574982
 20
116.799177
 30
0.0
 11
252.376209
 21
107.03294
 31
0.0
  0
LINE
  5
C9
100
AcDbEntity
  8
0
370
     0
  6
Continuous
 62
     1
100
AcDbLine
 10
248.231602
 20
107.228558
 30
0.0
 11
253.792578
 21
118.685284
 31
0.0
  0
LINE
  5
CA
100
AcDbEntity
  8
0
370
     0
  6
Continuous
 62
     1
100
AcDbLine
 10
253.792578
 20
118.685284
 30
0.0
 11
246.049616
 21
118.883821
 31
0.0
  0
LINE
  5
CB
100
AcDbEntity
  8
0
370
     0
  6
Continuous
 62
     1
100
AcDbLine
 10
246.049616
 20
118.883821
 30
0.0
 11
239.402296
 21
107.645287
 31
0.0
  0
LINE
  5
CC
100
AcDbEntity
  8
0
370
     0
  6
Continuous
 62
     1
100
AcDbLine
 10
270.034284
 20
106.199508
 30
0.0
 11
261.734868
 21
106.591227
 31
0.0
  0
LINE
  5
CD
100
AcDbEntity
  8
0
370
     0
  6
Continuous
 62
     1
100
AcDbLine
 10
252.376209
 20
107.03294
 30
0.0
 11
248.231602
 21
107.228558
 31
0.0
  0
LINE
  5
CE
100
AcDbEntity
  8
0
370
     0
  6
Continuous
 62
     1
100
AcDbLine
 10
239.402296
 20
107.645287
 30
0.0
 11
234.016065
 21
107.899508
 31
0.0
  0
LINE
  5
CF
100
AcDbEntity
  8
0
370
     0
  6
Continuous
 62
     1
100
AcDbLine
 10
245.268669
 20
149.094772
 30
0.0
 11
242.841353
 21
155.090543
 31
0.0
  0
LINE
  5
D0
100
AcDbEntity
  8
0
370
     0
  6
Continuous
 62
     1
100
AcDbLine
 10
241.458205
 20
141.711404
 30
0.0
 11
252.575164
 21
141.940411
 31
0.0
  0
LINE
  5
D1
100
AcDbEntity
  8
0
370
     0
  6
Continuous
 62
     1
100
AcDbLine
 10
252.575164
 20
141.940411
 30
0.0
 11
249.218612
 21
134.736919
 31
0.0
  0
LINE
  5
D2
100
AcDbEntity
  8
0
370
     0
  6
Continuous
 62
     1
100
AcDbLine
 10
249.218612
 20
134.736919
 30
0.0
 11
237.161417
 21
133.385707
 31
0.0
  0
LINE
  5
D3
100
AcDbEntity
  8
0
370
     0
  6
Continuous
 62
     1
100
AcDbLine
 10
235.258527
 20
129.698562
 30
0.0
 11
247.960832
 21
128.786156
 31
0.0
  0
LINE
  5
D4
100
AcDbEntity
  8
0
370
     0
  6
Continuous
 62
     1
100
AcDbLine
 10
247.960832
 20
128.786156
 30
0.0
 11
244.261294
 21
121.981282
 31
0.0
  0
LINE
  5
D5
100
AcDbEntity
  8
0
370
     0
  6
Continuous
 62
     1
100
AcDbLine
 10
244.261294
 20
121.981282
 30
0.0
 11
231.204778
 21
121.843791
 31
0.0
  0
LINE
  5
D6
100
AcDbEntity
  8
0
370
     0
  6
Continuous
 62
     1
100
AcDbLine
 10
245.268669
 20
149.094772
 30
0.0
 11
241.458205
 21
141.711404
 31
0.0
  0
LINE
  5
D7
100
AcDbEntity
  8
0
370
     0
  6
Continuous
 62
     1
100
AcDbLine
 10
237.161417
 20
133.385707
 30
0.0
 11
235.258527
 21
129.698562
 31
0.0
  0
LINE
  5
D8
100
AcDbEntity
  8
0
370
     0
  6
Continuous
 62
     1
100
AcDbLine
 10
231.204778
 20
121.843791
 30
0.0
 11
228.731829
 21
117.052066
 31
0.0
  0
LINE
  5
D9
100
AcDbEntity
  8
0
370
     0
  6
Continuous
 62
     1
100
AcDbLine
 10
270.034284
 20
95.999508
 30
0.0
 11
274.013121
 21
101.099508
 31
0.0
  0
LINE
  5
DA
100
AcDbEntity
  8
0
370
     0
  6
Continuous
 62
     1
100
AcDbLine
 10
228.731829
 20
85.14695
 30
0.0
 11
234.016065
 21
94.299508
 31
0.0
  0
LINE
  5
DB
100
AcDbEntity
  8
0
370
     0
  6
Continuous
 62
     1
100
AcDbLine
 10
261.734868
 20
95.607789
 30
0.0
 11
267.491665
 21
86.09472
 31
0.0
  0
LINE
  5
DC
100
AcDbEntity
  8
0
370
     0
  6
Continuous
 62
     1
100
AcDbLine
 10
267.491665
 20
86.09472
 30
0.0
 11
259.574982
 21
85.399839
 31
0.0
  0
LINE
  5
DD
100
AcDbEntity
  8
0
370
     0
  6
Continuous
 62
     1
100
AcDbLine
 10
259.574982
 20
85.399839
 30
0.0
 11
252.376209
 21
95.166076
 31
0.0
  0
LINE
  5
DE
100
AcDbEntity
  8
0
370
     0
  6
Continuous
 62
     1
100
AcDbLine
 10
248.231602
 20
94.970458
 30
0.0
 11
253.792578
 21
83.513732
 31
0.0
  0
LINE
  5
DF
100
AcDbEntity
  8
0
370
     0
  6
Continuous
 62
     1
100
AcDbLine
 10
253.792578
 20
83.513732
 30
0.0
 11
246.049616
 21
83.315195
 31
0.0
  0
LINE
  5
E0
100
AcDbEntity
  8
0
370
     0
  6
Continuous
 62
     1
100
AcDbLine
 10
246.049616
 20
83.315195
 30
0.0
 11
239.402296
 21
94.553729
 31
0.0
  0
LINE
  5
E1
100
AcDbEntity
  8
0
370
     0
  6
Continuous
 62
     1
100
AcDbLine
 10
270.034284
 20
95.999508
 30
0.0
 11
261.734868
 21
95.607789
 31
0.0
  0
LINE
  5
E2
100
AcDbEntity
  8
0
370
     0
  6
Continuous
 62
     1
100
AcDbLine
 10
252.376209
 20
95.166076
 30
0.0
 11
248.231602
 21
94.970458
 31
0.0
  0
LINE
  5
E3
100
AcDbEntity
  8
0
370
     0
  6
Continuous
 62
     1
100
AcDbLine
 10
239.402296
 20
94.553729
 30
0.0
 11
234.016065
 21
94.299508
 31
0.0
  0
LINE
  5
E4
100
AcDbEntity
  8
0
370
     0
  6
Continuous
 62
     1
100
AcDbLine
 10
245.268669
 20
53.104245
 30
0.0
 11
242.841353
 21
47.108473
 31
0.0
  0
LINE
  5
E5
100
AcDbEntity
  8
0
370
     0
  6
Continuous
 62
     1
100
AcDbLine
 10
241.458205
 20
60.487612
 30
0.0
 11
252.575164
 21
60.258605
 31
0.0
  0
LINE
  5
E6
100
AcDbEntity
  8
0
370
     0
  6
Continuous
 62
     1
100
AcDbLine
 10
252.575164
 20
60.258605
 30
0.0
 11
249.218612
 21
67.462097
 31
0.0
  0
LINE
  5
E7
100
AcDbEntity
  8
0
370
     0
  6
Continuous
 62
     1
100
AcDbLine
 10
249.218612
 20
67.462097
 30
0.0
 11
237.161417
 21
68.813309
 31
0.0
  0
LINE
  5
E8
100
AcDbEntity
  8
0
370
     0
  6
Continuous
 62
     1
100
AcDbLine
 10
235.258527
 20
72.500454
 30
0.0
 11
247.960832
 21
73.41286
 31
0.0
  0
LINE
  5
E9
100
AcDbEntity
  8
0
370
     0
  6
Continuous
 62
     1
100
AcDbLine
 10
247.960832
 20
73.41286
 30
0.0
 11
244.261294
 21
80.217734
 31
0.0
  0
LINE
  5
EA
100
AcDbEntity
  8
0
370
     0
  6
Continuous
 62
     1
100
AcDbLine
 10
244.261294
 20
80.217734
 30
0.0
 11
231.204778
 21
80.355225
 31
0.0
  0
LINE
  5
EB
100
AcDbEntity
  8
0
370
     0
  6
Continuous
 62
     1
100
AcDbLine
 10
245.268669
 20
53.104245
 30
0.0
 11
241.458205
 21
60.487612
 31
0.0
  0
LINE
  5
EC
100
AcDbEntity
  8
0
370
     0
  6
Continuous
 62
     1
100
AcDbLine
 10
237.161417
 20
68.813309
 30
0.0
 11
235.258527
 21
72.500454
 31
0.0
  0
LINE
  5
ED
100
AcDbEntity
  8
0
370
     0
  6
Continuous
 62
     1
100
AcDbLine
 10
231.204778
 20
80.355225
 30
0.0
 11
228.731829
 21
85.14695
 31
0.0
  0
LINE
  5
EE
100
AcDbEntity
  8
0
370
     0
  6
Continuous
 62
     1
100
AcDbLine
 10
236.435253
 20
154.194746
 30
0.0
 11
242.841401
 21
155.090516
 31
0.0
  0
LINE
  5
EF
100
AcDbEntity
  8
0
370
     0
  6
Continuous
 62
     1
100
AcDbLine
 10
231.946302
 20
147.203102
 30
0.0
 11
226.586146
 21
156.945173
 31
0.0
  0
LINE
  5
F0
100
AcDbEntity
  8
0
370
     0
  6
Continuous
 62
     1
100
AcDbLine
 10
226.249883
 20
156.46523
 30
0.0
 11
222.026016
 21
150.436567
 31
0.0
  0
LINE
  5
F1
100
AcDbEntity
  8
0
370
     0
  6
Continuous
 62
     1
100
AcDbLine
 10
222.026016
 20
150.436567
 30
0.0
 11
226.884433
 21
139.319125
 31
0.0
  0
LINE
  5
F2
100
AcDbEntity
  8
0
370
     0
  6
Continuous
 62
     1
100
AcDbLine
 10
224.642717
 20
135.827601
 30
0.0
 11
217.501396
 21
146.371915
 31
0.0
  0
LINE
  5
F3
100
AcDbEntity
  8
0
370
     0
  6
Continuous
 62
     1
100
AcDbLine
 10
217.501396
 20
146.371915
 30
0.0
 11
213.457973
 21
139.765584
 31
0.0
  0
LINE
  5
F4
100
AcDbEntity
  8
0
370
     0
  6
Continuous
 62
     1
100
AcDbLine
 10
213.457973
 20
139.765584
 30
0.0
 11
219.867162
 21
128.389565
 31
0.0
  0
LINE
  5
F5
100
AcDbEntity
  8
0
370
     0
  6
Continuous
 62
     1
100
AcDbLine
 10
236.435253
 20
154.194746
 30
0.0
 11
231.946302
 21
147.203102
 31
0.0
  0
LINE
  5
F6
100
AcDbEntity
  8
0
370
     0
  6
Continuous
 62
     1
100
AcDbLine
 10
226.884433
 20
139.319125
 30
0.0
 11
224.642717
 21
135.827601
 31
0.0
  0
LINE
  5
F7
100
AcDbEntity
  8
0
370
     0
  6
Continuous
 62
     1
100
AcDbLine
 10
219.867162
 20
128.389565
 30
0.0
 11
216.953882
 21
123.852065
 31
0.0
  0
LINE
  5
F8
100
AcDbEntity
  8
0
370
     0
  6
Continuous
 62
     1
100
AcDbLine
 10
236.435253
 20
48.00427
 30
0.0
 11
242.841401
 21
47.1085
 31
0.0
  0
LINE
  5
F9
100
AcDbEntity
  8
0
370
     0
  6
Continuous
 62
     1
100
AcDbLine
 10
231.946302
 20
54.995914
 30
0.0
 11
226.586146
 21
45.253843
 31
0.0
  0
LINE
  5
FA
100
AcDbEntity
  8
0
370
     0
  6
Continuous
 62
     1
100
AcDbLine
 10
226.586146
 20
45.253843
 30
0.0
 11
222.026016
 21
51.762449
 31
0.0
  0
LINE
  5
FB
100
AcDbEntity
  8
0
370
     0
  6
Continuous
 62
     1
100
AcDbLine
 10
222.026016
 20
51.762449
 30
0.0
 11
226.884433
 21
62.879891
 31
0.0
  0
LINE
  5
FC
100
AcDbEntity
  8
0
370
     0
  6
Continuous
 62
     1
100
AcDbLine
 10
224.642717
 20
66.371415
 30
0.0
 11
217.501396
 21
55.827101
 31
0.0
  0
LINE
  5
FD
100
AcDbEntity
  8
0
370
     0
  6
Continuous
 62
     1
100
AcDbLine
 10
217.501396
 20
55.827101
 30
0.0
 11
213.457973
 21
62.433432
 31
0.0
  0
LINE
  5
FE
100
AcDbEntity
  8
0
370
     0
  6
Continuous
 62
     1
100
AcDbLine
 10
213.457973
 20
62.433432
 30
0.0
 11
219.867162
 21
73.809451
 31
0.0
  0
LINE
  5
FF
100
AcDbEntity
  8
0
370
     0
  6
Continuous
 62
     1
100
AcDbLine
 10
236.435253
 20
48.00427
 30
0.0
 11
231.946302
 21
54.995914
 31
0.0
  0
LINE
  5
100
100
AcDbEntity
  8
0
370
     0
  6
Continuous
 62
     1
100
AcDbLine
 10
226.884433
 20
62.879891
 30
0.0
 11
224.642717
 21
66.371415
 31
0.0
  0
LINE
  5
101
100
AcDbEntity
  8
0
370
     0
  6
Continuous
 62
     1
100
AcDbLine
 10
219.867162
 20
73.809451
 30
0.0
 11
216.953882
 21
78.346952
 31
0.0
  0
LINE
  5
102
100
AcDbEntity
  8
0
370
     0
  6
Continuous
 62
     1
100
AcDbLine
 10
211.669645
 20
78.346952
 30
0.0
 11
216.953882
 21
78.346952
 31
0.0
  0
LINE
  5
103
100
AcDbEntity
  8
0
370
     0
  6
Continuous
 62
     1
100
AcDbLine
 10
211.669645
 20
123.852065
 30
0.0
 11
216.953882
 21
123.852065
 31
0.0
  0
LINE
  5
104
100
AcDbEntity
  8
0
370
     0
  6
Continuous
 62
     1
100
AcDbLine
 10
211.669645
 20
78.346952
 30
0.0
 11
211.669645
 21
84.346952
 31
0.0
  0
LINE
  5
105
100
AcDbEntity
  8
0
370
     0
  6
Continuous
 62
     1
100
AcDbLine
 10
211.669645
 20
84.346952
 30
0.0
 11
213.169645
 21
84.346952
 31
0.0
  0
LINE
  5
106
100
AcDbEntity
  8
0
370
     0
  6
Continuous
 62
     1
100
AcDbLine
 10
213.169645
 20
117.852065
 30
0.0
 11
211.669645
 21
117.852065
 31
0.0
  0
LINE
  5
107
100
AcDbEntity
  8
0
370
     0
  6
Continuous
 62
     1
100
AcDbLine
 10
211.669645
 20
117.852065
 30
0.0
 11
211.669645
 21
123.852065
 31
0.0
  0
POLYLINE
  5
108
100
AcDbEntity
  8
0
370
     0
  6
Continuous
 62
     1
100
AcDb2dPolyline
 66
     1
 10
0.0
 20
0.0
 30
0.0
 70
   128
  0
VERTEX
  5
109
100
AcDbEntity
  8
0
  6
Continuous
 62
     1
100
AcDbVertex
100
AcDb2dVertex
 10
213.169645
 20
99.549508
 30
0.0
  0
VERTEX
  5
10A
100
AcDbEntity
  8
0
  6
Continuous
 62
     1
100
AcDbVertex
100
AcDb2dVertex
 10
228.369645
 20
99.549508
 30
0.0
  0
VERTEX
  5
10B
100
AcDbEntity
  8
0
  6
Continuous
 62
     1
100
AcDbVertex
100
AcDb2dVertex
 10
228.369645
 20
102.649508
 30
0.0
  0
VERTEX
  5
10C
100
AcDbEntity
  8
0
  6
Continuous
 62
     1
100
AcDbVertex
100
AcDb2dVertex
 10
213.169645
 20
102.649508
 30
0.0
  0
SEQEND
  5
10D
100
AcDbEntity
  8
0
  6
Continuous
 62
     1
  0
LINE
  5
10E
100
AcDbEntity
  8
0
370
     0
  6
Continuous
 62
     1
100
AcDbLine
 10
213.169645
 20
84.346952
 30
0.0
 11
213.169645
 21
99.549508
 31
0.0
  0
LINE
  5
10F
100
AcDbEntity
  8
0
370
     0
  6
Continuous
 62
     1
100
AcDbLine
 10
213.169645
 20
102.649508
 30
0.0
 11
213.169645
 21
117.852065
 31
0.0
  0
LINE
  5
110
100
AcDbEntity
  8
0
370
     0
  6
Continuous
 62
     1
100
AcDbLine
 10
149.989997
 20
162.352771
 30
0.0
 11
149.989997
 21
164.58549
 31
0.0
  0
LINE
  5
111
100
AcDbEntity
  8
0
370
     0
  6
Continuous
 62
     1
100
AcDbLine
 10
149.989997
 20
164.58549
 30
0.0
 11
225.953919
 21
164.58549
 31
0.0
  0
LINE
  5
112
100
AcDbEntity
  8
0
370
     0
  6
Continuous
 62
     1
100
AcDbLine
 10
225.953919
 20
164.58549
 30
0.0
 11
226.249883
 21
156.46523
 31
0.0
  0
ENDSEC
  0
SECTION
  2
OBJECTS
  0
DICTIONARY
  5
19
100
AcDbDictionary
280
     0
281
     1
  3
ACAD_GROUP
350
1A
  3
ACAD_MLINESTYLE
350
1B
  3
ACAD_LAYOUT
350
1E
  3
ACAD_PLOTSETTINGS
350
22
  3
ACAD_PLOTSTYLENAME
350
1F
  0
DICTIONARY
  5
1A
102
{ACAD_REACTORS
330
19
102
}
100
AcDbDictionary
280
     0
281
     1
  0
DICTIONARY
  5
1B
102
{ACAD_REACTORS
330
19
102
}
100
AcDbDictionary
280
     0
281
     1
  3
Standard
350
1C
  0
MLINESTYLE
  5
1C
100
AcDbMlineStyle
  2
STANDARD
 70
     0
  3

 62
   256
 51
90.0
 52
90.0
 71
     3
 49
5.0
 62
     1
  6
BYLAYER
 49
0.0
 62
     1
  6
BYLAYER
 49
-5.0
 62
     1
  6
BYLAYER
  0
ACDBDICTIONARYWDFLT
  5
1F
102
{ACAD_REACTORS
330
19
102
}
100
AcDbDictionary
281
     1
  3
Normal
350
1D
100
AcDbDictionaryWithDefault
340
1D
  0
ACDBPLACEHOLDER
  5
1D
102
{ACAD_REACTORS
330
1F
102
}
  0
LAYOUT
  5
21
102
{ACAD_REACTORS
330
1E
102
}
100
AcDbPlotSettings
  1

  2

  4

  6

 40
0.0
 41
0.0
 42
0.0
 43
0.0
 44
0.0
 45
0.0
 46
0.0
 47
0.0
 48
0.0
 49
0.0
140
0.0
141
0.0
142
1.0
143
1.0
 70
     0
 72
     0
 73
     0
 74
     0
  7

 75
     0
147
1.0
148
0.0
149
0.0
100
AcDbLayout
  1
Layout1
 70
     0
 71
     0
 10
0.0
 20
0.0
 11
0.0
 21
0.0
 12
0.0
 22
0.0
 32
0.0
 14
0.0
 24
0.0
 34
0.0
 15
0.0
 25
0.0
 35
0.0
146
0.0
 13
0.0
 23
0.0
 33
0.0
 16
0.0
 26
0.0
 36
0.0
 17
0.0
 27
0.0
 37
0.0
 76
     0
330
B
331
0
345
0
346
0
  0
DICTIONARY
  5
1E
102
{ACAD_REACTORS
330
19
102
}
100
AcDbDictionary
280
     0
281
     1
  3
Model
350
113
  3
Papier 1
350
114
  0
DICTIONARY
  5
22
102
{ACAD_REACTORS
330
19
102
}
100
AcDbDictionary
280
     0
281
     1
  0
LAYOUT
  5
113
100
AcDbPlotSettings
  1

  2

  4

  6

 40
0.0
 41
0.0
 42
0.0
 43
0.0
 44
0.0
 45
0.0
 46
0.0
 47
0.0
 48
0.0
 49
0.0
140
0.0
141
0.0
142
1.0
143
1.0
 70
     0
 72
     0
 73
     0
 74
     0
  7

 75
     0
147
1.0
148
0.0
149
0.0
100
AcDbLayout
  1
Model
 70
     0
 71
     0
 10
0.0
 20
0.0
 11
0.0
 21
0.0
 12
0.0
 22
0.0
 32
0.0
 14
0.0
 24
0.0
 34
0.0
 15
0.0
 25
0.0
 35
0.0
146
0.0
 13
0.0
 23
0.0
 33
0.0
 16
0.0
 26
0.0
 36
0.0
 17
0.0
 27
0.0
 37
0.0
 76
     0
330
A
331
0
345
0
346
0
  0
LAYOUT
  5
114
100
AcDbPlotSettings
  1

  2

  4

  6

 40
0.0
 41
0.0
 42
0.0
 43
0.0
 44
0.0
 45
0.0
 46
0.0
 47
0.0
 48
0.0
 49
0.0
140
0.0
141
0.0
142
1.0
143
1.0
 70
     0
 72
     0
 73
     0
 74
     0
  7

 75
     0
147
1.0
148
0.0
149
0.0
100
AcDbLayout
  1
Papier 1
 70
     1
 71
     1
 10
0.0
 20
0.0
 11
0.0
 21
0.0
 12
0.0
 22
0.0
 32
0.0
 14
0.0
 24
0.0
 34
0.0
 15
0.0
 25
0.0
 35
0.0
146
0.0
 13
0.0
 23
0.0
 33
0.0
 16
0.0
 26
0.0
 36
0.0
 17
0.0
 27
0.0
 37
0.0
 76
     0
330
B
331
0
345
0
346
0
  0
ENDSEC
  0
EOF
