  0
SECTION
  2
HEADER
  9
$ACADVER
  1
AC1015
  9
$ACADMAINTVER
 70
     6
  9
$DWGCODEPAGE
  3
ANSI_1252
  9
$INSBASE
 10
0.0
 20
0.0
 30
0.0
  9
$EXTMIN
 10
-355.383484
 20
-230.065308
 30
0.0
  9
$EXTMAX
 10
124.88089
 20
243.553879
 30
0.0
  9
$LIMMIN
 10
0.0
 20
0.0
  9
$LIMMAX
 10
10.07874
 20
11.811024
  9
$ORTHOMODE
 70
     0
  9
$REGENMODE
 70
     1
  9
$FILLMODE
 70
     1
  9
$QTEXTMODE
 70
     0
  9
$MIRRTEXT
 70
     1
  9
$LTSCALE
 40
1.0
  9
$ATTMODE
 70
     1
  9
$TEXTSIZE
 40
0.2
  9
$TRACEWID
 40
0.05
  9
$TEXTSTYLE
  7
STANDARD
  9
$CLAYER
  8
0
  9
$CELTYPE
  6
Continuous
  9
$CECOLOR
 62
     7
  9
$CELTSCALE
 40
1.0
  9
$DISPSILH
 70
     0
  9
$DIMSCALE
 40
1.0
  9
$DIMASZ
 40
0.18
  9
$DIMEXO
 40
0.0625
  9
$DIMDLI
 40
0.38
  9
$DIMRND
 40
0.0
  9
$DIMDLE
 40
0.0
  9
$DIMEXE
 40
0.18
  9
$DIMTP
 40
0.0
  9
$DIMTM
 40
0.0
  9
$DIMTXT
 40
0.18
  9
$DIMCEN
 40
0.09
  9
$DIMTSZ
 40
0.0
  9
$DIMTOL
 70
     0
  9
$DIMLIM
 70
     0
  9
$DIMTIH
 70
     1
  9
$DIMTOH
 70
     1
  9
$DIMSE1
 70
     0
  9
$DIMSE2
 70
     0
  9
$DIMTAD
 70
     0
  9
$DIMZIN
 70
     0
  9
$DIMBLK
  1

  9
$DIMASO
 70
     0
  9
$DIMSHO
 70
     1
  9
$DIMPOST
  1
<>
  9
$DIMAPOST
  1
<>
  9
$DIMALT
 70
     0
  9
$DIMALTD
 70
     2
  9
$DIMALTF
 40
25.4
  9
$DIMLFAC
 40
1.0
  9
$DIMTOFL
 70
     0
  9
$DIMTVP
 40
0.0
  9
$DIMTIX
 70
     0
  9
$DIMSOXD
 70
     0
  9
$DIMSAH
 70
     0
  9
$DIMBLK1
  1

  9
$DIMBLK2
  1

  9
$DIMSTYLE
  2
STANDARD
  9
$DIMCLRD
 70
     0
  9
$DIMCLRE
 70
     0
  9
$DIMCLRT
 70
     0
  9
$DIMTFAC
 40
1.0
  9
$DIMGAP
 40
0.09
  9
$DIMJUST
 70
     0
  9
$DIMSD1
 70
     0
  9
$DIMSD2
 70
     0
  9
$DIMTOLJ
 70
     1
  9
$DIMTZIN
 70
     0
  9
$DIMALTZ
 70
     0
  9
$DIMALTTZ
 70
     0
  9
$DIMUPT
 70
     0
  9
$DIMDEC
 70
     4
  9
$DIMTDEC
 70
     4
  9
$DIMALTU
 70
     2
  9
$DIMALTTD
 70
     2
  9
$DIMTXSTY
  7
STANDARD
  9
$DIMAUNIT
 70
     0
  9
$DIMADEC
 70
     4
  9
$DIMALTRND
 40
0.0
  9
$DIMAZIN
 70
     0
  9
$DIMDSEP
 70
     0
  9
$DIMATFIT
 70
     0
  9
$DIMFRAC
 70
     0
  9
$DIMLDRBLK
  1

  9
$DIMLUNIT
 70
     2
  9
$DIMLWD
 70
     0
  9
$DIMLWE
 70
     0
  9
$DIMTMOVE
 70
     0
  9
$LUNITS
 70
     2
  9
$LUPREC
 70
     4
  9
$SKETCHINC
 40
0.1
  9
$FILLETRAD
 40
0.0
  9
$AUNITS
 70
     0
  9
$AUPREC
 70
     0
  9
$MENU
  1
acad
  9
$ELEVATION
 40
0.0
  9
$PELEVATION
 40
0.0
  9
$THICKNESS
 40
0.0
  9
$LIMCHECK
 70
     0
  9
$CHAMFERA
 40
0.0
  9
$CHAMFERB
 40
0.0
  9
$CHAMFERC
 40
0.0
  9
$CHAMFERD
 40
0.0
  9
$SKPOLY
 70
     0
  9
$TDCREATE
 40
0.000000000
  9
$TDUCREATE
 40
0.000000000
  9
$TDUPDATE
 40
0.000000000
  9
$TDUUPDATE
 40
0.000000000
  9
$TDINDWG
 40
0.0000000000
  9
$TDUSRTIMER
 40
0.0000000000
  9
$USRTIMER
 70
     1
  9
$ANGBASE
 50
0.0
  9
$ANGDIR
 70
     0
  9
$PDMODE
 70
     0
  9
$PDSIZE
 40
0.0
  9
$PLINEWID
 40
0.0
  9
$SPLFRAME
 70
     0
  9
$SPLINETYPE
 70
     6
  9
$SPLINESEGS
 70
     8
  9
$HANDSEED
  5
2F1
  9
$SURFTAB1
 70
     6
  9
$SURFTAB2
 70
     6
  9
$SURFTYPE
 70
     6
  9
$SURFU
 70
     6
  9
$SURFV
 70
     6
  9
$UCSBASE
  2

  9
$UCSNAME
  2

  9
$UCSORG
 10
0.0
 20
0.0
 30
0.0
  9
$UCSXDIR
 10
1.0
 20
0.0
 30
0.0
  9
$UCSYDIR
 10
0.0
 20
1.0
 30
0.0
  9
$UCSORTHOREF
  2

  9
$UCSORTHOVIEW
 70
     0
  9
$UCSORGTOP
 10
0.0
 20
0.0
 30
0.0
  9
$UCSORGBOTTOM
 10
0.0
 20
0.0
 30
0.0
  9
$UCSORGLEFT
 10
0.0
 20
0.0
 30
0.0
  9
$UCSORGRIGHT
 10
0.0
 20
0.0
 30
0.0
  9
$UCSORGFRONT
 10
0.0
 20
0.0
 30
0.0
  9
$UCSORGBACK
 10
0.0
 20
0.0
 30
0.0
  9
$PUCSBASE
  2

  9
$PUCSNAME
  2

  9
$PUCSORG
 10
0.0
 20
0.0
 30
0.0
  9
$PUCSXDIR
 10
1.0
 20
0.0
 30
0.0
  9
$PUCSYDIR
 10
0.0
 20
1.0
 30
0.0
  9
$PUCSORTHOREF
  2

  9
$PUCSORTHOVIEW
 70
     0
  9
$PUCSORGTOP
 10
0.0
 20
0.0
 30
0.0
  9
$PUCSORGBOTTOM
 10
0.0
 20
0.0
 30
0.0
  9
$PUCSORGLEFT
 10
0.0
 20
0.0
 30
0.0
  9
$PUCSORGRIGHT
 10
0.0
 20
0.0
 30
0.0
  9
$PUCSORGFRONT
 10
0.0
 20
0.0
 30
0.0
  9
$PUCSORGBACK
 10
0.0
 20
0.0
 30
0.0
  9
$USERI1
 70
     0
  9
$USERI2
 70
     0
  9
$USERI3
 70
     0
  9
$USERI4
 70
     0
  9
$USERI5
 70
     0
  9
$USERR1
 40
0.0
  9
$USERR2
 40
0.0
  9
$USERR3
 40
0.0
  9
$USERR4
 40
0.0
  9
$USERR5
 40
0.0
  9
$WORLDVIEW
 70
     1
  9
$SHADEDGE
 70
     3
  9
$SHADEDIF
 70
    70
  9
$TILEMODE
 70
     1
  9
$MAXACTVP
 70
    16
  9
$PINSBASE
 10
0.0
 20
0.0
 30
0.0
  9
$PLIMCHECK
 70
     0
  9
$PEXTMIN
 10
0.0
 20
0.0
 30
0.0
  9
$PEXTMAX
 10
12.0
 20
9.0
 30
0.0
  9
$PLIMMIN
 10
0.0
 20
0.0
  9
$PLIMMAX
 10
12.0
 20
9.0
  9
$UNITMODE
 70
     0
  9
$VISRETAIN
 70
     0
  9
$PLINEGEN
 70
     1
  9
$PSLTSCALE
 70
     0
  9
$TREEDEPTH
 70
  3020
  9
$CMLSTYLE
  2
STANDARD
  9
$CMLJUST
 70
     0
  9
$CMLSCALE
 40
1.0
  9
$PROXYGRAPHICS
 70
     0
  9
$MEASUREMENT
 70
     0
  9
$CELWEIGHT
370
     0
  9
$ENDCAPS
280
     0
  9
$JOINSTYLE
280
     0
  9
$LWDISPLAY
290
     0
  9
$INSUNITS
 70
     0
  9
$HYPERLINKBASE
  1

  9
$XEDIT
290
     1
  9
$CEPSNTYPE
380
     0
  9
$PSTYLEMODE
290
     1
  9
$FINGERPRINTGUID
  2

  9
$VERSIONGUID
  2

  9
$EXTNAMES
290
     1
  9
$PSVPSCALE
 40
0.0
  0
ENDSEC
  0
SECTION
  2
CLASSES
  0
CLASS
  1
LWPOLYLINE
  2
AcDbPolyline
  3
AutoCAD 2000
 90
    32768
280
     0
281
     1
  0
CLASS
  1
IMAGE
  2
AcDbRasterImage
  3
ISM
 90
    32895
280
     0
281
     1
  0
CLASS
  1
OLE2FRAME
  2
AcDbOle2Frame
  3
AutoCAD 2000
 90
    32768
280
     0
281
     1
  0
CLASS
  1
HATCH
  2
AcDbHatch
  3
AutoCAD 2000
 90
    32768
280
     0
281
     1
  0
CLASS
  1
DICTIONARYVAR
  2
AcDbDictionaryVar
  3
AutoCAD 2000
 90
    32768
280
     0
281
     0
  0
CLASS
  1
RASTERVARIABLES
  2
AcDbRasterVariables
  3
ISM
 90
    32768
280
     0
281
     0
  0
CLASS
  1
IMAGEDEF
  2
AcDbRasterImageDef
  3
ISM
 90
    32768
280
     0
281
     0
  0
CLASS
  1
IMAGEDEF_REACTOR
  2
AcDbRasterImageDefReactor
  3
ISM
 90
    32769
280
     0
281
     0
  0
CLASS
  1
IDBUFFER
  2
AcDbIdBuffer
  3
AutoCAD 2000
 90
    32768
280
     0
281
     0
  0
CLASS
  1
SPATIAL_FILTER
  2
AcDbSpatialFilter
  3
AutoCAD 2000
 90
    32768
280
     0
281
     0
  0
CLASS
  1
XRECORD
  2
AcDbXrecord
  3
AutoCAD 2000
 90
    32768
280
     0
281
     0
  0
CLASS
  1
SORTENTSTABLE
  2
AcDbSortentsTable
  3
AutoCAD 2000
 90
    32768
280
     0
281
     0
  0
CLASS
  1
LAYER_INDEX
  2
AcDbLayerIndex
  3
AutoCAD 2000
 90
    32768
280
     0
281
     0
  0
CLASS
  1
SPATIAL_INDEX
  2
AcDbSpatialIndex
  3
AutoCAD 2000
 90
    32768
280
     0
281
     0
  0
CLASS
  1
OBJECT_PTR
  2
CAseDLPNTableRecord
  3
"ASE-LPNTableRecord"
 90
    32769
280
     0
281
     0
  0
CLASS
  1
LAYOUT
  2
AcDbLayout
  3
AutoCAD 2000
 90
        0
280
     0
281
     0
  0
CLASS
  1
PLOTSETTINGS
  2
AcDbPlotSettings
  3
AutoCAD 2000
 90
    32768
280
     0
281
     0
  0
CLASS
  1
ACDBDICTIONARYWDFLT
  2
AcDbDictionaryWithDefault
  3
AutoCAD 2000
 90
        0
280
     0
281
     0
  0
CLASS
  1
ACDBPLACEHOLDER
  2
AcDbPlaceHolder
  3
AutoCAD 2000
 90
        0
280
     0
281
     0
  0
ENDSEC
  0
SECTION
  2
TABLES
  0
TABLE
  2
VPORT
  5
7
100
AcDbSymbolTable
 70
     1
  0
VPORT
  5
15
100
AcDbSymbolTableRecord
100
AcDbViewportTableRecord
  2
*ACTIVE
 70
     0
 10
0.0
 20
0.0
 11
1.0
 21
1.0
 12
0.0
 22
0.0
 13
0.0
 23
0.0
 14
0.0
 24
0.0
 15
0.0
 25
0.0
 16
0.0
 26
0.0
 36
1.0
 17
-124.541445
 27
-17.694875
 37
1.0
 40
498.644348
 41
1.973913
 42
50.0
 43
0.0
 44
0.0
 50
0.0
 51
0.0
 71
     0
 72
   100
 73
     1
 74
     1
 75
     0
 76
     0
 77
     0
 78
     0
281
     0
 65
     0
110
0.0
120
0.0
130
0.0
111
1.0
121
0.0
131
0.0
112
0.0
122
1.0
132
0.0
345
0
346
0
 79
     0
146
0.0
  0
ENDTAB
  0
TABLE
  2
LTYPE
  5
4
100
AcDbSymbolTable
 70
    14
  0
LTYPE
  5
11
100
AcDbSymbolTableRecord
100
AcDbLinetypeTableRecord
  2
ByBlock
 70
    64
  3

 72
    65
 73
     0
 40
0.0
  0
LTYPE
  5
12
100
AcDbSymbolTableRecord
100
AcDbLinetypeTableRecord
  2
ByLayer
 70
    64
  3

 72
    65
 73
     0
 40
0.0
  0
LTYPE
  5
13
100
AcDbSymbolTableRecord
100
AcDbLinetypeTableRecord
  2
Continuous
 70
    64
  3
Solid line
 72
    65
 73
     0
 40
0.0
  0
LTYPE
  5
24
100
AcDbSymbolTableRecord
100
AcDbLinetypeTableRecord
  2
BORDER
 70
     0
  3
BORDER
 72
    65
 73
     6
 40
1.75
 49
0.5
 74
     0
 49
-0.25
 74
     0
 49
0.5
 74
     0
 49
-0.25
 74
     0
 49
0.0
 74
     0
 49
-0.25
 74
     0
  0
LTYPE
  5
25
100
AcDbSymbolTableRecord
100
AcDbLinetypeTableRecord
  2
CENTER
 70
     0
  3
CENTER
 72
    65
 73
     4
 40
2.0
 49
1.25
 74
     0
 49
-0.25
 74
     0
 49
0.25
 74
     0
 49
-0.25
 74
     0
  0
LTYPE
  5
26
100
AcDbSymbolTableRecord
100
AcDbLinetypeTableRecord
  2
DASHDOT
 70
     0
  3
DASHDOT
 72
    65
 73
     4
 40
1.0
 49
0.5
 74
     0
 49
-0.25
 74
     0
 49
0.0
 74
     0
 49
-0.25
 74
     0
  0
LTYPE
  5
27
100
AcDbSymbolTableRecord
100
AcDbLinetypeTableRecord
  2
DASHED
 70
     0
  3
DASHED
 72
    65
 73
     2
 40
0.75
 49
0.5
 74
     0
 49
-0.25
 74
     0
  0
LTYPE
  5
28
100
AcDbSymbolTableRecord
100
AcDbLinetypeTableRecord
  2
DIVIDE
 70
     0
  3
DIVIDE
 72
    65
 73
     6
 40
1.25
 49
0.5
 74
     0
 49
-0.25
 74
     0
 49
0.0
 74
     0
 49
-0.25
 74
     0
 49
0.0
 74
     0
 49
-0.25
 74
     0
  0
LTYPE
  5
29
100
AcDbSymbolTableRecord
100
AcDbLinetypeTableRecord
  2
DOT
 70
     0
  3
DOT
 72
    65
 73
     2
 40
0.25
 49
0.0
 74
     0
 49
-0.25
 74
     0
  0
LTYPE
  5
2A
100
AcDbSymbolTableRecord
100
AcDbLinetypeTableRecord
  2
HIDDEN
 70
     0
  3
HIDDEN
 72
    65
 73
     2
 40
0.375
 49
0.25
 74
     0
 49
-0.125
 74
     0
  0
LTYPE
  5
2B
100
AcDbSymbolTableRecord
100
AcDbLinetypeTableRecord
  2
PHANTOM
 70
     0
  3
PHANTOM
 72
    65
 73
     6
 40
2.5
 49
1.25
 74
     0
 49
-0.25
 74
     0
 49
0.25
 74
     0
 49
-0.25
 74
     0
 49
0.25
 74
     0
 49
-0.25
 74
     0
  0
LTYPE
  5
2C
100
AcDbSymbolTableRecord
100
AcDbLinetypeTableRecord
  2
$INVISIBLE
 70
     0
  3
$INVISIBLE
 72
    65
 73
     2
 40
200.0
 49
-100.0
 74
     0
 49
-100.0
 74
     0
  0
LTYPE
  5
2D
100
AcDbSymbolTableRecord
100
AcDbLinetypeTableRecord
  2
$SNAPEXT
 70
     0
  3
$SNAPEXT
 72
    65
 73
     2
 40
0.04
 49
0.02
 74
     0
 49
-0.02
 74
     0
  0
LTYPE
  5
2E
100
AcDbSymbolTableRecord
100
AcDbLinetypeTableRecord
  2
$AUXILIARY
 70
     0
  3
$AUXILIARY
 72
    65
 73
     2
 40
0.1
 49
0.05
 74
     0
 49
-0.05
 74
     0
  0
ENDTAB
  0
TABLE
  2
LAYER
  5
2
100
AcDbSymbolTable
 70
     3
  0
LAYER
  5
14
100
AcDbSymbolTableRecord
100
AcDbLayerTableRecord
  2
0
 70
     0
 62
     7
  6
Continuous
290
     1
370
    -3
390
0
1001
TCAD
1000
TCW_LAYER_ORDER
1002
{
1071
        0
1002
}
  0
LAYER
  5
2F
100
AcDbSymbolTableRecord
100
AcDbLayerTableRecord
  2
tool_path
 70
     0
 62
     7
  6
Continuous
290
     1
370
    -3
390
0
1001
TCAD
1000
TCW_LAYER_ORDER
1002
{
1071
        0
1002
}
  0
LAYER
  5
30
100
AcDbSymbolTableRecord
100
AcDbLayerTableRecord
  2
annotation
 70
     0
 62
     7
  6
Continuous
290
     1
370
    -3
390
0
1001
TCAD
1000
TCW_LAYER_ORDER
1002
{
1071
        0
1002
}
  0
ENDTAB
  0
TABLE
  2
STYLE
  5
3
100
AcDbSymbolTable
 70
     1
  0
STYLE
  5
17
100
AcDbSymbolTableRecord
100
AcDbTextStyleTableRecord
  2
STANDARD
 70
     0
 40
0.0
 41
1.0
 50
0.0
 71
     0
 42
0.0
  3
TXT.SHX
  4

  0
ENDTAB
  0
TABLE
  2
VIEW
  5
5
100
AcDbSymbolTable
 70
     1
  0
VIEW
  5
31
100
AcDbSymbolTableRecord
100
AcDbViewTableRecord
  2
Vue_0
 70
     0
 40
210.0
 10
148.5
 20
105.0
 41
297.0
 11
0.0
 21
0.0
 31
1.0
 12
0.0
 22
0.0
 32
0.0
 42
50.0
 43
0.0
 44
0.0
 50
0.0
 71
     0
281
     0
 72
     0
110
0.0
120
0.0
130
0.0
111
1.0
121
0.0
131
0.0
112
0.0
122
1.0
132
0.0
  0
ENDTAB
  0
TABLE
  2
UCS
  5
6
100
AcDbSymbolTable
 70
     0
  0
ENDTAB
  0
TABLE
  2
APPID
  5
8
100
AcDbSymbolTable
 70
     2
  0
APPID
  5
16
100
AcDbSymbolTableRecord
100
AcDbRegAppTableRecord
  2
ACAD
 70
     0
  0
APPID
  5
23
100
AcDbSymbolTableRecord
100
AcDbRegAppTableRecord
  2
TCAD
 70
     0
  0
ENDTAB
  0
TABLE
  2
DIMSTYLE
  5
9
100
AcDbSymbolTable
 70
     1
100
AcDbDimStyleTable
 71
     0
  0
DIMSTYLE
105
18
100
AcDbSymbolTableRecord
100
AcDbDimStyleTableRecord
  2
STANDARD
 70
     0
  3
<>
  4
<>
 40
1.0
 41
0.18
 42
0.0625
 43
0.38
 44
0.18
 45
0.0
 46
0.0
 47
0.0
 48
0.0
 71
     0
 72
     0
 73
     1
 74
     1
 75
     0
 76
     0
 77
     0
 78
     0
 79
     0
140
0.18
141
0.09
142
0.0
143
25.4
144
1.0
145
0.0
146
1.0
147
0.09
148
0.01
170
     0
171
     2
172
     0
173
     0
174
     0
175
     0
176
     0
177
     0
178
     0
179
     4
271
     4
272
     4
273
     2
274
     2
275
     0
276
     0
277
     2
278
    46
279
     0
280
     0
281
     0
282
     0
283
     1
284
     0
285
     0
286
     0
288
     0
340
17
341
0
342
0
343
0
344
0
371
    -2
372
    -2
  0
ENDTAB
  0
TABLE
  2
BLOCK_RECORD
  5
1
100
AcDbSymbolTable
 70
     0
  0
BLOCK_RECORD
  5
A
100
AcDbSymbolTableRecord
100
AcDbBlockTableRecord
  2
*MODEL_SPACE
340
2EF
  0
BLOCK_RECORD
  5
B
100
AcDbSymbolTableRecord
100
AcDbBlockTableRecord
  2
*PAPER_SPACE
340
2F0
  0
ENDTAB
  0
ENDSEC
  0
SECTION
  2
BLOCKS
  0
BLOCK
  5
D
100
AcDbEntity
  8
0
100
AcDbBlockBegin
  2
*MODEL_SPACE
 70
     0
 10
0.0
 20
0.0
 30
0.0
  3
*MODEL_SPACE
  1

  0
ENDBLK
  5
E
100
AcDbEntity
  8
0
100
AcDbBlockEnd
  0
BLOCK
  5
F
100
AcDbEntity
 67
     1
  8
0
100
AcDbBlockBegin
  2
*PAPER_SPACE
 70
     0
 10
0.0
 20
0.0
 30
0.0
  3
*PAPER_SPACE
  1

  0
ENDBLK
  5
10
100
AcDbEntity
 67
     1
  8
0
100
AcDbBlockEnd
  0
ENDSEC
  0
SECTION
  2
ENTITIES
  0
LINE
  5
32
100
AcDbEntity
  8
0
 62
     7
100
AcDbLine
 10
-116.46991
 20
-167.571776
 30
0.0
 11
-109.481735
 21
-176.738153
 31
0.0
  0
LINE
  5
33
100
AcDbEntity
  8
0
 62
     7
100
AcDbLine
 10
-109.481735
 20
-176.738153
 30
0.0
 11
-96.001421
 21
-167.129536
 31
0.0
  0
LINE
  5
34
100
AcDbEntity
  8
0
 62
     7
100
AcDbLine
 10
-96.001421
 20
-167.129536
 30
0.0
 11
-94.238052
 21
-169.556608
 31
0.0
  0
LINE
  5
35
100
AcDbEntity
  8
0
 62
     7
100
AcDbLine
 10
-94.238052
 20
-169.556608
 30
0.0
 11
-107.438965
 21
-179.147597
 31
0.0
  0
LINE
  5
36
100
AcDbEntity
  8
0
 62
     7
100
AcDbLine
 10
-107.438965
 20
-179.147597
 30
0.0
 11
-96.67955
 21
-193.422321
 31
0.0
  0
LINE
  5
37
100
AcDbEntity
  8
0
 62
     7
100
AcDbLine
 10
-96.67955
 20
-193.422321
 30
0.0
 11
-70.762356
 21
-213.354717
 31
0.0
  0
LINE
  5
38
100
AcDbEntity
  8
0
 62
     7
100
AcDbLine
 10
-70.762356
 20
-213.354717
 30
0.0
 11
-48.258667
 21
-222.67606
 31
0.0
  0
LINE
  5
39
100
AcDbEntity
  8
0
 62
     7
100
AcDbLine
 10
-48.258667
 20
-222.67606
 30
0.0
 11
-43.04011
 21
-207.100424
 31
0.0
  0
LINE
  5
3A
100
AcDbEntity
  8
0
 62
     7
100
AcDbLine
 10
-43.04011
 20
-207.100424
 30
0.0
 11
-40.186928
 21
-208.027473
 31
0.0
  0
LINE
  5
3B
100
AcDbEntity
  8
0
 62
     7
100
AcDbLine
 10
-40.186928
 20
-208.027473
 30
0.0
 11
-45.296722
 21
-223.753807
 31
0.0
  0
LINE
  5
3C
100
AcDbEntity
  8
0
 62
     7
100
AcDbLine
 10
-45.296722
 20
-223.753807
 30
0.0
 11
-40.679967
 21
-225.815246
 31
0.0
  0
LINE
  5
3D
100
AcDbEntity
  8
0
 62
     7
100
AcDbLine
 10
-40.679967
 20
-225.815246
 30
0.0
 11
-8.397558
 21
-230.065301
 31
0.0
  0
LINE
  5
3E
100
AcDbEntity
  8
0
 62
     7
100
AcDbLine
 10
-8.397558
 20
-230.065301
 30
0.0
 11
23.884826
 21
-225.815246
 31
0.0
  0
LINE
  5
3F
100
AcDbEntity
  8
0
 62
     7
100
AcDbLine
 10
23.884826
 20
-225.815246
 30
0.0
 11
28.405315
 21
-223.942808
 31
0.0
  0
LINE
  5
40
100
AcDbEntity
  8
0
 62
     7
100
AcDbLine
 10
28.405315
 20
-223.942808
 30
0.0
 11
23.391812
 21
-208.027448
 31
0.0
  0
LINE
  5
41
100
AcDbEntity
  8
0
 62
     7
100
AcDbLine
 10
23.391812
 20
-208.027448
 30
0.0
 11
26.244994
 21
-207.100399
 31
0.0
  0
LINE
  5
42
100
AcDbEntity
  8
0
 62
     7
100
AcDbLine
 10
26.244994
 20
-207.100399
 30
0.0
 11
31.274524
 21
-222.579743
 31
0.0
  0
LINE
  5
43
100
AcDbEntity
  8
0
 62
     7
100
AcDbLine
 10
31.274524
 20
-222.579743
 30
0.0
 11
53.96724
 21
-213.354717
 31
0.0
  0
LINE
  5
44
100
AcDbEntity
  8
0
 62
     7
100
AcDbLine
 10
53.96724
 20
-213.354717
 30
0.0
 11
79.799573
 21
-193.532862
 31
0.0
  0
LINE
  5
45
100
AcDbEntity
  8
0
 62
     7
100
AcDbLine
 10
79.799573
 20
-193.532862
 30
0.0
 11
90.676996
 21
-179.357122
 31
0.0
  0
LINE
  5
46
100
AcDbEntity
  8
0
 62
     7
100
AcDbLine
 10
90.676996
 20
-179.357122
 30
0.0
 11
77.442936
 21
-169.556582
 31
0.0
  0
LINE
  5
47
100
AcDbEntity
  8
0
 62
     7
100
AcDbLine
 10
77.442936
 20
-169.556582
 30
0.0
 11
79.20628
 21
-167.129536
 31
0.0
  0
LINE
  5
48
100
AcDbEntity
  8
0
 62
     7
100
AcDbLine
 10
79.20628
 20
-167.129536
 30
0.0
 11
92.477094
 21
-176.771325
 31
0.0
  0
LINE
  5
49
100
AcDbEntity
  8
0
 62
     7
100
AcDbLine
 10
92.477094
 20
-176.771325
 30
0.0
 11
99.621429
 21
-167.700503
 31
0.0
  0
LINE
  5
4A
100
AcDbEntity
  8
0
 62
     7
100
AcDbLine
 10
99.621429
 20
-167.700503
 30
0.0
 11
112.081983
 21
-137.618089
 31
0.0
  0
LINE
  5
4B
100
AcDbEntity
  8
0
 62
     7
100
AcDbLine
 10
112.081983
 20
-137.618089
 30
0.0
 11
116.114817
 21
-106.985714
 31
0.0
  0
LINE
  5
4C
100
AcDbEntity
  8
0
 62
     7
100
AcDbLine
 10
116.114817
 20
-106.985714
 30
0.0
 11
99.586123
 21
-106.835727
 31
0.0
  0
LINE
  5
4D
100
AcDbEntity
  8
0
 62
     7
100
AcDbLine
 10
99.586123
 20
-106.835727
 30
0.0
 11
99.586123
 21
-103.835708
 31
0.0
  0
LINE
  5
4E
100
AcDbEntity
  8
0
 62
     7
100
AcDbLine
 10
99.586123
 20
-103.835708
 30
0.0
 11
115.964805
 21
-103.835708
 31
0.0
  0
LINE
  5
4F
100
AcDbEntity
  8
0
 62
     7
100
AcDbLine
 10
115.964805
 20
-103.835708
 30
0.0
 11
112.100169
 21
-73.191446
 31
0.0
  0
LINE
  5
50
100
AcDbEntity
  8
0
 62
     7
100
AcDbLine
 10
112.100169
 20
-73.191446
 30
0.0
 11
99.674743
 21
-43.099609
 31
0.0
  0
LINE
  5
51
100
AcDbEntity
  8
0
 62
     7
100
AcDbLine
 10
99.674743
 20
-43.099609
 30
0.0
 11
92.686619
 21
-33.933257
 31
0.0
  0
LINE
  5
52
100
AcDbEntity
  8
0
 62
     7
100
AcDbLine
 10
92.686619
 20
-33.933257
 30
0.0
 11
79.206306
 21
-43.541899
 31
0.0
  0
LINE
  5
53
100
AcDbEntity
  8
0
 62
     7
100
AcDbLine
 10
79.206306
 20
-43.541899
 30
0.0
 11
77.442961
 21
-41.114828
 31
0.0
  0
LINE
  5
54
100
AcDbEntity
  8
0
 62
     7
100
AcDbLine
 10
77.442961
 20
-41.114828
 30
0.0
 11
90.643849
 21
-31.523838
 31
0.0
  0
LINE
  5
55
100
AcDbEntity
  8
0
 62
     7
100
AcDbLine
 10
90.643849
 20
-31.523838
 30
0.0
 11
79.884409
 21
-17.249089
 31
0.0
  0
LINE
  5
56
100
AcDbEntity
  8
0
 62
     7
100
AcDbLine
 10
79.884409
 20
-17.249089
 30
0.0
 11
53.96724
 21
2.683307
 31
0.0
  0
LINE
  5
57
100
AcDbEntity
  8
0
 62
     7
100
AcDbLine
 10
53.96724
 20
2.683307
 30
0.0
 11
31.463551
 21
12.00465
 31
0.0
  0
LINE
  5
58
100
AcDbEntity
  8
0
 62
     7
100
AcDbLine
 10
31.463551
 20
12.00465
 30
0.0
 11
26.244994
 21
-3.570986
 31
0.0
  0
LINE
  5
59
100
AcDbEntity
  8
0
 62
     7
100
AcDbLine
 10
26.244994
 20
-3.570986
 30
0.0
 11
23.391838
 21
-2.643937
 31
0.0
  0
LINE
  5
5A
100
AcDbEntity
  8
0
 62
     7
100
AcDbLine
 10
23.391838
 20
-2.643937
 30
0.0
 11
28.501632
 21
13.082397
 31
0.0
  0
LINE
  5
5B
100
AcDbEntity
  8
0
 62
     7
100
AcDbLine
 10
28.501632
 20
13.082397
 30
0.0
 11
23.884826
 21
15.143861
 31
0.0
  0
LINE
  5
5C
100
AcDbEntity
  8
0
 62
     7
100
AcDbLine
 10
23.884826
 20
15.143861
 30
0.0
 11
-8.259433
 21
19.37573
 31
0.0
  0
LINE
  5
5D
100
AcDbEntity
  8
0
 62
     7
100
AcDbLine
 10
-8.259433
 20
19.37573
 30
0.0
 11
-40.679967
 21
15.143861
 31
0.0
  0
LINE
  5
5E
100
AcDbEntity
  8
0
 62
     7
100
AcDbLine
 10
-40.679967
 20
15.143861
 30
0.0
 11
-45.200431
 21
13.271424
 31
0.0
  0
LINE
  5
5F
100
AcDbEntity
  8
0
 62
     7
100
AcDbLine
 10
-45.200431
 20
13.271424
 30
0.0
 11
-40.186953
 21
-2.643937
 31
0.0
  0
LINE
  5
60
100
AcDbEntity
  8
0
 62
     7
100
AcDbLine
 10
-40.186953
 20
-2.643937
 30
0.0
 11
-43.04011
 21
-3.570986
 31
0.0
  0
LINE
  5
61
100
AcDbEntity
  8
0
 62
     7
100
AcDbLine
 10
-43.04011
 20
-3.570986
 30
0.0
 11
-48.069665
 21
11.908358
 31
0.0
  0
LINE
  5
62
100
AcDbEntity
  8
0
 62
     7
100
AcDbLine
 10
-48.069665
 20
11.908358
 30
0.0
 11
-70.762356
 21
2.683307
 31
0.0
  0
LINE
  5
63
100
AcDbEntity
  8
0
 62
     7
100
AcDbLine
 10
-70.762356
 20
2.683307
 30
0.0
 11
-96.484199
 21
-17.053738
 31
0.0
  0
LINE
  5
64
100
AcDbEntity
  8
0
 62
     7
100
AcDbLine
 10
-96.484199
 20
-17.053738
 30
0.0
 11
-107.472163
 21
-31.314288
 31
0.0
  0
LINE
  5
65
100
AcDbEntity
  8
0
 62
     7
100
AcDbLine
 10
-107.472163
 20
-31.314288
 30
0.0
 11
-94.238077
 21
-41.114828
 31
0.0
  0
LINE
  5
66
100
AcDbEntity
  8
0
 62
     7
100
AcDbLine
 10
-96.001447
 20
-43.541874
 30
0.0
 11
-109.272235
 21
-33.900059
 31
0.0
  0
LINE
  5
67
100
AcDbEntity
  8
0
 62
     7
100
AcDbLine
 10
-109.272235
 20
-33.900059
 30
0.0
 11
-116.416595
 21
-42.970882
 31
0.0
  0
LINE
  5
68
100
AcDbEntity
  8
0
 62
     7
100
AcDbLine
 10
-128.877124
 20
-73.053296
 30
0.0
 11
-132.909958
 21
-103.685721
 31
0.0
  0
LINE
  5
69
100
AcDbEntity
  8
0
 62
     7
100
AcDbLine
 10
-132.909958
 20
-103.685721
 30
0.0
 11
-116.381264
 21
-103.835708
 31
0.0
  0
LINE
  5
6A
100
AcDbEntity
  8
0
 62
     7
100
AcDbLine
 10
-116.381264
 20
-106.835727
 30
0.0
 11
-132.759971
 21
-106.835727
 31
0.0
  0
LINE
  5
6B
100
AcDbEntity
  8
0
 62
     7
100
AcDbLine
 10
-132.759971
 20
-106.835727
 30
0.0
 11
-128.89531
 21
-137.479938
 31
0.0
  0
LINE
  5
6C
100
AcDbEntity
  8
0
 62
     7
100
AcDbLine
 10
-128.89531
 20
-137.479938
 30
0.0
 11
-116.46991
 21
-167.571776
 31
0.0
  0
LINE
  5
6D
100
AcDbEntity
  8
0
 62
     7
100
AcDbLine
 10
-54.115196
 20
-184.520942
 30
0.0
 11
-57.250114
 21
-182.115435
 31
0.0
  0
LINE
  5
6E
100
AcDbEntity
  8
0
 62
     7
100
AcDbLine
 10
-57.250114
 20
-182.115435
 30
0.0
 11
-73.052089
 21
-169.990186
 31
0.0
  0
LINE
  5
6F
100
AcDbEntity
  8
0
 62
     7
100
AcDbLine
 10
-73.052089
 20
-169.990186
 30
0.0
 11
-75.457596
 21
-166.855267
 31
0.0
  0
LINE
  5
70
100
AcDbEntity
  8
0
 62
     7
100
AcDbLine
 10
-75.457596
 20
-166.855267
 30
0.0
 11
-87.582845
 21
-151.053317
 31
0.0
  0
LINE
  5
71
100
AcDbEntity
  8
0
 62
     7
100
AcDbLine
 10
-87.582845
 20
-151.053317
 30
0.0
 11
-89.095009
 21
-147.402626
 31
0.0
  0
LINE
  5
72
100
AcDbEntity
  8
0
 62
     7
100
AcDbLine
 10
-89.095009
 20
-147.402626
 30
0.0
 11
-96.717269
 21
-129.000885
 31
0.0
  0
LINE
  5
73
100
AcDbEntity
  8
0
 62
     7
100
AcDbLine
 10
-96.717269
 20
-129.000885
 30
0.0
 11
-97.233042
 21
-125.083214
 31
0.0
  0
LINE
  5
74
100
AcDbEntity
  8
0
 62
     7
100
AcDbLine
 10
-97.233042
 20
-85.588196
 30
0.0
 11
-96.717269
 21
-81.670525
 31
0.0
  0
LINE
  5
75
100
AcDbEntity
  8
0
 62
     7
100
AcDbLine
 10
-75.457596
 20
-43.816118
 30
0.0
 11
-73.052089
 21
-40.681199
 31
0.0
  0
LINE
  5
76
100
AcDbEntity
  8
0
 62
     7
100
AcDbLine
 10
-73.052089
 20
-40.681199
 30
0.0
 11
-69.917145
 21
-38.275666
 31
0.0
  0
LINE
  5
77
100
AcDbEntity
  8
0
 62
     7
100
AcDbLine
 10
-69.917145
 20
-38.275666
 30
0.0
 11
-54.115196
 21
-26.150443
 31
0.0
  0
LINE
  5
78
100
AcDbEntity
  8
0
 62
     7
100
AcDbLine
 10
-54.115196
 20
-26.150443
 30
0.0
 11
-35.71348
 21
-18.528182
 31
0.0
  0
LINE
  5
79
100
AcDbEntity
  8
0
 62
     7
100
AcDbLine
 10
-35.71348
 20
-18.528182
 30
0.0
 11
-32.062763
 21
-17.016019
 31
0.0
  0
LINE
  5
7A
100
AcDbEntity
  8
0
 62
     7
100
AcDbLine
 10
-32.062763
 20
-17.016019
 30
0.0
 11
-12.315254
 21
-14.416227
 31
0.0
  0
LINE
  5
7B
100
AcDbEntity
  8
0
 62
     7
100
AcDbLine
 10
-12.315254
 20
-14.416227
 30
0.0
 11
-8.397558
 21
-13.900429
 31
0.0
  0
LINE
  5
7C
100
AcDbEntity
  8
0
 62
     7
100
AcDbLine
 10
-8.397558
 20
-13.900429
 30
0.0
 11
-4.479887
 21
-14.416227
 31
0.0
  0
LINE
  5
7D
100
AcDbEntity
  8
0
 62
     7
100
AcDbLine
 10
-4.479887
 20
-14.416227
 30
0.0
 11
15.267622
 21
-17.016019
 31
0.0
  0
LINE
  5
7E
100
AcDbEntity
  8
0
 62
     7
100
AcDbLine
 10
15.267622
 20
-17.016019
 30
0.0
 11
18.918313
 21
-18.528182
 31
0.0
  0
LINE
  5
7F
100
AcDbEntity
  8
0
 62
     7
100
AcDbLine
 10
18.918313
 20
-18.528182
 30
0.0
 11
37.32008
 21
-26.150443
 31
0.0
  0
LINE
  5
80
100
AcDbEntity
  8
0
 62
     7
100
AcDbLine
 10
37.32008
 20
-26.150443
 30
0.0
 11
53.122004
 21
-38.275666
 31
0.0
  0
LINE
  5
81
100
AcDbEntity
  8
0
 62
     7
100
AcDbLine
 10
53.122004
 20
-38.275666
 30
0.0
 11
56.256923
 21
-40.681199
 31
0.0
  0
LINE
  5
82
100
AcDbEntity
  8
0
 62
     7
100
AcDbLine
 10
56.256923
 20
-40.681199
 30
0.0
 11
58.66243
 21
-43.816118
 31
0.0
  0
LINE
  5
83
100
AcDbEntity
  8
0
 62
     7
100
AcDbLine
 10
58.66243
 20
-43.816118
 30
0.0
 11
70.787704
 21
-59.618067
 31
0.0
  0
LINE
  5
84
100
AcDbEntity
  8
0
 62
     7
100
AcDbLine
 10
70.787704
 20
-59.618067
 30
0.0
 11
72.299868
 21
-63.268784
 31
0.0
  0
LINE
  5
85
100
AcDbEntity
  8
0
 62
     7
100
AcDbLine
 10
72.299868
 20
-63.268784
 30
0.0
 11
79.922128
 21
-81.670525
 31
0.0
  0
LINE
  5
86
100
AcDbEntity
  8
0
 62
     7
100
AcDbLine
 10
79.922128
 20
-81.670525
 30
0.0
 11
80.437901
 21
-85.588196
 31
0.0
  0
LINE
  5
87
100
AcDbEntity
  8
0
 62
     7
100
AcDbLine
 10
80.437901
 20
-85.588196
 30
0.0
 11
83.037718
 21
-105.33568
 31
0.0
  0
LINE
  5
88
100
AcDbEntity
  8
0
 62
     7
100
AcDbLine
 10
83.037718
 20
-105.33568
 30
0.0
 11
80.437901
 21
-125.083214
 31
0.0
  0
LINE
  5
89
100
AcDbEntity
  8
0
 62
     7
100
AcDbLine
 10
80.437901
 20
-125.083214
 30
0.0
 11
79.922128
 21
-129.000885
 31
0.0
  0
LINE
  5
8A
100
AcDbEntity
  8
0
 62
     7
100
AcDbLine
 10
79.922128
 20
-129.000885
 30
0.0
 11
72.299868
 21
-147.402626
 31
0.0
  0
LINE
  5
8B
100
AcDbEntity
  8
0
 62
     7
100
AcDbLine
 10
72.299868
 20
-147.402626
 30
0.0
 11
70.787704
 21
-151.053317
 31
0.0
  0
LINE
  5
8C
100
AcDbEntity
  8
0
 62
     7
100
AcDbLine
 10
70.787704
 20
-151.053317
 30
0.0
 11
58.66243
 21
-166.855267
 31
0.0
  0
LINE
  5
8D
100
AcDbEntity
  8
0
 62
     7
100
AcDbLine
 10
58.66243
 20
-166.855267
 30
0.0
 11
56.256923
 21
-169.990186
 31
0.0
  0
LINE
  5
8E
100
AcDbEntity
  8
0
 62
     7
100
AcDbLine
 10
56.256923
 20
-169.990186
 30
0.0
 11
53.122004
 21
-172.395718
 31
0.0
  0
LINE
  5
8F
100
AcDbEntity
  8
0
 62
     7
100
AcDbLine
 10
53.122004
 20
-172.395718
 30
0.0
 11
37.32008
 21
-184.520942
 31
0.0
  0
LINE
  5
90
100
AcDbEntity
  8
0
 62
     7
100
AcDbLine
 10
37.32008
 20
-184.520942
 30
0.0
 11
33.669363
 21
-186.033131
 31
0.0
  0
LINE
  5
91
100
AcDbEntity
  8
0
 62
     7
100
AcDbLine
 10
33.669363
 20
-186.033131
 30
0.0
 11
15.267622
 21
-193.655366
 31
0.0
  0
LINE
  5
92
100
AcDbEntity
  8
0
 62
     7
100
AcDbLine
 10
15.267622
 20
-193.655366
 30
0.0
 11
-4.479887
 21
-196.255183
 31
0.0
  0
LINE
  5
93
100
AcDbEntity
  8
0
 62
     7
100
AcDbLine
 10
-4.479887
 20
-196.255183
 30
0.0
 11
-8.397558
 21
-196.770955
 31
0.0
  0
LINE
  5
94
100
AcDbEntity
  8
0
 62
     7
100
AcDbLine
 10
-8.397558
 20
-196.770955
 30
0.0
 11
-12.315254
 21
-196.255183
 31
0.0
  0
LINE
  5
95
100
AcDbEntity
  8
0
 62
     7
100
AcDbLine
 10
-12.315254
 20
-196.255183
 30
0.0
 11
-32.062763
 21
-193.655366
 31
0.0
  0
LINE
  5
96
100
AcDbEntity
  8
0
 62
     7
100
AcDbLine
 10
-32.062763
 20
-193.655366
 30
0.0
 11
-50.464504
 21
-186.033131
 31
0.0
  0
LINE
  5
97
100
AcDbEntity
  8
0
 62
     7
100
AcDbLine
 10
-50.464504
 20
-186.033131
 30
0.0
 11
-54.115196
 21
-184.520942
 31
0.0
  0
LINE
  5
98
100
AcDbEntity
  8
0
 62
     7
100
AcDbLine
 10
-349.877521
 20
83.534896
 30
0.0
 11
-339.672156
 21
58.896997
 31
0.0
  0
LINE
  5
99
100
AcDbEntity
  8
0
 62
     7
100
AcDbLine
 10
-339.672156
 20
58.896997
 30
0.0
 11
-337.012344
 21
55.430659
 31
0.0
  0
LINE
  5
9A
100
AcDbEntity
  8
0
 62
     7
100
AcDbLine
 10
-337.012344
 20
55.430659
 30
0.0
 11
-333.108923
 21
50.343573
 31
0.0
  0
LINE
  5
9B
100
AcDbEntity
  8
0
 62
     7
100
AcDbLine
 10
-333.108923
 20
50.343573
 30
0.0
 11
-315.82468
 21
62.715913
 31
0.0
  0
LINE
  5
9C
100
AcDbEntity
  8
0
 62
     7
100
AcDbLine
 10
-315.82468
 20
62.715913
 30
0.0
 11
-314.061311
 21
60.288867
 31
0.0
  0
LINE
  5
9D
100
AcDbEntity
  8
0
 62
     7
100
AcDbLine
 10
-314.061311
 20
60.288867
 30
0.0
 11
-331.066128
 21
47.934129
 31
0.0
  0
LINE
  5
9E
100
AcDbEntity
  8
0
 62
     7
100
AcDbLine
 10
-331.066128
 20
47.934129
 30
0.0
 11
-320.777985
 21
34.273602
 31
0.0
  0
LINE
  5
9F
100
AcDbEntity
  8
0
 62
     7
100
AcDbLine
 10
-320.777985
 20
34.273602
 30
0.0
 11
-317.311647
 21
31.613791
 31
0.0
  0
LINE
  5
A0
100
AcDbEntity
  8
0
 62
     7
100
AcDbLine
 10
-317.311647
 20
31.613791
 30
0.0
 11
-296.154616
 21
15.379431
 31
0.0
  0
LINE
  5
A1
100
AcDbEntity
  8
0
 62
     7
100
AcDbLine
 10
-296.154616
 20
15.379431
 30
0.0
 11
-274.775639
 21
6.52395
 31
0.0
  0
LINE
  5
A2
100
AcDbEntity
  8
0
 62
     7
100
AcDbLine
 10
-274.775639
 20
6.52395
 30
0.0
 11
-268.100112
 21
26.583651
 31
0.0
  0
LINE
  5
A3
100
AcDbEntity
  8
0
 62
     7
100
AcDbLine
 10
-268.100112
 20
26.583651
 30
0.0
 11
-265.246956
 21
25.656602
 31
0.0
  0
LINE
  5
A4
100
AcDbEntity
  8
0
 62
     7
100
AcDbLine
 10
-265.246956
 20
25.656602
 30
0.0
 11
-271.813694
 21
5.446203
 31
0.0
  0
LINE
  5
A5
100
AcDbEntity
  8
0
 62
     7
100
AcDbLine
 10
-271.813694
 20
5.446203
 30
0.0
 11
-267.480073
 21
3.502036
 31
0.0
  0
LINE
  5
A6
100
AcDbEntity
  8
0
 62
     7
100
AcDbLine
 10
-267.480073
 20
3.502036
 30
0.0
 11
-263.14823
 21
2.931755
 31
0.0
  0
LINE
  5
A7
100
AcDbEntity
  8
0
 62
     7
100
AcDbLine
 10
-263.14823
 20
2.931755
 30
0.0
 11
-236.708481
 21
-0.549137
 31
0.0
  0
LINE
  5
A8
100
AcDbEntity
  8
0
 62
     7
100
AcDbLine
 10
-236.708481
 20
-0.549137
 30
0.0
 11
-210.268783
 21
2.931755
 31
0.0
  0
LINE
  5
A9
100
AcDbEntity
  8
0
 62
     7
100
AcDbLine
 10
-210.268783
 20
2.931755
 30
0.0
 11
-205.93694
 21
3.502036
 31
0.0
  0
LINE
  5
AA
100
AcDbEntity
  8
0
 62
     7
100
AcDbLine
 10
-205.93694
 20
3.502036
 30
0.0
 11
-201.900296
 21
5.174067
 31
0.0
  0
LINE
  5
AB
100
AcDbEntity
  8
0
 62
     7
100
AcDbLine
 10
-201.900296
 20
5.174067
 30
0.0
 11
-208.170006
 21
25.656627
 31
0.0
  0
LINE
  5
AC
100
AcDbEntity
  8
0
 62
     7
100
AcDbLine
 10
-208.170006
 20
25.656627
 30
0.0
 11
-205.31685
 21
26.583676
 31
0.0
  0
LINE
  5
AD
100
AcDbEntity
  8
0
 62
     7
100
AcDbLine
 10
-205.31685
 20
26.583676
 30
0.0
 11
-198.83035
 21
6.620292
 31
0.0
  0
LINE
  5
AE
100
AcDbEntity
  8
0
 62
     7
100
AcDbLine
 10
-198.83035
 20
6.620292
 30
0.0
 11
-177.262397
 21
15.379431
 31
0.0
  0
LINE
  5
AF
100
AcDbEntity
  8
0
 62
     7
100
AcDbLine
 10
-177.262397
 20
15.379431
 30
0.0
 11
-156.10534
 21
31.613791
 31
0.0
  0
LINE
  5
B0
100
AcDbEntity
  8
0
 62
     7
100
AcDbLine
 10
-156.10534
 20
31.613791
 30
0.0
 11
-152.639002
 21
34.273602
 31
0.0
  0
LINE
  5
B1
100
AcDbEntity
  8
0
 62
     7
100
AcDbLine
 10
-152.639002
 20
34.273602
 30
0.0
 11
-142.317661
 21
47.72463
 31
0.0
  0
LINE
  5
B2
100
AcDbEntity
  8
0
 62
     7
100
AcDbLine
 10
-142.317661
 20
47.72463
 30
0.0
 11
-159.355651
 21
60.288867
 31
0.0
  0
LINE
  5
B3
100
AcDbEntity
  8
0
 62
     7
100
AcDbLine
 10
-159.355651
 20
60.288867
 30
0.0
 11
-157.592307
 21
62.715913
 31
0.0
  0
LINE
  5
B4
100
AcDbEntity
  8
0
 62
     7
100
AcDbLine
 10
-157.592307
 20
62.715913
 30
0.0
 11
-140.517589
 21
50.3104
 31
0.0
  0
LINE
  5
B5
100
AcDbEntity
  8
0
 62
     7
100
AcDbLine
 10
-140.517589
 20
50.3104
 30
0.0
 11
-136.404618
 21
55.430659
 31
0.0
  0
LINE
  5
B6
100
AcDbEntity
  8
0
 62
     7
100
AcDbLine
 10
-136.404618
 20
55.430659
 30
0.0
 11
-133.744806
 21
58.896997
 31
0.0
  0
LINE
  5
B7
100
AcDbEntity
  8
0
 62
     7
100
AcDbLine
 10
-133.744806
 20
58.896997
 30
0.0
 11
-123.539441
 21
83.534896
 31
0.0
  0
LINE
  5
B8
100
AcDbEntity
  8
0
 62
     7
100
AcDbLine
 10
-123.539441
 20
83.534896
 30
0.0
 11
-121.86741
 21
87.57154
 31
0.0
  0
LINE
  5
B9
100
AcDbEntity
  8
0
 62
     7
100
AcDbLine
 10
-121.86741
 20
87.57154
 30
0.0
 11
-118.386569
 21
114.011264
 31
0.0
  0
LINE
  5
BA
100
AcDbEntity
  8
0
 62
     7
100
AcDbLine
 10
-118.386569
 20
114.011264
 30
0.0
 11
-118.033509
 21
116.693072
 31
0.0
  0
LINE
  5
BB
100
AcDbEntity
  8
0
 62
     7
100
AcDbLine
 10
-118.033509
 20
116.693072
 30
0.0
 11
-139.303037
 21
116.843084
 31
0.0
  0
LINE
  5
BC
100
AcDbEntity
  8
0
 62
     7
100
AcDbLine
 10
-139.303037
 20
116.843084
 30
0.0
 11
-139.303037
 21
119.843078
 31
0.0
  0
LINE
  5
BD
100
AcDbEntity
  8
0
 62
     7
100
AcDbLine
 10
-139.303037
 20
119.843078
 30
0.0
 11
-118.183496
 21
119.843078
 31
0.0
  0
LINE
  5
BE
100
AcDbEntity
  8
0
 62
     7
100
AcDbLine
 10
-118.183496
 20
119.843078
 30
0.0
 11
-118.386569
 21
122.67495
 31
0.0
  0
LINE
  5
BF
100
AcDbEntity
  8
0
 62
     7
100
AcDbLine
 10
-118.386569
 20
122.67495
 30
0.0
 11
-121.86741
 21
149.114673
 31
0.0
  0
LINE
  5
C0
100
AcDbEntity
  8
0
 62
     7
100
AcDbLine
 10
-121.86741
 20
149.114673
 30
0.0
 11
-123.539441
 21
153.151317
 31
0.0
  0
LINE
  5
C1
100
AcDbEntity
  8
0
 62
     7
100
AcDbLine
 10
-123.539441
 20
153.151317
 30
0.0
 11
-133.744806
 21
177.789216
 31
0.0
  0
LINE
  5
C2
100
AcDbEntity
  8
0
 62
     7
100
AcDbLine
 10
-133.744806
 20
177.789216
 30
0.0
 11
-136.404618
 21
181.255554
 31
0.0
  0
LINE
  5
C3
100
AcDbEntity
  8
0
 62
     7
100
AcDbLine
 10
-136.404618
 20
181.255554
 30
0.0
 11
-140.308039
 21
186.34259
 31
0.0
  0
LINE
  5
C4
100
AcDbEntity
  8
0
 62
     7
100
AcDbLine
 10
-140.308039
 20
186.34259
 30
0.0
 11
-157.592282
 21
173.97025
 31
0.0
  0
LINE
  5
C5
100
AcDbEntity
  8
0
 62
     7
100
AcDbLine
 10
-157.592282
 20
173.97025
 30
0.0
 11
-159.355651
 21
176.397321
 31
0.0
  0
LINE
  5
C6
100
AcDbEntity
  8
0
 62
     7
100
AcDbLine
 10
-159.355651
 20
176.397321
 30
0.0
 11
-142.350834
 21
188.752034
 31
0.0
  0
LINE
  5
C7
100
AcDbEntity
  8
0
 62
     7
100
AcDbLine
 10
-142.350834
 20
188.752034
 30
0.0
 11
-152.639002
 21
202.412585
 31
0.0
  0
LINE
  5
C8
100
AcDbEntity
  8
0
 62
     7
100
AcDbLine
 10
-152.639002
 20
202.412585
 30
0.0
 11
-173.796059
 21
218.646995
 31
0.0
  0
LINE
  5
C9
100
AcDbEntity
  8
0
 62
     7
100
AcDbLine
 10
-173.796059
 20
218.646995
 30
0.0
 11
-177.262397
 21
221.306807
 31
0.0
  0
LINE
  5
CA
100
AcDbEntity
  8
0
 62
     7
100
AcDbLine
 10
-177.262397
 20
221.306807
 30
0.0
 11
-198.641323
 21
230.162238
 31
0.0
  0
LINE
  5
CB
100
AcDbEntity
  8
0
 62
     7
100
AcDbLine
 10
-198.641323
 20
230.162238
 30
0.0
 11
-205.316824
 21
210.102537
 31
0.0
  0
LINE
  5
CC
100
AcDbEntity
  8
0
 62
     7
100
AcDbLine
 10
-205.316824
 20
210.102537
 30
0.0
 11
-208.170006
 21
211.029586
 31
0.0
  0
LINE
  5
CD
100
AcDbEntity
  8
0
 62
     7
100
AcDbLine
 10
-208.170006
 20
211.029586
 30
0.0
 11
-201.603243
 21
231.240011
 31
0.0
  0
LINE
  5
CE
100
AcDbEntity
  8
0
 62
     7
100
AcDbLine
 10
-201.603243
 20
231.240011
 30
0.0
 11
-205.93694
 21
233.184177
 31
0.0
  0
LINE
  5
CF
100
AcDbEntity
  8
0
 62
     7
100
AcDbLine
 10
-205.93694
 20
233.184177
 30
0.0
 11
-210.268783
 21
233.754484
 31
0.0
  0
LINE
  5
D0
100
AcDbEntity
  8
0
 62
     7
100
AcDbLine
 10
-210.268783
 20
233.754484
 30
0.0
 11
-236.708481
 21
237.235325
 31
0.0
  0
LINE
  5
D1
100
AcDbEntity
  8
0
 62
     7
100
AcDbLine
 10
-236.708481
 20
237.235325
 30
0.0
 11
-263.14823
 21
233.754484
 31
0.0
  0
LINE
  5
D2
100
AcDbEntity
  8
0
 62
     7
100
AcDbLine
 10
-263.14823
 20
233.754484
 30
0.0
 11
-267.480073
 21
233.184177
 31
0.0
  0
LINE
  5
D3
100
AcDbEntity
  8
0
 62
     7
100
AcDbLine
 10
-267.480073
 20
233.184177
 30
0.0
 11
-271.516717
 21
231.512172
 31
0.0
  0
LINE
  5
D4
100
AcDbEntity
  8
0
 62
     7
100
AcDbLine
 10
-271.516717
 20
231.512172
 30
0.0
 11
-265.246956
 21
211.029612
 31
0.0
  0
LINE
  5
D5
100
AcDbEntity
  8
0
 62
     7
100
AcDbLine
 10
-265.246956
 20
211.029612
 30
0.0
 11
-268.100138
 21
210.102562
 31
0.0
  0
LINE
  5
D6
100
AcDbEntity
  8
0
 62
     7
100
AcDbLine
 10
-268.100138
 20
210.102562
 30
0.0
 11
-274.586637
 21
230.065972
 31
0.0
  0
LINE
  5
D7
100
AcDbEntity
  8
0
 62
     7
100
AcDbLine
 10
-274.586637
 20
230.065972
 30
0.0
 11
-296.154616
 21
221.306807
 31
0.0
  0
LINE
  5
D8
100
AcDbEntity
  8
0
 62
     7
100
AcDbLine
 10
-296.154616
 20
221.306807
 30
0.0
 11
-299.620954
 21
218.646995
 31
0.0
  0
LINE
  5
D9
100
AcDbEntity
  8
0
 62
     7
100
AcDbLine
 10
-299.620954
 20
218.646995
 30
0.0
 11
-320.777985
 21
202.412585
 31
0.0
  0
LINE
  5
DA
100
AcDbEntity
  8
0
 62
     7
100
AcDbLine
 10
-320.777985
 20
202.412585
 30
0.0
 11
-331.099326
 21
188.961558
 31
0.0
  0
LINE
  5
DB
100
AcDbEntity
  8
0
 62
     7
100
AcDbLine
 10
-331.099326
 20
188.961558
 30
0.0
 11
-314.061336
 21
176.397321
 31
0.0
  0
LINE
  5
DC
100
AcDbEntity
  8
0
 62
     7
100
AcDbLine
 10
-315.82468
 20
173.970275
 30
0.0
 11
-332.899424
 21
186.375787
 31
0.0
  0
LINE
  5
DD
100
AcDbEntity
  8
0
 62
     7
100
AcDbLine
 10
-332.899424
 20
186.375787
 30
0.0
 11
-337.012344
 21
181.255554
 31
0.0
  0
LINE
  5
DE
100
AcDbEntity
  8
0
 62
     7
100
AcDbLine
 10
-337.012344
 20
181.255554
 30
0.0
 11
-339.672156
 21
177.789216
 31
0.0
  0
LINE
  5
DF
100
AcDbEntity
  8
0
 62
     7
100
AcDbLine
 10
-339.672156
 20
177.789216
 30
0.0
 11
-349.877521
 21
153.151317
 31
0.0
  0
LINE
  5
E0
100
AcDbEntity
  8
0
 62
     7
100
AcDbLine
 10
-349.877521
 20
153.151317
 30
0.0
 11
-351.549552
 21
149.114673
 31
0.0
  0
LINE
  5
E1
100
AcDbEntity
  8
0
 62
     7
100
AcDbLine
 10
-351.549552
 20
149.114673
 30
0.0
 11
-355.030419
 21
122.67495
 31
0.0
  0
LINE
  5
E2
100
AcDbEntity
  8
0
 62
     7
100
AcDbLine
 10
-355.383479
 20
119.993091
 30
0.0
 11
-334.11395
 21
119.843078
 31
0.0
  0
LINE
  5
E3
100
AcDbEntity
  8
0
 62
     7
100
AcDbLine
 10
-334.11395
 20
116.843084
 30
0.0
 11
-355.233492
 21
116.843084
 31
0.0
  0
LINE
  5
E4
100
AcDbEntity
  8
0
 62
     7
100
AcDbLine
 10
-355.233492
 20
116.843084
 30
0.0
 11
-355.030419
 21
114.011264
 31
0.0
  0
LINE
  5
E5
100
AcDbEntity
  8
0
 62
     7
100
AcDbLine
 10
-355.030419
 20
114.011264
 30
0.0
 11
-351.549552
 21
87.57154
 31
0.0
  0
LINE
  5
E6
100
AcDbEntity
  8
0
 62
     7
100
AcDbLine
 10
-351.549552
 20
87.57154
 30
0.0
 11
-349.877521
 21
83.534896
 31
0.0
  0
LINE
  5
E7
100
AcDbEntity
  8
0
 62
     7
100
AcDbLine
 10
-248.27305
 20
43.749428
 30
0.0
 11
-256.408823
 21
44.820521
 31
0.0
  0
LINE
  5
E8
100
AcDbEntity
  8
0
 62
     7
100
AcDbLine
 10
-256.408823
 20
44.820521
 30
0.0
 11
-267.185281
 21
49.284291
 31
0.0
  0
LINE
  5
E9
100
AcDbEntity
  8
0
 62
     7
100
AcDbLine
 10
-267.185281
 20
49.284291
 30
0.0
 11
-274.766596
 21
52.424569
 31
0.0
  0
LINE
  5
EA
100
AcDbEntity
  8
0
 62
     7
100
AcDbLine
 10
-274.766596
 20
52.424569
 30
0.0
 11
-284.020528
 21
59.525368
 31
0.0
  0
LINE
  5
EB
100
AcDbEntity
  8
0
 62
     7
100
AcDbLine
 10
-284.020528
 20
59.525368
 30
0.0
 11
-290.530751
 21
64.520837
 31
0.0
  0
LINE
  5
EC
100
AcDbEntity
  8
0
 62
     7
100
AcDbLine
 10
-290.530751
 20
64.520837
 30
0.0
 11
-297.631575
 21
73.774793
 31
0.0
  0
LINE
  5
ED
100
AcDbEntity
  8
0
 62
     7
100
AcDbLine
 10
-297.631575
 20
73.774793
 30
0.0
 11
-302.627044
 21
80.285017
 31
0.0
  0
LINE
  5
EE
100
AcDbEntity
  8
0
 62
     7
100
AcDbLine
 10
-302.627044
 20
80.285017
 30
0.0
 11
-307.090789
 21
91.061475
 31
0.0
  0
LINE
  5
EF
100
AcDbEntity
  8
0
 62
     7
100
AcDbLine
 10
-307.090789
 20
91.061475
 30
0.0
 11
-310.231067
 21
98.64279
 31
0.0
  0
LINE
  5
F0
100
AcDbEntity
  8
0
 62
     7
100
AcDbLine
 10
-310.231067
 20
98.64279
 30
0.0
 11
-311.753594
 21
110.20736
 31
0.0
  0
LINE
  5
F1
100
AcDbEntity
  8
0
 62
     7
100
AcDbLine
 10
-311.753594
 20
126.478854
 30
0.0
 11
-310.231067
 21
138.043423
 31
0.0
  0
LINE
  5
F2
100
AcDbEntity
  8
0
 62
     7
100
AcDbLine
 10
-310.231067
 20
138.043423
 30
0.0
 11
-307.090789
 21
145.624739
 31
0.0
  0
LINE
  5
F3
100
AcDbEntity
  8
0
 62
     7
100
AcDbLine
 10
-307.090789
 20
145.624739
 30
0.0
 11
-302.627044
 21
156.401197
 31
0.0
  0
LINE
  5
F4
100
AcDbEntity
  8
0
 62
     7
100
AcDbLine
 10
-297.631575
 20
162.91142
 30
0.0
 11
-290.530751
 21
172.165351
 31
0.0
  0
LINE
  5
F5
100
AcDbEntity
  8
0
 62
     7
100
AcDbLine
 10
-290.530751
 20
172.165351
 30
0.0
 11
-284.020528
 21
177.16082
 31
0.0
  0
LINE
  5
F6
100
AcDbEntity
  8
0
 62
     7
100
AcDbLine
 10
-284.020528
 20
177.16082
 30
0.0
 11
-274.766596
 21
184.261644
 31
0.0
  0
LINE
  5
F7
100
AcDbEntity
  8
0
 62
     7
100
AcDbLine
 10
-274.766596
 20
184.261644
 30
0.0
 11
-267.185281
 21
187.401922
 31
0.0
  0
LINE
  5
F8
100
AcDbEntity
  8
0
 62
     7
100
AcDbLine
 10
-267.185281
 20
187.401922
 30
0.0
 11
-256.408823
 21
191.865693
 31
0.0
  0
LINE
  5
F9
100
AcDbEntity
  8
0
 62
     7
100
AcDbLine
 10
-256.408823
 20
191.865693
 30
0.0
 11
-248.27305
 21
192.936785
 31
0.0
  0
LINE
  5
FA
100
AcDbEntity
  8
0
 62
     7
100
AcDbLine
 10
-248.27305
 20
192.936785
 30
0.0
 11
-236.708481
 21
194.459287
 31
0.0
  0
LINE
  5
FB
100
AcDbEntity
  8
0
 62
     7
100
AcDbLine
 10
-236.708481
 20
194.459287
 30
0.0
 11
-228.572734
 21
193.388194
 31
0.0
  0
LINE
  5
FC
100
AcDbEntity
  8
0
 62
     7
100
AcDbLine
 10
-228.572734
 20
193.388194
 30
0.0
 11
-217.008165
 21
191.865693
 31
0.0
  0
LINE
  5
FD
100
AcDbEntity
  8
0
 62
     7
100
AcDbLine
 10
-217.008165
 20
191.865693
 30
0.0
 11
-206.231707
 21
187.401922
 31
0.0
  0
LINE
  5
FE
100
AcDbEntity
  8
0
 62
     7
100
AcDbLine
 10
-206.231707
 20
187.401922
 30
0.0
 11
-198.650416
 21
184.261644
 31
0.0
  0
LINE
  5
FF
100
AcDbEntity
  8
0
 62
     7
100
AcDbLine
 10
-198.650416
 20
184.261644
 30
0.0
 11
-189.39646
 21
177.16082
 31
0.0
  0
LINE
  5
100
100
AcDbEntity
  8
0
 62
     7
100
AcDbLine
 10
-189.39646
 20
177.16082
 30
0.0
 11
-182.886211
 21
172.165351
 31
0.0
  0
LINE
  5
101
100
AcDbEntity
  8
0
 62
     7
100
AcDbLine
 10
-182.886211
 20
172.165351
 30
0.0
 11
-175.785413
 21
162.91142
 31
0.0
  0
LINE
  5
102
100
AcDbEntity
  8
0
 62
     7
100
AcDbLine
 10
-175.785413
 20
162.91142
 30
0.0
 11
-170.789944
 21
156.401197
 31
0.0
  0
LINE
  5
103
100
AcDbEntity
  8
0
 62
     7
100
AcDbLine
 10
-170.789944
 20
156.401197
 30
0.0
 11
-166.326199
 21
145.624739
 31
0.0
  0
LINE
  5
104
100
AcDbEntity
  8
0
 62
     7
100
AcDbLine
 10
-166.326199
 20
145.624739
 30
0.0
 11
-163.18592
 21
138.043423
 31
0.0
  0
LINE
  5
105
100
AcDbEntity
  8
0
 62
     7
100
AcDbLine
 10
-163.18592
 20
138.043423
 30
0.0
 11
-161.663419
 21
126.478854
 31
0.0
  0
LINE
  5
106
100
AcDbEntity
  8
0
 62
     7
100
AcDbLine
 10
-161.663419
 20
126.478854
 30
0.0
 11
-160.592326
 21
118.343107
 31
0.0
  0
LINE
  5
107
100
AcDbEntity
  8
0
 62
     7
100
AcDbLine
 10
-160.592326
 20
118.343107
 30
0.0
 11
-161.663419
 21
110.20736
 31
0.0
  0
LINE
  5
108
100
AcDbEntity
  8
0
 62
     7
100
AcDbLine
 10
-161.663419
 20
110.20736
 30
0.0
 11
-163.18592
 21
98.64279
 31
0.0
  0
LINE
  5
109
100
AcDbEntity
  8
0
 62
     7
100
AcDbLine
 10
-163.18592
 20
98.64279
 30
0.0
 11
-166.326199
 21
91.061475
 31
0.0
  0
LINE
  5
10A
100
AcDbEntity
  8
0
 62
     7
100
AcDbLine
 10
-166.326199
 20
91.061475
 30
0.0
 11
-170.789944
 21
80.285017
 31
0.0
  0
LINE
  5
10B
100
AcDbEntity
  8
0
 62
     7
100
AcDbLine
 10
-170.789944
 20
80.285017
 30
0.0
 11
-175.785413
 21
73.774793
 31
0.0
  0
LINE
  5
10C
100
AcDbEntity
  8
0
 62
     7
100
AcDbLine
 10
-175.785413
 20
73.774793
 30
0.0
 11
-182.886211
 21
64.520837
 31
0.0
  0
LINE
  5
10D
100
AcDbEntity
  8
0
 62
     7
100
AcDbLine
 10
-182.886211
 20
64.520837
 30
0.0
 11
-189.39646
 21
59.525368
 31
0.0
  0
LINE
  5
10E
100
AcDbEntity
  8
0
 62
     7
100
AcDbLine
 10
-189.39646
 20
59.525368
 30
0.0
 11
-198.650416
 21
52.424569
 31
0.0
  0
LINE
  5
10F
100
AcDbEntity
  8
0
 62
     7
100
AcDbLine
 10
-198.650416
 20
52.424569
 30
0.0
 11
-206.231732
 21
49.284291
 31
0.0
  0
LINE
  5
110
100
AcDbEntity
  8
0
 62
     7
100
AcDbLine
 10
-206.231732
 20
49.284291
 30
0.0
 11
-217.008165
 21
44.820521
 31
0.0
  0
LINE
  5
111
100
AcDbEntity
  8
0
 62
     7
100
AcDbLine
 10
-217.008165
 20
44.820521
 30
0.0
 11
-225.143937
 21
43.749428
 31
0.0
  0
LINE
  5
112
100
AcDbEntity
  8
0
 62
     7
100
AcDbLine
 10
-225.143937
 20
43.749428
 30
0.0
 11
-236.708481
 21
42.226927
 31
0.0
  0
LINE
  5
113
100
AcDbEntity
  8
0
 62
     7
100
AcDbLine
 10
-236.708481
 20
42.226927
 30
0.0
 11
-248.27305
 21
43.749428
 31
0.0
  0
LINE
  5
114
100
AcDbEntity
  8
0
 62
     7
100
AcDbLine
 10
-67.370163
 20
88.838724
 30
0.0
 11
-63.119473
 21
83.299137
 31
0.0
  0
LINE
  5
115
100
AcDbEntity
  8
0
 62
     7
100
AcDbLine
 10
-63.119473
 20
83.299137
 30
0.0
 11
-61.809366
 21
81.591774
 31
0.0
  0
LINE
  5
116
100
AcDbEntity
  8
0
 62
     7
100
AcDbLine
 10
-61.809366
 20
81.591774
 30
0.0
 11
-22.189913
 21
110.191565
 31
0.0
  0
LINE
  5
117
100
AcDbEntity
  8
0
 62
     7
100
AcDbLine
 10
-22.189913
 20
110.191565
 30
0.0
 11
-20.426569
 21
107.764518
 31
0.0
  0
LINE
  5
118
100
AcDbEntity
  8
0
 62
     7
100
AcDbLine
 10
-20.426569
 20
107.764518
 30
0.0
 11
-59.766571
 21
79.18233
 31
0.0
  0
LINE
  5
119
100
AcDbEntity
  8
0
 62
     7
100
AcDbLine
 10
-59.766571
 20
79.18233
 30
0.0
 11
-50.97873
 21
67.47702
 31
0.0
  0
LINE
  5
11A
100
AcDbEntity
  8
0
 62
     7
100
AcDbLine
 10
-50.97873
 20
67.47702
 30
0.0
 11
-45.439117
 21
63.226355
 31
0.0
  0
LINE
  5
11B
100
AcDbEntity
  8
0
 62
     7
100
AcDbLine
 10
-45.439117
 20
63.226355
 30
0.0
 11
-29.617025
 21
51.085612
 31
0.0
  0
LINE
  5
11C
100
AcDbEntity
  8
0
 62
     7
100
AcDbLine
 10
-29.617025
 20
51.085612
 30
0.0
 11
-23.166035
 21
48.413507
 31
0.0
  0
LINE
  5
11D
100
AcDbEntity
  8
0
 62
     7
100
AcDbLine
 10
-23.166035
 20
48.413507
 30
0.0
 11
-11.27251
 21
43.487075
 31
0.0
  0
LINE
  5
11E
100
AcDbEntity
  8
0
 62
     7
100
AcDbLine
 10
-11.27251
 20
43.487075
 30
0.0
 11
3.947525
 21
89.844158
 31
0.0
  0
LINE
  5
11F
100
AcDbEntity
  8
0
 62
     7
100
AcDbLine
 10
3.947525
 20
89.844158
 30
0.0
 11
6.800707
 21
88.917109
 31
0.0
  0
LINE
  5
120
100
AcDbEntity
  8
0
 62
     7
100
AcDbLine
 10
6.800707
 20
88.917109
 30
0.0
 11
-8.310591
 21
42.409328
 31
0.0
  0
LINE
  5
121
100
AcDbEntity
  8
0
 62
     7
100
AcDbLine
 10
-8.310591
 20
42.409328
 30
0.0
 11
-4.740799
 21
40.781543
 31
0.0
  0
LINE
  5
122
100
AcDbEntity
  8
0
 62
     7
100
AcDbLine
 10
-4.740799
 20
40.781543
 30
0.0
 11
2.181971
 21
39.870141
 31
0.0
  0
LINE
  5
123
100
AcDbEntity
  8
0
 62
     7
100
AcDbLine
 10
2.181971
 20
39.870141
 30
0.0
 11
21.954703
 21
37.266996
 31
0.0
  0
LINE
  5
124
100
AcDbEntity
  8
0
 62
     7
100
AcDbLine
 10
21.954703
 20
37.266996
 30
0.0
 11
41.727409
 21
39.870141
 31
0.0
  0
LINE
  5
125
100
AcDbEntity
  8
0
 62
     7
100
AcDbLine
 10
41.727409
 20
39.870141
 30
0.0
 11
48.650179
 21
40.781543
 31
0.0
  0
LINE
  5
126
100
AcDbEntity
  8
0
 62
     7
100
AcDbLine
 10
48.650179
 20
40.781543
 30
0.0
 11
52.12368
 21
42.220326
 31
0.0
  0
LINE
  5
127
100
AcDbEntity
  8
0
 62
     7
100
AcDbLine
 10
52.12368
 20
42.220326
 30
0.0
 11
37.108698
 21
88.917109
 31
0.0
  0
LINE
  5
128
100
AcDbEntity
  8
0
 62
     7
100
AcDbLine
 10
37.108698
 20
88.917109
 30
0.0
 11
39.96188
 21
89.844158
 31
0.0
  0
LINE
  5
129
100
AcDbEntity
  8
0
 62
     7
100
AcDbLine
 10
39.96188
 20
89.844158
 30
0.0
 11
54.992915
 21
43.583392
 31
0.0
  0
LINE
  5
12A
100
AcDbEntity
  8
0
 62
     7
100
AcDbLine
 10
54.992915
 20
43.583392
 30
0.0
 11
67.075415
 21
48.413507
 31
0.0
  0
LINE
  5
12B
100
AcDbEntity
  8
0
 62
     7
100
AcDbLine
 10
67.075415
 20
48.413507
 30
0.0
 11
73.526406
 21
51.085612
 31
0.0
  0
LINE
  5
12C
100
AcDbEntity
  8
0
 62
     7
100
AcDbLine
 10
73.526406
 20
51.085612
 30
0.0
 11
89.348523
 21
63.226355
 31
0.0
  0
LINE
  5
12D
100
AcDbEntity
  8
0
 62
     7
100
AcDbLine
 10
89.348523
 20
63.226355
 30
0.0
 11
94.88811
 21
67.47702
 31
0.0
  0
LINE
  5
12E
100
AcDbEntity
  8
0
 62
     7
100
AcDbLine
 10
94.88811
 20
67.47702
 30
0.0
 11
103.709149
 21
78.972831
 31
0.0
  0
LINE
  5
12F
100
AcDbEntity
  8
0
 62
     7
100
AcDbLine
 10
103.709149
 20
78.972831
 30
0.0
 11
64.335974
 21
107.764544
 31
0.0
  0
LINE
  5
130
100
AcDbEntity
  8
0
 62
     7
100
AcDbLine
 10
64.335974
 20
107.764544
 30
0.0
 11
66.099319
 21
110.19159
 31
0.0
  0
LINE
  5
131
100
AcDbEntity
  8
0
 62
     7
100
AcDbLine
 10
66.099319
 20
110.19159
 30
0.0
 11
105.509222
 21
81.558602
 31
0.0
  0
LINE
  5
132
100
AcDbEntity
  8
0
 62
     7
100
AcDbLine
 10
105.509222
 20
81.558602
 30
0.0
 11
107.028853
 21
83.299137
 31
0.0
  0
LINE
  5
133
100
AcDbEntity
  8
0
 62
     7
100
AcDbLine
 10
107.028853
 20
83.299137
 30
0.0
 11
111.279518
 21
88.838724
 31
0.0
  0
LINE
  5
134
100
AcDbEntity
  8
0
 62
     7
100
AcDbLine
 10
111.279518
 20
88.838724
 30
0.0
 11
118.911507
 21
107.263961
 31
0.0
  0
LINE
  5
135
100
AcDbEntity
  8
0
 62
     7
100
AcDbLine
 10
118.911507
 20
107.263961
 30
0.0
 11
121.583612
 21
113.714951
 31
0.0
  0
LINE
  5
136
100
AcDbEntity
  8
0
 62
     7
100
AcDbLine
 10
121.583612
 20
113.714951
 30
0.0
 11
124.186731
 21
133.487683
 31
0.0
  0
LINE
  5
137
100
AcDbEntity
  8
0
 62
     7
100
AcDbLine
 10
124.186731
 20
133.487683
 30
0.0
 11
124.880888
 21
138.760418
 31
0.0
  0
LINE
  5
138
100
AcDbEntity
  8
0
 62
     7
100
AcDbLine
 10
124.880888
 20
138.760418
 30
0.0
 11
75.834681
 21
138.91043
 31
0.0
  0
LINE
  5
139
100
AcDbEntity
  8
0
 62
     7
100
AcDbLine
 10
75.834681
 20
138.91043
 30
0.0
 11
75.834681
 21
141.910424
 31
0.0
  0
LINE
  5
13A
100
AcDbEntity
  8
0
 62
     7
100
AcDbLine
 10
75.834681
 20
141.910424
 30
0.0
 11
124.730901
 21
141.910424
 31
0.0
  0
LINE
  5
13B
100
AcDbEntity
  8
0
 62
     7
100
AcDbLine
 10
124.730901
 20
141.910424
 30
0.0
 11
124.186731
 21
147.333223
 31
0.0
  0
LINE
  5
13C
100
AcDbEntity
  8
0
 62
     7
100
AcDbLine
 10
124.186731
 20
147.333223
 30
0.0
 11
121.583612
 21
167.105929
 31
0.0
  0
LINE
  5
13D
100
AcDbEntity
  8
0
 62
     7
100
AcDbLine
 10
121.583612
 20
167.105929
 30
0.0
 11
118.911507
 21
173.556919
 31
0.0
  0
LINE
  5
13E
100
AcDbEntity
  8
0
 62
     7
100
AcDbLine
 10
118.911507
 20
173.556919
 30
0.0
 11
111.279518
 21
191.982155
 31
0.0
  0
LINE
  5
13F
100
AcDbEntity
  8
0
 62
     7
100
AcDbLine
 10
111.279518
 20
191.982155
 30
0.0
 11
107.028853
 21
197.521743
 31
0.0
  0
LINE
  5
140
100
AcDbEntity
  8
0
 62
     7
100
AcDbLine
 10
107.028853
 20
197.521743
 30
0.0
 11
105.718772
 21
199.229055
 31
0.0
  0
LINE
  5
141
100
AcDbEntity
  8
0
 62
     7
100
AcDbLine
 10
105.718772
 20
199.229055
 30
0.0
 11
66.099319
 21
170.629264
 31
0.0
  0
LINE
  5
142
100
AcDbEntity
  8
0
 62
     7
100
AcDbLine
 10
66.099319
 20
170.629264
 30
0.0
 11
64.335974
 21
173.056311
 31
0.0
  0
LINE
  5
143
100
AcDbEntity
  8
0
 62
     7
100
AcDbLine
 10
64.335974
 20
173.056311
 30
0.0
 11
103.675977
 21
201.638499
 31
0.0
  0
LINE
  5
144
100
AcDbEntity
  8
0
 62
     7
100
AcDbLine
 10
103.675977
 20
201.638499
 30
0.0
 11
94.88811
 21
213.34386
 31
0.0
  0
LINE
  5
145
100
AcDbEntity
  8
0
 62
     7
100
AcDbLine
 10
94.88811
 20
213.34386
 30
0.0
 11
89.348523
 21
217.594525
 31
0.0
  0
LINE
  5
146
100
AcDbEntity
  8
0
 62
     7
100
AcDbLine
 10
89.348523
 20
217.594525
 30
0.0
 11
73.526406
 21
229.735268
 31
0.0
  0
LINE
  5
147
100
AcDbEntity
  8
0
 62
     7
100
AcDbLine
 10
73.526406
 20
229.735268
 30
0.0
 11
67.075415
 21
232.407373
 31
0.0
  0
LINE
  5
148
100
AcDbEntity
  8
0
 62
     7
100
AcDbLine
 10
67.075415
 20
232.407373
 30
0.0
 11
55.181941
 21
237.333805
 31
0.0
  0
LINE
  5
149
100
AcDbEntity
  8
0
 62
     7
100
AcDbLine
 10
55.181941
 20
237.333805
 30
0.0
 11
39.96188
 21
190.976696
 31
0.0
  0
LINE
  5
14A
100
AcDbEntity
  8
0
 62
     7
100
AcDbLine
 10
39.96188
 20
190.976696
 30
0.0
 11
37.108698
 21
191.903746
 31
0.0
  0
LINE
  5
14B
100
AcDbEntity
  8
0
 62
     7
100
AcDbLine
 10
37.108698
 20
191.903746
 30
0.0
 11
52.219997
 21
238.411552
 31
0.0
  0
LINE
  5
14C
100
AcDbEntity
  8
0
 62
     7
100
AcDbLine
 10
52.219997
 20
238.411552
 30
0.0
 11
48.650179
 21
240.039336
 31
0.0
  0
LINE
  5
14D
100
AcDbEntity
  8
0
 62
     7
100
AcDbLine
 10
48.650179
 20
240.039336
 30
0.0
 11
28.877473
 21
242.642481
 31
0.0
  0
LINE
  5
14E
100
AcDbEntity
  8
0
 62
     7
100
AcDbLine
 10
28.877473
 20
242.642481
 30
0.0
 11
21.954703
 21
243.553884
 31
0.0
  0
LINE
  5
14F
100
AcDbEntity
  8
0
 62
     7
100
AcDbLine
 10
21.954703
 20
243.553884
 30
0.0
 11
2.181971
 21
240.950739
 31
0.0
  0
LINE
  5
150
100
AcDbEntity
  8
0
 62
     7
100
AcDbLine
 10
2.181971
 20
240.950739
 30
0.0
 11
-4.740799
 21
240.039336
 31
0.0
  0
LINE
  5
151
100
AcDbEntity
  8
0
 62
     7
100
AcDbLine
 10
-4.740799
 20
240.039336
 30
0.0
 11
-8.2143
 21
238.600579
 31
0.0
  0
LINE
  5
152
100
AcDbEntity
  8
0
 62
     7
100
AcDbLine
 10
-8.2143
 20
238.600579
 30
0.0
 11
6.800707
 21
191.903746
 31
0.0
  0
LINE
  5
153
100
AcDbEntity
  8
0
 62
     7
100
AcDbLine
 10
6.800707
 20
191.903746
 30
0.0
 11
3.947525
 21
190.976696
 31
0.0
  0
LINE
  5
154
100
AcDbEntity
  8
0
 62
     7
100
AcDbLine
 10
3.947525
 20
190.976696
 30
0.0
 11
-11.083509
 21
237.237513
 31
0.0
  0
LINE
  5
155
100
AcDbEntity
  8
0
 62
     7
100
AcDbLine
 10
-11.083509
 20
237.237513
 30
0.0
 11
-23.166035
 21
232.407373
 31
0.0
  0
LINE
  5
156
100
AcDbEntity
  8
0
 62
     7
100
AcDbLine
 10
-23.166035
 20
232.407373
 30
0.0
 11
-29.617025
 21
229.735293
 31
0.0
  0
LINE
  5
157
100
AcDbEntity
  8
0
 62
     7
100
AcDbLine
 10
-29.617025
 20
229.735293
 30
0.0
 11
-45.439117
 21
217.594525
 31
0.0
  0
LINE
  5
158
100
AcDbEntity
  8
0
 62
     7
100
AcDbLine
 10
-45.439117
 20
217.594525
 30
0.0
 11
-50.97873
 21
213.34386
 31
0.0
  0
LINE
  5
159
100
AcDbEntity
  8
0
 62
     7
100
AcDbLine
 10
-50.97873
 20
213.34386
 30
0.0
 11
-59.799769
 21
201.848049
 31
0.0
  0
LINE
  5
15A
100
AcDbEntity
  8
0
 62
     7
100
AcDbLine
 10
-59.799769
 20
201.848049
 30
0.0
 11
-20.426569
 21
173.056336
 31
0.0
  0
LINE
  5
15B
100
AcDbEntity
  8
0
 62
     7
100
AcDbLine
 10
-20.426569
 20
173.056336
 30
0.0
 11
-22.189938
 21
170.629264
 31
0.0
  0
LINE
  5
15C
100
AcDbEntity
  8
0
 62
     7
100
AcDbLine
 10
-22.189938
 20
170.629264
 30
0.0
 11
-61.599867
 21
199.262278
 31
0.0
  0
LINE
  5
15D
100
AcDbEntity
  8
0
 62
     7
100
AcDbLine
 10
-61.599867
 20
199.262278
 30
0.0
 11
-63.119473
 21
197.521743
 31
0.0
  0
LINE
  5
15E
100
AcDbEntity
  8
0
 62
     7
100
AcDbLine
 10
-63.119473
 20
197.521743
 30
0.0
 11
-67.370163
 21
191.982155
 31
0.0
  0
LINE
  5
15F
100
AcDbEntity
  8
0
 62
     7
100
AcDbLine
 10
-67.370163
 20
191.982155
 30
0.0
 11
-75.002126
 21
173.556919
 31
0.0
  0
LINE
  5
160
100
AcDbEntity
  8
0
 62
     7
100
AcDbLine
 10
-75.002126
 20
173.556919
 30
0.0
 11
-77.674206
 21
167.105929
 31
0.0
  0
LINE
  5
161
100
AcDbEntity
  8
0
 62
     7
100
AcDbLine
 10
-77.674206
 20
167.105929
 30
0.0
 11
-80.277351
 21
147.333223
 31
0.0
  0
LINE
  5
162
100
AcDbEntity
  8
0
 62
     7
100
AcDbLine
 10
-80.277351
 20
147.333223
 30
0.0
 11
-80.971507
 21
142.060411
 31
0.0
  0
LINE
  5
163
100
AcDbEntity
  8
0
 62
     7
100
AcDbLine
 10
-80.971507
 20
142.060411
 30
0.0
 11
-31.925276
 21
141.910424
 31
0.0
  0
LINE
  5
164
100
AcDbEntity
  8
0
 62
     7
100
AcDbLine
 10
-31.925276
 20
141.910424
 30
0.0
 11
-31.925276
 21
138.91043
 31
0.0
  0
LINE
  5
165
100
AcDbEntity
  8
0
 62
     7
100
AcDbLine
 10
-31.925276
 20
138.91043
 30
0.0
 11
-80.82152
 21
138.91043
 31
0.0
  0
LINE
  5
166
100
AcDbEntity
  8
0
 62
     7
100
AcDbLine
 10
-80.82152
 20
138.91043
 30
0.0
 11
-80.277351
 21
133.487683
 31
0.0
  0
LINE
  5
167
100
AcDbEntity
  8
0
 62
     7
100
AcDbLine
 10
-80.277351
 20
133.487683
 30
0.0
 11
-77.674206
 21
113.714951
 31
0.0
  0
LINE
  5
168
100
AcDbEntity
  8
0
 62
     7
100
AcDbLine
 10
-77.674206
 20
113.714951
 30
0.0
 11
-75.002126
 21
107.263961
 31
0.0
  0
LINE
  5
169
100
AcDbEntity
  8
0
 62
     7
100
AcDbLine
 10
-75.002126
 20
107.263961
 30
0.0
 11
-67.370163
 21
88.838724
 31
0.0
  0
LINE
  5
16A
100
AcDbEntity
  8
0
370
     0
  6
Continuous
 62
     7
100
AcDbLine
 10
-116.381264
 20
-105.032406
 30
0.0
 11
-116.381264
 21
-105.716911
 31
0.0
  0
LINE
  5
16B
100
AcDbEntity
  8
0
370
     0
  6
Continuous
 62
     7
100
AcDbLine
 10
-99.784977
 20
-105.699209
 30
0.0
 11
-99.791982
 21
-105.02541
 31
0.0
  0
LINE
  5
16C
100
AcDbEntity
  8
0
 62
     7
100
AcDbLine
 10
-116.381264
 20
-103.835708
 30
0.0
 11
-116.381264
 21
-105.032406
 31
0.0
  0
LINE
  5
16D
100
AcDbEntity
  8
0
 62
     7
100
AcDbLine
 10
-116.381264
 20
-105.716911
 30
0.0
 11
-116.381264
 21
-106.835727
 31
0.0
  0
LINE
  5
16E
100
AcDbEntity
  8
0
 62
     7
100
AcDbLine
 10
-97.233042
 20
-125.083214
 30
0.0
 11
-99.784977
 21
-105.699209
 31
0.0
  0
LINE
  5
16F
100
AcDbEntity
  8
0
 62
     7
100
AcDbLine
 10
-99.791982
 20
-105.02541
 30
0.0
 11
-97.233042
 21
-85.588196
 31
0.0
  0
LINE
  5
170
100
AcDbEntity
  8
0
370
     0
  6
Continuous
 62
     7
100
AcDbLine
 10
-312.737548
 20
117.6814
 30
0.0
 11
-312.749752
 21
118.912106
 31
0.0
  0
LINE
  5
171
100
AcDbEntity
  8
0
370
     0
  6
Continuous
 62
     7
100
AcDbLine
 10
-334.11395
 20
118.85897
 30
0.0
 11
-334.11395
 21
117.855128
 31
0.0
  0
LINE
  5
172
100
AcDbEntity
  8
0
 62
     7
100
AcDbLine
 10
-334.11395
 20
119.843078
 30
0.0
 11
-334.11395
 21
118.85897
 31
0.0
  0
LINE
  5
173
100
AcDbEntity
  8
0
 62
     7
100
AcDbLine
 10
-334.11395
 20
117.855128
 30
0.0
 11
-334.11395
 21
116.843084
 31
0.0
  0
LINE
  5
174
100
AcDbEntity
  8
0
 62
     7
100
AcDbLine
 10
-312.749752
 20
118.912106
 30
0.0
 11
-311.753594
 21
126.478854
 31
0.0
  0
LINE
  5
175
100
AcDbEntity
  8
0
 62
     7
100
AcDbLine
 10
-311.753594
 20
110.20736
 30
0.0
 11
-312.737548
 21
117.6814
 31
0.0
  0
LINE
  5
176
100
AcDbEntity
  8
0
 62
     7
100
AcDbLine
 10
-70.77347
 20
-167.165263
 30
0.0
 11
-68.779646
 21
-168.695181
 31
0.0
  0
LINE
  5
177
100
AcDbEntity
  8
0
 62
     7
100
AcDbLine
 10
-68.779646
 20
-168.695181
 30
0.0
 11
-52.528421
 21
-181.165159
 31
0.0
  0
LINE
  5
178
100
AcDbEntity
  8
0
 62
     7
100
AcDbLine
 10
-52.528421
 20
-181.165159
 30
0.0
 11
-50.206582
 21
-182.126904
 31
0.0
  0
LINE
  5
179
100
AcDbEntity
  8
0
 62
     7
100
AcDbLine
 10
-50.206582
 20
-182.126904
 30
0.0
 11
-37.083468
 21
-187.562682
 31
0.0
  0
LINE
  5
17A
100
AcDbEntity
  8
0
 62
     7
100
AcDbLine
 10
-37.083468
 20
-187.562682
 30
0.0
 11
-24.175798
 21
-148.322349
 31
0.0
  0
LINE
  5
17B
100
AcDbEntity
  8
0
 62
     7
100
AcDbLine
 10
-24.175798
 20
-148.322349
 30
0.0
 11
-21.322641
 21
-149.249398
 31
0.0
  0
LINE
  5
17C
100
AcDbEntity
  8
0
 62
     7
100
AcDbLine
 10
-21.322641
 20
-149.249398
 30
0.0
 11
-34.121549
 21
-188.640429
 31
0.0
  0
LINE
  5
17D
100
AcDbEntity
  8
0
 62
     7
100
AcDbLine
 10
-34.121549
 20
-188.640429
 30
0.0
 11
-31.281626
 21
-189.965903
 31
0.0
  0
LINE
  5
17E
100
AcDbEntity
  8
0
 62
     7
100
AcDbLine
 10
-31.281626
 20
-189.965903
 30
0.0
 11
-28.789962
 21
-190.293919
 31
0.0
  0
LINE
  5
17F
100
AcDbEntity
  8
0
 62
     7
100
AcDbLine
 10
-28.789962
 20
-190.293919
 30
0.0
 11
-8.481011
 21
-192.96765
 31
0.0
  0
LINE
  5
180
100
AcDbEntity
  8
0
 62
     7
100
AcDbLine
 10
-8.481011
 20
-192.96765
 30
0.0
 11
-5.989347
 21
-192.639609
 31
0.0
  0
LINE
  5
181
100
AcDbEntity
  8
0
 62
     7
100
AcDbLine
 10
-5.989347
 20
-192.639609
 30
0.0
 11
14.319604
 21
-189.965903
 31
0.0
  0
LINE
  5
182
100
AcDbEntity
  8
0
 62
     7
100
AcDbLine
 10
14.319604
 20
-189.965903
 30
0.0
 11
17.063236
 21
-188.829431
 31
0.0
  0
LINE
  5
183
100
AcDbEntity
  8
0
 62
     7
100
AcDbLine
 10
17.063236
 20
-188.829431
 30
0.0
 11
4.360619
 21
-149.249398
 31
0.0
  0
LINE
  5
184
100
AcDbEntity
  8
0
 62
     7
100
AcDbLine
 10
4.360619
 20
-149.249398
 30
0.0
 11
7.213801
 21
-148.322349
 31
0.0
  0
LINE
  5
185
100
AcDbEntity
  8
0
 62
     7
100
AcDbLine
 10
7.213801
 20
-148.322349
 30
0.0
 11
19.932445
 21
-187.466365
 31
0.0
  0
LINE
  5
186
100
AcDbEntity
  8
0
 62
     7
100
AcDbLine
 10
19.932445
 20
-187.466365
 30
0.0
 11
33.244534
 21
-182.126904
 31
0.0
  0
LINE
  5
187
100
AcDbEntity
  8
0
 62
     7
100
AcDbLine
 10
33.244534
 20
-182.126904
 30
0.0
 11
35.566399
 21
-181.165159
 31
0.0
  0
LINE
  5
188
100
AcDbEntity
  8
0
 62
     7
100
AcDbLine
 10
35.566399
 20
-181.165159
 30
0.0
 11
51.817598
 21
-168.695181
 31
0.0
  0
LINE
  5
189
100
AcDbEntity
  8
0
 62
     7
100
AcDbLine
 10
51.817598
 20
-168.695181
 30
0.0
 11
53.811422
 21
-167.165263
 31
0.0
  0
LINE
  5
18A
100
AcDbEntity
  8
0
 62
     7
100
AcDbLine
 10
53.811422
 20
-167.165263
 30
0.0
 11
61.198885
 21
-157.537748
 31
0.0
  0
LINE
  5
18B
100
AcDbEntity
  8
0
 62
     7
100
AcDbLine
 10
61.198885
 20
-157.537748
 30
0.0
 11
27.86296
 21
-133.132387
 31
0.0
  0
LINE
  5
18C
100
AcDbEntity
  8
0
 62
     7
100
AcDbLine
 10
27.86296
 20
-133.132387
 30
0.0
 11
29.62633
 21
-130.705341
 31
0.0
  0
LINE
  5
18D
100
AcDbEntity
  8
0
 62
     7
100
AcDbLine
 10
29.62633
 20
-130.705341
 30
0.0
 11
62.998958
 21
-154.951978
 31
0.0
  0
LINE
  5
18E
100
AcDbEntity
  8
0
 62
     7
100
AcDbLine
 10
62.998958
 20
-154.951978
 30
0.0
 11
66.281425
 21
-150.914063
 31
0.0
  0
LINE
  5
18F
100
AcDbEntity
  8
0
 62
     7
100
AcDbLine
 10
66.281425
 20
-150.914063
 30
0.0
 11
67.811343
 21
-148.92024
 31
0.0
  0
LINE
  5
190
100
AcDbEntity
  8
0
 62
     7
100
AcDbLine
 10
67.811343
 20
-148.92024
 30
0.0
 11
75.650291
 21
-129.995284
 31
0.0
  0
LINE
  5
191
100
AcDbEntity
  8
0
 62
     7
100
AcDbLine
 10
75.650291
 20
-129.995284
 30
0.0
 11
76.612037
 21
-127.673444
 31
0.0
  0
LINE
  5
192
100
AcDbEntity
  8
0
 62
     7
100
AcDbLine
 10
76.612037
 20
-127.673444
 30
0.0
 11
79.285768
 21
-107.364493
 31
0.0
  0
LINE
  5
193
100
AcDbEntity
  8
0
 62
     7
100
AcDbLine
 10
79.285768
 20
-107.364493
 30
0.0
 11
79.396588
 21
-106.522839
 31
0.0
  0
LINE
  5
194
100
AcDbEntity
  8
0
 62
     7
100
AcDbLine
 10
79.396588
 20
-106.522839
 30
0.0
 11
37.874675
 21
-106.372852
 31
0.0
  0
LINE
  5
195
100
AcDbEntity
  8
0
 62
     7
100
AcDbLine
 10
37.874675
 20
-106.372852
 30
0.0
 11
37.874675
 21
-103.372858
 31
0.0
  0
LINE
  5
196
100
AcDbEntity
  8
0
 62
     7
100
AcDbLine
 10
37.874675
 20
-103.372858
 30
0.0
 11
79.246576
 21
-103.372858
 31
0.0
  0
LINE
  5
197
100
AcDbEntity
  8
0
 62
     7
100
AcDbLine
 10
79.246576
 20
-103.372858
 30
0.0
 11
79.285768
 21
-102.381166
 31
0.0
  0
LINE
  5
198
100
AcDbEntity
  8
0
 62
     7
100
AcDbLine
 10
79.285768
 20
-102.381166
 30
0.0
 11
76.612037
 21
-82.072215
 31
0.0
  0
LINE
  5
199
100
AcDbEntity
  8
0
 62
     7
100
AcDbLine
 10
76.612037
 20
-82.072215
 30
0.0
 11
75.650291
 21
-79.75035
 31
0.0
  0
LINE
  5
19A
100
AcDbEntity
  8
0
 62
     7
100
AcDbLine
 10
75.650291
 20
-79.75035
 30
0.0
 11
67.811343
 21
-60.82542
 31
0.0
  0
LINE
  5
19B
100
AcDbEntity
  8
0
 62
     7
100
AcDbLine
 10
67.811343
 20
-60.82542
 30
0.0
 11
66.281425
 21
-58.831596
 31
0.0
  0
LINE
  5
19C
100
AcDbEntity
  8
0
 62
     7
100
AcDbLine
 10
66.281425
 20
-58.831596
 30
0.0
 11
63.208508
 21
-54.826879
 31
0.0
  0
LINE
  5
19D
100
AcDbEntity
  8
0
 62
     7
100
AcDbLine
 10
63.208508
 20
-54.826879
 30
0.0
 11
29.62633
 21
-79.040344
 31
0.0
  0
LINE
  5
19E
100
AcDbEntity
  8
0
 62
     7
100
AcDbLine
 10
29.62633
 20
-79.040344
 30
0.0
 11
27.862985
 21
-76.613298
 31
0.0
  0
LINE
  5
19F
100
AcDbEntity
  8
0
 62
     7
100
AcDbLine
 10
27.862985
 20
-76.613298
 30
0.0
 11
61.165713
 21
-52.417435
 31
0.0
  0
LINE
  5
1A0
100
AcDbEntity
  8
0
 62
     7
100
AcDbLine
 10
61.165713
 20
-52.417435
 30
0.0
 11
53.811422
 21
-42.580371
 31
0.0
  0
LINE
  5
1A1
100
AcDbEntity
  8
0
 62
     7
100
AcDbLine
 10
53.811422
 20
-42.580371
 30
0.0
 11
51.817598
 21
-41.050453
 31
0.0
  0
LINE
  5
1A2
100
AcDbEntity
  8
0
 62
     7
100
AcDbLine
 10
51.817598
 20
-41.050453
 30
0.0
 11
35.566399
 21
-28.58045
 31
0.0
  0
LINE
  5
1A3
100
AcDbEntity
  8
0
 62
     7
100
AcDbLine
 10
35.566399
 20
-28.58045
 30
0.0
 11
33.244534
 21
-27.618704
 31
0.0
  0
LINE
  5
1A4
100
AcDbEntity
  8
0
 62
     7
100
AcDbLine
 10
33.244534
 20
-27.618704
 30
0.0
 11
20.121472
 21
-22.182977
 31
0.0
  0
LINE
  5
1A5
100
AcDbEntity
  8
0
 62
     7
100
AcDbLine
 10
20.121472
 20
-22.182977
 30
0.0
 11
7.213801
 21
-61.42331
 31
0.0
  0
LINE
  5
1A6
100
AcDbEntity
  8
0
 62
     7
100
AcDbLine
 10
7.213801
 20
-61.42331
 30
0.0
 11
4.360619
 21
-60.496261
 31
0.0
  0
LINE
  5
1A7
100
AcDbEntity
  8
0
 62
     7
100
AcDbLine
 10
4.360619
 20
-60.496261
 30
0.0
 11
17.159552
 21
-21.10523
 31
0.0
  0
LINE
  5
1A8
100
AcDbEntity
  8
0
 62
     7
100
AcDbLine
 10
17.159552
 20
-21.10523
 30
0.0
 11
14.319604
 21
-19.779756
 31
0.0
  0
LINE
  5
1A9
100
AcDbEntity
  8
0
 62
     7
100
AcDbLine
 10
14.319604
 20
-19.779756
 30
0.0
 11
-5.989347
 21
-17.106025
 31
0.0
  0
LINE
  5
1AA
100
AcDbEntity
  8
0
 62
     7
100
AcDbLine
 10
-5.989347
 20
-17.106025
 30
0.0
 11
-8.481011
 21
-16.77801
 31
0.0
  0
LINE
  5
1AB
100
AcDbEntity
  8
0
 62
     7
100
AcDbLine
 10
-8.481011
 20
-16.77801
 30
0.0
 11
-28.789962
 21
-19.451715
 31
0.0
  0
LINE
  5
1AC
100
AcDbEntity
  8
0
 62
     7
100
AcDbLine
 10
-28.789962
 20
-19.451715
 30
0.0
 11
-31.281626
 21
-19.779756
 31
0.0
  0
LINE
  5
1AD
100
AcDbEntity
  8
0
 62
     7
100
AcDbLine
 10
-31.281626
 20
-19.779756
 30
0.0
 11
-34.025258
 21
-20.916203
 31
0.0
  0
LINE
  5
1AE
100
AcDbEntity
  8
0
 62
     7
100
AcDbLine
 10
-34.025258
 20
-20.916203
 30
0.0
 11
-21.322641
 21
-60.496261
 31
0.0
  0
LINE
  5
1AF
100
AcDbEntity
  8
0
 62
     7
100
AcDbLine
 10
-21.322641
 20
-60.496261
 30
0.0
 11
-24.175798
 21
-61.42331
 31
0.0
  0
LINE
  5
1B0
100
AcDbEntity
  8
0
 62
     7
100
AcDbLine
 10
-24.175798
 20
-61.42331
 30
0.0
 11
-36.894467
 21
-22.279269
 31
0.0
  0
LINE
  5
1B1
100
AcDbEntity
  8
0
 62
     7
100
AcDbLine
 10
-36.894467
 20
-22.279269
 30
0.0
 11
-50.206582
 21
-27.618704
 31
0.0
  0
LINE
  5
1B2
100
AcDbEntity
  8
0
 62
     7
100
AcDbLine
 10
-50.206582
 20
-27.618704
 30
0.0
 11
-52.528421
 21
-28.58045
 31
0.0
  0
LINE
  5
1B3
100
AcDbEntity
  8
0
 62
     7
100
AcDbLine
 10
-52.528421
 20
-28.58045
 30
0.0
 11
-68.779646
 21
-41.050453
 31
0.0
  0
LINE
  5
1B4
100
AcDbEntity
  8
0
 62
     7
100
AcDbLine
 10
-68.779646
 20
-41.050453
 30
0.0
 11
-70.77347
 21
-42.580371
 31
0.0
  0
LINE
  5
1B5
100
AcDbEntity
  8
0
 62
     7
100
AcDbLine
 10
-70.77347
 20
-42.580371
 30
0.0
 11
-78.160933
 21
-52.207911
 31
0.0
  0
LINE
  5
1B6
100
AcDbEntity
  8
0
 62
     7
100
AcDbLine
 10
-78.160933
 20
-52.207911
 30
0.0
 11
-44.825007
 21
-76.613298
 31
0.0
  0
LINE
  5
1B7
100
AcDbEntity
  8
0
 62
     7
100
AcDbLine
 10
-44.825007
 20
-76.613298
 30
0.0
 11
-46.588352
 21
-79.040344
 31
0.0
  0
LINE
  5
1B8
100
AcDbEntity
  8
0
 62
     7
100
AcDbLine
 10
-46.588352
 20
-79.040344
 30
0.0
 11
-79.961005
 21
-54.793682
 31
0.0
  0
LINE
  5
1B9
100
AcDbEntity
  8
0
 62
     7
100
AcDbLine
 10
-79.961005
 20
-54.793682
 30
0.0
 11
-83.243447
 21
-58.831596
 31
0.0
  0
LINE
  5
1BA
100
AcDbEntity
  8
0
 62
     7
100
AcDbLine
 10
-83.243447
 20
-58.831596
 30
0.0
 11
-84.773365
 21
-60.82542
 31
0.0
  0
LINE
  5
1BB
100
AcDbEntity
  8
0
 62
     7
100
AcDbLine
 10
-92.612339
 20
-79.75035
 30
0.0
 11
-93.574084
 21
-82.072215
 31
0.0
  0
LINE
  5
1BC
100
AcDbEntity
  8
0
 62
     7
100
AcDbLine
 10
-93.574084
 20
-82.072215
 30
0.0
 11
-96.247815
 21
-102.381166
 31
0.0
  0
LINE
  5
1BD
100
AcDbEntity
  8
0
 62
     7
100
AcDbLine
 10
-96.247815
 20
-102.381166
 30
0.0
 11
-96.35861
 21
-103.222846
 31
0.0
  0
LINE
  5
1BE
100
AcDbEntity
  8
0
 62
     7
100
AcDbLine
 10
-96.35861
 20
-103.222846
 30
0.0
 11
-54.836697
 21
-103.372858
 31
0.0
  0
LINE
  5
1BF
100
AcDbEntity
  8
0
 62
     7
100
AcDbLine
 10
-54.836697
 20
-103.372858
 30
0.0
 11
-54.836697
 21
-106.372852
 31
0.0
  0
LINE
  5
1C0
100
AcDbEntity
  8
0
 62
     7
100
AcDbLine
 10
-54.836697
 20
-106.372852
 30
0.0
 11
-96.208623
 21
-106.372852
 31
0.0
  0
LINE
  5
1C1
100
AcDbEntity
  8
0
 62
     7
100
AcDbLine
 10
-96.208623
 20
-106.372852
 30
0.0
 11
-96.247815
 21
-107.364493
 31
0.0
  0
LINE
  5
1C2
100
AcDbEntity
  8
0
 62
     7
100
AcDbLine
 10
-96.247815
 20
-107.364493
 30
0.0
 11
-93.574084
 21
-127.673444
 31
0.0
  0
LINE
  5
1C3
100
AcDbEntity
  8
0
 62
     7
100
AcDbLine
 10
-93.574084
 20
-127.673444
 30
0.0
 11
-92.612339
 21
-129.995284
 31
0.0
  0
LINE
  5
1C4
100
AcDbEntity
  8
0
 62
     7
100
AcDbLine
 10
-92.612339
 20
-129.995284
 30
0.0
 11
-84.773365
 21
-148.92024
 31
0.0
  0
LINE
  5
1C5
100
AcDbEntity
  8
0
 62
     7
100
AcDbLine
 10
-84.773365
 20
-148.92024
 30
0.0
 11
-83.243447
 21
-150.914063
 31
0.0
  0
LINE
  5
1C6
100
AcDbEntity
  8
0
 62
     7
100
AcDbLine
 10
-83.243447
 20
-150.914063
 30
0.0
 11
-80.170504
 21
-154.918805
 31
0.0
  0
LINE
  5
1C7
100
AcDbEntity
  8
0
 62
     7
100
AcDbLine
 10
-80.170504
 20
-154.918805
 30
0.0
 11
-46.588352
 21
-130.705341
 31
0.0
  0
LINE
  5
1C8
100
AcDbEntity
  8
0
 62
     7
100
AcDbLine
 10
-46.588352
 20
-130.705341
 30
0.0
 11
-44.824982
 21
-133.132387
 31
0.0
  0
LINE
  5
1C9
100
AcDbEntity
  8
0
 62
     7
100
AcDbLine
 10
-44.824982
 20
-133.132387
 30
0.0
 11
-78.127709
 21
-157.328249
 31
0.0
  0
LINE
  5
1CA
100
AcDbEntity
  8
0
 62
     7
100
AcDbLine
 10
-78.127709
 20
-157.328249
 30
0.0
 11
-70.77347
 21
-167.165263
 31
0.0
  0
LINE
  5
1CB
100
AcDbEntity
  8
0
370
     0
  6
Continuous
 62
     7
100
AcDbLine
 10
-95.463408
 20
-42.801335
 30
0.0
 11
-82.367116
 21
-52.820789
 31
0.0
  0
LINE
  5
1CC
100
AcDbEntity
  8
0
370
     0
  6
Continuous
 62
     7
100
AcDbLine
 10
-81.737186
 20
-51.999847
 30
0.0
 11
-94.973689
 21
-42.127301
 31
0.0
  0
LINE
  5
1CD
100
AcDbEntity
  8
0
 62
     7
100
AcDbLine
 10
-94.238077
 20
-41.114828
 30
0.0
 11
-94.973689
 21
-42.127301
 31
0.0
  0
LINE
  5
1CE
100
AcDbEntity
  8
0
 62
     7
100
AcDbLine
 10
-95.463408
 20
-42.801335
 30
0.0
 11
-96.001447
 21
-43.541874
 31
0.0
  0
LINE
  5
1CF
100
AcDbEntity
  8
0
 62
     7
100
AcDbLine
 10
-87.582845
 20
-59.618067
 30
0.0
 11
-82.367116
 21
-52.820789
 31
0.0
  0
LINE
  5
1D0
100
AcDbEntity
  8
0
 62
     7
100
AcDbLine
 10
-81.737186
 20
-51.999847
 30
0.0
 11
-75.457596
 21
-43.816118
 31
0.0
  0
LINE
  5
1D1
100
AcDbEntity
  8
0
370
     0
  6
Continuous
 62
     7
100
AcDbLine
 10
-116.416595
 20
-42.970882
 30
0.0
 11
-121.945067
 21
-39.458779
 31
0.0
  0
LINE
  5
1D2
100
AcDbEntity
  8
0
370
     0
  6
Continuous
 62
     7
100
AcDbLine
 10
-117.297229
 20
-45.096924
 30
0.0
 11
-121.945067
 21
-42.41975
 31
0.0
  0
LINE
  5
1D3
100
AcDbEntity
  8
0
 62
     7
100
AcDbLine
 10
-117.297229
 20
-45.096924
 30
0.0
 11
-128.877124
 21
-73.053296
 31
0.0
  0
LINE
  5
1D4
100
AcDbEntity
  8
0
370
     0
  6
Continuous
 62
     7
100
AcDbLine
 10
-88.951189
 20
-62.921569
 30
0.0
 11
-86.122945
 21
-64.083588
 31
0.0
  0
LINE
  5
1D5
100
AcDbEntity
  8
0
370
     0
  6
Continuous
 62
     7
100
AcDbLine
 10
-87.30323
 20
-66.933046
 30
0.0
 11
-90.272991
 21
-66.112681
 31
0.0
  0
LINE
  5
1D6
100
AcDbEntity
  8
0
 62
     7
100
AcDbLine
 10
-84.773365
 20
-60.82542
 30
0.0
 11
-86.122945
 21
-64.083588
 31
0.0
  0
LINE
  5
1D7
100
AcDbEntity
  8
0
 62
     7
100
AcDbLine
 10
-87.30323
 20
-66.933046
 30
0.0
 11
-92.612339
 21
-79.75035
 31
0.0
  0
LINE
  5
1D8
100
AcDbEntity
  8
0
 62
     7
100
AcDbLine
 10
-96.717269
 20
-81.670525
 30
0.0
 11
-90.272991
 21
-66.112681
 31
0.0
  0
LINE
  5
1D9
100
AcDbEntity
  8
0
 62
     7
100
AcDbLine
 10
-88.951189
 20
-62.921569
 30
0.0
 11
-87.582845
 21
-59.618067
 31
0.0
  0
LINE
  5
1DA
100
AcDbEntity
  8
0
370
     0
  6
Continuous
 62
     7
100
AcDbLine
 10
-315.350427
 20
174.623032
 30
0.0
 11
-298.71197
 21
161.503421
 31
0.0
  0
LINE
  5
1DB
100
AcDbEntity
  8
0
370
     0
  6
Continuous
 62
     7
100
AcDbLine
 10
-298.148695
 20
162.237496
 30
0.0
 11
-314.787385
 21
175.397996
 31
0.0
  0
LINE
  5
1DC
100
AcDbEntity
  8
0
 62
     7
100
AcDbLine
 10
-314.061336
 20
176.397321
 30
0.0
 11
-314.787385
 21
175.397996
 31
0.0
  0
LINE
  5
1DD
100
AcDbEntity
  8
0
 62
     7
100
AcDbLine
 10
-315.350427
 20
174.623032
 30
0.0
 11
-315.82468
 21
173.970275
 31
0.0
  0
LINE
  5
1DE
100
AcDbEntity
  8
0
 62
     7
100
AcDbLine
 10
-302.627044
 20
156.401197
 30
0.0
 11
-298.71197
 21
161.503421
 31
0.0
  0
LINE
  5
1DF
100
AcDbEntity
  8
0
 62
     7
100
AcDbLine
 10
-298.148695
 20
162.237496
 30
0.0
 11
-297.631575
 21
162.91142
 31
0.0
  0
LINE
  5
1E0
100
AcDbEntity
  8
0
 62
     7
100
AcDbLine
 10
-184.399997
 20
-182.917212
 30
0.0
 11
-180.633151
 21
-180.563445
 31
0.0
  0
LINE
  5
1E1
100
AcDbEntity
  8
0
 62
     7
100
AcDbLine
 10
-180.633151
 20
-180.563445
 30
0.0
 11
-178.286496
 21
-178.878688
 31
0.0
  0
LINE
  5
1E2
100
AcDbEntity
  8
0
 62
     7
100
AcDbLine
 10
-178.286496
 20
-178.878688
 30
0.0
 11
-176.092876
 21
-176.998936
 31
0.0
  0
LINE
  5
1E3
100
AcDbEntity
  8
0
 62
     7
100
AcDbLine
 10
-176.092876
 20
-176.998936
 30
0.0
 11
-174.06847
 21
-174.938132
 31
0.0
  0
LINE
  5
1E4
100
AcDbEntity
  8
0
 62
     7
100
AcDbLine
 10
-174.06847
 20
-174.938132
 30
0.0
 11
-172.228139
 21
-172.71139
 31
0.0
  0
LINE
  5
1E5
100
AcDbEntity
  8
0
 62
     7
100
AcDbLine
 10
-172.228139
 20
-172.71139
 30
0.0
 11
-170.585419
 21
-170.335119
 31
0.0
  0
LINE
  5
1E6
100
AcDbEntity
  8
0
 62
     7
100
AcDbLine
 10
-170.585419
 20
-170.335119
 30
0.0
 11
-169.152427
 21
-167.826742
 31
0.0
  0
LINE
  5
1E7
100
AcDbEntity
  8
0
 62
     7
100
AcDbLine
 10
-169.152427
 20
-167.826742
 30
0.0
 11
-167.939704
 21
-165.204827
 31
0.0
  0
LINE
  5
1E8
100
AcDbEntity
  8
0
 62
     7
100
AcDbLine
 10
-167.939704
 20
-165.204827
 30
0.0
 11
-166.956191
 21
-162.488601
 31
0.0
  0
LINE
  5
1E9
100
AcDbEntity
  8
0
 62
     7
100
AcDbLine
 10
-166.956191
 20
-162.488601
 30
0.0
 11
-166.209075
 21
-159.698056
 31
0.0
  0
LINE
  5
1EA
100
AcDbEntity
  8
0
 62
     7
100
AcDbLine
 10
-166.209075
 20
-159.698056
 30
0.0
 11
-165.703895
 21
-156.853764
 31
0.0
  0
LINE
  5
1EB
100
AcDbEntity
  8
0
 62
     7
100
AcDbLine
 10
-165.703895
 20
-156.853764
 30
0.0
 11
-165.444383
 21
-153.97663
 31
0.0
  0
LINE
  5
1EC
100
AcDbEntity
  8
0
 62
     7
100
AcDbLine
 10
-165.444383
 20
-153.97663
 30
0.0
 11
-165.43242
 21
-151.087862
 31
0.0
  0
LINE
  5
1ED
100
AcDbEntity
  8
0
 62
     7
100
AcDbLine
 10
-165.43242
 20
-151.087862
 30
0.0
 11
-165.572145
 21
-148.824341
 31
0.0
  0
LINE
  5
1EE
100
AcDbEntity
  8
0
 62
     7
100
AcDbLine
 10
-165.572145
 20
-148.824341
 30
0.0
 11
-165.815401
 21
-146.569609
 31
0.0
  0
LINE
  5
1EF
100
AcDbEntity
  8
0
 62
     7
100
AcDbLine
 10
-165.815401
 20
-146.569609
 30
0.0
 11
-166.161603
 21
-144.328363
 31
0.0
  0
LINE
  5
1F0
100
AcDbEntity
  8
0
 62
     7
100
AcDbLine
 10
-166.161603
 20
-144.328363
 30
0.0
 11
-166.609989
 21
-142.10533
 31
0.0
  0
LINE
  5
1F1
100
AcDbEntity
  8
0
 62
     7
100
AcDbLine
 10
-166.609989
 20
-142.10533
 30
0.0
 11
-167.159747
 21
-139.905157
 31
0.0
  0
LINE
  5
1F2
100
AcDbEntity
  8
0
 62
     7
100
AcDbLine
 10
-167.159747
 20
-139.905157
 30
0.0
 11
-167.809656
 21
-137.732466
 31
0.0
  0
LINE
  5
1F3
100
AcDbEntity
  8
0
 62
     7
100
AcDbLine
 10
-167.809656
 20
-137.732466
 30
0.0
 11
-168.558321
 21
-135.591779
 31
0.0
  0
LINE
  5
1F4
100
AcDbEntity
  8
0
 62
     7
100
AcDbLine
 10
-168.558321
 20
-135.591779
 30
0.0
 11
-169.404218
 21
-133.487643
 31
0.0
  0
LINE
  5
1F5
100
AcDbEntity
  8
0
 62
     7
100
AcDbLine
 10
-169.404218
 20
-133.487643
 30
0.0
 11
-170.345542
 21
-131.424427
 31
0.0
  0
LINE
  5
1F6
100
AcDbEntity
  8
0
 62
     7
100
AcDbLine
 10
-170.345542
 20
-131.424427
 30
0.0
 11
-171.380363
 21
-129.406473
 31
0.0
  0
LINE
  5
1F7
100
AcDbEntity
  8
0
 62
     7
100
AcDbLine
 10
-171.380363
 20
-129.406473
 30
0.0
 11
-172.506472
 21
-127.437973
 31
0.0
  0
LINE
  5
1F8
100
AcDbEntity
  8
0
 62
     7
100
AcDbLine
 10
-172.506472
 20
-127.437973
 30
0.0
 11
-173.721481
 21
-125.523118
 31
0.0
  0
LINE
  5
1F9
100
AcDbEntity
  8
0
 62
     7
100
AcDbLine
 10
-173.721481
 20
-125.523118
 30
0.0
 11
-175.938266
 21
-122.39714
 31
0.0
  0
LINE
  5
1FA
100
AcDbEntity
  8
0
 62
     7
100
AcDbLine
 10
-175.938266
 20
-122.39714
 30
0.0
 11
-178.329524
 21
-119.402556
 31
0.0
  0
LINE
  5
1FB
100
AcDbEntity
  8
0
 62
     7
100
AcDbLine
 10
-178.329524
 20
-119.402556
 30
0.0
 11
-180.887532
 21
-116.549044
 31
0.0
  0
LINE
  5
1FC
100
AcDbEntity
  8
0
 62
     7
100
AcDbLine
 10
-180.887532
 20
-116.549044
 30
0.0
 11
-183.604037
 21
-113.845976
 31
0.0
  0
LINE
  5
1FD
100
AcDbEntity
  8
0
 62
     7
100
AcDbLine
 10
-183.604037
 20
-113.845976
 30
0.0
 11
-186.470097
 21
-111.30209
 31
0.0
  0
LINE
  5
1FE
100
AcDbEntity
  8
0
 62
     7
100
AcDbLine
 10
-186.470097
 20
-111.30209
 30
0.0
 11
-189.476491
 21
-108.92564
 31
0.0
  0
LINE
  5
1FF
100
AcDbEntity
  8
0
 62
     7
100
AcDbLine
 10
-189.476491
 20
-108.92564
 30
0.0
 11
-192.613391
 21
-106.724349
 31
0.0
  0
LINE
  5
200
100
AcDbEntity
  8
0
 62
     7
100
AcDbLine
 10
-192.613391
 20
-106.724349
 30
0.0
 11
-195.870662
 21
-104.705379
 31
0.0
  0
LINE
  5
201
100
AcDbEntity
  8
0
 62
     7
100
AcDbLine
 10
-195.870662
 20
-104.705379
 30
0.0
 11
-199.237635
 21
-102.875284
 31
0.0
  0
LINE
  5
202
100
AcDbEntity
  8
0
 62
     7
100
AcDbLine
 10
-199.237635
 20
-102.875284
 30
0.0
 11
-202.70344
 21
-101.240057
 31
0.0
  0
LINE
  5
203
100
AcDbEntity
  8
0
 62
     7
100
AcDbLine
 10
-202.70344
 20
-101.240057
 30
0.0
 11
-206.256798
 21
-99.804932
 31
0.0
  0
LINE
  5
204
100
AcDbEntity
  8
0
 62
     7
100
AcDbLine
 10
-206.256798
 20
-99.804932
 30
0.0
 11
-209.886153
 21
-98.574658
 31
0.0
  0
LINE
  5
205
100
AcDbEntity
  8
0
 62
     7
100
AcDbLine
 10
-209.886153
 20
-98.574658
 30
0.0
 11
-216.41596
 21
-96.663816
 31
0.0
  0
LINE
  5
206
100
AcDbEntity
  8
0
 62
     7
100
AcDbLine
 10
-216.41596
 20
-96.663816
 30
0.0
 11
-222.995449
 21
-94.931739
 31
0.0
  0
LINE
  5
207
100
AcDbEntity
  8
0
 62
     7
100
AcDbLine
 10
-222.995449
 20
-94.931739
 30
0.0
 11
-229.619718
 21
-93.379697
 31
0.0
  0
LINE
  5
208
100
AcDbEntity
  8
0
 62
     7
100
AcDbLine
 10
-229.619718
 20
-93.379697
 30
0.0
 11
-236.283789
 21
-92.008885
 31
0.0
  0
LINE
  5
209
100
AcDbEntity
  8
0
 62
     7
100
AcDbLine
 10
-236.283789
 20
-92.008885
 30
0.0
 11
-242.982836
 21
-90.820292
 31
0.0
  0
LINE
  5
20A
100
AcDbEntity
  8
0
 62
     7
100
AcDbLine
 10
-242.982836
 20
-90.820292
 30
0.0
 11
-249.711779
 21
-89.814807
 31
0.0
  0
LINE
  5
20B
100
AcDbEntity
  8
0
 62
     7
100
AcDbLine
 10
-249.711779
 20
-89.814807
 30
0.0
 11
-256.465613
 21
-88.993193
 31
0.0
  0
LINE
  5
20C
100
AcDbEntity
  8
0
 62
     7
100
AcDbLine
 10
-256.465613
 20
-88.993193
 30
0.0
 11
-263.239361
 21
-88.35606
 31
0.0
  0
LINE
  5
20D
100
AcDbEntity
  8
0
 62
     7
100
AcDbLine
 10
-263.239361
 20
-88.35606
 30
0.0
 11
-270.027969
 21
-87.903838
 31
0.0
  0
LINE
  5
20E
100
AcDbEntity
  8
0
 62
     7
100
AcDbLine
 10
-270.027969
 20
-87.903838
 30
0.0
 11
-276.826355
 21
-87.636935
 31
0.0
  0
LINE
  5
20F
100
AcDbEntity
  8
0
 62
     7
100
AcDbLine
 10
-276.826355
 20
-87.636935
 30
0.0
 11
-283.629516
 21
-87.555503
 31
0.0
  0
LINE
  5
210
100
AcDbEntity
  8
0
 62
     7
100
AcDbLine
 10
-283.629516
 20
-87.555503
 30
0.0
 11
-285.815897
 21
-87.588954
 31
0.0
  0
LINE
  5
211
100
AcDbEntity
  8
0
 62
     7
100
AcDbLine
 10
-285.815897
 20
-89.064034
 30
0.0
 11
-285.815897
 21
-99.762692
 31
0.0
  0
LINE
  5
212
100
AcDbEntity
  8
0
 62
     7
100
AcDbLine
 10
-285.815897
 20
-99.762692
 30
0.0
 11
-244.076738
 21
-99.912679
 31
0.0
  0
LINE
  5
213
100
AcDbEntity
  8
0
 62
     7
100
AcDbLine
 10
-244.076738
 20
-99.912679
 30
0.0
 11
-244.076738
 21
-102.912698
 31
0.0
  0
LINE
  5
214
100
AcDbEntity
  8
0
 62
     7
100
AcDbLine
 10
-244.076738
 20
-102.912698
 30
0.0
 11
-285.665885
 21
-102.912698
 31
0.0
  0
LINE
  5
215
100
AcDbEntity
  8
0
 62
     7
100
AcDbLine
 10
-285.665885
 20
-102.912698
 30
0.0
 11
-285.815897
 21
-104.16535
 31
0.0
  0
LINE
  5
216
100
AcDbEntity
  8
0
 62
     7
100
AcDbLine
 10
-285.815897
 20
-104.16535
 30
0.0
 11
-282.576813
 21
-104.209444
 31
0.0
  0
LINE
  5
217
100
AcDbEntity
  8
0
 62
     7
100
AcDbLine
 10
-282.576813
 20
-104.209444
 30
0.0
 11
-274.744495
 21
-104.823108
 31
0.0
  0
LINE
  5
218
100
AcDbEntity
  8
0
 62
     7
100
AcDbLine
 10
-274.744495
 20
-104.823108
 30
0.0
 11
-266.968107
 21
-105.940988
 31
0.0
  0
LINE
  5
219
100
AcDbEntity
  8
0
 62
     7
100
AcDbLine
 10
-266.968107
 20
-105.940988
 30
0.0
 11
-259.280086
 21
-107.558333
 31
0.0
  0
LINE
  5
21A
100
AcDbEntity
  8
0
 62
     7
100
AcDbLine
 10
-259.280086
 20
-107.558333
 30
0.0
 11
-251.71246
 21
-109.668438
 31
0.0
  0
LINE
  5
21B
100
AcDbEntity
  8
0
 62
     7
100
AcDbLine
 10
-251.71246
 20
-109.668438
 30
0.0
 11
-244.296753
 21
-112.26254
 31
0.0
  0
LINE
  5
21C
100
AcDbEntity
  8
0
 62
     7
100
AcDbLine
 10
-244.296753
 20
-112.26254
 30
0.0
 11
-237.06395
 21
-115.329793
 31
0.0
  0
LINE
  5
21D
100
AcDbEntity
  8
0
 62
     7
100
AcDbLine
 10
-237.06395
 20
-115.329793
 30
0.0
 11
-230.044152
 21
-118.857447
 31
0.0
  0
LINE
  5
21E
100
AcDbEntity
  8
0
 62
     7
100
AcDbLine
 10
-230.044152
 20
-118.857447
 30
0.0
 11
-223.266619
 21
-122.830718
 31
0.0
  0
LINE
  5
21F
100
AcDbEntity
  8
0
 62
     7
100
AcDbLine
 10
-223.266619
 20
-122.830718
 30
0.0
 11
-216.759622
 21
-127.233071
 31
0.0
  0
LINE
  5
220
100
AcDbEntity
  8
0
 62
     7
100
AcDbLine
 10
-216.759622
 20
-127.233071
 30
0.0
 11
-216.251343
 21
-127.627076
 31
0.0
  0
LINE
  5
221
100
AcDbEntity
  8
0
 62
     7
100
AcDbLine
 10
-216.251343
 20
-127.627076
 30
0.0
 11
-193.026954
 21
-127.627076
 31
0.0
  0
LINE
  5
222
100
AcDbEntity
  8
0
 62
     7
100
AcDbLine
 10
-193.026954
 20
-127.627076
 30
0.0
 11
-193.026954
 21
-130.62707
 31
0.0
  0
LINE
  5
223
100
AcDbEntity
  8
0
 62
     7
100
AcDbLine
 10
-193.026954
 20
-130.62707
 30
0.0
 11
-212.03761
 21
-130.62707
 31
0.0
  0
LINE
  5
224
100
AcDbEntity
  8
0
 62
     7
100
AcDbLine
 10
-212.03761
 20
-130.62707
 30
0.0
 11
-210.550338
 21
-132.046219
 31
0.0
  0
LINE
  5
225
100
AcDbEntity
  8
0
 62
     7
100
AcDbLine
 10
-210.550338
 20
-132.046219
 30
0.0
 11
-204.664574
 21
-137.250018
 31
0.0
  0
LINE
  5
226
100
AcDbEntity
  8
0
 62
     7
100
AcDbLine
 10
-204.664574
 20
-137.250018
 30
0.0
 11
-202.810831
 21
-139.253266
 31
0.0
  0
LINE
  5
227
100
AcDbEntity
  8
0
 62
     7
100
AcDbLine
 10
-202.810831
 20
-139.253266
 30
0.0
 11
-201.245277
 21
-141.488974
 31
0.0
  0
LINE
  5
228
100
AcDbEntity
  8
0
 62
     7
100
AcDbLine
 10
-201.245277
 20
-141.488974
 30
0.0
 11
-199.996663
 21
-143.915994
 31
0.0
  0
LINE
  5
229
100
AcDbEntity
  8
0
 62
     7
100
AcDbLine
 10
-199.996663
 20
-143.915994
 30
0.0
 11
-199.088055
 21
-146.489675
 31
0.0
  0
LINE
  5
22A
100
AcDbEntity
  8
0
 62
     7
100
AcDbLine
 10
-199.088055
 20
-146.489675
 30
0.0
 11
-198.536113
 21
-149.162644
 31
0.0
  0
LINE
  5
22B
100
AcDbEntity
  8
0
 62
     7
100
AcDbLine
 10
-198.536113
 20
-149.162644
 30
0.0
 11
-198.350972
 21
-151.885727
 31
0.0
  0
LINE
  5
22C
100
AcDbEntity
  8
0
 62
     7
100
AcDbLine
 10
-198.350972
 20
-151.885727
 30
0.0
 11
-198.536113
 21
-154.608785
 31
0.0
  0
LINE
  5
22D
100
AcDbEntity
  8
0
 62
     7
100
AcDbLine
 10
-198.536113
 20
-154.608785
 30
0.0
 11
-198.656432
 21
-155.191461
 31
0.0
  0
LINE
  5
22E
100
AcDbEntity
  8
0
 62
     7
100
AcDbLine
 10
-198.656432
 20
-155.191461
 30
0.0
 11
-182.448692
 21
-155.341473
 31
0.0
  0
LINE
  5
22F
100
AcDbEntity
  8
0
 62
     7
100
AcDbLine
 10
-182.448692
 20
-155.341473
 30
0.0
 11
-182.448692
 21
-158.341467
 31
0.0
  0
LINE
  5
230
100
AcDbEntity
  8
0
 62
     7
100
AcDbLine
 10
-182.448692
 20
-158.341467
 30
0.0
 11
-199.365143
 21
-158.341467
 31
0.0
  0
LINE
  5
231
100
AcDbEntity
  8
0
 62
     7
100
AcDbLine
 10
-199.365143
 20
-158.341467
 30
0.0
 11
-199.996663
 21
-159.855434
 31
0.0
  0
LINE
  5
232
100
AcDbEntity
  8
0
 62
     7
100
AcDbLine
 10
-199.996663
 20
-159.855434
 30
0.0
 11
-201.245277
 21
-162.282455
 31
0.0
  0
LINE
  5
233
100
AcDbEntity
  8
0
 62
     7
100
AcDbLine
 10
-201.245277
 20
-162.282455
 30
0.0
 11
-202.810831
 21
-164.518163
 31
0.0
  0
LINE
  5
234
100
AcDbEntity
  8
0
 62
     7
100
AcDbLine
 10
-202.810831
 20
-164.518163
 30
0.0
 11
-204.664574
 21
-166.521436
 31
0.0
  0
LINE
  5
235
100
AcDbEntity
  8
0
 62
     7
100
AcDbLine
 10
-204.664574
 20
-166.521436
 30
0.0
 11
-206.972875
 21
-168.561005
 31
0.0
  0
LINE
  5
236
100
AcDbEntity
  8
0
 62
     7
100
AcDbLine
 10
-206.972875
 20
-168.561005
 30
0.0
 11
-209.409243
 21
-170.445863
 31
0.0
  0
LINE
  5
237
100
AcDbEntity
  8
0
 62
     7
100
AcDbLine
 10
-209.409243
 20
-170.445863
 30
0.0
 11
-211.963188
 21
-172.167957
 31
0.0
  0
LINE
  5
238
100
AcDbEntity
  8
0
 62
     7
100
AcDbLine
 10
-211.963188
 20
-172.167957
 30
0.0
 11
-214.623939
 21
-173.719948
 31
0.0
  0
LINE
  5
239
100
AcDbEntity
  8
0
 62
     7
100
AcDbLine
 10
-214.623939
 20
-173.719948
 30
0.0
 11
-217.380169
 21
-175.095307
 31
0.0
  0
LINE
  5
23A
100
AcDbEntity
  8
0
 62
     7
100
AcDbLine
 10
-217.380169
 20
-175.095307
 30
0.0
 11
-220.220194
 21
-176.288117
 31
0.0
  0
LINE
  5
23B
100
AcDbEntity
  8
0
 62
     7
100
AcDbLine
 10
-220.220194
 20
-176.288117
 30
0.0
 11
-223.131847
 21
-177.293372
 31
0.0
  0
LINE
  5
23C
100
AcDbEntity
  8
0
 62
     7
100
AcDbLine
 10
-223.131847
 20
-177.293372
 30
0.0
 11
-226.10286
 21
-178.106757
 31
0.0
  0
LINE
  5
23D
100
AcDbEntity
  8
0
 62
     7
100
AcDbLine
 10
-226.10286
 20
-178.106757
 30
0.0
 11
-229.120507
 21
-178.724815
 31
0.0
  0
LINE
  5
23E
100
AcDbEntity
  8
0
 62
     7
100
AcDbLine
 10
-229.120507
 20
-178.724815
 30
0.0
 11
-232.172037
 21
-179.144931
 31
0.0
  0
LINE
  5
23F
100
AcDbEntity
  8
0
 62
     7
100
AcDbLine
 10
-232.172037
 20
-179.144931
 30
0.0
 11
-235.244472
 21
-179.365301
 31
0.0
  0
LINE
  5
240
100
AcDbEntity
  8
0
 62
     7
100
AcDbLine
 10
-235.244472
 20
-179.365301
 30
0.0
 11
-238.324705
 21
-179.385037
 31
0.0
  0
LINE
  5
241
100
AcDbEntity
  8
0
 62
     7
100
AcDbLine
 10
-238.324705
 20
-179.385037
 30
0.0
 11
-240.100266
 21
-179.385037
 31
0.0
  0
LINE
  5
242
100
AcDbEntity
  8
0
 62
     7
100
AcDbLine
 10
-240.100266
 20
-179.385037
 30
0.0
 11
-241.875777
 21
-179.385037
 31
0.0
  0
LINE
  5
243
100
AcDbEntity
  8
0
 62
     7
100
AcDbLine
 10
-241.875777
 20
-179.385037
 30
0.0
 11
-245.305844
 21
-179.385037
 31
0.0
  0
LINE
  5
244
100
AcDbEntity
  8
0
 62
     7
100
AcDbLine
 10
-245.305844
 20
-179.385037
 30
0.0
 11
-248.735885
 21
-179.385037
 31
0.0
  0
LINE
  5
245
100
AcDbEntity
  8
0
 62
     7
100
AcDbLine
 10
-248.735885
 20
-179.385037
 30
0.0
 11
-253.586701
 21
-179.385037
 31
0.0
  0
LINE
  5
246
100
AcDbEntity
  8
0
 62
     7
100
AcDbLine
 10
-253.586701
 20
-179.385037
 30
0.0
 11
-258.437517
 21
-179.385037
 31
0.0
  0
LINE
  5
247
100
AcDbEntity
  8
0
 62
     7
100
AcDbLine
 10
-258.437517
 20
-179.385037
 30
0.0
 11
-264.378551
 21
-179.385037
 31
0.0
  0
LINE
  5
248
100
AcDbEntity
  8
0
 62
     7
100
AcDbLine
 10
-264.378551
 20
-179.385037
 30
0.0
 11
-270.319586
 21
-179.385037
 31
0.0
  0
LINE
  5
249
100
AcDbEntity
  8
0
 62
     7
100
AcDbLine
 10
-270.319586
 20
-179.385037
 30
0.0
 11
-276.945938
 21
-179.385037
 31
0.0
  0
LINE
  5
24A
100
AcDbEntity
  8
0
 62
     7
100
AcDbLine
 10
-276.945938
 20
-179.385037
 30
0.0
 11
-283.57229
 21
-179.385037
 31
0.0
  0
LINE
  5
24B
100
AcDbEntity
  8
0
 62
     7
100
AcDbLine
 10
-283.57229
 20
-179.385037
 30
0.0
 11
-285.815897
 21
-179.385037
 31
0.0
  0
LINE
  5
24C
100
AcDbEntity
  8
0
 62
     7
100
AcDbLine
 10
-285.815897
 20
-179.385037
 30
0.0
 11
-285.815897
 21
-182.905858
 31
0.0
  0
LINE
  5
24D
100
AcDbEntity
  8
0
 62
     7
100
AcDbLine
 10
-285.815897
 20
-182.905858
 30
0.0
 11
-236.55242
 21
-183.05587
 31
0.0
  0
LINE
  5
24E
100
AcDbEntity
  8
0
 62
     7
100
AcDbLine
 10
-236.55242
 20
-183.05587
 30
0.0
 11
-236.55242
 21
-186.055864
 31
0.0
  0
LINE
  5
24F
100
AcDbEntity
  8
0
 62
     7
100
AcDbLine
 10
-236.55242
 20
-186.055864
 30
0.0
 11
-285.665885
 21
-186.055864
 31
0.0
  0
LINE
  5
250
100
AcDbEntity
  8
0
 62
     7
100
AcDbLine
 10
-285.665885
 20
-186.055864
 30
0.0
 11
-285.815897
 21
-197.67004
 31
0.0
  0
LINE
  5
251
100
AcDbEntity
  8
0
 62
     7
100
AcDbLine
 10
-285.815897
 20
-197.67004
 30
0.0
 11
-280.470798
 21
-197.952259
 31
0.0
  0
LINE
  5
252
100
AcDbEntity
  8
0
 62
     7
100
AcDbLine
 10
-280.470798
 20
-197.952259
 30
0.0
 11
-275.485667
 21
-198.153834
 31
0.0
  0
LINE
  5
253
100
AcDbEntity
  8
0
 62
     7
100
AcDbLine
 10
-275.485667
 20
-198.153834
 30
0.0
 11
-270.498554
 21
-198.297826
 31
0.0
  0
LINE
  5
254
100
AcDbEntity
  8
0
 62
     7
100
AcDbLine
 10
-270.498554
 20
-198.297826
 30
0.0
 11
-265.510096
 21
-198.384237
 31
0.0
  0
LINE
  5
255
100
AcDbEntity
  8
0
 62
     7
100
AcDbLine
 10
-265.510096
 20
-198.384237
 30
0.0
 11
-260.521003
 21
-198.413066
 31
0.0
  0
LINE
  5
256
100
AcDbEntity
  8
0
 62
     7
100
AcDbLine
 10
-260.521003
 20
-198.413066
 30
0.0
 11
-255.531858
 21
-198.384237
 31
0.0
  0
LINE
  5
257
100
AcDbEntity
  8
0
 62
     7
100
AcDbLine
 10
-255.531858
 20
-198.384237
 30
0.0
 11
-250.5434
 21
-198.297826
 31
0.0
  0
LINE
  5
258
100
AcDbEntity
  8
0
 62
     7
100
AcDbLine
 10
-250.5434
 20
-198.297826
 30
0.0
 11
-245.556313
 21
-198.153834
 31
0.0
  0
LINE
  5
259
100
AcDbEntity
  8
0
 62
     7
100
AcDbLine
 10
-245.556313
 20
-198.153834
 30
0.0
 11
-240.571182
 21
-197.952259
 31
0.0
  0
LINE
  5
25A
100
AcDbEntity
  8
0
 62
     7
100
AcDbLine
 10
-240.571182
 20
-197.952259
 30
0.0
 11
-235.588693
 21
-197.693103
 31
0.0
  0
LINE
  5
25B
100
AcDbEntity
  8
0
 62
     7
100
AcDbLine
 10
-235.588693
 20
-197.693103
 30
0.0
 11
-230.609582
 21
-197.376467
 31
0.0
  0
LINE
  5
25C
100
AcDbEntity
  8
0
 62
     7
100
AcDbLine
 10
-230.609582
 20
-197.376467
 30
0.0
 11
-226.185943
 21
-196.974791
 31
0.0
  0
LINE
  5
25D
100
AcDbEntity
  8
0
 62
     7
100
AcDbLine
 10
-226.185943
 20
-196.974791
 30
0.0
 11
-221.783437
 21
-196.385359
 31
0.0
  0
LINE
  5
25E
100
AcDbEntity
  8
0
 62
     7
100
AcDbLine
 10
-221.783437
 20
-196.385359
 30
0.0
 11
-217.409989
 21
-195.609236
 31
0.0
  0
LINE
  5
25F
100
AcDbEntity
  8
0
 62
     7
100
AcDbLine
 10
-217.409989
 20
-195.609236
 30
0.0
 11
-213.073472
 21
-194.647846
 31
0.0
  0
LINE
  5
260
100
AcDbEntity
  8
0
 62
     7
100
AcDbLine
 10
-213.073472
 20
-194.647846
 30
0.0
 11
-208.781787
 21
-193.502865
 31
0.0
  0
LINE
  5
261
100
AcDbEntity
  8
0
 62
     7
100
AcDbLine
 10
-208.781787
 20
-193.502865
 30
0.0
 11
-204.542628
 21
-192.176426
 31
0.0
  0
LINE
  5
262
100
AcDbEntity
  8
0
 62
     7
100
AcDbLine
 10
-204.542628
 20
-192.176426
 30
0.0
 11
-200.363744
 21
-190.670892
 31
0.0
  0
LINE
  5
263
100
AcDbEntity
  8
0
 62
     7
100
AcDbLine
 10
-200.363744
 20
-190.670892
 30
0.0
 11
-196.252703
 21
-188.989031
 31
0.0
  0
LINE
  5
264
100
AcDbEntity
  8
0
 62
     7
100
AcDbLine
 10
-196.252703
 20
-188.989031
 30
0.0
 11
-192.216847
 21
-187.133815
 31
0.0
  0
LINE
  5
265
100
AcDbEntity
  8
0
 62
     7
100
AcDbLine
 10
-192.216847
 20
-187.133815
 30
0.0
 11
-188.263591
 21
-185.108673
 31
0.0
  0
LINE
  5
266
100
AcDbEntity
  8
0
 62
     7
100
AcDbLine
 10
-188.263591
 20
-185.108673
 30
0.0
 11
-184.399997
 21
-182.917212
 31
0.0
  0
LINE
  5
267
100
AcDbEntity
  8
0
 62
     7
100
AcDbLine
 10
-309.359325
 20
-68.510547
 30
0.0
 11
-313.12617
 21
-70.864314
 31
0.0
  0
LINE
  5
268
100
AcDbEntity
  8
0
 62
     7
100
AcDbLine
 10
-313.12617
 20
-70.864314
 30
0.0
 11
-315.472825
 21
-72.549071
 31
0.0
  0
LINE
  5
269
100
AcDbEntity
  8
0
 62
     7
100
AcDbLine
 10
-315.472825
 20
-72.549071
 30
0.0
 11
-317.666446
 21
-74.428823
 31
0.0
  0
LINE
  5
26A
100
AcDbEntity
  8
0
 62
     7
100
AcDbLine
 10
-317.666446
 20
-74.428823
 30
0.0
 11
-319.690851
 21
-76.489627
 31
0.0
  0
LINE
  5
26B
100
AcDbEntity
  8
0
 62
     7
100
AcDbLine
 10
-319.690851
 20
-76.489627
 30
0.0
 11
-321.531183
 21
-78.716369
 31
0.0
  0
LINE
  5
26C
100
AcDbEntity
  8
0
 62
     7
100
AcDbLine
 10
-321.531183
 20
-78.716369
 30
0.0
 11
-323.173902
 21
-81.09264
 31
0.0
  0
LINE
  5
26D
100
AcDbEntity
  8
0
 62
     7
100
AcDbLine
 10
-323.173902
 20
-81.09264
 30
0.0
 11
-324.606894
 21
-83.601017
 31
0.0
  0
LINE
  5
26E
100
AcDbEntity
  8
0
 62
     7
100
AcDbLine
 10
-324.606894
 20
-83.601017
 30
0.0
 11
-325.819617
 21
-86.222932
 31
0.0
  0
LINE
  5
26F
100
AcDbEntity
  8
0
 62
     7
100
AcDbLine
 10
-325.819617
 20
-86.222932
 30
0.0
 11
-326.80313
 21
-88.939158
 31
0.0
  0
LINE
  5
270
100
AcDbEntity
  8
0
 62
     7
100
AcDbLine
 10
-326.80313
 20
-88.939158
 30
0.0
 11
-327.550246
 21
-91.729703
 31
0.0
  0
LINE
  5
271
100
AcDbEntity
  8
0
 62
     7
100
AcDbLine
 10
-327.550246
 20
-91.729703
 30
0.0
 11
-328.055427
 21
-94.573995
 31
0.0
  0
LINE
  5
272
100
AcDbEntity
  8
0
 62
     7
100
AcDbLine
 10
-328.055427
 20
-94.573995
 30
0.0
 11
-328.314938
 21
-97.451129
 31
0.0
  0
LINE
  5
273
100
AcDbEntity
  8
0
 62
     7
100
AcDbLine
 10
-328.314938
 20
-97.451129
 30
0.0
 11
-328.326902
 21
-100.339897
 31
0.0
  0
LINE
  5
274
100
AcDbEntity
  8
0
 62
     7
100
AcDbLine
 10
-328.326902
 20
-100.339897
 30
0.0
 11
-328.187176
 21
-102.603418
 31
0.0
  0
LINE
  5
275
100
AcDbEntity
  8
0
 62
     7
100
AcDbLine
 10
-328.187176
 20
-102.603418
 30
0.0
 11
-327.943921
 21
-104.85815
 31
0.0
  0
LINE
  5
276
100
AcDbEntity
  8
0
 62
     7
100
AcDbLine
 10
-327.943921
 20
-104.85815
 30
0.0
 11
-327.597719
 21
-107.099396
 31
0.0
  0
LINE
  5
277
100
AcDbEntity
  8
0
 62
     7
100
AcDbLine
 10
-327.597719
 20
-107.099396
 30
0.0
 11
-327.149332
 21
-109.322429
 31
0.0
  0
LINE
  5
278
100
AcDbEntity
  8
0
 62
     7
100
AcDbLine
 10
-327.149332
 20
-109.322429
 30
0.0
 11
-326.599575
 21
-111.522602
 31
0.0
  0
LINE
  5
279
100
AcDbEntity
  8
0
 62
     7
100
AcDbLine
 10
-326.599575
 20
-111.522602
 30
0.0
 11
-325.949665
 21
-113.695293
 31
0.0
  0
LINE
  5
27A
100
AcDbEntity
  8
0
 62
     7
100
AcDbLine
 10
-325.949665
 20
-113.695293
 30
0.0
 11
-325.201
 21
-115.83598
 31
0.0
  0
LINE
  5
27B
100
AcDbEntity
  8
0
 62
     7
100
AcDbLine
 10
-325.201
 20
-115.83598
 30
0.0
 11
-324.355104
 21
-117.940116
 31
0.0
  0
LINE
  5
27C
100
AcDbEntity
  8
0
 62
     7
100
AcDbLine
 10
-324.355104
 20
-117.940116
 30
0.0
 11
-323.41378
 21
-120.003332
 31
0.0
  0
LINE
  5
27D
100
AcDbEntity
  8
0
 62
     7
100
AcDbLine
 10
-323.41378
 20
-120.003332
 30
0.0
 11
-322.378958
 21
-122.021286
 31
0.0
  0
LINE
  5
27E
100
AcDbEntity
  8
0
 62
     7
100
AcDbLine
 10
-322.378958
 20
-122.021286
 30
0.0
 11
-321.252849
 21
-123.989786
 31
0.0
  0
LINE
  5
27F
100
AcDbEntity
  8
0
 62
     7
100
AcDbLine
 10
-321.252849
 20
-123.989786
 30
0.0
 11
-320.03784
 21
-125.904641
 31
0.0
  0
LINE
  5
280
100
AcDbEntity
  8
0
 62
     7
100
AcDbLine
 10
-320.03784
 20
-125.904641
 30
0.0
 11
-317.821055
 21
-129.030619
 31
0.0
  0
LINE
  5
281
100
AcDbEntity
  8
0
 62
     7
100
AcDbLine
 10
-317.821055
 20
-129.030619
 30
0.0
 11
-315.429798
 21
-132.025203
 31
0.0
  0
LINE
  5
282
100
AcDbEntity
  8
0
 62
     7
100
AcDbLine
 10
-315.429798
 20
-132.025203
 30
0.0
 11
-312.871789
 21
-134.878715
 31
0.0
  0
LINE
  5
283
100
AcDbEntity
  8
0
 62
     7
100
AcDbLine
 10
-312.871789
 20
-134.878715
 30
0.0
 11
-310.155285
 21
-137.581783
 31
0.0
  0
LINE
  5
284
100
AcDbEntity
  8
0
 62
     7
100
AcDbLine
 10
-310.155285
 20
-137.581783
 30
0.0
 11
-307.289225
 21
-140.125669
 31
0.0
  0
LINE
  5
285
100
AcDbEntity
  8
0
 62
     7
100
AcDbLine
 10
-307.289225
 20
-140.125669
 30
0.0
 11
-304.28283
 21
-142.502119
 31
0.0
  0
LINE
  5
286
100
AcDbEntity
  8
0
 62
     7
100
AcDbLine
 10
-304.28283
 20
-142.502119
 30
0.0
 11
-301.14593
 21
-144.70341
 31
0.0
  0
LINE
  5
287
100
AcDbEntity
  8
0
 62
     7
100
AcDbLine
 10
-301.14593
 20
-144.70341
 30
0.0
 11
-297.888659
 21
-146.72238
 31
0.0
  0
LINE
  5
288
100
AcDbEntity
  8
0
 62
     7
100
AcDbLine
 10
-297.888659
 20
-146.72238
 30
0.0
 11
-294.521686
 21
-148.552475
 31
0.0
  0
LINE
  5
289
100
AcDbEntity
  8
0
 62
     7
100
AcDbLine
 10
-294.521686
 20
-148.552475
 30
0.0
 11
-291.055882
 21
-150.187702
 31
0.0
  0
LINE
  5
28A
100
AcDbEntity
  8
0
 62
     7
100
AcDbLine
 10
-291.055882
 20
-150.187702
 30
0.0
 11
-287.502523
 21
-151.622827
 31
0.0
  0
LINE
  5
28B
100
AcDbEntity
  8
0
 62
     7
100
AcDbLine
 10
-287.502523
 20
-151.622827
 30
0.0
 11
-283.873168
 21
-152.853101
 31
0.0
  0
LINE
  5
28C
100
AcDbEntity
  8
0
 62
     7
100
AcDbLine
 10
-283.873168
 20
-152.853101
 30
0.0
 11
-277.343361
 21
-154.763943
 31
0.0
  0
LINE
  5
28D
100
AcDbEntity
  8
0
 62
     7
100
AcDbLine
 10
-277.343361
 20
-154.763943
 30
0.0
 11
-270.763872
 21
-156.49602
 31
0.0
  0
LINE
  5
28E
100
AcDbEntity
  8
0
 62
     7
100
AcDbLine
 10
-270.763872
 20
-156.49602
 30
0.0
 11
-264.139603
 21
-158.048062
 31
0.0
  0
LINE
  5
28F
100
AcDbEntity
  8
0
 62
     7
100
AcDbLine
 10
-264.139603
 20
-158.048062
 30
0.0
 11
-257.475532
 21
-159.418874
 31
0.0
  0
LINE
  5
290
100
AcDbEntity
  8
0
 62
     7
100
AcDbLine
 10
-257.475532
 20
-159.418874
 30
0.0
 11
-250.776485
 21
-160.607467
 31
0.0
  0
LINE
  5
291
100
AcDbEntity
  8
0
 62
     7
100
AcDbLine
 10
-250.776485
 20
-160.607467
 30
0.0
 11
-244.047543
 21
-161.612952
 31
0.0
  0
LINE
  5
292
100
AcDbEntity
  8
0
 62
     7
100
AcDbLine
 10
-244.047543
 20
-161.612952
 30
0.0
 11
-237.293708
 21
-162.434566
 31
0.0
  0
LINE
  5
293
100
AcDbEntity
  8
0
 62
     7
100
AcDbLine
 10
-237.293708
 20
-162.434566
 30
0.0
 11
-230.51996
 21
-163.071699
 31
0.0
  0
LINE
  5
294
100
AcDbEntity
  8
0
 62
     7
100
AcDbLine
 10
-230.51996
 20
-163.071699
 30
0.0
 11
-223.731353
 21
-163.523921
 31
0.0
  0
LINE
  5
295
100
AcDbEntity
  8
0
 62
     7
100
AcDbLine
 10
-223.731353
 20
-163.523921
 30
0.0
 11
-216.932967
 21
-163.790824
 31
0.0
  0
LINE
  5
296
100
AcDbEntity
  8
0
 62
     7
100
AcDbLine
 10
-216.932967
 20
-163.790824
 30
0.0
 11
-210.129805
 21
-163.872256
 31
0.0
  0
LINE
  5
297
100
AcDbEntity
  8
0
 62
     7
100
AcDbLine
 10
-210.129805
 20
-163.872256
 30
0.0
 11
-207.943424
 21
-163.838805
 31
0.0
  0
LINE
  5
298
100
AcDbEntity
  8
0
 62
     7
100
AcDbLine
 10
-207.943424
 20
-163.838805
 30
0.0
 11
-207.943424
 21
-151.665067
 31
0.0
  0
LINE
  5
299
100
AcDbEntity
  8
0
 62
     7
100
AcDbLine
 10
-207.943424
 20
-151.665067
 30
0.0
 11
-249.682584
 21
-151.51508
 31
0.0
  0
LINE
  5
29A
100
AcDbEntity
  8
0
 62
     7
100
AcDbLine
 10
-249.682584
 20
-151.51508
 30
0.0
 11
-249.682584
 21
-148.515061
 31
0.0
  0
LINE
  5
29B
100
AcDbEntity
  8
0
 62
     7
100
AcDbLine
 10
-249.682584
 20
-148.515061
 30
0.0
 11
-208.093436
 21
-148.515061
 31
0.0
  0
LINE
  5
29C
100
AcDbEntity
  8
0
 62
     7
100
AcDbLine
 10
-208.093436
 20
-148.515061
 30
0.0
 11
-207.943424
 21
-147.262409
 31
0.0
  0
LINE
  5
29D
100
AcDbEntity
  8
0
 62
     7
100
AcDbLine
 10
-207.943424
 20
-147.262409
 30
0.0
 11
-211.182508
 21
-147.218315
 31
0.0
  0
LINE
  5
29E
100
AcDbEntity
  8
0
 62
     7
100
AcDbLine
 10
-211.182508
 20
-147.218315
 30
0.0
 11
-219.014827
 21
-146.604651
 31
0.0
  0
LINE
  5
29F
100
AcDbEntity
  8
0
 62
     7
100
AcDbLine
 10
-219.014827
 20
-146.604651
 30
0.0
 11
-226.791215
 21
-145.486771
 31
0.0
  0
LINE
  5
2A0
100
AcDbEntity
  8
0
 62
     7
100
AcDbLine
 10
-226.791215
 20
-145.486771
 30
0.0
 11
-234.479236
 21
-143.869426
 31
0.0
  0
LINE
  5
2A1
100
AcDbEntity
  8
0
 62
     7
100
AcDbLine
 10
-234.479236
 20
-143.869426
 30
0.0
 11
-242.046861
 21
-141.759321
 31
0.0
  0
LINE
  5
2A2
100
AcDbEntity
  8
0
 62
     7
100
AcDbLine
 10
-242.046861
 20
-141.759321
 30
0.0
 11
-249.462569
 21
-139.165219
 31
0.0
  0
LINE
  5
2A3
100
AcDbEntity
  8
0
 62
     7
100
AcDbLine
 10
-249.462569
 20
-139.165219
 30
0.0
 11
-256.695371
 21
-136.097966
 31
0.0
  0
LINE
  5
2A4
100
AcDbEntity
  8
0
 62
     7
100
AcDbLine
 10
-256.695371
 20
-136.097966
 30
0.0
 11
-263.715169
 21
-132.570312
 31
0.0
  0
LINE
  5
2A5
100
AcDbEntity
  8
0
 62
     7
100
AcDbLine
 10
-263.715169
 20
-132.570312
 30
0.0
 11
-270.492702
 21
-128.597041
 31
0.0
  0
LINE
  5
2A6
100
AcDbEntity
  8
0
 62
     7
100
AcDbLine
 10
-270.492702
 20
-128.597041
 30
0.0
 11
-276.999699
 21
-124.194688
 31
0.0
  0
LINE
  5
2A7
100
AcDbEntity
  8
0
 62
     7
100
AcDbLine
 10
-276.999699
 20
-124.194688
 30
0.0
 11
-277.507979
 21
-123.800683
 31
0.0
  0
LINE
  5
2A8
100
AcDbEntity
  8
0
 62
     7
100
AcDbLine
 10
-277.507979
 20
-123.800683
 30
0.0
 11
-300.732367
 21
-123.800683
 31
0.0
  0
LINE
  5
2A9
100
AcDbEntity
  8
0
 62
     7
100
AcDbLine
 10
-300.732367
 20
-123.800683
 30
0.0
 11
-300.732367
 21
-120.800689
 31
0.0
  0
LINE
  5
2AA
100
AcDbEntity
  8
0
 62
     7
100
AcDbLine
 10
-300.732367
 20
-120.800689
 30
0.0
 11
-281.721712
 21
-120.800689
 31
0.0
  0
LINE
  5
2AB
100
AcDbEntity
  8
0
 62
     7
100
AcDbLine
 10
-281.721712
 20
-120.800689
 30
0.0
 11
-283.208983
 21
-119.38154
 31
0.0
  0
LINE
  5
2AC
100
AcDbEntity
  8
0
 62
     7
100
AcDbLine
 10
-283.208983
 20
-119.38154
 30
0.0
 11
-289.094748
 21
-114.177741
 31
0.0
  0
LINE
  5
2AD
100
AcDbEntity
  8
0
 62
     7
100
AcDbLine
 10
-289.094748
 20
-114.177741
 30
0.0
 11
-290.94849
 21
-112.174493
 31
0.0
  0
LINE
  5
2AE
100
AcDbEntity
  8
0
 62
     7
100
AcDbLine
 10
-290.94849
 20
-112.174493
 30
0.0
 11
-292.514045
 21
-109.938785
 31
0.0
  0
LINE
  5
2AF
100
AcDbEntity
  8
0
 62
     7
100
AcDbLine
 10
-292.514045
 20
-109.938785
 30
0.0
 11
-293.762658
 21
-107.511765
 31
0.0
  0
LINE
  5
2B0
100
AcDbEntity
  8
0
 62
     7
100
AcDbLine
 10
-293.762658
 20
-107.511765
 30
0.0
 11
-294.671267
 21
-104.938084
 31
0.0
  0
LINE
  5
2B1
100
AcDbEntity
  8
0
 62
     7
100
AcDbLine
 10
-294.671267
 20
-104.938084
 30
0.0
 11
-295.223209
 21
-102.265115
 31
0.0
  0
LINE
  5
2B2
100
AcDbEntity
  8
0
 62
     7
100
AcDbLine
 10
-295.223209
 20
-102.265115
 30
0.0
 11
-295.408349
 21
-99.542032
 31
0.0
  0
LINE
  5
2B3
100
AcDbEntity
  8
0
 62
     7
100
AcDbLine
 10
-295.408349
 20
-99.542032
 30
0.0
 11
-295.223209
 21
-96.818974
 31
0.0
  0
LINE
  5
2B4
100
AcDbEntity
  8
0
 62
     7
100
AcDbLine
 10
-295.223209
 20
-96.818974
 30
0.0
 11
-295.102889
 21
-96.236298
 31
0.0
  0
LINE
  5
2B5
100
AcDbEntity
  8
0
 62
     7
100
AcDbLine
 10
-295.102889
 20
-96.236298
 30
0.0
 11
-311.310629
 21
-96.086286
 31
0.0
  0
LINE
  5
2B6
100
AcDbEntity
  8
0
 62
     7
100
AcDbLine
 10
-311.310629
 20
-96.086286
 30
0.0
 11
-311.310629
 21
-93.086292
 31
0.0
  0
LINE
  5
2B7
100
AcDbEntity
  8
0
 62
     7
100
AcDbLine
 10
-311.310629
 20
-93.086292
 30
0.0
 11
-294.394178
 21
-93.086292
 31
0.0
  0
LINE
  5
2B8
100
AcDbEntity
  8
0
 62
     7
100
AcDbLine
 10
-294.394178
 20
-93.086292
 30
0.0
 11
-293.762658
 21
-91.572325
 31
0.0
  0
LINE
  5
2B9
100
AcDbEntity
  8
0
 62
     7
100
AcDbLine
 10
-293.762658
 20
-91.572325
 30
0.0
 11
-292.514045
 21
-89.145304
 31
0.0
  0
LINE
  5
2BA
100
AcDbEntity
  8
0
 62
     7
100
AcDbLine
 10
-292.514045
 20
-89.145304
 30
0.0
 11
-290.94849
 21
-86.909596
 31
0.0
  0
LINE
  5
2BB
100
AcDbEntity
  8
0
 62
     7
100
AcDbLine
 10
-286.786446
 20
-82.866754
 30
0.0
 11
-284.350078
 21
-80.981896
 31
0.0
  0
LINE
  5
2BC
100
AcDbEntity
  8
0
 62
     7
100
AcDbLine
 10
-284.350078
 20
-80.981896
 30
0.0
 11
-281.796134
 21
-79.259802
 31
0.0
  0
LINE
  5
2BD
100
AcDbEntity
  8
0
 62
     7
100
AcDbLine
 10
-281.796134
 20
-79.259802
 30
0.0
 11
-279.135382
 21
-77.707811
 31
0.0
  0
LINE
  5
2BE
100
AcDbEntity
  8
0
 62
     7
100
AcDbLine
 10
-279.135382
 20
-77.707811
 30
0.0
 11
-276.379152
 21
-76.332452
 31
0.0
  0
LINE
  5
2BF
100
AcDbEntity
  8
0
 62
     7
100
AcDbLine
 10
-276.379152
 20
-76.332452
 30
0.0
 11
-273.539127
 21
-75.139642
 31
0.0
  0
LINE
  5
2C0
100
AcDbEntity
  8
0
 62
     7
100
AcDbLine
 10
-273.539127
 20
-75.139642
 30
0.0
 11
-270.627474
 21
-74.134387
 31
0.0
  0
LINE
  5
2C1
100
AcDbEntity
  8
0
 62
     7
100
AcDbLine
 10
-270.627474
 20
-74.134387
 30
0.0
 11
-267.656462
 21
-73.321002
 31
0.0
  0
LINE
  5
2C2
100
AcDbEntity
  8
0
 62
     7
100
AcDbLine
 10
-267.656462
 20
-73.321002
 30
0.0
 11
-264.638815
 21
-72.702944
 31
0.0
  0
LINE
  5
2C3
100
AcDbEntity
  8
0
 62
     7
100
AcDbLine
 10
-264.638815
 20
-72.702944
 30
0.0
 11
-261.587284
 21
-72.282828
 31
0.0
  0
LINE
  5
2C4
100
AcDbEntity
  8
0
 62
     7
100
AcDbLine
 10
-261.587284
 20
-72.282828
 30
0.0
 11
-258.514849
 21
-72.062458
 31
0.0
  0
LINE
  5
2C5
100
AcDbEntity
  8
0
 62
     7
100
AcDbLine
 10
-258.514849
 20
-72.062458
 30
0.0
 11
-255.434617
 21
-72.042722
 31
0.0
  0
LINE
  5
2C6
100
AcDbEntity
  8
0
 62
     7
100
AcDbLine
 10
-255.434617
 20
-72.042722
 30
0.0
 11
-253.659055
 21
-72.042722
 31
0.0
  0
LINE
  5
2C7
100
AcDbEntity
  8
0
 62
     7
100
AcDbLine
 10
-253.659055
 20
-72.042722
 30
0.0
 11
-251.883544
 21
-72.042722
 31
0.0
  0
LINE
  5
2C8
100
AcDbEntity
  8
0
 62
     7
100
AcDbLine
 10
-251.883544
 20
-72.042722
 30
0.0
 11
-248.453478
 21
-72.042722
 31
0.0
  0
LINE
  5
2C9
100
AcDbEntity
  8
0
 62
     7
100
AcDbLine
 10
-248.453478
 20
-72.042722
 30
0.0
 11
-245.023436
 21
-72.042722
 31
0.0
  0
LINE
  5
2CA
100
AcDbEntity
  8
0
 62
     7
100
AcDbLine
 10
-245.023436
 20
-72.042722
 30
0.0
 11
-240.17262
 21
-72.042722
 31
0.0
  0
LINE
  5
2CB
100
AcDbEntity
  8
0
 62
     7
100
AcDbLine
 10
-240.17262
 20
-72.042722
 30
0.0
 11
-235.321805
 21
-72.042722
 31
0.0
  0
LINE
  5
2CC
100
AcDbEntity
  8
0
 62
     7
100
AcDbLine
 10
-235.321805
 20
-72.042722
 30
0.0
 11
-229.38077
 21
-72.042722
 31
0.0
  0
LINE
  5
2CD
100
AcDbEntity
  8
0
 62
     7
100
AcDbLine
 10
-229.38077
 20
-72.042722
 30
0.0
 11
-223.439735
 21
-72.042722
 31
0.0
  0
LINE
  5
2CE
100
AcDbEntity
  8
0
 62
     7
100
AcDbLine
 10
-223.439735
 20
-72.042722
 30
0.0
 11
-216.813383
 21
-72.042722
 31
0.0
  0
LINE
  5
2CF
100
AcDbEntity
  8
0
 62
     7
100
AcDbLine
 10
-216.813383
 20
-72.042722
 30
0.0
 11
-210.187031
 21
-72.042722
 31
0.0
  0
LINE
  5
2D0
100
AcDbEntity
  8
0
 62
     7
100
AcDbLine
 10
-210.187031
 20
-72.042722
 30
0.0
 11
-207.943424
 21
-72.042722
 31
0.0
  0
LINE
  5
2D1
100
AcDbEntity
  8
0
 62
     7
100
AcDbLine
 10
-207.943424
 20
-72.042722
 30
0.0
 11
-207.943424
 21
-68.521901
 31
0.0
  0
LINE
  5
2D2
100
AcDbEntity
  8
0
 62
     7
100
AcDbLine
 10
-207.943424
 20
-68.521901
 30
0.0
 11
-257.206902
 21
-68.371889
 31
0.0
  0
LINE
  5
2D3
100
AcDbEntity
  8
0
 62
     7
100
AcDbLine
 10
-257.206902
 20
-68.371889
 30
0.0
 11
-257.206902
 21
-65.371895
 31
0.0
  0
LINE
  5
2D4
100
AcDbEntity
  8
0
 62
     7
100
AcDbLine
 10
-257.206902
 20
-65.371895
 30
0.0
 11
-208.093436
 21
-65.371895
 31
0.0
  0
LINE
  5
2D5
100
AcDbEntity
  8
0
 62
     7
100
AcDbLine
 10
-208.093436
 20
-65.371895
 30
0.0
 11
-207.943424
 21
-53.757719
 31
0.0
  0
LINE
  5
2D6
100
AcDbEntity
  8
0
 62
     7
100
AcDbLine
 10
-207.943424
 20
-53.757719
 30
0.0
 11
-213.288524
 21
-53.4755
 31
0.0
  0
LINE
  5
2D7
100
AcDbEntity
  8
0
 62
     7
100
AcDbLine
 10
-213.288524
 20
-53.4755
 30
0.0
 11
-218.273655
 21
-53.273925
 31
0.0
  0
LINE
  5
2D8
100
AcDbEntity
  8
0
 62
     7
100
AcDbLine
 10
-218.273655
 20
-53.273925
 30
0.0
 11
-223.260767
 21
-53.129933
 31
0.0
  0
LINE
  5
2D9
100
AcDbEntity
  8
0
 62
     7
100
AcDbLine
 10
-223.260767
 20
-53.129933
 30
0.0
 11
-228.249225
 21
-53.043522
 31
0.0
  0
LINE
  5
2DA
100
AcDbEntity
  8
0
 62
     7
100
AcDbLine
 10
-228.249225
 20
-53.043522
 30
0.0
 11
-233.238319
 21
-53.014693
 31
0.0
  0
LINE
  5
2DB
100
AcDbEntity
  8
0
 62
     7
100
AcDbLine
 10
-233.238319
 20
-53.014693
 30
0.0
 11
-238.227463
 21
-53.043522
 31
0.0
  0
LINE
  5
2DC
100
AcDbEntity
  8
0
 62
     7
100
AcDbLine
 10
-238.227463
 20
-53.043522
 30
0.0
 11
-243.215921
 21
-53.129933
 31
0.0
  0
LINE
  5
2DD
100
AcDbEntity
  8
0
 62
     7
100
AcDbLine
 10
-243.215921
 20
-53.129933
 30
0.0
 11
-248.203008
 21
-53.273925
 31
0.0
  0
LINE
  5
2DE
100
AcDbEntity
  8
0
 62
     7
100
AcDbLine
 10
-248.203008
 20
-53.273925
 30
0.0
 11
-253.188139
 21
-53.4755
 31
0.0
  0
LINE
  5
2DF
100
AcDbEntity
  8
0
 62
     7
100
AcDbLine
 10
-253.188139
 20
-53.4755
 30
0.0
 11
-258.170629
 21
-53.734656
 31
0.0
  0
LINE
  5
2E0
100
AcDbEntity
  8
0
 62
     7
100
AcDbLine
 10
-263.14974
 20
-54.051292
 30
0.0
 11
-267.573378
 21
-54.452968
 31
0.0
  0
LINE
  5
2E1
100
AcDbEntity
  8
0
 62
     7
100
AcDbLine
 10
-267.573378
 20
-54.452968
 30
0.0
 11
-271.975884
 21
-55.0424
 31
0.0
  0
LINE
  5
2E2
100
AcDbEntity
  8
0
 62
     7
100
AcDbLine
 10
-271.975884
 20
-55.0424
 30
0.0
 11
-276.349332
 21
-55.818523
 31
0.0
  0
LINE
  5
2E3
100
AcDbEntity
  8
0
 62
     7
100
AcDbLine
 10
-276.349332
 20
-55.818523
 30
0.0
 11
-280.685849
 21
-56.779913
 31
0.0
  0
LINE
  5
2E4
100
AcDbEntity
  8
0
 62
     7
100
AcDbLine
 10
-280.685849
 20
-56.779913
 30
0.0
 11
-284.977535
 21
-57.924894
 31
0.0
  0
LINE
  5
2E5
100
AcDbEntity
  8
0
 62
     7
100
AcDbLine
 10
-284.977535
 20
-57.924894
 30
0.0
 11
-289.216693
 21
-59.251333
 31
0.0
  0
LINE
  5
2E6
100
AcDbEntity
  8
0
 62
     7
100
AcDbLine
 10
-289.216693
 20
-59.251333
 30
0.0
 11
-293.395577
 21
-60.756867
 31
0.0
  0
LINE
  5
2E7
100
AcDbEntity
  8
0
 62
     7
100
AcDbLine
 10
-293.395577
 20
-60.756867
 30
0.0
 11
-297.506618
 21
-62.438728
 31
0.0
  0
LINE
  5
2E8
100
AcDbEntity
  8
0
 62
     7
100
AcDbLine
 10
-297.506618
 20
-62.438728
 30
0.0
 11
-301.542475
 21
-64.293944
 31
0.0
  0
LINE
  5
2E9
100
AcDbEntity
  8
0
 62
     7
100
AcDbLine
 10
-301.542475
 20
-64.293944
 30
0.0
 11
-305.495731
 21
-66.319086
 31
0.0
  0
LINE
  5
2EA
100
AcDbEntity
  8
0
 62
     7
100
AcDbLine
 10
-305.495731
 20
-66.319086
 30
0.0
 11
-309.359325
 21
-68.510547
 31
0.0
  0
LINE
  5
2EB
100
AcDbEntity
  8
0
370
     0
  6
Continuous
 62
     7
100
AcDbLine
 10
-285.815897
 20
-87.588954
 30
0.0
 11
-288.097094
 21
-84.024817
 31
0.0
  0
LINE
  5
2EC
100
AcDbEntity
  8
0
370
     0
  6
Continuous
 62
     7
100
AcDbLine
 10
-285.815897
 20
-89.064034
 30
0.0
 11
-290.103715
 21
-85.996678
 31
0.0
  0
LINE
  5
2ED
100
AcDbEntity
  8
0
 62
     7
100
AcDbLine
 10
-288.097094
 20
-84.024817
 30
0.0
 11
-286.786446
 21
-82.866754
 31
0.0
  0
LINE
  5
2EE
100
AcDbEntity
  8
0
 62
     7
100
AcDbLine
 10
-290.94849
 20
-86.909596
 30
0.0
 11
-290.103715
 21
-85.996678
 31
0.0
  0
ENDSEC
  0
SECTION
  2
OBJECTS
  0
DICTIONARY
  5
19
100
AcDbDictionary
280
     0
281
     1
  3
ACAD_GROUP
350
1A
  3
ACAD_MLINESTYLE
350
1B
  3
ACAD_LAYOUT
350
1E
  3
ACAD_PLOTSETTINGS
350
22
  3
ACAD_PLOTSTYLENAME
350
1F
  0
DICTIONARY
  5
1A
102
{ACAD_REACTORS
330
19
102
}
100
AcDbDictionary
280
     0
281
     1
  0
DICTIONARY
  5
1B
102
{ACAD_REACTORS
330
19
102
}
100
AcDbDictionary
280
     0
281
     1
  3
Standard
350
1C
  0
MLINESTYLE
  5
1C
100
AcDbMlineStyle
  2
STANDARD
 70
     0
  3

 62
   256
 51
90.0
 52
90.0
 71
     2
 49
0.5
 62
   256
  6
BYLAYER
 49
-0.5
 62
   256
  6
BYLAYER
  0
ACDBDICTIONARYWDFLT
  5
1F
102
{ACAD_REACTORS
330
19
102
}
100
AcDbDictionary
281
     1
  3
Normal
350
1D
100
AcDbDictionaryWithDefault
340
1D
  0
ACDBPLACEHOLDER
  5
1D
102
{ACAD_REACTORS
330
1F
102
}
  0
LAYOUT
  5
21
102
{ACAD_REACTORS
330
1E
102
}
100
AcDbPlotSettings
  1

  2

  4

  6

 40
0.0
 41
0.0
 42
0.0
 43
0.0
 44
0.0
 45
0.0
 46
0.0
 47
0.0
 48
0.0
 49
0.0
140
0.0
141
0.0
142
1.0
143
1.0
 70
     0
 72
     0
 73
     0
 74
     0
  7

 75
     0
147
1.0
148
0.0
149
0.0
100
AcDbLayout
  1
Layout1
 70
     0
 71
     0
 10
0.0
 20
0.0
 11
0.0
 21
0.0
 12
0.0
 22
0.0
 32
0.0
 14
0.0
 24
0.0
 34
0.0
 15
0.0
 25
0.0
 35
0.0
146
0.0
 13
0.0
 23
0.0
 33
0.0
 16
0.0
 26
0.0
 36
0.0
 17
0.0
 27
0.0
 37
0.0
 76
     0
330
B
331
0
345
0
346
0
  0
DICTIONARY
  5
1E
102
{ACAD_REACTORS
330
19
102
}
100
AcDbDictionary
280
     0
281
     1
  3
Model
350
2EF
  3
_Paper_Space
350
2F0
  0
DICTIONARY
  5
22
102
{ACAD_REACTORS
330
19
102
}
100
AcDbDictionary
280
     0
281
     1
  0
LAYOUT
  5
2EF
100
AcDbPlotSettings
  1

  2

  4

  6

 40
0.0
 41
0.0
 42
0.0
 43
0.0
 44
0.0
 45
0.0
 46
0.0
 47
0.0
 48
0.0
 49
0.0
140
0.0
141
0.0
142
1.0
143
1.0
 70
     0
 72
     0
 73
     0
 74
     0
  7

 75
     0
147
1.0
148
0.0
149
0.0
100
AcDbLayout
  1
Model
 70
     0
 71
     0
 10
0.0
 20
0.0
 11
0.0
 21
0.0
 12
0.0
 22
0.0
 32
0.0
 14
0.0
 24
0.0
 34
0.0
 15
0.0
 25
0.0
 35
0.0
146
0.0
 13
0.0
 23
0.0
 33
0.0
 16
0.0
 26
0.0
 36
0.0
 17
0.0
 27
0.0
 37
0.0
 76
     0
330
A
331
0
345
0
346
0
  0
LAYOUT
  5
2F0
100
AcDbPlotSettings
  1

  2

  4

  6

 40
0.0
 41
0.0
 42
0.0
 43
0.0
 44
12.0
 45
9.0
 46
0.0
 47
0.0
 48
0.0
 49
0.0
140
0.0
141
0.0
142
1.0
143
1.0
 70
     0
 72
     0
 73
     0
 74
     0
  7

 75
     0
147
1.0
148
0.0
149
0.0
100
AcDbLayout
  1
_Paper_Space
 70
     1
 71
     1
 10
0.0
 20
0.0
 11
12.0
 21
9.0
 12
0.0
 22
0.0
 32
0.0
 14
0.0
 24
0.0
 34
0.0
 15
0.0
 25
0.0
 35
0.0
146
0.0
 13
0.0
 23
0.0
 33
0.0
 16
0.0
 26
0.0
 36
0.0
 17
0.0
 27
0.0
 37
0.0
 76
     0
330
B
331
0
345
0
346
0
  0
ENDSEC
  0
EOF
