  0
SECTION
  2
HEADER
  9
$ACADVER
  1
AC1015
  9
$ACADMAINTVER
 70
     6
  9
$DWGCODEPAGE
  3
ANSI_1252
  9
$INSBASE
 10
0.0
 20
0.0
 30
0.0
  9
$EXTMIN
 10
43.773163
 20
-292.301483
 30
0.0
  9
$EXTMAX
 10
331.803253
 20
-94.697021
 30
0.0
  9
$LIMMIN
 10
43.773163
 20
-292.301483
  9
$LIMMAX
 10
331.803253
 20
-94.697021
  9
$ORTHOMODE
 70
     0
  9
$REGENMODE
 70
     1
  9
$FILLMODE
 70
     1
  9
$QTEXTMODE
 70
     0
  9
$MIRRTEXT
 70
     1
  9
$LTSCALE
 40
1.0
  9
$ATTMODE
 70
     1
  9
$TEXTSIZE
 40
0.2
  9
$TRACEWID
 40
0.05
  9
$TEXTSTYLE
  7
STANDARD
  9
$CLAYER
  8
0
  9
$CELTYPE
  6
Continuous
  9
$CECOLOR
 62
     7
  9
$CELTSCALE
 40
1.0
  9
$DISPSILH
 70
     0
  9
$DIMSCALE
 40
1.0
  9
$DIMASZ
 40
0.18
  9
$DIMEXO
 40
0.0625
  9
$DIMDLI
 40
0.38
  9
$DIMRND
 40
0.0
  9
$DIMDLE
 40
0.0
  9
$DIMEXE
 40
0.18
  9
$DIMTP
 40
0.0
  9
$DIMTM
 40
0.0
  9
$DIMTXT
 40
0.18
  9
$DIMCEN
 40
0.09
  9
$DIMTSZ
 40
0.0
  9
$DIMTOL
 70
     0
  9
$DIMLIM
 70
     0
  9
$DIMTIH
 70
     1
  9
$DIMTOH
 70
     1
  9
$DIMSE1
 70
     0
  9
$DIMSE2
 70
     0
  9
$DIMTAD
 70
     0
  9
$DIMZIN
 70
     0
  9
$DIMBLK
  1

  9
$DIMASO
 70
     0
  9
$DIMSHO
 70
     1
  9
$DIMPOST
  1

  9
$DIMAPOST
  1

  9
$DIMALT
 70
     0
  9
$DIMALTD
 70
     2
  9
$DIMALTF
 40
25.4
  9
$DIMLFAC
 40
1.0
  9
$DIMTOFL
 70
     0
  9
$DIMTVP
 40
0.0
  9
$DIMTIX
 70
     0
  9
$DIMSOXD
 70
     0
  9
$DIMSAH
 70
     0
  9
$DIMBLK1
  1

  9
$DIMBLK2
  1

  9
$DIMSTYLE
  2
STANDARD
  9
$DIMCLRD
 70
     0
  9
$DIMCLRE
 70
     0
  9
$DIMCLRT
 70
     0
  9
$DIMTFAC
 40
1.0
  9
$DIMGAP
 40
0.09
  9
$DIMJUST
 70
     0
  9
$DIMSD1
 70
     0
  9
$DIMSD2
 70
     0
  9
$DIMTOLJ
 70
     1
  9
$DIMTZIN
 70
     0
  9
$DIMALTZ
 70
     0
  9
$DIMALTTZ
 70
     0
  9
$DIMUPT
 70
     0
  9
$DIMDEC
 70
     4
  9
$DIMTDEC
 70
     4
  9
$DIMALTU
 70
     2
  9
$DIMALTTD
 70
     2
  9
$DIMTXSTY
  7
STANDARD
  9
$DIMAUNIT
 70
     0
  9
$DIMADEC
 70
     4
  9
$DIMALTRND
 40
0.0
  9
$DIMAZIN
 70
     0
  9
$DIMDSEP
 70
     0
  9
$DIMATFIT
 70
     0
  9
$DIMFRAC
 70
     0
  9
$DIMLDRBLK
  1

  9
$DIMLUNIT
 70
     2
  9
$DIMLWD
 70
     0
  9
$DIMLWE
 70
     0
  9
$DIMTMOVE
 70
     0
  9
$LUNITS
 70
     2
  9
$LUPREC
 70
     4
  9
$SKETCHINC
 40
0.1
  9
$FILLETRAD
 40
0.0
  9
$AUNITS
 70
     0
  9
$AUPREC
 70
     0
  9
$MENU
  1
acad
  9
$ELEVATION
 40
0.0
  9
$PELEVATION
 40
0.0
  9
$THICKNESS
 40
0.0
  9
$LIMCHECK
 70
     0
  9
$CHAMFERA
 40
0.0
  9
$CHAMFERB
 40
0.0
  9
$CHAMFERC
 40
0.0
  9
$CHAMFERD
 40
0.0
  9
$SKPOLY
 70
     0
  9
$TDCREATE
 40
0.000000000
  9
$TDUCREATE
 40
0.000000000
  9
$TDUPDATE
 40
0.000000000
  9
$TDUUPDATE
 40
0.000000000
  9
$TDINDWG
 40
0.0000000000
  9
$TDUSRTIMER
 40
0.0000000000
  9
$USRTIMER
 70
     1
  9
$ANGBASE
 50
0.0
  9
$ANGDIR
 70
     0
  9
$PDMODE
 70
     0
  9
$PDSIZE
 40
0.0
  9
$PLINEWID
 40
0.0
  9
$SPLFRAME
 70
     0
  9
$SPLINETYPE
 70
     6
  9
$SPLINESEGS
 70
     8
  9
$HANDSEED
  5
41E
  9
$SURFTAB1
 70
     6
  9
$SURFTAB2
 70
     6
  9
$SURFTYPE
 70
     6
  9
$SURFU
 70
     6
  9
$SURFV
 70
     6
  9
$UCSBASE
  2

  9
$UCSNAME
  2

  9
$UCSORG
 10
0.0
 20
0.0
 30
0.0
  9
$UCSXDIR
 10
1.0
 20
0.0
 30
0.0
  9
$UCSYDIR
 10
0.0
 20
1.0
 30
0.0
  9
$UCSORTHOREF
  2

  9
$UCSORTHOVIEW
 70
     0
  9
$UCSORGTOP
 10
0.0
 20
0.0
 30
0.0
  9
$UCSORGBOTTOM
 10
0.0
 20
0.0
 30
0.0
  9
$UCSORGLEFT
 10
0.0
 20
0.0
 30
0.0
  9
$UCSORGRIGHT
 10
0.0
 20
0.0
 30
0.0
  9
$UCSORGFRONT
 10
0.0
 20
0.0
 30
0.0
  9
$UCSORGBACK
 10
0.0
 20
0.0
 30
0.0
  9
$PUCSBASE
  2

  9
$PUCSNAME
  2

  9
$PUCSORG
 10
0.0
 20
0.0
 30
0.0
  9
$PUCSXDIR
 10
1.0
 20
0.0
 30
0.0
  9
$PUCSYDIR
 10
0.0
 20
1.0
 30
0.0
  9
$PUCSORTHOREF
  2

  9
$PUCSORTHOVIEW
 70
     0
  9
$PUCSORGTOP
 10
0.0
 20
0.0
 30
0.0
  9
$PUCSORGBOTTOM
 10
0.0
 20
0.0
 30
0.0
  9
$PUCSORGLEFT
 10
0.0
 20
0.0
 30
0.0
  9
$PUCSORGRIGHT
 10
0.0
 20
0.0
 30
0.0
  9
$PUCSORGFRONT
 10
0.0
 20
0.0
 30
0.0
  9
$PUCSORGBACK
 10
0.0
 20
0.0
 30
0.0
  9
$USERI1
 70
     0
  9
$USERI2
 70
     0
  9
$USERI3
 70
     0
  9
$USERI4
 70
     0
  9
$USERI5
 70
     0
  9
$USERR1
 40
0.0
  9
$USERR2
 40
0.0
  9
$USERR3
 40
0.0
  9
$USERR4
 40
0.0
  9
$USERR5
 40
0.0
  9
$WORLDVIEW
 70
     1
  9
$SHADEDGE
 70
     3
  9
$SHADEDIF
 70
    70
  9
$TILEMODE
 70
     1
  9
$MAXACTVP
 70
    16
  9
$PINSBASE
 10
0.0
 20
0.0
 30
0.0
  9
$PLIMCHECK
 70
     0
  9
$PEXTMIN
 10
0.0
 20
0.0
 30
0.0
  9
$PEXTMAX
 10
12.0
 20
9.0
 30
0.0
  9
$PLIMMIN
 10
0.0
 20
0.0
  9
$PLIMMAX
 10
12.0
 20
9.0
  9
$UNITMODE
 70
     0
  9
$VISRETAIN
 70
     0
  9
$PLINEGEN
 70
     1
  9
$PSLTSCALE
 70
     0
  9
$TREEDEPTH
 70
  3020
  9
$CMLSTYLE
  2
STANDARD
  9
$CMLJUST
 70
     0
  9
$CMLSCALE
 40
1.0
  9
$PROXYGRAPHICS
 70
     0
  9
$MEASUREMENT
 70
     0
  9
$CELWEIGHT
370
     0
  9
$ENDCAPS
280
     0
  9
$JOINSTYLE
280
     0
  9
$LWDISPLAY
290
     0
  9
$INSUNITS
 70
     0
  9
$HYPERLINKBASE
  1

  9
$XEDIT
290
     1
  9
$CEPSNTYPE
380
     0
  9
$PSTYLEMODE
290
     1
  9
$FINGERPRINTGUID
  2

  9
$VERSIONGUID
  2

  9
$EXTNAMES
290
     1
  9
$PSVPSCALE
 40
0.0
  0
ENDSEC
  0
SECTION
  2
CLASSES
  0
CLASS
  1
LWPOLYLINE
  2
AcDbPolyline
  3
AutoCAD 2000
 90
    32768
280
     0
281
     1
  0
CLASS
  1
IMAGE
  2
AcDbRasterImage
  3
ISM
 90
    32895
280
     0
281
     1
  0
CLASS
  1
OLE2FRAME
  2
AcDbOle2Frame
  3
AutoCAD 2000
 90
    32768
280
     0
281
     1
  0
CLASS
  1
HATCH
  2
AcDbHatch
  3
AutoCAD 2000
 90
    32768
280
     0
281
     1
  0
CLASS
  1
DICTIONARYVAR
  2
AcDbDictionaryVar
  3
AutoCAD 2000
 90
    32768
280
     0
281
     0
  0
CLASS
  1
RASTERVARIABLES
  2
AcDbRasterVariables
  3
ISM
 90
    32768
280
     0
281
     0
  0
CLASS
  1
IMAGEDEF
  2
AcDbRasterImageDef
  3
ISM
 90
    32768
280
     0
281
     0
  0
CLASS
  1
IMAGEDEF_REACTOR
  2
AcDbRasterImageDefReactor
  3
ISM
 90
    32769
280
     0
281
     0
  0
CLASS
  1
IDBUFFER
  2
AcDbIdBuffer
  3
AutoCAD 2000
 90
    32768
280
     0
281
     0
  0
CLASS
  1
SPATIAL_FILTER
  2
AcDbSpatialFilter
  3
AutoCAD 2000
 90
    32768
280
     0
281
     0
  0
CLASS
  1
XRECORD
  2
AcDbXrecord
  3
AutoCAD 2000
 90
    32768
280
     0
281
     0
  0
CLASS
  1
SORTENTSTABLE
  2
AcDbSortentsTable
  3
AutoCAD 2000
 90
    32768
280
     0
281
     0
  0
CLASS
  1
LAYER_INDEX
  2
AcDbLayerIndex
  3
AutoCAD 2000
 90
    32768
280
     0
281
     0
  0
CLASS
  1
SPATIAL_INDEX
  2
AcDbSpatialIndex
  3
AutoCAD 2000
 90
    32768
280
     0
281
     0
  0
CLASS
  1
OBJECT_PTR
  2
CAseDLPNTableRecord
  3
"ASE-LPNTableRecord"
 90
    32769
280
     0
281
     0
  0
CLASS
  1
LAYOUT
  2
AcDbLayout
  3
AutoCAD 2000
 90
        0
280
     0
281
     0
  0
CLASS
  1
PLOTSETTINGS
  2
AcDbPlotSettings
  3
AutoCAD 2000
 90
    32768
280
     0
281
     0
  0
CLASS
  1
ACDBDICTIONARYWDFLT
  2
AcDbDictionaryWithDefault
  3
AutoCAD 2000
 90
        0
280
     0
281
     0
  0
CLASS
  1
ACDBPLACEHOLDER
  2
AcDbPlaceHolder
  3
AutoCAD 2000
 90
        0
280
     0
281
     0
  0
ENDSEC
  0
SECTION
  2
TABLES
  0
TABLE
  2
VPORT
  5
7
100
AcDbSymbolTable
 70
     1
  0
VPORT
  5
15
100
AcDbSymbolTableRecord
100
AcDbViewportTableRecord
  2
*ACTIVE
 70
     0
 10
0.0
 20
0.0
 11
1.0
 21
1.0
 12
0.0
 22
0.0
 13
0.0
 23
0.0
 14
0.0
 24
0.0
 15
0.0
 25
0.0
 16
0.0
 26
0.0
 36
1.0
 17
187.788208
 27
-193.499259
 37
4.0
 40
201.556564
 41
1.746787
 42
50.0
 43
0.0
 44
0.0
 50
0.0
 51
0.0
 71
     0
 72
   100
 73
     1
 74
     1
 75
     0
 76
     0
 77
     0
 78
     0
281
     0
 65
     0
110
0.0
120
0.0
130
0.0
111
1.0
121
0.0
131
0.0
112
0.0
122
1.0
132
0.0
345
0
346
0
 79
     0
146
0.0
  0
ENDTAB
  0
TABLE
  2
LTYPE
  5
4
100
AcDbSymbolTable
 70
    15
  0
LTYPE
  5
11
100
AcDbSymbolTableRecord
100
AcDbLinetypeTableRecord
  2
ByBlock
 70
    64
  3

 72
    65
 73
     0
 40
0.0
  0
LTYPE
  5
12
100
AcDbSymbolTableRecord
100
AcDbLinetypeTableRecord
  2
ByLayer
 70
    64
  3

 72
    65
 73
     0
 40
0.0
  0
LTYPE
  5
13
100
AcDbSymbolTableRecord
100
AcDbLinetypeTableRecord
  2
Continuous
 70
    64
  3
Solid line
 72
    65
 73
     0
 40
0.0
  0
LTYPE
  5
24
100
AcDbSymbolTableRecord
100
AcDbLinetypeTableRecord
  2
BORDER
 70
     0
  3
BORDER
 72
    65
 73
     6
 40
1.75
 49
0.5
 74
     0
 49
-0.25
 74
     0
 49
0.5
 74
     0
 49
-0.25
 74
     0
 49
0.0
 74
     0
 49
-0.25
 74
     0
  0
LTYPE
  5
25
100
AcDbSymbolTableRecord
100
AcDbLinetypeTableRecord
  2
CENTER
 70
     0
  3
CENTER
 72
    65
 73
     4
 40
2.0
 49
1.25
 74
     0
 49
-0.25
 74
     0
 49
0.25
 74
     0
 49
-0.25
 74
     0
  0
LTYPE
  5
26
100
AcDbSymbolTableRecord
100
AcDbLinetypeTableRecord
  2
DASHDOT
 70
     0
  3
DASHDOT
 72
    65
 73
     4
 40
1.0
 49
0.5
 74
     0
 49
-0.25
 74
     0
 49
0.0
 74
     0
 49
-0.25
 74
     0
  0
LTYPE
  5
27
100
AcDbSymbolTableRecord
100
AcDbLinetypeTableRecord
  2
DASHED
 70
     0
  3
DASHED
 72
    65
 73
     2
 40
0.75
 49
0.5
 74
     0
 49
-0.25
 74
     0
  0
LTYPE
  5
28
100
AcDbSymbolTableRecord
100
AcDbLinetypeTableRecord
  2
DIVIDE
 70
     0
  3
DIVIDE
 72
    65
 73
     6
 40
1.25
 49
0.5
 74
     0
 49
-0.25
 74
     0
 49
0.0
 74
     0
 49
-0.25
 74
     0
 49
0.0
 74
     0
 49
-0.25
 74
     0
  0
LTYPE
  5
29
100
AcDbSymbolTableRecord
100
AcDbLinetypeTableRecord
  2
DOT
 70
     0
  3
DOT
 72
    65
 73
     2
 40
0.25
 49
0.0
 74
     0
 49
-0.25
 74
     0
  0
LTYPE
  5
2A
100
AcDbSymbolTableRecord
100
AcDbLinetypeTableRecord
  2
HIDDEN
 70
     0
  3
HIDDEN
 72
    65
 73
     2
 40
0.375
 49
0.25
 74
     0
 49
-0.125
 74
     0
  0
LTYPE
  5
2B
100
AcDbSymbolTableRecord
100
AcDbLinetypeTableRecord
  2
PHANTOM
 70
     0
  3
PHANTOM
 72
    65
 73
     6
 40
2.5
 49
1.25
 74
     0
 49
-0.25
 74
     0
 49
0.25
 74
     0
 49
-0.25
 74
     0
 49
0.25
 74
     0
 49
-0.25
 74
     0
  0
LTYPE
  5
2C
100
AcDbSymbolTableRecord
100
AcDbLinetypeTableRecord
  2
$INVISIBLE
 70
     0
  3
$INVISIBLE
 72
    65
 73
     2
 40
200.0
 49
-100.0
 74
     0
 49
-100.0
 74
     0
  0
LTYPE
  5
2D
100
AcDbSymbolTableRecord
100
AcDbLinetypeTableRecord
  2
$SNAPEXT
 70
     0
  3
$SNAPEXT
 72
    65
 73
     2
 40
0.04
 49
0.02
 74
     0
 49
-0.02
 74
     0
  0
LTYPE
  5
2E
100
AcDbSymbolTableRecord
100
AcDbLinetypeTableRecord
  2
$AUXILIARY
 70
     0
  3
$AUXILIARY
 72
    65
 73
     2
 40
0.1
 49
0.05
 74
     0
 49
-0.05
 74
     0
  0
LTYPE
  5
2F
100
AcDbSymbolTableRecord
100
AcDbLinetypeTableRecord
  2
$CONSTRUCTION
 70
     0
  3
$CONSTRUCTION
 72
    65
 73
     4
 40
0.3
 49
0.2
 74
     0
 49
-0.05
 74
     0
 49
0.0
 74
     0
 49
-0.05
 74
     0
  0
ENDTAB
  0
TABLE
  2
LAYER
  5
2
100
AcDbSymbolTable
 70
     3
  0
LAYER
  5
14
100
AcDbSymbolTableRecord
100
AcDbLayerTableRecord
  2
0
 70
     0
 62
     7
  6
Continuous
290
     1
370
    -3
390
0
1001
TCAD
1000
TCW_LAYER_ORDER
1002
{
1071
        0
1002
}
  0
LAYER
  5
30
100
AcDbSymbolTableRecord
100
AcDbLayerTableRecord
  2
Layer0
 70
     0
 62
     7
  6
Continuous
290
     1
370
    -3
390
0
1001
TCAD
1000
TCW_LAYER_ORDER
1002
{
1071
        0
1002
}
  0
LAYER
  5
31
100
AcDbSymbolTableRecord
100
AcDbLayerTableRecord
  2
$CONSTRUCTION
 70
     0
 62
     9
  6
$CONSTRUCTION
290
     1
370
    -3
390
0
1001
TCAD
1000
TCW_LAYER_ORDER
1002
{
1071
        0
1002
}
  0
ENDTAB
  0
TABLE
  2
STYLE
  5
3
100
AcDbSymbolTable
 70
     1
  0
STYLE
  5
17
100
AcDbSymbolTableRecord
100
AcDbTextStyleTableRecord
  2
STANDARD
 70
     0
 40
0.0
 41
1.0
 50
0.0
 71
     0
 42
0.0
  3
TXT.SHX
  4

  0
ENDTAB
  0
TABLE
  2
VIEW
  5
5
100
AcDbSymbolTable
 70
     1
  0
VIEW
  5
32
100
AcDbSymbolTableRecord
100
AcDbViewTableRecord
  2
Vue_0
 70
     0
 40
210.0
 10
148.5
 20
105.0
 41
297.0
 11
0.0
 21
0.0
 31
1.0
 12
0.0
 22
0.0
 32
0.0
 42
50.0
 43
0.0
 44
0.0
 50
0.0
 71
     0
281
     0
 72
     0
110
0.0
120
0.0
130
0.0
111
1.0
121
0.0
131
0.0
112
0.0
122
1.0
132
0.0
  0
ENDTAB
  0
TABLE
  2
UCS
  5
6
100
AcDbSymbolTable
 70
     0
  0
ENDTAB
  0
TABLE
  2
APPID
  5
8
100
AcDbSymbolTable
 70
     2
  0
APPID
  5
16
100
AcDbSymbolTableRecord
100
AcDbRegAppTableRecord
  2
ACAD
 70
     0
  0
APPID
  5
23
100
AcDbSymbolTableRecord
100
AcDbRegAppTableRecord
  2
TCAD
 70
     0
  0
ENDTAB
  0
TABLE
  2
DIMSTYLE
  5
9
100
AcDbSymbolTable
 70
     1
100
AcDbDimStyleTable
 71
     0
  0
DIMSTYLE
105
18
100
AcDbSymbolTableRecord
100
AcDbDimStyleTableRecord
  2
STANDARD
 70
     0
  3

  4

 40
1.0
 41
0.18
 42
0.0625
 43
0.38
 44
0.18
 45
0.0
 46
0.0
 47
0.0
 48
0.0
 71
     0
 72
     0
 73
     1
 74
     1
 75
     0
 76
     0
 77
     0
 78
     0
 79
     0
140
0.18
141
0.09
142
0.0
143
25.4
144
1.0
145
0.0
146
1.0
147
0.09
148
0.01
170
     0
171
     2
172
     0
173
     0
174
     0
175
     0
176
     0
177
     0
178
     0
179
     4
271
     4
272
     4
273
     2
274
     2
275
     0
276
     0
277
     2
278
    46
279
     0
280
     0
281
     0
282
     0
283
     1
284
     0
285
     0
286
     0
288
     0
340
17
341
0
342
0
343
0
344
0
371
    -2
372
    -2
  0
ENDTAB
  0
TABLE
  2
BLOCK_RECORD
  5
1
100
AcDbSymbolTable
 70
     0
  0
BLOCK_RECORD
  5
A
100
AcDbSymbolTableRecord
100
AcDbBlockTableRecord
  2
*MODEL_SPACE
340
41C
  0
BLOCK_RECORD
  5
B
100
AcDbSymbolTableRecord
100
AcDbBlockTableRecord
  2
*PAPER_SPACE
340
41D
  0
ENDTAB
  0
ENDSEC
  0
SECTION
  2
BLOCKS
  0
BLOCK
  5
D
100
AcDbEntity
  8
0
100
AcDbBlockBegin
  2
*MODEL_SPACE
 70
     0
 10
0.0
 20
0.0
 30
0.0
  3
*MODEL_SPACE
  1

  0
ENDBLK
  5
E
100
AcDbEntity
  8
0
100
AcDbBlockEnd
  0
BLOCK
  5
F
100
AcDbEntity
 67
     1
  8
0
100
AcDbBlockBegin
  2
*PAPER_SPACE
 70
     0
 10
0.0
 20
0.0
 30
0.0
  3
*PAPER_SPACE
  1

  0
ENDBLK
  5
10
100
AcDbEntity
 67
     1
  8
0
100
AcDbBlockEnd
  0
ENDSEC
  0
SECTION
  2
ENTITIES
  0
LINE
  5
33
100
AcDbEntity
  8
Layer0
100
AcDbLine
 10
216.169766
 20
-167.514227
 30
0.0
 11
211.570212
 21
-170.611736
 31
0.0
  0
LINE
  5
34
100
AcDbEntity
  8
Layer0
100
AcDbLine
 10
214.438193
 20
-164.942979
 30
0.0
 11
216.169766
 21
-167.514227
 31
0.0
  0
LINE
  5
35
100
AcDbEntity
  8
Layer0
100
AcDbLine
 10
209.67616
 20
-168.149907
 30
0.0
 11
214.438193
 21
-164.942979
 31
0.0
  0
LINE
  5
36
100
AcDbEntity
  8
Layer0
100
AcDbLine
 10
206.660751
 20
-163.672265
 30
0.0
 11
209.67616
 21
-168.149907
 31
0.0
  0
LINE
  5
37
100
AcDbEntity
  8
Layer0
100
AcDbLine
 10
208.150825
 20
-156.036403
 30
0.0
 11
206.660751
 21
-163.672265
 31
0.0
  0
LINE
  5
38
100
AcDbEntity
  8
Layer0
100
AcDbLine
 10
206.129456
 20
-151.911765
 30
0.0
 11
208.150825
 21
-156.036403
 31
0.0
  0
LINE
  5
39
100
AcDbEntity
  8
Layer0
100
AcDbLine
 10
206.040305
 20
-147.516439
 30
0.0
 11
206.129456
 21
-151.911765
 31
0.0
  0
LINE
  5
3A
100
AcDbEntity
  8
Layer0
100
AcDbLine
 10
208.640769
 20
-145.765191
 30
0.0
 11
206.040305
 21
-147.516439
 31
0.0
  0
LINE
  5
3B
100
AcDbEntity
  8
Layer0
100
AcDbLine
 10
221.617096
 20
-165.034001
 30
0.0
 11
208.640769
 21
-145.765191
 31
0.0
  0
LINE
  5
3C
100
AcDbEntity
  8
Layer0
100
AcDbLine
 10
224.188385
 20
-163.3024
 30
0.0
 11
221.617096
 21
-165.034001
 31
0.0
  0
LINE
  5
3D
100
AcDbEntity
  8
Layer0
100
AcDbLine
 10
211.188378
 20
-143.998425
 30
0.0
 11
224.188385
 21
-163.3024
 31
0.0
  0
LINE
  5
3E
100
AcDbEntity
  8
Layer0
100
AcDbLine
 10
216.254512
 20
-140.586703
 30
0.0
 11
211.188378
 21
-143.998425
 31
0.0
  0
LINE
  5
3F
100
AcDbEntity
  8
Layer0
100
AcDbLine
 10
265.964253
 20
-193.288761
 30
0.0
 11
269.086014
 21
-192.991109
 31
0.0
  0
LINE
  5
40
100
AcDbEntity
  8
Layer0
100
AcDbLine
 10
261.500521
 20
-194.93115
 30
0.0
 11
265.964253
 21
-193.288761
 31
0.0
  0
LINE
  5
41
100
AcDbEntity
  8
Layer0
100
AcDbLine
 10
264.143679
 20
-186.512171
 30
0.0
 11
258.431727
 21
-190.284698
 31
0.0
  0
LINE
  5
42
100
AcDbEntity
  8
Layer0
100
AcDbLine
 10
262.435237
 20
-183.925418
 30
0.0
 11
264.143679
 21
-186.512171
 31
0.0
  0
LINE
  5
43
100
AcDbEntity
  8
Layer0
100
AcDbLine
 10
256.55984
 20
-187.805906
 30
0.0
 11
262.435237
 21
-183.925418
 31
0.0
  0
LINE
  5
44
100
AcDbEntity
  8
Layer0
100
AcDbLine
 10
253.832669
 20
-183.676693
 30
0.0
 11
256.55984
 21
-187.805906
 31
0.0
  0
LINE
  5
45
100
AcDbEntity
  8
Layer0
100
AcDbLine
 10
277.286382
 20
-220.975969
 30
0.0
 11
272.334941
 21
-216.274925
 31
0.0
  0
LINE
  5
46
100
AcDbEntity
  8
Layer0
100
AcDbLine
 10
277.556088
 20
-225.660425
 30
0.0
 11
277.286382
 21
-220.975969
 31
0.0
  0
LINE
  5
47
100
AcDbEntity
  8
Layer0
100
AcDbLine
 10
271.067382
 20
-231.647259
 30
0.0
 11
277.556088
 21
-225.660425
 31
0.0
  0
LINE
  5
48
100
AcDbEntity
  8
Layer0
100
AcDbLine
 10
271.067382
 20
-238.229843
 30
0.0
 11
271.067382
 21
-231.647259
 31
0.0
  0
LINE
  5
49
100
AcDbEntity
  8
Layer0
100
AcDbLine
 10
267.722116
 20
-240.603887
 30
0.0
 11
271.067382
 21
-238.229843
 31
0.0
  0
LINE
  5
4A
100
AcDbEntity
  8
Layer0
100
AcDbLine
 10
263.375187
 20
-241.436635
 30
0.0
 11
267.722116
 21
-240.603887
 31
0.0
  0
LINE
  5
4B
100
AcDbEntity
  8
Layer0
100
AcDbLine
 10
263.375187
 20
-245.07866
 30
0.0
 11
263.375187
 21
-241.436635
 31
0.0
  0
LINE
  5
4C
100
AcDbEntity
  8
Layer0
100
AcDbLine
 10
252.718901
 20
-254.386058
 30
0.0
 11
263.375187
 21
-245.07866
 31
0.0
  0
LINE
  5
4D
100
AcDbEntity
  8
Layer0
100
AcDbLine
 10
247.05354
 20
-265.446981
 30
0.0
 11
252.718901
 21
-254.386058
 31
0.0
  0
LINE
  5
4E
100
AcDbEntity
  8
Layer0
100
AcDbLine
 10
250.156002
 20
-272.056579
 30
0.0
 11
247.05354
 21
-265.446981
 31
0.0
  0
LINE
  5
4F
100
AcDbEntity
  8
Layer0
100
AcDbLine
 10
263.375187
 20
-275.024154
 30
0.0
 11
250.156002
 21
-272.056579
 31
0.0
  0
LINE
  5
50
100
AcDbEntity
  8
Layer0
100
AcDbLine
 10
268.366098
 20
-273.135704
 30
0.0
 11
263.375187
 21
-275.024154
 31
0.0
  0
LINE
  5
51
100
AcDbEntity
  8
Layer0
100
AcDbLine
 10
268.366098
 20
-268.549455
 30
0.0
 11
268.366098
 21
-273.135704
 31
0.0
  0
LINE
  5
52
100
AcDbEntity
  8
Layer0
100
AcDbLine
 10
270.929004
 20
-263.963181
 30
0.0
 11
268.366098
 21
-268.549455
 31
0.0
  0
LINE
  5
53
100
AcDbEntity
  8
Layer0
100
AcDbLine
 10
275.110578
 20
-260.051432
 30
0.0
 11
270.929004
 21
-263.963181
 31
0.0
  0
LINE
  5
54
100
AcDbEntity
  8
Layer0
100
AcDbLine
 10
281.450389
 20
-258.297832
 30
0.0
 11
275.110578
 21
-260.051432
 31
0.0
  0
LINE
  5
55
100
AcDbEntity
  8
Layer0
100
AcDbLine
 10
285.63197
 20
-260.051432
 30
0.0
 11
281.450389
 21
-258.297832
 31
0.0
  0
LINE
  5
56
100
AcDbEntity
  8
Layer0
100
AcDbLine
 10
278.617709
 20
-263.963181
 30
0.0
 11
285.63197
 21
-260.051432
 31
0.0
  0
LINE
  5
57
100
AcDbEntity
  8
Layer0
100
AcDbLine
 10
277.53859
 20
-265.986581
 30
0.0
 11
278.617709
 21
-263.963181
 31
0.0
  0
LINE
  5
58
100
AcDbEntity
  8
Layer0
100
AcDbLine
 10
278.617709
 20
-272.461254
 30
0.0
 11
277.53859
 21
-265.986581
 31
0.0
  0
LINE
  5
59
100
AcDbEntity
  8
Layer0
100
AcDbLine
 10
274.97569
 20
-275.968379
 30
0.0
 11
278.617709
 21
-272.461254
 31
0.0
  0
LINE
  5
5A
100
AcDbEntity
  8
Layer0
100
AcDbLine
 10
274.97569
 20
-277.991728
 30
0.0
 11
274.97569
 21
-275.968379
 31
0.0
  0
LINE
  5
5B
100
AcDbEntity
  8
Layer0
100
AcDbLine
 10
280.236383
 20
-275.968379
 30
0.0
 11
274.97569
 21
-277.991728
 31
0.0
  0
LINE
  5
5C
100
AcDbEntity
  8
Layer0
100
AcDbLine
 10
286.441307
 20
-280.015053
 30
0.0
 11
280.236383
 21
-275.968379
 31
0.0
  0
LINE
  5
5D
100
AcDbEntity
  8
Layer0
100
AcDbLine
 10
278.88749
 20
-280.959303
 30
0.0
 11
286.441307
 21
-280.015053
 31
0.0
  0
LINE
  5
5E
100
AcDbEntity
  8
Layer0
100
AcDbLine
 10
276.054809
 20
-282.712852
 30
0.0
 11
278.88749
 21
-280.959303
 31
0.0
  0
LINE
  5
5F
100
AcDbEntity
  8
Layer0
100
AcDbLine
 10
267.017205
 20
-282.038428
 30
0.0
 11
276.054809
 21
-282.712852
 31
0.0
  0
LINE
  5
60
100
AcDbEntity
  8
Layer0
100
AcDbLine
 10
258.114487
 20
-282.038428
 30
0.0
 11
267.017205
 21
-282.038428
 31
0.0
  0
LINE
  5
61
100
AcDbEntity
  8
Layer0
100
AcDbLine
 10
254.877138
 20
-282.982652
 30
0.0
 11
258.114487
 21
-282.038428
 31
0.0
  0
LINE
  5
62
100
AcDbEntity
  8
Layer0
100
AcDbLine
 10
246.918652
 20
-282.982652
 30
0.0
 11
254.877138
 21
-282.982652
 31
0.0
  0
LINE
  5
63
100
AcDbEntity
  8
Layer0
100
AcDbLine
 10
242.871966
 20
-275.968379
 30
0.0
 11
246.918652
 21
-282.982652
 31
0.0
  0
LINE
  5
64
100
AcDbEntity
  8
Layer0
100
AcDbLine
 10
238.150829
 20
-272.461254
 30
0.0
 11
242.871966
 21
-275.968379
 31
0.0
  0
LINE
  5
65
100
AcDbEntity
  8
Layer0
100
AcDbLine
 10
232.350574
 20
-278.261529
 30
0.0
 11
238.150829
 21
-272.461254
 31
0.0
  0
LINE
  5
66
100
AcDbEntity
  8
Layer0
100
AcDbLine
 10
232.350574
 20
-284.331552
 30
0.0
 11
232.350574
 21
-278.261529
 31
0.0
  0
LINE
  5
67
100
AcDbEntity
  8
Layer0
100
AcDbLine
 10
228.438775
 20
-278.261529
 30
0.0
 11
232.350574
 21
-284.331552
 31
0.0
  0
LINE
  5
68
100
AcDbEntity
  8
Layer0
100
AcDbLine
 10
234.508811
 20
-267.200555
 30
0.0
 11
228.438775
 21
-278.261529
 31
0.0
  0
LINE
  5
69
100
AcDbEntity
  8
Layer0
100
AcDbLine
 10
234.508811
 20
-262.074756
 30
0.0
 11
234.508811
 21
-267.200555
 31
0.0
  0
LINE
  5
6A
100
AcDbEntity
  8
Layer0
100
AcDbLine
 10
240.174172
 20
-257.218732
 30
0.0
 11
234.508811
 21
-262.074756
 31
0.0
  0
LINE
  5
6B
100
AcDbEntity
  8
Layer0
100
AcDbLine
 10
250.831528
 20
-235.397845
 30
0.0
 11
240.174172
 21
-257.218732
 31
0.0
  0
LINE
  5
6C
100
AcDbEntity
  8
Layer0
100
AcDbLine
 10
255.013109
 20
-235.397845
 30
0.0
 11
250.831528
 21
-235.397845
 31
0.0
  0
LINE
  5
6D
100
AcDbEntity
  8
Layer0
100
AcDbLine
 10
252.692035
 20
-231.537393
 30
0.0
 11
255.013109
 21
-235.397845
 31
0.0
  0
LINE
  5
6E
100
AcDbEntity
  8
Layer0
100
AcDbLine
 10
255.106456
 20
-223.282633
 30
0.0
 11
252.692035
 21
-231.537393
 31
0.0
  0
LINE
  5
6F
100
AcDbEntity
  8
Layer0
100
AcDbLine
 10
257.407293
 20
-222.224499
 30
0.0
 11
255.106456
 21
-223.282633
 31
0.0
  0
LINE
  5
70
100
AcDbEntity
  8
Layer0
100
AcDbLine
 10
257.688677
 20
-220.322907
 30
0.0
 11
257.407293
 21
-222.224499
 31
0.0
  0
LINE
  5
71
100
AcDbEntity
  8
Layer0
100
AcDbLine
 10
236.843777
 20
-205.937327
 30
0.0
 11
257.688677
 21
-220.322907
 31
0.0
  0
LINE
  5
72
100
AcDbEntity
  8
Layer0
100
AcDbLine
 10
209.44594
 20
-254.727482
 30
0.0
 11
206.719129
 21
-249.351743
 31
0.0
  0
LINE
  5
73
100
AcDbEntity
  8
Layer0
100
AcDbLine
 10
204.849315
 20
-259.168274
 30
0.0
 11
209.44594
 21
-254.727482
 31
0.0
  0
LINE
  5
74
100
AcDbEntity
  8
Layer0
100
AcDbLine
 10
202.823682
 20
-257.999659
 30
0.0
 11
204.849315
 21
-259.168274
 31
0.0
  0
LINE
  5
75
100
AcDbEntity
  8
Layer0
100
AcDbLine
 10
200.79805
 20
-266.335926
 30
0.0
 11
202.823682
 21
-257.999659
 31
0.0
  0
LINE
  5
76
100
AcDbEntity
  8
Layer0
100
AcDbLine
 10
197.744622
 20
-266.384228
 30
0.0
 11
200.79805
 21
-266.335926
 31
0.0
  0
LINE
  5
77
100
AcDbEntity
  8
Layer0
100
AcDbLine
 10
194.246814
 20
-258.049107
 30
0.0
 11
197.744622
 21
-266.384228
 31
0.0
  0
LINE
  5
78
100
AcDbEntity
  8
Layer0
100
AcDbLine
 10
191.405364
 20
-259.241506
 30
0.0
 11
194.246814
 21
-258.049107
 31
0.0
  0
LINE
  5
79
100
AcDbEntity
  8
Layer0
100
AcDbLine
 10
194.651872
 20
-266.977787
 30
0.0
 11
191.405364
 21
-259.241506
 31
0.0
  0
LINE
  5
7A
100
AcDbEntity
  8
Layer0
100
AcDbLine
 10
193.085066
 20
-267.81619
 30
0.0
 11
194.651872
 21
-266.977787
 31
0.0
  0
LINE
  5
7B
100
AcDbEntity
  8
Layer0
100
AcDbLine
 10
181.242914
 20
-268.751091
 30
0.0
 11
184.28136
 21
-267.81619
 31
0.0
  0
LINE
  5
7C
100
AcDbEntity
  8
Layer0
100
AcDbLine
 10
179.139375
 20
-265.790563
 30
0.0
 11
181.242914
 21
-268.751091
 31
0.0
  0
LINE
  5
7D
100
AcDbEntity
  8
Layer0
100
AcDbLine
 10
183.544047
 20
-271.545887
 30
0.0
 11
179.368129
 21
-273.774045
 31
0.0
  0
LINE
  5
7E
100
AcDbEntity
  8
Layer0
100
AcDbLine
 10
202.990113
 20
-270.361658
 30
0.0
 11
195.760163
 21
-269.426711
 31
0.0
  0
LINE
  5
7F
100
AcDbEntity
  8
Layer0
100
AcDbLine
 10
203.311921
 20
-267.872986
 30
0.0
 11
202.990113
 21
-270.361658
 31
0.0
  0
LINE
  5
80
100
AcDbEntity
  8
Layer0
100
AcDbLine
 10
205.670181
 20
-268.803459
 30
0.0
 11
203.311921
 21
-267.872986
 31
0.0
  0
LINE
  5
81
100
AcDbEntity
  8
Layer0
100
AcDbLine
 10
206.979049
 20
-273.774045
 30
0.0
 11
205.670181
 21
-268.803459
 31
0.0
  0
LINE
  5
82
100
AcDbEntity
  8
Layer0
100
AcDbLine
 10
200.845764
 20
-278.631015
 30
0.0
 11
206.979049
 21
-273.774045
 31
0.0
  0
LINE
  5
83
100
AcDbEntity
  8
Layer0
100
AcDbLine
 10
198.692487
 20
-273.889141
 30
0.0
 11
200.845764
 21
-278.631015
 31
0.0
  0
LINE
  5
84
100
AcDbEntity
  8
Layer0
100
AcDbLine
 10
195.886717
 20
-275.163259
 30
0.0
 11
198.692487
 21
-273.889141
 31
0.0
  0
LINE
  5
85
100
AcDbEntity
  8
Layer0
100
AcDbLine
 10
195.760163
 20
-280.209349
 30
0.0
 11
197.950305
 21
-279.707587
 31
0.0
  0
LINE
  5
86
100
AcDbEntity
  8
Layer0
100
AcDbLine
 10
183.980337
 20
-288.124872
 30
0.0
 11
195.760163
 21
-280.209349
 31
0.0
  0
LINE
  5
87
100
AcDbEntity
  8
Layer0
100
AcDbLine
 10
216.922578
 20
-140.650365
 30
0.0
 11
216.254512
 21
-140.586703
 31
0.0
  0
LINE
  5
88
100
AcDbEntity
  8
Layer0
100
AcDbLine
 10
224.88921
 20
-150.205537
 30
0.0
 11
222.371544
 21
-148.741644
 31
0.0
  0
LINE
  5
89
100
AcDbEntity
  8
Layer0
100
AcDbLine
 10
236.644746
 20
-167.66157
 30
0.0
 11
224.88921
 21
-150.205537
 31
0.0
  0
LINE
  5
8A
100
AcDbEntity
  8
Layer0
100
AcDbLine
 10
237.311148
 20
-174.314279
 30
0.0
 11
236.644746
 21
-167.66157
 31
0.0
  0
LINE
  5
8B
100
AcDbEntity
  8
Layer0
100
AcDbLine
 10
237.214562
 20
-175.606321
 30
0.0
 11
237.311148
 21
-174.314279
 31
0.0
  0
LINE
  5
8C
100
AcDbEntity
  8
Layer0
100
AcDbLine
 10
231.786533
 20
-179.261756
 30
0.0
 11
237.214562
 21
-175.606321
 31
0.0
  0
LINE
  5
8D
100
AcDbEntity
  8
Layer0
100
AcDbLine
 10
228.949126
 20
-176.057109
 30
0.0
 11
231.786533
 21
-179.261756
 31
0.0
  0
LINE
  5
8E
100
AcDbEntity
  8
Layer0
100
AcDbLine
 10
227.391622
 20
-180.417123
 30
0.0
 11
228.949126
 21
-176.057109
 31
0.0
  0
LINE
  5
8F
100
AcDbEntity
  8
Layer0
100
AcDbLine
 10
223.836929
 20
-179.147311
 30
0.0
 11
227.391622
 21
-180.417123
 31
0.0
  0
LINE
  5
90
100
AcDbEntity
  8
Layer0
100
AcDbLine
 10
222.25917
 20
-174.422318
 30
0.0
 11
223.836929
 21
-179.147311
 31
0.0
  0
LINE
  5
91
100
AcDbEntity
  8
Layer0
100
AcDbLine
 10
217.16825
 20
-175.942928
 30
0.0
 11
222.25917
 21
-174.422318
 31
0.0
  0
LINE
  5
92
100
AcDbEntity
  8
Layer0
100
AcDbLine
 10
214.680642
 20
-175.230477
 30
0.0
 11
217.16825
 21
-175.942928
 31
0.0
  0
LINE
  5
93
100
AcDbEntity
  8
Layer0
100
AcDbLine
 10
211.570212
 20
-170.611736
 30
0.0
 11
214.680642
 21
-175.230477
 31
0.0
  0
LINE
  5
94
100
AcDbEntity
  8
Layer0
100
AcDbLine
 10
307.180762
 20
-254.213128
 30
0.0
 11
306.510789
 21
-255.428975
 31
0.0
  0
LINE
  5
95
100
AcDbEntity
  8
Layer0
100
AcDbLine
 10
314.531704
 20
-259.047575
 30
0.0
 11
313.258349
 21
-254.213128
 31
0.0
  0
LINE
  5
96
100
AcDbEntity
  8
Layer0
100
AcDbLine
 10
316.67718
 20
-258.005635
 30
0.0
 11
314.531704
 21
-259.047575
 31
0.0
  0
LINE
  5
97
100
AcDbEntity
  8
Layer0
100
AcDbLine
 10
319.071106
 20
-264.988391
 30
0.0
 11
316.67718
 21
-258.005635
 31
0.0
  0
LINE
  5
98
100
AcDbEntity
  8
Layer0
100
AcDbLine
 10
322.003571
 20
-263.983052
 30
0.0
 11
319.071106
 21
-264.988391
 31
0.0
  0
LINE
  5
99
100
AcDbEntity
  8
Layer0
100
AcDbLine
 10
319.48657
 20
-256.641305
 30
0.0
 11
322.003571
 21
-263.983052
 31
0.0
  0
LINE
  5
9A
100
AcDbEntity
  8
Layer0
100
AcDbLine
 10
319.815068
 20
-256.481767
 30
0.0
 11
319.48657
 21
-256.641305
 31
0.0
  0
LINE
  5
9B
100
AcDbEntity
  8
Layer0
100
AcDbLine
 10
324.373973
 20
-257.597241
 30
0.0
 11
319.815068
 21
-256.481767
 31
0.0
  0
LINE
  5
9C
100
AcDbEntity
  8
Layer0
100
AcDbLine
 10
323.29247
 20
-262.0173
 30
0.0
 11
324.373973
 21
-257.597241
 31
0.0
  0
LINE
  5
9D
100
AcDbEntity
  8
Layer0
100
AcDbLine
 10
324.735392
 20
-263.070067
 30
0.0
 11
323.29247
 21
-262.0173
 31
0.0
  0
LINE
  5
9E
100
AcDbEntity
  8
Layer0
100
AcDbLine
 10
324.735392
 20
-263.042419
 30
0.0
 11
324.735392
 21
-263.070067
 31
0.0
  0
LINE
  5
9F
100
AcDbEntity
  8
Layer0
100
AcDbLine
 10
326.23781
 20
-264.89027
 30
0.0
 11
324.735392
 21
-263.042419
 31
0.0
  0
LINE
  5
A0
100
AcDbEntity
  8
Layer0
100
AcDbLine
 10
321.692539
 20
-277.996473
 30
0.0
 11
326.23781
 21
-264.89027
 31
0.0
  0
LINE
  5
A1
100
AcDbEntity
  8
Layer0
100
AcDbLine
 10
324.619527
 20
-279.017646
 30
0.0
 11
321.692539
 21
-277.996473
 31
0.0
  0
LINE
  5
A2
100
AcDbEntity
  8
Layer0
100
AcDbLine
 10
326.815416
 20
-272.723607
 30
0.0
 11
324.619527
 21
-279.017646
 31
0.0
  0
LINE
  5
A3
100
AcDbEntity
  8
Layer0
100
AcDbLine
 10
329.182808
 20
-273.817403
 30
0.0
 11
326.815416
 21
-272.723607
 31
0.0
  0
LINE
  5
A4
100
AcDbEntity
  8
Layer0
100
AcDbLine
 10
324.198701
 20
-284.60458
 30
0.0
 11
329.182808
 21
-273.817403
 31
0.0
  0
LINE
  5
A5
100
AcDbEntity
  8
Layer0
100
AcDbLine
 10
317.876963
 20
-282.926258
 30
0.0
 11
324.198701
 21
-284.60458
 31
0.0
  0
LINE
  5
A6
100
AcDbEntity
  8
Layer0
100
AcDbLine
 10
321.114313
 20
-270.732231
 30
0.0
 11
317.876963
 21
-282.926258
 31
0.0
  0
LINE
  5
A7
100
AcDbEntity
  8
Layer0
100
AcDbLine
 10
317.876963
 20
-269.221466
 30
0.0
 11
321.114313
 21
-270.732231
 31
0.0
  0
LINE
  5
A8
100
AcDbEntity
  8
Layer0
100
AcDbLine
 10
314.531704
 20
-271.595536
 30
0.0
 11
317.876963
 21
-269.221466
 31
0.0
  0
LINE
  5
A9
100
AcDbEntity
  8
Layer0
100
AcDbLine
 10
311.636069
 20
-271.595536
 30
0.0
 11
314.531704
 21
-271.595536
 31
0.0
  0
LINE
  5
AA
100
AcDbEntity
  8
Layer0
100
AcDbLine
 10
311.636069
 20
-265.68639
 30
0.0
 11
311.636069
 21
-271.595536
 31
0.0
  0
LINE
  5
AB
100
AcDbEntity
  8
Layer0
100
AcDbLine
 10
308.536074
 20
-265.68639
 30
0.0
 11
311.636069
 21
-265.68639
 31
0.0
  0
LINE
  5
AC
100
AcDbEntity
  8
Layer0
100
AcDbLine
 10
308.536074
 20
-271.595536
 30
0.0
 11
308.536074
 21
-265.68639
 31
0.0
  0
LINE
  5
AD
100
AcDbEntity
  8
Layer0
100
AcDbLine
 10
306.510789
 20
-271.595536
 30
0.0
 11
308.536074
 21
-271.595536
 31
0.0
  0
LINE
  5
AE
100
AcDbEntity
  8
Layer0
100
AcDbLine
 10
306.510789
 20
-271.595536
 30
0.0
 11
304.538055
 21
-270.981213
 31
0.0
  0
LINE
  5
AF
100
AcDbEntity
  8
Layer0
100
AcDbLine
 10
301.258564
 20
-269.221466
 30
0.0
 11
304.538055
 21
-270.981213
 31
0.0
  0
LINE
  5
B0
100
AcDbEntity
  8
Layer0
100
AcDbLine
 10
299.747799
 20
-270.732231
 30
0.0
 11
301.258564
 21
-269.221466
 31
0.0
  0
LINE
  5
B1
100
AcDbEntity
  8
Layer0
100
AcDbLine
 10
302.661419
 20
-282.926258
 30
0.0
 11
299.747799
 21
-270.732231
 31
0.0
  0
LINE
  5
B2
100
AcDbEntity
  8
Layer0
100
AcDbLine
 10
295.113729
 20
-285.127915
 30
0.0
 11
302.661419
 21
-282.926258
 31
0.0
  0
LINE
  5
B3
100
AcDbEntity
  8
Layer0
100
AcDbLine
 10
290.714735
 20
-274.396996
 30
0.0
 11
295.113729
 21
-285.127915
 31
0.0
  0
LINE
  5
B4
100
AcDbEntity
  8
Layer0
100
AcDbLine
 10
293.30563
 20
-272.84247
 30
0.0
 11
290.714735
 21
-274.396996
 31
0.0
  0
LINE
  5
B5
100
AcDbEntity
  8
Layer0
100
AcDbLine
 10
295.375637
 20
-279.110101
 30
0.0
 11
293.30563
 21
-272.84247
 31
0.0
  0
LINE
  5
B6
100
AcDbEntity
  8
Layer0
100
AcDbLine
 10
298.319257
 20
-278.137925
 30
0.0
 11
295.375637
 21
-279.110101
 31
0.0
  0
LINE
  5
B7
100
AcDbEntity
  8
Layer0
100
AcDbLine
 10
296.030382
 20
-271.207606
 30
0.0
 11
298.319257
 21
-278.137925
 31
0.0
  0
LINE
  5
B8
100
AcDbEntity
  8
Layer0
100
AcDbLine
 10
293.868319
 20
-264.233198
 30
0.0
 11
296.030382
 21
-271.207606
 31
0.0
  0
LINE
  5
B9
100
AcDbEntity
  8
Layer0
100
AcDbLine
 10
296.683116
 20
-262.0173
 30
0.0
 11
293.868319
 21
-264.233198
 31
0.0
  0
LINE
  5
BA
100
AcDbEntity
  8
Layer0
100
AcDbLine
 10
295.578101
 20
-258.28788
 30
0.0
 11
296.683116
 21
-262.0173
 31
0.0
  0
LINE
  5
BB
100
AcDbEntity
  8
Layer0
100
AcDbLine
 10
298.478757
 20
-256.481767
 30
0.0
 11
295.578101
 21
-258.28788
 31
0.0
  0
LINE
  5
BC
100
AcDbEntity
  8
Layer0
100
AcDbLine
 10
300.39574
 20
-256.905894
 30
0.0
 11
298.478757
 21
-256.481767
 31
0.0
  0
LINE
  5
BD
100
AcDbEntity
  8
Layer0
100
AcDbLine
 10
298.478757
 20
-263.567601
 30
0.0
 11
300.39574
 21
-256.905894
 31
0.0
  0
LINE
  5
BE
100
AcDbEntity
  8
Layer0
100
AcDbLine
 10
301.457879
 20
-264.424835
 30
0.0
 11
298.478757
 21
-263.567601
 31
0.0
  0
LINE
  5
BF
100
AcDbEntity
  8
Layer0
100
AcDbLine
 10
303.42845
 20
-257.576904
 30
0.0
 11
301.457879
 21
-264.424835
 31
0.0
  0
LINE
  5
C0
100
AcDbEntity
  8
Layer0
100
AcDbLine
 10
303.520398
 20
-257.597241
 30
0.0
 11
303.42845
 21
-257.576904
 31
0.0
  0
LINE
  5
C1
100
AcDbEntity
  8
Layer0
100
AcDbLine
 10
304.538055
 20
-258.419163
 30
0.0
 11
303.520398
 21
-257.597241
 31
0.0
  0
LINE
  5
C2
100
AcDbEntity
  8
Layer0
100
AcDbLine
 10
284.138353
 20
-190.318276
 30
0.0
 11
283.53172
 21
-183.659832
 31
0.0
  0
LINE
  5
C3
100
AcDbEntity
  8
Layer0
100
AcDbLine
 10
284.030146
 20
-191.609351
 30
0.0
 11
284.138353
 21
-190.318276
 31
0.0
  0
LINE
  5
C4
100
AcDbEntity
  8
Layer0
100
AcDbLine
 10
278.569513
 20
-195.215911
 30
0.0
 11
284.030146
 21
-191.609351
 31
0.0
  0
LINE
  5
C5
100
AcDbEntity
  8
Layer0
100
AcDbLine
 10
275.761008
 20
-191.985948
 30
0.0
 11
278.569513
 21
-195.215911
 31
0.0
  0
LINE
  5
C6
100
AcDbEntity
  8
Layer0
100
AcDbLine
 10
274.16441
 20
-196.33179
 30
0.0
 11
275.761008
 21
-191.985948
 31
0.0
  0
LINE
  5
C7
100
AcDbEntity
  8
Layer0
100
AcDbLine
 10
270.621259
 20
-195.030092
 30
0.0
 11
274.16441
 21
-196.33179
 31
0.0
  0
LINE
  5
C8
100
AcDbEntity
  8
Layer0
100
AcDbLine
 10
269.086014
 20
-192.991109
 30
0.0
 11
270.621259
 21
-195.030092
 31
0.0
  0
LINE
  5
C9
100
AcDbEntity
  8
Layer0
100
AcDbLine
 10
165.34452
 20
-288.124872
 30
0.0
 11
177.848922
 21
-288.124872
 31
0.0
  0
LINE
  5
CA
100
AcDbEntity
  8
Layer0
100
AcDbLine
 10
157.397814
 20
-289.122117
 30
0.0
 11
165.34452
 21
-288.124872
 31
0.0
  0
LINE
  5
CB
100
AcDbEntity
  8
Layer0
100
AcDbLine
 10
153.658181
 20
-288.031391
 30
0.0
 11
157.397814
 21
-289.122117
 31
0.0
  0
LINE
  5
CC
100
AcDbEntity
  8
Layer0
100
AcDbLine
 10
151.868037
 20
-285.047807
 30
0.0
 11
153.658181
 21
-288.031391
 31
0.0
  0
LINE
  5
CD
100
AcDbEntity
  8
Layer0
100
AcDbLine
 10
162.091596
 20
-231.394714
 30
0.0
 11
165.659467
 21
-226.807453
 31
0.0
  0
LINE
  5
CE
100
AcDbEntity
  8
Layer0
100
AcDbLine
 10
165.868495
 20
-236.115864
 30
0.0
 11
162.091596
 21
-231.394714
 31
0.0
  0
LINE
  5
CF
100
AcDbEntity
  8
Layer0
100
AcDbLine
 10
165.868495
 20
-239.757888
 30
0.0
 11
165.868495
 21
-236.115864
 31
0.0
  0
LINE
  5
D0
100
AcDbEntity
  8
Layer0
100
AcDbLine
 10
162.091596
 20
-242.995212
 30
0.0
 11
165.868495
 21
-239.757888
 31
0.0
  0
LINE
  5
D1
100
AcDbEntity
  8
Layer0
100
AcDbLine
 10
156.965784
 20
-240.702138
 30
0.0
 11
162.091596
 21
-242.995212
 31
0.0
  0
LINE
  5
D2
100
AcDbEntity
  8
Layer0
100
AcDbLine
 10
156.677113
 20
-240.871339
 30
0.0
 11
156.965784
 21
-240.702138
 31
0.0
  0
LINE
  5
D3
100
AcDbEntity
  8
Layer0
100
AcDbLine
 10
153.267136
 20
-234.004764
 30
0.0
 11
156.677113
 21
-240.871339
 31
0.0
  0
LINE
  5
D4
100
AcDbEntity
  8
Layer0
100
AcDbLine
 10
150.490643
 20
-235.383589
 30
0.0
 11
153.267136
 21
-234.004764
 31
0.0
  0
LINE
  5
D5
100
AcDbEntity
  8
Layer0
100
AcDbLine
 10
153.996312
 20
-242.442863
 30
0.0
 11
150.490643
 21
-235.383589
 31
0.0
  0
LINE
  5
D6
100
AcDbEntity
  8
Layer0
100
AcDbLine
 10
153.053985
 20
-242.995212
 30
0.0
 11
153.996312
 21
-242.442863
 31
0.0
  0
LINE
  5
D7
100
AcDbEntity
  8
Layer0
100
AcDbLine
 10
150.76086
 20
-248.121011
 30
0.0
 11
153.053985
 21
-242.995212
 31
0.0
  0
LINE
  5
D8
100
AcDbEntity
  8
Layer0
100
AcDbLine
 10
146.174611
 20
-248.121011
 30
0.0
 11
150.76086
 21
-248.121011
 31
0.0
  0
LINE
  5
D9
100
AcDbEntity
  8
Layer0
100
AcDbLine
 10
143.072149
 20
-240.702138
 30
0.0
 11
146.174611
 21
-248.121011
 31
0.0
  0
LINE
  5
DA
100
AcDbEntity
  8
Layer0
100
AcDbLine
 10
134.169438
 20
-237.329863
 30
0.0
 11
135.383451
 21
-240.702138
 31
0.0
  0
LINE
  5
DB
100
AcDbEntity
  8
Layer0
100
AcDbLine
 10
134.169438
 20
-233.552939
 30
0.0
 11
134.169438
 21
-237.329863
 31
0.0
  0
LINE
  5
DC
100
AcDbEntity
  8
Layer0
100
AcDbLine
 10
133.45554
 20
-268.002238
 30
0.0
 11
133.456032
 21
-264.890905
 31
0.0
  0
LINE
  5
DD
100
AcDbEntity
  8
Layer0
100
AcDbLine
 10
141.656032
 20
-268.002541
 30
0.0
 11
133.45554
 21
-268.002238
 31
0.0
  0
LINE
  5
DE
100
AcDbEntity
  8
Layer0
100
AcDbLine
 10
141.656878
 20
-273.355259
 30
0.0
 11
141.656032
 21
-268.002541
 31
0.0
  0
LINE
  5
DF
100
AcDbEntity
  8
Layer0
100
AcDbLine
 10
133.472636
 20
-273.356553
 30
0.0
 11
141.656878
 21
-273.355259
 31
0.0
  0
LINE
  5
E0
100
AcDbEntity
  8
Layer0
100
AcDbLine
 10
133.473139
 20
-276.468824
 30
0.0
 11
133.472636
 21
-273.356553
 31
0.0
  0
LINE
  5
E1
100
AcDbEntity
  8
Layer0
100
AcDbLine
 10
141.657394
 20
-276.46753
 30
0.0
 11
133.473139
 21
-276.468824
 31
0.0
  0
LINE
  5
E2
100
AcDbEntity
  8
Layer0
100
AcDbLine
 10
141.659096
 20
-287.23582
 30
0.0
 11
141.657394
 21
-276.46753
 31
0.0
  0
LINE
  5
E3
100
AcDbEntity
  8
Layer0
100
AcDbLine
 10
140.872904
 20
-288.471377
 30
0.0
 11
141.659096
 21
-287.23582
 31
0.0
  0
LINE
  5
E4
100
AcDbEntity
  8
Layer0
100
AcDbLine
 10
132.765264
 20
-288.029573
 30
0.0
 11
140.872904
 21
-288.471377
 31
0.0
  0
LINE
  5
E5
100
AcDbEntity
  8
Layer0
100
AcDbLine
 10
125.078311
 20
-292.301489
 30
0.0
 11
132.765264
 21
-288.029573
 31
0.0
  0
LINE
  5
E6
100
AcDbEntity
  8
Layer0
100
AcDbLine
 10
121.990895
 20
-291.859854
 30
0.0
 11
125.078311
 21
-292.301489
 31
0.0
  0
LINE
  5
E7
100
AcDbEntity
  8
Layer0
100
AcDbLine
 10
120.861763
 20
-290.257324
 30
0.0
 11
121.990895
 21
-291.859854
 31
0.0
  0
LINE
  5
E8
100
AcDbEntity
  8
Layer0
100
AcDbLine
 10
120.585283
 20
-287.159422
 30
0.0
 11
120.861763
 21
-290.257324
 31
0.0
  0
LINE
  5
E9
100
AcDbEntity
  8
Layer0
100
AcDbLine
 10
130.334844
 20
-284.682829
 30
0.0
 11
120.585283
 21
-287.159422
 31
0.0
  0
LINE
  5
EA
100
AcDbEntity
  8
Layer0
100
AcDbLine
 10
129.571614
 20
-281.678272
 30
0.0
 11
130.334844
 21
-284.682829
 31
0.0
  0
LINE
  5
EB
100
AcDbEntity
  8
Layer0
100
AcDbLine
 10
120.306158
 20
-284.031891
 30
0.0
 11
129.571614
 21
-281.678272
 31
0.0
  0
LINE
  5
EC
100
AcDbEntity
  8
Layer0
100
AcDbLine
 10
119.602848
 20
-276.15146
 30
0.0
 11
120.306158
 21
-284.031891
 31
0.0
  0
LINE
  5
ED
100
AcDbEntity
  8
Layer0
100
AcDbLine
 10
126.750515
 20
-230.045815
 30
0.0
 11
134.169438
 21
-233.552939
 31
0.0
  0
LINE
  5
EE
100
AcDbEntity
  8
Layer0
100
AcDbLine
 10
126.750515
 20
-228.02249
 30
0.0
 11
126.750515
 21
-230.045815
 31
0.0
  0
LINE
  5
EF
100
AcDbEntity
  8
Layer0
100
AcDbLine
 10
130.527414
 20
-224.110666
 30
0.0
 11
126.750515
 21
-228.02249
 31
0.0
  0
LINE
  5
F0
100
AcDbEntity
  8
Layer0
100
AcDbLine
 10
130.527414
 20
-221.817592
 30
0.0
 11
130.527414
 21
-224.110666
 31
0.0
  0
LINE
  5
F1
100
AcDbEntity
  8
Layer0
100
AcDbLine
 10
125.536515
 20
-218.445317
 30
0.0
 11
130.527414
 21
-221.817592
 31
0.0
  0
LINE
  5
F2
100
AcDbEntity
  8
Layer0
100
AcDbLine
 10
131.927916
 20
-214.950031
 30
0.0
 11
125.536515
 21
-218.445317
 31
0.0
  0
LINE
  5
F3
100
AcDbEntity
  8
Layer0
100
AcDbLine
 10
138.066275
 20
-226.858778
 30
0.0
 11
131.927916
 21
-214.950031
 31
0.0
  0
LINE
  5
F4
100
AcDbEntity
  8
Layer0
100
AcDbLine
 10
140.821761
 20
-225.438444
 30
0.0
 11
138.066275
 21
-226.858778
 31
0.0
  0
LINE
  5
F5
100
AcDbEntity
  8
Layer0
100
AcDbLine
 10
134.648583
 20
-213.462158
 30
0.0
 11
140.821761
 21
-225.438444
 31
0.0
  0
LINE
  5
F6
100
AcDbEntity
  8
Layer0
100
AcDbLine
 10
133.154361
 20
-210.729907
 30
0.0
 11
134.648583
 21
-213.462158
 31
0.0
  0
LINE
  5
F7
100
AcDbEntity
  8
Layer0
100
AcDbLine
 10
137.986633
 20
-208.087251
 30
0.0
 11
133.154361
 21
-210.729907
 31
0.0
  0
LINE
  5
F8
100
AcDbEntity
  8
Layer0
100
AcDbLine
 10
142.731079
 20
-217.716229
 30
0.0
 11
137.986633
 21
-208.087251
 31
0.0
  0
LINE
  5
F9
100
AcDbEntity
  8
Layer0
100
AcDbLine
 10
145.511848
 20
-216.346056
 30
0.0
 11
142.731079
 21
-217.716229
 31
0.0
  0
LINE
  5
FA
100
AcDbEntity
  8
Layer0
100
AcDbLine
 10
140.708969
 20
-206.598468
 30
0.0
 11
145.511848
 21
-216.346056
 31
0.0
  0
LINE
  5
FB
100
AcDbEntity
  8
Layer0
100
AcDbLine
 10
145.329569
 20
-204.071564
 30
0.0
 11
140.708969
 21
-206.598468
 31
0.0
  0
LINE
  5
FC
100
AcDbEntity
  8
Layer0
100
AcDbLine
 10
147.252155
 20
-207.587162
 30
0.0
 11
145.329569
 21
-204.071564
 31
0.0
  0
LINE
  5
FD
100
AcDbEntity
  8
Layer0
100
AcDbLine
 10
152.700685
 20
-219.471347
 30
0.0
 11
147.252155
 21
-207.587162
 31
0.0
  0
LINE
  5
FE
100
AcDbEntity
  8
Layer0
100
AcDbLine
 10
155.51865
 20
-218.179387
 30
0.0
 11
152.700685
 21
-219.471347
 31
0.0
  0
LINE
  5
FF
100
AcDbEntity
  8
Layer0
100
AcDbLine
 10
149.978791
 20
-206.096001
 30
0.0
 11
155.51865
 21
-218.179387
 31
0.0
  0
LINE
  5
100
100
AcDbEntity
  8
Layer0
100
AcDbLine
 10
154.470157
 20
-203.639823
 30
0.0
 11
149.978791
 21
-206.096001
 31
0.0
  0
LINE
  5
101
100
AcDbEntity
  8
Layer0
100
AcDbLine
 10
156.426221
 20
-203.639823
 30
0.0
 11
154.470157
 21
-203.639823
 31
0.0
  0
LINE
  5
102
100
AcDbEntity
  8
Layer0
100
AcDbLine
 10
156.426221
 20
-209.677519
 30
0.0
 11
156.426221
 21
-203.639823
 31
0.0
  0
LINE
  5
103
100
AcDbEntity
  8
Layer0
100
AcDbLine
 10
163.03582
 20
-210.082194
 30
0.0
 11
156.426221
 21
-209.677519
 31
0.0
  0
LINE
  5
104
100
AcDbEntity
  8
Layer0
100
AcDbLine
 10
164.519608
 20
-212.779943
 30
0.0
 11
163.03582
 21
-210.082194
 31
0.0
  0
LINE
  5
105
100
AcDbEntity
  8
Layer0
100
AcDbLine
 10
165.868495
 20
-222.087341
 30
0.0
 11
162.091596
 21
-218.310417
 31
0.0
  0
LINE
  5
106
100
AcDbEntity
  8
Layer0
100
AcDbLine
 10
165.868495
 20
-224.59196
 30
0.0
 11
165.868495
 21
-222.087341
 31
0.0
  0
LINE
  5
107
100
AcDbEntity
  8
Layer0
100
AcDbLine
 10
151.320916
 20
-278.993959
 30
0.0
 11
151.320916
 21
-283.048409
 31
0.0
  0
LINE
  5
108
100
AcDbEntity
  8
Layer0
100
AcDbLine
 10
152.489554
 20
-280.552136
 30
0.0
 11
151.320916
 21
-278.993959
 31
0.0
  0
LINE
  5
109
100
AcDbEntity
  8
Layer0
100
AcDbLine
 10
153.658181
 20
-280.975652
 30
0.0
 11
152.489554
 21
-280.552136
 31
0.0
  0
LINE
  5
10A
100
AcDbEntity
  8
Layer0
100
AcDbLine
 10
155.361064
 20
-281.946178
 30
0.0
 11
153.658181
 21
-280.975652
 31
0.0
  0
LINE
  5
10B
100
AcDbEntity
  8
Layer0
100
AcDbLine
 10
154.748912
 20
-278.993959
 30
0.0
 11
155.361064
 21
-281.946178
 31
0.0
  0
LINE
  5
10C
100
AcDbEntity
  8
Layer0
100
AcDbLine
 10
155.361064
 20
-277.202046
 30
0.0
 11
154.748912
 21
-278.993959
 31
0.0
  0
LINE
  5
10D
100
AcDbEntity
  8
Layer0
100
AcDbLine
 10
157.397814
 20
-280.552136
 30
0.0
 11
155.361064
 21
-277.202046
 31
0.0
  0
LINE
  5
10E
100
AcDbEntity
  8
Layer0
100
AcDbLine
 10
158.722265
 20
-277.202046
 30
0.0
 11
157.397814
 21
-280.552136
 31
0.0
  0
LINE
  5
10F
100
AcDbEntity
  8
Layer0
100
AcDbLine
 10
160.279265
 20
-280.552136
 30
0.0
 11
158.722265
 21
-277.202046
 31
0.0
  0
LINE
  5
110
100
AcDbEntity
  8
Layer0
100
AcDbLine
 10
161.371173
 20
-277.893959
 30
0.0
 11
160.279265
 21
-280.552136
 31
0.0
  0
LINE
  5
111
100
AcDbEntity
  8
Layer0
100
AcDbLine
 10
163.426105
 20
-280.552136
 30
0.0
 11
161.371173
 21
-277.893959
 31
0.0
  0
LINE
  5
112
100
AcDbEntity
  8
Layer0
100
AcDbLine
 10
163.726105
 20
-277.202046
 30
0.0
 11
163.426105
 21
-280.552136
 31
0.0
  0
LINE
  5
113
100
AcDbEntity
  8
Layer0
100
AcDbLine
 10
165.34452
 20
-279.675652
 30
0.0
 11
163.726105
 21
-277.202046
 31
0.0
  0
LINE
  5
114
100
AcDbEntity
  8
Layer0
100
AcDbLine
 10
166.591064
 20
-275.643893
 30
0.0
 11
165.34452
 21
-279.675652
 31
0.0
  0
LINE
  5
115
100
AcDbEntity
  8
Layer0
100
AcDbLine
 10
167.993428
 20
-278.21486
 30
0.0
 11
166.591064
 21
-275.643893
 31
0.0
  0
LINE
  5
116
100
AcDbEntity
  8
Layer0
100
AcDbLine
 10
175.028568
 20
-274.377505
 30
0.0
 11
167.993428
 21
-278.21486
 31
0.0
  0
LINE
  5
117
100
AcDbEntity
  8
Layer0
100
AcDbLine
 10
179.368129
 20
-273.774045
 30
0.0
 11
175.028568
 21
-274.377505
 31
0.0
  0
LINE
  5
118
100
AcDbEntity
  8
Layer0
100
AcDbLine
 10
172.984565
 20
-266.335926
 30
0.0
 11
179.139375
 21
-265.790563
 31
0.0
  0
LINE
  5
119
100
AcDbEntity
  8
Layer0
100
AcDbLine
 10
170.179844
 20
-267.81619
 30
0.0
 11
172.984565
 21
-266.335926
 31
0.0
  0
LINE
  5
11A
100
AcDbEntity
  8
Layer0
100
AcDbLine
 10
170.179844
 20
-271.322081
 30
0.0
 11
170.179844
 21
-267.81619
 31
0.0
  0
LINE
  5
11B
100
AcDbEntity
  8
Layer0
100
AcDbLine
 10
167.84258
 20
-267.81619
 30
0.0
 11
170.179844
 21
-271.322081
 31
0.0
  0
LINE
  5
11C
100
AcDbEntity
  8
Layer0
100
AcDbLine
 10
164.804134
 20
-267.81619
 30
0.0
 11
167.84258
 21
-267.81619
 31
0.0
  0
LINE
  5
11D
100
AcDbEntity
  8
Layer0
100
AcDbLine
 10
163.904134
 20
-274.12683
 30
0.0
 11
164.804134
 21
-267.81619
 31
0.0
  0
LINE
  5
11E
100
AcDbEntity
  8
Layer0
100
AcDbLine
 10
162.466858
 20
-270.776718
 30
0.0
 11
163.904134
 21
-274.12683
 31
0.0
  0
LINE
  5
11F
100
AcDbEntity
  8
Layer0
100
AcDbLine
 10
161.793319
 20
-270.237284
 30
0.0
 11
162.466858
 21
-270.776718
 31
0.0
  0
LINE
  5
120
100
AcDbEntity
  8
Layer0
100
AcDbLine
 10
160.285418
 20
-274.12683
 30
0.0
 11
161.793319
 21
-270.237284
 31
0.0
  0
LINE
  5
121
100
AcDbEntity
  8
Layer0
100
AcDbLine
 10
158.49351
 20
-269.452278
 30
0.0
 11
160.285418
 21
-274.12683
 31
0.0
  0
LINE
  5
122
100
AcDbEntity
  8
Layer0
100
AcDbLine
 10
157.169059
 20
-274.905884
 30
0.0
 11
158.49351
 21
-269.452278
 31
0.0
  0
LINE
  5
123
100
AcDbEntity
  8
Layer0
100
AcDbLine
 10
155.68879
 20
-271.322081
 30
0.0
 11
157.169059
 21
-274.905884
 31
0.0
  0
LINE
  5
124
100
AcDbEntity
  8
Layer0
100
AcDbLine
 10
155.68879
 20
-267.81619
 30
0.0
 11
155.68879
 21
-271.322081
 31
0.0
  0
LINE
  5
125
100
AcDbEntity
  8
Layer0
100
AcDbLine
 10
153.974795
 20
-269.339442
 30
0.0
 11
155.68879
 21
-267.81619
 31
0.0
  0
LINE
  5
126
100
AcDbEntity
  8
Layer0
100
AcDbLine
 10
152.182882
 20
-274.12683
 30
0.0
 11
153.974795
 21
-269.339442
 31
0.0
  0
LINE
  5
127
100
AcDbEntity
  8
Layer0
100
AcDbLine
 10
151.170068
 20
-270.776718
 30
0.0
 11
152.182882
 21
-274.12683
 31
0.0
  0
LINE
  5
128
100
AcDbEntity
  8
Layer0
100
AcDbLine
 10
150.857255
 20
-266.725464
 30
0.0
 11
151.170068
 21
-270.776718
 31
0.0
  0
LINE
  5
129
100
AcDbEntity
  8
Layer0
100
AcDbLine
 10
149.568895
 20
-271.619165
 30
0.0
 11
150.857255
 21
-266.725464
 31
0.0
  0
LINE
  5
12A
100
AcDbEntity
  8
Layer0
100
AcDbLine
 10
146.495539
 20
-265.011441
 30
0.0
 11
149.568895
 21
-271.619165
 31
0.0
  0
LINE
  5
12B
100
AcDbEntity
  8
Layer0
100
AcDbLine
 10
145.872264
 20
-260.648583
 30
0.0
 11
146.495539
 21
-265.011441
 31
0.0
  0
LINE
  5
12C
100
AcDbEntity
  8
Layer0
100
AcDbLine
 10
147.742078
 20
-256.597284
 30
0.0
 11
145.872264
 21
-260.648583
 31
0.0
  0
LINE
  5
12D
100
AcDbEntity
  8
Layer0
100
AcDbLine
 10
152.104981
 20
-253.636756
 30
0.0
 11
147.742078
 21
-256.597284
 31
0.0
  0
LINE
  5
12E
100
AcDbEntity
  8
Layer0
100
AcDbLine
 10
154.306209
 20
-253.11443
 30
0.0
 11
152.104981
 21
-253.636756
 31
0.0
  0
LINE
  5
12F
100
AcDbEntity
  8
Layer0
100
AcDbLine
 10
154.615493
 20
-254.970327
 30
0.0
 11
154.306209
 21
-253.11443
 31
0.0
  0
LINE
  5
130
100
AcDbEntity
  8
Layer0
100
AcDbLine
 10
150.078087
 20
-257.264001
 30
0.0
 11
154.615493
 21
-254.970327
 31
0.0
  0
LINE
  5
131
100
AcDbEntity
  8
Layer0
100
AcDbLine
 10
148.033752
 20
-259.457916
 30
0.0
 11
150.078087
 21
-257.264001
 31
0.0
  0
LINE
  5
132
100
AcDbEntity
  8
Layer0
100
AcDbLine
 10
149.267553
 20
-260.607584
 30
0.0
 11
148.033752
 21
-259.457916
 31
0.0
  0
LINE
  5
133
100
AcDbEntity
  8
Layer0
100
AcDbLine
 10
151.125177
 20
-260.607584
 30
0.0
 11
149.267553
 21
-260.607584
 31
0.0
  0
LINE
  5
134
100
AcDbEntity
  8
Layer0
100
AcDbLine
 10
156.809409
 20
-256.466251
 30
0.0
 11
151.125177
 21
-260.607584
 31
0.0
  0
LINE
  5
135
100
AcDbEntity
  8
Layer0
100
AcDbLine
 10
157.607199
 20
-255.568742
 30
0.0
 11
156.809409
 21
-256.466251
 31
0.0
  0
LINE
  5
136
100
AcDbEntity
  8
Layer0
100
AcDbLine
 10
157.607199
 20
-254.471761
 30
0.0
 11
157.607199
 21
-255.568742
 31
0.0
  0
LINE
  5
137
100
AcDbEntity
  8
Layer0
100
AcDbLine
 10
155.41666
 20
-254.836813
 30
0.0
 11
157.607199
 21
-254.471761
 31
0.0
  0
LINE
  5
138
100
AcDbEntity
  8
Layer0
100
AcDbLine
 10
155.41666
 20
-254.836813
 30
0.0
 11
155.098304
 21
-252.926475
 31
0.0
  0
LINE
  5
139
100
AcDbEntity
  8
Layer0
100
AcDbLine
 10
156.701603
 20
-252.54603
 30
0.0
 11
155.098304
 21
-252.926475
 31
0.0
  0
LINE
  5
13A
100
AcDbEntity
  8
Layer0
100
AcDbLine
 10
157.246966
 20
-251.689018
 30
0.0
 11
156.701603
 21
-252.54603
 31
0.0
  0
LINE
  5
13B
100
AcDbEntity
  8
Layer0
100
AcDbLine
 10
161.807708
 20
-251.689018
 30
0.0
 11
157.246966
 21
-251.689018
 31
0.0
  0
LINE
  5
13C
100
AcDbEntity
  8
Layer0
100
AcDbLine
 10
177.867678
 20
-165.854328
 30
0.0
 11
178.722838
 21
-168.412412
 31
0.0
  0
LINE
  5
13D
100
AcDbEntity
  8
Layer0
100
AcDbLine
 10
161.72082
 20
-167.81358
 30
0.0
 11
177.867678
 21
-165.854328
 31
0.0
  0
LINE
  5
13E
100
AcDbEntity
  8
Layer0
100
AcDbLine
 10
156.47902
 20
-168.838391
 30
0.0
 11
161.72082
 21
-167.81358
 31
0.0
  0
LINE
  5
13F
100
AcDbEntity
  8
Layer0
100
AcDbLine
 10
154.045931
 20
-167.739809
 30
0.0
 11
156.47902
 21
-168.838391
 31
0.0
  0
LINE
  5
140
100
AcDbEntity
  8
Layer0
100
AcDbLine
 10
154.545347
 20
-162.877943
 30
0.0
 11
154.045931
 21
-167.739809
 31
0.0
  0
LINE
  5
141
100
AcDbEntity
  8
Layer0
100
AcDbLine
 10
150.64544
 20
-156.492148
 30
0.0
 11
154.545347
 21
-162.877943
 31
0.0
  0
LINE
  5
142
100
AcDbEntity
  8
Layer0
100
AcDbLine
 10
153.073502
 20
-146.334485
 30
0.0
 11
150.64544
 21
-156.492148
 31
0.0
  0
LINE
  5
143
100
AcDbEntity
  8
Layer0
100
AcDbLine
 10
150.086681
 20
-142.365102
 30
0.0
 11
153.073502
 21
-146.334485
 31
0.0
  0
LINE
  5
144
100
AcDbEntity
  8
Layer0
100
AcDbLine
 10
148.3604
 20
-142.042828
 30
0.0
 11
150.086681
 21
-142.365102
 31
0.0
  0
LINE
  5
145
100
AcDbEntity
  8
Layer0
100
AcDbLine
 10
136.383122
 20
-150.550586
 30
0.0
 11
148.3604
 21
-142.042828
 31
0.0
  0
LINE
  5
146
100
AcDbEntity
  8
Layer0
100
AcDbLine
 10
136.714103
 20
-142.140879
 30
0.0
 11
138.894641
 21
-139.937386
 31
0.0
  0
LINE
  5
147
100
AcDbEntity
  8
Layer0
100
AcDbLine
 10
141.21469
 20
-203.482113
 30
0.0
 11
141.610132
 21
-202.990223
 31
0.0
  0
LINE
  5
148
100
AcDbEntity
  8
Layer0
100
AcDbLine
 10
140.716473
 20
-203.901257
 30
0.0
 11
141.21469
 21
-203.482113
 31
0.0
  0
LINE
  5
149
100
AcDbEntity
  8
Layer0
100
AcDbLine
 10
140.083052
 20
-204.051612
 30
0.0
 11
140.716473
 21
-203.901257
 31
0.0
  0
LINE
  5
14A
100
AcDbEntity
  8
Layer0
100
AcDbLine
 10
136.443596
 20
-205.251612
 30
0.0
 11
140.083052
 21
-204.051612
 31
0.0
  0
LINE
  5
14B
100
AcDbEntity
  8
Layer0
100
AcDbLine
 10
135.966158
 20
-205.16829
 30
0.0
 11
136.443596
 21
-205.251612
 31
0.0
  0
LINE
  5
14C
100
AcDbEntity
  8
Layer0
100
AcDbLine
 10
135.545206
 20
-204.928085
 30
0.0
 11
135.966158
 21
-205.16829
 31
0.0
  0
LINE
  5
14D
100
AcDbEntity
  8
Layer0
100
AcDbLine
 10
130.790631
 20
-202.049464
 30
0.0
 11
135.545206
 21
-204.928085
 31
0.0
  0
LINE
  5
14E
100
AcDbEntity
  8
Layer0
100
AcDbLine
 10
121.368061
 20
-205.346583
 30
0.0
 11
130.790631
 21
-202.049464
 31
0.0
  0
LINE
  5
14F
100
AcDbEntity
  8
Layer0
100
AcDbLine
 10
110.577508
 20
-209.818396
 30
0.0
 11
111.746772
 21
-206.947373
 31
0.0
  0
LINE
  5
150
100
AcDbEntity
  8
Layer0
100
AcDbLine
 10
107.26952
 20
-213.960405
 30
0.0
 11
111.746772
 21
-214.893172
 31
0.0
  0
LINE
  5
151
100
AcDbEntity
  8
Layer0
100
AcDbLine
 10
103.670549
 20
-208.799752
 30
0.0
 11
105.289224
 21
-213.547841
 31
0.0
  0
LINE
  5
152
100
AcDbEntity
  8
Layer0
100
AcDbLine
 10
106.260426
 20
-204.051612
 30
0.0
 11
105.965262
 21
-204.59275
 31
0.0
  0
LINE
  5
153
100
AcDbEntity
  8
Layer0
100
AcDbLine
 10
106.260426
 20
-201.461723
 30
0.0
 11
106.260426
 21
-204.051612
 31
0.0
  0
LINE
  5
154
100
AcDbEntity
  8
Layer0
100
AcDbLine
 10
109.980647
 20
-217.79416
 30
0.0
 11
115.482967
 21
-226.196162
 31
0.0
  0
LINE
  5
155
100
AcDbEntity
  8
Layer0
100
AcDbLine
 10
115.482967
 20
-226.196162
 30
0.0
 11
116.967463
 21
-239.907
 31
0.0
  0
LINE
  5
156
100
AcDbEntity
  8
Layer0
100
AcDbLine
 10
113.049264
 20
-257.389501
 30
0.0
 11
116.967463
 21
-239.907
 31
0.0
  0
LINE
  5
157
100
AcDbEntity
  8
Layer0
100
AcDbLine
 10
109.716564
 20
-256.906765
 30
0.0
 11
113.049264
 21
-257.389501
 31
0.0
  0
LINE
  5
158
100
AcDbEntity
  8
Layer0
100
AcDbLine
 10
109.375532
 20
-253.756988
 30
0.0
 11
109.716564
 21
-256.906765
 31
0.0
  0
LINE
  5
159
100
AcDbEntity
  8
Layer0
100
AcDbLine
 10
110.242998
 20
-245.321394
 30
0.0
 11
109.375532
 21
-253.756988
 31
0.0
  0
LINE
  5
15A
100
AcDbEntity
  8
Layer0
100
AcDbLine
 10
110.651998
 20
-235.248356
 30
0.0
 11
110.242998
 21
-245.321394
 31
0.0
  0
LINE
  5
15B
100
AcDbEntity
  8
Layer0
100
AcDbLine
 10
107.330567
 20
-227.078818
 30
0.0
 11
110.651998
 21
-235.248356
 31
0.0
  0
LINE
  5
15C
100
AcDbEntity
  8
Layer0
100
AcDbLine
 10
99.254951
 20
-222.610774
 30
0.0
 11
107.330567
 21
-227.078818
 31
0.0
  0
LINE
  5
15D
100
AcDbEntity
  8
Layer0
100
AcDbLine
 10
95.748194
 20
-223.316186
 30
0.0
 11
99.254951
 21
-222.610774
 31
0.0
  0
LINE
  5
15E
100
AcDbEntity
  8
Layer0
100
AcDbLine
 10
93.954652
 20
-214.400258
 30
0.0
 11
95.748194
 21
-223.316186
 31
0.0
  0
LINE
  5
15F
100
AcDbEntity
  8
Layer0
100
AcDbLine
 10
90.915543
 20
-215.011621
 30
0.0
 11
93.954652
 21
-214.400258
 31
0.0
  0
LINE
  5
160
100
AcDbEntity
  8
Layer0
100
AcDbLine
 10
92.709071
 20
-223.927549
 30
0.0
 11
90.915543
 21
-215.011621
 31
0.0
  0
LINE
  5
161
100
AcDbEntity
  8
Layer0
100
AcDbLine
 10
88.155757
 20
-224.843494
 30
0.0
 11
92.709071
 21
-223.927549
 31
0.0
  0
LINE
  5
162
100
AcDbEntity
  8
Layer0
100
AcDbLine
 10
83.892491
 20
-229.616498
 30
0.0
 11
88.155757
 21
-224.843494
 31
0.0
  0
LINE
  5
163
100
AcDbEntity
  8
Layer0
100
AcDbLine
 10
83.603833
 20
-240.801267
 30
0.0
 11
83.892491
 21
-229.616498
 31
0.0
  0
LINE
  5
164
100
AcDbEntity
  8
Layer0
100
AcDbLine
 10
93.452117
 20
-258.53529
 30
0.0
 11
83.603833
 21
-240.801267
 31
0.0
  0
LINE
  5
165
100
AcDbEntity
  8
Layer0
100
AcDbLine
 10
90.59521
 20
-261.662099
 30
0.0
 11
93.452117
 21
-258.53529
 31
0.0
  0
LINE
  5
166
100
AcDbEntity
  8
Layer0
100
AcDbLine
 10
83.778978
 20
-255.403665
 30
0.0
 11
90.59521
 21
-261.662099
 31
0.0
  0
LINE
  5
167
100
AcDbEntity
  8
Layer0
100
AcDbLine
 10
74.762293
 20
-237.915751
 30
0.0
 11
83.778978
 21
-255.403665
 31
0.0
  0
LINE
  5
168
100
AcDbEntity
  8
Layer0
100
AcDbLine
 10
76.112458
 20
-226.147444
 30
0.0
 11
74.762293
 21
-237.915751
 31
0.0
  0
LINE
  5
169
100
AcDbEntity
  8
Layer0
100
AcDbLine
 10
83.9982
 20
-217.608037
 30
0.0
 11
76.112458
 21
-226.147444
 31
0.0
  0
LINE
  5
16A
100
AcDbEntity
  8
Layer0
100
AcDbLine
 10
87.217932
 20
-206.250451
 30
0.0
 11
83.9982
 21
-217.608037
 31
0.0
  0
LINE
  5
16B
100
AcDbEntity
  8
Layer0
100
AcDbLine
 10
93.137839
 20
-205.187237
 30
0.0
 11
87.217932
 21
-206.250451
 31
0.0
  0
LINE
  5
16C
100
AcDbEntity
  8
Layer0
100
AcDbLine
 10
98.144662
 20
-211.130281
 30
0.0
 11
93.137839
 21
-205.187237
 31
0.0
  0
LINE
  5
16D
100
AcDbEntity
  8
Layer0
100
AcDbLine
 10
95.685099
 20
-190.670575
 30
0.0
 11
106.260426
 21
-201.461723
 31
0.0
  0
LINE
  5
16E
100
AcDbEntity
  8
Layer0
100
AcDbLine
 10
92.402865
 20
-180.303621
 30
0.0
 11
95.685099
 21
-190.670575
 31
0.0
  0
LINE
  5
16F
100
AcDbEntity
  8
Layer0
100
AcDbLine
 10
94.884844
 20
-177.929551
 30
0.0
 11
92.402865
 21
-180.303621
 31
0.0
  0
LINE
  5
170
100
AcDbEntity
  8
Layer0
100
AcDbLine
 10
121.628426
 20
-196.337138
 30
0.0
 11
121.077695
 21
-196.75264
 31
0.0
  0
LINE
  5
171
100
AcDbEntity
  8
Layer0
100
AcDbLine
 10
125.161812
 20
-192.160727
 30
0.0
 11
121.628426
 21
-196.337138
 31
0.0
  0
LINE
  5
172
100
AcDbEntity
  8
Layer0
100
AcDbLine
 10
130.944079
 20
-196.809218
 30
0.0
 11
125.161812
 21
-192.160727
 31
0.0
  0
LINE
  5
173
100
AcDbEntity
  8
Layer0
100
AcDbLine
 10
129.305799
 20
-146.116741
 30
0.0
 11
136.383122
 21
-150.550586
 31
0.0
  0
LINE
  5
174
100
AcDbEntity
  8
Layer0
100
AcDbLine
 10
123.346798
 20
-146.545333
 30
0.0
 11
129.305799
 21
-146.116741
 31
0.0
  0
LINE
  5
175
100
AcDbEntity
  8
Layer0
100
AcDbLine
 10
116.141532
 20
-155.624252
 30
0.0
 11
123.346798
 21
-146.545333
 31
0.0
  0
LINE
  5
176
100
AcDbEntity
  8
Layer0
100
AcDbLine
 10
109.280621
 20
-154.567322
 30
0.0
 11
112.376583
 21
-157.631033
 31
0.0
  0
LINE
  5
177
100
AcDbEntity
  8
Layer0
100
AcDbLine
 10
93.523596
 20
-138.789501
 30
0.0
 11
94.732842
 21
-134.843386
 31
0.0
  0
LINE
  5
178
100
AcDbEntity
  8
Layer0
100
AcDbLine
 10
82.616808
 20
-134.913531
 30
0.0
 11
93.523596
 21
-138.789501
 31
0.0
  0
LINE
  5
179
100
AcDbEntity
  8
Layer0
100
AcDbLine
 10
80.557737
 20
-136.949472
 30
0.0
 11
82.616808
 21
-134.913531
 31
0.0
  0
LINE
  5
17A
100
AcDbEntity
  8
Layer0
100
AcDbLine
 10
92.252406
 20
-150.114456
 30
0.0
 11
80.557737
 21
-136.949472
 31
0.0
  0
LINE
  5
17B
100
AcDbEntity
  8
Layer0
100
AcDbLine
 10
91.818028
 20
-155.435803
 30
0.0
 11
93.599856
 21
-152.245891
 31
0.0
  0
LINE
  5
17C
100
AcDbEntity
  8
Layer0
100
AcDbLine
 10
81.32195
 20
-148.636754
 30
0.0
 11
91.818028
 21
-155.435803
 31
0.0
  0
LINE
  5
17D
100
AcDbEntity
  8
Layer0
100
AcDbLine
 10
79.454108
 20
-150.533344
 30
0.0
 11
81.32195
 21
-148.636754
 31
0.0
  0
LINE
  5
17E
100
AcDbEntity
  8
Layer0
100
AcDbLine
 10
92.469429
 20
-165.397822
 30
0.0
 11
79.454108
 21
-150.533344
 31
0.0
  0
LINE
  5
17F
100
AcDbEntity
  8
Layer0
100
AcDbLine
 10
90.289974
 20
-167.610835
 30
0.0
 11
92.469429
 21
-165.397822
 31
0.0
  0
LINE
  5
180
100
AcDbEntity
  8
Layer0
100
AcDbLine
 10
82.467523
 20
-166.156264
 30
0.0
 11
90.289974
 21
-167.610835
 31
0.0
  0
LINE
  5
181
100
AcDbEntity
  8
Layer0
100
AcDbLine
 10
90.378912
 20
-177.007474
 30
0.0
 11
82.467523
 21
-166.156264
 31
0.0
  0
LINE
  5
182
100
AcDbEntity
  8
Layer0
100
AcDbLine
 10
90.601327
 20
-180.408923
 30
0.0
 11
90.378912
 21
-177.007474
 31
0.0
  0
LINE
  5
183
100
AcDbEntity
  8
Layer0
100
AcDbLine
 10
81.284941
 20
-178.532681
 30
0.0
 11
90.601327
 21
-180.408923
 31
0.0
  0
LINE
  5
184
100
AcDbEntity
  8
Layer0
100
AcDbLine
 10
89.278181
 20
-189.467418
 30
0.0
 11
81.284941
 21
-178.532681
 31
0.0
  0
LINE
  5
185
100
AcDbEntity
  8
Layer0
100
AcDbLine
 10
87.293098
 20
-192.866571
 30
0.0
 11
89.278181
 21
-189.467418
 31
0.0
  0
LINE
  5
186
100
AcDbEntity
  8
Layer0
100
AcDbLine
 10
78.228924
 20
-186.72798
 30
0.0
 11
87.293098
 21
-192.866571
 31
0.0
  0
LINE
  5
187
100
AcDbEntity
  8
Layer0
100
AcDbLine
 10
84.765123
 20
-201.293976
 30
0.0
 11
78.228924
 21
-186.72798
 31
0.0
  0
LINE
  5
188
100
AcDbEntity
  8
Layer0
100
AcDbLine
 10
82.92824
 20
-203.664027
 30
0.0
 11
84.765123
 21
-201.293976
 31
0.0
  0
LINE
  5
189
100
AcDbEntity
  8
Layer0
100
AcDbLine
 10
77.091785
 20
-198.418314
 30
0.0
 11
82.92824
 21
-203.664027
 31
0.0
  0
LINE
  5
18A
100
AcDbEntity
  8
Layer0
100
AcDbLine
 10
77.861622
 20
-210.191598
 30
0.0
 11
77.091785
 21
-198.418314
 31
0.0
  0
LINE
  5
18B
100
AcDbEntity
  8
Layer0
100
AcDbLine
 10
71.230157
 20
-207.964079
 30
0.0
 11
77.861622
 21
-210.191598
 31
0.0
  0
LINE
  5
18C
100
AcDbEntity
  8
Layer0
100
AcDbLine
 10
71.870721
 20
-217.760373
 30
0.0
 11
71.230157
 21
-207.964079
 31
0.0
  0
LINE
  5
18D
100
AcDbEntity
  8
Layer0
100
AcDbLine
 10
63.736656
 20
-220.363944
 30
0.0
 11
71.870721
 21
-217.760373
 31
0.0
  0
LINE
  5
18E
100
AcDbEntity
  8
Layer0
100
AcDbLine
 10
72.693032
 20
-230.766298
 30
0.0
 11
69.431627
 21
-229.927682
 31
0.0
  0
LINE
  5
18F
100
AcDbEntity
  8
Layer0
100
AcDbLine
 10
72.693032
 20
-233.934516
 30
0.0
 11
72.693032
 21
-230.766298
 31
0.0
  0
LINE
  5
190
100
AcDbEntity
  8
Layer0
100
AcDbLine
 10
70.92256
 20
-242.227697
 30
0.0
 11
72.693032
 21
-233.934516
 31
0.0
  0
LINE
  5
191
100
AcDbEntity
  8
Layer0
100
AcDbLine
 10
69.431627
 20
-252.198188
 30
0.0
 11
70.92256
 21
-242.227697
 31
0.0
  0
LINE
  5
192
100
AcDbEntity
  8
Layer0
100
AcDbLine
 10
71.854365
 20
-260.67777
 30
0.0
 11
69.431627
 21
-252.198188
 31
0.0
  0
LINE
  5
193
100
AcDbEntity
  8
Layer0
100
AcDbLine
 10
79.402124
 20
-265.989136
 30
0.0
 11
71.854365
 21
-260.67777
 31
0.0
  0
LINE
  5
194
100
AcDbEntity
  8
Layer0
100
AcDbLine
 10
82.96443
 20
-265.665305
 30
0.0
 11
79.402124
 21
-265.989136
 31
0.0
  0
LINE
  5
195
100
AcDbEntity
  8
Layer0
100
AcDbLine
 10
83.787819
 20
-274.722482
 30
0.0
 11
82.96443
 21
-265.665305
 31
0.0
  0
LINE
  5
196
100
AcDbEntity
  8
Layer0
100
AcDbLine
 10
86.875091
 20
-274.441855
 30
0.0
 11
83.787819
 21
-274.722482
 31
0.0
  0
LINE
  5
197
100
AcDbEntity
  8
Layer0
100
AcDbLine
 10
86.051702
 20
-265.384653
 30
0.0
 11
86.875091
 21
-274.441855
 31
0.0
  0
LINE
  5
198
100
AcDbEntity
  8
Layer0
100
AcDbLine
 10
90.677159
 20
-264.964143
 30
0.0
 11
86.051702
 21
-265.384653
 31
0.0
  0
LINE
  5
199
100
AcDbEntity
  8
Layer0
100
AcDbLine
 10
95.42946
 20
-260.67777
 30
0.0
 11
90.677159
 21
-264.964143
 31
0.0
  0
LINE
  5
19A
100
AcDbEntity
  8
Layer0
100
AcDbLine
 10
96.920367
 20
-249.589099
 30
0.0
 11
95.42946
 21
-260.67777
 31
0.0
  0
LINE
  5
19B
100
AcDbEntity
  8
Layer0
100
AcDbLine
 10
87.500278
 20
-229.187869
 30
0.0
 11
96.920367
 21
-249.589099
 31
0.0
  0
LINE
  5
19C
100
AcDbEntity
  8
Layer0
100
AcDbLine
 10
90.677159
 20
-226.386763
 30
0.0
 11
87.500278
 21
-229.187869
 31
0.0
  0
LINE
  5
19D
100
AcDbEntity
  8
Layer0
100
AcDbLine
 10
98.144662
 20
-234.855975
 30
0.0
 11
90.677159
 21
-226.386763
 31
0.0
  0
LINE
  5
19E
100
AcDbEntity
  8
Layer0
100
AcDbLine
 10
98.144662
 20
-234.855975
 30
0.0
 11
100.117396
 21
-239.716628
 31
0.0
  0
LINE
  5
19F
100
AcDbEntity
  8
Layer0
100
AcDbLine
 10
105.399938
 20
-253.409557
 30
0.0
 11
100.117396
 21
-239.716628
 31
0.0
  0
LINE
  5
1A0
100
AcDbEntity
  8
Layer0
100
AcDbLine
 10
102.790836
 20
-264.964143
 30
0.0
 11
105.399938
 21
-253.409557
 31
0.0
  0
LINE
  5
1A1
100
AcDbEntity
  8
Layer0
100
AcDbLine
 10
94.031714
 20
-272.605109
 30
0.0
 11
102.790836
 21
-264.964143
 31
0.0
  0
LINE
  5
1A2
100
AcDbEntity
  8
Layer0
100
AcDbLine
 10
89.89534
 20
-283.786944
 30
0.0
 11
94.031714
 21
-272.605109
 31
0.0
  0
LINE
  5
1A3
100
AcDbEntity
  8
Layer0
100
AcDbLine
 10
83.41805
 20
-283.786944
 30
0.0
 11
89.89534
 21
-283.786944
 31
0.0
  0
LINE
  5
1A4
100
AcDbEntity
  8
Layer0
100
AcDbLine
 10
78.097567
 20
-274.748283
 30
0.0
 11
83.41805
 21
-283.786944
 31
0.0
  0
LINE
  5
1A5
100
AcDbEntity
  8
Layer0
100
AcDbLine
 10
68.220258
 20
-269.623243
 30
0.0
 11
78.097567
 21
-274.748283
 31
0.0
  0
LINE
  5
1A6
100
AcDbEntity
  8
Layer0
100
AcDbLine
 10
63.654346
 20
-260.67777
 30
0.0
 11
68.220258
 21
-269.623243
 31
0.0
  0
LINE
  5
1A7
100
AcDbEntity
  8
Layer0
100
AcDbLine
 10
63.654346
 20
-246.886797
 30
0.0
 11
63.654346
 21
-260.67777
 31
0.0
  0
LINE
  5
1A8
100
AcDbEntity
  8
Layer0
100
AcDbLine
 10
68.931013
 20
-231.397226
 30
0.0
 11
63.654346
 21
-246.886797
 31
0.0
  0
LINE
  5
1A9
100
AcDbEntity
  8
Layer0
100
AcDbLine
 10
65.505674
 20
-226.773118
 30
0.0
 11
63.736656
 21
-220.363944
 31
0.0
  0
LINE
  5
1AA
100
AcDbEntity
  8
Layer0
100
AcDbLine
 10
59.958131
 20
-230.434357
 30
0.0
 11
64.263617
 21
-227.87452
 31
0.0
  0
LINE
  5
1AB
100
AcDbEntity
  8
Layer0
100
AcDbLine
 10
63.061418
 20
-235.887324
 30
0.0
 11
59.958131
 21
-230.434357
 31
0.0
  0
LINE
  5
1AC
100
AcDbEntity
  8
Layer0
100
AcDbLine
 10
59.034192
 20
-238.923089
 30
0.0
 11
63.061418
 21
-235.887324
 31
0.0
  0
LINE
  5
1AD
100
AcDbEntity
  8
Layer0
100
AcDbLine
 10
57.742196
 20
-244.337912
 30
0.0
 11
59.034192
 21
-238.923089
 31
0.0
  0
LINE
  5
1AE
100
AcDbEntity
  8
Layer0
100
AcDbLine
 10
53.041689
 20
-267.90603
 30
0.0
 11
57.742196
 21
-244.337912
 31
0.0
  0
LINE
  5
1AF
100
AcDbEntity
  8
Layer0
100
AcDbLine
 10
50.570956
 20
-288.952949
 30
0.0
 11
53.041689
 21
-267.90603
 31
0.0
  0
LINE
  5
1B0
100
AcDbEntity
  8
Layer0
100
AcDbLine
 10
49.619689
 20
-288.435429
 30
0.0
 11
50.570956
 21
-288.952949
 31
0.0
  0
LINE
  5
1B1
100
AcDbEntity
  8
Layer0
100
AcDbLine
 10
48.419472
 20
-287.557076
 30
0.0
 11
49.619689
 21
-288.435429
 31
0.0
  0
LINE
  5
1B2
100
AcDbEntity
  8
Layer0
100
AcDbLine
 10
47.467261
 20
-286.377854
 30
0.0
 11
48.419472
 21
-287.557076
 31
0.0
  0
LINE
  5
1B3
100
AcDbEntity
  8
Layer0
100
AcDbLine
 10
46.826208
 20
-284.975884
 30
0.0
 11
47.467261
 21
-286.377854
 31
0.0
  0
LINE
  5
1B4
100
AcDbEntity
  8
Layer0
100
AcDbLine
 10
46.538783
 20
-283.444175
 30
0.0
 11
46.826208
 21
-284.975884
 31
0.0
  0
LINE
  5
1B5
100
AcDbEntity
  8
Layer0
100
AcDbLine
 10
44.513775
 20
-252.475275
 30
0.0
 11
46.538783
 21
-283.444175
 31
0.0
  0
LINE
  5
1B6
100
AcDbEntity
  8
Layer0
100
AcDbLine
 10
45.78285
 20
-246.298833
 30
0.0
 11
44.513775
 21
-252.475275
 31
0.0
  0
LINE
  5
1B7
100
AcDbEntity
  8
Layer0
100
AcDbLine
 10
45.190668
 20
-237.242459
 30
0.0
 11
45.78285
 21
-246.298833
 31
0.0
  0
LINE
  5
1B8
100
AcDbEntity
  8
Layer0
100
AcDbLine
 10
48.061427
 20
-232.389955
 30
0.0
 11
45.190668
 21
-237.242459
 31
0.0
  0
LINE
  5
1B9
100
AcDbEntity
  8
Layer0
100
AcDbLine
 10
48.061427
 20
-232.389955
 30
0.0
 11
47.429249
 21
-222.721928
 31
0.0
  0
LINE
  5
1BA
100
AcDbEntity
  8
Layer0
100
AcDbLine
 10
47.429249
 20
-222.721928
 30
0.0
 11
52.750268
 21
-210.066959
 31
0.0
  0
LINE
  5
1BB
100
AcDbEntity
  8
Layer0
100
AcDbLine
 10
52.750268
 20
-210.066959
 30
0.0
 11
60.431249
 21
-209.484512
 31
0.0
  0
LINE
  5
1BC
100
AcDbEntity
  8
Layer0
100
AcDbLine
 10
60.431249
 20
-209.484512
 30
0.0
 11
53.929196
 21
-204.652511
 31
0.0
  0
LINE
  5
1BD
100
AcDbEntity
  8
Layer0
100
AcDbLine
 10
53.929196
 20
-204.652511
 30
0.0
 11
55.34376
 21
-191.92844
 31
0.0
  0
LINE
  5
1BE
100
AcDbEntity
  8
Layer0
100
AcDbLine
 10
55.34376
 20
-191.92844
 30
0.0
 11
61.129434
 21
-191.489714
 31
0.0
  0
LINE
  5
1BF
100
AcDbEntity
  8
Layer0
100
AcDbLine
 10
61.129434
 20
-191.489714
 30
0.0
 11
55.975727
 21
-188.396729
 31
0.0
  0
LINE
  5
1C0
100
AcDbEntity
  8
Layer0
100
AcDbLine
 10
55.975727
 20
-188.396729
 30
0.0
 11
57.142725
 21
-171.752386
 31
0.0
  0
LINE
  5
1C1
100
AcDbEntity
  8
Layer0
100
AcDbLine
 10
57.142725
 20
-171.752386
 30
0.0
 11
63.391778
 21
-169.150127
 31
0.0
  0
LINE
  5
1C2
100
AcDbEntity
  8
Layer0
100
AcDbLine
 10
63.391778
 20
-169.150127
 30
0.0
 11
55.641532
 21
-165.66167
 31
0.0
  0
LINE
  5
1C3
100
AcDbEntity
  8
Layer0
100
AcDbLine
 10
55.641532
 20
-165.66167
 30
0.0
 11
54.686242
 21
-151.052208
 31
0.0
  0
LINE
  5
1C4
100
AcDbEntity
  8
Layer0
100
AcDbLine
 10
54.686242
 20
-151.052208
 30
0.0
 11
61.913937
 21
-147.359193
 31
0.0
  0
LINE
  5
1C5
100
AcDbEntity
  8
Layer0
100
AcDbLine
 10
61.913937
 20
-147.359193
 30
0.0
 11
52.944793
 21
-145.796546
 31
0.0
  0
LINE
  5
1C6
100
AcDbEntity
  8
Layer0
100
AcDbLine
 10
52.031648
 20
-131.831619
 30
0.0
 11
52.944793
 21
-145.796546
 31
0.0
  0
LINE
  5
1C7
100
AcDbEntity
  8
Layer0
100
AcDbLine
 10
49.897912
 20
-126.432384
 30
0.0
 11
52.031648
 21
-131.831619
 31
0.0
  0
LINE
  5
1C8
100
AcDbEntity
  8
Layer0
100
AcDbLine
 10
49.785526
 20
-125.816544
 30
0.0
 11
49.897912
 21
-126.432384
 31
0.0
  0
LINE
  5
1C9
100
AcDbEntity
  8
Layer0
100
AcDbLine
 10
49.914179
 20
-125.204382
 30
0.0
 11
49.785526
 21
-125.816544
 31
0.0
  0
LINE
  5
1CA
100
AcDbEntity
  8
Layer0
100
AcDbLine
 10
50.261862
 20
-124.700625
 30
0.0
 11
49.914179
 21
-125.204382
 31
0.0
  0
LINE
  5
1CB
100
AcDbEntity
  8
Layer0
100
AcDbLine
 10
52.618656
 20
-122.459856
 30
0.0
 11
50.261862
 21
-124.700625
 31
0.0
  0
LINE
  5
1CC
100
AcDbEntity
  8
Layer0
100
AcDbLine
 10
52.990083
 20
-121.89728
 30
0.0
 11
52.618656
 21
-122.459856
 31
0.0
  0
LINE
  5
1CD
100
AcDbEntity
  8
Layer0
100
AcDbLine
 10
53.091656
 20
-121.215735
 30
0.0
 11
52.990083
 21
-121.89728
 31
0.0
  0
LINE
  5
1CE
100
AcDbEntity
  8
Layer0
100
AcDbLine
 10
52.907108
 20
-118.393394
 30
0.0
 11
53.091656
 21
-121.215735
 31
0.0
  0
LINE
  5
1CF
100
AcDbEntity
  8
Layer0
100
AcDbLine
 10
52.705486
 20
-117.711629
 30
0.0
 11
52.907108
 21
-118.393394
 31
0.0
  0
LINE
  5
1D0
100
AcDbEntity
  8
Layer0
100
AcDbLine
 10
52.236187
 20
-117.20516
 30
0.0
 11
52.705486
 21
-117.711629
 31
0.0
  0
LINE
  5
1D1
100
AcDbEntity
  8
Layer0
100
AcDbLine
 10
51.603537
 20
-116.986555
 30
0.0
 11
52.236187
 21
-117.20516
 31
0.0
  0
LINE
  5
1D2
100
AcDbEntity
  8
Layer0
100
AcDbLine
 10
50.948161
 20
-117.104467
 30
0.0
 11
51.603537
 21
-116.986555
 31
0.0
  0
LINE
  5
1D3
100
AcDbEntity
  8
Layer0
100
AcDbLine
 10
46.509717
 20
-119.145303
 30
0.0
 11
50.948161
 21
-117.104467
 31
0.0
  0
LINE
  5
1D4
100
AcDbEntity
  8
Layer0
100
AcDbLine
 10
45.78765
 20
-119.256256
 30
0.0
 11
46.509717
 21
-119.145303
 31
0.0
  0
LINE
  5
1D5
100
AcDbEntity
  8
Layer0
100
AcDbLine
 10
45.110776
 20
-118.963562
 30
0.0
 11
45.78765
 21
-119.256256
 31
0.0
  0
LINE
  5
1D6
100
AcDbEntity
  8
Layer0
100
AcDbLine
 10
44.660482
 20
-118.345601
 30
0.0
 11
45.110776
 21
-118.963562
 31
0.0
  0
LINE
  5
1D7
100
AcDbEntity
  8
Layer0
100
AcDbLine
 10
43.876223
 20
-116.367594
 30
0.0
 11
44.660482
 21
-118.345601
 31
0.0
  0
LINE
  5
1D8
100
AcDbEntity
  8
Layer0
100
AcDbLine
 10
43.773164
 20
-115.589987
 30
0.0
 11
43.876223
 21
-116.367594
 31
0.0
  0
LINE
  5
1D9
100
AcDbEntity
  8
Layer0
100
AcDbLine
 10
44.044986
 20
-114.861069
 30
0.0
 11
43.773164
 21
-115.589987
 31
0.0
  0
LINE
  5
1DA
100
AcDbEntity
  8
Layer0
100
AcDbLine
 10
44.618802
 20
-114.376157
 30
0.0
 11
44.044986
 21
-114.861069
 31
0.0
  0
LINE
  5
1DB
100
AcDbEntity
  8
Layer0
100
AcDbLine
 10
47.733254
 20
-112.944132
 30
0.0
 11
44.618802
 21
-114.376157
 31
0.0
  0
LINE
  5
1DC
100
AcDbEntity
  8
Layer0
100
AcDbLine
 10
48.206385
 20
-112.588155
 30
0.0
 11
47.733254
 21
-112.944132
 31
0.0
  0
LINE
  5
1DD
100
AcDbEntity
  8
Layer0
100
AcDbLine
 10
48.507294
 20
-112.057797
 30
0.0
 11
48.206385
 21
-112.588155
 31
0.0
  0
LINE
  5
1DE
100
AcDbEntity
  8
Layer0
100
AcDbLine
 10
48.585552
 20
-111.442029
 30
0.0
 11
48.507294
 21
-112.057797
 31
0.0
  0
LINE
  5
1DF
100
AcDbEntity
  8
Layer0
100
AcDbLine
 10
48.446525
 20
-109.315858
 30
0.0
 11
48.585552
 21
-111.442029
 31
0.0
  0
LINE
  5
1E0
100
AcDbEntity
  8
Layer0
100
AcDbLine
 10
48.527488
 20
-108.691802
 30
0.0
 11
48.446525
 21
-109.315858
 31
0.0
  0
LINE
  5
1E1
100
AcDbEntity
  8
Layer0
100
AcDbLine
 10
48.836929
 20
-108.156974
 30
0.0
 11
48.527488
 21
-108.691802
 31
0.0
  0
LINE
  5
1E2
100
AcDbEntity
  8
Layer0
100
AcDbLine
 10
49.321412
 20
-107.803576
 30
0.0
 11
48.836929
 21
-108.156974
 31
0.0
  0
LINE
  5
1E3
100
AcDbEntity
  8
Layer0
100
AcDbLine
 10
54.403724
 20
-104.191299
 30
0.0
 11
49.321412
 21
-107.803576
 31
0.0
  0
LINE
  5
1E4
100
AcDbEntity
  8
Layer0
100
AcDbLine
 10
60.590706
 20
-114.286207
 30
0.0
 11
54.403724
 21
-104.191299
 31
0.0
  0
LINE
  5
1E5
100
AcDbEntity
  8
Layer0
100
AcDbLine
 10
63.177999
 20
-112.447301
 30
0.0
 11
60.590706
 21
-114.286207
 31
0.0
  0
LINE
  5
1E6
100
AcDbEntity
  8
Layer0
100
AcDbLine
 10
56.991018
 20
-102.352393
 30
0.0
 11
63.177999
 21
-112.447301
 31
0.0
  0
LINE
  5
1E7
100
AcDbEntity
  8
Layer0
100
AcDbLine
 10
63.325883
 20
-97.474975
 30
0.0
 11
56.991018
 21
-102.352393
 31
0.0
  0
LINE
  5
1E8
100
AcDbEntity
  8
Layer0
100
AcDbLine
 10
63.325883
 20
-97.474975
 30
0.0
 11
64.539637
 21
-98.436355
 31
0.0
  0
LINE
  5
1E9
100
AcDbEntity
  8
Layer0
100
AcDbLine
 10
65.664749
 20
-99.583116
 30
0.0
 11
64.539637
 21
-98.436355
 31
0.0
  0
LINE
  5
1EA
100
AcDbEntity
  8
Layer0
100
AcDbLine
 10
66.297362
 20
-100.503503
 30
0.0
 11
65.664749
 21
-99.583116
 31
0.0
  0
LINE
  5
1EB
100
AcDbEntity
  8
Layer0
100
AcDbLine
 10
66.789834
 20
-101.349212
 30
0.0
 11
66.297362
 21
-100.503503
 31
0.0
  0
LINE
  5
1EC
100
AcDbEntity
  8
Layer0
100
AcDbLine
 10
73.391107
 20
-110.493094
 30
0.0
 11
66.789834
 21
-101.349212
 31
0.0
  0
LINE
  5
1ED
100
AcDbEntity
  8
Layer0
100
AcDbLine
 10
83.596126
 20
-116.010054
 30
0.0
 11
73.391107
 21
-110.493094
 31
0.0
  0
LINE
  5
1EE
100
AcDbEntity
  8
Layer0
100
AcDbLine
 10
84.730167
 20
-120.117967
 30
0.0
 11
83.596126
 21
-116.010054
 31
0.0
  0
LINE
  5
1EF
100
AcDbEntity
  8
Layer0
100
AcDbLine
 10
79.725722
 20
-124.225273
 30
0.0
 11
84.730167
 21
-120.117967
 31
0.0
  0
LINE
  5
1F0
100
AcDbEntity
  8
Layer0
100
AcDbLine
 10
94.732842
 20
-134.843386
 30
0.0
 11
79.725722
 21
-124.225273
 31
0.0
  0
LINE
  5
1F1
100
AcDbEntity
  8
Layer0
100
AcDbLine
 10
105.499025
 20
-153.394854
 30
0.0
 11
109.280621
 21
-154.567322
 31
0.0
  0
LINE
  5
1F2
100
AcDbEntity
  8
Layer0
100
AcDbLine
 10
102.902365
 20
-150.825245
 30
0.0
 11
105.499025
 21
-153.394854
 31
0.0
  0
LINE
  5
1F3
100
AcDbEntity
  8
Layer0
100
AcDbLine
 10
109.128704
 20
-144.53336
 30
0.0
 11
104.292737
 21
-148.94085
 31
0.0
  0
LINE
  5
1F4
100
AcDbEntity
  8
Layer0
100
AcDbLine
 10
123.413419
 20
-140.285745
 30
0.0
 11
109.128704
 21
-144.53336
 31
0.0
  0
LINE
  5
1F5
100
AcDbEntity
  8
Layer0
100
AcDbLine
 10
142.502091
 20
-131.343272
 30
0.0
 11
134.159468
 21
-135.251542
 31
0.0
  0
LINE
  5
1F6
100
AcDbEntity
  8
Layer0
100
AcDbLine
 10
146.007564
 20
-132.914594
 30
0.0
 11
142.502091
 21
-131.343272
 31
0.0
  0
LINE
  5
1F7
100
AcDbEntity
  8
Layer0
100
AcDbLine
 10
149.892557
 20
-131.066145
 30
0.0
 11
146.007564
 21
-132.914594
 31
0.0
  0
LINE
  5
1F8
100
AcDbEntity
  8
Layer0
100
AcDbLine
 10
160.559543
 20
-150.85543
 30
0.0
 11
160.145758
 21
-141.665386
 31
0.0
  0
LINE
  5
1F9
100
AcDbEntity
  8
Layer0
100
AcDbLine
 10
161.819014
 20
-155.987297
 30
0.0
 11
160.559543
 21
-150.85543
 31
0.0
  0
LINE
  5
1FA
100
AcDbEntity
  8
Layer0
100
AcDbLine
 10
160.84763
 20
-158.138675
 30
0.0
 11
161.819014
 21
-155.987297
 31
0.0
  0
LINE
  5
1FB
100
AcDbEntity
  8
Layer0
100
AcDbLine
 10
170.361738
 20
-160.83115
 30
0.0
 11
160.84763
 21
-158.138675
 31
0.0
  0
LINE
  5
1FC
100
AcDbEntity
  8
Layer0
100
AcDbLine
 10
186.87731
 20
-162.206019
 30
0.0
 11
181.712144
 21
-159.56287
 31
0.0
  0
LINE
  5
1FD
100
AcDbEntity
  8
Layer0
100
AcDbLine
 10
195.815786
 20
-164.280102
 30
0.0
 11
186.87731
 21
-162.206019
 31
0.0
  0
LINE
  5
1FE
100
AcDbEntity
  8
Layer0
100
AcDbLine
 10
205.797313
 20
-168.852219
 30
0.0
 11
195.815786
 21
-164.280102
 31
0.0
  0
LINE
  5
1FF
100
AcDbEntity
  8
Layer0
100
AcDbLine
 10
207.939303
 20
-175.483948
 30
0.0
 11
205.797313
 21
-168.852219
 31
0.0
  0
LINE
  5
200
100
AcDbEntity
  8
Layer0
100
AcDbLine
 10
204.904532
 20
-180.716552
 30
0.0
 11
207.939303
 21
-175.483948
 31
0.0
  0
LINE
  5
201
100
AcDbEntity
  8
Layer0
100
AcDbLine
 10
204.41615
 20
-175.913164
 30
0.0
 11
204.904532
 21
-180.716552
 31
0.0
  0
LINE
  5
202
100
AcDbEntity
  8
Layer0
100
AcDbLine
 10
203.108024
 20
-175.154456
 30
0.0
 11
204.41615
 21
-175.913164
 31
0.0
  0
LINE
  5
203
100
AcDbEntity
  8
Layer0
100
AcDbLine
 10
201.360653
 20
-171.938931
 30
0.0
 11
203.108024
 21
-175.154456
 31
0.0
  0
LINE
  5
204
100
AcDbEntity
  8
Layer0
100
AcDbLine
 10
195.631119
 20
-168.828389
 30
0.0
 11
201.360653
 21
-171.938931
 31
0.0
  0
LINE
  5
205
100
AcDbEntity
  8
Layer0
100
AcDbLine
 10
199.685188
 20
-176.260002
 30
0.0
 11
195.631119
 21
-168.828389
 31
0.0
  0
LINE
  5
206
100
AcDbEntity
  8
Layer0
100
AcDbLine
 10
203.416396
 20
-187.812042
 30
0.0
 11
199.685188
 21
-176.260002
 31
0.0
  0
LINE
  5
207
100
AcDbEntity
  8
Layer0
100
AcDbLine
 10
194.961026
 20
-194.913563
 30
0.0
 11
200.943659
 21
-192.981225
 31
0.0
  0
LINE
  5
208
100
AcDbEntity
  8
Layer0
100
AcDbLine
 10
197.922899
 20
-192.066959
 30
0.0
 11
194.961026
 21
-194.913563
 31
0.0
  0
LINE
  5
209
100
AcDbEntity
  8
Layer0
100
AcDbLine
 10
198.389137
 20
-189.435803
 30
0.0
 11
197.922899
 21
-192.066959
 31
0.0
  0
LINE
  5
20A
100
AcDbEntity
  8
Layer0
100
AcDbLine
 10
196.692072
 20
-188.256245
 30
0.0
 11
198.389137
 21
-189.435803
 31
0.0
  0
LINE
  5
20B
100
AcDbEntity
  8
Layer0
100
AcDbLine
 10
198.113838
 20
-184.219931
 30
0.0
 11
196.692072
 21
-188.256245
 31
0.0
  0
LINE
  5
20C
100
AcDbEntity
  8
Layer0
100
AcDbLine
 10
196.523532
 20
-183.659776
 30
0.0
 11
198.113838
 21
-184.219931
 31
0.0
  0
LINE
  5
20D
100
AcDbEntity
  8
Layer0
100
AcDbLine
 10
197.509414
 20
-180.860786
 30
0.0
 11
196.523532
 21
-183.659776
 31
0.0
  0
LINE
  5
20E
100
AcDbEntity
  8
Layer0
100
AcDbLine
 10
192.412295
 20
-170.931144
 30
0.0
 11
197.509414
 21
-180.860786
 31
0.0
  0
LINE
  5
20F
100
AcDbEntity
  8
Layer0
100
AcDbLine
 10
192.803021
 20
-182.38091
 30
0.0
 11
192.412295
 21
-170.931144
 31
0.0
  0
LINE
  5
210
100
AcDbEntity
  8
Layer0
100
AcDbLine
 10
189.585528
 20
-188.145015
 30
0.0
 11
192.803021
 21
-182.38091
 31
0.0
  0
LINE
  5
211
100
AcDbEntity
  8
Layer0
100
AcDbLine
 10
184.130433
 20
-189.906962
 30
0.0
 11
189.585528
 21
-188.145015
 31
0.0
  0
LINE
  5
212
100
AcDbEntity
  8
Layer0
100
AcDbLine
 10
181.548632
 20
-188.496537
 30
0.0
 11
184.130433
 21
-189.906962
 31
0.0
  0
LINE
  5
213
100
AcDbEntity
  8
Layer0
100
AcDbLine
 10
186.610118
 20
-186.064399
 30
0.0
 11
181.548632
 21
-188.496537
 31
0.0
  0
LINE
  5
214
100
AcDbEntity
  8
Layer0
100
AcDbLine
 10
186.048711
 20
-184.326251
 30
0.0
 11
186.610118
 21
-186.064399
 31
0.0
  0
LINE
  5
215
100
AcDbEntity
  8
Layer0
100
AcDbLine
 10
188.363163
 20
-179.14912
 30
0.0
 11
186.048711
 21
-184.326251
 31
0.0
  0
LINE
  5
216
100
AcDbEntity
  8
Layer0
100
AcDbLine
 10
185.38338
 20
-169.923534
 30
0.0
 11
188.363163
 21
-179.14912
 31
0.0
  0
LINE
  5
217
100
AcDbEntity
  8
Layer0
100
AcDbLine
 10
183.110412
 20
-170.657683
 30
0.0
 11
185.38338
 21
-169.923534
 31
0.0
  0
LINE
  5
218
100
AcDbEntity
  8
Layer0
100
AcDbLine
 10
178.722838
 20
-168.412412
 30
0.0
 11
183.110412
 21
-170.657683
 31
0.0
  0
LINE
  5
219
100
AcDbEntity
  8
Layer0
100
AcDbLine
 10
165.271584
 20
-250.05293
 30
0.0
 11
161.807708
 21
-251.689018
 31
0.0
  0
LINE
  5
21A
100
AcDbEntity
  8
Layer0
100
AcDbLine
 10
167.764667
 20
-250.754117
 30
0.0
 11
165.271584
 21
-250.05293
 31
0.0
  0
LINE
  5
21B
100
AcDbEntity
  8
Layer0
100
AcDbLine
 10
170.257756
 20
-248.650601
 30
0.0
 11
167.764667
 21
-250.754117
 31
0.0
  0
LINE
  5
21C
100
AcDbEntity
  8
Layer0
100
AcDbLine
 10
176.412561
 20
-248.650601
 30
0.0
 11
170.257756
 21
-248.650601
 31
0.0
  0
LINE
  5
21D
100
AcDbEntity
  8
Layer0
100
AcDbLine
 10
179.993714
 20
-247.383801
 30
0.0
 11
176.412561
 21
-248.650601
 31
0.0
  0
LINE
  5
21E
100
AcDbEntity
  8
Layer0
100
AcDbLine
 10
179.993714
 20
-250.163329
 30
0.0
 11
179.993714
 21
-247.383801
 31
0.0
  0
LINE
  5
21F
100
AcDbEntity
  8
Layer0
100
AcDbLine
 10
171.272824
 20
-252.984786
 30
0.0
 11
179.993714
 21
-250.163329
 31
0.0
  0
LINE
  5
220
100
AcDbEntity
  8
Layer0
100
AcDbLine
 10
170.116028
 20
-255.816929
 30
0.0
 11
171.272824
 21
-252.984786
 31
0.0
  0
LINE
  5
221
100
AcDbEntity
  8
Layer0
100
AcDbLine
 10
170.116028
 20
-258.250174
 30
0.0
 11
170.116028
 21
-255.816929
 31
0.0
  0
LINE
  5
222
100
AcDbEntity
  8
Layer0
100
AcDbLine
 10
170.594704
 20
-259.765959
 30
0.0
 11
170.116028
 21
-258.250174
 31
0.0
  0
LINE
  5
223
100
AcDbEntity
  8
Layer0
100
AcDbLine
 10
173.307183
 20
-261.002556
 30
0.0
 11
170.594704
 21
-259.765959
 31
0.0
  0
LINE
  5
224
100
AcDbEntity
  8
Layer0
100
AcDbLine
 10
177.695014
 20
-260.204714
 30
0.0
 11
173.307183
 21
-261.002556
 31
0.0
  0
LINE
  5
225
100
AcDbEntity
  8
Layer0
100
AcDbLine
 10
180.407486
 20
-258.250174
 30
0.0
 11
177.695014
 21
-260.204714
 31
0.0
  0
LINE
  5
226
100
AcDbEntity
  8
Layer0
100
AcDbLine
 10
180.407486
 20
-255.218605
 30
0.0
 11
180.407486
 21
-258.250174
 31
0.0
  0
LINE
  5
227
100
AcDbEntity
  8
Layer0
100
AcDbLine
 10
179.809151
 20
-254.221337
 30
0.0
 11
180.407486
 21
-255.218605
 31
0.0
  0
LINE
  5
228
100
AcDbEntity
  8
Layer0
100
AcDbLine
 10
180.766492
 20
-252.027422
 30
0.0
 11
179.809151
 21
-254.221337
 31
0.0
  0
LINE
  5
229
100
AcDbEntity
  8
Layer0
100
AcDbLine
 10
180.766492
 20
-247.110438
 30
0.0
 11
180.766492
 21
-252.027422
 31
0.0
  0
LINE
  5
22A
100
AcDbEntity
  8
Layer0
100
AcDbLine
 10
187.865169
 20
-244.599347
 30
0.0
 11
180.766492
 21
-247.110438
 31
0.0
  0
LINE
  5
22B
100
AcDbEntity
  8
Layer0
100
AcDbLine
 10
190.124527
 20
-242.41785
 30
0.0
 11
187.865169
 21
-244.599347
 31
0.0
  0
LINE
  5
22C
100
AcDbEntity
  8
Layer0
100
AcDbLine
 10
206.719129
 20
-249.351743
 30
0.0
 11
199.161964
 21
-244.599347
 31
0.0
  0
LINE
  5
22D
100
AcDbEntity
  8
Layer0
100
AcDbLine
 10
232.667468
 20
-193.9301
 30
0.0
 11
235.121662
 21
-204.074519
 31
0.0
  0
LINE
  5
22E
100
AcDbEntity
  8
Layer0
100
AcDbLine
 10
239.917168
 20
-150.946635
 30
0.0
 11
240.228335
 21
-151.079385
 31
0.0
  0
LINE
  5
22F
100
AcDbEntity
  8
Layer0
100
AcDbLine
 10
239.401408
 20
-150.430862
 30
0.0
 11
239.917168
 21
-150.946635
 31
0.0
  0
LINE
  5
230
100
AcDbEntity
  8
Layer0
100
AcDbLine
 10
239.212623
 20
-149.726336
 30
0.0
 11
239.401408
 21
-150.430862
 31
0.0
  0
LINE
  5
231
100
AcDbEntity
  8
Layer0
100
AcDbLine
 10
239.212623
 20
-143.628083
 30
0.0
 11
239.212623
 21
-149.726336
 31
0.0
  0
LINE
  5
232
100
AcDbEntity
  8
Layer0
100
AcDbLine
 10
234.207723
 20
-143.628083
 30
0.0
 11
239.212623
 21
-143.628083
 31
0.0
  0
LINE
  5
233
100
AcDbEntity
  8
Layer0
100
AcDbLine
 10
234.207723
 20
-149.726336
 30
0.0
 11
234.207723
 21
-143.628083
 31
0.0
  0
LINE
  5
234
100
AcDbEntity
  8
Layer0
100
AcDbLine
 10
234.01894
 20
-150.430862
 30
0.0
 11
234.207723
 21
-149.726336
 31
0.0
  0
LINE
  5
235
100
AcDbEntity
  8
Layer0
100
AcDbLine
 10
233.503178
 20
-150.946635
 30
0.0
 11
234.01894
 21
-150.430862
 31
0.0
  0
LINE
  5
236
100
AcDbEntity
  8
Layer0
100
AcDbLine
 10
232.798633
 20
-151.135439
 30
0.0
 11
233.503178
 21
-150.946635
 31
0.0
  0
LINE
  5
237
100
AcDbEntity
  8
Layer0
100
AcDbLine
 10
230.384426
 20
-151.135439
 30
0.0
 11
232.798633
 21
-151.135439
 31
0.0
  0
LINE
  5
238
100
AcDbEntity
  8
Layer0
100
AcDbLine
 10
229.679877
 20
-150.946635
 30
0.0
 11
230.384426
 21
-151.135439
 31
0.0
  0
LINE
  5
239
100
AcDbEntity
  8
Layer0
100
AcDbLine
 10
229.164112
 20
-150.430862
 30
0.0
 11
229.679877
 21
-150.946635
 31
0.0
  0
LINE
  5
23A
100
AcDbEntity
  8
Layer0
100
AcDbLine
 10
228.975332
 20
-149.726336
 30
0.0
 11
229.164112
 21
-150.430862
 31
0.0
  0
LINE
  5
23B
100
AcDbEntity
  8
Layer0
100
AcDbLine
 10
228.975332
 20
-145.903045
 30
0.0
 11
228.975332
 21
-149.726336
 31
0.0
  0
LINE
  5
23C
100
AcDbEntity
  8
Layer0
100
AcDbLine
 10
227.155367
 20
-136.728083
 30
0.0
 11
227.155367
 21
-142.035589
 31
0.0
  0
LINE
  5
23D
100
AcDbEntity
  8
Layer0
100
AcDbLine
 10
236.185158
 20
-136.728083
 30
0.0
 11
227.155367
 21
-136.728083
 31
0.0
  0
LINE
  5
23E
100
AcDbEntity
  8
Layer0
100
AcDbLine
 10
236.185158
 20
-133.628083
 30
0.0
 11
236.185158
 21
-136.728083
 31
0.0
  0
LINE
  5
23F
100
AcDbEntity
  8
Layer0
100
AcDbLine
 10
227.155367
 20
-133.628083
 30
0.0
 11
236.185158
 21
-133.628083
 31
0.0
  0
LINE
  5
240
100
AcDbEntity
  8
Layer0
100
AcDbLine
 10
238.530135
 20
-125.65594
 30
0.0
 11
227.155367
 21
-125.65594
 31
0.0
  0
LINE
  5
241
100
AcDbEntity
  8
Layer0
100
AcDbLine
 10
240.228335
 20
-126.868953
 30
0.0
 11
238.530135
 21
-125.65594
 31
0.0
  0
LINE
  5
242
100
AcDbEntity
  8
Layer0
100
AcDbLine
 10
249.222422
 20
-124.290952
 30
0.0
 11
242.201063
 21
-127.695251
 31
0.0
  0
LINE
  5
243
100
AcDbEntity
  8
Layer0
100
AcDbLine
 10
255.592297
 20
-125.883446
 30
0.0
 11
249.222422
 21
-124.290952
 31
0.0
  0
LINE
  5
244
100
AcDbEntity
  8
Layer0
100
AcDbLine
 10
263.32714
 20
-120.878559
 30
0.0
 11
255.592297
 21
-125.883446
 31
0.0
  0
LINE
  5
245
100
AcDbEntity
  8
Layer0
100
AcDbLine
 10
269.697009
 20
-120.878559
 30
0.0
 11
263.32714
 21
-120.878559
 31
0.0
  0
LINE
  5
246
100
AcDbEntity
  8
Layer0
100
AcDbLine
 10
274.474415
 20
-116.101128
 30
0.0
 11
269.697009
 21
-120.878559
 31
0.0
  0
LINE
  5
247
100
AcDbEntity
  8
Layer0
100
AcDbLine
 10
285.753845
 20
-111.881459
 30
0.0
 11
274.474415
 21
-116.101128
 31
0.0
  0
LINE
  5
248
100
AcDbEntity
  8
Layer0
100
AcDbLine
 10
285.753845
 20
-105.57209
 30
0.0
 11
285.753845
 21
-111.881459
 31
0.0
  0
LINE
  5
249
100
AcDbEntity
  8
Layer0
100
AcDbLine
 10
295.270815
 20
-109.004416
 30
0.0
 11
285.753845
 21
-105.57209
 31
0.0
  0
LINE
  5
24A
100
AcDbEntity
  8
Layer0
100
AcDbLine
 10
297.223964
 20
-103.588884
 30
0.0
 11
295.270815
 21
-109.004416
 31
0.0
  0
LINE
  5
24B
100
AcDbEntity
  8
Layer0
100
AcDbLine
 10
302.774851
 20
-105.590809
 30
0.0
 11
297.223964
 21
-103.588884
 31
0.0
  0
LINE
  5
24C
100
AcDbEntity
  8
Layer0
100
AcDbLine
 10
308.143739
 20
-101.313922
 30
0.0
 11
302.774851
 21
-105.590809
 31
0.0
  0
LINE
  5
24D
100
AcDbEntity
  8
Layer0
100
AcDbLine
 10
309.508714
 20
-110.641228
 30
0.0
 11
308.143739
 21
-101.313922
 31
0.0
  0
LINE
  5
24E
100
AcDbEntity
  8
Layer0
100
AcDbLine
 10
314.058626
 20
-110.641228
 30
0.0
 11
309.508714
 21
-110.641228
 31
0.0
  0
LINE
  5
24F
100
AcDbEntity
  8
Layer0
100
AcDbLine
 10
314.058626
 20
-118.37609
 30
0.0
 11
314.058626
 21
-110.641228
 31
0.0
  0
LINE
  5
250
100
AcDbEntity
  8
Layer0
100
AcDbLine
 10
318.836032
 20
-120.878559
 30
0.0
 11
314.058626
 21
-118.37609
 31
0.0
  0
LINE
  5
251
100
AcDbEntity
  8
Layer0
100
AcDbLine
 10
317.471057
 20
-127.248383
 30
0.0
 11
318.836032
 21
-120.878559
 31
0.0
  0
LINE
  5
252
100
AcDbEntity
  8
Layer0
100
AcDbLine
 10
321.793463
 20
-133.618309
 30
0.0
 11
317.471057
 21
-127.248383
 31
0.0
  0
LINE
  5
253
100
AcDbEntity
  8
Layer0
100
AcDbLine
 10
318.836032
 20
-137.713221
 30
0.0
 11
321.793463
 21
-133.618309
 31
0.0
  0
LINE
  5
254
100
AcDbEntity
  8
Layer0
100
AcDbLine
 10
321.793463
 20
-143.628083
 30
0.0
 11
318.836032
 21
-137.713221
 31
0.0
  0
LINE
  5
255
100
AcDbEntity
  8
Layer0
100
AcDbLine
 10
318.836032
 20
-147.722995
 30
0.0
 11
321.793463
 21
-143.628083
 31
0.0
  0
LINE
  5
256
100
AcDbEntity
  8
Layer0
100
AcDbLine
 10
321.793463
 20
-155.755331
 30
0.0
 11
318.836032
 21
-147.722995
 31
0.0
  0
LINE
  5
257
100
AcDbEntity
  8
Layer0
100
AcDbLine
 10
331.803263
 20
-166.1501
 30
0.0
 11
321.793463
 21
-155.755331
 31
0.0
  0
LINE
  5
258
100
AcDbEntity
  8
Layer0
100
AcDbLine
 10
329.672294
 20
-168.20216
 30
0.0
 11
331.803263
 21
-166.1501
 31
0.0
  0
LINE
  5
259
100
AcDbEntity
  8
Layer0
100
AcDbLine
 10
324.803078
 20
-163.145671
 30
0.0
 11
329.672294
 21
-168.20216
 31
0.0
  0
LINE
  5
25A
100
AcDbEntity
  8
Layer0
100
AcDbLine
 10
322.570081
 20
-165.295978
 30
0.0
 11
324.803078
 21
-163.145671
 31
0.0
  0
LINE
  5
25B
100
AcDbEntity
  8
Layer0
100
AcDbLine
 10
327.439296
 20
-170.352467
 30
0.0
 11
322.570081
 21
-165.295978
 31
0.0
  0
LINE
  5
25C
100
AcDbEntity
  8
Layer0
100
AcDbLine
 10
325.660894
 20
-172.065013
 30
0.0
 11
327.439296
 21
-170.352467
 31
0.0
  0
LINE
  5
25D
100
AcDbEntity
  8
Layer0
100
AcDbLine
 10
321.793463
 20
-172.065013
 30
0.0
 11
325.660894
 21
-172.065013
 31
0.0
  0
LINE
  5
25E
100
AcDbEntity
  8
Layer0
100
AcDbLine
 10
318.836032
 20
-164.330201
 30
0.0
 11
321.793463
 21
-172.065013
 31
0.0
  0
LINE
  5
25F
100
AcDbEntity
  8
Layer0
100
AcDbLine
 10
312.48074
 20
-164.330201
 30
0.0
 11
318.836032
 21
-164.330201
 31
0.0
  0
LINE
  5
260
100
AcDbEntity
  8
Layer0
100
AcDbLine
 10
312.48074
 20
-158.363838
 30
0.0
 11
312.48074
 21
-164.330201
 31
0.0
  0
LINE
  5
261
100
AcDbEntity
  8
Layer0
100
AcDbLine
 10
309.963701
 20
-151.135439
 30
0.0
 11
307.461257
 21
-155.457858
 31
0.0
  0
LINE
  5
262
100
AcDbEntity
  8
Layer0
100
AcDbLine
 10
304.958801
 20
-143.628083
 30
0.0
 11
309.963701
 21
-151.135439
 31
0.0
  0
LINE
  5
263
100
AcDbEntity
  8
Layer0
100
AcDbLine
 10
307.461257
 20
-140.670652
 30
0.0
 11
304.958801
 21
-143.628083
 31
0.0
  0
LINE
  5
264
100
AcDbEntity
  8
Layer0
100
AcDbLine
 10
304.958801
 20
-134.983246
 30
0.0
 11
307.461257
 21
-140.670652
 31
0.0
  0
LINE
  5
265
100
AcDbEntity
  8
Layer0
100
AcDbLine
 10
307.461257
 20
-132.025815
 30
0.0
 11
304.958801
 21
-134.983246
 31
0.0
  0
LINE
  5
266
100
AcDbEntity
  8
Layer0
100
AcDbLine
 10
304.958801
 20
-129.068384
 30
0.0
 11
307.461257
 21
-132.025815
 31
0.0
  0
LINE
  5
267
100
AcDbEntity
  8
Layer0
100
AcDbLine
 10
304.958801
 20
-124.973471
 30
0.0
 11
304.958801
 21
-129.068384
 31
0.0
  0
LINE
  5
268
100
AcDbEntity
  8
Layer0
100
AcDbLine
 10
299.043927
 20
-119.286065
 30
0.0
 11
304.958801
 21
-124.973471
 31
0.0
  0
LINE
  5
269
100
AcDbEntity
  8
Layer0
100
AcDbLine
 10
290.112594
 20
-124.535457
 30
0.0
 11
299.043927
 21
-119.286065
 31
0.0
  0
LINE
  5
26A
100
AcDbEntity
  8
Layer0
100
AcDbLine
 10
290.112594
 20
-117.4691
 30
0.0
 11
290.112594
 21
-124.535457
 31
0.0
  0
LINE
  5
26B
100
AcDbEntity
  8
Layer0
100
AcDbLine
 10
287.012592
 20
-117.4691
 30
0.0
 11
290.112594
 21
-117.4691
 31
0.0
  0
LINE
  5
26C
100
AcDbEntity
  8
Layer0
100
AcDbLine
 10
287.012592
 20
-126.370989
 30
0.0
 11
287.012592
 21
-117.4691
 31
0.0
  0
LINE
  5
26D
100
AcDbEntity
  8
Layer0
100
AcDbLine
 10
278.671849
 20
-131.309552
 30
0.0
 11
287.012592
 21
-126.370989
 31
0.0
  0
LINE
  5
26E
100
AcDbEntity
  8
Layer0
100
AcDbLine
 10
278.671849
 20
-124.710653
 30
0.0
 11
278.671849
 21
-131.309552
 31
0.0
  0
LINE
  5
26F
100
AcDbEntity
  8
Layer0
100
AcDbLine
 10
275.571847
 20
-124.710653
 30
0.0
 11
278.671849
 21
-124.710653
 31
0.0
  0
LINE
  5
270
100
AcDbEntity
  8
Layer0
100
AcDbLine
 10
275.571847
 20
-133.145083
 30
0.0
 11
275.571847
 21
-124.710653
 31
0.0
  0
LINE
  5
271
100
AcDbEntity
  8
Layer0
100
AcDbLine
 10
266.52587
 20
-131.155199
 30
0.0
 11
266.52587
 21
-138.501272
 31
0.0
  0
LINE
  5
272
100
AcDbEntity
  8
Layer0
100
AcDbLine
 10
263.425862
 20
-131.155199
 30
0.0
 11
266.52587
 21
-131.155199
 31
0.0
  0
LINE
  5
273
100
AcDbEntity
  8
Layer0
100
AcDbLine
 10
263.425862
 20
-140.336753
 30
0.0
 11
263.425862
 21
-131.155199
 31
0.0
  0
LINE
  5
274
100
AcDbEntity
  8
Layer0
100
AcDbLine
 10
257.867247
 20
-143.628083
 30
0.0
 11
263.425862
 21
-140.336753
 31
0.0
  0
LINE
  5
275
100
AcDbEntity
  8
Layer0
100
AcDbLine
 10
255.261446
 20
-150.242766
 30
0.0
 11
257.867247
 21
-143.628083
 31
0.0
  0
LINE
  5
276
100
AcDbEntity
  8
Layer0
100
AcDbLine
 10
254.958307
 20
-150.711084
 30
0.0
 11
255.261446
 21
-150.242766
 31
0.0
  0
LINE
  5
277
100
AcDbEntity
  8
Layer0
100
AcDbLine
 10
254.497211
 20
-151.02505
 30
0.0
 11
254.958307
 21
-150.711084
 31
0.0
  0
LINE
  5
278
100
AcDbEntity
  8
Layer0
100
AcDbLine
 10
253.950414
 20
-151.135439
 30
0.0
 11
254.497211
 21
-151.02505
 31
0.0
  0
LINE
  5
279
100
AcDbEntity
  8
Layer0
100
AcDbLine
 10
251.813109
 20
-151.135439
 30
0.0
 11
253.950414
 21
-151.135439
 31
0.0
  0
LINE
  5
27A
100
AcDbEntity
  8
Layer0
100
AcDbLine
 10
250.734641
 20
-150.920934
 30
0.0
 11
251.813109
 21
-151.135439
 31
0.0
  0
LINE
  5
27B
100
AcDbEntity
  8
Layer0
100
AcDbLine
 10
249.820354
 20
-150.310001
 30
0.0
 11
250.734641
 21
-150.920934
 31
0.0
  0
LINE
  5
27C
100
AcDbEntity
  8
Layer0
100
AcDbLine
 10
249.209446
 20
-149.395726
 30
0.0
 11
249.820354
 21
-150.310001
 31
0.0
  0
LINE
  5
27D
100
AcDbEntity
  8
Layer0
100
AcDbLine
 10
248.994928
 20
-148.317234
 30
0.0
 11
249.209446
 21
-149.395726
 31
0.0
  0
LINE
  5
27E
100
AcDbEntity
  8
Layer0
100
AcDbLine
 10
248.994928
 20
-143.628083
 30
0.0
 11
248.994928
 21
-148.317234
 31
0.0
  0
LINE
  5
27F
100
AcDbEntity
  8
Layer0
100
AcDbLine
 10
244.445016
 20
-143.628083
 30
0.0
 11
248.994928
 21
-143.628083
 31
0.0
  0
LINE
  5
280
100
AcDbEntity
  8
Layer0
100
AcDbLine
 10
244.445016
 20
-149.726336
 30
0.0
 11
244.445016
 21
-143.628083
 31
0.0
  0
LINE
  5
281
100
AcDbEntity
  8
Layer0
100
AcDbLine
 10
244.256237
 20
-150.430862
 30
0.0
 11
244.445016
 21
-149.726336
 31
0.0
  0
LINE
  5
282
100
AcDbEntity
  8
Layer0
100
AcDbLine
 10
243.740471
 20
-150.946635
 30
0.0
 11
244.256237
 21
-150.430862
 31
0.0
  0
LINE
  5
283
100
AcDbEntity
  8
Layer0
100
AcDbLine
 10
243.035926
 20
-151.135439
 30
0.0
 11
243.740471
 21
-150.946635
 31
0.0
  0
LINE
  5
284
100
AcDbEntity
  8
Layer0
100
AcDbLine
 10
240.228335
 20
-151.079385
 30
0.0
 11
243.035926
 21
-151.135439
 31
0.0
  0
LINE
  5
285
100
AcDbEntity
  8
Layer0
100
AcDbLine
 10
238.21266
 20
-189.630776
 30
0.0
 11
232.667468
 21
-193.9301
 31
0.0
  0
LINE
  5
286
100
AcDbEntity
  8
Layer0
100
AcDbLine
 10
244.281753
 20
-196.139295
 30
0.0
 11
238.21266
 21
-189.630776
 31
0.0
  0
LINE
  5
287
100
AcDbEntity
  8
Layer0
100
AcDbLine
 10
246.54899
 20
-194.025125
 30
0.0
 11
244.281753
 21
-196.139295
 31
0.0
  0
LINE
  5
288
100
AcDbEntity
  8
Layer0
100
AcDbLine
 10
240.672724
 20
-187.723389
 30
0.0
 11
246.54899
 21
-194.025125
 31
0.0
  0
LINE
  5
289
100
AcDbEntity
  8
Layer0
100
AcDbLine
 10
245.269406
 20
-184.159513
 30
0.0
 11
240.672724
 21
-187.723389
 31
0.0
  0
LINE
  5
28A
100
AcDbEntity
  8
Layer0
100
AcDbLine
 10
251.309248
 20
-187.925664
 30
0.0
 11
245.269406
 21
-184.159513
 31
0.0
  0
LINE
  5
28B
100
AcDbEntity
  8
Layer0
100
AcDbLine
 10
255.143402
 20
-171.779265
 30
0.0
 11
253.961063
 21
-177.561225
 31
0.0
  0
LINE
  5
28C
100
AcDbEntity
  8
Layer0
100
AcDbLine
 10
255.143402
 20
-171.779265
 30
0.0
 11
253.159139
 21
-167.636544
 31
0.0
  0
LINE
  5
28D
100
AcDbEntity
  8
Layer0
100
AcDbLine
 10
253.159139
 20
-167.636544
 30
0.0
 11
253.109459
 21
-163.240567
 31
0.0
  0
LINE
  5
28E
100
AcDbEntity
  8
Layer0
100
AcDbLine
 10
253.109459
 20
-163.240567
 30
0.0
 11
255.725549
 21
-161.512743
 31
0.0
  0
LINE
  5
28F
100
AcDbEntity
  8
Layer0
100
AcDbLine
 10
268.528277
 20
-180.897378
 30
0.0
 11
255.725549
 21
-161.512743
 31
0.0
  0
LINE
  5
290
100
AcDbEntity
  8
Layer0
100
AcDbLine
 10
271.115024
 20
-179.18893
 30
0.0
 11
268.528277
 21
-180.897378
 31
0.0
  0
LINE
  5
291
100
AcDbEntity
  8
Layer0
100
AcDbLine
 10
258.288948
 20
-159.768982
 30
0.0
 11
271.115024
 21
-179.18893
 31
0.0
  0
LINE
  5
292
100
AcDbEntity
  8
Layer0
100
AcDbLine
 10
263.385518
 20
-156.40293
 30
0.0
 11
258.288948
 21
-159.768982
 31
0.0
  0
LINE
  5
293
100
AcDbEntity
  8
Layer0
100
AcDbLine
 10
264.05298
 20
-156.472594
 30
0.0
 11
263.385518
 21
-156.40293
 31
0.0
  0
LINE
  5
294
100
AcDbEntity
  8
Layer0
100
AcDbLine
 10
269.429045
 20
-164.612485
 30
0.0
 11
264.05298
 21
-156.472594
 31
0.0
  0
LINE
  5
295
100
AcDbEntity
  8
Layer0
100
AcDbLine
 10
271.93348
 20
-166.098941
 30
0.0
 11
269.429045
 21
-164.612485
 31
0.0
  0
LINE
  5
296
100
AcDbEntity
  8
Layer0
100
AcDbLine
 10
100.117396
 20
-213.959727
 30
0.0
 11
98.144662
 21
-211.130281
 31
0.0
  0
LINE
  5
297
100
AcDbEntity
  8
Layer0
100
AcDbLine
 10
165.868495
 20
-224.59196
 30
0.0
 11
165.659467
 21
-226.807453
 31
0.0
  0
LINE
  5
298
100
AcDbEntity
  8
Layer0
100
AcDbLine
 10
151.868037
 20
-285.047807
 30
0.0
 11
151.320916
 21
-283.048409
 31
0.0
  0
LINE
  5
299
100
AcDbEntity
  8
Layer0
100
AcDbLine
 10
235.121662
 20
-204.074519
 30
0.0
 11
236.843777
 21
-205.937327
 31
0.0
  0
LINE
  5
29A
100
AcDbEntity
  8
Layer0
100
AcDbLine
 10
240.228335
 20
-126.868953
 30
0.0
 11
242.201063
 21
-127.695251
 31
0.0
  0
LINE
  5
29B
100
AcDbEntity
  8
Layer0
100
AcDbLine
 10
253.071445
 20
-189.778723
 30
0.0
 11
251.309248
 21
-187.925664
 31
0.0
  0
LINE
  5
29C
100
AcDbEntity
  8
Layer0
100
AcDbLine
 10
253.832669
 20
-183.676693
 30
0.0
 11
253.961063
 21
-177.561225
 31
0.0
  0
LINE
  5
29D
100
AcDbEntity
  8
Layer0
100
AcDbLine
 10
304.538055
 20
-258.419163
 30
0.0
 11
306.510789
 21
-255.428975
 31
0.0
  0
LINE
  5
29E
100
AcDbEntity
  8
Layer0
100
AcDbLine
 10
119.602848
 20
-276.15146
 30
0.0
 11
118.369227
 21
-272.509265
 31
0.0
  0
LINE
  5
29F
100
AcDbEntity
  8
Layer0
100
AcDbLine
 10
117.723236
 20
-266.447371
 30
0.0
 11
118.369227
 21
-272.509265
 31
0.0
  0
LINE
  5
2A0
100
AcDbEntity
  8
Layer0
100
AcDbLine
 10
119.602848
 20
-256.743281
 30
0.0
 11
118.369227
 21
-260.385477
 31
0.0
  0
LINE
  5
2A1
100
AcDbEntity
  8
Layer0
100
AcDbLine
 10
117.723236
 20
-266.447371
 30
0.0
 11
118.369227
 21
-260.385477
 31
0.0
  0
LINE
  5
2A2
100
AcDbEntity
  8
Layer0
100
AcDbLine
 10
141.656032
 20
-264.8922
 30
0.0
 11
133.456032
 21
-264.890905
 31
0.0
  0
LINE
  5
2A3
100
AcDbEntity
  8
Layer0
100
AcDbLine
 10
141.656878
 20
-259.539482
 30
0.0
 11
141.656032
 21
-264.8922
 31
0.0
  0
LINE
  5
2A4
100
AcDbEntity
  8
Layer0
100
AcDbLine
 10
133.472636
 20
-259.538189
 30
0.0
 11
141.656878
 21
-259.539482
 31
0.0
  0
LINE
  5
2A5
100
AcDbEntity
  8
Layer0
100
AcDbLine
 10
133.473139
 20
-256.425918
 30
0.0
 11
133.472636
 21
-259.538189
 31
0.0
  0
LINE
  5
2A6
100
AcDbEntity
  8
Layer0
100
AcDbLine
 10
141.657394
 20
-256.427211
 30
0.0
 11
133.473139
 21
-256.425918
 31
0.0
  0
LINE
  5
2A7
100
AcDbEntity
  8
Layer0
100
AcDbLine
 10
141.659096
 20
-245.658922
 30
0.0
 11
141.657394
 21
-256.427211
 31
0.0
  0
LINE
  5
2A8
100
AcDbEntity
  8
Layer0
100
AcDbLine
 10
140.872904
 20
-244.423364
 30
0.0
 11
141.659096
 21
-245.658922
 31
0.0
  0
LINE
  5
2A9
100
AcDbEntity
  8
Layer0
100
AcDbLine
 10
125.078311
 20
-240.593252
 30
0.0
 11
132.765264
 21
-244.865169
 31
0.0
  0
LINE
  5
2AA
100
AcDbEntity
  8
Layer0
100
AcDbLine
 10
121.990895
 20
-241.034887
 30
0.0
 11
125.078311
 21
-240.593252
 31
0.0
  0
LINE
  5
2AB
100
AcDbEntity
  8
Layer0
100
AcDbLine
 10
120.861763
 20
-242.637417
 30
0.0
 11
121.990895
 21
-241.034887
 31
0.0
  0
LINE
  5
2AC
100
AcDbEntity
  8
Layer0
100
AcDbLine
 10
120.585283
 20
-245.735319
 30
0.0
 11
120.861763
 21
-242.637417
 31
0.0
  0
LINE
  5
2AD
100
AcDbEntity
  8
Layer0
100
AcDbLine
 10
130.334844
 20
-248.211912
 30
0.0
 11
120.585283
 21
-245.735319
 31
0.0
  0
LINE
  5
2AE
100
AcDbEntity
  8
Layer0
100
AcDbLine
 10
129.571614
 20
-251.21647
 30
0.0
 11
130.334844
 21
-248.211912
 31
0.0
  0
LINE
  5
2AF
100
AcDbEntity
  8
Layer0
100
AcDbLine
 10
120.306158
 20
-248.862851
 30
0.0
 11
129.571614
 21
-251.21647
 31
0.0
  0
LINE
  5
2B0
100
AcDbEntity
  8
Layer0
100
AcDbLine
 10
119.602848
 20
-256.743281
 30
0.0
 11
120.306158
 21
-248.862851
 31
0.0
  0
LINE
  5
2B1
100
AcDbEntity
  8
Layer0
100
AcDbLine
 10
132.886406
 20
-194.393154
 30
0.0
 11
130.944079
 21
-196.809218
 31
0.0
  0
LINE
  5
2B2
100
AcDbEntity
  8
Layer0
100
AcDbLine
 10
141.912444
 20
-202.413587
 30
0.0
 11
141.610132
 21
-202.990223
 31
0.0
  0
LINE
  5
2B3
100
AcDbEntity
  8
Layer0
100
AcDbLine
 10
141.923196
 20
-201.762654
 30
0.0
 11
141.912444
 21
-202.413587
 31
0.0
  0
LINE
  5
2B4
100
AcDbEntity
  8
Layer0
100
AcDbLine
 10
142.14125
 20
-198.208191
 30
0.0
 11
141.923196
 21
-201.762654
 31
0.0
  0
LINE
  5
2B5
100
AcDbEntity
  8
Layer0
100
AcDbLine
 10
141.957295
 20
-197.759806
 30
0.0
 11
142.14125
 21
-198.208191
 31
0.0
  0
LINE
  5
2B6
100
AcDbEntity
  8
Layer0
100
AcDbLine
 10
141.632257
 20
-197.400293
 30
0.0
 11
141.957295
 21
-197.759806
 31
0.0
  0
LINE
  5
2B7
100
AcDbEntity
  8
Layer0
100
AcDbLine
 10
137.971305
 20
-193.117409
 30
0.0
 11
141.632257
 21
-197.400293
 31
0.0
  0
LINE
  5
2B8
100
AcDbEntity
  8
Layer0
100
AcDbLine
 10
139.166963
 20
-183.206495
 30
0.0
 11
137.971305
 21
-193.117409
 31
0.0
  0
LINE
  5
2B9
100
AcDbEntity
  8
Layer0
100
AcDbLine
 10
146.400273
 20
-176.849824
 30
0.0
 11
139.166963
 21
-183.206495
 31
0.0
  0
LINE
  5
2BA
100
AcDbEntity
  8
Layer0
100
AcDbLine
 10
141.215968
 20
-171.707159
 30
0.0
 11
138.663213
 21
-173.465964
 31
0.0
  0
LINE
  5
2BB
100
AcDbEntity
  8
Layer0
100
AcDbLine
 10
143.722117
 20
-165.741095
 30
0.0
 11
146.400273
 21
-171.707159
 31
0.0
  0
LINE
  5
2BC
100
AcDbEntity
  8
Layer0
100
AcDbLine
 10
138.737136
 20
-165.18036
 30
0.0
 11
143.722117
 21
-165.741095
 31
0.0
  0
LINE
  5
2BD
100
AcDbEntity
  8
Layer0
100
AcDbLine
 10
134.656324
 20
-168.729904
 30
0.0
 11
135.121407
 21
-168.325368
 31
0.0
  0
LINE
  5
2BE
100
AcDbEntity
  8
Layer0
100
AcDbLine
 10
132.126917
 20
-169.286348
 30
0.0
 11
134.656324
 21
-168.729904
 31
0.0
  0
LINE
  5
2BF
100
AcDbEntity
  8
Layer0
100
AcDbLine
 10
119.315645
 20
-161.276495
 30
0.0
 11
132.126917
 21
-169.286348
 31
0.0
  0
LINE
  5
2C0
100
AcDbEntity
  8
Layer0
100
AcDbLine
 10
106.700232
 20
-163.232369
 30
0.0
 11
108.4856
 21
-160.298278
 31
0.0
  0
LINE
  5
2C1
100
AcDbEntity
  8
Layer0
100
AcDbLine
 10
130.423861
 20
-185.396481
 30
0.0
 11
130.711333
 21
-184.76934
 31
0.0
  0
LINE
  5
2C2
100
AcDbEntity
  8
Layer0
100
AcDbLine
 10
127.10414
 20
-189.744663
 30
0.0
 11
130.423861
 21
-185.396481
 31
0.0
  0
LINE
  5
2C3
100
AcDbEntity
  8
Layer0
100
AcDbLine
 10
132.886406
 20
-194.393154
 30
0.0
 11
127.10414
 21
-189.744663
 31
0.0
  0
LINE
  5
2C4
100
AcDbEntity
  8
Layer0
100
AcDbLine
 10
110.31801
 20
-165.561389
 30
0.0
 11
106.700232
 21
-163.232369
 31
0.0
  0
LINE
  5
2C5
100
AcDbEntity
  8
Layer0
100
AcDbLine
 10
110.31801
 20
-165.561389
 30
0.0
 11
122.062027
 21
-171.365532
 31
0.0
  0
LINE
  5
2C6
100
AcDbEntity
  8
Layer0
100
AcDbLine
 10
122.062027
 20
-171.365532
 30
0.0
 11
129.887504
 21
-176.926278
 31
0.0
  0
LINE
  5
2C7
100
AcDbEntity
  8
Layer0
100
AcDbLine
 10
129.887504
 20
-176.926278
 30
0.0
 11
130.711333
 21
-184.76934
 31
0.0
  0
LINE
  5
2C8
100
AcDbEntity
  8
Layer0
100
AcDbLine
 10
121.077695
 20
-196.75264
 30
0.0
 11
113.022014
 21
-197.598802
 31
0.0
  0
LINE
  5
2C9
100
AcDbEntity
  8
Layer0
100
AcDbLine
 10
113.022014
 20
-197.598802
 30
0.0
 11
94.884844
 21
-177.929551
 31
0.0
  0
LINE
  5
2CA
100
AcDbEntity
  8
Layer0
100
AcDbLine
 10
197.950305
 20
-279.707587
 30
0.0
 11
195.886717
 21
-275.163259
 31
0.0
  0
LINE
  5
2CB
100
AcDbEntity
  8
Layer0
100
AcDbLine
 10
173.748922
 20
-285.308138
 30
0.0
 11
171.106538
 21
-283.331321
 31
0.0
  0
LINE
  5
2CC
100
AcDbEntity
  8
Layer0
100
AcDbLine
 10
171.106538
 20
-283.331321
 30
0.0
 11
172.005091
 21
-282.130237
 31
0.0
  0
LINE
  5
2CD
100
AcDbEntity
  8
Layer0
100
AcDbLine
 10
172.005091
 20
-282.130237
 30
0.0
 11
180.787108
 21
-279.745665
 31
0.0
  0
LINE
  5
2CE
100
AcDbEntity
  8
Layer0
100
AcDbLine
 10
180.787108
 20
-279.745665
 30
0.0
 11
185.382379
 21
-277.775009
 31
0.0
  0
LINE
  5
2CF
100
AcDbEntity
  8
Layer0
100
AcDbLine
 10
185.382379
 20
-277.775009
 30
0.0
 11
187.282379
 21
-277.775009
 31
0.0
  0
LINE
  5
2D0
100
AcDbEntity
  8
Layer0
100
AcDbLine
 10
187.282379
 20
-277.775009
 30
0.0
 11
187.282379
 21
-279.745665
 31
0.0
  0
LINE
  5
2D1
100
AcDbEntity
  8
Layer0
100
AcDbLine
 10
187.282379
 20
-279.745665
 30
0.0
 11
181.859784
 21
-284.482274
 31
0.0
  0
LINE
  5
2D2
100
AcDbEntity
  8
Layer0
100
AcDbLine
 10
181.859784
 20
-284.482274
 30
0.0
 11
178.748922
 21
-285.308138
 31
0.0
  0
LINE
  5
2D3
100
AcDbEntity
  8
Layer0
100
AcDbLine
 10
177.848922
 20
-285.308138
 30
0.0
 11
173.748922
 21
-285.308138
 31
0.0
  0
LINE
  5
2D4
100
AcDbEntity
  8
Layer0
100
AcDbLine
 10
177.848922
 20
-285.308138
 30
0.0
 11
177.848922
 21
-288.124872
 31
0.0
  0
LINE
  5
2D5
100
AcDbEntity
  8
Layer0
100
AcDbLine
 10
178.748922
 20
-288.124872
 30
0.0
 11
183.980337
 21
-288.124872
 31
0.0
  0
LINE
  5
2D6
100
AcDbEntity
  8
Layer0
100
AcDbLine
 10
178.748922
 20
-285.308138
 30
0.0
 11
178.748922
 21
-288.124872
 31
0.0
  0
LINE
  5
2D7
100
AcDbEntity
  8
Layer0
100
AcDbLine
 10
138.894641
 20
-139.937386
 30
0.0
 11
134.159468
 21
-135.251542
 31
0.0
  0
LINE
  5
2D8
100
AcDbEntity
  8
Layer0
100
AcDbLine
 10
131.168276
 20
-136.652826
 30
0.0
 11
123.413419
 21
-140.285745
 31
0.0
  0
LINE
  5
2D9
100
AcDbEntity
  8
Layer0
100
AcDbLine
 10
136.714103
 20
-142.140879
 30
0.0
 11
131.168276
 21
-136.652826
 31
0.0
  0
LINE
  5
2DA
100
AcDbEntity
  8
Layer0
100
AcDbLine
 10
111.746772
 20
-206.947373
 30
0.0
 11
106.0294
 21
-204.618872
 31
0.0
  0
LINE
  5
2DB
100
AcDbEntity
  8
Layer0
100
AcDbLine
 10
104.471374
 20
-207.331564
 30
0.0
 11
103.670549
 21
-208.799752
 31
0.0
  0
LINE
  5
2DC
100
AcDbEntity
  8
Layer0
100
AcDbLine
 10
110.577508
 20
-209.818396
 30
0.0
 11
104.471374
 21
-207.331564
 31
0.0
  0
LINE
  5
2DD
100
AcDbEntity
  8
Layer0
100
AcDbLine
 10
106.0294
 20
-204.618872
 30
0.0
 11
105.965262
 21
-204.59275
 31
0.0
  0
LINE
  5
2DE
100
AcDbEntity
  8
Layer0
100
AcDbLine
 10
116.726542
 20
-213.753873
 30
0.0
 11
121.368061
 21
-205.346583
 31
0.0
  0
LINE
  5
2DF
100
AcDbEntity
  8
Layer0
100
AcDbLine
 10
111.746772
 20
-214.893172
 30
0.0
 11
116.726542
 21
-213.753873
 31
0.0
  0
LINE
  5
2E0
100
AcDbEntity
  8
Layer0
100
AcDbLine
 10
138.663213
 20
-173.465964
 30
0.0
 11
135.121407
 21
-168.325368
 31
0.0
  0
LINE
  5
2E1
100
AcDbEntity
  8
Layer0
100
AcDbLine
 10
137.475295
 20
-166.277927
 30
0.0
 11
138.737136
 21
-165.18036
 31
0.0
  0
LINE
  5
2E2
100
AcDbEntity
  8
Layer0
100
AcDbLine
 10
141.215968
 20
-171.707159
 30
0.0
 11
137.475295
 21
-166.277927
 31
0.0
  0
LINE
  5
2E3
100
AcDbEntity
  8
Layer0
100
AcDbLine
 10
146.400273
 20
-171.707159
 30
0.0
 11
146.400273
 21
-176.849824
 31
0.0
  0
LINE
  5
2E4
100
AcDbEntity
  8
Layer0
100
AcDbLine
 10
181.712144
 20
-159.56287
 30
0.0
 11
170.361738
 21
-160.83115
 31
0.0
  0
LINE
  5
2E5
100
AcDbEntity
  8
Layer0
100
AcDbLine
 10
184.193319
 20
-219.837284
 30
0.0
 11
184.866858
 21
-220.376718
 31
0.0
  0
LINE
  5
2E6
100
AcDbEntity
  8
Layer0
100
AcDbLine
 10
182.685418
 20
-223.72683
 30
0.0
 11
184.193319
 21
-219.837284
 31
0.0
  0
LINE
  5
2E7
100
AcDbEntity
  8
Layer0
100
AcDbLine
 10
180.89351
 20
-219.052278
 30
0.0
 11
182.685418
 21
-223.72683
 31
0.0
  0
LINE
  5
2E8
100
AcDbEntity
  8
Layer0
100
AcDbLine
 10
179.569059
 20
-224.505884
 30
0.0
 11
180.89351
 21
-219.052278
 31
0.0
  0
LINE
  5
2E9
100
AcDbEntity
  8
Layer0
100
AcDbLine
 10
178.08879
 20
-220.922081
 30
0.0
 11
179.569059
 21
-224.505884
 31
0.0
  0
LINE
  5
2EA
100
AcDbEntity
  8
Layer0
100
AcDbLine
 10
178.08879
 20
-217.41619
 30
0.0
 11
178.08879
 21
-220.922081
 31
0.0
  0
LINE
  5
2EB
100
AcDbEntity
  8
Layer0
100
AcDbLine
 10
176.374795
 20
-218.939442
 30
0.0
 11
178.08879
 21
-217.41619
 31
0.0
  0
LINE
  5
2EC
100
AcDbEntity
  8
Layer0
100
AcDbLine
 10
174.582882
 20
-223.72683
 30
0.0
 11
176.374795
 21
-218.939442
 31
0.0
  0
LINE
  5
2ED
100
AcDbEntity
  8
Layer0
100
AcDbLine
 10
173.570068
 20
-220.376718
 30
0.0
 11
174.582882
 21
-223.72683
 31
0.0
  0
LINE
  5
2EE
100
AcDbEntity
  8
Layer0
100
AcDbLine
 10
173.257255
 20
-216.325464
 30
0.0
 11
173.570068
 21
-220.376718
 31
0.0
  0
LINE
  5
2EF
100
AcDbEntity
  8
Layer0
100
AcDbLine
 10
171.968895
 20
-221.219165
 30
0.0
 11
173.257255
 21
-216.325464
 31
0.0
  0
LINE
  5
2F0
100
AcDbEntity
  8
Layer0
100
AcDbLine
 10
168.895539
 20
-214.611441
 30
0.0
 11
171.968895
 21
-221.219165
 31
0.0
  0
LINE
  5
2F1
100
AcDbEntity
  8
Layer0
100
AcDbLine
 10
170.142078
 20
-206.197284
 30
0.0
 11
168.272264
 21
-210.248583
 31
0.0
  0
LINE
  5
2F2
100
AcDbEntity
  8
Layer0
100
AcDbLine
 10
174.504981
 20
-203.236756
 30
0.0
 11
170.142078
 21
-206.197284
 31
0.0
  0
LINE
  5
2F3
100
AcDbEntity
  8
Layer0
100
AcDbLine
 10
176.706209
 20
-202.71443
 30
0.0
 11
174.504981
 21
-203.236756
 31
0.0
  0
LINE
  5
2F4
100
AcDbEntity
  8
Layer0
100
AcDbLine
 10
177.015493
 20
-204.570327
 30
0.0
 11
176.706209
 21
-202.71443
 31
0.0
  0
LINE
  5
2F5
100
AcDbEntity
  8
Layer0
100
AcDbLine
 10
172.478087
 20
-206.864001
 30
0.0
 11
177.015493
 21
-204.570327
 31
0.0
  0
LINE
  5
2F6
100
AcDbEntity
  8
Layer0
100
AcDbLine
 10
170.433752
 20
-209.057916
 30
0.0
 11
172.478087
 21
-206.864001
 31
0.0
  0
LINE
  5
2F7
100
AcDbEntity
  8
Layer0
100
AcDbLine
 10
171.667553
 20
-210.207584
 30
0.0
 11
170.433752
 21
-209.057916
 31
0.0
  0
LINE
  5
2F8
100
AcDbEntity
  8
Layer0
100
AcDbLine
 10
173.525177
 20
-210.207584
 30
0.0
 11
171.667553
 21
-210.207584
 31
0.0
  0
LINE
  5
2F9
100
AcDbEntity
  8
Layer0
100
AcDbLine
 10
179.209409
 20
-206.066251
 30
0.0
 11
173.525177
 21
-210.207584
 31
0.0
  0
LINE
  5
2FA
100
AcDbEntity
  8
Layer0
100
AcDbLine
 10
180.007199
 20
-205.168742
 30
0.0
 11
179.209409
 21
-206.066251
 31
0.0
  0
LINE
  5
2FB
100
AcDbEntity
  8
Layer0
100
AcDbLine
 10
180.007199
 20
-204.071761
 30
0.0
 11
180.007199
 21
-205.168742
 31
0.0
  0
LINE
  5
2FC
100
AcDbEntity
  8
Layer0
100
AcDbLine
 10
177.81666
 20
-204.436813
 30
0.0
 11
180.007199
 21
-204.071761
 31
0.0
  0
LINE
  5
2FD
100
AcDbEntity
  8
Layer0
100
AcDbLine
 10
177.81666
 20
-204.436813
 30
0.0
 11
177.498304
 21
-202.526475
 31
0.0
  0
LINE
  5
2FE
100
AcDbEntity
  8
Layer0
100
AcDbLine
 10
179.101603
 20
-202.14603
 30
0.0
 11
177.498304
 21
-202.526475
 31
0.0
  0
LINE
  5
2FF
100
AcDbEntity
  8
Layer0
100
AcDbLine
 10
179.646966
 20
-201.289018
 30
0.0
 11
179.101603
 21
-202.14603
 31
0.0
  0
LINE
  5
300
100
AcDbEntity
  8
Layer0
100
AcDbLine
 10
184.207708
 20
-201.289018
 30
0.0
 11
179.646966
 21
-201.289018
 31
0.0
  0
LINE
  5
301
100
AcDbEntity
  8
Layer0
100
AcDbLine
 10
187.671584
 20
-199.65293
 30
0.0
 11
184.207708
 21
-201.289018
 31
0.0
  0
LINE
  5
302
100
AcDbEntity
  8
Layer0
100
AcDbLine
 10
190.164667
 20
-200.354117
 30
0.0
 11
187.671584
 21
-199.65293
 31
0.0
  0
LINE
  5
303
100
AcDbEntity
  8
Layer0
100
AcDbLine
 10
192.657756
 20
-198.250601
 30
0.0
 11
190.164667
 21
-200.354117
 31
0.0
  0
LINE
  5
304
100
AcDbEntity
  8
Layer0
100
AcDbLine
 10
198.812561
 20
-198.250601
 30
0.0
 11
192.657756
 21
-198.250601
 31
0.0
  0
LINE
  5
305
100
AcDbEntity
  8
Layer0
100
AcDbLine
 10
202.393714
 20
-196.983801
 30
0.0
 11
198.812561
 21
-198.250601
 31
0.0
  0
LINE
  5
306
100
AcDbEntity
  8
Layer0
100
AcDbLine
 10
202.393714
 20
-199.763329
 30
0.0
 11
202.393714
 21
-196.983801
 31
0.0
  0
LINE
  5
307
100
AcDbEntity
  8
Layer0
100
AcDbLine
 10
193.672824
 20
-202.584786
 30
0.0
 11
202.393714
 21
-199.763329
 31
0.0
  0
LINE
  5
308
100
AcDbEntity
  8
Layer0
100
AcDbLine
 10
192.516028
 20
-205.416929
 30
0.0
 11
193.672824
 21
-202.584786
 31
0.0
  0
LINE
  5
309
100
AcDbEntity
  8
Layer0
100
AcDbLine
 10
192.516028
 20
-207.850174
 30
0.0
 11
192.516028
 21
-205.416929
 31
0.0
  0
LINE
  5
30A
100
AcDbEntity
  8
Layer0
100
AcDbLine
 10
192.994704
 20
-209.365959
 30
0.0
 11
192.516028
 21
-207.850174
 31
0.0
  0
LINE
  5
30B
100
AcDbEntity
  8
Layer0
100
AcDbLine
 10
195.707183
 20
-210.602556
 30
0.0
 11
192.994704
 21
-209.365959
 31
0.0
  0
LINE
  5
30C
100
AcDbEntity
  8
Layer0
100
AcDbLine
 10
200.095014
 20
-209.804714
 30
0.0
 11
195.707183
 21
-210.602556
 31
0.0
  0
LINE
  5
30D
100
AcDbEntity
  8
Layer0
100
AcDbLine
 10
202.807486
 20
-207.850174
 30
0.0
 11
200.095014
 21
-209.804714
 31
0.0
  0
LINE
  5
30E
100
AcDbEntity
  8
Layer0
100
AcDbLine
 10
202.807486
 20
-204.818605
 30
0.0
 11
202.807486
 21
-207.850174
 31
0.0
  0
LINE
  5
30F
100
AcDbEntity
  8
Layer0
100
AcDbLine
 10
202.209151
 20
-203.821337
 30
0.0
 11
202.807486
 21
-204.818605
 31
0.0
  0
LINE
  5
310
100
AcDbEntity
  8
Layer0
100
AcDbLine
 10
203.166492
 20
-201.627422
 30
0.0
 11
202.209151
 21
-203.821337
 31
0.0
  0
LINE
  5
311
100
AcDbEntity
  8
Layer0
100
AcDbLine
 10
203.166492
 20
-196.710438
 30
0.0
 11
203.166492
 21
-201.627422
 31
0.0
  0
LINE
  5
312
100
AcDbEntity
  8
Layer0
100
AcDbLine
 10
212.524527
 20
-192.01785
 30
0.0
 11
210.265169
 21
-194.199347
 31
0.0
  0
LINE
  5
313
100
AcDbEntity
  8
Layer0
100
AcDbLine
 10
221.561964
 20
-194.199347
 30
0.0
 11
212.524527
 21
-192.01785
 31
0.0
  0
LINE
  5
314
100
AcDbEntity
  8
Layer0
100
AcDbLine
 10
229.119129
 20
-198.951743
 30
0.0
 11
221.561964
 21
-194.199347
 31
0.0
  0
LINE
  5
315
100
AcDbEntity
  8
Layer0
100
AcDbLine
 10
231.84594
 20
-204.327482
 30
0.0
 11
229.119129
 21
-198.951743
 31
0.0
  0
LINE
  5
316
100
AcDbEntity
  8
Layer0
100
AcDbLine
 10
227.249315
 20
-208.768274
 30
0.0
 11
231.84594
 21
-204.327482
 31
0.0
  0
LINE
  5
317
100
AcDbEntity
  8
Layer0
100
AcDbLine
 10
225.223682
 20
-207.599659
 30
0.0
 11
227.249315
 21
-208.768274
 31
0.0
  0
LINE
  5
318
100
AcDbEntity
  8
Layer0
100
AcDbLine
 10
223.19805
 20
-215.935926
 30
0.0
 11
225.223682
 21
-207.599659
 31
0.0
  0
LINE
  5
319
100
AcDbEntity
  8
Layer0
100
AcDbLine
 10
220.144622
 20
-215.984228
 30
0.0
 11
223.19805
 21
-215.935926
 31
0.0
  0
LINE
  5
31A
100
AcDbEntity
  8
Layer0
100
AcDbLine
 10
216.646814
 20
-207.649107
 30
0.0
 11
220.144622
 21
-215.984228
 31
0.0
  0
LINE
  5
31B
100
AcDbEntity
  8
Layer0
100
AcDbLine
 10
213.805364
 20
-208.841506
 30
0.0
 11
216.646814
 21
-207.649107
 31
0.0
  0
LINE
  5
31C
100
AcDbEntity
  8
Layer0
100
AcDbLine
 10
217.051872
 20
-216.577787
 30
0.0
 11
213.805364
 21
-208.841506
 31
0.0
  0
LINE
  5
31D
100
AcDbEntity
  8
Layer0
100
AcDbLine
 10
215.485066
 20
-217.41619
 30
0.0
 11
217.051872
 21
-216.577787
 31
0.0
  0
LINE
  5
31E
100
AcDbEntity
  8
Layer0
100
AcDbLine
 10
203.642914
 20
-218.351091
 30
0.0
 11
206.68136
 21
-217.41619
 31
0.0
  0
LINE
  5
31F
100
AcDbEntity
  8
Layer0
100
AcDbLine
 10
201.539375
 20
-215.390563
 30
0.0
 11
203.642914
 21
-218.351091
 31
0.0
  0
LINE
  5
320
100
AcDbEntity
  8
Layer0
100
AcDbLine
 10
195.384565
 20
-215.935926
 30
0.0
 11
201.539375
 21
-215.390563
 31
0.0
  0
LINE
  5
321
100
AcDbEntity
  8
Layer0
100
AcDbLine
 10
192.579844
 20
-217.41619
 30
0.0
 11
195.384565
 21
-215.935926
 31
0.0
  0
LINE
  5
322
100
AcDbEntity
  8
Layer0
100
AcDbLine
 10
192.579844
 20
-220.922081
 30
0.0
 11
192.579844
 21
-217.41619
 31
0.0
  0
LINE
  5
323
100
AcDbEntity
  8
Layer0
100
AcDbLine
 10
190.24258
 20
-217.41619
 30
0.0
 11
192.579844
 21
-220.922081
 31
0.0
  0
LINE
  5
324
100
AcDbEntity
  8
Layer0
100
AcDbLine
 10
187.204134
 20
-217.41619
 30
0.0
 11
190.24258
 21
-217.41619
 31
0.0
  0
LINE
  5
325
100
AcDbEntity
  8
Layer0
100
AcDbLine
 10
186.304134
 20
-223.72683
 30
0.0
 11
187.204134
 21
-217.41619
 31
0.0
  0
LINE
  5
326
100
AcDbEntity
  8
Layer0
100
AcDbLine
 10
184.866858
 20
-220.376718
 30
0.0
 11
186.304134
 21
-223.72683
 31
0.0
  0
LINE
  5
327
100
AcDbEntity
  8
Layer0
100
AcDbLine
 10
201.148922
 20
-237.724872
 30
0.0
 11
206.380337
 21
-237.724872
 31
0.0
  0
LINE
  5
328
100
AcDbEntity
  8
Layer0
100
AcDbLine
 10
201.148922
 20
-234.908138
 30
0.0
 11
201.148922
 21
-237.724872
 31
0.0
  0
LINE
  5
329
100
AcDbEntity
  8
Layer0
100
AcDbLine
 10
204.259784
 20
-234.082274
 30
0.0
 11
201.148922
 21
-234.908138
 31
0.0
  0
LINE
  5
32A
100
AcDbEntity
  8
Layer0
100
AcDbLine
 10
209.682379
 20
-229.345665
 30
0.0
 11
204.259784
 21
-234.082274
 31
0.0
  0
LINE
  5
32B
100
AcDbEntity
  8
Layer0
100
AcDbLine
 10
209.682379
 20
-227.375009
 30
0.0
 11
209.682379
 21
-229.345665
 31
0.0
  0
LINE
  5
32C
100
AcDbEntity
  8
Layer0
100
AcDbLine
 10
207.782379
 20
-227.375009
 30
0.0
 11
209.682379
 21
-227.375009
 31
0.0
  0
LINE
  5
32D
100
AcDbEntity
  8
Layer0
100
AcDbLine
 10
203.187108
 20
-229.345665
 30
0.0
 11
207.782379
 21
-227.375009
 31
0.0
  0
LINE
  5
32E
100
AcDbEntity
  8
Layer0
100
AcDbLine
 10
194.405091
 20
-231.730237
 30
0.0
 11
203.187108
 21
-229.345665
 31
0.0
  0
LINE
  5
32F
100
AcDbEntity
  8
Layer0
100
AcDbLine
 10
193.506538
 20
-232.931321
 30
0.0
 11
194.405091
 21
-231.730237
 31
0.0
  0
LINE
  5
330
100
AcDbEntity
  8
Layer0
100
AcDbLine
 10
196.148922
 20
-234.908138
 30
0.0
 11
193.506538
 21
-232.931321
 31
0.0
  0
LINE
  5
331
100
AcDbEntity
  8
Layer0
100
AcDbLine
 10
200.248922
 20
-234.908138
 30
0.0
 11
196.148922
 21
-234.908138
 31
0.0
  0
LINE
  5
332
100
AcDbEntity
  8
Layer0
100
AcDbLine
 10
200.248922
 20
-234.908138
 30
0.0
 11
200.248922
 21
-237.724872
 31
0.0
  0
LINE
  5
333
100
AcDbEntity
  8
Layer0
100
AcDbLine
 10
179.797814
 20
-238.722117
 30
0.0
 11
187.74452
 21
-237.724872
 31
0.0
  0
LINE
  5
334
100
AcDbEntity
  8
Layer0
100
AcDbLine
 10
176.058181
 20
-237.631391
 30
0.0
 11
179.797814
 21
-238.722117
 31
0.0
  0
LINE
  5
335
100
AcDbEntity
  8
Layer0
100
AcDbLine
 10
174.268037
 20
-234.647807
 30
0.0
 11
176.058181
 21
-237.631391
 31
0.0
  0
LINE
  5
336
100
AcDbEntity
  8
Layer0
100
AcDbLine
 10
174.268037
 20
-234.647807
 30
0.0
 11
173.720916
 21
-232.648409
 31
0.0
  0
LINE
  5
337
100
AcDbEntity
  8
Layer0
100
AcDbLine
 10
173.720916
 20
-228.593959
 30
0.0
 11
173.720916
 21
-232.648409
 31
0.0
  0
LINE
  5
338
100
AcDbEntity
  8
Layer0
100
AcDbLine
 10
174.889554
 20
-230.152136
 30
0.0
 11
173.720916
 21
-228.593959
 31
0.0
  0
LINE
  5
339
100
AcDbEntity
  8
Layer0
100
AcDbLine
 10
176.058181
 20
-230.575652
 30
0.0
 11
174.889554
 21
-230.152136
 31
0.0
  0
LINE
  5
33A
100
AcDbEntity
  8
Layer0
100
AcDbLine
 10
177.761064
 20
-231.546178
 30
0.0
 11
176.058181
 21
-230.575652
 31
0.0
  0
LINE
  5
33B
100
AcDbEntity
  8
Layer0
100
AcDbLine
 10
177.148912
 20
-228.593959
 30
0.0
 11
177.761064
 21
-231.546178
 31
0.0
  0
LINE
  5
33C
100
AcDbEntity
  8
Layer0
100
AcDbLine
 10
177.761064
 20
-226.802046
 30
0.0
 11
177.148912
 21
-228.593959
 31
0.0
  0
LINE
  5
33D
100
AcDbEntity
  8
Layer0
100
AcDbLine
 10
179.797814
 20
-230.152136
 30
0.0
 11
177.761064
 21
-226.802046
 31
0.0
  0
LINE
  5
33E
100
AcDbEntity
  8
Layer0
100
AcDbLine
 10
181.122265
 20
-226.802046
 30
0.0
 11
179.797814
 21
-230.152136
 31
0.0
  0
LINE
  5
33F
100
AcDbEntity
  8
Layer0
100
AcDbLine
 10
182.679265
 20
-230.152136
 30
0.0
 11
181.122265
 21
-226.802046
 31
0.0
  0
LINE
  5
340
100
AcDbEntity
  8
Layer0
100
AcDbLine
 10
183.771173
 20
-227.493959
 30
0.0
 11
182.679265
 21
-230.152136
 31
0.0
  0
LINE
  5
341
100
AcDbEntity
  8
Layer0
100
AcDbLine
 10
185.826105
 20
-230.152136
 30
0.0
 11
183.771173
 21
-227.493959
 31
0.0
  0
LINE
  5
342
100
AcDbEntity
  8
Layer0
100
AcDbLine
 10
186.126105
 20
-226.802046
 30
0.0
 11
185.826105
 21
-230.152136
 31
0.0
  0
LINE
  5
343
100
AcDbEntity
  8
Layer0
100
AcDbLine
 10
187.74452
 20
-229.275652
 30
0.0
 11
186.126105
 21
-226.802046
 31
0.0
  0
LINE
  5
344
100
AcDbEntity
  8
Layer0
100
AcDbLine
 10
188.991064
 20
-225.243893
 30
0.0
 11
187.74452
 21
-229.275652
 31
0.0
  0
LINE
  5
345
100
AcDbEntity
  8
Layer0
100
AcDbLine
 10
190.393428
 20
-227.81486
 30
0.0
 11
188.991064
 21
-225.243893
 31
0.0
  0
LINE
  5
346
100
AcDbEntity
  8
Layer0
100
AcDbLine
 10
197.428568
 20
-223.977505
 30
0.0
 11
190.393428
 21
-227.81486
 31
0.0
  0
LINE
  5
347
100
AcDbEntity
  8
Layer0
100
AcDbLine
 10
201.768129
 20
-223.374045
 30
0.0
 11
197.428568
 21
-223.977505
 31
0.0
  0
LINE
  5
348
100
AcDbEntity
  8
Layer0
100
AcDbLine
 10
205.944047
 20
-221.145887
 30
0.0
 11
201.768129
 21
-223.374045
 31
0.0
  0
LINE
  5
349
100
AcDbEntity
  8
Layer0
100
AcDbLine
 10
225.390113
 20
-219.961658
 30
0.0
 11
218.160163
 21
-219.026711
 31
0.0
  0
LINE
  5
34A
100
AcDbEntity
  8
Layer0
100
AcDbLine
 10
225.711921
 20
-217.472986
 30
0.0
 11
225.390113
 21
-219.961658
 31
0.0
  0
LINE
  5
34B
100
AcDbEntity
  8
Layer0
100
AcDbLine
 10
228.070181
 20
-218.403459
 30
0.0
 11
225.711921
 21
-217.472986
 31
0.0
  0
LINE
  5
34C
100
AcDbEntity
  8
Layer0
100
AcDbLine
 10
229.379049
 20
-223.374045
 30
0.0
 11
228.070181
 21
-218.403459
 31
0.0
  0
LINE
  5
34D
100
AcDbEntity
  8
Layer0
100
AcDbLine
 10
223.245764
 20
-228.231015
 30
0.0
 11
229.379049
 21
-223.374045
 31
0.0
  0
LINE
  5
34E
100
AcDbEntity
  8
Layer0
100
AcDbLine
 10
221.092487
 20
-223.489141
 30
0.0
 11
223.245764
 21
-228.231015
 31
0.0
  0
LINE
  5
34F
100
AcDbEntity
  8
Layer0
100
AcDbLine
 10
218.286717
 20
-224.763259
 30
0.0
 11
221.092487
 21
-223.489141
 31
0.0
  0
LINE
  5
350
100
AcDbEntity
  8
Layer0
100
AcDbLine
 10
220.350305
 20
-229.307587
 30
0.0
 11
218.286717
 21
-224.763259
 31
0.0
  0
LINE
  5
351
100
AcDbEntity
  8
Layer0
100
AcDbLine
 10
218.160163
 20
-229.809349
 30
0.0
 11
220.350305
 21
-229.307587
 31
0.0
  0
LINE
  5
352
100
AcDbEntity
  8
Layer0
100
AcDbLine
 10
206.380337
 20
-237.724872
 30
0.0
 11
218.160163
 21
-229.809349
 31
0.0
  0
LINE
  5
353
100
AcDbEntity
  8
Layer0
100
AcDbLine
 10
185.575214
 20
-127.75675
 30
0.0
 11
175.330519
 21
-138.286867
 31
0.0
  0
LINE
  5
354
100
AcDbEntity
  8
Layer0
100
AcDbLine
 10
193.336662
 20
-130.840162
 30
0.0
 11
185.575214
 21
-127.75675
 31
0.0
  0
LINE
  5
355
100
AcDbEntity
  8
Layer0
100
AcDbLine
 10
199.120396
 20
-129.342898
 30
0.0
 11
193.336662
 21
-130.840162
 31
0.0
  0
LINE
  5
356
100
AcDbEntity
  8
Layer0
100
AcDbLine
 10
204.568371
 20
-119.112443
 30
0.0
 11
199.120396
 21
-129.342898
 31
0.0
  0
LINE
  5
357
100
AcDbEntity
  8
Layer0
100
AcDbLine
 10
207.909205
 20
-116.458986
 30
0.0
 11
204.568371
 21
-119.112443
 31
0.0
  0
LINE
  5
358
100
AcDbEntity
  8
Layer0
100
AcDbLine
 10
211.507364
 20
-118.913483
 30
0.0
 11
207.909205
 21
-116.458986
 31
0.0
  0
LINE
  5
359
100
AcDbEntity
  8
Layer0
100
AcDbLine
 10
215.438486
 20
-119.384039
 30
0.0
 11
211.507364
 21
-118.913483
 31
0.0
  0
LINE
  5
35A
100
AcDbEntity
  8
Layer0
100
AcDbLine
 10
218.456351
 20
-121.442687
 30
0.0
 11
215.438486
 21
-119.384039
 31
0.0
  0
LINE
  5
35B
100
AcDbEntity
  8
Layer0
100
AcDbLine
 10
200.184845
 20
-135.511675
 30
0.0
 11
213.468107
 21
-128.755178
 31
0.0
  0
LINE
  5
35C
100
AcDbEntity
  8
Layer0
100
AcDbLine
 10
193.2132
 20
-140.484811
 30
0.0
 11
200.184845
 21
-135.511675
 31
0.0
  0
LINE
  5
35D
100
AcDbEntity
  8
Layer0
100
AcDbLine
 10
186.767784
 20
-136.088047
 30
0.0
 11
193.2132
 21
-140.484811
 31
0.0
  0
LINE
  5
35E
100
AcDbEntity
  8
Layer0
100
AcDbLine
 10
186.767784
 20
-136.088047
 30
0.0
 11
185.020842
 21
-138.648969
 31
0.0
  0
LINE
  5
35F
100
AcDbEntity
  8
Layer0
100
AcDbLine
 10
185.020842
 20
-138.648969
 30
0.0
 11
190.524107
 21
-142.403042
 31
0.0
  0
LINE
  5
360
100
AcDbEntity
  8
Layer0
100
AcDbLine
 10
183.024059
 20
-147.753108
 30
0.0
 11
190.524107
 21
-142.403042
 31
0.0
  0
LINE
  5
361
100
AcDbEntity
  8
Layer0
100
AcDbLine
 10
179.292522
 20
-146.840406
 30
0.0
 11
183.024059
 21
-147.753108
 31
0.0
  0
LINE
  5
362
100
AcDbEntity
  8
Layer0
100
AcDbLine
 10
175.805034
 20
-149.359803
 30
0.0
 11
179.292522
 21
-146.840406
 31
0.0
  0
LINE
  5
363
100
AcDbEntity
  8
Layer0
100
AcDbLine
 10
168.397158
 20
-147.137943
 30
0.0
 11
175.805034
 21
-149.359803
 31
0.0
  0
LINE
  5
364
100
AcDbEntity
  8
Layer0
100
AcDbLine
 10
163.806912
 20
-140.785591
 30
0.0
 11
168.397158
 21
-147.137943
 31
0.0
  0
LINE
  5
365
100
AcDbEntity
  8
Layer0
100
AcDbLine
 10
159.575766
 20
-127.001023
 30
0.0
 11
161.740947
 21
-131.821221
 31
0.0
  0
LINE
  5
366
100
AcDbEntity
  8
Layer0
100
AcDbLine
 10
160.142827
 20
-124.709635
 30
0.0
 11
159.575766
 21
-127.001023
 31
0.0
  0
LINE
  5
367
100
AcDbEntity
  8
Layer0
100
AcDbLine
 10
150.298978
 20
-123.778872
 30
0.0
 11
160.142827
 21
-124.709635
 31
0.0
  0
LINE
  5
368
100
AcDbEntity
  8
Layer0
100
AcDbLine
 10
139.363992
 20
-127.075281
 30
0.0
 11
150.298978
 21
-123.778872
 31
0.0
  0
LINE
  5
369
100
AcDbEntity
  8
Layer0
100
AcDbLine
 10
124.640502
 20
-124.981524
 30
0.0
 11
133.806543
 21
-125.407967
 31
0.0
  0
LINE
  5
36A
100
AcDbEntity
  8
Layer0
100
AcDbLine
 10
113.997601
 20
-122.286377
 30
0.0
 11
124.640502
 21
-124.981524
 31
0.0
  0
LINE
  5
36B
100
AcDbEntity
  8
Layer0
100
AcDbLine
 10
110.693647
 20
-116.150268
 30
0.0
 11
113.997601
 21
-122.286377
 31
0.0
  0
LINE
  5
36C
100
AcDbEntity
  8
Layer0
100
AcDbLine
 10
112.733976
 20
-110.455793
 30
0.0
 11
110.693647
 21
-116.150268
 31
0.0
  0
LINE
  5
36D
100
AcDbEntity
  8
Layer0
100
AcDbLine
 10
114.081438
 20
-115.092107
 30
0.0
 11
112.733976
 21
-110.455793
 31
0.0
  0
LINE
  5
36E
100
AcDbEntity
  8
Layer0
100
AcDbLine
 10
115.505035
 20
-115.602208
 30
0.0
 11
114.081438
 21
-115.092107
 31
0.0
  0
LINE
  5
36F
100
AcDbEntity
  8
Layer0
100
AcDbLine
 10
117.804163
 20
-118.449473
 30
0.0
 11
115.505035
 21
-115.602208
 31
0.0
  0
LINE
  5
370
100
AcDbEntity
  8
Layer0
100
AcDbLine
 10
124.001082
 20
-120.474623
 30
0.0
 11
117.804163
 21
-118.449473
 31
0.0
  0
LINE
  5
371
100
AcDbEntity
  8
Layer0
100
AcDbLine
 10
118.672066
 20
-113.896937
 30
0.0
 11
124.001082
 21
-120.474623
 31
0.0
  0
LINE
  5
372
100
AcDbEntity
  8
Layer0
100
AcDbLine
 10
112.916793
 20
-103.208234
 30
0.0
 11
118.672066
 21
-113.896937
 31
0.0
  0
LINE
  5
373
100
AcDbEntity
  8
Layer0
100
AcDbLine
 10
114.415769
 20
-97.677597
 30
0.0
 11
112.916793
 21
-103.208234
 31
0.0
  0
LINE
  5
374
100
AcDbEntity
  8
Layer0
100
AcDbLine
 10
119.951292
 20
-94.697025
 30
0.0
 11
114.415769
 21
-97.677597
 31
0.0
  0
LINE
  5
375
100
AcDbEntity
  8
Layer0
100
AcDbLine
 10
117.551945
 20
-98.031539
 30
0.0
 11
119.951292
 21
-94.697025
 31
0.0
  0
LINE
  5
376
100
AcDbEntity
  8
Layer0
100
AcDbLine
 10
117.568341
 20
-100.703634
 30
0.0
 11
117.551945
 21
-98.031539
 31
0.0
  0
LINE
  5
377
100
AcDbEntity
  8
Layer0
100
AcDbLine
 10
119.450458
 20
-101.557461
 30
0.0
 11
117.568341
 21
-100.703634
 31
0.0
  0
LINE
  5
378
100
AcDbEntity
  8
Layer0
100
AcDbLine
 10
118.780682
 20
-105.78412
 30
0.0
 11
119.450458
 21
-101.557461
 31
0.0
  0
LINE
  5
379
100
AcDbEntity
  8
Layer0
100
AcDbLine
 10
120.445981
 20
-106.047991
 30
0.0
 11
118.780682
 21
-105.78412
 31
0.0
  0
LINE
  5
37A
100
AcDbEntity
  8
Layer0
100
AcDbLine
 10
119.981566
 20
-108.978969
 30
0.0
 11
120.445981
 21
-106.047991
 31
0.0
  0
LINE
  5
37B
100
AcDbEntity
  8
Layer0
100
AcDbLine
 10
126.787437
 20
-117.825354
 30
0.0
 11
119.981566
 21
-108.978969
 31
0.0
  0
LINE
  5
37C
100
AcDbEntity
  8
Layer0
100
AcDbLine
 10
124.336228
 20
-106.634225
 30
0.0
 11
126.787437
 21
-117.825354
 31
0.0
  0
LINE
  5
37D
100
AcDbEntity
  8
Layer0
100
AcDbLine
 10
126.460332
 20
-100.383996
 30
0.0
 11
124.336228
 21
-106.634225
 31
0.0
  0
LINE
  5
37E
100
AcDbEntity
  8
Layer0
100
AcDbLine
 10
131.507742
 20
-97.666246
 30
0.0
 11
126.460332
 21
-100.383996
 31
0.0
  0
LINE
  5
37F
100
AcDbEntity
  8
Layer0
100
AcDbLine
 10
134.301737
 20
-98.587435
 30
0.0
 11
131.507742
 21
-97.666246
 31
0.0
  0
LINE
  5
380
100
AcDbEntity
  8
Layer0
100
AcDbLine
 10
129.762451
 20
-101.893311
 30
0.0
 11
134.301737
 21
-98.587435
 31
0.0
  0
LINE
  5
381
100
AcDbEntity
  8
Layer0
100
AcDbLine
 10
130.628404
 20
-103.50156
 30
0.0
 11
129.762451
 21
-101.893311
 31
0.0
  0
LINE
  5
382
100
AcDbEntity
  8
Layer0
100
AcDbLine
 10
129.286546
 20
-109.011441
 30
0.0
 11
130.628404
 21
-103.50156
 31
0.0
  0
LINE
  5
383
100
AcDbEntity
  8
Layer0
100
AcDbLine
 10
133.882771
 20
-117.547557
 30
0.0
 11
129.286546
 21
-109.011441
 31
0.0
  0
LINE
  5
384
100
AcDbEntity
  8
Layer0
100
AcDbLine
 10
135.98587
 20
-116.415155
 30
0.0
 11
133.882771
 21
-117.547557
 31
0.0
  0
LINE
  5
385
100
AcDbEntity
  8
Layer0
100
AcDbLine
 10
140.706676
 20
-117.831497
 30
0.0
 11
135.98587
 21
-116.415155
 31
0.0
  0
LINE
  5
386
100
AcDbEntity
  8
Layer0
100
AcDbLine
 10
142.00957
 20
-120.193183
 30
0.0
 11
140.706676
 21
-117.831497
 31
0.0
  0
LINE
  5
387
100
AcDbEntity
  8
Layer0
100
AcDbLine
 10
157.537477
 20
-115.351301
 30
0.0
 11
142.00957
 21
-120.193183
 31
0.0
  0
LINE
  5
388
100
AcDbEntity
  8
Layer0
100
AcDbLine
 10
162.508164
 20
-113.397082
 30
0.0
 11
157.537477
 21
-115.351301
 31
0.0
  0
LINE
  5
389
100
AcDbEntity
  8
Layer0
100
AcDbLine
 10
165.099596
 20
-114.038396
 30
0.0
 11
162.508164
 21
-113.397082
 31
0.0
  0
LINE
  5
38A
100
AcDbEntity
  8
Layer0
100
AcDbLine
 10
165.486045
 20
-118.910543
 30
0.0
 11
165.099596
 21
-114.038396
 31
0.0
  0
LINE
  5
38B
100
AcDbEntity
  8
Layer0
100
AcDbLine
 10
170.47464
 20
-124.487421
 30
0.0
 11
165.486045
 21
-118.910543
 31
0.0
  0
LINE
  5
38C
100
AcDbEntity
  8
Layer0
100
AcDbLine
 10
169.92012
 20
-134.91652
 30
0.0
 11
170.47464
 21
-124.487421
 31
0.0
  0
LINE
  5
38D
100
AcDbEntity
  8
Layer0
100
AcDbLine
 10
173.574421
 20
-138.281514
 30
0.0
 11
169.92012
 21
-134.91652
 31
0.0
  0
LINE
  5
38E
100
AcDbEntity
  8
Layer0
100
AcDbLine
 10
175.330519
 20
-138.286867
 30
0.0
 11
173.574421
 21
-138.281514
 31
0.0
  0
LINE
  5
38F
100
AcDbEntity
  8
Layer0
100
AcDbLine
 10
297.971445
 20
-155.878723
 30
0.0
 11
296.209248
 21
-154.025664
 31
0.0
  0
LINE
  5
390
100
AcDbEntity
  8
Layer0
100
AcDbLine
 10
273.338775
 20
-244.361529
 30
0.0
 11
277.250574
 21
-250.431552
 31
0.0
  0
LINE
  5
391
100
AcDbEntity
  8
Layer0
100
AcDbLine
 10
279.408811
 20
-233.300555
 30
0.0
 11
273.338775
 21
-244.361529
 31
0.0
  0
LINE
  5
392
100
AcDbEntity
  8
Layer0
100
AcDbLine
 10
277.250574
 20
-244.361529
 30
0.0
 11
283.050829
 21
-238.561254
 31
0.0
  0
LINE
  5
393
100
AcDbEntity
  8
Layer0
100
AcDbLine
 10
277.250574
 20
-250.431552
 30
0.0
 11
277.250574
 21
-244.361529
 31
0.0
  0
LINE
  5
394
100
AcDbEntity
  8
Layer0
100
AcDbLine
 10
287.771966
 20
-242.068379
 30
0.0
 11
291.818652
 21
-249.082652
 31
0.0
  0
LINE
  5
395
100
AcDbEntity
  8
Layer0
100
AcDbLine
 10
283.050829
 20
-238.561254
 30
0.0
 11
287.771966
 21
-242.068379
 31
0.0
  0
LINE
  5
396
100
AcDbEntity
  8
Layer0
100
AcDbLine
 10
299.777138
 20
-249.082652
 30
0.0
 11
303.014487
 21
-248.138428
 31
0.0
  0
LINE
  5
397
100
AcDbEntity
  8
Layer0
100
AcDbLine
 10
291.818652
 20
-249.082652
 30
0.0
 11
299.777138
 21
-249.082652
 31
0.0
  0
LINE
  5
398
100
AcDbEntity
  8
Layer0
100
AcDbLine
 10
323.78749
 20
-247.059303
 30
0.0
 11
331.341307
 21
-246.115053
 31
0.0
  0
LINE
  5
399
100
AcDbEntity
  8
Layer0
100
AcDbLine
 10
303.014487
 20
-248.138428
 30
0.0
 11
309.445075
 21
-248.138428
 31
0.0
  0
LINE
  5
39A
100
AcDbEntity
  8
Layer0
100
AcDbLine
 10
320.954809
 20
-248.812852
 30
0.0
 11
323.78749
 21
-247.059303
 31
0.0
  0
LINE
  5
39B
100
AcDbEntity
  8
Layer0
100
AcDbLine
 10
300.006456
 20
-189.382633
 30
0.0
 11
297.592035
 21
-197.637393
 31
0.0
  0
LINE
  5
39C
100
AcDbEntity
  8
Layer0
100
AcDbLine
 10
302.307293
 20
-188.324499
 30
0.0
 11
300.006456
 21
-189.382633
 31
0.0
  0
LINE
  5
39D
100
AcDbEntity
  8
Layer0
100
AcDbLine
 10
296.209248
 20
-154.025664
 30
0.0
 11
290.169406
 21
-150.259513
 31
0.0
  0
LINE
  5
39E
100
AcDbEntity
  8
Layer0
100
AcDbLine
 10
302.588677
 20
-186.422907
 30
0.0
 11
302.307293
 21
-188.324499
 31
0.0
  0
LINE
  5
39F
100
AcDbEntity
  8
Layer0
100
AcDbLine
 10
299.913109
 20
-201.497845
 30
0.0
 11
295.731528
 21
-201.497845
 31
0.0
  0
LINE
  5
3A0
100
AcDbEntity
  8
Layer0
100
AcDbLine
 10
297.592035
 20
-197.637393
 30
0.0
 11
299.913109
 21
-201.497845
 31
0.0
  0
LINE
  5
3A1
100
AcDbEntity
  8
Layer0
100
AcDbLine
 10
285.074172
 20
-223.318732
 30
0.0
 11
279.408811
 21
-228.174756
 31
0.0
  0
LINE
  5
3A2
100
AcDbEntity
  8
Layer0
100
AcDbLine
 10
295.731528
 20
-201.497845
 30
0.0
 11
285.074172
 21
-223.318732
 31
0.0
  0
LINE
  5
3A3
100
AcDbEntity
  8
Layer0
100
AcDbLine
 10
279.408811
 20
-228.174756
 30
0.0
 11
279.408811
 21
-233.300555
 31
0.0
  0
LINE
  5
3A4
100
AcDbEntity
  8
Layer0
100
AcDbLine
 10
308.275187
 20
-241.124154
 30
0.0
 11
295.056002
 21
-238.156579
 31
0.0
  0
LINE
  5
3A5
100
AcDbEntity
  8
Layer0
100
AcDbLine
 10
308.275187
 20
-207.536635
 30
0.0
 11
312.622116
 21
-206.703887
 31
0.0
  0
LINE
  5
3A6
100
AcDbEntity
  8
Layer0
100
AcDbLine
 10
283.11266
 20
-155.730776
 30
0.0
 11
277.567468
 21
-160.0301
 31
0.0
  0
LINE
  5
3A7
100
AcDbEntity
  8
Layer0
100
AcDbLine
 10
289.181753
 20
-162.239295
 30
0.0
 11
283.11266
 21
-155.730776
 31
0.0
  0
LINE
  5
3A8
100
AcDbEntity
  8
Layer0
100
AcDbLine
 10
291.44899
 20
-160.125125
 30
0.0
 11
289.181753
 21
-162.239295
 31
0.0
  0
LINE
  5
3A9
100
AcDbEntity
  8
Layer0
100
AcDbLine
 10
285.572724
 20
-153.823389
 30
0.0
 11
291.44899
 21
-160.125125
 31
0.0
  0
LINE
  5
3AA
100
AcDbEntity
  8
Layer0
100
AcDbLine
 10
315.967382
 20
-197.747259
 30
0.0
 11
322.456088
 21
-191.760425
 31
0.0
  0
LINE
  5
3AB
100
AcDbEntity
  8
Layer0
100
AcDbLine
 10
297.618901
 20
-220.486058
 30
0.0
 11
308.275187
 21
-211.17866
 31
0.0
  0
LINE
  5
3AC
100
AcDbEntity
  8
Layer0
100
AcDbLine
 10
291.95354
 20
-231.546981
 30
0.0
 11
297.618901
 21
-220.486058
 31
0.0
  0
LINE
  5
3AD
100
AcDbEntity
  8
Layer0
100
AcDbLine
 10
322.186382
 20
-187.075969
 30
0.0
 11
317.234941
 21
-182.374925
 31
0.0
  0
LINE
  5
3AE
100
AcDbEntity
  8
Layer0
100
AcDbLine
 10
313.266098
 20
-234.649455
 30
0.0
 11
313.266098
 21
-239.235704
 31
0.0
  0
LINE
  5
3AF
100
AcDbEntity
  8
Layer0
100
AcDbLine
 10
312.622116
 20
-206.703887
 30
0.0
 11
315.967382
 21
-204.329843
 31
0.0
  0
LINE
  5
3B0
100
AcDbEntity
  8
Layer0
100
AcDbLine
 10
315.967382
 20
-204.329843
 30
0.0
 11
315.967382
 21
-197.747259
 31
0.0
  0
LINE
  5
3B1
100
AcDbEntity
  8
Layer0
100
AcDbLine
 10
313.266098
 20
-239.235704
 30
0.0
 11
308.275187
 21
-241.124154
 31
0.0
  0
LINE
  5
3B2
100
AcDbEntity
  8
Layer0
100
AcDbLine
 10
295.056002
 20
-238.156579
 30
0.0
 11
291.95354
 21
-231.546981
 31
0.0
  0
LINE
  5
3B3
100
AcDbEntity
  8
Layer0
100
AcDbLine
 10
320.010578
 20
-226.151432
 30
0.0
 11
315.829004
 21
-230.063181
 31
0.0
  0
LINE
  5
3B4
100
AcDbEntity
  8
Layer0
100
AcDbLine
 10
322.456088
 20
-191.760425
 30
0.0
 11
322.186382
 21
-187.075969
 31
0.0
  0
LINE
  5
3B5
100
AcDbEntity
  8
Layer0
100
AcDbLine
 10
315.829004
 20
-230.063181
 30
0.0
 11
313.266098
 21
-234.649455
 31
0.0
  0
LINE
  5
3B6
100
AcDbEntity
  8
Layer0
100
AcDbLine
 10
308.275187
 20
-211.17866
 30
0.0
 11
308.275187
 21
-207.536635
 31
0.0
  0
LINE
  5
3B7
100
AcDbEntity
  8
Layer0
100
AcDbLine
 10
326.350389
 20
-224.397832
 30
0.0
 11
320.010578
 21
-226.151432
 31
0.0
  0
LINE
  5
3B8
100
AcDbEntity
  8
Layer0
100
AcDbLine
 10
330.53197
 20
-226.151432
 30
0.0
 11
326.350389
 21
-224.397832
 31
0.0
  0
LINE
  5
3B9
100
AcDbEntity
  8
Layer0
100
AcDbLine
 10
323.517709
 20
-230.063181
 30
0.0
 11
330.53197
 21
-226.151432
 31
0.0
  0
LINE
  5
3BA
100
AcDbEntity
  8
Layer0
100
AcDbLine
 10
322.43859
 20
-232.086581
 30
0.0
 11
323.517709
 21
-230.063181
 31
0.0
  0
LINE
  5
3BB
100
AcDbEntity
  8
Layer0
100
AcDbLine
 10
323.517709
 20
-238.561254
 30
0.0
 11
322.43859
 21
-232.086581
 31
0.0
  0
LINE
  5
3BC
100
AcDbEntity
  8
Layer0
100
AcDbLine
 10
319.87569
 20
-242.068379
 30
0.0
 11
323.517709
 21
-238.561254
 31
0.0
  0
LINE
  5
3BD
100
AcDbEntity
  8
Layer0
100
AcDbLine
 10
319.87569
 20
-244.091728
 30
0.0
 11
319.87569
 21
-242.068379
 31
0.0
  0
LINE
  5
3BE
100
AcDbEntity
  8
Layer0
100
AcDbLine
 10
325.136383
 20
-242.068379
 30
0.0
 11
319.87569
 21
-244.091728
 31
0.0
  0
LINE
  5
3BF
100
AcDbEntity
  8
Layer0
100
AcDbLine
 10
331.341307
 20
-246.115053
 30
0.0
 11
325.136383
 21
-242.068379
 31
0.0
  0
LINE
  5
3C0
100
AcDbEntity
  8
0
370
     0
  6
Continuous
 62
     7
100
AcDbLine
 10
92.252406
 20
-150.114456
 30
0.0
 11
104.292737
 21
-148.94085
 31
0.0
  0
LINE
  5
3C1
100
AcDbEntity
  8
0
370
     0
  6
Continuous
 62
     7
100
AcDbLine
 10
93.599856
 20
-152.245891
 30
0.0
 11
102.902365
 21
-150.825245
 31
0.0
  0
LINE
  5
3C2
100
AcDbEntity
  8
0
370
     0
  6
Continuous
 62
     7
100
AcDbLine
 10
65.505674
 20
-226.773118
 30
0.0
 11
69.431627
 21
-229.927682
 31
0.0
  0
LINE
  5
3C3
100
AcDbEntity
  8
0
370
     0
  6
Continuous
 62
     7
100
AcDbLine
 10
68.931013
 20
-231.397226
 30
0.0
 11
64.263617
 21
-227.87452
 31
0.0
  0
LINE
  5
3C4
100
AcDbEntity
  8
0
370
     0
  6
Continuous
 62
     7
100
AcDbLine
 10
105.289224
 20
-213.547841
 30
0.0
 11
104.644099
 21
-215.719526
 31
0.0
  0
LINE
  5
3C5
100
AcDbEntity
  8
0
370
     0
  6
Continuous
 62
     7
100
AcDbLine
 10
106.420273
 20
-216.410031
 30
0.0
 11
107.26952
 21
-213.960405
 31
0.0
  0
LINE
  5
3C6
100
AcDbEntity
  8
Layer0
100
AcDbLine
 10
100.117396
 20
-213.959727
 30
0.0
 11
104.644099
 21
-215.719526
 31
0.0
  0
LINE
  5
3C7
100
AcDbEntity
  8
Layer0
100
AcDbLine
 10
106.420273
 20
-216.410031
 30
0.0
 11
109.980647
 21
-217.79416
 31
0.0
  0
LINE
  5
3C8
100
AcDbEntity
  8
0
370
     0
  6
Continuous
 62
     7
100
AcDbLine
 10
112.376583
 20
-157.631033
 30
0.0
 11
112.169743
 21
-160.631046
 31
0.0
  0
LINE
  5
3C9
100
AcDbEntity
  8
0
370
     0
  6
Continuous
 62
     7
100
AcDbLine
 10
114.164197
 20
-160.811193
 30
0.0
 11
114.353315
 21
-156.577402
 31
0.0
  0
LINE
  5
3CA
100
AcDbEntity
  8
Layer0
100
AcDbLine
 10
108.4856
 20
-160.298278
 30
0.0
 11
112.169743
 21
-160.631046
 31
0.0
  0
LINE
  5
3CB
100
AcDbEntity
  8
Layer0
100
AcDbLine
 10
114.164197
 20
-160.811193
 30
0.0
 11
119.315645
 21
-161.276495
 31
0.0
  0
LINE
  5
3CC
100
AcDbEntity
  8
Layer0
100
AcDbLine
 10
114.353315
 20
-156.577402
 30
0.0
 11
116.141532
 21
-155.624252
 31
0.0
  0
LINE
  5
3CD
100
AcDbEntity
  8
0
370
     0
  6
Continuous
 62
     7
100
AcDbLine
 10
137.516601
 20
-244.606257
 30
0.0
 11
137.58276
 21
-240.702138
 31
0.0
  0
LINE
  5
3CE
100
AcDbEntity
  8
0
370
     0
  6
Continuous
 62
     7
100
AcDbLine
 10
139.639736
 20
-244.490563
 30
0.0
 11
139.639892
 21
-240.702138
 31
0.0
  0
LINE
  5
3CF
100
AcDbEntity
  8
0
370
     0
  6
Continuous
 62
     7
100
AcDbLine
 10
164.519608
 20
-212.779943
 30
0.0
 11
168.542833
 21
-212.142537
 31
0.0
  0
LINE
  5
3D0
100
AcDbEntity
  8
0
370
     0
  6
Continuous
 62
     7
100
AcDbLine
 10
168.895539
 20
-214.611441
 30
0.0
 11
163.473656
 21
-215.162388
 31
0.0
  0
LINE
  5
3D1
100
AcDbEntity
  8
Layer0
100
AcDbLine
 10
168.272264
 20
-210.248583
 30
0.0
 11
168.542833
 21
-212.142537
 31
0.0
  0
LINE
  5
3D2
100
AcDbEntity
  8
Layer0
100
AcDbLine
 10
162.091596
 20
-218.310417
 30
0.0
 11
163.473656
 21
-215.162388
 31
0.0
  0
LINE
  5
3D3
100
AcDbEntity
  8
Layer0
100
AcDbLine
 10
132.765264
 20
-244.865169
 30
0.0
 11
137.516601
 21
-244.606257
 31
0.0
  0
LINE
  5
3D4
100
AcDbEntity
  8
Layer0
100
AcDbLine
 10
139.639736
 20
-244.490563
 30
0.0
 11
140.872904
 21
-244.423364
 31
0.0
  0
LINE
  5
3D5
100
AcDbEntity
  8
Layer0
100
AcDbLine
 10
135.383451
 20
-240.702138
 30
0.0
 11
137.58276
 21
-240.702138
 31
0.0
  0
LINE
  5
3D6
100
AcDbEntity
  8
Layer0
100
AcDbLine
 10
139.639892
 20
-240.702138
 30
0.0
 11
143.072149
 21
-240.702138
 31
0.0
  0
LINE
  5
3D7
100
AcDbEntity
  8
0
370
     0
  6
Continuous
 62
     7
100
AcDbLine
 10
210.010023
 20
-217.41619
 30
0.0
 11
210.27447
 21
-220.394672
 31
0.0
  0
LINE
  5
3D8
100
AcDbEntity
  8
0
370
     0
  6
Continuous
 62
     7
100
AcDbLine
 10
212.622563
 20
-219.98734
 30
0.0
 11
212.347673
 21
-217.41619
 31
0.0
  0
LINE
  5
3D9
100
AcDbEntity
  8
0
370
     0
  6
Continuous
 62
     7
100
AcDbLine
 10
192.24388
 20
-237.724872
 30
0.0
 11
192.198025
 21
-242.91836
 31
0.0
  0
LINE
  5
3DA
100
AcDbEntity
  8
0
370
     0
  6
Continuous
 62
     7
100
AcDbLine
 10
194.768542
 20
-237.724872
 30
0.0
 11
194.778682
 21
-243.541291
 31
0.0
  0
LINE
  5
3DB
100
AcDbEntity
  8
0
370
     0
  6
Continuous
 62
     7
100
AcDbLine
 10
188.223121
 20
-267.81619
 30
0.0
 11
188.394674
 21
-270.704431
 31
0.0
  0
LINE
  5
3DC
100
AcDbEntity
  8
0
370
     0
  6
Continuous
 62
     7
100
AcDbLine
 10
190.560772
 20
-267.81619
 30
0.0
 11
190.742767
 21
-270.297098
 31
0.0
  0
LINE
  5
3DD
100
AcDbEntity
  8
Layer0
100
AcDbLine
 10
195.760163
 20
-269.426711
 30
0.0
 11
190.742767
 21
-270.297098
 31
0.0
  0
LINE
  5
3DE
100
AcDbEntity
  8
Layer0
100
AcDbLine
 10
188.394674
 20
-270.704431
 30
0.0
 11
183.544047
 21
-271.545887
 31
0.0
  0
LINE
  5
3DF
100
AcDbEntity
  8
Layer0
100
AcDbLine
 10
184.28136
 20
-267.81619
 30
0.0
 11
188.223121
 21
-267.81619
 31
0.0
  0
LINE
  5
3E0
100
AcDbEntity
  8
Layer0
100
AcDbLine
 10
190.560772
 20
-267.81619
 30
0.0
 11
193.085066
 21
-267.81619
 31
0.0
  0
LINE
  5
3E1
100
AcDbEntity
  8
Layer0
100
AcDbLine
 10
199.161964
 20
-244.599347
 30
0.0
 11
194.778682
 21
-243.541291
 31
0.0
  0
LINE
  5
3E2
100
AcDbEntity
  8
Layer0
100
AcDbLine
 10
192.198025
 20
-242.91836
 30
0.0
 11
190.124527
 21
-242.41785
 31
0.0
  0
LINE
  5
3E3
100
AcDbEntity
  8
Layer0
100
AcDbLine
 10
187.74452
 20
-237.724872
 30
0.0
 11
192.24388
 21
-237.724872
 31
0.0
  0
LINE
  5
3E4
100
AcDbEntity
  8
Layer0
100
AcDbLine
 10
194.768542
 20
-237.724872
 30
0.0
 11
200.248922
 21
-237.724872
 31
0.0
  0
LINE
  5
3E5
100
AcDbEntity
  8
Layer0
100
AcDbLine
 10
218.160163
 20
-219.026711
 30
0.0
 11
212.622563
 21
-219.98734
 31
0.0
  0
LINE
  5
3E6
100
AcDbEntity
  8
Layer0
100
AcDbLine
 10
210.27447
 20
-220.394672
 30
0.0
 11
205.944047
 21
-221.145887
 31
0.0
  0
LINE
  5
3E7
100
AcDbEntity
  8
Layer0
100
AcDbLine
 10
206.68136
 20
-217.41619
 30
0.0
 11
210.010023
 21
-217.41619
 31
0.0
  0
LINE
  5
3E8
100
AcDbEntity
  8
Layer0
100
AcDbLine
 10
212.347673
 20
-217.41619
 30
0.0
 11
215.485066
 21
-217.41619
 31
0.0
  0
LINE
  5
3E9
100
AcDbEntity
  8
Layer0
100
AcDbLine
 10
133.806543
 20
-125.407967
 30
0.0
 11
137.9196
 21
-126.641943
 31
0.0
  0
LINE
  5
3EA
100
AcDbEntity
  8
Layer0
100
AcDbLine
 10
137.9196
 20
-126.641943
 30
0.0
 11
139.363992
 21
-127.075281
 31
0.0
  0
LINE
  5
3EB
100
AcDbEntity
  8
Layer0
100
AcDbLine
 10
156.777644
 20
-134.588766
 30
0.0
 11
149.892557
 21
-131.066145
 31
0.0
  0
LINE
  5
3EC
100
AcDbEntity
  8
0
370
     0
  6
Continuous
 62
     7
100
AcDbLine
 10
217.035964
 20
-123.524895
 30
0.0
 11
227.155367
 21
-125.65594
 31
0.0
  0
LINE
  5
3ED
100
AcDbEntity
  8
0
370
     0
  6
Continuous
 62
     7
100
AcDbLine
 10
227.155367
 20
-128.52975
 30
0.0
 11
215.476941
 21
-125.810338
 31
0.0
  0
LINE
  5
3EE
100
AcDbEntity
  8
0
370
     0
  6
Continuous
 62
     7
100
AcDbLine
 10
279.992689
 20
-170.054762
 30
0.0
 11
276.257656
 21
-172.646174
 31
0.0
  0
LINE
  5
3EF
100
AcDbEntity
  8
0
370
     0
  6
Continuous
 62
     7
100
AcDbLine
 10
282.057947
 20
-172.254143
 30
0.0
 11
277.687912
 21
-174.811723
 31
0.0
  0
LINE
  5
3F0
100
AcDbEntity
  8
Layer0
100
AcDbLine
 10
283.53172
 20
-183.659832
 30
0.0
 11
277.687912
 21
-174.811723
 31
0.0
  0
LINE
  5
3F1
100
AcDbEntity
  8
Layer0
100
AcDbLine
 10
276.257656
 20
-172.646174
 30
0.0
 11
271.93348
 21
-166.098941
 31
0.0
  0
LINE
  5
3F2
100
AcDbEntity
  8
Layer0
100
AcDbLine
 10
290.169406
 20
-150.259513
 30
0.0
 11
290.169406
 21
-150.259513
 31
0.0
  0
LINE
  5
3F3
100
AcDbEntity
  8
Layer0
100
AcDbLine
 10
290.169406
 20
-150.259513
 30
0.0
 11
285.572724
 21
-153.823389
 31
0.0
  0
LINE
  5
3F4
100
AcDbEntity
  8
Layer0
100
AcDbLine
 10
266.52587
 20
-138.501272
 30
0.0
 11
275.571847
 21
-133.145083
 31
0.0
  0
LINE
  5
3F5
100
AcDbEntity
  8
Layer0
100
AcDbLine
 10
227.155367
 20
-128.52975
 30
0.0
 11
227.155367
 21
-133.628083
 31
0.0
  0
LINE
  5
3F6
100
AcDbEntity
  8
Layer0
100
AcDbLine
 10
213.468107
 20
-128.755178
 30
0.0
 11
215.476941
 21
-125.810338
 31
0.0
  0
LINE
  5
3F7
100
AcDbEntity
  8
Layer0
100
AcDbLine
 10
217.035964
 20
-123.524895
 30
0.0
 11
218.456351
 21
-121.442687
 31
0.0
  0
LINE
  5
3F8
100
AcDbEntity
  8
Layer0
100
AcDbLine
 10
282.057947
 20
-172.254143
 30
0.0
 11
302.588677
 21
-186.422907
 31
0.0
  0
LINE
  5
3F9
100
AcDbEntity
  8
Layer0
100
AcDbLine
 10
277.567468
 20
-160.0301
 30
0.0
 11
279.992689
 21
-170.054762
 31
0.0
  0
LINE
  5
3FA
100
AcDbEntity
  8
0
370
     0
  6
Continuous
 62
     7
100
AcDbLine
 10
309.282687
 20
-254.213128
 30
0.0
 11
309.445075
 21
-248.138428
 31
0.0
  0
LINE
  5
3FB
100
AcDbEntity
  8
0
370
     0
  6
Continuous
 62
     7
100
AcDbLine
 10
311.874673
 20
-254.213128
 30
0.0
 11
311.917205
 21
-248.138428
 31
0.0
  0
LINE
  5
3FC
100
AcDbEntity
  8
0
370
     0
  6
Continuous
 62
     7
100
AcDbLine
 10
260.698422
 20
-193.716695
 30
0.0
 11
257.587628
 21
-195.990559
 31
0.0
  0
LINE
  5
3FD
100
AcDbEntity
  8
0
370
     0
  6
Continuous
 62
     7
100
AcDbLine
 10
259.563668
 20
-191.998567
 30
0.0
 11
256.31422
 21
-194.239036
 31
0.0
  0
LINE
  5
3FE
100
AcDbEntity
  8
0
370
     0
  6
Continuous
 62
     7
100
AcDbLine
 10
203.416396
 20
-187.812042
 30
0.0
 11
208.217862
 21
-194.923563
 31
0.0
  0
LINE
  5
3FF
100
AcDbEntity
  8
0
370
     0
  6
Continuous
 62
     7
100
AcDbLine
 10
205.931954
 20
-195.732182
 30
0.0
 11
202.170029
 21
-190.417535
 31
0.0
  0
LINE
  5
400
100
AcDbEntity
  8
Layer0
100
AcDbLine
 10
200.943659
 20
-192.981225
 30
0.0
 11
202.170029
 21
-190.417535
 31
0.0
  0
LINE
  5
401
100
AcDbEntity
  8
Layer0
100
AcDbLine
 10
210.265169
 20
-194.199347
 30
0.0
 11
208.217862
 21
-194.923563
 31
0.0
  0
LINE
  5
402
100
AcDbEntity
  8
Layer0
100
AcDbLine
 10
205.931954
 20
-195.732182
 30
0.0
 11
203.166492
 21
-196.710438
 31
0.0
  0
LINE
  5
403
100
AcDbEntity
  8
Layer0
100
AcDbLine
 10
272.334941
 20
-216.274925
 30
0.0
 11
257.587628
 21
-195.990559
 31
0.0
  0
LINE
  5
404
100
AcDbEntity
  8
Layer0
100
AcDbLine
 10
256.31422
 20
-194.239036
 30
0.0
 11
253.071445
 21
-189.778723
 31
0.0
  0
LINE
  5
405
100
AcDbEntity
  8
Layer0
100
AcDbLine
 10
258.431727
 20
-190.284698
 30
0.0
 11
259.563668
 21
-191.998567
 31
0.0
  0
LINE
  5
406
100
AcDbEntity
  8
Layer0
100
AcDbLine
 10
260.698422
 20
-193.716695
 30
0.0
 11
261.500521
 21
-194.93115
 31
0.0
  0
LINE
  5
407
100
AcDbEntity
  8
Layer0
100
AcDbLine
 10
311.917205
 20
-248.138428
 30
0.0
 11
316.682132
 21
-248.494007
 31
0.0
  0
LINE
  5
408
100
AcDbEntity
  8
Layer0
100
AcDbLine
 10
316.682132
 20
-248.494007
 30
0.0
 11
320.954809
 21
-248.812852
 31
0.0
  0
LINE
  5
409
100
AcDbEntity
  8
Layer0
100
AcDbLine
 10
313.258349
 20
-254.213128
 30
0.0
 11
311.874673
 21
-254.213128
 31
0.0
  0
LINE
  5
40A
100
AcDbEntity
  8
Layer0
100
AcDbLine
 10
309.282687
 20
-254.213128
 30
0.0
 11
307.180762
 21
-254.213128
 31
0.0
  0
LINE
  5
40B
100
AcDbEntity
  8
0
370
     0
  6
Continuous
 62
     7
100
AcDbLine
 10
307.461257
 20
-155.457858
 30
0.0
 11
301.429235
 21
-160.634781
 31
0.0
  0
LINE
  5
40C
100
AcDbEntity
  8
0
370
     0
  6
Continuous
 62
     7
100
AcDbLine
 10
302.773782
 20
-162.484154
 30
0.0
 11
309.61157
 21
-156.70276
 31
0.0
  0
LINE
  5
40D
100
AcDbEntity
  8
Layer0
100
AcDbLine
 10
307.461257
 20
-155.457858
 30
0.0
 11
307.461257
 21
-155.457858
 31
0.0
  0
LINE
  5
40E
100
AcDbEntity
  8
Layer0
100
AcDbLine
 10
309.61157
 20
-156.70276
 30
0.0
 11
312.48074
 21
-158.363838
 31
0.0
  0
LINE
  5
40F
100
AcDbEntity
  8
Layer0
100
AcDbLine
 10
317.234941
 20
-182.374925
 30
0.0
 11
302.773782
 21
-162.484154
 31
0.0
  0
LINE
  5
410
100
AcDbEntity
  8
Layer0
100
AcDbLine
 10
301.429235
 20
-160.634781
 30
0.0
 11
297.971445
 21
-155.878723
 31
0.0
  0
LINE
  5
411
100
AcDbEntity
  8
0
370
     0
  6
Continuous
 62
     7
100
AcDbLine
 10
227.155367
 20
-142.035589
 30
0.0
 11
220.272501
 21
-145.624733
 31
0.0
  0
LINE
  5
412
100
AcDbEntity
  8
0
370
     0
  6
Continuous
 62
     7
100
AcDbLine
 10
221.805231
 20
-147.900714
 30
0.0
 11
228.26863
 21
-144.401292
 31
0.0
  0
LINE
  5
413
100
AcDbEntity
  8
Layer0
100
AcDbLine
 10
228.26863
 20
-144.401292
 30
0.0
 11
228.975332
 21
-145.903045
 31
0.0
  0
LINE
  5
414
100
AcDbEntity
  8
Layer0
100
AcDbLine
 10
222.371544
 20
-148.741644
 30
0.0
 11
221.805231
 21
-147.900714
 31
0.0
  0
LINE
  5
415
100
AcDbEntity
  8
Layer0
100
AcDbLine
 10
220.272501
 20
-145.624733
 30
0.0
 11
216.922578
 21
-140.650365
 31
0.0
  0
LINE
  5
416
100
AcDbEntity
  8
0
370
     0
  6
Continuous
 62
     7
100
AcDbLine
 10
157.653886
 20
-136.429805
 30
0.0
 11
162.355603
 21
-134.488259
 31
0.0
  0
LINE
  5
417
100
AcDbEntity
  8
0
370
     0
  6
Continuous
 62
     7
100
AcDbLine
 10
158.607201
 20
-138.432781
 30
0.0
 11
162.871423
 21
-136.726439
 31
0.0
  0
LINE
  5
418
100
AcDbEntity
  8
Layer0
100
AcDbLine
 10
161.740947
 20
-131.821221
 30
0.0
 11
162.355603
 21
-134.488259
 31
0.0
  0
LINE
  5
419
100
AcDbEntity
  8
Layer0
100
AcDbLine
 10
162.871423
 20
-136.726439
 30
0.0
 11
163.806912
 21
-140.785591
 31
0.0
  0
LINE
  5
41A
100
AcDbEntity
  8
Layer0
100
AcDbLine
 10
160.145758
 20
-141.665386
 30
0.0
 11
158.607201
 21
-138.432781
 31
0.0
  0
LINE
  5
41B
100
AcDbEntity
  8
Layer0
100
AcDbLine
 10
157.653886
 20
-136.429805
 30
0.0
 11
156.777644
 21
-134.588766
 31
0.0
  0
ENDSEC
  0
SECTION
  2
OBJECTS
  0
DICTIONARY
  5
19
100
AcDbDictionary
280
     0
281
     1
  3
ACAD_GROUP
350
1A
  3
ACAD_MLINESTYLE
350
1B
  3
ACAD_LAYOUT
350
1E
  3
ACAD_PLOTSETTINGS
350
22
  3
ACAD_PLOTSTYLENAME
350
1F
  0
DICTIONARY
  5
1A
102
{ACAD_REACTORS
330
19
102
}
100
AcDbDictionary
280
     0
281
     1
  0
DICTIONARY
  5
1B
102
{ACAD_REACTORS
330
19
102
}
100
AcDbDictionary
280
     0
281
     1
  3
Standard
350
1C
  0
MLINESTYLE
  5
1C
100
AcDbMlineStyle
  2
STANDARD
 70
     0
  3

 62
   256
 51
90.0
 52
90.0
 71
     2
 49
0.5
 62
   256
  6
BYLAYER
 49
-0.5
 62
   256
  6
BYLAYER
  0
ACDBDICTIONARYWDFLT
  5
1F
102
{ACAD_REACTORS
330
19
102
}
100
AcDbDictionary
281
     1
  3
Normal
350
1D
100
AcDbDictionaryWithDefault
340
1D
  0
ACDBPLACEHOLDER
  5
1D
102
{ACAD_REACTORS
330
1F
102
}
  0
LAYOUT
  5
21
102
{ACAD_REACTORS
330
1E
102
}
100
AcDbPlotSettings
  1

  2

  4

  6

 40
0.0
 41
0.0
 42
0.0
 43
0.0
 44
0.0
 45
0.0
 46
0.0
 47
0.0
 48
0.0
 49
0.0
140
0.0
141
0.0
142
1.0
143
1.0
 70
     0
 72
     0
 73
     0
 74
     0
  7

 75
     0
147
1.0
148
0.0
149
0.0
100
AcDbLayout
  1
Layout1
 70
     0
 71
     0
 10
0.0
 20
0.0
 11
0.0
 21
0.0
 12
0.0
 22
0.0
 32
0.0
 14
0.0
 24
0.0
 34
0.0
 15
0.0
 25
0.0
 35
0.0
146
0.0
 13
0.0
 23
0.0
 33
0.0
 16
0.0
 26
0.0
 36
0.0
 17
0.0
 27
0.0
 37
0.0
 76
     0
330
B
331
0
345
0
346
0
  0
DICTIONARY
  5
1E
102
{ACAD_REACTORS
330
19
102
}
100
AcDbDictionary
280
     0
281
     1
  3
Model
350
41C
  3
_Paper_Space
350
41D
  0
DICTIONARY
  5
22
102
{ACAD_REACTORS
330
19
102
}
100
AcDbDictionary
280
     0
281
     1
  0
LAYOUT
  5
41C
100
AcDbPlotSettings
  1

  2

  4

  6

 40
0.0
 41
0.0
 42
0.0
 43
0.0
 44
0.0
 45
0.0
 46
0.0
 47
0.0
 48
0.0
 49
0.0
140
0.0
141
0.0
142
1.0
143
1.0
 70
     0
 72
     0
 73
     0
 74
     0
  7

 75
     0
147
1.0
148
0.0
149
0.0
100
AcDbLayout
  1
Model
 70
     0
 71
     0
 10
0.0
 20
0.0
 11
0.0
 21
0.0
 12
0.0
 22
0.0
 32
0.0
 14
0.0
 24
0.0
 34
0.0
 15
0.0
 25
0.0
 35
0.0
146
0.0
 13
0.0
 23
0.0
 33
0.0
 16
0.0
 26
0.0
 36
0.0
 17
0.0
 27
0.0
 37
0.0
 76
     0
330
A
331
0
345
0
346
0
  0
LAYOUT
  5
41D
100
AcDbPlotSettings
  1

  2

  4

  6

 40
0.0
 41
0.0
 42
0.0
 43
0.0
 44
12.0
 45
9.0
 46
0.0
 47
0.0
 48
0.0
 49
0.0
140
0.0
141
0.0
142
1.0
143
1.0
 70
     0
 72
     0
 73
     0
 74
     0
  7

 75
     0
147
1.0
148
0.0
149
0.0
100
AcDbLayout
  1
_Paper_Space
 70
     1
 71
     1
 10
0.0
 20
0.0
 11
12.0
 21
9.0
 12
0.0
 22
0.0
 32
0.0
 14
0.0
 24
0.0
 34
0.0
 15
0.0
 25
0.0
 35
0.0
146
0.0
 13
0.0
 23
0.0
 33
0.0
 16
0.0
 26
0.0
 36
0.0
 17
0.0
 27
0.0
 37
0.0
 76
     0
330
B
331
0
345
0
346
0
  0
ENDSEC
  0
EOF
