999
Inkscape export via "Better DXF Output" (bob@bobcookdev.com)
  0
SECTION
  2
HEADER
  9
$ACADVER
  1
AC1014
  9
$HANDSEED
  5
FFFF
  0
ENDSEC
  0
SECTION
  2
TABLES
  0
TABLE
  2
VPORT
  5
8
330
0
100
AcDbSymbolTable
 70
     4
  0
VPORT
  5
2E
330
8
100
AcDbSymbolTableRecord
100
AcDbViewportTableRecord
  2
*ACTIVE
 70
     0
 10
0.0
 20
0.0
 11
1.0
 21
1.0
 12
4.25
 22
5.5
 13
0.0
 23
0.0
 14
10.0
 24
10.0
 15
10.0
 25
10.0
 16
0.0
 26
0.0
 36
1.0
 17
0.0
 27
0.0
 37
0.0
 40
11
 41
1.24
 42
50.0
 43
0.0
 44
0.0
 50
0.0
 51
0.0
 71
     0
 72
   100
 73
     1
 74
     3
 75
     0
 76
     0
 77
     0
 78
     0
  0
ENDTAB
  0
TABLE
  2
LTYPE
  5
5
330
0
100
AcDbSymbolTable
 70
     1
  0
LTYPE
  5
14
330
5
100
AcDbSymbolTableRecord
100
AcDbLinetypeTableRecord
  2
BYBLOCK
 70
     0
  3

 72
    65
 73
     0
 40
0.0
  0
LTYPE
  5
15
330
5
100
AcDbSymbolTableRecord
100
AcDbLinetypeTableRecord
  2
BYLAYER
 70
     0
  3

 72
    65
 73
     0
 40
0.0
  0
LTYPE
  5
16
330
5
100
AcDbSymbolTableRecord
100
AcDbLinetypeTableRecord
  2
CONTINUOUS
 70
     0
  3
Solid line
 72
    65
 73
     0
 40
0.0
  0
ENDTAB
  0
TABLE
  2
LAYER
  5
2
330
0
100
AcDbSymbolTable
 70
1
  0
LAYER
  5
10
330
2
100
AcDbSymbolTableRecord
100
AcDbLayerTableRecord
  2
0
 70
     0
 62
     7
  6
CONTINUOUS
  0
ENDTAB
  0
TABLE
  2
STYLE
  5
3
330
0
100
AcDbSymbolTable
 70
     1
  0
STYLE
  5
11
330
3
100
AcDbSymbolTableRecord
100
AcDbTextStyleTableRecord
  2
STANDARD
 70
     0
 40
0.0
 41
1.0
 50
0.0
 71
     0
 42
2.5
  3
txt
  4

  0
ENDTAB
  0
TABLE
  2
VIEW
  5
6
330
0
100
AcDbSymbolTable
 70
     0
  0
ENDTAB
  0
TABLE
  2
UCS
  5
7
330
0
100
AcDbSymbolTable
 70
     0
  0
ENDTAB
  0
TABLE
  2
APPID
  5
9
330
0
100
AcDbSymbolTable
 70
     2
  0
APPID
  5
12
330
9
100
AcDbSymbolTableRecord
100
AcDbRegAppTableRecord
  2
ACAD
 70
     0
  0
ENDTAB
  0
TABLE
  2
DIMSTYLE
  5
A
330
0
100
AcDbSymbolTable
 70
     1
  0
DIMSTYLE
105
27
330
A
100
AcDbSymbolTableRecord
100
AcDbDimStyleTableRecord
  2
ISO-25
 70
     0
  3

  4

  5

  6

  7

 40
1.0
 41
2.5
 42
0.625
 43
3.75
 44
1.25
 45
0.0
 46
0.0
 47
0.0
 48
0.0
140
2.5
141
2.5
142
0.0
143
0.03937007874016
144
1.0
145
0.0
146
1.0
147
0.625
 71
     0
 72
     0
 73
     0
 74
     0
 75
     0
 76
     0
 77
     1
 78
     8
170
     0
171
     3
172
     1
173
     0
174
     0
175
     0
176
     0
177
     0
178
     0
270
     2
271
     2
272
     2
273
     2
274
     3
340
11
275
     0
280
     0
281
     0
282
     0
283
     0
284
     8
285
     0
286
     0
287
     3
288
     0
  0
ENDTAB
  0
TABLE
  2
BLOCK_RECORD
  5
1
330
0
100
AcDbSymbolTable
 70
     1
  0
BLOCK_RECORD
  5
1F
330
1
100
AcDbSymbolTableRecord
100
AcDbBlockTableRecord
  2
*MODEL_SPACE
  0
BLOCK_RECORD
  5
1B
330
1
100
AcDbSymbolTableRecord
100
AcDbBlockTableRecord
  2
*PAPER_SPACE
  0
ENDTAB
  0
ENDSEC
  0
SECTION
  2
BLOCKS
  0
BLOCK
  5
20
330
1F
100
AcDbEntity
  8
0
100
AcDbBlockBegin
  2
*MODEL_SPACE
 70
     0
 10
0.0
 20
0.0
 30
0.0
  3
*MODEL_SPACE
  1

  0
ENDBLK
  5
21
330
1F
100
AcDbEntity
  8
0
100
AcDbBlockEnd
  0
BLOCK
  5
1C
330
1B
100
AcDbEntity
 67
     1
  8
0
100
AcDbBlockBegin
  2
*PAPER_SPACE
  1

  0
ENDBLK
  5
1D
330
1B
100
AcDbEntity
 67
     1
  8
0
100
AcDbBlockEnd
  0
ENDSEC
  0
SECTION
  2
ENTITIES
0
LINE
8
Calque 1
62
4
5
100
100
AcDbEntity
100
AcDbLine
10
-236.025972
20
282.861255
30
0.0
11
-236.025972
21
287.579658
31
0.0
0
LINE
8
Calque 1
62
4
5
101
100
AcDbEntity
100
AcDbLine
10
-236.025972
20
287.579658
30
0.0
11
-233.909306
21
287.579658
31
0.0
0
LINE
8
Calque 1
62
4
5
102
100
AcDbEntity
100
AcDbLine
10
-233.909306
20
287.579658
30
0.0
11
-231.492778
21
297.272227
31
0.0
0
LINE
8
Calque 1
62
4
5
103
100
AcDbEntity
100
AcDbLine
10
-231.492778
20
297.272227
30
0.0
11
-219.621806
21
297.272227
31
0.0
0
LINE
8
Calque 1
62
4
5
104
100
AcDbEntity
100
AcDbLine
10
-219.621806
20
297.272227
30
0.0
11
-221.914861
21
306.973616
31
0.0
0
LINE
8
Calque 1
62
4
5
105
100
AcDbEntity
100
AcDbLine
10
-221.914861
20
306.973616
30
0.0
11
-229.067431
21
306.973616
31
0.0
0
LINE
8
Calque 1
62
4
5
106
100
AcDbEntity
100
AcDbLine
10
-229.067431
20
306.973616
30
0.0
11
-224.604792
21
324.903547
31
0.0
0
LINE
8
Calque 1
62
4
5
107
100
AcDbEntity
100
AcDbLine
10
-224.604792
20
324.903547
30
0.0
11
-220.918264
21
310.095700
31
0.0
0
LINE
8
Calque 1
62
4
5
108
100
AcDbEntity
100
AcDbLine
10
-220.918264
20
310.095700
30
0.0
11
-220.821250
21
309.707644
31
0.0
0
LINE
8
Calque 1
62
4
5
109
100
AcDbEntity
100
AcDbLine
10
-220.821250
20
309.707644
30
0.0
11
-220.142153
21
306.973616
31
0.0
0
LINE
8
Calque 1
62
4
5
10a
100
AcDbEntity
100
AcDbLine
10
-220.142153
20
306.973616
30
0.0
11
-220.150958
21
306.973616
31
0.0
0
LINE
8
Calque 1
62
4
5
10b
100
AcDbEntity
100
AcDbLine
10
-220.150958
20
306.973616
30
0.0
11
-217.760889
21
297.272227
31
0.0
0
LINE
8
Calque 1
62
4
5
10c
100
AcDbEntity
100
AcDbLine
10
-217.760889
20
297.272227
30
0.0
11
-217.725611
21
297.272227
31
0.0
0
LINE
8
Calque 1
62
4
5
10d
100
AcDbEntity
100
AcDbLine
10
-217.725611
20
297.272227
30
0.0
11
-215.300264
21
287.579658
31
0.0
0
LINE
8
Calque 1
62
4
5
10e
100
AcDbEntity
100
AcDbLine
10
-215.300264
20
287.579658
30
0.0
11
-205.316653
21
287.579658
31
0.0
0
LINE
8
Calque 1
62
4
5
10f
100
AcDbEntity
100
AcDbLine
10
-205.316653
20
287.579658
30
0.0
11
-219.374847
21
345.752714
31
0.0
0
LINE
8
Calque 1
62
4
5
110
100
AcDbEntity
100
AcDbLine
10
-219.374847
20
345.752714
30
0.0
11
-229.843528
21
345.752714
31
0.0
0
LINE
8
Calque 1
62
4
5
111
100
AcDbEntity
100
AcDbLine
10
-229.843528
20
345.752714
30
0.0
11
-243.901722
21
287.579658
31
0.0
0
LINE
8
Calque 1
62
4
5
112
100
AcDbEntity
100
AcDbLine
10
-243.901722
20
287.579658
30
0.0
11
-241.970264
21
287.579658
31
0.0
0
LINE
8
Calque 1
62
4
5
113
100
AcDbEntity
100
AcDbLine
10
-241.970264
20
287.579658
30
0.0
11
-241.970264
21
282.861255
31
0.0
0
LINE
8
Calque 1
62
4
5
114
100
AcDbEntity
100
AcDbLine
10
-177.385486
20
282.808339
30
0.0
11
-177.385486
21
287.579658
31
0.0
0
LINE
8
Calque 1
62
4
5
115
100
AcDbEntity
100
AcDbLine
10
-177.385486
20
287.579658
30
0.0
11
-171.405903
21
287.579658
31
0.0
0
LINE
8
Calque 1
62
4
5
116
100
AcDbEntity
100
AcDbLine
10
-171.405903
20
287.579658
30
0.0
11
-171.405903
21
297.272227
31
0.0
0
LINE
8
Calque 1
62
4
5
117
100
AcDbEntity
100
AcDbLine
10
-171.405903
20
297.272227
30
0.0
11
-185.728681
21
297.272227
31
0.0
0
LINE
8
Calque 1
62
4
5
118
100
AcDbEntity
100
AcDbLine
10
-185.728681
20
297.272227
30
0.0
11
-185.728681
21
311.815491
31
0.0
0
LINE
8
Calque 1
62
4
5
119
100
AcDbEntity
100
AcDbLine
10
-185.728681
20
311.815491
30
0.0
11
-171.405903
21
311.815491
31
0.0
0
LINE
8
Calque 1
62
4
5
11a
100
AcDbEntity
100
AcDbLine
10
-171.405903
20
311.815491
30
0.0
11
-171.405903
21
321.508061
31
0.0
0
LINE
8
Calque 1
62
4
5
11b
100
AcDbEntity
100
AcDbLine
10
-171.405903
20
321.508061
30
0.0
11
-185.728681
21
321.508061
31
0.0
0
LINE
8
Calque 1
62
4
5
11c
100
AcDbEntity
100
AcDbLine
10
-185.728681
20
321.508061
30
0.0
11
-185.728681
21
336.051325
31
0.0
0
LINE
8
Calque 1
62
4
5
11d
100
AcDbEntity
100
AcDbLine
10
-185.728681
20
336.051325
30
0.0
11
-170.312292
21
336.051325
31
0.0
0
LINE
8
Calque 1
62
4
5
11e
100
AcDbEntity
100
AcDbLine
10
-170.312292
20
336.051325
30
0.0
11
-166.343542
21
332.082575
31
0.0
0
LINE
8
Calque 1
62
4
5
11f
100
AcDbEntity
100
AcDbLine
10
-166.343542
20
332.082575
30
0.0
11
-166.343542
21
325.485630
31
0.0
0
LINE
8
Calque 1
62
4
5
120
100
AcDbEntity
100
AcDbLine
10
-166.343542
20
325.485630
30
0.0
11
-170.312292
21
321.508061
31
0.0
0
LINE
8
Calque 1
62
4
5
121
100
AcDbEntity
100
AcDbLine
10
-170.312292
20
321.508061
30
0.0
11
-170.453403
21
321.508061
31
0.0
0
LINE
8
Calque 1
62
4
5
122
100
AcDbEntity
100
AcDbLine
10
-170.453403
20
321.508061
30
0.0
11
-170.515139
21
311.815491
31
0.0
0
LINE
8
Calque 1
62
4
5
123
100
AcDbEntity
100
AcDbLine
10
-170.515139
20
311.815491
30
0.0
11
-170.312292
21
311.815491
31
0.0
0
LINE
8
Calque 1
62
4
5
124
100
AcDbEntity
100
AcDbLine
10
-170.312292
20
311.815491
30
0.0
11
-166.343542
21
307.837922
31
0.0
0
LINE
8
Calque 1
62
4
5
125
100
AcDbEntity
100
AcDbLine
10
-166.343542
20
307.837922
30
0.0
11
-166.343542
21
301.249797
31
0.0
0
LINE
8
Calque 1
62
4
5
126
100
AcDbEntity
100
AcDbLine
10
-166.343542
20
301.249797
30
0.0
11
-170.312292
21
297.272227
31
0.0
0
LINE
8
Calque 1
62
4
5
127
100
AcDbEntity
100
AcDbLine
10
-170.312292
20
297.272227
30
0.0
11
-170.612153
21
297.272227
31
0.0
0
LINE
8
Calque 1
62
4
5
128
100
AcDbEntity
100
AcDbLine
10
-170.612153
20
297.272227
30
0.0
11
-170.673889
21
287.579658
31
0.0
0
LINE
8
Calque 1
62
4
5
129
100
AcDbEntity
100
AcDbLine
10
-170.673889
20
287.579658
30
0.0
11
-166.343542
21
287.579658
31
0.0
0
LINE
8
Calque 1
62
4
5
12a
100
AcDbEntity
100
AcDbLine
10
-166.343542
20
287.579658
30
0.0
11
-156.642153
21
297.272227
31
0.0
0
LINE
8
Calque 1
62
4
5
12b
100
AcDbEntity
100
AcDbLine
10
-156.642153
20
297.272227
30
0.0
11
-156.642153
21
311.815491
31
0.0
0
LINE
8
Calque 1
62
4
5
12c
100
AcDbEntity
100
AcDbLine
10
-156.642153
20
311.815491
30
0.0
11
-161.492847
21
316.666186
31
0.0
0
LINE
8
Calque 1
62
4
5
12d
100
AcDbEntity
100
AcDbLine
10
-161.492847
20
316.666186
30
0.0
11
-156.642153
21
321.508061
31
0.0
0
LINE
8
Calque 1
62
4
5
12e
100
AcDbEntity
100
AcDbLine
10
-156.642153
20
321.508061
30
0.0
11
-156.642153
21
336.051325
31
0.0
0
LINE
8
Calque 1
62
4
5
12f
100
AcDbEntity
100
AcDbLine
10
-156.642153
20
336.051325
30
0.0
11
-166.343542
21
345.752714
31
0.0
0
LINE
8
Calque 1
62
4
5
130
100
AcDbEntity
100
AcDbLine
10
-166.343542
20
345.752714
30
0.0
11
-195.430069
21
345.752714
31
0.0
0
LINE
8
Calque 1
62
4
5
131
100
AcDbEntity
100
AcDbLine
10
-195.430069
20
345.752714
30
0.0
11
-195.430069
21
287.579658
31
0.0
0
LINE
8
Calque 1
62
4
5
132
100
AcDbEntity
100
AcDbLine
10
-195.430069
20
287.579658
30
0.0
11
-183.329792
21
287.579658
31
0.0
0
LINE
8
Calque 1
62
4
5
133
100
AcDbEntity
100
AcDbLine
10
-183.329792
20
287.579658
30
0.0
11
-183.329792
21
282.808339
31
0.0
0
LINE
8
Calque 1
62
4
5
134
100
AcDbEntity
100
AcDbLine
10
-124.909792
20
282.914172
30
0.0
11
-124.909792
21
287.579658
31
0.0
0
LINE
8
Calque 1
62
4
5
135
100
AcDbEntity
100
AcDbLine
10
-124.909792
20
287.579658
30
0.0
11
-118.251111
21
287.579658
31
0.0
0
LINE
8
Calque 1
62
4
5
136
100
AcDbEntity
100
AcDbLine
10
-118.251111
20
287.579658
30
0.0
11
-108.170486
21
297.272227
31
0.0
0
LINE
8
Calque 1
62
4
5
137
100
AcDbEntity
100
AcDbLine
10
-108.170486
20
297.272227
30
0.0
11
-108.170486
21
302.122922
31
0.0
0
LINE
8
Calque 1
62
4
5
138
100
AcDbEntity
100
AcDbLine
10
-108.170486
20
302.122922
30
0.0
11
-117.863056
21
302.122922
31
0.0
0
LINE
8
Calque 1
62
4
5
139
100
AcDbEntity
100
AcDbLine
10
-117.863056
20
302.122922
30
0.0
11
-117.863056
21
301.249797
31
0.0
0
LINE
8
Calque 1
62
4
5
13a
100
AcDbEntity
100
AcDbLine
10
-117.863056
20
301.249797
30
0.0
11
-121.840625
21
297.272227
31
0.0
0
LINE
8
Calque 1
62
4
5
13b
100
AcDbEntity
100
AcDbLine
10
-121.840625
20
297.272227
30
0.0
11
-133.279444
21
297.272227
31
0.0
0
LINE
8
Calque 1
62
4
5
13c
100
AcDbEntity
100
AcDbLine
10
-133.279444
20
297.272227
30
0.0
11
-137.257014
21
301.249797
31
0.0
0
LINE
8
Calque 1
62
4
5
13d
100
AcDbEntity
100
AcDbLine
10
-137.257014
20
301.249797
30
0.0
11
-137.257014
21
332.082575
31
0.0
0
LINE
8
Calque 1
62
4
5
13e
100
AcDbEntity
100
AcDbLine
10
-137.257014
20
332.082575
30
0.0
11
-133.279444
21
336.051325
31
0.0
0
LINE
8
Calque 1
62
4
5
13f
100
AcDbEntity
100
AcDbLine
10
-133.279444
20
336.051325
30
0.0
11
-121.840625
21
336.051325
31
0.0
0
LINE
8
Calque 1
62
4
5
140
100
AcDbEntity
100
AcDbLine
10
-121.840625
20
336.051325
30
0.0
11
-117.863056
21
332.082575
31
0.0
0
LINE
8
Calque 1
62
4
5
141
100
AcDbEntity
100
AcDbLine
10
-117.863056
20
332.082575
30
0.0
11
-117.863056
21
331.209450
31
0.0
0
LINE
8
Calque 1
62
4
5
142
100
AcDbEntity
100
AcDbLine
10
-117.863056
20
331.209450
30
0.0
11
-108.170486
21
331.209450
31
0.0
0
LINE
8
Calque 1
62
4
5
143
100
AcDbEntity
100
AcDbLine
10
-108.170486
20
331.209450
30
0.0
11
-108.170486
21
336.051325
31
0.0
0
LINE
8
Calque 1
62
4
5
144
100
AcDbEntity
100
AcDbLine
10
-108.170486
20
336.051325
30
0.0
11
-117.863056
21
345.752714
31
0.0
0
LINE
8
Calque 1
62
4
5
145
100
AcDbEntity
100
AcDbLine
10
-117.863056
20
345.752714
30
0.0
11
-137.257014
21
345.752714
31
0.0
0
LINE
8
Calque 1
62
4
5
146
100
AcDbEntity
100
AcDbLine
10
-137.257014
20
345.752714
30
0.0
11
-146.949583
21
336.051325
31
0.0
0
LINE
8
Calque 1
62
4
5
147
100
AcDbEntity
100
AcDbLine
10
-146.949583
20
336.051325
30
0.0
11
-146.949583
21
297.272227
31
0.0
0
LINE
8
Calque 1
62
4
5
148
100
AcDbEntity
100
AcDbLine
10
-146.949583
20
297.272227
30
0.0
11
-137.257014
21
287.579658
31
0.0
0
LINE
8
Calque 1
62
4
5
149
100
AcDbEntity
100
AcDbLine
10
-137.257014
20
287.579658
30
0.0
11
-130.854097
21
287.579658
31
0.0
0
LINE
8
Calque 1
62
4
5
14a
100
AcDbEntity
100
AcDbLine
10
-130.854097
20
287.579658
30
0.0
11
-130.854097
21
282.914172
31
0.0
0
LINE
8
Calque 1
62
4
5
14b
100
AcDbEntity
100
AcDbLine
10
-76.623333
20
282.914172
30
0.0
11
-76.623333
21
287.579658
31
0.0
0
LINE
8
Calque 1
62
4
5
14c
100
AcDbEntity
100
AcDbLine
10
-76.623333
20
287.579658
30
0.0
11
-69.391389
21
287.579658
31
0.0
0
LINE
8
Calque 1
62
4
5
14d
100
AcDbEntity
100
AcDbLine
10
-69.391389
20
287.579658
30
0.0
11
-59.690000
21
297.272227
31
0.0
0
LINE
8
Calque 1
62
4
5
14e
100
AcDbEntity
100
AcDbLine
10
-59.690000
20
297.272227
30
0.0
11
-59.690000
21
336.051325
31
0.0
0
LINE
8
Calque 1
62
4
5
14f
100
AcDbEntity
100
AcDbLine
10
-59.690000
20
336.051325
30
0.0
11
-69.391389
21
345.752714
31
0.0
0
LINE
8
Calque 1
62
4
5
150
100
AcDbEntity
100
AcDbLine
10
-69.391389
20
345.752714
30
0.0
11
-98.477917
21
345.752714
31
0.0
0
LINE
8
Calque 1
62
4
5
151
100
AcDbEntity
100
AcDbLine
10
-98.477917
20
345.752714
30
0.0
11
-98.477917
21
287.579658
31
0.0
0
LINE
8
Calque 1
62
4
5
152
100
AcDbEntity
100
AcDbLine
10
-98.477917
20
287.579658
30
0.0
11
-88.688333
21
287.579658
31
0.0
0
LINE
8
Calque 1
62
4
5
153
100
AcDbEntity
100
AcDbLine
10
-88.688333
20
287.579658
30
0.0
11
-88.626597
21
297.272227
31
0.0
0
LINE
8
Calque 1
62
4
5
154
100
AcDbEntity
100
AcDbLine
10
-88.626597
20
297.272227
30
0.0
11
-88.776528
21
297.272227
31
0.0
0
LINE
8
Calque 1
62
4
5
155
100
AcDbEntity
100
AcDbLine
10
-88.776528
20
297.272227
30
0.0
11
-88.776528
21
336.051325
31
0.0
0
LINE
8
Calque 1
62
4
5
156
100
AcDbEntity
100
AcDbLine
10
-88.776528
20
336.051325
30
0.0
11
-73.368958
21
336.051325
31
0.0
0
LINE
8
Calque 1
62
4
5
157
100
AcDbEntity
100
AcDbLine
10
-73.368958
20
336.051325
30
0.0
11
-69.391389
21
332.082575
31
0.0
0
LINE
8
Calque 1
62
4
5
158
100
AcDbEntity
100
AcDbLine
10
-69.391389
20
332.082575
30
0.0
11
-69.391389
21
301.249797
31
0.0
0
LINE
8
Calque 1
62
4
5
159
100
AcDbEntity
100
AcDbLine
10
-69.391389
20
301.249797
30
0.0
11
-73.368958
21
297.272227
31
0.0
0
LINE
8
Calque 1
62
4
5
15a
100
AcDbEntity
100
AcDbLine
10
-73.368958
20
297.272227
30
0.0
11
-88.167986
21
297.272227
31
0.0
0
LINE
8
Calque 1
62
4
5
15b
100
AcDbEntity
100
AcDbLine
10
-88.167986
20
297.272227
30
0.0
11
-88.194430
21
287.579658
31
0.0
0
LINE
8
Calque 1
62
4
5
15c
100
AcDbEntity
100
AcDbLine
10
-88.194430
20
287.579658
30
0.0
11
-82.567625
21
287.579658
31
0.0
0
LINE
8
Calque 1
62
4
5
15d
100
AcDbEntity
100
AcDbLine
10
-82.567625
20
287.579658
30
0.0
11
-82.567625
21
282.914172
31
0.0
0
LINE
8
Calque 1
62
4
5
15e
100
AcDbEntity
100
AcDbLine
10
-27.234444
20
282.914172
30
0.0
11
-27.234444
21
287.579658
31
0.0
0
LINE
8
Calque 1
62
4
5
15f
100
AcDbEntity
100
AcDbLine
10
-27.234444
20
287.579658
30
0.0
11
-11.218333
21
287.579658
31
0.0
0
LINE
8
Calque 1
62
4
5
160
100
AcDbEntity
100
AcDbLine
10
-11.218333
20
287.579658
30
0.0
11
-11.218333
21
297.272227
31
0.0
0
LINE
8
Calque 1
62
4
5
161
100
AcDbEntity
100
AcDbLine
10
-11.218333
20
297.272227
30
0.0
11
-40.304861
21
297.272227
31
0.0
0
LINE
8
Calque 1
62
4
5
162
100
AcDbEntity
100
AcDbLine
10
-40.304861
20
297.272227
30
0.0
11
-40.304861
21
311.815491
31
0.0
0
LINE
8
Calque 1
62
4
5
163
100
AcDbEntity
100
AcDbLine
10
-40.304861
20
311.815491
30
0.0
11
-25.761597
21
311.815491
31
0.0
0
LINE
8
Calque 1
62
4
5
164
100
AcDbEntity
100
AcDbLine
10
-25.761597
20
311.815491
30
0.0
11
-25.761597
21
321.508061
31
0.0
0
LINE
8
Calque 1
62
4
5
165
100
AcDbEntity
100
AcDbLine
10
-25.761597
20
321.508061
30
0.0
11
-40.304861
21
321.508061
31
0.0
0
LINE
8
Calque 1
62
4
5
166
100
AcDbEntity
100
AcDbLine
10
-40.304861
20
321.508061
30
0.0
11
-40.304861
21
336.051325
31
0.0
0
LINE
8
Calque 1
62
4
5
167
100
AcDbEntity
100
AcDbLine
10
-40.304861
20
336.051325
30
0.0
11
-11.218333
21
336.051325
31
0.0
0
LINE
8
Calque 1
62
4
5
168
100
AcDbEntity
100
AcDbLine
10
-11.218333
20
336.051325
30
0.0
11
-11.218333
21
345.752714
31
0.0
0
LINE
8
Calque 1
62
4
5
169
100
AcDbEntity
100
AcDbLine
10
-11.218333
20
345.752714
30
0.0
11
-49.997431
21
345.752714
31
0.0
0
LINE
8
Calque 1
62
4
5
16a
100
AcDbEntity
100
AcDbLine
10
-49.997431
20
345.752714
30
0.0
11
-49.997431
21
287.579658
31
0.0
0
LINE
8
Calque 1
62
4
5
16b
100
AcDbEntity
100
AcDbLine
10
-49.997431
20
287.579658
30
0.0
11
-33.178750
21
287.579658
31
0.0
0
LINE
8
Calque 1
62
4
5
16c
100
AcDbEntity
100
AcDbLine
10
-33.178750
20
287.579658
30
0.0
11
-33.178750
21
282.914172
31
0.0
0
LINE
8
Calque 1
62
4
5
16d
100
AcDbEntity
100
AcDbLine
10
6.605764
20
282.914172
30
0.0
11
6.605764
21
287.579658
31
0.0
0
LINE
8
Calque 1
62
4
5
16e
100
AcDbEntity
100
AcDbLine
10
6.605764
20
287.579658
30
0.0
11
8.166806
21
287.579658
31
0.0
0
LINE
8
Calque 1
62
4
5
16f
100
AcDbEntity
100
AcDbLine
10
8.166806
20
287.579658
30
0.0
11
8.166806
21
311.815491
31
0.0
0
LINE
8
Calque 1
62
4
5
170
100
AcDbEntity
100
AcDbLine
10
8.166806
20
311.815491
30
0.0
11
22.710069
21
311.815491
31
0.0
0
LINE
8
Calque 1
62
4
5
171
100
AcDbEntity
100
AcDbLine
10
22.710069
20
311.815491
30
0.0
11
22.710069
21
321.508061
31
0.0
0
LINE
8
Calque 1
62
4
5
172
100
AcDbEntity
100
AcDbLine
10
22.710069
20
321.508061
30
0.0
11
8.166806
21
321.508061
31
0.0
0
LINE
8
Calque 1
62
4
5
173
100
AcDbEntity
100
AcDbLine
10
8.166806
20
321.508061
30
0.0
11
8.166806
21
336.051325
31
0.0
0
LINE
8
Calque 1
62
4
5
174
100
AcDbEntity
100
AcDbLine
10
8.166806
20
336.051325
30
0.0
11
37.262153
21
336.051325
31
0.0
0
LINE
8
Calque 1
62
4
5
175
100
AcDbEntity
100
AcDbLine
10
37.262153
20
336.051325
30
0.0
11
37.262153
21
345.752714
31
0.0
0
LINE
8
Calque 1
62
4
5
176
100
AcDbEntity
100
AcDbLine
10
37.262153
20
345.752714
30
0.0
11
-1.525764
21
345.752714
31
0.0
0
LINE
8
Calque 1
62
4
5
177
100
AcDbEntity
100
AcDbLine
10
-1.525764
20
345.752714
30
0.0
11
-1.525764
21
287.579658
31
0.0
0
LINE
8
Calque 1
62
4
5
178
100
AcDbEntity
100
AcDbLine
10
-1.525764
20
287.579658
30
0.0
11
0.670278
21
287.579658
31
0.0
0
LINE
8
Calque 1
62
4
5
179
100
AcDbEntity
100
AcDbLine
10
0.670278
20
287.579658
30
0.0
11
0.670278
21
282.914172
31
0.0
0
LINE
8
Calque 1
62
4
5
17a
100
AcDbEntity
100
AcDbLine
10
69.558958
20
282.808339
30
0.0
11
69.558958
21
287.579658
31
0.0
0
LINE
8
Calque 1
62
4
5
17b
100
AcDbEntity
100
AcDbLine
10
69.558958
20
287.579658
30
0.0
11
75.653194
21
287.579658
31
0.0
0
LINE
8
Calque 1
62
4
5
17c
100
AcDbEntity
100
AcDbLine
10
75.653194
20
287.579658
30
0.0
11
85.733819
21
297.272227
31
0.0
0
LINE
8
Calque 1
62
4
5
17d
100
AcDbEntity
100
AcDbLine
10
85.733819
20
297.272227
30
0.0
11
85.733819
21
316.666186
31
0.0
0
LINE
8
Calque 1
62
4
5
17e
100
AcDbEntity
100
AcDbLine
10
85.733819
20
316.666186
30
0.0
11
71.190556
21
316.666186
31
0.0
0
LINE
8
Calque 1
62
4
5
17f
100
AcDbEntity
100
AcDbLine
10
71.190556
20
316.666186
30
0.0
11
71.190556
21
306.973616
31
0.0
0
LINE
8
Calque 1
62
4
5
180
100
AcDbEntity
100
AcDbLine
10
71.190556
20
306.973616
30
0.0
11
76.041250
21
306.973616
31
0.0
0
LINE
8
Calque 1
62
4
5
181
100
AcDbEntity
100
AcDbLine
10
76.041250
20
306.973616
30
0.0
11
76.041250
21
301.249797
31
0.0
0
LINE
8
Calque 1
62
4
5
182
100
AcDbEntity
100
AcDbLine
10
76.041250
20
301.249797
30
0.0
11
72.063681
21
297.272227
31
0.0
0
LINE
8
Calque 1
62
4
5
183
100
AcDbEntity
100
AcDbLine
10
72.063681
20
297.272227
30
0.0
11
60.624861
21
297.272227
31
0.0
0
LINE
8
Calque 1
62
4
5
184
100
AcDbEntity
100
AcDbLine
10
60.624861
20
297.272227
30
0.0
11
56.647292
21
301.249797
31
0.0
0
LINE
8
Calque 1
62
4
5
185
100
AcDbEntity
100
AcDbLine
10
56.647292
20
301.249797
30
0.0
11
56.647292
21
332.082575
31
0.0
0
LINE
8
Calque 1
62
4
5
186
100
AcDbEntity
100
AcDbLine
10
56.647292
20
332.082575
30
0.0
11
60.624861
21
336.051325
31
0.0
0
LINE
8
Calque 1
62
4
5
187
100
AcDbEntity
100
AcDbLine
10
60.624861
20
336.051325
30
0.0
11
72.063681
21
336.051325
31
0.0
0
LINE
8
Calque 1
62
4
5
188
100
AcDbEntity
100
AcDbLine
10
72.063681
20
336.051325
30
0.0
11
76.041250
21
332.082575
31
0.0
0
LINE
8
Calque 1
62
4
5
189
100
AcDbEntity
100
AcDbLine
10
76.041250
20
332.082575
30
0.0
11
76.041250
21
331.209450
31
0.0
0
LINE
8
Calque 1
62
4
5
18a
100
AcDbEntity
100
AcDbLine
10
76.041250
20
331.209450
30
0.0
11
85.733819
21
331.209450
31
0.0
0
LINE
8
Calque 1
62
4
5
18b
100
AcDbEntity
100
AcDbLine
10
85.733819
20
331.209450
30
0.0
11
85.733819
21
336.051325
31
0.0
0
LINE
8
Calque 1
62
4
5
18c
100
AcDbEntity
100
AcDbLine
10
85.733819
20
336.051325
30
0.0
11
76.041250
21
345.752714
31
0.0
0
LINE
8
Calque 1
62
4
5
18d
100
AcDbEntity
100
AcDbLine
10
76.041250
20
345.752714
30
0.0
11
56.647292
21
345.752714
31
0.0
0
LINE
8
Calque 1
62
4
5
18e
100
AcDbEntity
100
AcDbLine
10
56.647292
20
345.752714
30
0.0
11
46.954722
21
336.051325
31
0.0
0
LINE
8
Calque 1
62
4
5
18f
100
AcDbEntity
100
AcDbLine
10
46.954722
20
336.051325
30
0.0
11
46.954722
21
297.272227
31
0.0
0
LINE
8
Calque 1
62
4
5
190
100
AcDbEntity
100
AcDbLine
10
46.954722
20
297.272227
30
0.0
11
56.647292
21
287.579658
31
0.0
0
LINE
8
Calque 1
62
4
5
191
100
AcDbEntity
100
AcDbLine
10
56.647292
20
287.579658
30
0.0
11
63.614653
21
287.579658
31
0.0
0
LINE
8
Calque 1
62
4
5
192
100
AcDbEntity
100
AcDbLine
10
63.614653
20
287.579658
30
0.0
11
63.614653
21
282.808339
31
0.0
0
LINE
8
Calque 1
62
4
5
193
100
AcDbEntity
100
AcDbLine
10
103.399167
20
282.914172
30
0.0
11
103.399167
21
287.579658
31
0.0
0
LINE
8
Calque 1
62
4
5
194
100
AcDbEntity
100
AcDbLine
10
103.399167
20
287.579658
30
0.0
11
105.118958
21
287.579658
31
0.0
0
LINE
8
Calque 1
62
4
5
195
100
AcDbEntity
100
AcDbLine
10
105.118958
20
287.579658
30
0.0
11
105.118958
21
311.815491
31
0.0
0
LINE
8
Calque 1
62
4
5
196
100
AcDbEntity
100
AcDbLine
10
105.118958
20
311.815491
30
0.0
11
124.512917
21
311.815491
31
0.0
0
LINE
8
Calque 1
62
4
5
197
100
AcDbEntity
100
AcDbLine
10
124.512917
20
311.815491
30
0.0
11
124.512917
21
287.579658
31
0.0
0
LINE
8
Calque 1
62
4
5
198
100
AcDbEntity
100
AcDbLine
10
124.512917
20
287.579658
30
0.0
11
134.205486
21
287.579658
31
0.0
0
LINE
8
Calque 1
62
4
5
199
100
AcDbEntity
100
AcDbLine
10
134.205486
20
287.579658
30
0.0
11
134.205486
21
345.752714
31
0.0
0
LINE
8
Calque 1
62
4
5
19a
100
AcDbEntity
100
AcDbLine
10
134.205486
20
345.752714
30
0.0
11
124.512917
21
345.752714
31
0.0
0
LINE
8
Calque 1
62
4
5
19b
100
AcDbEntity
100
AcDbLine
10
124.512917
20
345.752714
30
0.0
11
124.512917
21
321.508061
31
0.0
0
LINE
8
Calque 1
62
4
5
19c
100
AcDbEntity
100
AcDbLine
10
124.512917
20
321.508061
30
0.0
11
105.118958
21
321.508061
31
0.0
0
LINE
8
Calque 1
62
4
5
19d
100
AcDbEntity
100
AcDbLine
10
105.118958
20
321.508061
30
0.0
11
105.118958
21
345.752714
31
0.0
0
LINE
8
Calque 1
62
4
5
19e
100
AcDbEntity
100
AcDbLine
10
105.118958
20
345.752714
30
0.0
11
95.426389
21
345.752714
31
0.0
0
LINE
8
Calque 1
62
4
5
19f
100
AcDbEntity
100
AcDbLine
10
95.426389
20
345.752714
30
0.0
11
95.426389
21
287.579658
31
0.0
0
LINE
8
Calque 1
62
4
5
1a0
100
AcDbEntity
100
AcDbLine
10
95.426389
20
287.579658
30
0.0
11
97.463681
21
287.579658
31
0.0
0
LINE
8
Calque 1
62
4
5
1a1
100
AcDbEntity
100
AcDbLine
10
97.463681
20
287.579658
30
0.0
11
97.463681
21
282.914172
31
0.0
0
LINE
8
Calque 1
62
4
5
1a2
100
AcDbEntity
100
AcDbLine
10
151.685625
20
282.914172
30
0.0
11
151.685625
21
287.579658
31
0.0
0
LINE
8
Calque 1
62
4
5
1a3
100
AcDbEntity
100
AcDbLine
10
151.685625
20
287.579658
30
0.0
11
153.599444
21
287.579658
31
0.0
0
LINE
8
Calque 1
62
4
5
1a4
100
AcDbEntity
100
AcDbLine
10
153.599444
20
287.579658
30
0.0
11
153.599444
21
345.752714
31
0.0
0
LINE
8
Calque 1
62
4
5
1a5
100
AcDbEntity
100
AcDbLine
10
153.599444
20
345.752714
30
0.0
11
143.898056
21
345.752714
31
0.0
0
LINE
8
Calque 1
62
4
5
1a6
100
AcDbEntity
100
AcDbLine
10
143.898056
20
345.752714
30
0.0
11
143.898056
21
287.579658
31
0.0
0
LINE
8
Calque 1
62
4
5
1a7
100
AcDbEntity
100
AcDbLine
10
143.898056
20
287.579658
30
0.0
11
145.750139
21
287.579658
31
0.0
0
LINE
8
Calque 1
62
4
5
1a8
100
AcDbEntity
100
AcDbLine
10
145.750139
20
287.579658
30
0.0
11
145.750139
21
282.914172
31
0.0
0
LINE
8
Calque 1
62
4
5
1a9
100
AcDbEntity
100
AcDbLine
10
186.301944
20
282.808339
30
0.0
11
186.301944
21
287.579658
31
0.0
0
LINE
8
Calque 1
62
4
5
1aa
100
AcDbEntity
100
AcDbLine
10
186.301944
20
287.579658
30
0.0
11
192.299167
21
287.579658
31
0.0
0
LINE
8
Calque 1
62
4
5
1ab
100
AcDbEntity
100
AcDbLine
10
192.299167
20
287.579658
30
0.0
11
202.000556
21
297.272227
31
0.0
0
LINE
8
Calque 1
62
4
5
1ac
100
AcDbEntity
100
AcDbLine
10
202.000556
20
297.272227
30
0.0
11
202.000556
21
345.752714
31
0.0
0
LINE
8
Calque 1
62
4
5
1ad
100
AcDbEntity
100
AcDbLine
10
202.000556
20
345.752714
30
0.0
11
192.299167
21
345.752714
31
0.0
0
LINE
8
Calque 1
62
4
5
1ae
100
AcDbEntity
100
AcDbLine
10
192.299167
20
345.752714
30
0.0
11
192.299167
21
301.249797
31
0.0
0
LINE
8
Calque 1
62
4
5
1af
100
AcDbEntity
100
AcDbLine
10
192.299167
20
301.249797
30
0.0
11
188.330417
21
297.272227
31
0.0
0
LINE
8
Calque 1
62
4
5
1b0
100
AcDbEntity
100
AcDbLine
10
188.330417
20
297.272227
30
0.0
11
176.891597
21
297.272227
31
0.0
0
LINE
8
Calque 1
62
4
5
1b1
100
AcDbEntity
100
AcDbLine
10
176.891597
20
297.272227
30
0.0
11
172.914028
21
301.249797
31
0.0
0
LINE
8
Calque 1
62
4
5
1b2
100
AcDbEntity
100
AcDbLine
10
172.914028
20
301.249797
30
0.0
11
172.914028
21
302.122922
31
0.0
0
LINE
8
Calque 1
62
4
5
1b3
100
AcDbEntity
100
AcDbLine
10
172.914028
20
302.122922
30
0.0
11
163.212639
21
302.122922
31
0.0
0
LINE
8
Calque 1
62
4
5
1b4
100
AcDbEntity
100
AcDbLine
10
163.212639
20
302.122922
30
0.0
11
163.212639
21
297.272227
31
0.0
0
LINE
8
Calque 1
62
4
5
1b5
100
AcDbEntity
100
AcDbLine
10
163.212639
20
297.272227
30
0.0
11
172.914028
21
287.579658
31
0.0
0
LINE
8
Calque 1
62
4
5
1b6
100
AcDbEntity
100
AcDbLine
10
172.914028
20
287.579658
30
0.0
11
180.366458
21
287.579658
31
0.0
0
LINE
8
Calque 1
62
4
5
1b7
100
AcDbEntity
100
AcDbLine
10
180.366458
20
287.579658
30
0.0
11
180.366458
21
282.808339
31
0.0
0
LINE
8
Calque 1
62
4
5
1b8
100
AcDbEntity
100
AcDbLine
10
219.710000
20
282.808339
30
0.0
11
219.710000
21
287.579658
31
0.0
0
LINE
8
Calque 1
62
4
5
1b9
100
AcDbEntity
100
AcDbLine
10
219.710000
20
287.579658
30
0.0
11
221.385694
21
287.579658
31
0.0
0
LINE
8
Calque 1
62
4
5
1ba
100
AcDbEntity
100
AcDbLine
10
221.385694
20
287.579658
30
0.0
11
221.385694
21
307.158825
31
0.0
0
LINE
8
Calque 1
62
4
5
1bb
100
AcDbEntity
100
AcDbLine
10
221.385694
20
307.158825
30
0.0
11
225.460278
21
312.591602
31
0.0
0
LINE
8
Calque 1
62
4
5
1bc
100
AcDbEntity
100
AcDbLine
10
225.460278
20
312.591602
30
0.0
11
239.421458
21
287.579658
31
0.0
0
LINE
8
Calque 1
62
4
5
1bd
100
AcDbEntity
100
AcDbLine
10
239.421458
20
287.579658
30
0.0
11
250.472222
21
287.579658
31
0.0
0
LINE
8
Calque 1
62
4
5
1be
100
AcDbEntity
100
AcDbLine
10
250.472222
20
287.579658
30
0.0
11
231.854375
21
321.120005
31
0.0
0
LINE
8
Calque 1
62
4
5
1bf
100
AcDbEntity
100
AcDbLine
10
231.854375
20
321.120005
30
0.0
11
250.472222
21
345.752714
31
0.0
0
LINE
8
Calque 1
62
4
5
1c0
100
AcDbEntity
100
AcDbLine
10
250.472222
20
345.752714
30
0.0
11
238.354306
21
345.752714
31
0.0
0
LINE
8
Calque 1
62
4
5
1c1
100
AcDbEntity
100
AcDbLine
10
238.354306
20
345.752714
30
0.0
11
221.385694
21
323.254311
31
0.0
0
LINE
8
Calque 1
62
4
5
1c2
100
AcDbEntity
100
AcDbLine
10
221.385694
20
323.254311
30
0.0
11
221.385694
21
345.752714
31
0.0
0
LINE
8
Calque 1
62
4
5
1c3
100
AcDbEntity
100
AcDbLine
10
221.385694
20
345.752714
30
0.0
11
211.693125
21
345.752714
31
0.0
0
LINE
8
Calque 1
62
4
5
1c4
100
AcDbEntity
100
AcDbLine
10
211.693125
20
345.752714
30
0.0
11
211.693125
21
287.579658
31
0.0
0
LINE
8
Calque 1
62
4
5
1c5
100
AcDbEntity
100
AcDbLine
10
211.693125
20
287.579658
30
0.0
11
213.765694
21
287.579658
31
0.0
0
LINE
8
Calque 1
62
4
5
1c6
100
AcDbEntity
100
AcDbLine
10
213.765694
20
287.579658
30
0.0
11
213.765694
21
282.808339
31
0.0
0
LINE
8
Calque 1
62
4
5
1c7
100
AcDbEntity
100
AcDbLine
10
281.887083
20
282.914172
30
0.0
11
281.887083
21
287.579658
31
0.0
0
LINE
8
Calque 1
62
4
5
1c8
100
AcDbEntity
100
AcDbLine
10
281.887083
20
287.579658
30
0.0
11
298.952694
21
287.579658
31
0.0
0
LINE
8
Calque 1
62
4
5
1c9
100
AcDbEntity
100
AcDbLine
10
298.952694
20
287.579658
30
0.0
11
298.952694
21
297.272227
31
0.0
0
LINE
8
Calque 1
62
4
5
1ca
100
AcDbEntity
100
AcDbLine
10
298.952694
20
297.272227
30
0.0
11
269.866181
21
297.272227
31
0.0
0
LINE
8
Calque 1
62
4
5
1cb
100
AcDbEntity
100
AcDbLine
10
269.866181
20
297.272227
30
0.0
11
269.866181
21
345.752714
31
0.0
0
LINE
8
Calque 1
62
4
5
1cc
100
AcDbEntity
100
AcDbLine
10
269.866181
20
345.752714
30
0.0
11
260.164792
21
345.752714
31
0.0
0
LINE
8
Calque 1
62
4
5
1cd
100
AcDbEntity
100
AcDbLine
10
260.164792
20
345.752714
30
0.0
11
260.164792
21
287.579658
31
0.0
0
LINE
8
Calque 1
62
4
5
1ce
100
AcDbEntity
100
AcDbLine
10
260.164792
20
287.579658
30
0.0
11
275.942778
21
287.579658
31
0.0
0
LINE
8
Calque 1
62
4
5
1cf
100
AcDbEntity
100
AcDbLine
10
275.942778
20
287.579658
30
0.0
11
275.942778
21
282.914172
31
0.0
0
LINE
8
Calque 1
62
4
5
1d0
100
AcDbEntity
100
AcDbLine
10
316.388750
20
282.914172
30
0.0
11
316.388750
21
287.579658
31
0.0
0
LINE
8
Calque 1
62
4
5
1d1
100
AcDbEntity
100
AcDbLine
10
316.388750
20
287.579658
30
0.0
11
318.337861
21
287.579658
31
0.0
0
LINE
8
Calque 1
62
4
5
1d2
100
AcDbEntity
100
AcDbLine
10
318.337861
20
287.579658
30
0.0
11
318.337861
21
320.925977
31
0.0
0
LINE
8
Calque 1
62
4
5
1d3
100
AcDbEntity
100
AcDbLine
10
318.337861
20
320.925977
30
0.0
11
332.396028
21
287.579658
31
0.0
0
LINE
8
Calque 1
62
4
5
1d4
100
AcDbEntity
100
AcDbLine
10
332.396028
20
287.579658
30
0.0
11
342.961750
21
287.579658
31
0.0
0
LINE
8
Calque 1
62
4
5
1d5
100
AcDbEntity
100
AcDbLine
10
342.961750
20
287.579658
30
0.0
11
357.116944
21
320.925977
31
0.0
0
LINE
8
Calque 1
62
4
5
1d6
100
AcDbEntity
100
AcDbLine
10
357.116944
20
320.925977
30
0.0
11
357.116944
21
287.579658
31
0.0
0
LINE
8
Calque 1
62
4
5
1d7
100
AcDbEntity
100
AcDbLine
10
357.116944
20
287.579658
30
0.0
11
366.809528
21
287.579658
31
0.0
0
LINE
8
Calque 1
62
4
5
1d8
100
AcDbEntity
100
AcDbLine
10
366.809528
20
287.579658
30
0.0
11
366.809528
21
345.752714
31
0.0
0
LINE
8
Calque 1
62
4
5
1d9
100
AcDbEntity
100
AcDbLine
10
366.809528
20
345.752714
30
0.0
11
357.116944
21
345.752714
31
0.0
0
LINE
8
Calque 1
62
4
5
1da
100
AcDbEntity
100
AcDbLine
10
357.116944
20
345.752714
30
0.0
11
337.731806
21
300.085630
31
0.0
0
LINE
8
Calque 1
62
4
5
1db
100
AcDbEntity
100
AcDbLine
10
337.731806
20
300.085630
30
0.0
11
318.337861
21
345.752714
31
0.0
0
LINE
8
Calque 1
62
4
5
1dc
100
AcDbEntity
100
AcDbLine
10
318.337861
20
345.752714
30
0.0
11
308.645278
21
345.752714
31
0.0
0
LINE
8
Calque 1
62
4
5
1dd
100
AcDbEntity
100
AcDbLine
10
308.645278
20
345.752714
30
0.0
11
308.645278
21
287.579658
31
0.0
0
LINE
8
Calque 1
62
4
5
1de
100
AcDbEntity
100
AcDbLine
10
308.645278
20
287.579658
30
0.0
11
310.453250
21
287.579658
31
0.0
0
LINE
8
Calque 1
62
4
5
1df
100
AcDbEntity
100
AcDbLine
10
310.453250
20
287.579658
30
0.0
11
310.453250
21
282.914172
31
0.0
0
LINE
8
Calque 1
62
4
5
1e0
100
AcDbEntity
100
AcDbLine
10
384.298472
20
282.808339
30
0.0
11
384.298472
21
287.579658
31
0.0
0
LINE
8
Calque 1
62
4
5
1e1
100
AcDbEntity
100
AcDbLine
10
384.298472
20
287.579658
30
0.0
11
386.124083
21
287.579658
31
0.0
0
LINE
8
Calque 1
62
4
5
1e2
100
AcDbEntity
100
AcDbLine
10
386.124083
20
287.579658
30
0.0
11
386.124083
21
324.612505
31
0.0
0
LINE
8
Calque 1
62
4
5
1e3
100
AcDbEntity
100
AcDbLine
10
386.124083
20
324.612505
30
0.0
11
405.518056
21
287.579658
31
0.0
0
LINE
8
Calque 1
62
4
5
1e4
100
AcDbEntity
100
AcDbLine
10
405.518056
20
287.579658
30
0.0
11
415.210639
21
287.579658
31
0.0
0
LINE
8
Calque 1
62
4
5
1e5
100
AcDbEntity
100
AcDbLine
10
415.210639
20
287.579658
30
0.0
11
415.210639
21
345.752714
31
0.0
0
LINE
8
Calque 1
62
4
5
1e6
100
AcDbEntity
100
AcDbLine
10
415.210639
20
345.752714
30
0.0
11
405.518056
21
345.752714
31
0.0
0
LINE
8
Calque 1
62
4
5
1e7
100
AcDbEntity
100
AcDbLine
10
405.518056
20
345.752714
30
0.0
11
405.518056
21
308.614033
31
0.0
0
LINE
8
Calque 1
62
4
5
1e8
100
AcDbEntity
100
AcDbLine
10
405.518056
20
308.614033
30
0.0
11
386.124083
21
345.655700
31
0.0
0
LINE
8
Calque 1
62
4
5
1e9
100
AcDbEntity
100
AcDbLine
10
386.124083
20
345.655700
30
0.0
11
376.431528
21
345.752714
31
0.0
0
LINE
8
Calque 1
62
4
5
1ea
100
AcDbEntity
100
AcDbLine
10
376.431528
20
345.752714
30
0.0
11
376.431528
21
287.579658
31
0.0
0
LINE
8
Calque 1
62
4
5
1eb
100
AcDbEntity
100
AcDbLine
10
376.431528
20
287.579658
30
0.0
11
378.362972
21
287.579658
31
0.0
0
LINE
8
Calque 1
62
4
5
1ec
100
AcDbEntity
100
AcDbLine
10
378.362972
20
287.579658
30
0.0
11
378.362972
21
282.808339
31
0.0
0
LINE
8
Calque 1
62
4
5
1ed
100
AcDbEntity
100
AcDbLine
10
447.913139
20
282.914172
30
0.0
11
447.913139
21
287.579658
31
0.0
0
LINE
8
Calque 1
62
4
5
1ee
100
AcDbEntity
100
AcDbLine
10
447.913139
20
287.579658
30
0.0
11
453.610472
21
287.579658
31
0.0
0
LINE
8
Calque 1
62
4
5
1ef
100
AcDbEntity
100
AcDbLine
10
453.610472
20
287.579658
30
0.0
11
457.588056
21
291.407297
31
0.0
0
LINE
8
Calque 1
62
4
5
1f0
100
AcDbEntity
100
AcDbLine
10
457.588056
20
291.407297
30
0.0
11
451.202778
21
298.454033
31
0.0
0
LINE
8
Calque 1
62
4
5
1f1
100
AcDbEntity
100
AcDbLine
10
451.202778
20
298.454033
30
0.0
11
450.020972
21
297.272227
31
0.0
0
LINE
8
Calque 1
62
4
5
1f2
100
AcDbEntity
100
AcDbLine
10
450.020972
20
297.272227
30
0.0
11
438.582139
21
297.272227
31
0.0
0
LINE
8
Calque 1
62
4
5
1f3
100
AcDbEntity
100
AcDbLine
10
438.582139
20
297.272227
30
0.0
11
434.604583
21
301.249797
31
0.0
0
LINE
8
Calque 1
62
4
5
1f4
100
AcDbEntity
100
AcDbLine
10
434.604583
20
301.249797
30
0.0
11
434.604583
21
332.082575
31
0.0
0
LINE
8
Calque 1
62
4
5
1f5
100
AcDbEntity
100
AcDbLine
10
434.604583
20
332.082575
30
0.0
11
438.582139
21
336.051325
31
0.0
0
LINE
8
Calque 1
62
4
5
1f6
100
AcDbEntity
100
AcDbLine
10
438.582139
20
336.051325
30
0.0
11
450.020972
21
336.051325
31
0.0
0
LINE
8
Calque 1
62
4
5
1f7
100
AcDbEntity
100
AcDbLine
10
450.020972
20
336.051325
30
0.0
11
453.998528
21
332.082575
31
0.0
0
LINE
8
Calque 1
62
4
5
1f8
100
AcDbEntity
100
AcDbLine
10
453.998528
20
332.082575
30
0.0
11
453.998528
21
301.249797
31
0.0
0
LINE
8
Calque 1
62
4
5
1f9
100
AcDbEntity
100
AcDbLine
10
453.998528
20
301.249797
30
0.0
11
451.582028
21
298.833269
31
0.0
0
LINE
8
Calque 1
62
4
5
1fa
100
AcDbEntity
100
AcDbLine
10
451.582028
20
298.833269
30
0.0
11
457.967306
21
291.768894
31
0.0
0
LINE
8
Calque 1
62
4
5
1fb
100
AcDbEntity
100
AcDbLine
10
457.967306
20
291.768894
30
0.0
11
463.691111
21
297.272227
31
0.0
0
LINE
8
Calque 1
62
4
5
1fc
100
AcDbEntity
100
AcDbLine
10
463.691111
20
297.272227
30
0.0
11
463.691111
21
336.051325
31
0.0
0
LINE
8
Calque 1
62
4
5
1fd
100
AcDbEntity
100
AcDbLine
10
463.691111
20
336.051325
30
0.0
11
453.998528
21
345.752714
31
0.0
0
LINE
8
Calque 1
62
4
5
1fe
100
AcDbEntity
100
AcDbLine
10
453.998528
20
345.752714
30
0.0
11
434.604583
21
345.752714
31
0.0
0
LINE
8
Calque 1
62
4
5
1ff
100
AcDbEntity
100
AcDbLine
10
434.604583
20
345.752714
30
0.0
11
424.903194
21
336.051325
31
0.0
0
LINE
8
Calque 1
62
4
5
200
100
AcDbEntity
100
AcDbLine
10
424.903194
20
336.051325
30
0.0
11
424.903194
21
297.272227
31
0.0
0
LINE
8
Calque 1
62
4
5
201
100
AcDbEntity
100
AcDbLine
10
424.903194
20
297.272227
30
0.0
11
434.604583
21
287.579658
31
0.0
0
LINE
8
Calque 1
62
4
5
202
100
AcDbEntity
100
AcDbLine
10
434.604583
20
287.579658
30
0.0
11
441.968805
21
287.579658
31
0.0
0
LINE
8
Calque 1
62
4
5
203
100
AcDbEntity
100
AcDbLine
10
441.968805
20
287.579658
30
0.0
11
441.968805
21
282.914172
31
0.0
0
LINE
8
Calque 1
62
4
5
204
100
AcDbEntity
100
AcDbLine
10
480.986028
20
282.808339
30
0.0
11
480.986028
21
287.579658
31
0.0
0
LINE
8
Calque 1
62
4
5
205
100
AcDbEntity
100
AcDbLine
10
480.986028
20
287.579658
30
0.0
11
483.076250
21
287.579658
31
0.0
0
LINE
8
Calque 1
62
4
5
206
100
AcDbEntity
100
AcDbLine
10
483.076250
20
287.579658
30
0.0
11
483.076250
21
311.815491
31
0.0
0
LINE
8
Calque 1
62
4
5
207
100
AcDbEntity
100
AcDbLine
10
483.076250
20
311.815491
30
0.0
11
502.082139
21
311.815491
31
0.0
0
LINE
8
Calque 1
62
4
5
208
100
AcDbEntity
100
AcDbLine
10
502.082139
20
311.815491
30
0.0
11
506.959306
21
316.498616
31
0.0
0
LINE
8
Calque 1
62
4
5
209
100
AcDbEntity
100
AcDbLine
10
506.959306
20
316.498616
30
0.0
11
500.027222
21
323.042644
31
0.0
0
LINE
8
Calque 1
62
4
5
20a
100
AcDbEntity
100
AcDbLine
10
500.027222
20
323.042644
30
0.0
11
498.492639
21
321.508061
31
0.0
0
LINE
8
Calque 1
62
4
5
20b
100
AcDbEntity
100
AcDbLine
10
498.492639
20
321.508061
30
0.0
11
483.076250
21
321.508061
31
0.0
0
LINE
8
Calque 1
62
4
5
20c
100
AcDbEntity
100
AcDbLine
10
483.076250
20
321.508061
30
0.0
11
483.076250
21
336.051325
31
0.0
0
LINE
8
Calque 1
62
4
5
20d
100
AcDbEntity
100
AcDbLine
10
483.076250
20
336.051325
30
0.0
11
498.492639
21
336.051325
31
0.0
0
LINE
8
Calque 1
62
4
5
20e
100
AcDbEntity
100
AcDbLine
10
498.492639
20
336.051325
30
0.0
11
502.470194
21
332.082575
31
0.0
0
LINE
8
Calque 1
62
4
5
20f
100
AcDbEntity
100
AcDbLine
10
502.470194
20
332.082575
30
0.0
11
502.470194
21
325.485630
31
0.0
0
LINE
8
Calque 1
62
4
5
210
100
AcDbEntity
100
AcDbLine
10
502.470194
20
325.485630
30
0.0
11
500.538750
21
323.554172
31
0.0
0
LINE
8
Calque 1
62
4
5
211
100
AcDbEntity
100
AcDbLine
10
500.538750
20
323.554172
30
0.0
11
507.453194
21
316.974866
31
0.0
0
LINE
8
Calque 1
62
4
5
212
100
AcDbEntity
100
AcDbLine
10
507.453194
20
316.974866
30
0.0
11
512.162778
21
321.508061
31
0.0
0
LINE
8
Calque 1
62
4
5
213
100
AcDbEntity
100
AcDbLine
10
512.162778
20
321.508061
30
0.0
11
512.162778
21
336.051325
31
0.0
0
LINE
8
Calque 1
62
4
5
214
100
AcDbEntity
100
AcDbLine
10
512.162778
20
336.051325
30
0.0
11
502.470194
21
345.752714
31
0.0
0
LINE
8
Calque 1
62
4
5
215
100
AcDbEntity
100
AcDbLine
10
502.470194
20
345.752714
30
0.0
11
473.383695
21
345.752714
31
0.0
0
LINE
8
Calque 1
62
4
5
216
100
AcDbEntity
100
AcDbLine
10
473.383695
20
345.752714
30
0.0
11
473.383695
21
287.579658
31
0.0
0
LINE
8
Calque 1
62
4
5
217
100
AcDbEntity
100
AcDbLine
10
473.383695
20
287.579658
30
0.0
11
475.041750
21
287.579658
31
0.0
0
LINE
8
Calque 1
62
4
5
218
100
AcDbEntity
100
AcDbLine
10
475.041750
20
287.579658
30
0.0
11
475.041750
21
282.808339
31
0.0
0
LINE
8
Calque 1
62
4
5
219
100
AcDbEntity
100
AcDbLine
10
534.026195
20
282.914172
30
0.0
11
534.026195
21
287.579658
31
0.0
0
LINE
8
Calque 1
62
4
5
21a
100
AcDbEntity
100
AcDbLine
10
534.026195
20
287.579658
30
0.0
11
531.556750
21
287.579658
31
0.0
0
LINE
8
Calque 1
62
4
5
21b
100
AcDbEntity
100
AcDbLine
10
531.556750
20
287.579658
30
0.0
11
521.855361
21
297.272227
31
0.0
0
LINE
8
Calque 1
62
4
5
21c
100
AcDbEntity
100
AcDbLine
10
521.855361
20
297.272227
30
0.0
11
521.855361
21
336.051325
31
0.0
0
LINE
8
Calque 1
62
4
5
21d
100
AcDbEntity
100
AcDbLine
10
521.855361
20
336.051325
30
0.0
11
531.556750
21
345.752714
31
0.0
0
LINE
8
Calque 1
62
4
5
21e
100
AcDbEntity
100
AcDbLine
10
531.556750
20
345.752714
30
0.0
11
550.941861
21
345.752714
31
0.0
0
LINE
8
Calque 1
62
4
5
21f
100
AcDbEntity
100
AcDbLine
10
550.941861
20
345.752714
30
0.0
11
560.643250
21
336.051325
31
0.0
0
LINE
8
Calque 1
62
4
5
220
100
AcDbEntity
100
AcDbLine
10
560.643250
20
336.051325
30
0.0
11
560.643250
21
297.272227
31
0.0
0
LINE
8
Calque 1
62
4
5
221
100
AcDbEntity
100
AcDbLine
10
560.643250
20
297.272227
30
0.0
11
556.895000
21
293.620977
31
0.0
0
LINE
8
Calque 1
62
4
5
222
100
AcDbEntity
100
AcDbLine
10
556.895000
20
293.620977
30
0.0
11
550.518528
21
300.826464
31
0.0
0
LINE
8
Calque 1
62
4
5
223
100
AcDbEntity
100
AcDbLine
10
550.518528
20
300.826464
30
0.0
11
550.941861
21
301.249797
31
0.0
0
LINE
8
Calque 1
62
4
5
224
100
AcDbEntity
100
AcDbLine
10
550.941861
20
301.249797
30
0.0
11
550.941861
21
332.082575
31
0.0
0
LINE
8
Calque 1
62
4
5
225
100
AcDbEntity
100
AcDbLine
10
550.941861
20
332.082575
30
0.0
11
546.973139
21
336.051325
31
0.0
0
LINE
8
Calque 1
62
4
5
226
100
AcDbEntity
100
AcDbLine
10
546.973139
20
336.051325
30
0.0
11
535.534306
21
336.051325
31
0.0
0
LINE
8
Calque 1
62
4
5
227
100
AcDbEntity
100
AcDbLine
10
535.534306
20
336.051325
30
0.0
11
531.556750
21
332.082575
31
0.0
0
LINE
8
Calque 1
62
4
5
228
100
AcDbEntity
100
AcDbLine
10
531.556750
20
332.082575
30
0.0
11
531.556750
21
301.249797
31
0.0
0
LINE
8
Calque 1
62
4
5
229
100
AcDbEntity
100
AcDbLine
10
531.556750
20
301.249797
30
0.0
11
535.534306
21
297.272227
31
0.0
0
LINE
8
Calque 1
62
4
5
22a
100
AcDbEntity
100
AcDbLine
10
535.534306
20
297.272227
30
0.0
11
536.407416
21
297.272227
31
0.0
0
LINE
8
Calque 1
62
4
5
22b
100
AcDbEntity
100
AcDbLine
10
536.407416
20
297.272227
30
0.0
11
541.249306
21
302.122922
31
0.0
0
LINE
8
Calque 1
62
4
5
22c
100
AcDbEntity
100
AcDbLine
10
541.249306
20
302.122922
30
0.0
11
546.100000
21
297.272227
31
0.0
0
LINE
8
Calque 1
62
4
5
22d
100
AcDbEntity
100
AcDbLine
10
546.100000
20
297.272227
30
0.0
11
546.973139
21
297.272227
31
0.0
0
LINE
8
Calque 1
62
4
5
22e
100
AcDbEntity
100
AcDbLine
10
546.973139
20
297.272227
30
0.0
11
550.174583
21
300.482505
31
0.0
0
LINE
8
Calque 1
62
4
5
22f
100
AcDbEntity
100
AcDbLine
10
550.174583
20
300.482505
30
0.0
11
556.533417
21
293.277019
31
0.0
0
LINE
8
Calque 1
62
4
5
230
100
AcDbEntity
100
AcDbLine
10
556.533417
20
293.277019
30
0.0
11
553.270194
21
290.102019
31
0.0
0
LINE
8
Calque 1
62
4
5
231
100
AcDbEntity
100
AcDbLine
10
553.270194
20
290.102019
30
0.0
11
560.837306
21
282.534936
31
0.0
0
LINE
8
Calque 1
62
4
5
232
100
AcDbEntity
100
AcDbLine
10
560.837306
20
282.534936
30
0.0
11
553.949306
21
275.752783
31
0.0
0
LINE
8
Calque 1
62
4
5
233
100
AcDbEntity
100
AcDbLine
10
553.949306
20
275.752783
30
0.0
11
542.122416
21
287.579658
31
0.0
0
LINE
8
Calque 1
62
4
5
234
100
AcDbEntity
100
AcDbLine
10
542.122416
20
287.579658
30
0.0
11
539.961667
21
287.579658
31
0.0
0
LINE
8
Calque 1
62
4
5
235
100
AcDbEntity
100
AcDbLine
10
539.961667
20
287.579658
30
0.0
11
539.961667
21
282.914172
31
0.0
0
LINE
8
Calque 1
62
4
5
236
100
AcDbEntity
100
AcDbLine
10
539.961667
20
282.914172
30
0.0
11
544.741806
21
282.587852
31
0.0
0
LINE
8
Calque 1
62
4
5
237
100
AcDbEntity
100
AcDbLine
10
544.741806
20
282.587852
30
0.0
11
553.949306
21
273.371533
31
0.0
0
LINE
8
Calque 1
62
4
5
238
100
AcDbEntity
100
AcDbLine
10
553.949306
20
273.371533
30
0.0
11
563.245000
21
282.534936
31
0.0
0
LINE
8
Calque 1
62
4
5
239
100
AcDbEntity
100
AcDbLine
10
578.326250
20
282.914172
30
0.0
11
578.326250
21
287.579658
31
0.0
0
LINE
8
Calque 1
62
4
5
23a
100
AcDbEntity
100
AcDbLine
10
578.326250
20
287.579658
30
0.0
11
580.028417
21
287.579658
31
0.0
0
LINE
8
Calque 1
62
4
5
23b
100
AcDbEntity
100
AcDbLine
10
580.028417
20
287.579658
30
0.0
11
580.028417
21
311.815491
31
0.0
0
LINE
8
Calque 1
62
4
5
23c
100
AcDbEntity
100
AcDbLine
10
580.028417
20
311.815491
30
0.0
11
580.063695
21
311.815491
31
0.0
0
LINE
8
Calque 1
62
4
5
23d
100
AcDbEntity
100
AcDbLine
10
580.063695
20
311.815491
30
0.0
11
580.063695
21
321.508061
31
0.0
0
LINE
8
Calque 1
62
4
5
23e
100
AcDbEntity
100
AcDbLine
10
580.063695
20
321.508061
30
0.0
11
580.028417
21
321.508061
31
0.0
0
LINE
8
Calque 1
62
4
5
23f
100
AcDbEntity
100
AcDbLine
10
580.028417
20
321.508061
30
0.0
11
580.028417
21
336.051325
31
0.0
0
LINE
8
Calque 1
62
4
5
240
100
AcDbEntity
100
AcDbLine
10
580.028417
20
336.051325
30
0.0
11
595.444806
21
336.051325
31
0.0
0
LINE
8
Calque 1
62
4
5
241
100
AcDbEntity
100
AcDbLine
10
595.444806
20
336.051325
30
0.0
11
599.422361
21
332.082575
31
0.0
0
LINE
8
Calque 1
62
4
5
242
100
AcDbEntity
100
AcDbLine
10
599.422361
20
332.082575
30
0.0
11
599.422361
21
325.485630
31
0.0
0
LINE
8
Calque 1
62
4
5
243
100
AcDbEntity
100
AcDbLine
10
599.422361
20
325.485630
30
0.0
11
595.444806
21
321.508061
31
0.0
0
LINE
8
Calque 1
62
4
5
244
100
AcDbEntity
100
AcDbLine
10
595.444806
20
321.508061
30
0.0
11
580.786861
21
321.508061
31
0.0
0
LINE
8
Calque 1
62
4
5
245
100
AcDbEntity
100
AcDbLine
10
580.786861
20
321.508061
30
0.0
11
580.786861
21
311.815491
31
0.0
0
LINE
8
Calque 1
62
4
5
246
100
AcDbEntity
100
AcDbLine
10
580.786861
20
311.815491
30
0.0
11
588.265750
21
311.815491
31
0.0
0
LINE
8
Calque 1
62
4
5
247
100
AcDbEntity
100
AcDbLine
10
588.265750
20
311.815491
30
0.0
11
598.549250
21
287.579658
31
0.0
0
LINE
8
Calque 1
62
4
5
248
100
AcDbEntity
100
AcDbLine
10
598.549250
20
287.579658
30
0.0
11
609.114916
21
287.579658
31
0.0
0
LINE
8
Calque 1
62
4
5
249
100
AcDbEntity
100
AcDbLine
10
609.114916
20
287.579658
30
0.0
11
599.034306
21
311.815491
31
0.0
0
LINE
8
Calque 1
62
4
5
24a
100
AcDbEntity
100
AcDbLine
10
599.034306
20
311.815491
30
0.0
11
609.114916
21
321.508061
31
0.0
0
LINE
8
Calque 1
62
4
5
24b
100
AcDbEntity
100
AcDbLine
10
609.114916
20
321.508061
30
0.0
11
609.114916
21
336.051325
31
0.0
0
LINE
8
Calque 1
62
4
5
24c
100
AcDbEntity
100
AcDbLine
10
609.114916
20
336.051325
30
0.0
11
599.422361
21
345.752714
31
0.0
0
LINE
8
Calque 1
62
4
5
24d
100
AcDbEntity
100
AcDbLine
10
599.422361
20
345.752714
30
0.0
11
570.335833
21
345.752714
31
0.0
0
LINE
8
Calque 1
62
4
5
24e
100
AcDbEntity
100
AcDbLine
10
570.335833
20
345.752714
30
0.0
11
570.335833
21
287.579658
31
0.0
0
LINE
8
Calque 1
62
4
5
24f
100
AcDbEntity
100
AcDbLine
10
570.335833
20
287.579658
30
0.0
11
572.390750
21
287.579658
31
0.0
0
LINE
8
Calque 1
62
4
5
250
100
AcDbEntity
100
AcDbLine
10
572.390750
20
287.579658
30
0.0
11
572.390750
21
282.914172
31
0.0
0
LINE
8
Calque 1
62
4
5
251
100
AcDbEntity
100
AcDbLine
10
641.279444
20
282.808339
30
0.0
11
641.279444
21
287.579658
31
0.0
0
LINE
8
Calque 1
62
4
5
252
100
AcDbEntity
100
AcDbLine
10
641.279444
20
287.579658
30
0.0
11
647.894028
21
287.579658
31
0.0
0
LINE
8
Calque 1
62
4
5
253
100
AcDbEntity
100
AcDbLine
10
647.894028
20
287.579658
30
0.0
11
657.595417
21
297.272227
31
0.0
0
LINE
8
Calque 1
62
4
5
254
100
AcDbEntity
100
AcDbLine
10
657.595417
20
297.272227
30
0.0
11
657.595417
21
311.815491
31
0.0
0
LINE
8
Calque 1
62
4
5
255
100
AcDbEntity
100
AcDbLine
10
657.595417
20
311.815491
30
0.0
11
647.894028
21
321.508061
31
0.0
0
LINE
8
Calque 1
62
4
5
256
100
AcDbEntity
100
AcDbLine
10
647.894028
20
321.508061
30
0.0
11
632.477639
21
321.508061
31
0.0
0
LINE
8
Calque 1
62
4
5
257
100
AcDbEntity
100
AcDbLine
10
632.477639
20
321.508061
30
0.0
11
628.508889
21
325.485630
31
0.0
0
LINE
8
Calque 1
62
4
5
258
100
AcDbEntity
100
AcDbLine
10
628.508889
20
325.485630
30
0.0
11
628.508889
21
332.082575
31
0.0
0
LINE
8
Calque 1
62
4
5
259
100
AcDbEntity
100
AcDbLine
10
628.508889
20
332.082575
30
0.0
11
632.477639
21
336.051325
31
0.0
0
LINE
8
Calque 1
62
4
5
25a
100
AcDbEntity
100
AcDbLine
10
632.477639
20
336.051325
30
0.0
11
643.916472
21
336.051325
31
0.0
0
LINE
8
Calque 1
62
4
5
25b
100
AcDbEntity
100
AcDbLine
10
643.916472
20
336.051325
30
0.0
11
647.894028
21
332.082575
31
0.0
0
LINE
8
Calque 1
62
4
5
25c
100
AcDbEntity
100
AcDbLine
10
647.894028
20
332.082575
30
0.0
11
647.894028
21
331.209450
31
0.0
0
LINE
8
Calque 1
62
4
5
25d
100
AcDbEntity
100
AcDbLine
10
647.894028
20
331.209450
30
0.0
11
657.595417
21
331.209450
31
0.0
0
LINE
8
Calque 1
62
4
5
25e
100
AcDbEntity
100
AcDbLine
10
657.595417
20
331.209450
30
0.0
11
657.595417
21
336.051325
31
0.0
0
LINE
8
Calque 1
62
4
5
25f
100
AcDbEntity
100
AcDbLine
10
657.595417
20
336.051325
30
0.0
11
647.894028
21
345.752714
31
0.0
0
LINE
8
Calque 1
62
4
5
260
100
AcDbEntity
100
AcDbLine
10
647.894028
20
345.752714
30
0.0
11
628.508889
21
345.752714
31
0.0
0
LINE
8
Calque 1
62
4
5
261
100
AcDbEntity
100
AcDbLine
10
628.508889
20
345.752714
30
0.0
11
618.807500
21
336.051325
31
0.0
0
LINE
8
Calque 1
62
4
5
262
100
AcDbEntity
100
AcDbLine
10
618.807500
20
336.051325
30
0.0
11
618.807500
21
321.508061
31
0.0
0
LINE
8
Calque 1
62
4
5
263
100
AcDbEntity
100
AcDbLine
10
618.807500
20
321.508061
30
0.0
11
628.508889
21
311.815491
31
0.0
0
LINE
8
Calque 1
62
4
5
264
100
AcDbEntity
100
AcDbLine
10
628.508889
20
311.815491
30
0.0
11
643.916472
21
311.815491
31
0.0
0
LINE
8
Calque 1
62
4
5
265
100
AcDbEntity
100
AcDbLine
10
643.916472
20
311.815491
30
0.0
11
647.894028
21
307.837922
31
0.0
0
LINE
8
Calque 1
62
4
5
266
100
AcDbEntity
100
AcDbLine
10
647.894028
20
307.837922
30
0.0
11
647.894028
21
301.249797
31
0.0
0
LINE
8
Calque 1
62
4
5
267
100
AcDbEntity
100
AcDbLine
10
647.894028
20
301.249797
30
0.0
11
643.916472
21
297.272227
31
0.0
0
LINE
8
Calque 1
62
4
5
268
100
AcDbEntity
100
AcDbLine
10
643.916472
20
297.272227
30
0.0
11
632.477639
21
297.272227
31
0.0
0
LINE
8
Calque 1
62
4
5
269
100
AcDbEntity
100
AcDbLine
10
632.477639
20
297.272227
30
0.0
11
628.508889
21
301.249797
31
0.0
0
LINE
8
Calque 1
62
4
5
26a
100
AcDbEntity
100
AcDbLine
10
628.508889
20
301.249797
30
0.0
11
628.508889
21
302.122922
31
0.0
0
LINE
8
Calque 1
62
4
5
26b
100
AcDbEntity
100
AcDbLine
10
628.508889
20
302.122922
30
0.0
11
618.807500
21
302.122922
31
0.0
0
LINE
8
Calque 1
62
4
5
26c
100
AcDbEntity
100
AcDbLine
10
618.807500
20
302.122922
30
0.0
11
618.807500
21
297.272227
31
0.0
0
LINE
8
Calque 1
62
4
5
26d
100
AcDbEntity
100
AcDbLine
10
618.807500
20
297.272227
30
0.0
11
628.508889
21
287.579658
31
0.0
0
LINE
8
Calque 1
62
4
5
26e
100
AcDbEntity
100
AcDbLine
10
628.508889
20
287.579658
30
0.0
11
635.335139
21
287.579658
31
0.0
0
LINE
8
Calque 1
62
4
5
26f
100
AcDbEntity
100
AcDbLine
10
635.335139
20
287.579658
30
0.0
11
635.335139
21
282.808339
31
0.0
0
LINE
8
Calque 1
62
4
5
270
100
AcDbEntity
100
AcDbLine
10
689.786389
20
282.914172
30
0.0
11
689.786389
21
287.579658
31
0.0
0
LINE
8
Calque 1
62
4
5
271
100
AcDbEntity
100
AcDbLine
10
689.786389
20
287.579658
30
0.0
11
691.523805
21
287.579658
31
0.0
0
LINE
8
Calque 1
62
4
5
272
100
AcDbEntity
100
AcDbLine
10
691.523805
20
287.579658
30
0.0
11
691.523805
21
336.051325
31
0.0
0
LINE
8
Calque 1
62
4
5
273
100
AcDbEntity
100
AcDbLine
10
691.523805
20
336.051325
30
0.0
11
706.067083
21
336.051325
31
0.0
0
LINE
8
Calque 1
62
4
5
274
100
AcDbEntity
100
AcDbLine
10
706.067083
20
336.051325
30
0.0
11
706.067083
21
345.752714
31
0.0
0
LINE
8
Calque 1
62
4
5
275
100
AcDbEntity
100
AcDbLine
10
706.067083
20
345.752714
30
0.0
11
667.287972
21
345.752714
31
0.0
0
LINE
8
Calque 1
62
4
5
276
100
AcDbEntity
100
AcDbLine
10
667.287972
20
345.752714
30
0.0
11
667.287972
21
336.051325
31
0.0
0
LINE
8
Calque 1
62
4
5
277
100
AcDbEntity
100
AcDbLine
10
667.287972
20
336.051325
30
0.0
11
681.831250
21
336.051325
31
0.0
0
LINE
8
Calque 1
62
4
5
278
100
AcDbEntity
100
AcDbLine
10
681.831250
20
336.051325
30
0.0
11
681.831250
21
287.579658
31
0.0
0
LINE
8
Calque 1
62
4
5
279
100
AcDbEntity
100
AcDbLine
10
681.831250
20
287.579658
30
0.0
11
683.842083
21
287.579658
31
0.0
0
LINE
8
Calque 1
62
4
5
27a
100
AcDbEntity
100
AcDbLine
10
683.842083
20
287.579658
30
0.0
11
683.842083
21
282.914172
31
0.0
0
LINE
8
Calque 1
62
4
5
27b
100
AcDbEntity
100
AcDbLine
10
738.513805
20
282.914172
30
0.0
11
738.513805
21
287.579658
31
0.0
0
LINE
8
Calque 1
62
4
5
27c
100
AcDbEntity
100
AcDbLine
10
738.513805
20
287.579658
30
0.0
11
744.846195
21
287.579658
31
0.0
0
LINE
8
Calque 1
62
4
5
27d
100
AcDbEntity
100
AcDbLine
10
744.846195
20
287.579658
30
0.0
11
754.538750
21
297.272227
31
0.0
0
LINE
8
Calque 1
62
4
5
27e
100
AcDbEntity
100
AcDbLine
10
754.538750
20
297.272227
30
0.0
11
754.538750
21
345.752714
31
0.0
0
LINE
8
Calque 1
62
4
5
27f
100
AcDbEntity
100
AcDbLine
10
754.538750
20
345.752714
30
0.0
11
744.846195
21
345.752714
31
0.0
0
LINE
8
Calque 1
62
4
5
280
100
AcDbEntity
100
AcDbLine
10
744.846195
20
345.752714
30
0.0
11
744.846195
21
301.249797
31
0.0
0
LINE
8
Calque 1
62
4
5
281
100
AcDbEntity
100
AcDbLine
10
744.846195
20
301.249797
30
0.0
11
740.868611
21
297.272227
31
0.0
0
LINE
8
Calque 1
62
4
5
282
100
AcDbEntity
100
AcDbLine
10
740.868611
20
297.272227
30
0.0
11
729.429806
21
297.272227
31
0.0
0
LINE
8
Calque 1
62
4
5
283
100
AcDbEntity
100
AcDbLine
10
729.429806
20
297.272227
30
0.0
11
725.452222
21
301.249797
31
0.0
0
LINE
8
Calque 1
62
4
5
284
100
AcDbEntity
100
AcDbLine
10
725.452222
20
301.249797
30
0.0
11
725.452222
21
345.752714
31
0.0
0
LINE
8
Calque 1
62
4
5
285
100
AcDbEntity
100
AcDbLine
10
725.452222
20
345.752714
30
0.0
11
715.759639
21
345.752714
31
0.0
0
LINE
8
Calque 1
62
4
5
286
100
AcDbEntity
100
AcDbLine
10
715.759639
20
345.752714
30
0.0
11
715.759639
21
297.272227
31
0.0
0
LINE
8
Calque 1
62
4
5
287
100
AcDbEntity
100
AcDbLine
10
715.759639
20
297.272227
30
0.0
11
725.452222
21
287.579658
31
0.0
0
LINE
8
Calque 1
62
4
5
288
100
AcDbEntity
100
AcDbLine
10
725.452222
20
287.579658
30
0.0
11
732.569528
21
287.579658
31
0.0
0
LINE
8
Calque 1
62
4
5
289
100
AcDbEntity
100
AcDbLine
10
732.569528
20
287.579658
30
0.0
11
732.569528
21
282.914172
31
0.0
0
LINE
8
Calque 1
62
4
5
28a
100
AcDbEntity
100
AcDbLine
10
786.800278
20
282.914172
30
0.0
11
786.800278
21
287.579658
31
0.0
0
LINE
8
Calque 1
62
4
5
28b
100
AcDbEntity
100
AcDbLine
10
786.800278
20
287.579658
30
0.0
11
788.767028
21
287.579658
31
0.0
0
LINE
8
Calque 1
62
4
5
28c
100
AcDbEntity
100
AcDbLine
10
788.767028
20
287.579658
30
0.0
11
802.825194
21
345.752714
31
0.0
0
LINE
8
Calque 1
62
4
5
28d
100
AcDbEntity
100
AcDbLine
10
802.825194
20
345.752714
30
0.0
11
792.841583
21
345.752714
31
0.0
0
LINE
8
Calque 1
62
4
5
28e
100
AcDbEntity
100
AcDbLine
10
792.841583
20
345.752714
30
0.0
11
783.528250
21
308.420005
31
0.0
0
LINE
8
Calque 1
62
4
5
28f
100
AcDbEntity
100
AcDbLine
10
783.528250
20
308.420005
30
0.0
11
774.223750
21
345.752714
31
0.0
0
LINE
8
Calque 1
62
4
5
290
100
AcDbEntity
100
AcDbLine
10
774.223750
20
345.752714
30
0.0
11
764.231305
21
345.752714
31
0.0
0
LINE
8
Calque 1
62
4
5
291
100
AcDbEntity
100
AcDbLine
10
764.231305
20
345.752714
30
0.0
11
778.298333
21
287.579658
31
0.0
0
LINE
8
Calque 1
62
4
5
292
100
AcDbEntity
100
AcDbLine
10
778.298333
20
287.579658
30
0.0
11
780.855972
21
287.579658
31
0.0
0
LINE
8
Calque 1
62
4
5
293
100
AcDbEntity
100
AcDbLine
10
780.855972
20
287.579658
30
0.0
11
780.855972
21
282.914172
31
0.0
0
LINE
8
Calque 1
62
4
5
294
100
AcDbEntity
100
AcDbLine
10
830.236028
20
282.808339
30
0.0
11
830.236028
21
287.579658
31
0.0
0
LINE
8
Calque 1
62
4
5
295
100
AcDbEntity
100
AcDbLine
10
830.236028
20
287.579658
30
0.0
11
832.105750
21
287.579658
31
0.0
0
LINE
8
Calque 1
62
4
5
296
100
AcDbEntity
100
AcDbLine
10
832.105750
20
287.579658
30
0.0
11
841.798333
21
326.455769
31
0.0
0
LINE
8
Calque 1
62
4
5
297
100
AcDbEntity
100
AcDbLine
10
841.798333
20
326.455769
30
0.0
11
851.490917
21
287.579658
31
0.0
0
LINE
8
Calque 1
62
4
5
298
100
AcDbEntity
100
AcDbLine
10
851.490917
20
287.579658
30
0.0
11
861.280472
21
287.579658
31
0.0
0
LINE
8
Calque 1
62
4
5
299
100
AcDbEntity
100
AcDbLine
10
861.280472
20
287.579658
30
0.0
11
870.496806
21
345.752714
31
0.0
0
LINE
8
Calque 1
62
4
5
29a
100
AcDbEntity
100
AcDbLine
10
870.496806
20
345.752714
30
0.0
11
860.707222
21
345.752714
31
0.0
0
LINE
8
Calque 1
62
4
5
29b
100
AcDbEntity
100
AcDbLine
10
860.707222
20
345.752714
30
0.0
11
855.371472
21
312.106533
31
0.0
0
LINE
8
Calque 1
62
4
5
29c
100
AcDbEntity
100
AcDbLine
10
855.371472
20
312.106533
30
0.0
11
846.940084
21
345.752714
31
0.0
0
LINE
8
Calque 1
62
4
5
29d
100
AcDbEntity
100
AcDbLine
10
846.940084
20
345.752714
30
0.0
11
836.656583
21
345.752714
31
0.0
0
LINE
8
Calque 1
62
4
5
29e
100
AcDbEntity
100
AcDbLine
10
836.656583
20
345.752714
30
0.0
11
828.225194
21
312.106533
31
0.0
0
LINE
8
Calque 1
62
4
5
29f
100
AcDbEntity
100
AcDbLine
10
828.225194
20
312.106533
30
0.0
11
822.889444
21
345.752714
31
0.0
0
LINE
8
Calque 1
62
4
5
2a0
100
AcDbEntity
100
AcDbLine
10
822.889444
20
345.752714
30
0.0
11
813.099861
21
345.752714
31
0.0
0
LINE
8
Calque 1
62
4
5
2a1
100
AcDbEntity
100
AcDbLine
10
813.099861
20
345.752714
30
0.0
11
822.307361
21
287.579658
31
0.0
0
LINE
8
Calque 1
62
4
5
2a2
100
AcDbEntity
100
AcDbLine
10
822.307361
20
287.579658
30
0.0
11
824.291750
21
287.579658
31
0.0
0
LINE
8
Calque 1
62
4
5
2a3
100
AcDbEntity
100
AcDbLine
10
824.291750
20
287.579658
30
0.0
11
824.291750
21
282.808339
31
0.0
0
LINE
8
Calque 1
62
4
5
2a4
100
AcDbEntity
100
AcDbLine
10
889.211667
20
282.914172
30
0.0
11
889.211667
21
287.579658
31
0.0
0
LINE
8
Calque 1
62
4
5
2a5
100
AcDbEntity
100
AcDbLine
10
889.211667
20
287.579658
30
0.0
11
891.169583
21
287.579658
31
0.0
0
LINE
8
Calque 1
62
4
5
2a6
100
AcDbEntity
100
AcDbLine
10
891.169583
20
287.579658
30
0.0
11
899.892028
21
306.188686
31
0.0
0
LINE
8
Calque 1
62
4
5
2a7
100
AcDbEntity
100
AcDbLine
10
899.892028
20
306.188686
30
0.0
11
908.614444
21
287.579658
31
0.0
0
LINE
8
Calque 1
62
4
5
2a8
100
AcDbEntity
100
AcDbLine
10
908.614444
20
287.579658
30
0.0
11
919.285972
21
287.579658
31
0.0
0
LINE
8
Calque 1
62
4
5
2a9
100
AcDbEntity
100
AcDbLine
10
919.285972
20
287.579658
30
0.0
11
905.227778
21
317.733339
31
0.0
0
LINE
8
Calque 1
62
4
5
2aa
100
AcDbEntity
100
AcDbLine
10
905.227778
20
317.733339
30
0.0
11
918.315833
21
345.752714
31
0.0
0
LINE
8
Calque 1
62
4
5
2ab
100
AcDbEntity
100
AcDbLine
10
918.315833
20
345.752714
30
0.0
11
907.644306
21
345.752714
31
0.0
0
LINE
8
Calque 1
62
4
5
2ac
100
AcDbEntity
100
AcDbLine
10
907.644306
20
345.752714
30
0.0
11
899.892028
21
329.172158
31
0.0
0
LINE
8
Calque 1
62
4
5
2ad
100
AcDbEntity
100
AcDbLine
10
899.892028
20
329.172158
30
0.0
11
892.139722
21
345.752714
31
0.0
0
LINE
8
Calque 1
62
4
5
2ae
100
AcDbEntity
100
AcDbLine
10
892.139722
20
345.752714
30
0.0
11
881.468194
21
345.752714
31
0.0
0
LINE
8
Calque 1
62
4
5
2af
100
AcDbEntity
100
AcDbLine
10
881.468194
20
345.752714
30
0.0
11
894.556250
21
317.733339
31
0.0
0
LINE
8
Calque 1
62
4
5
2b0
100
AcDbEntity
100
AcDbLine
10
894.556250
20
317.733339
30
0.0
11
880.498056
21
287.579658
31
0.0
0
LINE
8
Calque 1
62
4
5
2b1
100
AcDbEntity
100
AcDbLine
10
880.498056
20
287.579658
30
0.0
11
883.276195
21
287.579658
31
0.0
0
LINE
8
Calque 1
62
4
5
2b2
100
AcDbEntity
100
AcDbLine
10
883.276195
20
287.579658
30
0.0
11
883.276195
21
282.914172
31
0.0
0
LINE
8
Calque 1
62
4
5
2b3
100
AcDbEntity
100
AcDbLine
10
951.282917
20
282.914172
30
0.0
11
951.282917
21
287.579658
31
0.0
0
LINE
8
Calque 1
62
4
5
2b4
100
AcDbEntity
100
AcDbLine
10
951.282917
20
287.579658
30
0.0
11
953.214361
21
287.579658
31
0.0
0
LINE
8
Calque 1
62
4
5
2b5
100
AcDbEntity
100
AcDbLine
10
953.214361
20
287.579658
30
0.0
11
953.214361
21
316.666186
31
0.0
0
LINE
8
Calque 1
62
4
5
2b6
100
AcDbEntity
100
AcDbLine
10
953.214361
20
316.666186
30
0.0
11
966.787500
21
345.752714
31
0.0
0
LINE
8
Calque 1
62
4
5
2b7
100
AcDbEntity
100
AcDbLine
10
966.787500
20
345.752714
30
0.0
11
956.124806
21
345.752714
31
0.0
0
LINE
8
Calque 1
62
4
5
2b8
100
AcDbEntity
100
AcDbLine
10
956.124806
20
345.752714
30
0.0
11
948.363695
21
329.172158
31
0.0
0
LINE
8
Calque 1
62
4
5
2b9
100
AcDbEntity
100
AcDbLine
10
948.363695
20
329.172158
30
0.0
11
940.611389
21
345.752714
31
0.0
0
LINE
8
Calque 1
62
4
5
2ba
100
AcDbEntity
100
AcDbLine
10
940.611389
20
345.752714
30
0.0
11
929.948695
21
345.752714
31
0.0
0
LINE
8
Calque 1
62
4
5
2bb
100
AcDbEntity
100
AcDbLine
10
929.948695
20
345.752714
30
0.0
11
943.521806
21
316.666186
31
0.0
0
LINE
8
Calque 1
62
4
5
2bc
100
AcDbEntity
100
AcDbLine
10
943.521806
20
316.666186
30
0.0
11
943.521806
21
287.579658
31
0.0
0
LINE
8
Calque 1
62
4
5
2bd
100
AcDbEntity
100
AcDbLine
10
943.521806
20
287.579658
30
0.0
11
945.338611
21
287.579658
31
0.0
0
LINE
8
Calque 1
62
4
5
2be
100
AcDbEntity
100
AcDbLine
10
945.338611
20
287.579658
30
0.0
11
945.338611
21
282.914172
31
0.0
0
LINE
8
Calque 1
62
4
5
2bf
100
AcDbEntity
100
AcDbLine
10
1003.979083
20
282.808339
30
0.0
11
1003.979083
21
287.579658
31
0.0
0
LINE
8
Calque 1
62
4
5
2c0
100
AcDbEntity
100
AcDbLine
10
1003.979083
20
287.579658
30
0.0
11
1016.238139
21
287.579658
31
0.0
0
LINE
8
Calque 1
62
4
5
2c1
100
AcDbEntity
100
AcDbLine
10
1016.238139
20
287.579658
30
0.0
11
1016.238139
21
297.272227
31
0.0
0
LINE
8
Calque 1
62
4
5
2c2
100
AcDbEntity
100
AcDbLine
10
1016.238139
20
297.272227
30
0.0
11
991.120361
21
297.272227
31
0.0
0
LINE
8
Calque 1
62
4
5
2c3
100
AcDbEntity
100
AcDbLine
10
991.120361
20
297.272227
30
0.0
11
989.956195
21
298.436394
31
0.0
0
LINE
8
Calque 1
62
4
5
2c4
100
AcDbEntity
100
AcDbLine
10
989.956195
20
298.436394
30
0.0
11
1016.238139
21
336.051325
31
0.0
0
LINE
8
Calque 1
62
4
5
2c5
100
AcDbEntity
100
AcDbLine
10
1016.238139
20
336.051325
30
0.0
11
1006.536750
21
345.752714
31
0.0
0
LINE
8
Calque 1
62
4
5
2c6
100
AcDbEntity
100
AcDbLine
10
1006.536750
20
345.752714
30
0.0
11
977.450194
21
345.752714
31
0.0
0
LINE
8
Calque 1
62
4
5
2c7
100
AcDbEntity
100
AcDbLine
10
977.450194
20
345.752714
30
0.0
11
977.450194
21
336.051325
31
0.0
0
LINE
8
Calque 1
62
4
5
2c8
100
AcDbEntity
100
AcDbLine
10
977.450194
20
336.051325
30
0.0
11
1002.559167
21
336.051325
31
0.0
0
LINE
8
Calque 1
62
4
5
2c9
100
AcDbEntity
100
AcDbLine
10
1002.559167
20
336.051325
30
0.0
11
1003.732139
21
334.887158
31
0.0
0
LINE
8
Calque 1
62
4
5
2ca
100
AcDbEntity
100
AcDbLine
10
1003.732139
20
334.887158
30
0.0
11
977.450194
21
297.272227
31
0.0
0
LINE
8
Calque 1
62
4
5
2cb
100
AcDbEntity
100
AcDbLine
10
977.450194
20
297.272227
30
0.0
11
987.151583
21
287.579658
31
0.0
0
LINE
8
Calque 1
62
4
5
2cc
100
AcDbEntity
100
AcDbLine
10
987.151583
20
287.579658
30
0.0
11
998.034806
21
287.579658
31
0.0
0
LINE
8
Calque 1
62
4
5
2cd
100
AcDbEntity
100
AcDbLine
10
998.034806
20
287.579658
30
0.0
11
998.034806
21
282.808339
31
0.0
0
LINE
8
Calque 1
62
4
5
2ce
100
AcDbEntity
100
AcDbLine
10
1048.623139
20
282.808339
30
0.0
11
1048.623139
21
287.579658
31
0.0
0
LINE
8
Calque 1
62
4
5
2cf
100
AcDbEntity
100
AcDbLine
10
1048.623139
20
287.579658
30
0.0
11
1054.629167
21
287.579658
31
0.0
0
LINE
8
Calque 1
62
4
5
2d0
100
AcDbEntity
100
AcDbLine
10
1054.629167
20
287.579658
30
0.0
11
1058.306861
21
291.116255
31
0.0
0
LINE
8
Calque 1
62
4
5
2d1
100
AcDbEntity
100
AcDbLine
10
1058.306861
20
291.116255
30
0.0
11
1052.062694
21
298.295283
31
0.0
0
LINE
8
Calque 1
62
4
5
2d2
100
AcDbEntity
100
AcDbLine
10
1052.062694
20
298.295283
30
0.0
11
1051.039639
21
297.272227
31
0.0
0
LINE
8
Calque 1
62
4
5
2d3
100
AcDbEntity
100
AcDbLine
10
1051.039639
20
297.272227
30
0.0
11
1039.600833
21
297.272227
31
0.0
0
LINE
8
Calque 1
62
4
5
2d4
100
AcDbEntity
100
AcDbLine
10
1039.600833
20
297.272227
30
0.0
11
1035.623250
21
301.249797
31
0.0
0
LINE
8
Calque 1
62
4
5
2d5
100
AcDbEntity
100
AcDbLine
10
1035.623250
20
301.249797
30
0.0
11
1035.623250
21
332.082575
31
0.0
0
LINE
8
Calque 1
62
4
5
2d6
100
AcDbEntity
100
AcDbLine
10
1035.623250
20
332.082575
30
0.0
11
1039.600833
21
336.051325
31
0.0
0
LINE
8
Calque 1
62
4
5
2d7
100
AcDbEntity
100
AcDbLine
10
1039.600833
20
336.051325
30
0.0
11
1051.039639
21
336.051325
31
0.0
0
LINE
8
Calque 1
62
4
5
2d8
100
AcDbEntity
100
AcDbLine
10
1051.039639
20
336.051325
30
0.0
11
1055.017222
21
332.082575
31
0.0
0
LINE
8
Calque 1
62
4
5
2d9
100
AcDbEntity
100
AcDbLine
10
1055.017222
20
332.082575
30
0.0
11
1055.017222
21
301.249797
31
0.0
0
LINE
8
Calque 1
62
4
5
2da
100
AcDbEntity
100
AcDbLine
10
1055.017222
20
301.249797
30
0.0
11
1052.344916
21
298.577505
31
0.0
0
LINE
8
Calque 1
62
4
5
2db
100
AcDbEntity
100
AcDbLine
10
1052.344916
20
298.577505
30
0.0
11
1058.589083
21
291.380839
31
0.0
0
LINE
8
Calque 1
62
4
5
2dc
100
AcDbEntity
100
AcDbLine
10
1058.589083
20
291.380839
30
0.0
11
1064.709806
21
297.272227
31
0.0
0
LINE
8
Calque 1
62
4
5
2dd
100
AcDbEntity
100
AcDbLine
10
1064.709806
20
297.272227
30
0.0
11
1064.709806
21
336.051325
31
0.0
0
LINE
8
Calque 1
62
4
5
2de
100
AcDbEntity
100
AcDbLine
10
1064.709806
20
336.051325
30
0.0
11
1055.017222
21
345.752714
31
0.0
0
LINE
8
Calque 1
62
4
5
2df
100
AcDbEntity
100
AcDbLine
10
1055.017222
20
345.752714
30
0.0
11
1035.623250
21
345.752714
31
0.0
0
LINE
8
Calque 1
62
4
5
2e0
100
AcDbEntity
100
AcDbLine
10
1035.623250
20
345.752714
30
0.0
11
1025.930694
21
336.051325
31
0.0
0
LINE
8
Calque 1
62
4
5
2e1
100
AcDbEntity
100
AcDbLine
10
1025.930694
20
336.051325
30
0.0
11
1025.930694
21
297.272227
31
0.0
0
LINE
8
Calque 1
62
4
5
2e2
100
AcDbEntity
100
AcDbLine
10
1025.930694
20
297.272227
30
0.0
11
1035.623250
21
287.579658
31
0.0
0
LINE
8
Calque 1
62
4
5
2e3
100
AcDbEntity
100
AcDbLine
10
1035.623250
20
287.579658
30
0.0
11
1042.687639
21
287.579658
31
0.0
0
LINE
8
Calque 1
62
4
5
2e4
100
AcDbEntity
100
AcDbLine
10
1042.687639
20
287.579658
30
0.0
11
1042.687639
21
282.808339
31
0.0
0
LINE
8
Calque 1
62
4
5
2e5
100
AcDbEntity
100
AcDbLine
10
1082.251667
20
282.914172
30
0.0
11
1082.251667
21
287.579658
31
0.0
0
LINE
8
Calque 1
62
4
5
2e6
100
AcDbEntity
100
AcDbLine
10
1082.251667
20
287.579658
30
0.0
11
1084.094916
21
287.579658
31
0.0
0
LINE
8
Calque 1
62
4
5
2e7
100
AcDbEntity
100
AcDbLine
10
1084.094916
20
287.579658
30
0.0
11
1084.094916
21
345.752714
31
0.0
0
LINE
8
Calque 1
62
4
5
2e8
100
AcDbEntity
100
AcDbLine
10
1084.094916
20
345.752714
30
0.0
11
1074.402361
21
345.752714
31
0.0
0
LINE
8
Calque 1
62
4
5
2e9
100
AcDbEntity
100
AcDbLine
10
1074.402361
20
345.752714
30
0.0
11
1074.402361
21
287.579658
31
0.0
0
LINE
8
Calque 1
62
4
5
2ea
100
AcDbEntity
100
AcDbLine
10
1074.402361
20
287.579658
30
0.0
11
1076.307361
21
287.579658
31
0.0
0
LINE
8
Calque 1
62
4
5
2eb
100
AcDbEntity
100
AcDbLine
10
1076.307361
20
287.579658
30
0.0
11
1076.307361
21
282.914172
31
0.0
0
LINE
8
Calque 1
62
4
5
2ec
100
AcDbEntity
100
AcDbLine
10
1116.647500
20
282.808339
30
0.0
11
1116.647500
21
287.579658
31
0.0
0
LINE
8
Calque 1
62
4
5
2ed
100
AcDbEntity
100
AcDbLine
10
1116.647500
20
287.579658
30
0.0
11
1132.496028
21
287.579658
31
0.0
0
LINE
8
Calque 1
62
4
5
2ee
100
AcDbEntity
100
AcDbLine
10
1132.496028
20
287.579658
30
0.0
11
1132.496028
21
297.272227
31
0.0
0
LINE
8
Calque 1
62
4
5
2ef
100
AcDbEntity
100
AcDbLine
10
1132.496028
20
297.272227
30
0.0
11
1103.409528
21
297.272227
31
0.0
0
LINE
8
Calque 1
62
4
5
2f0
100
AcDbEntity
100
AcDbLine
10
1103.409528
20
297.272227
30
0.0
11
1103.409528
21
307.837922
31
0.0
0
LINE
8
Calque 1
62
4
5
2f1
100
AcDbEntity
100
AcDbLine
10
1103.409528
20
307.837922
30
0.0
11
1107.387083
21
311.815491
31
0.0
0
LINE
8
Calque 1
62
4
5
2f2
100
AcDbEntity
100
AcDbLine
10
1107.387083
20
311.815491
30
0.0
11
1122.803472
21
311.815491
31
0.0
0
LINE
8
Calque 1
62
4
5
2f3
100
AcDbEntity
100
AcDbLine
10
1122.803472
20
311.815491
30
0.0
11
1132.496028
21
321.508061
31
0.0
0
LINE
8
Calque 1
62
4
5
2f4
100
AcDbEntity
100
AcDbLine
10
1132.496028
20
321.508061
30
0.0
11
1132.496028
21
336.051325
31
0.0
0
LINE
8
Calque 1
62
4
5
2f5
100
AcDbEntity
100
AcDbLine
10
1132.496028
20
336.051325
30
0.0
11
1122.803472
21
345.752714
31
0.0
0
LINE
8
Calque 1
62
4
5
2f6
100
AcDbEntity
100
AcDbLine
10
1122.803472
20
345.752714
30
0.0
11
1103.409528
21
345.752714
31
0.0
0
LINE
8
Calque 1
62
4
5
2f7
100
AcDbEntity
100
AcDbLine
10
1103.409528
20
345.752714
30
0.0
11
1093.716944
21
336.051325
31
0.0
0
LINE
8
Calque 1
62
4
5
2f8
100
AcDbEntity
100
AcDbLine
10
1093.716944
20
336.051325
30
0.0
11
1093.716944
21
331.209450
31
0.0
0
LINE
8
Calque 1
62
4
5
2f9
100
AcDbEntity
100
AcDbLine
10
1093.716944
20
331.209450
30
0.0
11
1103.409528
21
331.209450
31
0.0
0
LINE
8
Calque 1
62
4
5
2fa
100
AcDbEntity
100
AcDbLine
10
1103.409528
20
331.209450
30
0.0
11
1103.409528
21
332.082575
31
0.0
0
LINE
8
Calque 1
62
4
5
2fb
100
AcDbEntity
100
AcDbLine
10
1103.409528
20
332.082575
30
0.0
11
1107.387083
21
336.051325
31
0.0
0
LINE
8
Calque 1
62
4
5
2fc
100
AcDbEntity
100
AcDbLine
10
1107.387083
20
336.051325
30
0.0
11
1118.825917
21
336.051325
31
0.0
0
LINE
8
Calque 1
62
4
5
2fd
100
AcDbEntity
100
AcDbLine
10
1118.825917
20
336.051325
30
0.0
11
1122.803472
21
332.082575
31
0.0
0
LINE
8
Calque 1
62
4
5
2fe
100
AcDbEntity
100
AcDbLine
10
1122.803472
20
332.082575
30
0.0
11
1122.803472
21
325.485630
31
0.0
0
LINE
8
Calque 1
62
4
5
2ff
100
AcDbEntity
100
AcDbLine
10
1122.803472
20
325.485630
30
0.0
11
1118.825917
21
321.508061
31
0.0
0
LINE
8
Calque 1
62
4
5
300
100
AcDbEntity
100
AcDbLine
10
1118.825917
20
321.508061
30
0.0
11
1103.409528
21
321.508061
31
0.0
0
LINE
8
Calque 1
62
4
5
301
100
AcDbEntity
100
AcDbLine
10
1103.409528
20
321.508061
30
0.0
11
1093.716944
21
311.815491
31
0.0
0
LINE
8
Calque 1
62
4
5
302
100
AcDbEntity
100
AcDbLine
10
1093.716944
20
311.815491
30
0.0
11
1093.716944
21
287.579658
31
0.0
0
LINE
8
Calque 1
62
4
5
303
100
AcDbEntity
100
AcDbLine
10
1093.716944
20
287.579658
30
0.0
11
1110.703194
21
287.579658
31
0.0
0
LINE
8
Calque 1
62
4
5
304
100
AcDbEntity
100
AcDbLine
10
1110.703194
20
287.579658
30
0.0
11
1110.703194
21
282.808339
31
0.0
0
LINE
8
Calque 1
62
4
5
305
100
AcDbEntity
100
AcDbLine
10
1165.480750
20
282.808339
30
0.0
11
1165.480750
21
287.579658
31
0.0
0
LINE
8
Calque 1
62
4
5
306
100
AcDbEntity
100
AcDbLine
10
1165.480750
20
287.579658
30
0.0
11
1171.275139
21
287.579658
31
0.0
0
LINE
8
Calque 1
62
4
5
307
100
AcDbEntity
100
AcDbLine
10
1171.275139
20
287.579658
30
0.0
11
1180.976528
21
297.272227
31
0.0
0
LINE
8
Calque 1
62
4
5
308
100
AcDbEntity
100
AcDbLine
10
1180.976528
20
297.272227
30
0.0
11
1180.976528
21
311.815491
31
0.0
0
LINE
8
Calque 1
62
4
5
309
100
AcDbEntity
100
AcDbLine
10
1180.976528
20
311.815491
30
0.0
11
1176.125833
21
316.666186
31
0.0
0
LINE
8
Calque 1
62
4
5
30a
100
AcDbEntity
100
AcDbLine
10
1176.125833
20
316.666186
30
0.0
11
1180.976528
21
321.508061
31
0.0
0
LINE
8
Calque 1
62
4
5
30b
100
AcDbEntity
100
AcDbLine
10
1180.976528
20
321.508061
30
0.0
11
1180.976528
21
336.051325
31
0.0
0
LINE
8
Calque 1
62
4
5
30c
100
AcDbEntity
100
AcDbLine
10
1180.976528
20
336.051325
30
0.0
11
1171.275139
21
345.752714
31
0.0
0
LINE
8
Calque 1
62
4
5
30d
100
AcDbEntity
100
AcDbLine
10
1171.275139
20
345.752714
30
0.0
11
1151.890000
21
345.752714
31
0.0
0
LINE
8
Calque 1
62
4
5
30e
100
AcDbEntity
100
AcDbLine
10
1151.890000
20
345.752714
30
0.0
11
1142.188611
21
336.051325
31
0.0
0
LINE
8
Calque 1
62
4
5
30f
100
AcDbEntity
100
AcDbLine
10
1142.188611
20
336.051325
30
0.0
11
1142.188611
21
331.209450
31
0.0
0
LINE
8
Calque 1
62
4
5
310
100
AcDbEntity
100
AcDbLine
10
1142.188611
20
331.209450
30
0.0
11
1151.890000
21
331.209450
31
0.0
0
LINE
8
Calque 1
62
4
5
311
100
AcDbEntity
100
AcDbLine
10
1151.890000
20
331.209450
30
0.0
11
1151.890000
21
332.082575
31
0.0
0
LINE
8
Calque 1
62
4
5
312
100
AcDbEntity
100
AcDbLine
10
1151.890000
20
332.082575
30
0.0
11
1155.867584
21
336.051325
31
0.0
0
LINE
8
Calque 1
62
4
5
313
100
AcDbEntity
100
AcDbLine
10
1155.867584
20
336.051325
30
0.0
11
1167.306389
21
336.051325
31
0.0
0
LINE
8
Calque 1
62
4
5
314
100
AcDbEntity
100
AcDbLine
10
1167.306389
20
336.051325
30
0.0
11
1171.275139
21
332.082575
31
0.0
0
LINE
8
Calque 1
62
4
5
315
100
AcDbEntity
100
AcDbLine
10
1171.275139
20
332.082575
30
0.0
11
1171.275139
21
325.485630
31
0.0
0
LINE
8
Calque 1
62
4
5
316
100
AcDbEntity
100
AcDbLine
10
1171.275139
20
325.485630
30
0.0
11
1167.306389
21
321.508061
31
0.0
0
LINE
8
Calque 1
62
4
5
317
100
AcDbEntity
100
AcDbLine
10
1167.306389
20
321.508061
30
0.0
11
1156.740694
21
321.508061
31
0.0
0
LINE
8
Calque 1
62
4
5
318
100
AcDbEntity
100
AcDbLine
10
1156.740694
20
321.508061
30
0.0
11
1156.740694
21
311.815491
31
0.0
0
LINE
8
Calque 1
62
4
5
319
100
AcDbEntity
100
AcDbLine
10
1156.740694
20
311.815491
30
0.0
11
1167.306389
21
311.815491
31
0.0
0
LINE
8
Calque 1
62
4
5
31a
100
AcDbEntity
100
AcDbLine
10
1167.306389
20
311.815491
30
0.0
11
1171.275139
21
307.837922
31
0.0
0
LINE
8
Calque 1
62
4
5
31b
100
AcDbEntity
100
AcDbLine
10
1171.275139
20
307.837922
30
0.0
11
1171.275139
21
301.249797
31
0.0
0
LINE
8
Calque 1
62
4
5
31c
100
AcDbEntity
100
AcDbLine
10
1171.275139
20
301.249797
30
0.0
11
1167.306389
21
297.272227
31
0.0
0
LINE
8
Calque 1
62
4
5
31d
100
AcDbEntity
100
AcDbLine
10
1167.306389
20
297.272227
30
0.0
11
1155.867584
21
297.272227
31
0.0
0
LINE
8
Calque 1
62
4
5
31e
100
AcDbEntity
100
AcDbLine
10
1155.867584
20
297.272227
30
0.0
11
1151.890000
21
301.249797
31
0.0
0
LINE
8
Calque 1
62
4
5
31f
100
AcDbEntity
100
AcDbLine
10
1151.890000
20
301.249797
30
0.0
11
1151.890000
21
302.122922
31
0.0
0
LINE
8
Calque 1
62
4
5
320
100
AcDbEntity
100
AcDbLine
10
1151.890000
20
302.122922
30
0.0
11
1142.188611
21
302.122922
31
0.0
0
LINE
8
Calque 1
62
4
5
321
100
AcDbEntity
100
AcDbLine
10
1142.188611
20
302.122922
30
0.0
11
1142.188611
21
297.272227
31
0.0
0
LINE
8
Calque 1
62
4
5
322
100
AcDbEntity
100
AcDbLine
10
1142.188611
20
297.272227
30
0.0
11
1152.278056
21
287.579658
31
0.0
0
LINE
8
Calque 1
62
4
5
323
100
AcDbEntity
100
AcDbLine
10
1152.278056
20
287.579658
30
0.0
11
1159.545278
21
287.579658
31
0.0
0
LINE
8
Calque 1
62
4
5
324
100
AcDbEntity
100
AcDbLine
10
1159.545278
20
287.579658
30
0.0
11
1159.545278
21
282.808339
31
0.0
0
LINE
8
Calque 1
62
4
5
325
100
AcDbEntity
100
AcDbLine
10
1222.807139
20
282.914172
30
0.0
11
1222.807139
21
287.579658
31
0.0
0
LINE
8
Calque 1
62
4
5
326
100
AcDbEntity
100
AcDbLine
10
1222.807139
20
287.579658
30
0.0
11
1224.597500
21
287.579658
31
0.0
0
LINE
8
Calque 1
62
4
5
327
100
AcDbEntity
100
AcDbLine
10
1224.597500
20
287.579658
30
0.0
11
1224.597500
21
302.122922
31
0.0
0
LINE
8
Calque 1
62
4
5
328
100
AcDbEntity
100
AcDbLine
10
1224.597500
20
302.122922
30
0.0
11
1229.448194
21
302.122922
31
0.0
0
LINE
8
Calque 1
62
4
5
329
100
AcDbEntity
100
AcDbLine
10
1229.448194
20
302.122922
30
0.0
11
1229.448194
21
311.815491
31
0.0
0
LINE
8
Calque 1
62
4
5
32a
100
AcDbEntity
100
AcDbLine
10
1229.448194
20
311.815491
30
0.0
11
1224.597500
21
311.815491
31
0.0
0
LINE
8
Calque 1
62
4
5
32b
100
AcDbEntity
100
AcDbLine
10
1224.597500
20
311.815491
30
0.0
11
1224.597500
21
345.752714
31
0.0
0
LINE
8
Calque 1
62
4
5
32c
100
AcDbEntity
100
AcDbLine
10
1224.597500
20
345.752714
30
0.0
11
1214.904916
21
345.752714
31
0.0
0
LINE
8
Calque 1
62
4
5
32d
100
AcDbEntity
100
AcDbLine
10
1214.904916
20
345.752714
30
0.0
11
1190.669083
21
311.815491
31
0.0
0
LINE
8
Calque 1
62
4
5
32e
100
AcDbEntity
100
AcDbLine
10
1190.669083
20
311.815491
30
0.0
11
1190.669083
21
302.122922
31
0.0
0
LINE
8
Calque 1
62
4
5
32f
100
AcDbEntity
100
AcDbLine
10
1190.669083
20
302.122922
30
0.0
11
1214.278750
21
302.122922
31
0.0
0
LINE
8
Calque 1
62
4
5
330
100
AcDbEntity
100
AcDbLine
10
1214.278750
20
302.122922
30
0.0
11
1214.278750
21
311.815491
31
0.0
0
LINE
8
Calque 1
62
4
5
331
100
AcDbEntity
100
AcDbLine
10
1214.278750
20
311.815491
30
0.0
11
1202.690000
21
311.815491
31
0.0
0
LINE
8
Calque 1
62
4
5
332
100
AcDbEntity
100
AcDbLine
10
1202.690000
20
311.815491
30
0.0
11
1214.904916
21
328.687089
31
0.0
0
LINE
8
Calque 1
62
4
5
333
100
AcDbEntity
100
AcDbLine
10
1214.904916
20
328.687089
30
0.0
11
1214.904916
21
311.815491
31
0.0
0
LINE
8
Calque 1
62
4
5
334
100
AcDbEntity
100
AcDbLine
10
1214.904916
20
311.815491
30
0.0
11
1214.737361
21
311.815491
31
0.0
0
LINE
8
Calque 1
62
4
5
335
100
AcDbEntity
100
AcDbLine
10
1214.737361
20
311.815491
30
0.0
11
1214.737361
21
302.122922
31
0.0
0
LINE
8
Calque 1
62
4
5
336
100
AcDbEntity
100
AcDbLine
10
1214.737361
20
302.122922
30
0.0
11
1214.904916
21
302.122922
31
0.0
0
LINE
8
Calque 1
62
4
5
337
100
AcDbEntity
100
AcDbLine
10
1214.904916
20
302.122922
30
0.0
11
1214.904916
21
287.579658
31
0.0
0
LINE
8
Calque 1
62
4
5
338
100
AcDbEntity
100
AcDbLine
10
1214.904916
20
287.579658
30
0.0
11
1216.871667
21
287.579658
31
0.0
0
LINE
8
Calque 1
62
4
5
339
100
AcDbEntity
100
AcDbLine
10
1216.871667
20
287.579658
30
0.0
11
1216.871667
21
282.914172
31
0.0
0
LINE
8
Calque 1
62
4
5
33a
100
AcDbEntity
100
AcDbLine
10
1261.392222
20
282.914172
30
0.0
11
1261.392222
21
287.579658
31
0.0
0
LINE
8
Calque 1
62
4
5
33b
100
AcDbEntity
100
AcDbLine
10
1261.392222
20
287.579658
30
0.0
11
1268.227306
21
287.579658
31
0.0
0
LINE
8
Calque 1
62
4
5
33c
100
AcDbEntity
100
AcDbLine
10
1268.227306
20
287.579658
30
0.0
11
1277.928695
21
297.272227
31
0.0
0
LINE
8
Calque 1
62
4
5
33d
100
AcDbEntity
100
AcDbLine
10
1277.928695
20
297.272227
30
0.0
11
1277.928695
21
311.815491
31
0.0
0
LINE
8
Calque 1
62
4
5
33e
100
AcDbEntity
100
AcDbLine
10
1277.928695
20
311.815491
30
0.0
11
1268.227306
21
321.508061
31
0.0
0
LINE
8
Calque 1
62
4
5
33f
100
AcDbEntity
100
AcDbLine
10
1268.227306
20
321.508061
30
0.0
11
1252.810917
21
321.508061
31
0.0
0
LINE
8
Calque 1
62
4
5
340
100
AcDbEntity
100
AcDbLine
10
1252.810917
20
321.508061
30
0.0
11
1248.842139
21
325.485630
31
0.0
0
LINE
8
Calque 1
62
4
5
341
100
AcDbEntity
100
AcDbLine
10
1248.842139
20
325.485630
30
0.0
11
1248.842139
21
336.051325
31
0.0
0
LINE
8
Calque 1
62
4
5
342
100
AcDbEntity
100
AcDbLine
10
1248.842139
20
336.051325
30
0.0
11
1277.928695
21
336.051325
31
0.0
0
LINE
8
Calque 1
62
4
5
343
100
AcDbEntity
100
AcDbLine
10
1277.928695
20
336.051325
30
0.0
11
1277.928695
21
345.752714
31
0.0
0
LINE
8
Calque 1
62
4
5
344
100
AcDbEntity
100
AcDbLine
10
1277.928695
20
345.752714
30
0.0
11
1239.140750
21
345.752714
31
0.0
0
LINE
8
Calque 1
62
4
5
345
100
AcDbEntity
100
AcDbLine
10
1239.140750
20
345.752714
30
0.0
11
1239.140750
21
321.508061
31
0.0
0
LINE
8
Calque 1
62
4
5
346
100
AcDbEntity
100
AcDbLine
10
1239.140750
20
321.508061
30
0.0
11
1248.842139
21
311.815491
31
0.0
0
LINE
8
Calque 1
62
4
5
347
100
AcDbEntity
100
AcDbLine
10
1248.842139
20
311.815491
30
0.0
11
1264.249722
21
311.815491
31
0.0
0
LINE
8
Calque 1
62
4
5
348
100
AcDbEntity
100
AcDbLine
10
1264.249722
20
311.815491
30
0.0
11
1268.227306
21
307.837922
31
0.0
0
LINE
8
Calque 1
62
4
5
349
100
AcDbEntity
100
AcDbLine
10
1268.227306
20
307.837922
30
0.0
11
1268.227306
21
301.249797
31
0.0
0
LINE
8
Calque 1
62
4
5
34a
100
AcDbEntity
100
AcDbLine
10
1268.227306
20
301.249797
30
0.0
11
1264.249722
21
297.272227
31
0.0
0
LINE
8
Calque 1
62
4
5
34b
100
AcDbEntity
100
AcDbLine
10
1264.249722
20
297.272227
30
0.0
11
1252.810917
21
297.272227
31
0.0
0
LINE
8
Calque 1
62
4
5
34c
100
AcDbEntity
100
AcDbLine
10
1252.810917
20
297.272227
30
0.0
11
1248.842139
21
301.249797
31
0.0
0
LINE
8
Calque 1
62
4
5
34d
100
AcDbEntity
100
AcDbLine
10
1248.842139
20
301.249797
30
0.0
11
1248.842139
21
302.122922
31
0.0
0
LINE
8
Calque 1
62
4
5
34e
100
AcDbEntity
100
AcDbLine
10
1248.842139
20
302.122922
30
0.0
11
1239.140750
21
302.122922
31
0.0
0
LINE
8
Calque 1
62
4
5
34f
100
AcDbEntity
100
AcDbLine
10
1239.140750
20
302.122922
30
0.0
11
1239.140750
21
297.272227
31
0.0
0
LINE
8
Calque 1
62
4
5
350
100
AcDbEntity
100
AcDbLine
10
1239.140750
20
297.272227
30
0.0
11
1248.842139
21
287.579658
31
0.0
0
LINE
8
Calque 1
62
4
5
351
100
AcDbEntity
100
AcDbLine
10
1248.842139
20
287.579658
30
0.0
11
1255.456750
21
287.579658
31
0.0
0
LINE
8
Calque 1
62
4
5
352
100
AcDbEntity
100
AcDbLine
10
1255.456750
20
287.579658
30
0.0
11
1255.456750
21
282.914172
31
0.0
0
LINE
8
Calque 1
62
4
5
353
100
AcDbEntity
100
AcDbLine
10
1309.572861
20
282.914172
30
0.0
11
1309.572861
21
287.579658
31
0.0
0
LINE
8
Calque 1
62
4
5
354
100
AcDbEntity
100
AcDbLine
10
1309.572861
20
287.579658
30
0.0
11
1316.707778
21
287.579658
31
0.0
0
LINE
8
Calque 1
62
4
5
355
100
AcDbEntity
100
AcDbLine
10
1316.707778
20
287.579658
30
0.0
11
1326.400361
21
297.272227
31
0.0
0
LINE
8
Calque 1
62
4
5
356
100
AcDbEntity
100
AcDbLine
10
1326.400361
20
297.272227
30
0.0
11
1326.400361
21
311.815491
31
0.0
0
LINE
8
Calque 1
62
4
5
357
100
AcDbEntity
100
AcDbLine
10
1326.400361
20
311.815491
30
0.0
11
1316.319722
21
321.508061
31
0.0
0
LINE
8
Calque 1
62
4
5
358
100
AcDbEntity
100
AcDbLine
10
1316.319722
20
321.508061
30
0.0
11
1297.313805
21
321.508061
31
0.0
0
LINE
8
Calque 1
62
4
5
359
100
AcDbEntity
100
AcDbLine
10
1297.313805
20
321.508061
30
0.0
11
1297.313805
21
332.082575
31
0.0
0
LINE
8
Calque 1
62
4
5
35a
100
AcDbEntity
100
AcDbLine
10
1297.313805
20
332.082575
30
0.0
11
1301.291389
21
336.051325
31
0.0
0
LINE
8
Calque 1
62
4
5
35b
100
AcDbEntity
100
AcDbLine
10
1301.291389
20
336.051325
30
0.0
11
1312.730194
21
336.051325
31
0.0
0
LINE
8
Calque 1
62
4
5
35c
100
AcDbEntity
100
AcDbLine
10
1312.730194
20
336.051325
30
0.0
11
1316.707778
21
332.082575
31
0.0
0
LINE
8
Calque 1
62
4
5
35d
100
AcDbEntity
100
AcDbLine
10
1316.707778
20
332.082575
30
0.0
11
1316.707778
21
331.209450
31
0.0
0
LINE
8
Calque 1
62
4
5
35e
100
AcDbEntity
100
AcDbLine
10
1316.707778
20
331.209450
30
0.0
11
1326.400361
21
331.209450
31
0.0
0
LINE
8
Calque 1
62
4
5
35f
100
AcDbEntity
100
AcDbLine
10
1326.400361
20
331.209450
30
0.0
11
1326.400361
21
336.051325
31
0.0
0
LINE
8
Calque 1
62
4
5
360
100
AcDbEntity
100
AcDbLine
10
1326.400361
20
336.051325
30
0.0
11
1316.707778
21
345.752714
31
0.0
0
LINE
8
Calque 1
62
4
5
361
100
AcDbEntity
100
AcDbLine
10
1316.707778
20
345.752714
30
0.0
11
1297.313805
21
345.752714
31
0.0
0
LINE
8
Calque 1
62
4
5
362
100
AcDbEntity
100
AcDbLine
10
1297.313805
20
345.752714
30
0.0
11
1287.621250
21
336.051325
31
0.0
0
LINE
8
Calque 1
62
4
5
363
100
AcDbEntity
100
AcDbLine
10
1287.621250
20
336.051325
30
0.0
11
1287.621250
21
297.272227
31
0.0
0
LINE
8
Calque 1
62
4
5
364
100
AcDbEntity
100
AcDbLine
10
1287.621250
20
297.272227
30
0.0
11
1292.648333
21
292.245144
31
0.0
0
LINE
8
Calque 1
62
4
5
365
100
AcDbEntity
100
AcDbLine
10
1292.648333
20
292.245144
30
0.0
11
1298.892500
21
299.671116
31
0.0
0
LINE
8
Calque 1
62
4
5
366
100
AcDbEntity
100
AcDbLine
10
1298.892500
20
299.671116
30
0.0
11
1297.313805
21
301.249797
31
0.0
0
LINE
8
Calque 1
62
4
5
367
100
AcDbEntity
100
AcDbLine
10
1297.313805
20
301.249797
30
0.0
11
1297.313805
21
311.815491
31
0.0
0
LINE
8
Calque 1
62
4
5
368
100
AcDbEntity
100
AcDbLine
10
1297.313805
20
311.815491
30
0.0
11
1312.730194
21
311.815491
31
0.0
0
LINE
8
Calque 1
62
4
5
369
100
AcDbEntity
100
AcDbLine
10
1312.730194
20
311.815491
30
0.0
11
1316.707778
21
307.837922
31
0.0
0
LINE
8
Calque 1
62
4
5
36a
100
AcDbEntity
100
AcDbLine
10
1316.707778
20
307.837922
30
0.0
11
1316.707778
21
301.249797
31
0.0
0
LINE
8
Calque 1
62
4
5
36b
100
AcDbEntity
100
AcDbLine
10
1316.707778
20
301.249797
30
0.0
11
1312.730194
21
297.272227
31
0.0
0
LINE
8
Calque 1
62
4
5
36c
100
AcDbEntity
100
AcDbLine
10
1312.730194
20
297.272227
30
0.0
11
1301.291389
21
297.272227
31
0.0
0
LINE
8
Calque 1
62
4
5
36d
100
AcDbEntity
100
AcDbLine
10
1301.291389
20
297.272227
30
0.0
11
1299.139444
21
299.424172
31
0.0
0
LINE
8
Calque 1
62
4
5
36e
100
AcDbEntity
100
AcDbLine
10
1299.139444
20
299.424172
30
0.0
11
1292.895278
21
291.998200
31
0.0
0
LINE
8
Calque 1
62
4
5
36f
100
AcDbEntity
100
AcDbLine
10
1292.895278
20
291.998200
30
0.0
11
1297.313805
21
287.579658
31
0.0
0
LINE
8
Calque 1
62
4
5
370
100
AcDbEntity
100
AcDbLine
10
1297.313805
20
287.579658
30
0.0
11
1303.628528
21
287.579658
31
0.0
0
LINE
8
Calque 1
62
4
5
371
100
AcDbEntity
100
AcDbLine
10
1303.628528
20
287.579658
30
0.0
11
1303.628528
21
282.914172
31
0.0
0
LINE
8
Calque 1
62
4
5
372
100
AcDbEntity
100
AcDbLine
10
1345.291583
20
282.914172
30
0.0
11
1345.291583
21
287.579658
31
0.0
0
LINE
8
Calque 1
62
4
5
373
100
AcDbEntity
100
AcDbLine
10
1345.291583
20
287.579658
30
0.0
11
1347.249528
21
287.579658
31
0.0
0
LINE
8
Calque 1
62
4
5
374
100
AcDbEntity
100
AcDbLine
10
1347.249528
20
287.579658
30
0.0
11
1374.880833
21
336.051325
31
0.0
0
LINE
8
Calque 1
62
4
5
375
100
AcDbEntity
100
AcDbLine
10
1374.880833
20
336.051325
30
0.0
11
1365.179444
21
345.752714
31
0.0
0
LINE
8
Calque 1
62
4
5
376
100
AcDbEntity
100
AcDbLine
10
1365.179444
20
345.752714
30
0.0
11
1336.092917
21
345.752714
31
0.0
0
LINE
8
Calque 1
62
4
5
377
100
AcDbEntity
100
AcDbLine
10
1336.092917
20
345.752714
30
0.0
11
1336.092917
21
336.051325
31
0.0
0
LINE
8
Calque 1
62
4
5
378
100
AcDbEntity
100
AcDbLine
10
1336.092917
20
336.051325
30
0.0
11
1361.201861
21
336.051325
31
0.0
0
LINE
8
Calque 1
62
4
5
379
100
AcDbEntity
100
AcDbLine
10
1361.201861
20
336.051325
30
0.0
11
1362.754083
21
334.402089
31
0.0
0
LINE
8
Calque 1
62
4
5
37a
100
AcDbEntity
100
AcDbLine
10
1362.754083
20
334.402089
30
0.0
11
1336.092917
21
287.579658
31
0.0
0
LINE
8
Calque 1
62
4
5
37b
100
AcDbEntity
100
AcDbLine
10
1336.092917
20
287.579658
30
0.0
11
1339.347306
21
287.579658
31
0.0
0
LINE
8
Calque 1
62
4
5
37c
100
AcDbEntity
100
AcDbLine
10
1339.347306
20
287.579658
30
0.0
11
1339.347306
21
282.914172
31
0.0
0
LINE
8
Calque 1
62
4
5
37d
100
AcDbEntity
100
AcDbLine
10
1407.248194
20
282.808339
30
0.0
11
1407.248194
21
287.579658
31
0.0
0
LINE
8
Calque 1
62
4
5
37e
100
AcDbEntity
100
AcDbLine
10
1407.248194
20
287.579658
30
0.0
11
1413.659916
21
287.579658
31
0.0
0
LINE
8
Calque 1
62
4
5
37f
100
AcDbEntity
100
AcDbLine
10
1413.659916
20
287.579658
30
0.0
11
1423.352500
21
297.272227
31
0.0
0
LINE
8
Calque 1
62
4
5
380
100
AcDbEntity
100
AcDbLine
10
1423.352500
20
297.272227
30
0.0
11
1423.352500
21
311.815491
31
0.0
0
LINE
8
Calque 1
62
4
5
381
100
AcDbEntity
100
AcDbLine
10
1423.352500
20
311.815491
30
0.0
11
1418.501806
21
316.666186
31
0.0
0
LINE
8
Calque 1
62
4
5
382
100
AcDbEntity
100
AcDbLine
10
1418.501806
20
316.666186
30
0.0
11
1423.352500
21
321.508061
31
0.0
0
LINE
8
Calque 1
62
4
5
383
100
AcDbEntity
100
AcDbLine
10
1423.352500
20
321.508061
30
0.0
11
1423.352500
21
336.051325
31
0.0
0
LINE
8
Calque 1
62
4
5
384
100
AcDbEntity
100
AcDbLine
10
1423.352500
20
336.051325
30
0.0
11
1413.659916
21
345.752714
31
0.0
0
LINE
8
Calque 1
62
4
5
385
100
AcDbEntity
100
AcDbLine
10
1413.659916
20
345.752714
30
0.0
11
1394.265972
21
345.752714
31
0.0
0
LINE
8
Calque 1
62
4
5
386
100
AcDbEntity
100
AcDbLine
10
1394.265972
20
345.752714
30
0.0
11
1384.573417
21
336.051325
31
0.0
0
LINE
8
Calque 1
62
4
5
387
100
AcDbEntity
100
AcDbLine
10
1384.573417
20
336.051325
30
0.0
11
1384.573417
21
321.508061
31
0.0
0
LINE
8
Calque 1
62
4
5
388
100
AcDbEntity
100
AcDbLine
10
1384.573417
20
321.508061
30
0.0
11
1389.415278
21
316.666186
31
0.0
0
LINE
8
Calque 1
62
4
5
389
100
AcDbEntity
100
AcDbLine
10
1389.415278
20
316.666186
30
0.0
11
1384.573417
21
311.815491
31
0.0
0
LINE
8
Calque 1
62
4
5
38a
100
AcDbEntity
100
AcDbLine
10
1384.573417
20
311.815491
30
0.0
11
1384.573417
21
297.272227
31
0.0
0
LINE
8
Calque 1
62
4
5
38b
100
AcDbEntity
100
AcDbLine
10
1384.573417
20
297.272227
30
0.0
11
1394.265972
21
287.579658
31
0.0
0
LINE
8
Calque 1
62
4
5
38c
100
AcDbEntity
100
AcDbLine
10
1394.265972
20
287.579658
30
0.0
11
1399.628194
21
287.579658
31
0.0
0
LINE
8
Calque 1
62
4
5
38d
100
AcDbEntity
100
AcDbLine
10
1399.628194
20
287.579658
30
0.0
11
1399.601666
21
297.272227
31
0.0
0
LINE
8
Calque 1
62
4
5
38e
100
AcDbEntity
100
AcDbLine
10
1399.601666
20
297.272227
30
0.0
11
1398.243443
21
297.272227
31
0.0
0
LINE
8
Calque 1
62
4
5
38f
100
AcDbEntity
100
AcDbLine
10
1398.243443
20
297.272227
30
0.0
11
1394.265888
21
301.249797
31
0.0
0
LINE
8
Calque 1
62
4
5
390
100
AcDbEntity
100
AcDbLine
10
1394.265888
20
301.249797
30
0.0
11
1394.265888
21
307.837922
31
0.0
0
LINE
8
Calque 1
62
4
5
391
100
AcDbEntity
100
AcDbLine
10
1394.265888
20
307.837922
30
0.0
11
1398.243443
21
311.815491
31
0.0
0
LINE
8
Calque 1
62
4
5
392
100
AcDbEntity
100
AcDbLine
10
1398.243443
20
311.815491
30
0.0
11
1399.566388
21
311.815491
31
0.0
0
LINE
8
Calque 1
62
4
5
393
100
AcDbEntity
100
AcDbLine
10
1399.566388
20
311.815491
30
0.0
11
1399.539859
21
321.508061
31
0.0
0
LINE
8
Calque 1
62
4
5
394
100
AcDbEntity
100
AcDbLine
10
1399.539859
20
321.508061
30
0.0
11
1398.243386
21
321.508061
31
0.0
0
LINE
8
Calque 1
62
4
5
395
100
AcDbEntity
100
AcDbLine
10
1398.243386
20
321.508061
30
0.0
11
1394.265831
21
325.485630
31
0.0
0
LINE
8
Calque 1
62
4
5
396
100
AcDbEntity
100
AcDbLine
10
1394.265831
20
325.485630
30
0.0
11
1394.265831
21
332.082575
31
0.0
0
LINE
8
Calque 1
62
4
5
397
100
AcDbEntity
100
AcDbLine
10
1394.265831
20
332.082575
30
0.0
11
1398.243386
21
336.051325
31
0.0
0
LINE
8
Calque 1
62
4
5
398
100
AcDbEntity
100
AcDbLine
10
1398.243386
20
336.051325
30
0.0
11
1409.682220
21
336.051325
31
0.0
0
LINE
8
Calque 1
62
4
5
399
100
AcDbEntity
100
AcDbLine
10
1409.682220
20
336.051325
30
0.0
11
1413.659775
21
332.082575
31
0.0
0
LINE
8
Calque 1
62
4
5
39a
100
AcDbEntity
100
AcDbLine
10
1413.659775
20
332.082575
30
0.0
11
1413.659775
21
325.485630
31
0.0
0
LINE
8
Calque 1
62
4
5
39b
100
AcDbEntity
100
AcDbLine
10
1413.659775
20
325.485630
30
0.0
11
1409.682220
21
321.508061
31
0.0
0
LINE
8
Calque 1
62
4
5
39c
100
AcDbEntity
100
AcDbLine
10
1409.682220
20
321.508061
30
0.0
11
1399.989665
21
321.508061
31
0.0
0
LINE
8
Calque 1
62
4
5
39d
100
AcDbEntity
100
AcDbLine
10
1399.989665
20
321.508061
30
0.0
11
1400.024942
21
311.815491
31
0.0
0
LINE
8
Calque 1
62
4
5
39e
100
AcDbEntity
100
AcDbLine
10
1400.024942
20
311.815491
30
0.0
11
1409.682220
21
311.815491
31
0.0
0
LINE
8
Calque 1
62
4
5
39f
100
AcDbEntity
100
AcDbLine
10
1409.682220
20
311.815491
30
0.0
11
1413.659775
21
307.837922
31
0.0
0
LINE
8
Calque 1
62
4
5
3a0
100
AcDbEntity
100
AcDbLine
10
1413.659775
20
307.837922
30
0.0
11
1413.659775
21
301.249797
31
0.0
0
LINE
8
Calque 1
62
4
5
3a1
100
AcDbEntity
100
AcDbLine
10
1413.659775
20
301.249797
30
0.0
11
1409.682220
21
297.272227
31
0.0
0
LINE
8
Calque 1
62
4
5
3a2
100
AcDbEntity
100
AcDbLine
10
1409.682220
20
297.272227
30
0.0
11
1400.077831
21
297.272227
31
0.0
0
LINE
8
Calque 1
62
4
5
3a3
100
AcDbEntity
100
AcDbLine
10
1400.077831
20
297.272227
30
0.0
11
1400.121942
21
287.579658
31
0.0
0
LINE
8
Calque 1
62
4
5
3a4
100
AcDbEntity
100
AcDbLine
10
1400.121942
20
287.579658
30
0.0
11
1401.303748
21
287.579658
31
0.0
0
LINE
8
Calque 1
62
4
5
3a5
100
AcDbEntity
100
AcDbLine
10
1401.303748
20
287.579658
30
0.0
11
1401.303748
21
282.808339
31
0.0
0
LINE
8
Calque 1
62
4
5
3a6
100
AcDbEntity
100
AcDbLine
10
1456.196111
20
282.808339
30
0.0
11
1456.196111
21
287.579658
31
0.0
0
LINE
8
Calque 1
62
4
5
3a7
100
AcDbEntity
100
AcDbLine
10
1456.196111
20
287.579658
30
0.0
11
1462.131583
21
287.579658
31
0.0
0
LINE
8
Calque 1
62
4
5
3a8
100
AcDbEntity
100
AcDbLine
10
1462.131583
20
287.579658
30
0.0
11
1471.824167
21
297.272227
31
0.0
0
LINE
8
Calque 1
62
4
5
3a9
100
AcDbEntity
100
AcDbLine
10
1471.824167
20
297.272227
30
0.0
11
1471.824167
21
336.051325
31
0.0
0
LINE
8
Calque 1
62
4
5
3aa
100
AcDbEntity
100
AcDbLine
10
1471.824167
20
336.051325
30
0.0
11
1462.131583
21
345.752714
31
0.0
0
LINE
8
Calque 1
62
4
5
3ab
100
AcDbEntity
100
AcDbLine
10
1462.131583
20
345.752714
30
0.0
11
1442.737639
21
345.752714
31
0.0
0
LINE
8
Calque 1
62
4
5
3ac
100
AcDbEntity
100
AcDbLine
10
1442.737639
20
345.752714
30
0.0
11
1433.045084
21
336.051325
31
0.0
0
LINE
8
Calque 1
62
4
5
3ad
100
AcDbEntity
100
AcDbLine
10
1433.045084
20
336.051325
30
0.0
11
1433.045084
21
321.508061
31
0.0
0
LINE
8
Calque 1
62
4
5
3ae
100
AcDbEntity
100
AcDbLine
10
1433.045084
20
321.508061
30
0.0
11
1437.728194
21
317.001325
31
0.0
0
LINE
8
Calque 1
62
4
5
3af
100
AcDbEntity
100
AcDbLine
10
1437.728194
20
317.001325
30
0.0
11
1444.739639
21
323.483616
31
0.0
0
LINE
8
Calque 1
62
4
5
3b0
100
AcDbEntity
100
AcDbLine
10
1444.739639
20
323.483616
30
0.0
11
1442.737639
21
325.485630
31
0.0
0
LINE
8
Calque 1
62
4
5
3b1
100
AcDbEntity
100
AcDbLine
10
1442.737639
20
325.485630
30
0.0
11
1442.737639
21
332.082575
31
0.0
0
LINE
8
Calque 1
62
4
5
3b2
100
AcDbEntity
100
AcDbLine
10
1442.737639
20
332.082575
30
0.0
11
1446.715194
21
336.051325
31
0.0
0
LINE
8
Calque 1
62
4
5
3b3
100
AcDbEntity
100
AcDbLine
10
1446.715194
20
336.051325
30
0.0
11
1458.154028
21
336.051325
31
0.0
0
LINE
8
Calque 1
62
4
5
3b4
100
AcDbEntity
100
AcDbLine
10
1458.154028
20
336.051325
30
0.0
11
1462.131583
21
332.082575
31
0.0
0
LINE
8
Calque 1
62
4
5
3b5
100
AcDbEntity
100
AcDbLine
10
1462.131583
20
332.082575
30
0.0
11
1462.131583
21
321.508061
31
0.0
0
LINE
8
Calque 1
62
4
5
3b6
100
AcDbEntity
100
AcDbLine
10
1462.131583
20
321.508061
30
0.0
11
1446.715194
21
321.508061
31
0.0
0
LINE
8
Calque 1
62
4
5
3b7
100
AcDbEntity
100
AcDbLine
10
1446.715194
20
321.508061
30
0.0
11
1444.968972
21
323.254311
31
0.0
0
LINE
8
Calque 1
62
4
5
3b8
100
AcDbEntity
100
AcDbLine
10
1444.968972
20
323.254311
30
0.0
11
1437.983972
21
316.763200
31
0.0
0
LINE
8
Calque 1
62
4
5
3b9
100
AcDbEntity
100
AcDbLine
10
1437.983972
20
316.763200
30
0.0
11
1443.125694
21
311.815491
31
0.0
0
LINE
8
Calque 1
62
4
5
3ba
100
AcDbEntity
100
AcDbLine
10
1443.125694
20
311.815491
30
0.0
11
1462.131583
21
311.815491
31
0.0
0
LINE
8
Calque 1
62
4
5
3bb
100
AcDbEntity
100
AcDbLine
10
1462.131583
20
311.815491
30
0.0
11
1462.131583
21
301.249797
31
0.0
0
LINE
8
Calque 1
62
4
5
3bc
100
AcDbEntity
100
AcDbLine
10
1462.131583
20
301.249797
30
0.0
11
1458.154028
21
297.272227
31
0.0
0
LINE
8
Calque 1
62
4
5
3bd
100
AcDbEntity
100
AcDbLine
10
1458.154028
20
297.272227
30
0.0
11
1446.715194
21
297.272227
31
0.0
0
LINE
8
Calque 1
62
4
5
3be
100
AcDbEntity
100
AcDbLine
10
1446.715194
20
297.272227
30
0.0
11
1442.737639
21
301.249797
31
0.0
0
LINE
8
Calque 1
62
4
5
3bf
100
AcDbEntity
100
AcDbLine
10
1442.737639
20
301.249797
30
0.0
11
1442.737639
21
302.122922
31
0.0
0
LINE
8
Calque 1
62
4
5
3c0
100
AcDbEntity
100
AcDbLine
10
1442.737639
20
302.122922
30
0.0
11
1433.045084
21
302.122922
31
0.0
0
LINE
8
Calque 1
62
4
5
3c1
100
AcDbEntity
100
AcDbLine
10
1433.045084
20
302.122922
30
0.0
11
1433.045084
21
297.272227
31
0.0
0
LINE
8
Calque 1
62
4
5
3c2
100
AcDbEntity
100
AcDbLine
10
1433.045084
20
297.272227
30
0.0
11
1442.737639
21
287.579658
31
0.0
0
LINE
8
Calque 1
62
4
5
3c3
100
AcDbEntity
100
AcDbLine
10
1442.737639
20
287.579658
30
0.0
11
1450.251806
21
287.579658
31
0.0
0
LINE
8
Calque 1
62
4
5
3c4
100
AcDbEntity
100
AcDbLine
10
1450.251806
20
287.579658
30
0.0
11
1450.251806
21
282.808339
31
0.0
0
LINE
8
Calque 1
62
4
5
3c5
100
AcDbEntity
100
AcDbLine
10
1494.446028
20
282.781880
30
0.0
11
1494.446028
21
311.815491
31
0.0
0
LINE
8
Calque 1
62
4
5
3c6
100
AcDbEntity
100
AcDbLine
10
1494.446028
20
311.815491
30
0.0
11
1500.910694
21
311.815491
31
0.0
0
LINE
8
Calque 1
62
4
5
3c7
100
AcDbEntity
100
AcDbLine
10
1500.910694
20
311.815491
30
0.0
11
1500.910694
21
321.508061
31
0.0
0
LINE
8
Calque 1
62
4
5
3c8
100
AcDbEntity
100
AcDbLine
10
1500.910694
20
321.508061
30
0.0
11
1481.516750
21
321.508061
31
0.0
0
LINE
8
Calque 1
62
4
5
3c9
100
AcDbEntity
100
AcDbLine
10
1481.516750
20
321.508061
30
0.0
11
1481.516750
21
311.815491
31
0.0
0
LINE
8
Calque 1
62
4
5
3ca
100
AcDbEntity
100
AcDbLine
10
1481.516750
20
311.815491
30
0.0
11
1488.510556
21
311.815491
31
0.0
0
LINE
8
Calque 1
62
4
5
3cb
100
AcDbEntity
100
AcDbLine
10
1488.510556
20
311.815491
30
0.0
11
1488.510556
21
282.781880
31
0.0
0
LINE
8
Calque 1
62
4
5
3cc
100
AcDbEntity
100
AcDbLine
10
1518.814167
20
282.808339
30
0.0
11
1518.814167
21
287.579658
31
0.0
0
LINE
8
Calque 1
62
4
5
3cd
100
AcDbEntity
100
AcDbLine
10
1518.814167
20
287.579658
30
0.0
11
1520.375194
21
287.579658
31
0.0
0
LINE
8
Calque 1
62
4
5
3ce
100
AcDbEntity
100
AcDbLine
10
1520.375194
20
287.579658
30
0.0
11
1520.375194
21
297.272227
31
0.0
0
LINE
8
Calque 1
62
4
5
3cf
100
AcDbEntity
100
AcDbLine
10
1520.375194
20
297.272227
30
0.0
11
1510.682639
21
297.272227
31
0.0
0
LINE
8
Calque 1
62
4
5
3d0
100
AcDbEntity
100
AcDbLine
10
1510.682639
20
297.272227
30
0.0
11
1510.682639
21
287.579658
31
0.0
0
LINE
8
Calque 1
62
4
5
3d1
100
AcDbEntity
100
AcDbLine
10
1510.682639
20
287.579658
30
0.0
11
1512.869861
21
287.579658
31
0.0
0
LINE
8
Calque 1
62
4
5
3d2
100
AcDbEntity
100
AcDbLine
10
1512.869861
20
287.579658
30
0.0
11
1512.869861
21
282.808339
31
0.0
  0
ENDSEC
  0
SECTION
  2
OBJECTS
  0
DICTIONARY
  5
C
330
0
100
AcDbDictionary
  3
ACAD_GROUP
350
D
  3
ACAD_MLINESTYLE
350
17
  0
DICTIONARY
  5
D
330
C
100
AcDbDictionary
  0
DICTIONARY
  5
1A
330
C
100
AcDbDictionary
  0
DICTIONARY
  5
17
330
C
100
AcDbDictionary
  3
STANDARD
350
18
  0
DICTIONARY
  5
19
330
C
100
AcDbDictionary
  0
ENDSEC
  0
EOF
