   0
SECTION
   2
ENTITIES
   0
POLYLINE
   8
0
  66
 1
   6
Continuous
  10
 0.0
  20
 0.0
  30
 0.0
  70
 128
   0
VERTEX
   8
0
   6
Continuous
  10
 280.000000
  20
 33.090401
  30
 0.0
   0
VERTEX
   8
0
   6
Continuous
  10
 279.873993
  20
 35.434002
  30
 0.0
   0
VERTEX
   8
0
   6
Continuous
  10
 279.235596
  20
 37.903599
  30
 0.0
   0
VERTEX
   8
0
   6
Continuous
  10
 278.140808
  20
 40.171600
  30
 0.0
   0
VERTEX
   8
0
   6
Continuous
  10
 276.967590
  20
 41.675201
  30
 0.0
   0
VERTEX
   8
0
   6
Continuous
  10
 275.746796
  20
 42.666401
  30
 0.0
   0
VERTEX
   8
0
   6
Continuous
  10
 273.403198
  20
 43.559601
  30
 0.0
   0
VERTEX
   8
0
   6
Continuous
  10
 266.957581
  20
 45.393600
  30
 0.0
   0
VERTEX
   8
0
   6
Continuous
  10
 257.787598
  20
 47.328400
  30
 0.0
   0
VERTEX
   8
0
   6
Continuous
  10
 247.928818
  20
 48.958000
  30
 0.0
   0
VERTEX
   8
0
   6
Continuous
  10
 234.556015
  20
 50.537201
  30
 0.0
   0
VERTEX
   8
0
   6
Continuous
  10
 224.442413
  20
 51.380001
  30
 0.0
   0
VERTEX
   8
0
   6
Continuous
  10
 213.847198
  20
 51.914795
  30
 0.0
   0
VERTEX
   8
0
   6
Continuous
  10
 206.992813
  20
 52.015598
  30
 0.0
   0
VERTEX
   8
0
   6
Continuous
  10
 176.503601
  20
 52.015598
  30
 0.0
   0
VERTEX
   8
0
   6
Continuous
  10
 176.503601
  20
 42.005604
  30
 0.0
   0
VERTEX
   8
0
   6
Continuous
  10
 173.496399
  20
 42.005604
  30
 0.0
   0
VERTEX
   8
0
   6
Continuous
  10
 173.496399
  20
 52.015598
  30
 0.0
   0
VERTEX
   8
0
   6
Continuous
  10
 107.522789
  20
 52.015598
  30
 0.0
   0
VERTEX
   8
0
   6
Continuous
  10
 107.522789
  20
 56.193199
  30
 0.0
   0
VERTEX
   8
0
   6
Continuous
  10
 134.268402
  20
 56.193199
  30
 0.0
   0
VERTEX
   8
0
   6
Continuous
  10
 147.156815
  20
 57.313198
  30
 0.0
   0
VERTEX
   8
0
   6
Continuous
  10
 146.955200
  20
 59.555996
  30
 0.0
   0
VERTEX
   8
0
   6
Continuous
  10
 96.034401
  20
 61.770798
  30
 0.0
   0
VERTEX
   8
0
   6
Continuous
  10
 96.160408
  20
 64.778000
  30
 0.0
   0
VERTEX
   8
0
   6
Continuous
  10
 148.100403
  20
 62.510002
  30
 0.0
   0
VERTEX
   8
0
   6
Continuous
  10
 147.974396
  20
 59.505604
  30
 0.0
   0
VERTEX
   8
0
   6
Continuous
  10
 148.150803
  20
 57.391598
  30
 0.0
   0
VERTEX
   8
0
   6
Continuous
  10
 190.895599
  20
 61.059597
  30
 0.0
   0
VERTEX
   8
0
   6
Continuous
  10
 238.783997
  20
 57.671600
  30
 0.0
   0
VERTEX
   8
0
   6
Continuous
  10
 239.142410
  20
 59.402000
  30
 0.0
   0
VERTEX
   8
0
   6
Continuous
  10
 239.828400
  20
 60.830002
  30
 0.0
   0
VERTEX
   8
0
   6
Continuous
  10
 240.822403
  20
 62.078800
  30
 0.0
   0
VERTEX
   8
0
   6
Continuous
  10
 242.451996
  20
 63.249195
  30
 0.0
   0
VERTEX
   8
0
   6
Continuous
  10
 242.631195
  20
 63.349998
  30
 0.0
   0
VERTEX
   8
0
   6
Continuous
  10
 244.260803
  20
 58.892399
  30
 0.0
   0
VERTEX
   8
0
   6
Continuous
  10
 243.115585
  20
 58.231598
  30
 0.0
   0
VERTEX
   8
0
   6
Continuous
  10
 242.247589
  20
 57.212402
  30
 0.0
   0
VERTEX
   8
0
   6
Continuous
  10
 241.791183
  20
 56.117599
  30
 0.0
   0
VERTEX
   8
0
   6
Continuous
  10
 241.712784
  20
 54.767998
  30
 0.0
   0
VERTEX
   8
0
   6
Continuous
  10
 242.020798
  20
 53.594803
  30
 0.0
   0
VERTEX
   8
0
   6
Continuous
  10
 242.936401
  20
 52.320797
  30
 0.0
   0
VERTEX
   8
0
   6
Continuous
  10
 244.185196
  20
 51.581604
  30
 0.0
   0
VERTEX
   8
0
   6
Continuous
  10
 245.330383
  20
 51.301601
  30
 0.0
   0
VERTEX
   8
0
   6
Continuous
  10
 246.783600
  20
 51.480801
  30
 0.0
   0
VERTEX
   8
0
   6
Continuous
  10
 247.953995
  20
 52.119202
  30
 0.0
   0
VERTEX
   8
0
   6
Continuous
  10
 248.872406
  20
 53.060001
  30
 0.0
   0
VERTEX
   8
0
   6
Continuous
  10
 249.407196
  20
 54.308800
  30
 0.0
   0
VERTEX
   8
0
   6
Continuous
  10
 249.482788
  20
 55.607998
  30
 0.0
   0
VERTEX
   8
0
   6
Continuous
  10
 249.076797
  20
 57.008003
  30
 0.0
   0
VERTEX
   8
0
   6
Continuous
  10
 248.183609
  20
 58.156002
  30
 0.0
   0
VERTEX
   8
0
   6
Continuous
  10
 246.909592
  20
 58.892399
  30
 0.0
   0
VERTEX
   8
0
   6
Continuous
  10
 248.541992
  20
 63.349998
  30
 0.0
   0
VERTEX
   8
0
   6
Continuous
  10
 250.068008
  20
 62.333599
  30
 0.0
   0
VERTEX
   8
0
   6
Continuous
  10
 251.190796
  20
 61.110001
  30
 0.0
   0
VERTEX
   8
0
   6
Continuous
  10
 252.030807
  20
 59.455196
  30
 0.0
   0
VERTEX
   8
0
   6
Continuous
  10
 252.361191
  20
 58.231598
  30
 0.0
   0
VERTEX
   8
0
   6
Continuous
  10
 258.781616
  20
 59.684799
  30
 0.0
   0
VERTEX
   8
0
   6
Continuous
  10
 264.742798
  20
 61.543999
  30
 0.0
   0
VERTEX
   8
0
   6
Continuous
  10
 269.071594
  20
 63.299603
  30
 0.0
   0
VERTEX
   8
0
   6
Continuous
  10
 272.000397
  20
 64.752800
  30
 0.0
   0
VERTEX
   8
0
   6
Continuous
  10
 275.058014
  20
 66.738007
  30
 0.0
   0
VERTEX
   8
0
   6
Continuous
  10
 276.816406
  20
 68.266800
  30
 0.0
   0
VERTEX
   8
0
   6
Continuous
  10
 278.191193
  20
 70.075600
  30
 0.0
   0
VERTEX
   8
0
   6
Continuous
  10
 278.751190
  20
 71.629601
  30
 0.0
   0
VERTEX
   8
0
   6
Continuous
  10
 278.801605
  20
 73.718399
  30
 0.0
   0
VERTEX
   8
0
   6
Continuous
  10
 278.395599
  20
 79.119598
  30
 0.0
   0
VERTEX
   8
0
   6
Continuous
  10
 277.656403
  20
 83.703201
  30
 0.0
   0
VERTEX
   8
0
   6
Continuous
  10
 276.637207
  20
 87.855598
  30
 0.0
   0
VERTEX
   8
0
   6
Continuous
  10
 275.133606
  20
 92.391602
  30
 0.0
   0
VERTEX
   8
0
   6
Continuous
  10
 273.198792
  20
 96.720398
  30
 0.0
   0
VERTEX
   8
0
   6
Continuous
  10
 271.135193
  20
 100.388405
  30
 0.0
   0
VERTEX
   8
0
   6
Continuous
  10
 268.231628
  20
 104.490402
  30
 0.0
   0
VERTEX
   8
0
   6
Continuous
  10
 264.944397
  20
 108.032402
  30
 0.0
   0
VERTEX
   8
0
   6
Continuous
  10
 261.380005
  20
 110.986404
  30
 0.0
   0
VERTEX
   8
0
   6
Continuous
  10
 257.966797
  20
 113.075195
  30
 0.0
   0
VERTEX
   8
0
   6
Continuous
  10
 255.214401
  20
 114.349190
  30
 0.0
   0
VERTEX
   8
0
   6
Continuous
  10
 252.411606
  20
 115.290001
  30
 0.0
   0
VERTEX
   8
0
   6
Continuous
  10
 248.948013
  20
 116.029198
  30
 0.0
   0
VERTEX
   8
0
   6
Continuous
  10
 245.380798
  20
 116.233604
  30
 0.0
   0
VERTEX
   8
0
   6
Continuous
  10
 242.936401
  20
 116.003998
  30
 0.0
   0
VERTEX
   8
0
   6
Continuous
  10
 240.413605
  20
 115.315193
  30
 0.0
   0
VERTEX
   8
0
   6
Continuous
  10
 238.274399
  20
 114.349190
  30
 0.0
   0
VERTEX
   8
0
   6
Continuous
  10
 236.415222
  20
 112.999596
  30
 0.0
   0
VERTEX
   8
0
   6
Continuous
  10
 235.320404
  20
 111.647202
  30
 0.0
   0
VERTEX
   8
0
   6
Continuous
  10
 234.810806
  20
 110.476807
  30
 0.0
   0
VERTEX
   8
0
   6
Continuous
  10
 231.601990
  20
 111.621994
  30
 0.0
   0
VERTEX
   8
0
   6
Continuous
  10
 236.770813
  20
 126.039200
  30
 0.0
   0
VERTEX
   8
0
   6
Continuous
  10
 237.588394
  20
 126.957611
  30
 0.0
   0
VERTEX
   8
0
   6
Continuous
  10
 238.453613
  20
 127.416801
  30
 0.0
   0
VERTEX
   8
0
   6
Continuous
  10
 239.548401
  20
 127.542793
  30
 0.0
   0
VERTEX
   8
0
   6
Continuous
  10
 253.456009
  20
 123.620003
  30
 0.0
   0
VERTEX
   8
0
   6
Continuous
  10
 253.839615
  20
 120.741592
  30
 0.0
   0
VERTEX
   8
0
   6
Continuous
  10
 254.449997
  20
 118.448395
  30
 0.0
   0
VERTEX
   8
0
   6
Continuous
  10
 255.343201
  20
 116.538795
  30
 0.0
   0
VERTEX
   8
0
   6
Continuous
  10
 256.334412
  20
 115.343201
  30
 0.0
   0
VERTEX
   8
0
   6
Continuous
  10
 256.412781
  20
 115.290001
  30
 0.0
   0
VERTEX
   8
0
   6
Continuous
  10
 256.897217
  20
 126.728004
  30
 0.0
   0
VERTEX
   8
0
   6
Continuous
  10
 259.901611
  20
 126.601997
  30
 0.0
   0
VERTEX
   8
0
   6
Continuous
  10
 259.391998
  20
 115.164001
  30
 0.0
   0
VERTEX
   8
0
   6
Continuous
  10
 260.461609
  20
 116.208397
  30
 0.0
   0
VERTEX
   8
0
   6
Continuous
  10
 261.609589
  20
 118.118004
  30
 0.0
   0
VERTEX
   8
0
   6
Continuous
  10
 262.550385
  20
 120.766800
  30
 0.0
   0
VERTEX
   8
0
   6
Continuous
  10
 263.188812
  20
 124.129601
  30
 0.0
   0
VERTEX
   8
0
   6
Continuous
  10
 263.418396
  20
 127.542793
  30
 0.0
   0
VERTEX
   8
0
   6
Continuous
  10
 263.213989
  20
 131.059601
  30
 0.0
   0
VERTEX
   8
0
   6
Continuous
  10
 262.653992
  20
 133.912796
  30
 0.0
   0
VERTEX
   8
0
   6
Continuous
  10
 261.811188
  20
 136.152802
  30
 0.0
   0
VERTEX
   8
0
   6
Continuous
  10
 260.870392
  20
 137.580811
  30
 0.0
   0
VERTEX
   8
0
   6
Continuous
  10
 259.876404
  20
 138.395599
  30
 0.0
   0
VERTEX
   8
0
   6
Continuous
  10
 258.806793
  20
 138.650406
  30
 0.0
   0
VERTEX
   8
0
   6
Continuous
  10
 257.863220
  20
 138.420807
  30
 0.0
   0
VERTEX
   8
0
   6
Continuous
  10
 256.667603
  20
 137.555603
  30
 0.0
   0
VERTEX
   8
0
   6
Continuous
  10
 255.469193
  20
 135.746796
  30
 0.0
   0
VERTEX
   8
0
   6
Continuous
  10
 254.424789
  20
 133.148407
  30
 0.0
   0
VERTEX
   8
0
   6
Continuous
  10
 254.273590
  20
 132.535202
  30
 0.0
   0
VERTEX
   8
0
   6
Continuous
  10
 238.938004
  20
 136.917206
  30
 0.0
   0
VERTEX
   8
0
   6
Continuous
  10
 238.529205
  20
 139.109604
  30
 0.0
   0
VERTEX
   8
0
   6
Continuous
  10
 237.638809
  20
 141.374786
  30
 0.0
   0
VERTEX
   8
0
   6
Continuous
  10
 236.490799
  20
 143.133194
  30
 0.0
   0
VERTEX
   8
0
   6
Continuous
  10
 235.090790
  20
 144.432388
  30
 0.0
   0
VERTEX
   8
0
   6
Continuous
  10
 233.716003
  20
 145.121201
  30
 0.0
   0
VERTEX
   8
0
   6
Continuous
  10
 232.366394
  20
 145.376007
  30
 0.0
   0
VERTEX
   8
0
   6
Continuous
  10
 231.041992
  20
 145.247208
  30
 0.0
   0
VERTEX
   8
0
   6
Continuous
  10
 229.588806
  20
 144.662003
  30
 0.0
   0
VERTEX
   8
0
   6
Continuous
  10
 228.569611
  20
 143.796799
  30
 0.0
   0
VERTEX
   8
0
   6
Continuous
  10
 227.933990
  20
 142.573212
  30
 0.0
   0
VERTEX
   8
0
   6
Continuous
  10
 227.830383
  20
 141.808807
  30
 0.0
   0
VERTEX
   8
0
   6
Continuous
  10
 225.945999
  20
 141.094803
  30
 0.0
   0
VERTEX
   8
0
   6
Continuous
  10
 224.467606
  20
 139.974808
  30
 0.0
   0
VERTEX
   8
0
   6
Continuous
  10
 223.423203
  20
 138.650406
  30
 0.0
   0
VERTEX
   8
0
   6
Continuous
  10
 222.762421
  20
 137.096405
  30
 0.0
   0
VERTEX
   8
0
   6
Continuous
  10
 222.457199
  20
 135.438797
  30
 0.0
   0
VERTEX
   8
0
   6
Continuous
  10
 222.583206
  20
 133.733597
  30
 0.0
   0
VERTEX
   8
0
   6
Continuous
  10
 223.196396
  20
 131.975189
  30
 0.0
   0
VERTEX
   8
0
   6
Continuous
  10
 224.366791
  20
 130.370804
  30
 0.0
   0
VERTEX
   8
0
   6
Continuous
  10
 225.945999
  20
 129.147202
  30
 0.0
   0
VERTEX
   8
0
   6
Continuous
  10
 227.525208
  20
 128.511597
  30
 0.0
   0
VERTEX
   8
0
   6
Continuous
  10
 227.830383
  20
 128.436005
  30
 0.0
   0
VERTEX
   8
0
   6
Continuous
  10
 229.283600
  20
 110.681198
  30
 0.0
   0
VERTEX
   8
0
   6
Continuous
  10
 231.243591
  20
 110.681198
  30
 0.0
   0
VERTEX
   8
0
   6
Continuous
  10
 234.455200
  20
 109.533195
  30
 0.0
   0
VERTEX
   8
0
   6
Continuous
  10
 226.046783
  20
 86.430397
  30
 0.0
   0
VERTEX
   8
0
   6
Continuous
  10
 227.066010
  20
 83.067596
  30
 0.0
   0
VERTEX
   8
0
   6
Continuous
  10
 258.552002
  20
 83.067596
  30
 0.0
   0
VERTEX
   8
0
   6
Continuous
  10
 258.552002
  20
 80.063202
  30
 0.0
   0
VERTEX
   8
0
   6
Continuous
  10
 226.046783
  20
 80.063202
  30
 0.0
   0
VERTEX
   8
0
   6
Continuous
  10
 226.046783
  20
 83.067596
  30
 0.0
   0
VERTEX
   8
0
   6
Continuous
  10
 225.055603
  20
 86.506004
  30
 0.0
   0
VERTEX
   8
0
   6
Continuous
  10
 154.747589
  20
 90.837601
  30
 0.0
   0
VERTEX
   8
0
   6
Continuous
  10
 148.430801
  20
 93.561989
  30
 0.0
   0
VERTEX
   8
0
   6
Continuous
  10
 140.943588
  20
 96.261192
  30
 0.0
   0
VERTEX
   8
0
   6
Continuous
  10
 133.097992
  20
 98.554405
  30
 0.0
   0
VERTEX
   8
0
   6
Continuous
  10
 130.191589
  20
 99.268394
  30
 0.0
   0
VERTEX
   8
0
   6
Continuous
  10
 130.421204
  20
 102.477211
  30
 0.0
   0
VERTEX
   8
0
   6
Continuous
  10
 175.890396
  20
 99.038795
  30
 0.0
   0
VERTEX
   8
0
   6
Continuous
  10
 222.787582
  20
 102.606003
  30
 0.0
   0
VERTEX
   8
0
   6
Continuous
  10
 223.652802
  20
 103.241592
  30
 0.0
   0
VERTEX
   8
0
   6
Continuous
  10
 224.495590
  20
 104.540810
  30
 0.0
   0
VERTEX
   8
0
   6
Continuous
  10
 225.232010
  20
 106.579201
  30
 0.0
   0
VERTEX
   8
0
   6
Continuous
  10
 225.791992
  20
 109.636795
  30
 0.0
   0
VERTEX
   8
0
   6
Continuous
  10
 225.895599
  20
 113.050003
  30
 0.0
   0
VERTEX
   8
0
   6
Continuous
  10
 225.590408
  20
 116.132797
  30
 0.0
   0
VERTEX
   8
0
   6
Continuous
  10
 224.826019
  20
 119.187607
  30
 0.0
   0
VERTEX
   8
0
   6
Continuous
  10
 223.932800
  20
 120.971207
  30
 0.0
   0
VERTEX
   8
0
   6
Continuous
  10
 223.196396
  20
 121.889595
  30
 0.0
   0
VERTEX
   8
0
   6
Continuous
  10
 222.404007
  20
 122.295593
  30
 0.0
   0
VERTEX
   8
0
   6
Continuous
  10
 183.405594
  20
 131.314407
  30
 0.0
   0
VERTEX
   8
0
   6
Continuous
  10
 178.897614
  20
 123.060005
  30
 0.0
   0
VERTEX
   8
0
   6
Continuous
  10
 172.911209
  20
 123.060005
  30
 0.0
   0
VERTEX
   8
0
   6
Continuous
  10
 168.403198
  20
 131.314407
  30
 0.0
   0
VERTEX
   8
0
   6
Continuous
  10
 130.395996
  20
 122.525200
  30
 0.0
   0
VERTEX
   8
0
   6
Continuous
  10
 129.606400
  20
 125.888008
  30
 0.0
   0
VERTEX
   8
0
   6
Continuous
  10
 133.019592
  20
 126.728004
  30
 0.0
   0
VERTEX
   8
0
   6
Continuous
  10
 135.668396
  20
 127.926399
  30
 0.0
   0
VERTEX
   8
0
   6
Continuous
  10
 137.300797
  20
 129.046402
  30
 0.0
   0
VERTEX
   8
0
   6
Continuous
  10
 138.496399
  20
 130.471603
  30
 0.0
   0
VERTEX
   8
0
   6
Continuous
  10
 138.955597
  20
 131.669998
  30
 0.0
   0
VERTEX
   8
0
   6
Continuous
  10
 138.980804
  20
 132.739609
  30
 0.0
   0
VERTEX
   8
0
   6
Continuous
  10
 138.600006
  20
 133.912796
  30
 0.0
   0
VERTEX
   8
0
   6
Continuous
  10
 137.530396
  20
 135.262390
  30
 0.0
   0
VERTEX
   8
0
   6
Continuous
  10
 135.976395
  20
 136.432800
  30
 0.0
   0
VERTEX
   8
0
   6
Continuous
  10
 133.579605
  20
 137.580811
  30
 0.0
   0
VERTEX
   8
0
   6
Continuous
  10
 130.600403
  20
 138.445999
  30
 0.0
   0
VERTEX
   8
0
   6
Continuous
  10
 126.982796
  20
 139.005997
  30
 0.0
   0
VERTEX
   8
0
   6
Continuous
  10
 124.359192
  20
 139.109604
  30
 0.0
   0
VERTEX
   8
0
   6
Continuous
  10
 124.233200
  20
 139.871201
  30
 0.0
   0
VERTEX
   8
0
   6
Continuous
  10
 123.799202
  20
 140.279999
  30
 0.0
   0
VERTEX
   8
0
   6
Continuous
  10
 91.932404
  20
 141.528809
  30
 0.0
   0
VERTEX
   8
0
   6
Continuous
  10
 91.243607
  20
 138.826797
  30
 0.0
   0
VERTEX
   8
0
   6
Continuous
  10
 90.123604
  20
 136.382401
  30
 0.0
   0
VERTEX
   8
0
   6
Continuous
  10
 88.594803
  20
 134.192795
  30
 0.0
   0
VERTEX
   8
0
   6
Continuous
  10
 86.864395
  20
 132.459595
  30
 0.0
   0
VERTEX
   8
0
   6
Continuous
  10
 84.571198
  20
 130.804794
  30
 0.0
   0
VERTEX
   8
0
   6
Continuous
  10
 81.412804
  20
 129.200409
  30
 0.0
   0
VERTEX
   8
0
   6
Continuous
  10
 79.094406
  20
 127.875992
  30
 0.0
   0
VERTEX
   8
0
   6
Continuous
  10
 76.675201
  20
 125.888008
  30
 0.0
   0
VERTEX
   8
0
   6
Continuous
  10
 74.687202
  20
 123.774002
  30
 0.0
   0
VERTEX
   8
0
   6
Continuous
  10
 72.853203
  20
 121.276398
  30
 0.0
   0
VERTEX
   8
0
   6
Continuous
  10
 70.279999
  20
 121.329590
  30
 0.0
   0
VERTEX
   8
0
   6
Continuous
  10
 72.013191
  20
 125.582794
  30
 0.0
   0
VERTEX
   8
0
   6
Continuous
  10
 31.967600
  20
 125.532402
  30
 0.0
   0
VERTEX
   8
0
   6
Continuous
  10
 28.044802
  20
 125.047997
  30
 0.0
   0
VERTEX
   8
0
   6
Continuous
  10
 25.141201
  20
 124.334007
  30
 0.0
   0
VERTEX
   8
0
   6
Continuous
  10
 22.162001
  20
 123.135605
  30
 0.0
   0
VERTEX
   8
0
   6
Continuous
  10
 19.894001
  20
 121.785995
  30
 0.0
   0
VERTEX
   8
0
   6
Continuous
  10
 18.085201
  20
 120.206802
  30
 0.0
   0
VERTEX
   8
0
   6
Continuous
  10
 16.836399
  20
 118.526802
  30
 0.0
   0
VERTEX
   8
0
   6
Continuous
  10
 16.125200
  20
 116.793602
  30
 0.0
   0
VERTEX
   8
0
   6
Continuous
  10
 15.945999
  20
 115.290001
  30
 0.0
   0
VERTEX
   8
0
   6
Continuous
  10
 15.945999
  20
 112.131592
  30
 0.0
   0
VERTEX
   8
0
   6
Continuous
  10
 12.532800
  20
 111.929993
  30
 0.0
   0
VERTEX
   8
0
   6
Continuous
  10
 9.273600
  20
 111.392403
  30
 0.0
   0
VERTEX
   8
0
   6
Continuous
  10
 6.291600
  20
 110.451607
  30
 0.0
   0
VERTEX
   8
0
   6
Continuous
  10
 3.872400
  20
 109.177605
  30
 0.0
   0
VERTEX
   8
0
   6
Continuous
  10
 2.497600
  20
 108.004395
  30
 0.0
   0
VERTEX
   8
0
   6
Continuous
  10
 1.654800
  20
 106.808800
  30
 0.0
   0
VERTEX
   8
0
   6
Continuous
  10
 1.324400
  20
 105.739197
  30
 0.0
   0
VERTEX
   8
0
   6
Continuous
  10
 1.425200
  20
 104.389595
  30
 0.0
   0
VERTEX
   8
0
   6
Continuous
  10
 2.114000
  20
 103.012001
  30
 0.0
   0
VERTEX
   8
0
   6
Continuous
  10
 3.488800
  20
 101.687607
  30
 0.0
   0
VERTEX
   8
0
   6
Continuous
  10
 5.502000
  20
 100.491997
  30
 0.0
   0
VERTEX
   8
0
   6
Continuous
  10
 8.355200
  20
 99.447609
  30
 0.0
   0
VERTEX
   8
0
   6
Continuous
  10
 11.642400
  20
 98.758797
  30
 0.0
   0
VERTEX
   8
0
   6
Continuous
  10
 15.540001
  20
 98.453598
  30
 0.0
   0
VERTEX
   8
0
   6
Continuous
  10
 15.945999
  20
 98.453598
  30
 0.0
   0
VERTEX
   8
0
   6
Continuous
  10
 16.046801
  20
 97.739601
  30
 0.0
   0
VERTEX
   8
0
   6
Continuous
  10
 16.584400
  20
 97.255196
  30
 0.0
   0
VERTEX
   8
0
   6
Continuous
  10
 48.372799
  20
 96.009193
  30
 0.0
   0
VERTEX
   8
0
   6
Continuous
  10
 48.986004
  20
 98.453598
  30
 0.0
   0
VERTEX
   8
0
   6
Continuous
  10
 49.952000
  20
 100.746796
  30
 0.0
   0
VERTEX
   8
0
   6
Continuous
  10
 51.405197
  20
 103.012001
  30
 0.0
   0
VERTEX
   8
0
   6
Continuous
  10
 53.289600
  20
 104.974800
  30
 0.0
   0
VERTEX
   8
0
   6
Continuous
  10
 55.582798
  20
 106.680008
  30
 0.0
   0
VERTEX
   8
0
   6
Continuous
  10
 60.625603
  20
 109.303604
  30
 0.0
   0
VERTEX
   8
0
   6
Continuous
  10
 63.044804
  20
 111.112396
  30
 0.0
   0
VERTEX
   8
0
   6
Continuous
  10
 65.416405
  20
 113.509193
  30
 0.0
   0
VERTEX
   8
0
   6
Continuous
  10
 67.580795
  20
 116.463196
  30
 0.0
   0
VERTEX
   8
0
   6
Continuous
  10
 68.090401
  20
 117.278008
  30
 0.0
   0
VERTEX
   8
0
   6
Continuous
  10
 61.874397
  20
 116.972801
  30
 0.0
   0
VERTEX
   8
0
   6
Continuous
  10
 61.720398
  20
 119.977211
  30
 0.0
   0
VERTEX
   8
0
   6
Continuous
  10
 69.795601
  20
 120.335594
  30
 0.0
   0
VERTEX
   8
0
   6
Continuous
  10
 72.214798
  20
 120.310394
  30
 0.0
   0
VERTEX
   8
0
   6
Continuous
  10
 78.456001
  20
 120.565208
  30
 0.0
   0
VERTEX
   8
0
   6
Continuous
  10
 78.584801
  20
 117.583199
  30
 0.0
   0
VERTEX
   8
0
   6
Continuous
  10
 70.509598
  20
 117.227600
  30
 0.0
   0
VERTEX
   8
0
   6
Continuous
  10
 68.496399
  20
 112.565598
  30
 0.0
   0
VERTEX
   8
0
   6
Continuous
  10
 68.292000
  20
 112.005600
  30
 0.0
   0
VERTEX
   8
0
   6
Continuous
  10
 108.693199
  20
 112.056000
  30
 0.0
   0
VERTEX
   8
0
   6
Continuous
  10
 112.590805
  20
 112.565598
  30
 0.0
   0
VERTEX
   8
0
   6
Continuous
  10
 115.799599
  20
 113.430801
  30
 0.0
   0
VERTEX
   8
0
   6
Continuous
  10
 118.677994
  20
 114.704796
  30
 0.0
   0
VERTEX
   8
0
   6
Continuous
  10
 120.665993
  20
 115.953598
  30
 0.0
   0
VERTEX
   8
0
   6
Continuous
  10
 122.245201
  20
 117.353607
  30
 0.0
   0
VERTEX
   8
0
   6
Continuous
  10
 123.493996
  20
 119.061607
  30
 0.0
   0
VERTEX
   8
0
   6
Continuous
  10
 124.233200
  20
 120.971207
  30
 0.0
   0
VERTEX
   8
0
   6
Continuous
  10
 124.359192
  20
 122.245201
  30
 0.0
   0
VERTEX
   8
0
   6
Continuous
  10
 124.359192
  20
 125.428795
  30
 0.0
   0
VERTEX
   8
0
   6
Continuous
  10
 127.797607
  20
 125.608002
  30
 0.0
   0
VERTEX
   8
0
   6
Continuous
  10
 128.640396
  20
 125.708801
  30
 0.0
   0
VERTEX
   8
0
   6
Continuous
  10
 129.402008
  20
 122.295593
  30
 0.0
   0
VERTEX
   8
0
   6
Continuous
  10
 128.536804
  20
 121.785995
  30
 0.0
   0
VERTEX
   8
0
   6
Continuous
  10
 127.671600
  20
 120.640808
  30
 0.0
   0
VERTEX
   8
0
   6
Continuous
  10
 126.778397
  20
 118.476402
  30
 0.0
   0
VERTEX
   8
0
   6
Continuous
  10
 126.218399
  20
 116.132797
  30
 0.0
   0
VERTEX
   8
0
   6
Continuous
  10
 125.913208
  20
 112.156799
  30
 0.0
   0
VERTEX
   8
0
   6
Continuous
  10
 126.168007
  20
 108.693199
  30
 0.0
   0
VERTEX
   8
0
   6
Continuous
  10
 126.753204
  20
 106.044403
  30
 0.0
   0
VERTEX
   8
0
   6
Continuous
  10
 127.621208
  20
 103.980804
  30
 0.0
   0
VERTEX
   8
0
   6
Continuous
  10
 128.640396
  20
 102.810394
  30
 0.0
   0
VERTEX
   8
0
   6
Continuous
  10
 129.429993
  20
 102.530403
  30
 0.0
   0
VERTEX
   8
0
   6
Continuous
  10
 129.175201
  20
 99.472801
  30
 0.0
   0
VERTEX
   8
0
   6
Continuous
  10
 124.818398
  20
 100.287605
  30
 0.0
   0
VERTEX
   8
0
   6
Continuous
  10
 121.251205
  20
 100.592796
  30
 0.0
   0
VERTEX
   8
0
   6
Continuous
  10
 117.328400
  20
 100.491997
  30
 0.0
   0
VERTEX
   8
0
   6
Continuous
  10
 112.464798
  20
 99.878792
  30
 0.0
   0
VERTEX
   8
0
   6
Continuous
  10
 107.878403
  20
 98.809204
  30
 0.0
   0
VERTEX
   8
0
   6
Continuous
  10
 104.185196
  20
 97.613602
  30
 0.0
   0
VERTEX
   8
0
   6
Continuous
  10
 100.847603
  20
 96.160408
  30
 0.0
   0
VERTEX
   8
0
   6
Continuous
  10
 98.198799
  20
 94.581200
  30
 0.0
   0
VERTEX
   8
0
   6
Continuous
  10
 96.644798
  20
 93.281998
  30
 0.0
   0
VERTEX
   8
0
   6
Continuous
  10
 89.334000
  20
 85.971199
  30
 0.0
   0
VERTEX
   8
0
   6
Continuous
  10
 50.895599
  20
 84.467606
  30
 0.0
   0
VERTEX
   8
0
   6
Continuous
  10
 50.385998
  20
 84.061600
  30
 0.0
   0
VERTEX
   8
0
   6
Continuous
  10
 50.232002
  20
 83.297203
  30
 0.0
   0
VERTEX
   8
0
   6
Continuous
  10
 45.852802
  20
 82.966805
  30
 0.0
   0
VERTEX
   8
0
   6
Continuous
  10
 42.896000
  20
 82.353600
  30
 0.0
   0
VERTEX
   8
0
   6
Continuous
  10
 39.866402
  20
 81.284004
  30
 0.0
   0
VERTEX
   8
0
   6
Continuous
  10
 37.752399
  20
 80.010002
  30
 0.0
   0
VERTEX
   8
0
   6
Continuous
  10
 37.242798
  20
 79.604004
  30
 0.0
   0
VERTEX
   8
0
   6
Continuous
  10
 34.260799
  20
 82.149200
  30
 0.0
   0
VERTEX
   8
0
   6
Continuous
  10
 22.822800
  20
 82.658798
  30
 0.0
   0
VERTEX
   8
0
   6
Continuous
  10
 22.951599
  20
 85.640800
  30
 0.0
   0
VERTEX
   8
0
   6
Continuous
  10
 34.389599
  20
 85.156395
  30
 0.0
   0
VERTEX
   8
0
   6
Continuous
  10
 33.345200
  20
 86.225998
  30
 0.0
   0
VERTEX
   8
0
   6
Continuous
  10
 31.178001
  20
 87.474800
  30
 0.0
   0
VERTEX
   8
0
   6
Continuous
  10
 28.478798
  20
 88.365204
  30
 0.0
   0
VERTEX
   8
0
   6
Continuous
  10
 25.370800
  20
 88.953201
  30
 0.0
   0
VERTEX
   8
0
   6
Continuous
  10
 21.982801
  20
 89.154800
  30
 0.0
   0
VERTEX
   8
0
   6
Continuous
  10
 19.283600
  20
 89.054001
  30
 0.0
   0
VERTEX
   8
0
   6
Continuous
  10
 16.226000
  20
 88.544395
  30
 0.0
   0
VERTEX
   8
0
   6
Continuous
  10
 13.731201
  20
 87.704399
  30
 0.0
   0
VERTEX
   8
0
   6
Continuous
  10
 12.073601
  20
 86.710403
  30
 0.0
   0
VERTEX
   8
0
   6
Continuous
  10
 11.284000
  20
 85.845200
  30
 0.0
   0
VERTEX
   8
0
   6
Continuous
  10
 10.928400
  20
 85.030403
  30
 0.0
   0
VERTEX
   8
0
   6
Continuous
  10
 10.953600
  20
 84.086792
  30
 0.0
   0
VERTEX
   8
0
   6
Continuous
  10
 11.309200
  20
 83.272003
  30
 0.0
   0
VERTEX
   8
0
   6
Continuous
  10
 12.152000
  20
 82.303200
  30
 0.0
   0
VERTEX
   8
0
   6
Continuous
  10
 13.806799
  20
 81.208405
  30
 0.0
   0
VERTEX
   8
0
   6
Continuous
  10
 15.820001
  20
 80.343201
  30
 0.0
   0
VERTEX
   8
0
   6
Continuous
  10
 16.990400
  20
 80.010002
  30
 0.0
   0
VERTEX
   8
0
   6
Continuous
  10
 12.608400
  20
 64.702400
  30
 0.0
   0
VERTEX
   8
0
   6
Continuous
  10
 10.444000
  20
 64.293602
  30
 0.0
   0
VERTEX
   8
0
   6
Continuous
  10
 7.946400
  20
 63.299603
  30
 0.0
   0
VERTEX
   8
0
   6
Continuous
  10
 6.241200
  20
 62.129204
  30
 0.0
   0
VERTEX
   8
0
   6
Continuous
  10
 5.121200
  20
 60.855202
  30
 0.0
   0
VERTEX
   8
0
   6
Continuous
  10
 4.482800
  20
 59.656799
  30
 0.0
   0
VERTEX
   8
0
   6
Continuous
  10
 4.177600
  20
 58.436001
  30
 0.0
   0
VERTEX
   8
0
   6
Continuous
  10
 4.278400
  20
 56.803596
  30
 0.0
   0
VERTEX
   8
0
   6
Continuous
  10
 4.891600
  20
 55.353199
  30
 0.0
   0
VERTEX
   8
0
   6
Continuous
  10
 5.731600
  20
 54.334003
  30
 0.0
   0
VERTEX
   8
0
   6
Continuous
  10
 6.955200
  20
 53.698399
  30
 0.0
   0
VERTEX
   8
0
   6
Continuous
  10
 7.744800
  20
 53.594803
  30
 0.0
   0
VERTEX
   8
0
   6
Continuous
  10
 8.355200
  20
 51.864403
  30
 0.0
   0
VERTEX
   8
0
   6
Continuous
  10
 9.654401
  20
 50.131199
  30
 0.0
   0
VERTEX
   8
0
   6
Continuous
  10
 11.309200
  20
 48.958000
  30
 0.0
   0
VERTEX
   8
0
   6
Continuous
  10
 13.042400
  20
 48.347599
  30
 0.0
   0
VERTEX
   8
0
   6
Continuous
  10
 15.030400
  20
 48.246796
  30
 0.0
   0
VERTEX
   8
0
   6
Continuous
  10
 16.836399
  20
 48.652798
  30
 0.0
   0
VERTEX
   8
0
   6
Continuous
  10
 18.443602
  20
 49.545998
  30
 0.0
   0
VERTEX
   8
0
   6
Continuous
  10
 19.588799
  20
 50.590401
  30
 0.0
   0
VERTEX
   8
0
   6
Continuous
  10
 20.608000
  20
 52.119202
  30
 0.0
   0
VERTEX
   8
0
   6
Continuous
  10
 21.092400
  20
 53.594803
  30
 0.0
   0
VERTEX
   8
0
   6
Continuous
  10
 38.821999
  20
 55.048000
  30
 0.0
   0
VERTEX
   8
0
   6
Continuous
  10
 38.821999
  20
 57.008003
  30
 0.0
   0
VERTEX
   8
0
   6
Continuous
  10
 23.385601
  20
 62.613598
  30
 0.0
   0
VERTEX
   8
0
   6
Continuous
  10
 22.568001
  20
 63.349998
  30
 0.0
   0
VERTEX
   8
0
   6
Continuous
  10
 22.058401
  20
 64.472794
  30
 0.0
   0
VERTEX
   8
0
   6
Continuous
  10
 22.033199
  20
 65.668404
  30
 0.0
   0
VERTEX
   8
0
   6
Continuous
  10
 25.905600
  20
 79.195198
  30
 0.0
   0
VERTEX
   8
0
   6
Continuous
  10
 29.243200
  20
 79.679604
  30
 0.0
   0
VERTEX
   8
0
   6
Continuous
  10
 31.612000
  20
 80.393608
  30
 0.0
   0
VERTEX
   8
0
   6
Continuous
  10
 33.370399
  20
 81.334396
  30
 0.0
   0
VERTEX
   8
0
   6
Continuous
  10
 33.521599
  20
 81.463196
  30
 0.0
   0
VERTEX
   8
0
   6
Continuous
  10
 36.553997
  20
 78.889999
  30
 0.0
   0
VERTEX
   8
0
   6
Continuous
  10
 35.865196
  20
 77.744804
  30
 0.0
   0
VERTEX
   8
0
   6
Continuous
  10
 35.610397
  20
 76.445602
  30
 0.0
   0
VERTEX
   8
0
   6
Continuous
  10
 35.789600
  20
 75.322800
  30
 0.0
   0
VERTEX
   8
0
   6
Continuous
  10
 36.503601
  20
 74.051605
  30
 0.0
   0
VERTEX
   8
0
   6
Continuous
  10
 37.954002
  20
 72.699203
  30
 0.0
   0
VERTEX
   8
0
   6
Continuous
  10
 40.171600
  20
 71.503593
  30
 0.0
   0
VERTEX
   8
0
   6
Continuous
  10
 42.565601
  20
 70.635605
  30
 0.0
   0
VERTEX
   8
0
   6
Continuous
  10
 46.029198
  20
 69.924408
  30
 0.0
   0
VERTEX
   8
0
   6
Continuous
  10
 49.011204
  20
 69.644402
  30
 0.0
   0
VERTEX
   8
0
   6
Continuous
  10
 50.232002
  20
 69.619202
  30
 0.0
   0
VERTEX
   8
0
   6
Continuous
  10
 50.310402
  20
 65.721603
  30
 0.0
   0
VERTEX
   8
0
   6
Continuous
  10
 50.665997
  20
 64.192802
  30
 0.0
   0
VERTEX
   8
0
   6
Continuous
  10
 51.609604
  20
 62.484798
  30
 0.0
   0
VERTEX
   8
0
   6
Continuous
  10
 53.110401
  20
 60.830002
  30
 0.0
   0
VERTEX
   8
0
   6
Continuous
  10
 55.148804
  20
 59.351601
  30
 0.0
   0
VERTEX
   8
0
   6
Continuous
  10
 57.901203
  20
 57.976799
  30
 0.0
   0
VERTEX
   8
0
   6
Continuous
  10
 61.364799
  20
 56.907204
  30
 0.0
   0
VERTEX
   8
0
   6
Continuous
  10
 64.853600
  20
 56.321999
  30
 0.0
   0
VERTEX
   8
0
   6
Continuous
  10
 67.835602
  20
 56.193199
  30
 0.0
   0
VERTEX
   8
0
   6
Continuous
  10
 80.673599
  20
 56.193199
  30
 0.0
   0
VERTEX
   8
0
   6
Continuous
  10
 72.648804
  20
 64.243202
  30
 0.0
   0
VERTEX
   8
0
   6
Continuous
  10
 71.120003
  20
 63.249195
  30
 0.0
   0
VERTEX
   8
0
   6
Continuous
  10
 69.134796
  20
 62.510002
  30
 0.0
   0
VERTEX
   8
0
   6
Continuous
  10
 67.351196
  20
 62.280399
  30
 0.0
   0
VERTEX
   8
0
   6
Continuous
  10
 65.237198
  20
 62.434395
  30
 0.0
   0
VERTEX
   8
0
   6
Continuous
  10
 63.504002
  20
 62.994396
  30
 0.0
   0
VERTEX
   8
0
   6
Continuous
  10
 61.669998
  20
 64.038803
  30
 0.0
   0
VERTEX
   8
0
   6
Continuous
  10
 60.320404
  20
 65.262405
  30
 0.0
   0
VERTEX
   8
0
   6
Continuous
  10
 59.096802
  20
 66.992798
  30
 0.0
   0
VERTEX
   8
0
   6
Continuous
  10
 58.332401
  20
 68.955605
  30
 0.0
   0
VERTEX
   8
0
   6
Continuous
  10
 58.052399
  20
 70.764404
  30
 0.0
   0
VERTEX
   8
0
   6
Continuous
  10
 58.130798
  20
 72.573196
  30
 0.0
   0
VERTEX
   8
0
   6
Continuous
  10
 58.665600
  20
 74.586403
  30
 0.0
   0
VERTEX
   8
0
   6
Continuous
  10
 59.684799
  20
 76.470802
  30
 0.0
   0
VERTEX
   8
0
   6
Continuous
  10
 60.880402
  20
 77.820396
  30
 0.0
   0
VERTEX
   8
0
   6
Continuous
  10
 62.588398
  20
 79.094406
  30
 0.0
   0
VERTEX
   8
0
   6
Continuous
  10
 64.548401
  20
 79.909195
  30
 0.0
   0
VERTEX
   8
0
   6
Continuous
  10
 66.612000
  20
 80.239601
  30
 0.0
   0
VERTEX
   8
0
   6
Continuous
  10
 68.725998
  20
 80.088394
  30
 0.0
   0
VERTEX
   8
0
   6
Continuous
  10
 70.484398
  20
 79.553596
  30
 0.0
   0
VERTEX
   8
0
   6
Continuous
  10
 72.318405
  20
 78.534401
  30
 0.0
   0
VERTEX
   8
0
   6
Continuous
  10
 73.872406
  20
 77.106392
  30
 0.0
   0
VERTEX
   8
0
   6
Continuous
  10
 75.196800
  20
 75.068001
  30
 0.0
   0
VERTEX
   8
0
   6
Continuous
  10
 75.857605
  20
 73.032394
  30
 0.0
   0
VERTEX
   8
0
   6
Continuous
  10
 76.036804
  20
 70.968796
  30
 0.0
   0
VERTEX
   8
0
   6
Continuous
  10
 75.706398
  20
 68.880005
  30
 0.0
   0
VERTEX
   8
0
   6
Continuous
  10
 75.042793
  20
 67.171997
  30
 0.0
   0
VERTEX
   8
0
   6
Continuous
  10
 74.076805
  20
 65.643204
  30
 0.0
   0
VERTEX
   8
0
   6
Continuous
  10
 83.501602
  20
 56.193199
  30
 0.0
   0
VERTEX
   8
0
   6
Continuous
  10
 106.503593
  20
 56.193199
  30
 0.0
   0
VERTEX
   8
0
   6
Continuous
  10
 106.503593
  20
 42.005604
  30
 0.0
   0
VERTEX
   8
0
   6
Continuous
  10
 103.521599
  20
 42.005604
  30
 0.0
   0
VERTEX
   8
0
   6
Continuous
  10
 103.521599
  20
 52.015598
  30
 0.0
   0
VERTEX
   8
0
   6
Continuous
  10
 67.656403
  20
 51.939999
  30
 0.0
   0
VERTEX
   8
0
   6
Continuous
  10
 58.282001
  20
 51.556400
  30
 0.0
   0
VERTEX
   8
0
   6
Continuous
  10
 45.928398
  20
 50.615601
  30
 0.0
   0
VERTEX
   8
0
   6
Continuous
  10
 32.096401
  20
 48.958000
  30
 0.0
   0
VERTEX
   8
0
   6
Continuous
  10
 21.806400
  20
 47.252800
  30
 0.0
   0
VERTEX
   8
0
   6
Continuous
  10
 14.366800
  20
 45.698803
  30
 0.0
   0
VERTEX
   8
0
   6
Continuous
  10
 7.666400
  20
 43.889999
  30
 0.0
   0
VERTEX
   8
0
   6
Continuous
  10
 4.508000
  20
 42.795200
  30
 0.0
   0
VERTEX
   8
0
   6
Continuous
  10
 3.158400
  20
 41.801201
  30
 0.0
   0
VERTEX
   8
0
   6
Continuous
  10
 1.859200
  20
 40.171600
  30
 0.0
   0
VERTEX
   8
0
   6
Continuous
  10
 0.840000
  20
 38.107998
  30
 0.0
   0
VERTEX
   8
0
   6
Continuous
  10
 0.229600
  20
 35.840000
  30
 0.0
   0
VERTEX
   8
0
   6
Continuous
  10
 0.000000
  20
 33.675598
  30
 0.0
   0
VERTEX
   8
0
   6
Continuous
  10
 0.204400
  20
 31.483198
  30
 0.0
   0
VERTEX
   8
0
   6
Continuous
  10
 1.044400
  20
 28.708401
  30
 0.0
   0
VERTEX
   8
0
   6
Continuous
  10
 2.419200
  20
 25.955999
  30
 0.0
   0
VERTEX
   8
0
   6
Continuous
  10
 3.948000
  20
 23.816801
  30
 0.0
   0
VERTEX
   8
0
   6
Continuous
  10
 6.036800
  20
 21.856800
  30
 0.0
   0
VERTEX
   8
0
   6
Continuous
  10
 9.119600
  20
 19.459999
  30
 0.0
   0
VERTEX
   8
0
   6
Continuous
  10
 13.832000
  20
 16.354801
  30
 0.0
   0
VERTEX
   8
0
   6
Continuous
  10
 18.723598
  20
 13.627601
  30
 0.0
   0
VERTEX
   8
0
   6
Continuous
  10
 24.911598
  20
 10.673601
  30
 0.0
   0
VERTEX
   8
0
   6
Continuous
  10
 31.511200
  20
 8.024799
  30
 0.0
   0
VERTEX
   8
0
   6
Continuous
  10
 39.202797
  20
 5.451600
  30
 0.0
   0
VERTEX
   8
0
   6
Continuous
  10
 47.507603
  20
 3.208800
  30
 0.0
   0
VERTEX
   8
0
   6
Continuous
  10
 54.868801
  20
 1.705200
  30
 0.0
   0
VERTEX
   8
0
   6
Continuous
  10
 62.078800
  20
 0.660800
  30
 0.0
   0
VERTEX
   8
0
   6
Continuous
  10
 68.320000
  20
 0.126000
  30
 0.0
   0
VERTEX
   8
0
   6
Continuous
  10
 73.007202
  20
 0.000000
  30
 0.0
   0
VERTEX
   8
0
   6
Continuous
  10
 210.408813
  20
 0.050400
  30
 0.0
   0
VERTEX
   8
0
   6
Continuous
  10
 217.386398
  20
 0.585200
  30
 0.0
   0
VERTEX
   8
0
   6
Continuous
  10
 225.512009
  20
 1.758400
  30
 0.0
   0
VERTEX
   8
0
   6
Continuous
  10
 233.996002
  20
 3.592400
  30
 0.0
   0
VERTEX
   8
0
   6
Continuous
  10
 242.096390
  20
 5.832400
  30
 0.0
   0
VERTEX
   8
0
   6
Continuous
  10
 249.127197
  20
 8.254400
  30
 0.0
   0
VERTEX
   8
0
   6
Continuous
  10
 255.903214
  20
 11.054399
  30
 0.0
   0
VERTEX
   8
0
   6
Continuous
  10
 262.194794
  20
 14.112000
  30
 0.0
   0
VERTEX
   8
0
   6
Continuous
  10
 266.831604
  20
 16.760799
  30
 0.0
   0
VERTEX
   8
0
   6
Continuous
  10
 270.880402
  20
 19.459999
  30
 0.0
   0
VERTEX
   8
0
   6
Continuous
  10
 273.988403
  20
 21.856800
  30
 0.0
   0
VERTEX
   8
0
   6
Continuous
  10
 275.746796
  20
 23.486399
  30
 0.0
   0
VERTEX
   8
0
   6
Continuous
  10
 277.326019
  20
 25.549999
  30
 0.0
   0
VERTEX
   8
0
   6
Continuous
  10
 278.521606
  20
 27.739599
  30
 0.0
   0
VERTEX
   8
0
   6
Continuous
  10
 279.490417
  20
 30.262400
  30
 0.0
   0
VERTEX
   8
0
   6
Continuous
  10
 279.974792
  20
 32.656399
  30
 0.0
   0
SEQEND
   0
TEXT
   8
0
  10
 0.000000
  20
 -11.200000
  30
 0.0
  40
 5.600000
  1
 Corde: 280.000
   0
ENDSEC
   0
EOF
