   0
SECTION
   2
ENTITIES
   0
POLYLINE
   8
0
  66
 1
   6
Continuous
  10
 0.0
  20
 0.0
  30
 0.0
  70
 128
   0
VERTEX
   8
0
   6
Continuous
  10
 7.425907
  20
 73.547623
  30
 0.0
   0
VERTEX
   8
0
   6
Continuous
  10
 14.386631
  20
 73.507889
  30
 0.0
   0
VERTEX
   8
0
   6
Continuous
  10
 19.546474
  20
 75.655334
  30
 0.0
   0
VERTEX
   8
0
   6
Continuous
  10
 23.754993
  20
 78.893959
  30
 0.0
   0
VERTEX
   8
0
   6
Continuous
  10
 25.894604
  20
 81.560074
  30
 0.0
   0
VERTEX
   8
0
   6
Continuous
  10
 25.519497
  20
 84.836494
  30
 0.0
   0
VERTEX
   8
0
   6
Continuous
  10
 20.926487
  20
 86.579185
  30
 0.0
   0
VERTEX
   8
0
   6
Continuous
  10
 19.267975
  20
 87.729675
  30
 0.0
   0
VERTEX
   8
0
   6
Continuous
  10
 25.020386
  20
 89.394997
  30
 0.0
   0
VERTEX
   8
0
   6
Continuous
  10
 33.402756
  20
 90.786270
  30
 0.0
   0
VERTEX
   8
0
   6
Continuous
  10
 38.901108
  20
 92.142769
  30
 0.0
   0
VERTEX
   8
0
   6
Continuous
  10
 43.891136
  20
 95.193710
  30
 0.0
   0
VERTEX
   8
0
   6
Continuous
  10
 48.039089
  20
 100.735840
  30
 0.0
   0
VERTEX
   8
0
   6
Continuous
  10
 51.052109
  20
 106.231789
  30
 0.0
   0
VERTEX
   8
0
   6
Continuous
  10
 50.108429
  20
 109.025101
  30
 0.0
   0
VERTEX
   8
0
   6
Continuous
  10
 47.033169
  20
 108.455315
  30
 0.0
   0
VERTEX
   8
0
   6
Continuous
  10
 39.266418
  20
 107.847511
  30
 0.0
   0
VERTEX
   8
0
   6
Continuous
  10
 34.395367
  20
 109.874779
  30
 0.0
   0
VERTEX
   8
0
   6
Continuous
  10
 34.105206
  20
 111.693008
  30
 0.0
   0
VERTEX
   8
0
   6
Continuous
  10
 41.757469
  20
 114.657768
  30
 0.0
   0
VERTEX
   8
0
   6
Continuous
  10
 45.931286
  20
 117.415352
  30
 0.0
   0
VERTEX
   8
0
   6
Continuous
  10
 48.798500
  20
 121.141235
  30
 0.0
   0
VERTEX
   8
0
   6
Continuous
  10
 45.970432
  20
 124.915306
  30
 0.0
   0
VERTEX
   8
0
   6
Continuous
  10
 52.725578
  20
 125.457359
  30
 0.0
   0
VERTEX
   8
0
   6
Continuous
  10
 58.490448
  20
 127.977074
  30
 0.0
   0
VERTEX
   8
0
   6
Continuous
  10
 62.682884
  20
 131.677490
  30
 0.0
   0
VERTEX
   8
0
   6
Continuous
  10
 64.702217
  20
 133.696808
  30
 0.0
   0
VERTEX
   8
0
   6
Continuous
  10
 64.702217
  20
 136.725800
  30
 0.0
   0
VERTEX
   8
0
   6
Continuous
  10
 61.831657
  20
 139.016602
  30
 0.0
   0
VERTEX
   8
0
   6
Continuous
  10
 61.164436
  20
 140.944153
  30
 0.0
   0
VERTEX
   8
0
   6
Continuous
  10
 64.197388
  20
 141.269257
  30
 0.0
   0
VERTEX
   8
0
   6
Continuous
  10
 70.477997
  20
 142.656677
  30
 0.0
   0
VERTEX
   8
0
   6
Continuous
  10
 74.823830
  20
 144.974152
  30
 0.0
   0
VERTEX
   8
0
   6
Continuous
  10
 78.409889
  20
 149.115814
  30
 0.0
   0
VERTEX
   8
0
   6
Continuous
  10
 78.047096
  20
 152.976288
  30
 0.0
   0
VERTEX
   8
0
   6
Continuous
  10
 72.650093
  20
 153.970123
  30
 0.0
   0
VERTEX
   8
0
   6
Continuous
  10
 67.764168
  20
 156.003571
  30
 0.0
   0
VERTEX
   8
0
   6
Continuous
  10
 70.255333
  20
 156.918976
  30
 0.0
   0
VERTEX
   8
0
   6
Continuous
  10
 75.660652
  20
 159.443298
  30
 0.0
   0
VERTEX
   8
0
   6
Continuous
  10
 79.034920
  20
 163.243469
  30
 0.0
   0
VERTEX
   8
0
   6
Continuous
  10
 79.494118
  20
 165.741577
  30
 0.0
   0
VERTEX
   8
0
   6
Continuous
  10
 75.381958
  20
 168.266846
  30
 0.0
   0
VERTEX
   8
0
   6
Continuous
  10
 76.704613
  20
 169.184174
  30
 0.0
   0
VERTEX
   8
0
   6
Continuous
  10
 83.644035
  20
 171.710846
  30
 0.0
   0
VERTEX
   8
0
   6
Continuous
  10
 88.584747
  20
 174.421997
  30
 0.0
   0
VERTEX
   8
0
   6
Continuous
  10
 92.675125
  20
 178.837799
  30
 0.0
   0
VERTEX
   8
0
   6
Continuous
  10
 94.045868
  20
 182.943878
  30
 0.0
   0
VERTEX
   8
0
   6
Continuous
  10
 93.651344
  20
 188.435333
  30
 0.0
   0
VERTEX
   8
0
   6
Continuous
  10
 86.777817
  20
 189.008148
  30
 0.0
   0
VERTEX
   8
0
   6
Continuous
  10
 83.228775
  20
 190.762573
  30
 0.0
   0
VERTEX
   8
0
   6
Continuous
  10
 82.737152
  20
 193.437012
  30
 0.0
   0
VERTEX
   8
0
   6
Continuous
  10
 89.704018
  20
 194.612610
  30
 0.0
   0
VERTEX
   8
0
   6
Continuous
  10
 93.982346
  20
 197.305389
  30
 0.0
   0
VERTEX
   8
0
   6
Continuous
  10
 99.414276
  20
 200.745911
  30
 0.0
   0
VERTEX
   8
0
   6
Continuous
  10
 104.078941
  20
 205.887482
  30
 0.0
   0
VERTEX
   8
0
   6
Continuous
  10
 104.078941
  20
 208.411652
  30
 0.0
   0
VERTEX
   8
0
   6
Continuous
  10
 100.040306
  20
 210.430969
  30
 0.0
   0
VERTEX
   8
0
   6
Continuous
  10
 99.477844
  20
 211.479065
  30
 0.0
   0
VERTEX
   8
0
   6
Continuous
  10
 105.682938
  20
 214.486328
  30
 0.0
   0
VERTEX
   8
0
   6
Continuous
  10
 109.127243
  20
 217.498596
  30
 0.0
   0
VERTEX
   8
0
   6
Continuous
  10
 113.071663
  20
 222.360352
  30
 0.0
   0
VERTEX
   8
0
   6
Continuous
  10
 116.115974
  20
 227.317749
  30
 0.0
   0
VERTEX
   8
0
   6
Continuous
  10
 118.952324
  20
 233.479034
  30
 0.0
   0
VERTEX
   8
0
   6
Continuous
  10
 120.452660
  20
 238.923615
  30
 0.0
   0
VERTEX
   8
0
   6
Continuous
  10
 207.844696
  20
 239.849045
  30
 0.0
   0
VERTEX
   8
0
   6
Continuous
  10
 248.652512
  20
 239.849045
  30
 0.0
   0
VERTEX
   8
0
   6
Continuous
  10
 248.652512
  20
 237.837265
  30
 0.0
   0
VERTEX
   8
0
   6
Continuous
  10
 246.167847
  20
 237.711151
  30
 0.0
   0
VERTEX
   8
0
   6
Continuous
  10
 245.525238
  20
 236.734695
  30
 0.0
   0
VERTEX
   8
0
   6
Continuous
  10
 244.311325
  20
 233.946304
  30
 0.0
   0
VERTEX
   8
0
   6
Continuous
  10
 243.761444
  20
 231.143387
  30
 0.0
   0
VERTEX
   8
0
   6
Continuous
  10
 243.904053
  20
 226.851212
  30
 0.0
   0
VERTEX
   8
0
   6
Continuous
  10
 244.921173
  20
 223.197998
  30
 0.0
   0
VERTEX
   8
0
   6
Continuous
  10
 245.967728
  20
 220.560120
  30
 0.0
   0
VERTEX
   8
0
   6
Continuous
  10
 248.011826
  20
 217.314499
  30
 0.0
   0
VERTEX
   8
0
   6
Continuous
  10
 249.873901
  20
 214.926331
  30
 0.0
   0
VERTEX
   8
0
   6
Continuous
  10
 251.623428
  20
 213.921249
  30
 0.0
   0
VERTEX
   8
0
   6
Continuous
  10
 251.849777
  20
 212.629730
  30
 0.0
   0
VERTEX
   8
0
   6
Continuous
  10
 236.860580
  20
 212.629730
  30
 0.0
   0
VERTEX
   8
0
   6
Continuous
  10
 234.399887
  20
 212.092194
  30
 0.0
   0
VERTEX
   8
0
   6
Continuous
  10
 232.660919
  20
 209.346664
  30
 0.0
   0
VERTEX
   8
0
   6
Continuous
  10
 232.004944
  20
 206.242722
  30
 0.0
   0
VERTEX
   8
0
   6
Continuous
  10
 232.560516
  20
 203.953949
  30
 0.0
   0
VERTEX
   8
0
   6
Continuous
  10
 234.036972
  20
 203.834808
  30
 0.0
   0
VERTEX
   8
0
   6
Continuous
  10
 238.060394
  20
 205.777786
  30
 0.0
   0
VERTEX
   8
0
   6
Continuous
  10
 239.597672
  20
 205.547394
  30
 0.0
   0
VERTEX
   8
0
   6
Continuous
  10
 241.760468
  20
 204.123032
  30
 0.0
   0
VERTEX
   8
0
   6
Continuous
  10
 243.636215
  20
 203.863159
  30
 0.0
   0
VERTEX
   8
0
   6
Continuous
  10
 245.659470
  20
 204.612167
  30
 0.0
   0
VERTEX
   8
0
   6
Continuous
  10
 249.487152
  20
 206.698532
  30
 0.0
   0
VERTEX
   8
0
   6
Continuous
  10
 251.788986
  20
 206.946564
  30
 0.0
   0
VERTEX
   8
0
   6
Continuous
  10
 251.478104
  20
 206.185287
  30
 0.0
   0
VERTEX
   8
0
   6
Continuous
  10
 252.581772
  20
 203.215988
  30
 0.0
   0
VERTEX
   8
0
   6
Continuous
  10
 255.347168
  20
 202.987854
  30
 0.0
   0
VERTEX
   8
0
   6
Continuous
  10
 257.206512
  20
 204.553650
  30
 0.0
   0
VERTEX
   8
0
   6
Continuous
  10
 259.743774
  20
 206.081360
  30
 0.0
   0
VERTEX
   8
0
   6
Continuous
  10
 261.643768
  20
 205.853149
  30
 0.0
   0
VERTEX
   8
0
   6
Continuous
  10
 261.954712
  20
 202.874298
  30
 0.0
   0
VERTEX
   8
0
   6
Continuous
  10
 263.974945
  20
 201.507004
  30
 0.0
   0
VERTEX
   8
0
   6
Continuous
  10
 266.062134
  20
 201.424667
  30
 0.0
   0
VERTEX
   8
0
   6
Continuous
  10
 269.881500
  20
 203.621246
  30
 0.0
   0
VERTEX
   8
0
   6
Continuous
  10
 274.029480
  20
 204.553650
  30
 0.0
   0
VERTEX
   8
0
   6
Continuous
  10
 277.242920
  20
 204.553650
  30
 0.0
   0
VERTEX
   8
0
   6
Continuous
  10
 277.754791
  20
 201.637680
  30
 0.0
   0
VERTEX
   8
0
   6
Continuous
  10
 279.045258
  20
 200.626343
  30
 0.0
   0
VERTEX
   8
0
   6
Continuous
  10
 280.542084
  20
 200.850662
  30
 0.0
   0
VERTEX
   8
0
   6
Continuous
  10
 282.970245
  20
 202.013947
  30
 0.0
   0
VERTEX
   8
0
   6
Continuous
  10
 285.149658
  20
 202.459869
  30
 0.0
   0
VERTEX
   8
0
   6
Continuous
  10
 288.405487
  20
 202.251831
  30
 0.0
   0
VERTEX
   8
0
   6
Continuous
  10
 290.857117
  20
 201.344269
  30
 0.0
   0
VERTEX
   8
0
   6
Continuous
  10
 292.123108
  20
 200.111069
  30
 0.0
   0
VERTEX
   8
0
   6
Continuous
  10
 288.191589
  20
 200.134583
  30
 0.0
   0
VERTEX
   8
0
   6
Continuous
  10
 285.277313
  20
 198.862228
  30
 0.0
   0
VERTEX
   8
0
   6
Continuous
  10
 282.900238
  20
 196.943329
  30
 0.0
   0
VERTEX
   8
0
   6
Continuous
  10
 281.691742
  20
 195.363647
  30
 0.0
   0
VERTEX
   8
0
   6
Continuous
  10
 281.903625
  20
 193.422379
  30
 0.0
   0
VERTEX
   8
0
   6
Continuous
  10
 284.497833
  20
 192.389832
  30
 0.0
   0
VERTEX
   8
0
   6
Continuous
  10
 285.434570
  20
 191.708160
  30
 0.0
   0
VERTEX
   8
0
   6
Continuous
  10
 282.185547
  20
 190.721451
  30
 0.0
   0
VERTEX
   8
0
   6
Continuous
  10
 277.451019
  20
 189.897110
  30
 0.0
   0
VERTEX
   8
0
   6
Continuous
  10
 274.345520
  20
 189.093384
  30
 0.0
   0
VERTEX
   8
0
   6
Continuous
  10
 271.527069
  20
 187.285690
  30
 0.0
   0
VERTEX
   8
0
   6
Continuous
  10
 269.184265
  20
 184.001953
  30
 0.0
   0
VERTEX
   8
0
   6
Continuous
  10
 267.482452
  20
 180.745590
  30
 0.0
   0
VERTEX
   8
0
   6
Continuous
  10
 268.015503
  20
 179.090530
  30
 0.0
   0
VERTEX
   8
0
   6
Continuous
  10
 269.752441
  20
 179.428146
  30
 0.0
   0
VERTEX
   8
0
   6
Continuous
  10
 274.139221
  20
 179.788284
  30
 0.0
   0
VERTEX
   8
0
   6
Continuous
  10
 276.890442
  20
 178.587112
  30
 0.0
   0
VERTEX
   8
0
   6
Continuous
  10
 277.054321
  20
 177.509781
  30
 0.0
   0
VERTEX
   8
0
   6
Continuous
  10
 272.732208
  20
 175.753143
  30
 0.0
   0
VERTEX
   8
0
   6
Continuous
  10
 270.374756
  20
 174.119263
  30
 0.0
   0
VERTEX
   8
0
   6
Continuous
  10
 268.755371
  20
 171.911697
  30
 0.0
   0
VERTEX
   8
0
   6
Continuous
  10
 270.352661
  20
 169.675537
  30
 0.0
   0
VERTEX
   8
0
   6
Continuous
  10
 266.537323
  20
 169.354355
  30
 0.0
   0
VERTEX
   8
0
   6
Continuous
  10
 263.281250
  20
 167.861435
  30
 0.0
   0
VERTEX
   8
0
   6
Continuous
  10
 260.913269
  20
 165.668930
  30
 0.0
   0
VERTEX
   8
0
   6
Continuous
  10
 259.772736
  20
 164.472473
  30
 0.0
   0
VERTEX
   8
0
   6
Continuous
  10
 259.772736
  20
 162.677780
  30
 0.0
   0
VERTEX
   8
0
   6
Continuous
  10
 261.394073
  20
 161.320496
  30
 0.0
   0
VERTEX
   8
0
   6
Continuous
  10
 261.770905
  20
 160.178391
  30
 0.0
   0
VERTEX
   8
0
   6
Continuous
  10
 260.057892
  20
 159.985764
  30
 0.0
   0
VERTEX
   8
0
   6
Continuous
  10
 256.510498
  20
 159.163712
  30
 0.0
   0
VERTEX
   8
0
   6
Continuous
  10
 254.055893
  20
 157.790604
  30
 0.0
   0
VERTEX
   8
0
   6
Continuous
  10
 252.030472
  20
 155.336670
  30
 0.0
   0
VERTEX
   8
0
   6
Continuous
  10
 252.235397
  20
 153.049347
  30
 0.0
   0
VERTEX
   8
0
   6
Continuous
  10
 255.283630
  20
 152.460495
  30
 0.0
   0
VERTEX
   8
0
   6
Continuous
  10
 258.043274
  20
 151.255630
  30
 0.0
   0
VERTEX
   8
0
   6
Continuous
  10
 256.636261
  20
 150.713242
  30
 0.0
   0
VERTEX
   8
0
   6
Continuous
  10
 253.583282
  20
 149.217590
  30
 0.0
   0
VERTEX
   8
0
   6
Continuous
  10
 251.677429
  20
 146.965973
  30
 0.0
   0
VERTEX
   8
0
   6
Continuous
  10
 251.418060
  20
 145.485840
  30
 0.0
   0
VERTEX
   8
0
   6
Continuous
  10
 253.740692
  20
 143.989594
  30
 0.0
   0
VERTEX
   8
0
   6
Continuous
  10
 252.993622
  20
 143.446091
  30
 0.0
   0
VERTEX
   8
0
   6
Continuous
  10
 249.074127
  20
 141.949005
  30
 0.0
   0
VERTEX
   8
0
   6
Continuous
  10
 246.283585
  20
 140.342667
  30
 0.0
   0
VERTEX
   8
0
   6
Continuous
  10
 243.973251
  20
 137.726288
  30
 0.0
   0
VERTEX
   8
0
   6
Continuous
  10
 243.199051
  20
 135.293411
  30
 0.0
   0
VERTEX
   8
0
   6
Continuous
  10
 243.421890
  20
 132.039734
  30
 0.0
   0
VERTEX
   8
0
   6
Continuous
  10
 247.304153
  20
 131.700348
  30
 0.0
   0
VERTEX
   8
0
   6
Continuous
  10
 249.308701
  20
 130.660828
  30
 0.0
   0
VERTEX
   8
0
   6
Continuous
  10
 249.586380
  20
 129.076202
  30
 0.0
   0
VERTEX
   8
0
   6
Continuous
  10
 245.651398
  20
 128.379669
  30
 0.0
   0
VERTEX
   8
0
   6
Continuous
  10
 243.234940
  20
 126.784180
  30
 0.0
   0
VERTEX
   8
0
   6
Continuous
  10
 240.166916
  20
 124.745674
  30
 0.0
   0
VERTEX
   8
0
   6
Continuous
  10
 237.532257
  20
 121.699249
  30
 0.0
   0
VERTEX
   8
0
   6
Continuous
  10
 237.532257
  20
 120.203697
  30
 0.0
   0
VERTEX
   8
0
   6
Continuous
  10
 239.813309
  20
 119.007233
  30
 0.0
   0
VERTEX
   8
0
   6
Continuous
  10
 240.130997
  20
 118.386230
  30
 0.0
   0
VERTEX
   8
0
   6
Continuous
  10
 236.626282
  20
 116.604416
  30
 0.0
   0
VERTEX
   8
0
   6
Continuous
  10
 234.680908
  20
 114.819649
  30
 0.0
   0
VERTEX
   8
0
   6
Continuous
  10
 232.453049
  20
 111.939049
  30
 0.0
   0
VERTEX
   8
0
   6
Continuous
  10
 230.733566
  20
 109.001762
  30
 0.0
   0
VERTEX
   8
0
   6
Continuous
  10
 229.131577
  20
 105.351166
  30
 0.0
   0
VERTEX
   8
0
   6
Continuous
  10
 228.284149
  20
 102.125267
  30
 0.0
   0
VERTEX
   8
0
   6
Continuous
  10
 227.183670
  20
 104.829926
  30
 0.0
   0
VERTEX
   8
0
   6
Continuous
  10
 225.841721
  20
 107.042694
  30
 0.0
   0
VERTEX
   8
0
   6
Continuous
  10
 223.975464
  20
 109.850784
  30
 0.0
   0
VERTEX
   8
0
   6
Continuous
  10
 220.881912
  20
 112.643013
  30
 0.0
   0
VERTEX
   8
0
   6
Continuous
  10
 218.428223
  20
 114.221420
  30
 0.0
   0
VERTEX
   8
0
   6
Continuous
  10
 216.413956
  20
 115.211678
  30
 0.0
   0
VERTEX
   8
0
   6
Continuous
  10
 219.492035
  20
 115.633453
  30
 0.0
   0
VERTEX
   8
0
   6
Continuous
  10
 218.112961
  20
 118.889259
  30
 0.0
   0
VERTEX
   8
0
   6
Continuous
  10
 216.314255
  20
 120.776184
  30
 0.0
   0
VERTEX
   8
0
   6
Continuous
  10
 213.053268
  20
 122.427605
  30
 0.0
   0
VERTEX
   8
0
   6
Continuous
  10
 213.862534
  20
 123.276581
  30
 0.0
   0
VERTEX
   8
0
   6
Continuous
  10
 216.774841
  20
 123.884544
  30
 0.0
   0
VERTEX
   8
0
   6
Continuous
  10
 216.457520
  20
 125.976761
  30
 0.0
   0
VERTEX
   8
0
   6
Continuous
  10
 215.118027
  20
 128.184341
  30
 0.0
   0
VERTEX
   8
0
   6
Continuous
  10
 213.213043
  20
 129.749023
  30
 0.0
   0
VERTEX
   8
0
   6
Continuous
  10
 211.014740
  20
 130.971802
  30
 0.0
   0
VERTEX
   8
0
   6
Continuous
  10
 206.936142
  20
 132.179688
  30
 0.0
   0
VERTEX
   8
0
   6
Continuous
  10
 204.716873
  20
 131.956253
  30
 0.0
   0
VERTEX
   8
0
   6
Continuous
  10
 206.044769
  20
 134.145309
  30
 0.0
   0
VERTEX
   8
0
   6
Continuous
  10
 209.439362
  20
 136.129150
  30
 0.0
   0
VERTEX
   8
0
   6
Continuous
  10
 209.666779
  20
 138.667450
  30
 0.0
   0
VERTEX
   8
0
   6
Continuous
  10
 208.729858
  20
 140.755524
  30
 0.0
   0
VERTEX
   8
0
   6
Continuous
  10
 206.351730
  20
 143.025696
  30
 0.0
   0
VERTEX
   8
0
   6
Continuous
  10
 203.213669
  20
 144.458054
  30
 0.0
   0
VERTEX
   8
0
   6
Continuous
  10
 200.244019
  20
 144.670807
  30
 0.0
   0
VERTEX
   8
0
   6
Continuous
  10
 202.460709
  20
 146.824768
  30
 0.0
   0
VERTEX
   8
0
   6
Continuous
  10
 204.505280
  20
 148.356400
  30
 0.0
   0
VERTEX
   8
0
   6
Continuous
  10
 203.628250
  20
 151.201736
  30
 0.0
   0
VERTEX
   8
0
   6
Continuous
  10
 201.701584
  20
 152.934143
  30
 0.0
   0
VERTEX
   8
0
   6
Continuous
  10
 198.102280
  20
 154.701096
  30
 0.0
   0
VERTEX
   8
0
   6
Continuous
  10
 195.584381
  20
 155.144333
  30
 0.0
   0
VERTEX
   8
0
   6
Continuous
  10
 193.906677
  20
 154.900848
  30
 0.0
   0
VERTEX
   8
0
   6
Continuous
  10
 193.906677
  20
 155.499069
  30
 0.0
   0
VERTEX
   8
0
   6
Continuous
  10
 195.979340
  20
 157.822922
  30
 0.0
   0
VERTEX
   8
0
   6
Continuous
  10
 198.264191
  20
 159.069397
  30
 0.0
   0
VERTEX
   8
0
   6
Continuous
  10
 198.556671
  20
 160.738297
  30
 0.0
   0
VERTEX
   8
0
   6
Continuous
  10
 197.407898
  20
 162.631973
  30
 0.0
   0
VERTEX
   8
0
   6
Continuous
  10
 194.311569
  20
 164.458908
  30
 0.0
   0
VERTEX
   8
0
   6
Continuous
  10
 190.485046
  20
 165.668930
  30
 0.0
   0
VERTEX
   8
0
   6
Continuous
  10
 185.532532
  20
 166.194824
  30
 0.0
   0
VERTEX
   8
0
   6
Continuous
  10
 186.249176
  20
 167.927200
  30
 0.0
   0
VERTEX
   8
0
   6
Continuous
  10
 187.574554
  20
 168.408508
  30
 0.0
   0
VERTEX
   8
0
   6
Continuous
  10
 188.020096
  20
 169.279465
  30
 0.0
   0
VERTEX
   8
0
   6
Continuous
  10
 187.704727
  20
 170.504974
  30
 0.0
   0
VERTEX
   8
0
   6
Continuous
  10
 186.250549
  20
 172.684219
  30
 0.0
   0
VERTEX
   8
0
   6
Continuous
  10
 183.926941
  20
 174.044098
  30
 0.0
   0
VERTEX
   8
0
   6
Continuous
  10
 181.730042
  20
 175.004730
  30
 0.0
   0
VERTEX
   8
0
   6
Continuous
  10
 178.640945
  20
 175.341278
  30
 0.0
   0
VERTEX
   8
0
   6
Continuous
  10
 179.120361
  20
 177.123672
  30
 0.0
   0
VERTEX
   8
0
   6
Continuous
  10
 181.459320
  20
 178.207809
  30
 0.0
   0
VERTEX
   8
0
   6
Continuous
  10
 181.730576
  20
 180.199661
  30
 0.0
   0
VERTEX
   8
0
   6
Continuous
  10
 180.956497
  20
 182.282242
  30
 0.0
   0
VERTEX
   8
0
   6
Continuous
  10
 178.224274
  20
 184.513077
  30
 0.0
   0
VERTEX
   8
0
   6
Continuous
  10
 175.513718
  20
 186.421188
  30
 0.0
   0
VERTEX
   8
0
   6
Continuous
  10
 172.014450
  20
 188.070374
  30
 0.0
   0
VERTEX
   8
0
   6
Continuous
  10
 174.517487
  20
 188.999771
  30
 0.0
   0
VERTEX
   8
0
   6
Continuous
  10
 176.658081
  20
 189.872665
  30
 0.0
   0
VERTEX
   8
0
   6
Continuous
  10
 176.103302
  20
 191.565750
  30
 0.0
   0
VERTEX
   8
0
   6
Continuous
  10
 174.300110
  20
 193.021378
  30
 0.0
   0
VERTEX
   8
0
   6
Continuous
  10
 170.810745
  20
 194.383804
  30
 0.0
   0
VERTEX
   8
0
   6
Continuous
  10
 166.899826
  20
 195.615143
  30
 0.0
   0
VERTEX
   8
0
   6
Continuous
  10
 163.199371
  20
 196.214203
  30
 0.0
   0
VERTEX
   8
0
   6
Continuous
  10
 165.222122
  20
 198.032990
  30
 0.0
   0
VERTEX
   8
0
   6
Continuous
  10
 168.646271
  20
 199.828979
  30
 0.0
   0
VERTEX
   8
0
   6
Continuous
  10
 168.045105
  20
 201.663589
  30
 0.0
   0
VERTEX
   8
0
   6
Continuous
  10
 166.236588
  20
 202.746384
  30
 0.0
   0
VERTEX
   8
0
   6
Continuous
  10
 167.136826
  20
 203.690765
  30
 0.0
   0
VERTEX
   8
0
   6
Continuous
  10
 170.026215
  20
 204.362732
  30
 0.0
   0
VERTEX
   8
0
   6
Continuous
  10
 174.607285
  20
 203.459656
  30
 0.0
   0
VERTEX
   8
0
   6
Continuous
  10
 177.368851
  20
 201.861603
  30
 0.0
   0
VERTEX
   8
0
   6
Continuous
  10
 179.114166
  20
 201.133347
  30
 0.0
   0
VERTEX
   8
0
   6
Continuous
  10
 180.586365
  20
 202.096573
  30
 0.0
   0
VERTEX
   8
0
   6
Continuous
  10
 180.227615
  20
 204.462112
  30
 0.0
   0
VERTEX
   8
0
   6
Continuous
  10
 178.602570
  20
 205.847763
  30
 0.0
   0
VERTEX
   8
0
   6
Continuous
  10
 175.880188
  20
 206.165741
  30
 0.0
   0
VERTEX
   8
0
   6
Continuous
  10
 176.228302
  20
 206.647446
  30
 0.0
   0
VERTEX
   8
0
   6
Continuous
  10
 180.505356
  20
 207.544800
  30
 0.0
   0
VERTEX
   8
0
   6
Continuous
  10
 185.143723
  20
 207.544800
  30
 0.0
   0
VERTEX
   8
0
   6
Continuous
  10
 187.991318
  20
 207.055008
  30
 0.0
   0
VERTEX
   8
0
   6
Continuous
  10
 190.149887
  20
 206.255920
  30
 0.0
   0
VERTEX
   8
0
   6
Continuous
  10
 193.051254
  20
 204.852753
  30
 0.0
   0
VERTEX
   8
0
   6
Continuous
  10
 196.655624
  20
 203.408813
  30
 0.0
   0
VERTEX
   8
0
   6
Continuous
  10
 200.464737
  20
 202.459839
  30
 0.0
   0
VERTEX
   8
0
   6
Continuous
  10
 204.652878
  20
 202.615906
  30
 0.0
   0
VERTEX
   8
0
   6
Continuous
  10
 207.102783
  20
 204.251785
  30
 0.0
   0
VERTEX
   8
0
   6
Continuous
  10
 207.542877
  20
 206.823730
  30
 0.0
   0
VERTEX
   8
0
   6
Continuous
  10
 209.143280
  20
 206.744339
  30
 0.0
   0
VERTEX
   8
0
   6
Continuous
  10
 212.757782
  20
 205.448395
  30
 0.0
   0
VERTEX
   8
0
   6
Continuous
  10
 213.794083
  20
 205.648239
  30
 0.0
   0
VERTEX
   8
0
   6
Continuous
  10
 216.736130
  20
 207.618149
  30
 0.0
   0
VERTEX
   8
0
   6
Continuous
  10
 218.997787
  20
 207.145370
  30
 0.0
   0
VERTEX
   8
0
   6
Continuous
  10
 222.353500
  20
 204.811295
  30
 0.0
   0
VERTEX
   8
0
   6
Continuous
  10
 225.050079
  20
 205.000397
  30
 0.0
   0
VERTEX
   8
0
   6
Continuous
  10
 224.849945
  20
 208.141464
  30
 0.0
   0
VERTEX
   8
0
   6
Continuous
  10
 223.887863
  20
 210.565384
  30
 0.0
   0
VERTEX
   8
0
   6
Continuous
  10
 222.219620
  20
 212.629730
  30
 0.0
   0
VERTEX
   8
0
   6
Continuous
  10
 205.216980
  20
 212.629730
  30
 0.0
   0
VERTEX
   8
0
   6
Continuous
  10
 204.258911
  20
 213.195053
  30
 0.0
   0
VERTEX
   8
0
   6
Continuous
  10
 206.103363
  20
 214.536957
  30
 0.0
   0
VERTEX
   8
0
   6
Continuous
  10
 208.127945
  20
 216.564255
  30
 0.0
   0
VERTEX
   8
0
   6
Continuous
  10
 209.692154
  20
 218.886993
  30
 0.0
   0
VERTEX
   8
0
   6
Continuous
  10
 211.217209
  20
 221.758636
  30
 0.0
   0
VERTEX
   8
0
   6
Continuous
  10
 212.487457
  20
 225.380386
  30
 0.0
   0
VERTEX
   8
0
   6
Continuous
  10
 213.010666
  20
 228.482697
  30
 0.0
   0
VERTEX
   8
0
   6
Continuous
  10
 212.617569
  20
 232.825851
  30
 0.0
   0
VERTEX
   8
0
   6
Continuous
  10
 211.932816
  20
 235.203247
  30
 0.0
   0
VERTEX
   8
0
   6
Continuous
  10
 210.647110
  20
 237.609283
  30
 0.0
   0
VERTEX
   8
0
   6
Continuous
  10
 207.957870
  20
 237.831161
  30
 0.0
   0
VERTEX
   8
0
   6
Continuous
  10
 207.844696
  20
 239.849045
  30
 0.0
   0
VERTEX
   8
0
   6
Continuous
  10
 120.510071
  20
 238.972961
  30
 0.0
   0
VERTEX
   8
0
   6
Continuous
  10
 122.458496
  20
 234.408142
  30
 0.0
   0
VERTEX
   8
0
   6
Continuous
  10
 124.834412
  20
 230.673523
  30
 0.0
   0
VERTEX
   8
0
   6
Continuous
  10
 128.138611
  20
 225.934174
  30
 0.0
   0
VERTEX
   8
0
   6
Continuous
  10
 133.615845
  20
 221.221558
  30
 0.0
   0
VERTEX
   8
0
   6
Continuous
  10
 137.959961
  20
 218.557587
  30
 0.0
   0
VERTEX
   8
0
   6
Continuous
  10
 141.526245
  20
 216.886292
  30
 0.0
   0
VERTEX
   8
0
   6
Continuous
  10
 136.076538
  20
 216.174408
  30
 0.0
   0
VERTEX
   8
0
   6
Continuous
  10
 138.518188
  20
 210.679413
  30
 0.0
   0
VERTEX
   8
0
   6
Continuous
  10
 141.702759
  20
 207.494781
  30
 0.0
   0
VERTEX
   8
0
   6
Continuous
  10
 147.476379
  20
 204.707581
  30
 0.0
   0
VERTEX
   8
0
   6
Continuous
  10
 146.043518
  20
 203.274719
  30
 0.0
   0
VERTEX
   8
0
   6
Continuous
  10
 140.887329
  20
 202.248627
  30
 0.0
   0
VERTEX
   8
0
   6
Continuous
  10
 141.449097
  20
 198.717468
  30
 0.0
   0
VERTEX
   8
0
   6
Continuous
  10
 143.820679
  20
 194.991608
  30
 0.0
   0
VERTEX
   8
0
   6
Continuous
  10
 147.193481
  20
 192.350800
  30
 0.0
   0
VERTEX
   8
0
   6
Continuous
  10
 151.085571
  20
 190.287109
  30
 0.0
   0
VERTEX
   8
0
   6
Continuous
  10
 158.306702
  20
 188.248444
  30
 0.0
   0
VERTEX
   8
0
   6
Continuous
  10
 162.235901
  20
 188.625549
  30
 0.0
   0
VERTEX
   8
0
   6
Continuous
  10
 159.884827
  20
 184.931000
  30
 0.0
   0
VERTEX
   8
0
   6
Continuous
  10
 153.874756
  20
 181.582703
  30
 0.0
   0
VERTEX
   8
0
   6
Continuous
  10
 153.472168
  20
 177.298676
  30
 0.0
   0
VERTEX
   8
0
   6
Continuous
  10
 155.130920
  20
 173.774567
  30
 0.0
   0
VERTEX
   8
0
   6
Continuous
  10
 159.341370
  20
 169.943024
  30
 0.0
   0
VERTEX
   8
0
   6
Continuous
  10
 164.897339
  20
 167.525543
  30
 0.0
   0
VERTEX
   8
0
   6
Continuous
  10
 170.155090
  20
 167.166473
  30
 0.0
   0
VERTEX
   8
0
   6
Continuous
  10
 166.230469
  20
 163.531128
  30
 0.0
   0
VERTEX
   8
0
   6
Continuous
  10
 162.610535
  20
 160.946136
  30
 0.0
   0
VERTEX
   8
0
   6
Continuous
  10
 164.163330
  20
 156.143921
  30
 0.0
   0
VERTEX
   8
0
   6
Continuous
  10
 167.574463
  20
 153.220062
  30
 0.0
   0
VERTEX
   8
0
   6
Continuous
  10
 173.947021
  20
 150.237854
  30
 0.0
   0
VERTEX
   8
0
   6
Continuous
  10
 178.405029
  20
 149.489777
  30
 0.0
   0
VERTEX
   8
0
   6
Continuous
  10
 181.375366
  20
 149.900726
  30
 0.0
   0
VERTEX
   8
0
   6
Continuous
  10
 181.375366
  20
 148.891052
  30
 0.0
   0
VERTEX
   8
0
   6
Continuous
  10
 177.705688
  20
 144.968933
  30
 0.0
   0
VERTEX
   8
0
   6
Continuous
  10
 173.660339
  20
 142.865173
  30
 0.0
   0
VERTEX
   8
0
   6
Continuous
  10
 173.142578
  20
 140.048523
  30
 0.0
   0
VERTEX
   8
0
   6
Continuous
  10
 175.176453
  20
 136.852478
  30
 0.0
   0
VERTEX
   8
0
   6
Continuous
  10
 180.658447
  20
 133.769043
  30
 0.0
   0
VERTEX
   8
0
   6
Continuous
  10
 187.433350
  20
 131.726837
  30
 0.0
   0
VERTEX
   8
0
   6
Continuous
  10
 196.201782
  20
 130.839233
  30
 0.0
   0
VERTEX
   8
0
   6
Continuous
  10
 194.932922
  20
 127.915398
  30
 0.0
   0
VERTEX
   8
0
   6
Continuous
  10
 192.586304
  20
 127.103111
  30
 0.0
   0
VERTEX
   8
0
   6
Continuous
  10
 191.797546
  20
 125.633087
  30
 0.0
   0
VERTEX
   8
0
   6
Continuous
  10
 192.355835
  20
 123.564789
  30
 0.0
   0
VERTEX
   8
0
   6
Continuous
  10
 194.930481
  20
 119.886734
  30
 0.0
   0
VERTEX
   8
0
   6
Continuous
  10
 199.044434
  20
 117.591576
  30
 0.0
   0
VERTEX
   8
0
   6
Continuous
  10
 202.934082
  20
 115.970238
  30
 0.0
   0
VERTEX
   8
0
   6
Continuous
  10
 208.403320
  20
 115.402267
  30
 0.0
   0
VERTEX
   8
0
   6
Continuous
  10
 207.554443
  20
 112.394020
  30
 0.0
   0
VERTEX
   8
0
   6
Continuous
  10
 203.413330
  20
 110.564240
  30
 0.0
   0
VERTEX
   8
0
   6
Continuous
  10
 202.933105
  20
 107.202492
  30
 0.0
   0
VERTEX
   8
0
   6
Continuous
  10
 204.303589
  20
 103.687599
  30
 0.0
   0
VERTEX
   8
0
   6
Continuous
  10
 209.140991
  20
 99.922531
  30
 0.0
   0
VERTEX
   8
0
   6
Continuous
  10
 213.940063
  20
 96.702103
  30
 0.0
   0
VERTEX
   8
0
   6
Continuous
  10
 220.135498
  20
 93.918648
  30
 0.0
   0
VERTEX
   8
0
   6
Continuous
  10
 215.703796
  20
 92.350082
  30
 0.0
   0
VERTEX
   8
0
   6
Continuous
  10
 211.913940
  20
 90.876862
  30
 0.0
   0
VERTEX
   8
0
   6
Continuous
  10
 212.896179
  20
 88.019302
  30
 0.0
   0
VERTEX
   8
0
   6
Continuous
  10
 216.088745
  20
 85.562546
  30
 0.0
   0
VERTEX
   8
0
   6
Continuous
  10
 222.266602
  20
 83.263145
  30
 0.0
   0
VERTEX
   8
0
   6
Continuous
  10
 229.190918
  20
 81.184914
  30
 0.0
   0
VERTEX
   8
0
   6
Continuous
  10
 235.742493
  20
 80.173866
  30
 0.0
   0
VERTEX
   8
0
   6
Continuous
  10
 232.161255
  20
 77.104210
  30
 0.0
   0
VERTEX
   8
0
   6
Continuous
  10
 226.098816
  20
 74.072998
  30
 0.0
   0
VERTEX
   8
0
   6
Continuous
  10
 227.163208
  20
 70.976631
  30
 0.0
   0
VERTEX
   8
0
   6
Continuous
  10
 230.365112
  20
 69.149124
  30
 0.0
   0
VERTEX
   8
0
   6
Continuous
  10
 228.771240
  20
 67.555290
  30
 0.0
   0
VERTEX
   8
0
   6
Continuous
  10
 223.655640
  20
 66.421158
  30
 0.0
   0
VERTEX
   8
0
   6
Continuous
  10
 215.544861
  20
 67.945290
  30
 0.0
   0
VERTEX
   8
0
   6
Continuous
  10
 210.655518
  20
 70.642395
  30
 0.0
   0
VERTEX
   8
0
   6
Continuous
  10
 207.565430
  20
 71.871536
  30
 0.0
   0
VERTEX
   8
0
   6
Continuous
  10
 204.958923
  20
 70.245857
  30
 0.0
   0
VERTEX
   8
0
   6
Continuous
  10
 205.594116
  20
 66.253418
  30
 0.0
   0
VERTEX
   8
0
   6
Continuous
  10
 208.471191
  20
 63.914780
  30
 0.0
   0
VERTEX
   8
0
   6
Continuous
  10
 213.291199
  20
 63.378113
  30
 0.0
   0
VERTEX
   8
0
   6
Continuous
  10
 212.674866
  20
 62.565109
  30
 0.0
   0
VERTEX
   8
0
   6
Continuous
  10
 205.102356
  20
 61.050621
  30
 0.0
   0
VERTEX
   8
0
   6
Continuous
  10
 196.890137
  20
 61.050621
  30
 0.0
   0
VERTEX
   8
0
   6
Continuous
  10
 191.848450
  20
 61.877258
  30
 0.0
   0
VERTEX
   8
0
   6
Continuous
  10
 188.026733
  20
 63.225929
  30
 0.0
   0
VERTEX
   8
0
   6
Continuous
  10
 182.889893
  20
 65.594086
  30
 0.0
   0
VERTEX
   8
0
   6
Continuous
  10
 176.508301
  20
 68.031113
  30
 0.0
   0
VERTEX
   8
0
   6
Continuous
  10
 169.764282
  20
 69.632729
  30
 0.0
   0
VERTEX
   8
0
   6
Continuous
  10
 162.349243
  20
 69.369377
  30
 0.0
   0
VERTEX
   8
0
   6
Continuous
  10
 158.011658
  20
 66.608414
  30
 0.0
   0
VERTEX
   8
0
   6
Continuous
  10
 157.232483
  20
 62.267551
  30
 0.0
   0
VERTEX
   8
0
   6
Continuous
  10
 154.398987
  20
 62.401573
  30
 0.0
   0
VERTEX
   8
0
   6
Continuous
  10
 147.999512
  20
 64.588791
  30
 0.0
   0
VERTEX
   8
0
   6
Continuous
  10
 146.164734
  20
 64.251511
  30
 0.0
   0
VERTEX
   8
0
   6
Continuous
  10
 140.955811
  20
 60.926834
  30
 0.0
   0
VERTEX
   8
0
   6
Continuous
  10
 136.951599
  20
 61.724720
  30
 0.0
   0
VERTEX
   8
0
   6
Continuous
  10
 131.010315
  20
 65.664063
  30
 0.0
   0
VERTEX
   8
0
   6
Continuous
  10
 126.235962
  20
 65.344925
  30
 0.0
   0
VERTEX
   8
0
   6
Continuous
  10
 126.590340
  20
 60.043606
  30
 0.0
   0
VERTEX
   8
0
   6
Continuous
  10
 128.293701
  20
 55.952595
  30
 0.0
   0
VERTEX
   8
0
   6
Continuous
  10
 131.247314
  20
 52.468510
  30
 0.0
   0
VERTEX
   8
0
   6
Continuous
  10
 161.350464
  20
 52.468510
  30
 0.0
   0
VERTEX
   8
0
   6
Continuous
  10
 163.046692
  20
 51.514359
  30
 0.0
   0
VERTEX
   8
0
   6
Continuous
  10
 159.781128
  20
 49.249516
  30
 0.0
   0
VERTEX
   8
0
   6
Continuous
  10
 156.196655
  20
 45.827953
  30
 0.0
   0
VERTEX
   8
0
   6
Continuous
  10
 153.427185
  20
 41.907761
  30
 0.0
   0
VERTEX
   8
0
   6
Continuous
  10
 150.727051
  20
 37.061127
  30
 0.0
   0
VERTEX
   8
0
   6
Continuous
  10
 148.478088
  20
 30.948517
  30
 0.0
   0
VERTEX
   8
0
   6
Continuous
  10
 147.551758
  20
 25.712521
  30
 0.0
   0
VERTEX
   8
0
   6
Continuous
  10
 148.247742
  20
 18.382387
  30
 0.0
   0
VERTEX
   8
0
   6
Continuous
  10
 149.460083
  20
 14.369926
  30
 0.0
   0
VERTEX
   8
0
   6
Continuous
  10
 151.736389
  20
 10.309119
  30
 0.0
   0
VERTEX
   8
0
   6
Continuous
  10
 156.497742
  20
 9.934678
  30
 0.0
   0
VERTEX
   8
0
   6
Continuous
  10
 156.698059
  20
 6.528981
  30
 0.0
   0
VERTEX
   8
0
   6
Continuous
  10
 84.447998
  20
 6.528981
  30
 0.0
   0
VERTEX
   8
0
   6
Continuous
  10
 84.447998
  20
 9.924369
  30
 0.0
   0
VERTEX
   8
0
   6
Continuous
  10
 88.847046
  20
 10.137226
  30
 0.0
   0
VERTEX
   8
0
   6
Continuous
  10
 89.984802
  20
 11.785209
  30
 0.0
   0
VERTEX
   8
0
   6
Continuous
  10
 92.134033
  20
 16.491350
  30
 0.0
   0
VERTEX
   8
0
   6
Continuous
  10
 93.107605
  20
 21.221987
  30
 0.0
   0
VERTEX
   8
0
   6
Continuous
  10
 92.855103
  20
 28.466146
  30
 0.0
   0
VERTEX
   8
0
   6
Continuous
  10
 91.054260
  20
 34.631836
  30
 0.0
   0
VERTEX
   8
0
   6
Continuous
  10
 89.201355
  20
 39.083965
  30
 0.0
   0
VERTEX
   8
0
   6
Continuous
  10
 85.582336
  20
 44.561752
  30
 0.0
   0
VERTEX
   8
0
   6
Continuous
  10
 82.285522
  20
 48.592392
  30
 0.0
   0
VERTEX
   8
0
   6
Continuous
  10
 79.187927
  20
 50.288704
  30
 0.0
   0
VERTEX
   8
0
   6
Continuous
  10
 78.787231
  20
 52.468510
  30
 0.0
   0
VERTEX
   8
0
   6
Continuous
  10
 105.325500
  20
 52.468510
  30
 0.0
   0
VERTEX
   8
0
   6
Continuous
  10
 109.682190
  20
 53.375729
  30
 0.0
   0
VERTEX
   8
0
   6
Continuous
  10
 112.761047
  20
 58.009487
  30
 0.0
   0
VERTEX
   8
0
   6
Continuous
  10
 113.922424
  20
 63.248199
  30
 0.0
   0
VERTEX
   8
0
   6
Continuous
  10
 112.938782
  20
 67.111053
  30
 0.0
   0
VERTEX
   8
0
   6
Continuous
  10
 110.324707
  20
 67.312134
  30
 0.0
   0
VERTEX
   8
0
   6
Continuous
  10
 103.201294
  20
 64.032883
  30
 0.0
   0
VERTEX
   8
0
   6
Continuous
  10
 100.479553
  20
 64.421707
  30
 0.0
   0
VERTEX
   8
0
   6
Continuous
  10
 96.650330
  20
 66.825714
  30
 0.0
   0
VERTEX
   8
0
   6
Continuous
  10
 93.329285
  20
 67.264328
  30
 0.0
   0
VERTEX
   8
0
   6
Continuous
  10
 89.747131
  20
 66.000198
  30
 0.0
   0
VERTEX
   8
0
   6
Continuous
  10
 82.970276
  20
 62.478889
  30
 0.0
   0
VERTEX
   8
0
   6
Continuous
  10
 78.894836
  20
 62.060280
  30
 0.0
   0
VERTEX
   8
0
   6
Continuous
  10
 79.445251
  20
 63.345131
  30
 0.0
   0
VERTEX
   8
0
   6
Continuous
  10
 77.491272
  20
 68.356544
  30
 0.0
   0
VERTEX
   8
0
   6
Continuous
  10
 72.595093
  20
 68.741585
  30
 0.0
   0
VERTEX
   8
0
   6
Continuous
  10
 69.303101
  20
 66.098923
  30
 0.0
   0
VERTEX
   8
0
   6
Continuous
  10
 64.810852
  20
 63.520554
  30
 0.0
   0
VERTEX
   8
0
   6
Continuous
  10
 61.446957
  20
 63.905670
  30
 0.0
   0
VERTEX
   8
0
   6
Continuous
  10
 60.896420
  20
 68.933296
  30
 0.0
   0
VERTEX
   8
0
   6
Continuous
  10
 57.319637
  20
 71.240929
  30
 0.0
   0
VERTEX
   8
0
   6
Continuous
  10
 53.624325
  20
 71.379845
  30
 0.0
   0
VERTEX
   8
0
   6
Continuous
  10
 46.861996
  20
 67.672615
  30
 0.0
   0
VERTEX
   8
0
   6
Continuous
  10
 39.518124
  20
 66.098923
  30
 0.0
   0
VERTEX
   8
0
   6
Continuous
  10
 33.828671
  20
 66.098923
  30
 0.0
   0
VERTEX
   8
0
   6
Continuous
  10
 32.922421
  20
 71.020355
  30
 0.0
   0
VERTEX
   8
0
   6
Continuous
  10
 30.637627
  20
 72.727257
  30
 0.0
   0
VERTEX
   8
0
   6
Continuous
  10
 27.987543
  20
 72.348686
  30
 0.0
   0
VERTEX
   8
0
   6
Continuous
  10
 23.688532
  20
 70.385330
  30
 0.0
   0
VERTEX
   8
0
   6
Continuous
  10
 19.829767
  20
 69.632729
  30
 0.0
   0
VERTEX
   8
0
   6
Continuous
  10
 14.065364
  20
 69.983810
  30
 0.0
   0
VERTEX
   8
0
   6
Continuous
  10
 9.724788
  20
 71.515556
  30
 0.0
   0
VERTEX
   8
0
   6
Continuous
  10
 7.483334
  20
 73.596947
  30
 0.0
   0
SEQEND
   0
ENDSEC
   0
EOF
