   0
SECTION
   2
ENTITIES
   0
POLYLINE
   8
0
  66
 1
   6
Continuous
  10
 0.0
  20
 0.0
  30
 0.0
  70
 128
   0
VERTEX
   8
0
   6
Continuous
  10
 7.306096
  20
 74.905251
  30
 0.0
   0
VERTEX
   8
0
   6
Continuous
  10
 14.744287
  20
 74.862793
  30
 0.0
   0
VERTEX
   8
0
   6
Continuous
  10
 20.258081
  20
 77.157547
  30
 0.0
   0
VERTEX
   8
0
   6
Continuous
  10
 24.755274
  20
 80.618324
  30
 0.0
   0
VERTEX
   8
0
   6
Continuous
  10
 27.041656
  20
 83.467323
  30
 0.0
   0
VERTEX
   8
0
   6
Continuous
  10
 26.640821
  20
 86.968483
  30
 0.0
   0
VERTEX
   8
0
   6
Continuous
  10
 21.732744
  20
 88.830719
  30
 0.0
   0
VERTEX
   8
0
   6
Continuous
  10
 19.960468
  20
 90.060127
  30
 0.0
   0
VERTEX
   8
0
   6
Continuous
  10
 26.107468
  20
 91.839684
  30
 0.0
   0
VERTEX
   8
0
   6
Continuous
  10
 35.064827
  20
 93.326385
  30
 0.0
   0
VERTEX
   8
0
   6
Continuous
  10
 40.940331
  20
 94.775940
  30
 0.0
   0
VERTEX
   8
0
   6
Continuous
  10
 46.272659
  20
 98.036156
  30
 0.0
   0
VERTEX
   8
0
   6
Continuous
  10
 50.705154
  20
 103.958458
  30
 0.0
   0
VERTEX
   8
0
   6
Continuous
  10
 53.924839
  20
 109.831398
  30
 0.0
   0
VERTEX
   8
0
   6
Continuous
  10
 52.916424
  20
 112.816315
  30
 0.0
   0
VERTEX
   8
0
   6
Continuous
  10
 49.630215
  20
 112.207443
  30
 0.0
   0
VERTEX
   8
0
   6
Continuous
  10
 41.330708
  20
 111.557945
  30
 0.0
   0
VERTEX
   8
0
   6
Continuous
  10
 36.125515
  20
 113.724274
  30
 0.0
   0
VERTEX
   8
0
   6
Continuous
  10
 35.815468
  20
 115.667236
  30
 0.0
   0
VERTEX
   8
0
   6
Continuous
  10
 43.992645
  20
 118.835358
  30
 0.0
   0
VERTEX
   8
0
   6
Continuous
  10
 48.452763
  20
 121.782097
  30
 0.0
   0
VERTEX
   8
0
   6
Continuous
  10
 51.516659
  20
 125.763557
  30
 0.0
   0
VERTEX
   8
0
   6
Continuous
  10
 48.494598
  20
 129.796509
  30
 0.0
   0
VERTEX
   8
0
   6
Continuous
  10
 55.713112
  20
 130.375748
  30
 0.0
   0
VERTEX
   8
0
   6
Continuous
  10
 61.873409
  20
 133.068298
  30
 0.0
   0
VERTEX
   8
0
   6
Continuous
  10
 66.353439
  20
 137.022552
  30
 0.0
   0
VERTEX
   8
0
   6
Continuous
  10
 68.511276
  20
 139.180389
  30
 0.0
   0
VERTEX
   8
0
   6
Continuous
  10
 68.511276
  20
 142.417145
  30
 0.0
   0
VERTEX
   8
0
   6
Continuous
  10
 65.443825
  20
 144.865082
  30
 0.0
   0
VERTEX
   8
0
   6
Continuous
  10
 64.730827
  20
 146.924866
  30
 0.0
   0
VERTEX
   8
0
   6
Continuous
  10
 67.971817
  20
 147.272278
  30
 0.0
   0
VERTEX
   8
0
   6
Continuous
  10
 74.683250
  20
 148.754868
  30
 0.0
   0
VERTEX
   8
0
   6
Continuous
  10
 79.327171
  20
 151.231308
  30
 0.0
   0
VERTEX
   8
0
   6
Continuous
  10
 83.159241
  20
 155.657074
  30
 0.0
   0
VERTEX
   8
0
   6
Continuous
  10
 82.771561
  20
 159.782333
  30
 0.0
   0
VERTEX
   8
0
   6
Continuous
  10
 77.004356
  20
 160.844345
  30
 0.0
   0
VERTEX
   8
0
   6
Continuous
  10
 71.783279
  20
 163.017288
  30
 0.0
   0
VERTEX
   8
0
   6
Continuous
  10
 74.445328
  20
 163.995499
  30
 0.0
   0
VERTEX
   8
0
   6
Continuous
  10
 80.221413
  20
 166.692978
  30
 0.0
   0
VERTEX
   8
0
   6
Continuous
  10
 83.827141
  20
 170.753799
  30
 0.0
   0
VERTEX
   8
0
   6
Continuous
  10
 84.317848
  20
 173.423279
  30
 0.0
   0
VERTEX
   8
0
   6
Continuous
  10
 79.923599
  20
 176.121765
  30
 0.0
   0
VERTEX
   8
0
   6
Continuous
  10
 81.336983
  20
 177.102005
  30
 0.0
   0
VERTEX
   8
0
   6
Continuous
  10
 88.752426
  20
 179.802017
  30
 0.0
   0
VERTEX
   8
0
   6
Continuous
  10
 94.032051
  20
 182.699112
  30
 0.0
   0
VERTEX
   8
0
   6
Continuous
  10
 98.403008
  20
 187.417847
  30
 0.0
   0
VERTEX
   8
0
   6
Continuous
  10
 99.867767
  20
 191.805573
  30
 0.0
   0
VERTEX
   8
0
   6
Continuous
  10
 99.446182
  20
 197.673706
  30
 0.0
   0
VERTEX
   8
0
   6
Continuous
  10
 92.101158
  20
 198.285812
  30
 0.0
   0
VERTEX
   8
0
   6
Continuous
  10
 88.308678
  20
 200.160583
  30
 0.0
   0
VERTEX
   8
0
   6
Continuous
  10
 87.783325
  20
 203.018478
  30
 0.0
   0
VERTEX
   8
0
   6
Continuous
  10
 95.228081
  20
 204.274704
  30
 0.0
   0
VERTEX
   8
0
   6
Continuous
  10
 99.799889
  20
 207.152206
  30
 0.0
   0
VERTEX
   8
0
   6
Continuous
  10
 105.604416
  20
 210.828720
  30
 0.0
   0
VERTEX
   8
0
   6
Continuous
  10
 110.589066
  20
 216.323013
  30
 0.0
   0
VERTEX
   8
0
   6
Continuous
  10
 110.589066
  20
 219.020294
  30
 0.0
   0
VERTEX
   8
0
   6
Continuous
  10
 106.273399
  20
 221.178131
  30
 0.0
   0
VERTEX
   8
0
   6
Continuous
  10
 105.672340
  20
 222.298126
  30
 0.0
   0
VERTEX
   8
0
   6
Continuous
  10
 112.303101
  20
 225.511688
  30
 0.0
   0
VERTEX
   8
0
   6
Continuous
  10
 115.983658
  20
 228.730560
  30
 0.0
   0
VERTEX
   8
0
   6
Continuous
  10
 120.198647
  20
 233.925827
  30
 0.0
   0
VERTEX
   8
0
   6
Continuous
  10
 123.451775
  20
 239.223267
  30
 0.0
   0
VERTEX
   8
0
   6
Continuous
  10
 126.482674
  20
 245.807190
  30
 0.0
   0
VERTEX
   8
0
   6
Continuous
  10
 128.085953
  20
 251.625214
  30
 0.0
   0
VERTEX
   8
0
   6
Continuous
  10
 130.167999
  20
 246.747299
  30
 0.0
   0
VERTEX
   8
0
   6
Continuous
  10
 132.706879
  20
 242.756485
  30
 0.0
   0
VERTEX
   8
0
   6
Continuous
  10
 136.237747
  20
 237.692047
  30
 0.0
   0
VERTEX
   8
0
   6
Continuous
  10
 142.090652
  20
 232.656189
  30
 0.0
   0
VERTEX
   8
0
   6
Continuous
  10
 146.732819
  20
 229.809479
  30
 0.0
   0
VERTEX
   8
0
   6
Continuous
  10
 150.543732
  20
 228.023529
  30
 0.0
   0
VERTEX
   8
0
   6
Continuous
  10
 144.720154
  20
 227.262833
  30
 0.0
   0
VERTEX
   8
0
   6
Continuous
  10
 147.329254
  20
 221.390884
  30
 0.0
   0
VERTEX
   8
0
   6
Continuous
  10
 150.732315
  20
 217.987823
  30
 0.0
   0
VERTEX
   8
0
   6
Continuous
  10
 156.901993
  20
 215.009430
  30
 0.0
   0
VERTEX
   8
0
   6
Continuous
  10
 155.370834
  20
 213.478271
  30
 0.0
   0
VERTEX
   8
0
   6
Continuous
  10
 149.860962
  20
 212.381805
  30
 0.0
   0
VERTEX
   8
0
   6
Continuous
  10
 150.461273
  20
 208.608429
  30
 0.0
   0
VERTEX
   8
0
   6
Continuous
  10
 152.995544
  20
 204.626968
  30
 0.0
   0
VERTEX
   8
0
   6
Continuous
  10
 156.599655
  20
 201.805038
  30
 0.0
   0
VERTEX
   8
0
   6
Continuous
  10
 160.758743
  20
 199.599777
  30
 0.0
   0
VERTEX
   8
0
   6
Continuous
  10
 168.475204
  20
 197.421265
  30
 0.0
   0
VERTEX
   8
0
   6
Continuous
  10
 172.673935
  20
 197.824234
  30
 0.0
   0
VERTEX
   8
0
   6
Continuous
  10
 170.161606
  20
 193.876266
  30
 0.0
   0
VERTEX
   8
0
   6
Continuous
  10
 163.739227
  20
 190.298279
  30
 0.0
   0
VERTEX
   8
0
   6
Continuous
  10
 163.309006
  20
 185.720398
  30
 0.0
   0
VERTEX
   8
0
   6
Continuous
  10
 165.081573
  20
 181.954559
  30
 0.0
   0
VERTEX
   8
0
   6
Continuous
  10
 169.580841
  20
 177.860184
  30
 0.0
   0
VERTEX
   8
0
   6
Continuous
  10
 175.517944
  20
 175.276871
  30
 0.0
   0
VERTEX
   8
0
   6
Continuous
  10
 181.136353
  20
 174.893188
  30
 0.0
   0
VERTEX
   8
0
   6
Continuous
  10
 176.942505
  20
 171.008469
  30
 0.0
   0
VERTEX
   8
0
   6
Continuous
  10
 173.074249
  20
 168.246155
  30
 0.0
   0
VERTEX
   8
0
   6
Continuous
  10
 174.733566
  20
 163.114532
  30
 0.0
   0
VERTEX
   8
0
   6
Continuous
  10
 178.378738
  20
 159.990097
  30
 0.0
   0
VERTEX
   8
0
   6
Continuous
  10
 185.188400
  20
 156.803345
  30
 0.0
   0
VERTEX
   8
0
   6
Continuous
  10
 189.952148
  20
 156.003952
  30
 0.0
   0
VERTEX
   8
0
   6
Continuous
  10
 193.126282
  20
 156.443069
  30
 0.0
   0
VERTEX
   8
0
   6
Continuous
  10
 193.126282
  20
 155.364151
  30
 0.0
   0
VERTEX
   8
0
   6
Continuous
  10
 189.204865
  20
 151.173004
  30
 0.0
   0
VERTEX
   8
0
   6
Continuous
  10
 184.882034
  20
 148.924942
  30
 0.0
   0
VERTEX
   8
0
   6
Continuous
  10
 184.328735
  20
 145.915070
  30
 0.0
   0
VERTEX
   8
0
   6
Continuous
  10
 186.502106
  20
 142.499786
  30
 0.0
   0
VERTEX
   8
0
   6
Continuous
  10
 192.360214
  20
 139.204849
  30
 0.0
   0
VERTEX
   8
0
   6
Continuous
  10
 199.599777
  20
 137.022552
  30
 0.0
   0
VERTEX
   8
0
   6
Continuous
  10
 208.969681
  20
 136.074066
  30
 0.0
   0
VERTEX
   8
0
   6
Continuous
  10
 207.613815
  20
 132.949677
  30
 0.0
   0
VERTEX
   8
0
   6
Continuous
  10
 205.106232
  20
 132.081665
  30
 0.0
   0
VERTEX
   8
0
   6
Continuous
  10
 204.263351
  20
 130.510818
  30
 0.0
   0
VERTEX
   8
0
   6
Continuous
  10
 204.859955
  20
 128.300644
  30
 0.0
   0
VERTEX
   8
0
   6
Continuous
  10
 207.611206
  20
 124.370293
  30
 0.0
   0
VERTEX
   8
0
   6
Continuous
  10
 212.007339
  20
 121.917702
  30
 0.0
   0
VERTEX
   8
0
   6
Continuous
  10
 216.163788
  20
 120.185143
  30
 0.0
   0
VERTEX
   8
0
   6
Continuous
  10
 222.008179
  20
 119.578224
  30
 0.0
   0
VERTEX
   8
0
   6
Continuous
  10
 221.101089
  20
 116.363617
  30
 0.0
   0
VERTEX
   8
0
   6
Continuous
  10
 216.675964
  20
 114.408325
  30
 0.0
   0
VERTEX
   8
0
   6
Continuous
  10
 216.162750
  20
 110.815971
  30
 0.0
   0
VERTEX
   8
0
   6
Continuous
  10
 217.627258
  20
 107.059975
  30
 0.0
   0
VERTEX
   8
0
   6
Continuous
  10
 222.796509
  20
 103.036644
  30
 0.0
   0
VERTEX
   8
0
   6
Continuous
  10
 227.924744
  20
 99.595314
  30
 0.0
   0
VERTEX
   8
0
   6
Continuous
  10
 234.545120
  20
 96.620926
  30
 0.0
   0
VERTEX
   8
0
   6
Continuous
  10
 229.809479
  20
 94.944763
  30
 0.0
   0
VERTEX
   8
0
   6
Continuous
  10
 225.759613
  20
 93.370483
  30
 0.0
   0
VERTEX
   8
0
   6
Continuous
  10
 226.809280
  20
 90.316910
  30
 0.0
   0
VERTEX
   8
0
   6
Continuous
  10
 230.220779
  20
 87.691635
  30
 0.0
   0
VERTEX
   8
0
   6
Continuous
  10
 236.822449
  20
 85.234505
  30
 0.0
   0
VERTEX
   8
0
   6
Continuous
  10
 244.221741
  20
 83.013718
  30
 0.0
   0
VERTEX
   8
0
   6
Continuous
  10
 251.222748
  20
 81.933319
  30
 0.0
   0
VERTEX
   8
0
   6
Continuous
  10
 247.395828
  20
 78.653099
  30
 0.0
   0
VERTEX
   8
0
   6
Continuous
  10
 240.917542
  20
 75.413956
  30
 0.0
   0
VERTEX
   8
0
   6
Continuous
  10
 242.054916
  20
 72.105194
  30
 0.0
   0
VERTEX
   8
0
   6
Continuous
  10
 245.476471
  20
 70.152328
  30
 0.0
   0
VERTEX
   8
0
   6
Continuous
  10
 243.773300
  20
 68.449165
  30
 0.0
   0
VERTEX
   8
0
   6
Continuous
  10
 238.306747
  20
 67.237236
  30
 0.0
   0
VERTEX
   8
0
   6
Continuous
  10
 229.639648
  20
 68.865921
  30
 0.0
   0
VERTEX
   8
0
   6
Continuous
  10
 224.414886
  20
 71.748032
  30
 0.0
   0
VERTEX
   8
0
   6
Continuous
  10
 221.112823
  20
 73.061485
  30
 0.0
   0
VERTEX
   8
0
   6
Continuous
  10
 218.327560
  20
 71.324295
  30
 0.0
   0
VERTEX
   8
0
   6
Continuous
  10
 219.006287
  20
 67.057999
  30
 0.0
   0
VERTEX
   8
0
   6
Continuous
  10
 222.080734
  20
 64.558937
  30
 0.0
   0
VERTEX
   8
0
   6
Continuous
  10
 227.231354
  20
 63.985462
  30
 0.0
   0
VERTEX
   8
0
   6
Continuous
  10
 226.572723
  20
 63.116688
  30
 0.0
   0
VERTEX
   8
0
   6
Continuous
  10
 218.480850
  20
 61.498310
  30
 0.0
   0
VERTEX
   8
0
   6
Continuous
  10
 209.705246
  20
 61.498310
  30
 0.0
   0
VERTEX
   8
0
   6
Continuous
  10
 204.317764
  20
 62.381649
  30
 0.0
   0
VERTEX
   8
0
   6
Continuous
  10
 200.233887
  20
 63.822830
  30
 0.0
   0
VERTEX
   8
0
   6
Continuous
  10
 194.744659
  20
 66.353439
  30
 0.0
   0
VERTEX
   8
0
   6
Continuous
  10
 187.925385
  20
 68.957626
  30
 0.0
   0
VERTEX
   8
0
   6
Continuous
  10
 180.718719
  20
 70.669113
  30
 0.0
   0
VERTEX
   8
0
   6
Continuous
  10
 172.795044
  20
 70.387695
  30
 0.0
   0
VERTEX
   8
0
   6
Continuous
  10
 168.159912
  20
 67.437340
  30
 0.0
   0
VERTEX
   8
0
   6
Continuous
  10
 167.327316
  20
 62.798721
  30
 0.0
   0
VERTEX
   8
0
   6
Continuous
  10
 164.299454
  20
 62.941933
  30
 0.0
   0
VERTEX
   8
0
   6
Continuous
  10
 157.460999
  20
 65.279182
  30
 0.0
   0
VERTEX
   8
0
   6
Continuous
  10
 155.500366
  20
 64.918770
  30
 0.0
   0
VERTEX
   8
0
   6
Continuous
  10
 149.934143
  20
 61.366032
  30
 0.0
   0
VERTEX
   8
0
   6
Continuous
  10
 145.655243
  20
 62.218655
  30
 0.0
   0
VERTEX
   8
0
   6
Continuous
  10
 139.306396
  20
 66.428215
  30
 0.0
   0
VERTEX
   8
0
   6
Continuous
  10
 134.204590
  20
 66.087189
  30
 0.0
   0
VERTEX
   8
0
   6
Continuous
  10
 134.583252
  20
 60.422218
  30
 0.0
   0
VERTEX
   8
0
   6
Continuous
  10
 136.403473
  20
 56.050587
  30
 0.0
   0
VERTEX
   8
0
   6
Continuous
  10
 139.559723
  20
 52.327511
  30
 0.0
   0
VERTEX
   8
0
   6
Continuous
  10
 171.727753
  20
 52.327511
  30
 0.0
   0
VERTEX
   8
0
   6
Continuous
  10
 173.540375
  20
 51.307907
  30
 0.0
   0
VERTEX
   8
0
   6
Continuous
  10
 170.050781
  20
 48.887707
  30
 0.0
   0
VERTEX
   8
0
   6
Continuous
  10
 166.220398
  20
 45.231441
  30
 0.0
   0
VERTEX
   8
0
   6
Continuous
  10
 163.260971
  20
 41.042343
  30
 0.0
   0
VERTEX
   8
0
   6
Continuous
  10
 160.375656
  20
 35.863255
  30
 0.0
   0
VERTEX
   8
0
   6
Continuous
  10
 157.972397
  20
 29.331350
  30
 0.0
   0
VERTEX
   8
0
   6
Continuous
  10
 156.982529
  20
 23.736191
  30
 0.0
   0
VERTEX
   8
0
   6
Continuous
  10
 157.726242
  20
 15.903246
  30
 0.0
   0
VERTEX
   8
0
   6
Continuous
  10
 159.021790
  20
 11.615549
  30
 0.0
   0
VERTEX
   8
0
   6
Continuous
  10
 161.454178
  20
 7.276190
  30
 0.0
   0
VERTEX
   8
0
   6
Continuous
  10
 166.542175
  20
 6.876066
  30
 0.0
   0
VERTEX
   8
0
   6
Continuous
  10
 166.756256
  20
 3.236753
  30
 0.0
   0
VERTEX
   8
0
   6
Continuous
  10
 89.550171
  20
 3.236753
  30
 0.0
   0
VERTEX
   8
0
   6
Continuous
  10
 89.550171
  20
 6.865048
  30
 0.0
   0
VERTEX
   8
0
   6
Continuous
  10
 94.250961
  20
 7.092506
  30
 0.0
   0
VERTEX
   8
0
   6
Continuous
  10
 95.466759
  20
 8.853533
  30
 0.0
   0
VERTEX
   8
0
   6
Continuous
  10
 97.763443
  20
 13.882493
  30
 0.0
   0
VERTEX
   8
0
   6
Continuous
  10
 98.803734
  20
 18.937628
  30
 0.0
   0
VERTEX
   8
0
   6
Continuous
  10
 98.533943
  20
 26.678699
  30
 0.0
   0
VERTEX
   8
0
   6
Continuous
  10
 96.609619
  20
 33.267326
  30
 0.0
   0
VERTEX
   8
0
   6
Continuous
  10
 94.629608
  20
 38.024849
  30
 0.0
   0
VERTEX
   8
0
   6
Continuous
  10
 90.762260
  20
 43.878387
  30
 0.0
   0
VERTEX
   8
0
   6
Continuous
  10
 87.239380
  20
 48.185509
  30
 0.0
   0
VERTEX
   8
0
   6
Continuous
  10
 83.929283
  20
 49.998180
  30
 0.0
   0
VERTEX
   8
0
   6
Continuous
  10
 83.501099
  20
 52.327511
  30
 0.0
   0
VERTEX
   8
0
   6
Continuous
  10
 111.859787
  20
 52.327511
  30
 0.0
   0
VERTEX
   8
0
   6
Continuous
  10
 116.515289
  20
 53.296959
  30
 0.0
   0
VERTEX
   8
0
   6
Continuous
  10
 119.805328
  20
 58.248569
  30
 0.0
   0
VERTEX
   8
0
   6
Continuous
  10
 121.046410
  20
 63.846626
  30
 0.0
   0
VERTEX
   8
0
   6
Continuous
  10
 119.995300
  20
 67.974457
  30
 0.0
   0
VERTEX
   8
0
   6
Continuous
  10
 117.201897
  20
 68.189331
  30
 0.0
   0
VERTEX
   8
0
   6
Continuous
  10
 109.589851
  20
 64.685143
  30
 0.0
   0
VERTEX
   8
0
   6
Continuous
  10
 106.681374
  20
 65.100639
  30
 0.0
   0
VERTEX
   8
0
   6
Continuous
  10
 102.589485
  20
 67.669548
  30
 0.0
   0
VERTEX
   8
0
   6
Continuous
  10
 99.040688
  20
 68.138252
  30
 0.0
   0
VERTEX
   8
0
   6
Continuous
  10
 95.212776
  20
 66.787399
  30
 0.0
   0
VERTEX
   8
0
   6
Continuous
  10
 87.971046
  20
 63.024555
  30
 0.0
   0
VERTEX
   8
0
   6
Continuous
  10
 83.616127
  20
 62.577229
  30
 0.0
   0
VERTEX
   8
0
   6
Continuous
  10
 84.204247
  20
 63.950207
  30
 0.0
   0
VERTEX
   8
0
   6
Continuous
  10
 82.116219
  20
 69.305382
  30
 0.0
   0
VERTEX
   8
0
   6
Continuous
  10
 76.884232
  20
 69.716835
  30
 0.0
   0
VERTEX
   8
0
   6
Continuous
  10
 73.366409
  20
 66.892899
  30
 0.0
   0
VERTEX
   8
0
   6
Continuous
  10
 68.566017
  20
 64.137665
  30
 0.0
   0
VERTEX
   8
0
   6
Continuous
  10
 64.971359
  20
 64.549202
  30
 0.0
   0
VERTEX
   8
0
   6
Continuous
  10
 64.383072
  20
 69.921700
  30
 0.0
   0
VERTEX
   8
0
   6
Continuous
  10
 60.560894
  20
 72.387627
  30
 0.0
   0
VERTEX
   8
0
   6
Continuous
  10
 56.612095
  20
 72.536072
  30
 0.0
   0
VERTEX
   8
0
   6
Continuous
  10
 49.385960
  20
 68.574539
  30
 0.0
   0
VERTEX
   8
0
   6
Continuous
  10
 41.538326
  20
 66.892899
  30
 0.0
   0
VERTEX
   8
0
   6
Continuous
  10
 35.458618
  20
 66.892899
  30
 0.0
   0
VERTEX
   8
0
   6
Continuous
  10
 34.490196
  20
 72.151924
  30
 0.0
   0
VERTEX
   8
0
   6
Continuous
  10
 32.048645
  20
 73.975906
  30
 0.0
   0
VERTEX
   8
0
   6
Continuous
  10
 29.216810
  20
 73.571365
  30
 0.0
   0
VERTEX
   8
0
   6
Continuous
  10
 24.622862
  20
 71.473335
  30
 0.0
   0
VERTEX
   8
0
   6
Continuous
  10
 20.499437
  20
 70.669113
  30
 0.0
   0
VERTEX
   8
0
   6
Continuous
  10
 14.339605
  20
 71.044273
  30
 0.0
   0
VERTEX
   8
0
   6
Continuous
  10
 9.701335
  20
 72.681091
  30
 0.0
   0
VERTEX
   8
0
   6
Continuous
  10
 7.306096
  20
 74.905251
  30
 0.0
   0
SEQEND
   0
POLYLINE
   8
0
  66
 1
   6
Continuous
  10
 0.0
  20
 0.0
  30
 0.0
  70
 128
   0
VERTEX
   8
0
   6
Continuous
  10
 119.551033
  20
 249.525803
  30
 0.0
   0
VERTEX
   8
0
   6
Continuous
  10
 121.461060
  20
 255.043655
  30
 0.0
   0
VERTEX
   8
0
   6
Continuous
  10
 127.961990
  20
 255.236755
  30
 0.0
   0
VERTEX
   8
0
   6
Continuous
  10
 124.075539
  20
 252.466751
  30
 0.0
   0
VERTEX
   8
0
   6
Continuous
  10
 119.551033
  20
 249.525803
  30
 0.0
   0
SEQEND
   0
POLYLINE
   8
0
  66
 1
   6
Continuous
  10
 0.0
  20
 0.0
  30
 0.0
  70
 128
   0
VERTEX
   8
0
   6
Continuous
  10
 128.444138
  20
 255.017044
  30
 0.0
   0
VERTEX
   8
0
   6
Continuous
  10
 134.708145
  20
 255.233063
  30
 0.0
   0
VERTEX
   8
0
   6
Continuous
  10
 135.946243
  20
 252.523575
  30
 0.0
   0
VERTEX
   8
0
   6
Continuous
  10
 136.276627
  20
 249.959183
  30
 0.0
   0
VERTEX
   8
0
   6
Continuous
  10
 134.325256
  20
 251.387833
  30
 0.0
   0
VERTEX
   8
0
   6
Continuous
  10
 128.444138
  20
 255.017044
  30
 0.0
   0
SEQEND
   0
ENDSEC
   0
EOF
