  0
SECTION
  2
HEADER
  9
$ACADVER
  1
AC1021
  9
$ACADMAINTVER
 70
    25
  9
$DWGCODEPAGE
  3
ANSI_1252
  9
$INSBASE
 10
0.0
 20
0.0
 30
0.0
  9
$EXTMIN
 10
-368.8302
 20
-260.8781
 30
0.0
  9
$EXTMAX
 10
730.9528
 20
-89.8152
 30
0.0
  9
$LIMMIN
 10
0.0
 20
0.0
  9
$LIMMAX
 10
12.0
 20
9.0
  9
$ORTHOMODE
 70
     0
  9
$REGENMODE
 70
     1
  9
$FILLMODE
 70
     1
  9
$QTEXTMODE
 70
     0
  9
$MIRRTEXT
 70
     1
  9
$LTSCALE
 40
1.0
  9
$ATTMODE
 70
     1
  9
$TEXTSIZE
 40
0.2
  9
$TRACEWID
 40
0.05
  9
$TEXTSTYLE
  7
Standard
  9
$CLAYER
  8
0
  9
$CELTYPE
  6
ByLayer
  9
$CECOLOR
 62
   256
  9
$CELTSCALE
 40
1.0
  9
$DISPSILH
 70
     0
  9
$DIMSCALE
 40
1.0
  9
$DIMASZ
 40
0.18
  9
$DIMEXO
 40
0.0625
  9
$DIMDLI
 40
0.38
  9
$DIMRND
 40
0.0
  9
$DIMDLE
 40
0.0
  9
$DIMEXE
 40
0.18
  9
$DIMTP
 40
0.0
  9
$DIMTM
 40
0.0
  9
$DIMTXT
 40
0.18
  9
$DIMCEN
 40
0.09
  9
$DIMTSZ
 40
0.0
  9
$DIMTOL
 70
     0
  9
$DIMLIM
 70
     0
  9
$DIMTIH
 70
     1
  9
$DIMTOH
 70
     1
  9
$DIMSE1
 70
     0
  9
$DIMSE2
 70
     0
  9
$DIMTAD
 70
     0
  9
$DIMZIN
 70
     0
  9
$DIMBLK
  1

  9
$DIMASO
 70
     1
  9
$DIMSHO
 70
     1
  9
$DIMPOST
  1

  9
$DIMAPOST
  1

  9
$DIMALT
 70
     0
  9
$DIMALTD
 70
     2
  9
$DIMALTF
 40
25.4
  9
$DIMLFAC
 40
1.0
  9
$DIMTOFL
 70
     0
  9
$DIMTVP
 40
0.0
  9
$DIMTIX
 70
     0
  9
$DIMSOXD
 70
     0
  9
$DIMSAH
 70
     0
  9
$DIMBLK1
  1

  9
$DIMBLK2
  1

  9
$DIMSTYLE
  2
Standard
  9
$DIMCLRD
 70
     0
  9
$DIMCLRE
 70
     0
  9
$DIMCLRT
 70
     0
  9
$DIMTFAC
 40
1.0
  9
$DIMGAP
 40
0.09
  9
$DIMJUST
 70
     0
  9
$DIMSD1
 70
     0
  9
$DIMSD2
 70
     0
  9
$DIMTOLJ
 70
     1
  9
$DIMTZIN
 70
     0
  9
$DIMALTZ
 70
     0
  9
$DIMALTTZ
 70
     0
  9
$DIMUPT
 70
     0
  9
$DIMDEC
 70
     4
  9
$DIMTDEC
 70
     4
  9
$DIMALTU
 70
     2
  9
$DIMALTTD
 70
     2
  9
$DIMTXSTY
  7
Standard
  9
$DIMAUNIT
 70
     0
  9
$DIMADEC
 70
     0
  9
$DIMALTRND
 40
0.0
  9
$DIMAZIN
 70
     0
  9
$DIMDSEP
 70
    46
  9
$DIMATFIT
 70
     3
  9
$DIMFRAC
 70
     0
  9
$DIMLDRBLK
  1

  9
$DIMLUNIT
 70
     2
  9
$DIMLWD
 70
    -2
  9
$DIMLWE
 70
    -2
  9
$DIMTMOVE
 70
     0
  9
$DIMFXL
 40
1.0
  9
$DIMFXLON
 70
     0
  9
$DIMJOGANG
 40
0.7853981633974483
  9
$DIMTFILL
 70
     0
  9
$DIMTFILLCLR
 70
     0
  9
$DIMARCSYM
 70
     0
  9
$DIMLTYPE
  6

  9
$DIMLTEX1
  6

  9
$DIMLTEX2
  6

  9
$LUNITS
 70
     2
  9
$LUPREC
 70
     4
  9
$SKETCHINC
 40
0.1
  9
$FILLETRAD
 40
0.5
  9
$AUNITS
 70
     0
  9
$AUPREC
 70
     0
  9
$MENU
  1
.
  9
$ELEVATION
 40
0.0
  9
$PELEVATION
 40
0.0
  9
$THICKNESS
 40
0.0
  9
$LIMCHECK
 70
     0
  9
$CHAMFERA
 40
0.5
  9
$CHAMFERB
 40
0.5
  9
$CHAMFERC
 40
1.0
  9
$CHAMFERD
 40
0.0
  9
$SKPOLY
 70
     0
  9
$TDCREATE
 40
2456832.742964827
  9
$TDUCREATE
 40
2456832.659631493
  9
$TDUPDATE
 40
2456832.742964838
  9
$TDUUPDATE
 40
2456832.659631505
  9
$TDINDWG
 40
0.0000000116
  9
$TDUSRTIMER
 40
0.0000000116
  9
$USRTIMER
 70
     1
  9
$ANGBASE
 50
0.0
  9
$ANGDIR
 70
     0
  9
$PDMODE
 70
     0
  9
$PDSIZE
 40
0.0
  9
$PLINEWID
 40
0.0
  9
$SPLFRAME
 70
     0
  9
$SPLINETYPE
 70
     6
  9
$SPLINESEGS
 70
     8
  9
$HANDSEED
  5
90
  9
$SURFTAB1
 70
     6
  9
$SURFTAB2
 70
     6
  9
$SURFTYPE
 70
     6
  9
$SURFU
 70
     6
  9
$SURFV
 70
     6
  9
$UCSBASE
  2

  9
$UCSNAME
  2

  9
$UCSORG
 10
0.0
 20
0.0
 30
0.0
  9
$UCSXDIR
 10
1.0
 20
0.0
 30
0.0
  9
$UCSYDIR
 10
0.0
 20
1.0
 30
0.0
  9
$UCSORTHOREF
  2

  9
$UCSORTHOVIEW
 70
     0
  9
$UCSORGTOP
 10
0.0
 20
0.0
 30
0.0
  9
$UCSORGBOTTOM
 10
0.0
 20
0.0
 30
0.0
  9
$UCSORGLEFT
 10
0.0
 20
0.0
 30
0.0
  9
$UCSORGRIGHT
 10
0.0
 20
0.0
 30
0.0
  9
$UCSORGFRONT
 10
0.0
 20
0.0
 30
0.0
  9
$UCSORGBACK
 10
0.0
 20
0.0
 30
0.0
  9
$PUCSBASE
  2

  9
$PUCSNAME
  2

  9
$PUCSORG
 10
0.0
 20
0.0
 30
0.0
  9
$PUCSXDIR
 10
1.0
 20
0.0
 30
0.0
  9
$PUCSYDIR
 10
0.0
 20
1.0
 30
0.0
  9
$PUCSORTHOREF
  2

  9
$PUCSORTHOVIEW
 70
     0
  9
$PUCSORGTOP
 10
0.0
 20
0.0
 30
0.0
  9
$PUCSORGBOTTOM
 10
0.0
 20
0.0
 30
0.0
  9
$PUCSORGLEFT
 10
0.0
 20
0.0
 30
0.0
  9
$PUCSORGRIGHT
 10
0.0
 20
0.0
 30
0.0
  9
$PUCSORGFRONT
 10
0.0
 20
0.0
 30
0.0
  9
$PUCSORGBACK
 10
0.0
 20
0.0
 30
0.0
  9
$USERI1
 70
     0
  9
$USERI2
 70
     0
  9
$USERI3
 70
     0
  9
$USERI4
 70
     0
  9
$USERI5
 70
     0
  9
$USERR1
 40
0.0
  9
$USERR2
 40
0.0
  9
$USERR3
 40
0.0
  9
$USERR4
 40
0.0
  9
$USERR5
 40
0.0
  9
$WORLDVIEW
 70
     1
  9
$SHADEDGE
 70
     3
  9
$SHADEDIF
 70
    70
  9
$TILEMODE
 70
     1
  9
$MAXACTVP
 70
    64
  9
$PINSBASE
 10
0.0
 20
0.0
 30
0.0
  9
$PLIMCHECK
 70
     0
  9
$PEXTMIN
 10
1.000000000000000E+20
 20
1.000000000000000E+20
 30
1.000000000000000E+20
  9
$PEXTMAX
 10
-1.000000000000000E+20
 20
-1.000000000000000E+20
 30
-1.000000000000000E+20
  9
$PLIMMIN
 10
0.0
 20
0.0
  9
$PLIMMAX
 10
12.0
 20
9.0
  9
$UNITMODE
 70
     0
  9
$VISRETAIN
 70
     1
  9
$PLINEGEN
 70
     0
  9
$PSLTSCALE
 70
     1
  9
$TREEDEPTH
 70
  3020
  9
$CMLSTYLE
  2
Standard
  9
$CMLJUST
 70
     0
  9
$CMLSCALE
 40
1.0
  9
$PROXYGRAPHICS
 70
     1
  9
$MEASUREMENT
 70
     0
  9
$CELWEIGHT
370
    -1
  9
$ENDCAPS
280
     0
  9
$JOINSTYLE
280
     0
  9
$LWDISPLAY
290
     0
  9
$INSUNITS
 70
     4
  9
$HYPERLINKBASE
  1

  9
$STYLESHEET
  1

  9
$XEDIT
290
     1
  9
$CEPSNTYPE
380
     0
  9
$PSTYLEMODE
290
     1
  9
$FINGERPRINTGUID
  2
{1BBE942A-AD85-4C91-AD1D-DFE6E3035C3B}
  9
$VERSIONGUID
  2
{FAEB1C32-E019-11D5-929B-00C0DF256EC4}
  9
$EXTNAMES
290
     1
  9
$PSVPSCALE
 40
0.0
  9
$OLESTARTUP
290
     0
  9
$SORTENTS
280
   127
  9
$INDEXCTL
280
     0
  9
$HIDETEXT
280
     1
  9
$XCLIPFRAME
290
     0
  9
$HALOGAP
280
     0
  9
$OBSCOLOR
 70
   257
  9
$OBSLTYPE
280
     0
  9
$INTERSECTIONDISPLAY
280
     0
  9
$INTERSECTIONCOLOR
 70
   257
  9
$DIMASSOC
280
     2
  9
$PROJECTNAME
  1

  9
$CAMERADISPLAY
290
     0
  9
$LENSLENGTH
 40
50.0
  9
$CAMERAHEIGHT
 40
0.0
  9
$STEPSPERSEC
 40
2.0
  9
$STEPSIZE
 40
6.0
  9
$3DDWFPREC
 40
2.0
  9
$PSOLWIDTH
 40
0.25
  9
$PSOLHEIGHT
 40
4.0
  9
$LOFTANG1
 40
1.570796326794897
  9
$LOFTANG2
 40
1.570796326794897
  9
$LOFTMAG1
 40
0.0
  9
$LOFTMAG2
 40
0.0
  9
$LOFTPARAM
 70
     7
  9
$LOFTNORMALS
280
     1
  9
$LATITUDE
 40
37.795
  9
$LONGITUDE
 40
-122.394
  9
$NORTHDIRECTION
 40
0.0
  9
$TIMEZONE
 70
 -8000
  9
$LIGHTGLYPHDISPLAY
280
     1
  9
$TILEMODELIGHTSYNCH
280
     1
  9
$SOLIDHIST
280
     1
  9
$SHOWHIST
280
     1
  9
$DWFFRAME
280
     2
  9
$DGNFRAME
280
     2
  9
$REALWORLDSCALE
290
     1
  9
$INTERFERECOLOR
 62
   256
  9
$CSHADOW
280
     0
  9
$SHADOWPLANELOCATION
 40
0.0
  0
ENDSEC
  0
SECTION
  2
CLASSES
  0
CLASS
  1
ACDBDICTIONARYWDFLT
  2
AcDbDictionaryWithDefault
  3
ObjectDBX Classes
 90
        0
 91
        4
280
     0
281
     0
  0
CLASS
  1
VISUALSTYLE
  2
AcDbVisualStyle
  3
ObjectDBX Classes
 90
     4095
 91
        4
280
     0
281
     0
  0
CLASS
  1
MATERIAL
  2
AcDbMaterial
  3
ObjectDBX Classes
 90
     1153
 91
        4
280
     0
281
     0
  0
ENDSEC
  0
SECTION
  2
TABLES
  0
TABLE
  2
VPORT
  5
8
330
0
100
AcDbSymbolTable
 70
     1
  0
VPORT
  5
29
330
8
100
AcDbSymbolTableRecord
100
AcDbViewportTableRecord
  2
*Active
 70
     0
 10
0.0
 20
0.0
 11
1.0
 21
1.0
 12
10.42990654205607
 22
4.5
 13
0.0
 23
0.0
 14
0.5
 24
0.5
 15
0.5
 25
0.5
 16
0.0
 26
0.0
 36
1.0
 17
0.0
 27
0.0
 37
0.0
 40
9.0
 41
1.972972972850329
 42
50.0
 43
0.0
 44
0.0
 50
0.0
 51
0.0
 71
     0
 72
   100
 73
     1
 74
     3
 75
     0
 76
     0
 77
     0
 78
     0
281
     0
 65
     1
110
0.0
120
0.0
130
0.0
111
1.0
121
0.0
131
0.0
112
0.0
122
1.0
132
0.0
 79
     0
146
0.0
 60
     3
 61
     5
292
     1
282
     1
141
0.0
142
0.0
 63
   250
  0
ENDTAB
  0
TABLE
  2
LTYPE
  5
5
330
0
100
AcDbSymbolTable
 70
     1
  0
LTYPE
  5
14
330
5
100
AcDbSymbolTableRecord
100
AcDbLinetypeTableRecord
  2
ByBlock
 70
     0
  3

 72
    65
 73
     0
 40
0.0
  0
LTYPE
  5
15
330
5
100
AcDbSymbolTableRecord
100
AcDbLinetypeTableRecord
  2
ByLayer
 70
     0
  3

 72
    65
 73
     0
 40
0.0
  0
LTYPE
  5
16
330
5
100
AcDbSymbolTableRecord
100
AcDbLinetypeTableRecord
  2
Continuous
 70
     0
  3
Solid line
 72
    65
 73
     0
 40
0.0
  0
ENDTAB
  0
TABLE
  2
LAYER
  5
2
330
0
100
AcDbSymbolTable
 70
     2
  0
LAYER
  5
10
330
2
100
AcDbSymbolTableRecord
100
AcDbLayerTableRecord
  2
0
 70
     0
 62
     7
  6
Continuous
370
    -3
390
F
347
3E
  0
LAYER
  5
40
330
2
100
AcDbSymbolTableRecord
100
AcDbLayerTableRecord
  2
Plan 1
 70
     0
 62
     7
  6
Continuous
370
    -3
390
F
347
3E
  0
ENDTAB
  0
TABLE
  2
STYLE
  5
3
330
0
100
AcDbSymbolTable
 70
     1
  0
STYLE
  5
11
330
3
100
AcDbSymbolTableRecord
100
AcDbTextStyleTableRecord
  2
Standard
 70
     0
 40
0.0
 41
1.0
 50
0.0
 71
     0
 42
0.2
  3
txt
  4

  0
ENDTAB
  0
TABLE
  2
VIEW
  5
6
330
0
100
AcDbSymbolTable
 70
     0
  0
ENDTAB
  0
TABLE
  2
UCS
  5
7
330
0
100
AcDbSymbolTable
 70
     0
  0
ENDTAB
  0
TABLE
  2
APPID
  5
9
330
0
100
AcDbSymbolTable
 70
     2
  0
APPID
  5
12
330
9
100
AcDbSymbolTableRecord
100
AcDbRegAppTableRecord
  2
ACAD
 70
     0
  0
APPID
  5
3F
330
9
100
AcDbSymbolTableRecord
100
AcDbRegAppTableRecord
  2
ODA
 70
     0
  0
ENDTAB
  0
TABLE
  2
DIMSTYLE
  5
A
330
0
100
AcDbSymbolTable
 70
     1
100
AcDbDimStyleTable
  0
DIMSTYLE
105
27
330
A
100
AcDbSymbolTableRecord
100
AcDbDimStyleTableRecord
  2
Standard
 70
     0
178
     0
340
11
  0
ENDTAB
  0
TABLE
  2
BLOCK_RECORD
  5
1
330
0
100
AcDbSymbolTable
 70
     1
  0
BLOCK_RECORD
  5
1F
330
1
100
AcDbSymbolTableRecord
100
AcDbBlockTableRecord
  2
*Model_Space
340
22
 70
     0
280
     1
281
     0
  0
BLOCK_RECORD
  5
1B
330
1
100
AcDbSymbolTableRecord
100
AcDbBlockTableRecord
  2
*Paper_Space
340
1E
 70
     0
280
     1
281
     0
  0
BLOCK_RECORD
  5
23
330
1
100
AcDbSymbolTableRecord
100
AcDbBlockTableRecord
  2
*Paper_Space0
340
26
 70
     0
280
     1
281
     0
  0
ENDTAB
  0
ENDSEC
  0
SECTION
  2
BLOCKS
  0
BLOCK
  5
20
330
1F
100
AcDbEntity
  8
0
100
AcDbBlockBegin
  2
*Model_Space
 70
     0
 10
0.0
 20
0.0
 30
0.0
  3
*Model_Space
  1

  0
ENDBLK
  5
21
330
1F
100
AcDbEntity
  8
0
100
AcDbBlockEnd
  0
BLOCK
  5
1C
330
1B
100
AcDbEntity
 67
     1
  8
0
100
AcDbBlockBegin
  2
*Paper_Space
 70
     0
 10
0.0
 20
0.0
 30
0.0
  3
*Paper_Space
  1

  0
ENDBLK
  5
1D
330
1B
100
AcDbEntity
 67
     1
  8
0
100
AcDbBlockEnd
  0
BLOCK
  5
24
330
23
100
AcDbEntity
  8
0
100
AcDbBlockBegin
  2
*Paper_Space0
 70
     0
 10
0.0
 20
0.0
 30
0.0
  3
*Paper_Space0
  1

  0
ENDBLK
  5
25
330
23
100
AcDbEntity
  8
0
100
AcDbBlockEnd
  0
ENDSEC
  0
SECTION
  2
ENTITIES
  0
SPLINE
  5
41
330
1F
100
AcDbEntity
  8
Plan 1
 62
     1
370
    20
100
AcDbSpline
210
0.0
220
0.0
230
1.0
 70
     8
 71
     3
 72
    44
 73
    40
 74
     0
 42
0.0000000001
 43
0.0000000001
 40
0.0
 40
0.0
 40
0.0
 40
0.0
 40
0.0909090909090909
 40
0.0909090909090909
 40
0.0909090909090909
 40
0.0909090909090909
 40
0.1818181818181818
 40
0.1818181818181818
 40
0.1818181818181818
 40
0.1818181818181818
 40
0.2727272727272727
 40
0.2727272727272727
 40
0.2727272727272727
 40
0.2727272727272727
 40
0.3636363636363636
 40
0.3636363636363636
 40
0.3636363636363636
 40
0.3636363636363636
 40
0.4545454545454545
 40
0.4545454545454545
 40
0.4545454545454545
 40
0.4545454545454545
 40
0.5454545454545454
 40
0.5454545454545454
 40
0.5454545454545454
 40
0.5454545454545454
 40
0.6363636363636364
 40
0.6363636363636364
 40
0.6363636363636364
 40
0.6363636363636364
 40
0.7272727272727273
 40
0.7272727272727273
 40
0.7272727272727273
 40
0.7272727272727273
 40
0.8181818181818182
 40
0.8181818181818182
 40
0.8181818181818182
 40
0.8181818181818182
 40
1.0
 40
1.0
 40
1.0
 40
1.0
 10
-338.3844
 20
-123.0259
 30
0.0
 10
-340.4697
 20
-131.265
 30
0.0
 10
-338.2442
 20
-136.2866
 30
0.0
 10
-338.1873
 20
-139.7719
 30
0.0
 10
-338.1873
 20
-139.7719
 30
0.0
 10
-340.2122
 20
-138.6602
 30
0.0
 10
-341.0714
 20
-134.4638
 30
0.0
 10
-341.4963
 20
-132.2016
 30
0.0
 10
-341.4963
 20
-132.2016
 30
0.0
 10
-341.3916
 20
-133.491
 30
0.0
 10
-342.9475
 20
-140.8283
 30
0.0
 10
-340.7006
 20
-147.4389
 30
0.0
 10
-340.7006
 20
-147.4389
 30
0.0
 10
-338.2232
 20
-154.7276
 30
0.0
 10
-327.0973
 20
-153.726
 30
0.0
 10
-334.0753
 20
-132.6006
 30
0.0
 10
-334.0753
 20
-132.6006
 30
0.0
 10
-336.9023
 20
-124.0419
 30
0.0
 10
-335.9627
 20
-124.8194
 30
0.0
 10
-336.668
 20
-118.2573
 30
0.0
 10
-336.668
 20
-118.2573
 30
0.0
 10
-336.9518
 20
-118.9987
 30
0.0
 10
-337.4691
 20
-119.8458
 30
0.0
 10
-337.8838
 20
-121.0679
 30
0.0
 10
-337.8838
 20
-121.0679
 30
0.0
 10
-341.255
 20
-120.0334
 30
0.0
 10
-336.635
 20
-110.701
 30
0.0
 10
-337.1211
 20
-102.9493
 30
0.0
 10
-337.1211
 20
-102.9493
 30
0.0
 10
-330.0179
 20
-105.2875
 30
0.0
 10
-334.6415
 20
-125.7408
 30
0.0
 10
-332.968
 20
-129.1346
 30
0.0
 10
-332.968
 20
-129.1346
 30
0.0
 10
-332.4798
 20
-126.6528
 30
0.0
 10
-332.2763
 20
-124.4539
 30
0.0
 10
-332.1043
 20
-121.8466
 30
0.0
 10
-332.1043
 20
-121.8466
 30
0.0
 10
-329.1552
 20
-131.0409
 30
0.0
 10
-324.5744
 20
-145.3857
 30
0.0
 10
-329.974
 20
-152.8885
 30
0.0
  0
SPLINE
  5
42
330
1F
100
AcDbEntity
  8
Plan 1
 62
     1
370
    20
100
AcDbSpline
210
0.0
220
0.0
230
1.0
 70
     8
 71
     3
 72
    28
 73
    24
 74
     0
 42
0.0000000001
 43
0.0000000001
 40
0.0
 40
0.0
 40
0.0
 40
0.0
 40
0.1428571428571428
 40
0.1428571428571428
 40
0.1428571428571428
 40
0.1428571428571428
 40
0.2857142857142857
 40
0.2857142857142857
 40
0.2857142857142857
 40
0.2857142857142857
 40
0.4285714285714285
 40
0.4285714285714285
 40
0.4285714285714285
 40
0.4285714285714285
 40
0.5714285714285714
 40
0.5714285714285714
 40
0.5714285714285714
 40
0.5714285714285714
 40
0.7142857142857143
 40
0.7142857142857143
 40
0.7142857142857143
 40
0.7142857142857143
 40
1.0
 40
1.0
 40
1.0
 40
1.0
 10
-335.9422
 20
-155.689
 30
0.0
 10
-340.9562
 20
-155.0999
 30
0.0
 10
-342.214
 20
-150.0189
 30
0.0
 10
-343.0817
 20
-148.917
 30
0.0
 10
-343.0817
 20
-148.917
 30
0.0
 10
-343.1326
 20
-150.8316
 30
0.0
 10
-342.3811
 20
-153.0911
 30
0.0
 10
-341.9263
 20
-154.5722
 30
0.0
 10
-341.9263
 20
-154.5722
 30
0.0
 10
-351.1965
 20
-146.1705
 30
0.0
 10
-347.1912
 20
-117.8307
 30
0.0
 10
-341.7318
 20
-115.107
 30
0.0
 10
-341.7318
 20
-115.107
 30
0.0
 10
-341.841
 20
-117.2964
 30
0.0
 10
-342.6332
 20
-124.0068
 30
0.0
 10
-341.7909
 20
-125.6273
 30
0.0
 10
-341.7909
 20
-125.6273
 30
0.0
 10
-341.5953
 20
-122.2615
 30
0.0
 10
-340.7406
 20
-119.5752
 30
0.0
 10
-339.7897
 20
-116.939
 30
0.0
 10
-339.7897
 20
-116.939
 30
0.0
 10
-339.9894
 20
-119.8935
 30
0.0
 10
-339.4781
 20
-121.7816
 30
0.0
 10
-338.4001
 20
-122.8196
 30
0.0
  0
SPLINE
  5
43
330
1F
100
AcDbEntity
  8
Plan 1
 62
     1
370
    20
100
AcDbSpline
210
0.0
220
0.0
230
1.0
 70
     8
 71
     3
 72
    28
 73
    24
 74
     0
 42
0.0000000001
 43
0.0000000001
 40
0.0
 40
0.0
 40
0.0
 40
0.0
 40
0.1428571428571428
 40
0.1428571428571428
 40
0.1428571428571428
 40
0.1428571428571428
 40
0.2857142857142857
 40
0.2857142857142857
 40
0.2857142857142857
 40
0.2857142857142857
 40
0.4285714285714285
 40
0.4285714285714285
 40
0.4285714285714285
 40
0.4285714285714285
 40
0.5714285714285714
 40
0.5714285714285714
 40
0.5714285714285714
 40
0.5714285714285714
 40
0.7142857142857143
 40
0.7142857142857143
 40
0.7142857142857143
 40
0.7142857142857143
 40
1.0
 40
1.0
 40
1.0
 40
1.0
 10
-335.9422
 20
-155.689
 30
0.0
 10
-345.1408
 20
-159.661
 30
0.0
 10
-353.5167
 20
-164.2356
 30
0.0
 10
-354.1545
 20
-164.7383
 30
0.0
 10
-354.1545
 20
-164.7383
 30
0.0
 10
-357.336
 20
-167.2459
 30
0.0
 10
-358.998
 20
-178.5267
 30
0.0
 10
-354.1545
 20
-178.5267
 30
0.0
 10
-354.1545
 20
-178.5267
 30
0.0
 10
-351.9472
 20
-178.5267
 30
0.0
 10
-346.2366
 20
-175.5722
 30
0.0
 10
-343.8522
 20
-174.9365
 30
0.0
 10
-343.8522
 20
-174.9365
 30
0.0
 10
-350.9488
 20
-192.2575
 30
0.0
 10
-363.5389
 20
-226.073
 30
0.0
 10
-367.4226
 20
-238.7275
 30
0.0
 10
-367.4226
 20
-238.7275
 30
0.0
 10
-368.8302
 20
-243.3142
 30
0.0
 10
-364.5062
 20
-246.7075
 30
0.0
 10
-360.6718
 20
-247.728
 30
0.0
 10
-360.6718
 20
-247.728
 30
0.0
 10
-358.3227
 20
-248.3532
 30
0.0
 10
-359.112
 20
-252.3402
 30
0.0
 10
-359.112
 20
-256.6523
 30
0.0
  0
SPLINE
  5
44
330
1F
100
AcDbEntity
  8
Plan 1
 62
     1
370
    20
100
AcDbSpline
210
0.0
220
0.0
230
1.0
 70
     8
 71
     3
 72
    24
 73
    20
 74
     0
 42
0.0000000001
 43
0.0000000001
 40
0.0
 40
0.0
 40
0.0
 40
0.0
 40
0.1666666666666667
 40
0.1666666666666667
 40
0.1666666666666667
 40
0.1666666666666667
 40
0.3333333333333333
 40
0.3333333333333333
 40
0.3333333333333333
 40
0.3333333333333333
 40
0.5
 40
0.5
 40
0.5
 40
0.5
 40
0.6666666666666666
 40
0.6666666666666666
 40
0.6666666666666666
 40
0.6666666666666666
 40
1.0
 40
1.0
 40
1.0
 40
1.0
 10
-329.974
 20
-152.8885
 30
0.0
 10
-324.5223
 20
-150.3188
 30
0.0
 10
-320.9703
 20
-149.0247
 30
0.0
 10
-319.3192
 20
-149.0247
 30
0.0
 10
-319.3192
 20
-149.0247
 30
0.0
 10
-307.0385
 20
-149.0247
 30
0.0
 10
-319.7629
 20
-174.5891
 30
0.0
 10
-323.3517
 20
-186.3055
 30
0.0
 10
-323.3517
 20
-186.3055
 30
0.0
 10
-327.3089
 20
-199.2246
 30
0.0
 10
-335.4805
 20
-231.8765
 30
0.0
 10
-339.7417
 20
-238.5714
 30
0.0
 10
-339.7417
 20
-238.5714
 30
0.0
 10
-343.3861
 20
-244.2973
 30
0.0
 10
-351.112
 20
-246.1674
 30
0.0
 10
-351.112
 20
-248.3636
 30
0.0
 10
-351.112
 20
-248.3636
 30
0.0
 10
-351.112
 20
-248.3636
 30
0.0
 10
-351.112
 20
-256.6523
 30
0.0
 10
-351.112
 20
-256.6523
 30
0.0
  0
SPLINE
  5
45
330
1F
100
AcDbEntity
  8
Plan 1
 62
     1
370
     9
100
AcDbSpline
210
0.0
220
0.0
230
1.0
 70
     8
 71
     3
 72
    32
 73
    28
 74
     0
 42
0.0000000001
 43
0.0000000001
 40
0.0
 40
0.0
 40
0.0
 40
0.0
 40
0.125
 40
0.125
 40
0.125
 40
0.125
 40
0.25
 40
0.25
 40
0.25
 40
0.25
 40
0.375
 40
0.375
 40
0.375
 40
0.375
 40
0.5
 40
0.5
 40
0.5
 40
0.5
 40
0.625
 40
0.625
 40
0.625
 40
0.625
 40
0.75
 40
0.75
 40
0.75
 40
0.75
 40
1.0
 40
1.0
 40
1.0
 40
1.0
 10
-237.8216
 20
-148.066
 30
0.0
 10
-261.721
 20
-153.5201
 30
0.0
 10
-266.5678
 20
-178.4957
 30
0.0
 10
-256.5948
 20
-189.2713
 30
0.0
 10
-256.5948
 20
-189.2713
 30
0.0
 10
-254.2289
 20
-191.7994
 30
0.0
 10
-242.8584
 20
-198.0849
 30
0.0
 10
-242.8584
 20
-192.5493
 30
0.0
 10
-242.8584
 20
-192.5493
 30
0.0
 10
-242.8584
 20
-191.8612
 30
0.0
 10
-249.1677
 20
-175.0901
 30
0.0
 10
-239.5804
 20
-161.3042
 30
0.0
 10
-239.5804
 20
-161.3042
 30
0.0
 10
-223.8776
 20
-169.082
 30
0.0
 10
-235.6911
 20
-196.0621
 30
0.0
 10
-246.1364
 20
-209.3816
 30
0.0
 10
-246.1364
 20
-209.3816
 30
0.0
 10
-249.6974
 20
-213.9224
 30
0.0
 10
-267.2613
 20
-235.921
 30
0.0
 10
-267.2613
 20
-238.1292
 30
0.0
 10
-267.2613
 20
-238.1292
 30
0.0
 10
-267.2613
 20
-248.2293
 30
0.0
 10
-242.575
 20
-245.9944
 30
0.0
 10
-242.575
 20
-250.2798
 30
0.0
 10
-242.575
 20
-250.2798
 30
0.0
 10
-242.575
 20
-250.2798
 30
0.0
 10
-242.575
 20
-257.0832
 30
0.0
 10
-242.575
 20
-257.0832
 30
0.0
  0
SPLINE
  5
46
330
1F
100
AcDbEntity
  8
Plan 1
 62
     1
370
     9
100
AcDbSpline
210
0.0
220
0.0
230
1.0
 70
     8
 71
     3
 72
    24
 73
    20
 74
     0
 42
0.0000000001
 43
0.0000000001
 40
0.0
 40
0.0
 40
0.0
 40
0.0
 40
0.1666666666666667
 40
0.1666666666666667
 40
0.1666666666666667
 40
0.1666666666666667
 40
0.3333333333333333
 40
0.3333333333333333
 40
0.3333333333333333
 40
0.3333333333333333
 40
0.5
 40
0.5
 40
0.5
 40
0.5
 40
0.6666666666666666
 40
0.6666666666666666
 40
0.6666666666666666
 40
0.6666666666666666
 40
1.0
 40
1.0
 40
1.0
 40
1.0
 10
-229.5706
 20
-147.1264
 30
0.0
 10
-216.3408
 20
-147.0368
 30
0.0
 10
-204.9792
 20
-156.4011
 30
0.0
 10
-204.9792
 20
-169.2911
 30
0.0
 10
-204.9792
 20
-169.2911
 30
0.0
 10
-204.9792
 20
-186.7786
 30
0.0
 10
-225.6944
 20
-209.5116
 30
0.0
 10
-237.9154
 20
-223.6383
 30
0.0
 10
-237.9154
 20
-223.6383
 30
0.0
 10
-216.6877
 20
-229.8517
 30
0.0
 10
-197.4233
 20
-211.6315
 30
0.0
 10
-209.2198
 20
-230.9748
 30
0.0
 10
-209.2198
 20
-230.9748
 30
0.0
 10
-213.7822
 20
-238.4559
 30
0.0
 10
-218.5261
 20
-243.9411
 30
0.0
 10
-226.6765
 20
-246.4803
 30
0.0
 10
-226.6765
 20
-246.4803
 30
0.0
 10
-235.1473
 20
-249.1193
 30
0.0
 10
-234.575
 20
-245.4683
 30
0.0
 10
-234.575
 20
-257.0832
 30
0.0
  0
SPLINE
  5
47
330
1F
100
AcDbEntity
  8
Plan 1
 62
     1
370
     9
100
AcDbSpline
210
0.0
220
0.0
230
1.0
 70
     8
 71
     3
 72
    44
 73
    40
 74
     0
 42
0.0000000001
 43
0.0000000001
 40
0.0
 40
0.0
 40
0.0
 40
0.0
 40
0.0909090909090909
 40
0.0909090909090909
 40
0.0909090909090909
 40
0.0909090909090909
 40
0.1818181818181818
 40
0.1818181818181818
 40
0.1818181818181818
 40
0.1818181818181818
 40
0.2727272727272727
 40
0.2727272727272727
 40
0.2727272727272727
 40
0.2727272727272727
 40
0.3636363636363636
 40
0.3636363636363636
 40
0.3636363636363636
 40
0.3636363636363636
 40
0.4545454545454545
 40
0.4545454545454545
 40
0.4545454545454545
 40
0.4545454545454545
 40
0.5454545454545454
 40
0.5454545454545454
 40
0.5454545454545454
 40
0.5454545454545454
 40
0.6363636363636364
 40
0.6363636363636364
 40
0.6363636363636364
 40
0.6363636363636364
 40
0.7272727272727273
 40
0.7272727272727273
 40
0.7272727272727273
 40
0.7272727272727273
 40
0.8181818181818182
 40
0.8181818181818182
 40
0.8181818181818182
 40
0.8181818181818182
 40
1.0
 40
1.0
 40
1.0
 40
1.0
 10
-235.1848
 20
-112.1747
 30
0.0
 10
-231.5409
 20
-120.9641
 30
0.0
 10
-233.1932
 20
-126.8873
 30
0.0
 10
-232.6921
 20
-130.7576
 30
0.0
 10
-232.6921
 20
-130.7576
 30
0.0
 10
-230.6289
 20
-129.1982
 30
0.0
 10
-230.3565
 20
-124.4104
 30
0.0
 10
-230.252
 20
-121.8355
 30
0.0
 10
-230.252
 20
-121.8355
 30
0.0
 10
-230.1593
 20
-123.2809
 30
0.0
 10
-227.2478
 20
-131.1574
 30
0.0
 10
-228.6666
 20
-138.844
 30
0.0
 10
-228.6666
 20
-138.844
 30
0.0
 10
-230.2309
 20
-147.3194
 30
0.0
 10
-241.6598
 20
-150.4981
 30
0.0
 10
-237.3499
 20
-125.966
 30
0.0
 10
-237.3499
 20
-125.966
 30
0.0
 10
-235.6039
 20
-116.0273
 30
0.0
 10
-237.5771
 20
-114.5536
 30
0.0
 10
-237.8582
 20
-107.1701
 30
0.0
 10
-237.8582
 20
-107.1701
 30
0.0
 10
-237.4238
 20
-107.9453
 30
0.0
 10
-236.7136
 20
-108.8
 30
0.0
 10
-236.0564
 20
-110.0867
 30
0.0
 10
-236.0564
 20
-110.0867
 30
0.0
 10
-232.4893
 20
-108.3949
 30
0.0
 10
-239.1182
 20
-98.8046
 30
0.0
 10
-239.8345
 20
-90.1387
 30
0.0
 10
-239.8345
 20
-90.1387
 30
0.0
 10
-247.3248
 20
-93.8788
 30
0.0
 10
-238.8917
 20
-115.788
 30
0.0
 10
-240.1961
 20
-119.8187
 30
0.0
 10
-240.1961
 20
-119.8187
 30
0.0
 10
-241.1387
 20
-117.1484
 30
0.0
 10
-241.72
 20
-114.7456
 30
0.0
 10
-242.3328
 20
-111.8849
 30
0.0
 10
-242.3328
 20
-111.8849
 30
0.0
 10
-243.9891
 20
-121.8148
 30
0.0
 10
-247.3673
 20
-142.6224
 30
0.0
 10
-237.8234
 20
-148.0664
 30
0.0
  0
SPLINE
  5
48
330
1F
100
AcDbEntity
  8
Plan 1
 62
     1
370
     9
100
AcDbSpline
210
0.0
220
0.0
230
1.0
 70
     8
 71
     3
 72
    28
 73
    24
 74
     0
 42
0.0000000001
 43
0.0000000001
 40
0.0
 40
0.0
 40
0.0
 40
0.0
 40
0.1428571428571428
 40
0.1428571428571428
 40
0.1428571428571428
 40
0.1428571428571428
 40
0.2857142857142857
 40
0.2857142857142857
 40
0.2857142857142857
 40
0.2857142857142857
 40
0.4285714285714285
 40
0.4285714285714285
 40
0.4285714285714285
 40
0.4285714285714285
 40
0.5714285714285714
 40
0.5714285714285714
 40
0.5714285714285714
 40
0.5714285714285714
 40
0.7142857142857143
 40
0.7142857142857143
 40
0.7142857142857143
 40
0.7142857142857143
 40
1.0
 40
1.0
 40
1.0
 40
1.0
 10
-229.5703
 20
-147.1268
 30
0.0
 10
-226.6291
 20
-144.5992
 30
0.0
 10
-226.6016
 20
-141.5072
 30
0.0
 10
-225.7896
 20
-140.096
 30
0.0
 10
-225.7896
 20
-140.096
 30
0.0
 10
-225.4233
 20
-142.2087
 30
0.0
 10
-224.62
 20
-143.828
 30
0.0
 10
-224.884
 20
-145.5424
 30
0.0
 10
-224.884
 20
-145.5424
 30
0.0
 10
-215.9748
 20
-134.7342
 30
0.0
 10
-226.2699
 20
-104.9939
 30
0.0
 10
-232.7586
 20
-102.8604
 30
0.0
 10
-232.7586
 20
-102.8604
 30
0.0
 10
-232.2832
 20
-105.268
 30
0.0
 10
-230.3194
 20
-112.5734
 30
0.0
 10
-230.99
 20
-114.505
 30
0.0
 10
-230.99
 20
-114.505
 30
0.0
 10
-231.7515
 20
-110.8082
 30
0.0
 10
-233.1333
 20
-107.9705
 30
0.0
 10
-234.6135
 20
-105.2042
 30
0.0
 10
-234.6135
 20
-105.2042
 30
0.0
 10
-233.9139
 20
-108.4448
 30
0.0
 10
-234.1747
 20
-110.6191
 30
0.0
 10
-235.2008
 20
-111.9436
 30
0.0
  0
SPLINE
  5
49
330
1F
100
AcDbEntity
  8
Plan 1
 62
     1
370
     9
100
AcDbSpline
210
0.0
220
0.0
230
1.0
 70
     8
 71
     3
 72
    44
 73
    40
 74
     0
 42
0.0000000001
 43
0.0000000001
 40
0.0
 40
0.0
 40
0.0
 40
0.0
 40
0.0909090909090909
 40
0.0909090909090909
 40
0.0909090909090909
 40
0.0909090909090909
 40
0.1818181818181818
 40
0.1818181818181818
 40
0.1818181818181818
 40
0.1818181818181818
 40
0.2727272727272727
 40
0.2727272727272727
 40
0.2727272727272727
 40
0.2727272727272727
 40
0.3636363636363636
 40
0.3636363636363636
 40
0.3636363636363636
 40
0.3636363636363636
 40
0.4545454545454545
 40
0.4545454545454545
 40
0.4545454545454545
 40
0.4545454545454545
 40
0.5454545454545454
 40
0.5454545454545454
 40
0.5454545454545454
 40
0.5454545454545454
 40
0.6363636363636364
 40
0.6363636363636364
 40
0.6363636363636364
 40
0.6363636363636364
 40
0.7272727272727273
 40
0.7272727272727273
 40
0.7272727272727273
 40
0.7272727272727273
 40
0.8181818181818182
 40
0.8181818181818182
 40
0.8181818181818182
 40
0.8181818181818182
 40
1.0
 40
1.0
 40
1.0
 40
1.0
 10
-107.2471
 20
-111.8511
 30
0.0
 10
-110.891
 20
-120.6406
 30
0.0
 10
-109.2387
 20
-126.5638
 30
0.0
 10
-109.7398
 20
-130.434
 30
0.0
 10
-109.7398
 20
-130.434
 30
0.0
 10
-111.803
 20
-128.8747
 30
0.0
 10
-112.0754
 20
-124.0869
 30
0.0
 10
-112.1799
 20
-121.5121
 30
0.0
 10
-112.1799
 20
-121.5121
 30
0.0
 10
-112.2727
 20
-122.9574
 30
0.0
 10
-115.1841
 20
-130.8336
 30
0.0
 10
-113.7652
 20
-138.5205
 30
0.0
 10
-113.7652
 20
-138.5205
 30
0.0
 10
-112.2008
 20
-146.9959
 30
0.0
 10
-99.7136
 20
-147.6876
 30
0.0
 10
-104.0236
 20
-123.1554
 30
0.0
 10
-104.0236
 20
-123.1554
 30
0.0
 10
-105.7697
 20
-113.2167
 30
0.0
 10
-104.8547
 20
-114.2301
 30
0.0
 10
-104.5736
 20
-106.8466
 30
0.0
 10
-104.5736
 20
-106.8466
 30
0.0
 10
-105.0081
 20
-107.6218
 30
0.0
 10
-105.7183
 20
-108.4765
 30
0.0
 10
-106.3755
 20
-109.7632
 30
0.0
 10
-106.3755
 20
-109.7632
 30
0.0
 10
-109.9426
 20
-108.0714
 30
0.0
 10
-103.3138
 20
-98.4811
 30
0.0
 10
-102.5973
 20
-89.8152
 30
0.0
 10
-102.5973
 20
-89.8152
 30
0.0
 10
-95.107
 20
-93.5553
 30
0.0
 10
-103.5403
 20
-115.4646
 30
0.0
 10
-102.2359
 20
-119.4951
 30
0.0
 10
-102.2359
 20
-119.4951
 30
0.0
 10
-101.2932
 20
-116.8249
 30
0.0
 10
-100.7118
 20
-114.422
 30
0.0
 10
-100.0991
 20
-111.5614
 30
0.0
 10
-100.0991
 20
-111.5614
 30
0.0
 10
-98.3256
 20
-122.1942
 30
0.0
 10
-95.4951
 20
-139.3261
 30
0.0
 10
-103.0054
 20
-146.5339
 30
0.0
  0
SPLINE
  5
4A
330
1F
100
AcDbEntity
  8
Plan 1
 62
     1
370
     9
100
AcDbSpline
210
0.0
220
0.0
230
1.0
 70
     8
 71
     3
 72
    28
 73
    24
 74
     0
 42
0.0000000001
 43
0.0000000001
 40
0.0
 40
0.0
 40
0.0
 40
0.0
 40
0.1428571428571428
 40
0.1428571428571428
 40
0.1428571428571428
 40
0.1428571428571428
 40
0.2857142857142857
 40
0.2857142857142857
 40
0.2857142857142857
 40
0.2857142857142857
 40
0.4285714285714285
 40
0.4285714285714285
 40
0.4285714285714285
 40
0.4285714285714285
 40
0.5714285714285714
 40
0.5714285714285714
 40
0.5714285714285714
 40
0.5714285714285714
 40
0.7142857142857143
 40
0.7142857142857143
 40
0.7142857142857143
 40
0.7142857142857143
 40
1.0
 40
1.0
 40
1.0
 40
1.0
 10
-112.1492
 20
-147.3512
 30
0.0
 10
-115.7135
 20
-144.9049
 30
0.0
 10
-115.8088
 20
-141.2216
 30
0.0
 10
-116.6422
 20
-139.7724
 30
0.0
 10
-116.6422
 20
-139.7724
 30
0.0
 10
-117.0087
 20
-141.8852
 30
0.0
 10
-116.5419
 20
-144.5099
 30
0.0
 10
-116.2779
 20
-146.2242
 30
0.0
 10
-116.2779
 20
-146.2242
 30
0.0
 10
-125.1871
 20
-135.4162
 30
0.0
 10
-116.1621
 20
-104.6703
 30
0.0
 10
-109.6732
 20
-102.5368
 30
0.0
 10
-109.6732
 20
-102.5368
 30
0.0
 10
-110.1487
 20
-104.9445
 30
0.0
 10
-112.1126
 20
-112.25
 30
0.0
 10
-111.4419
 20
-114.1815
 30
0.0
 10
-111.4419
 20
-114.1815
 30
0.0
 10
-110.6804
 20
-110.4846
 30
0.0
 10
-109.2986
 20
-107.6471
 30
0.0
 10
-107.8184
 20
-104.8807
 30
0.0
 10
-107.8184
 20
-104.8807
 30
0.0
 10
-108.518
 20
-108.1213
 30
0.0
 10
-108.2572
 20
-110.2956
 30
0.0
 10
-107.231
 20
-111.6201
 30
0.0
  0
SPLINE
  5
4B
330
1F
100
AcDbEntity
  8
Plan 1
 62
     1
370
     9
100
AcDbSpline
210
0.0
220
0.0
230
1.0
 70
     8
 71
     3
 72
    32
 73
    28
 74
     0
 42
0.0000000001
 43
0.0000000001
 40
0.0
 40
0.0
 40
0.0
 40
0.0
 40
0.125
 40
0.125
 40
0.125
 40
0.125
 40
0.25
 40
0.25
 40
0.25
 40
0.25
 40
0.375
 40
0.375
 40
0.375
 40
0.375
 40
0.5
 40
0.5
 40
0.5
 40
0.5
 40
0.625
 40
0.625
 40
0.625
 40
0.625
 40
0.75
 40
0.75
 40
0.75
 40
0.75
 40
1.0
 40
1.0
 40
1.0
 40
1.0
 10
-112.1492
 20
-147.3512
 30
0.0
 10
-146.1715
 20
-154.9519
 30
0.0
 10
-138.4575
 20
-184.6144
 30
0.0
 10
-127.0875
 20
-184.6144
 30
0.0
 10
-127.0875
 20
-184.6144
 30
0.0
 10
-127.0875
 20
-184.6144
 30
0.0
 10
-107.2894
 20
-146.1502
 30
0.0
 10
-107.2894
 20
-166.6374
 30
0.0
 10
-107.2894
 20
-166.6374
 30
0.0
 10
-107.2894
 20
-185.8954
 30
0.0
 10
-132.3868
 20
-193.5992
 30
0.0
 10
-118.6324
 20
-196.1395
 30
0.0
 10
-118.6324
 20
-196.1395
 30
0.0
 10
-93.0944
 20
-200.8561
 30
0.0
 10
-117.7356
 20
-237.9731
 30
0.0
 10
-132.0566
 20
-237.9731
 30
0.0
 10
-132.0566
 20
-237.9731
 30
0.0
 10
-143.201
 20
-218.0725
 30
0.0
 10
-116.7834
 20
-203.45
 30
0.0
 10
-127.3997
 20
-203.45
 30
0.0
 10
-127.3997
 20
-203.45
 30
0.0
 10
-162.0296
 20
-203.45
 30
0.0
 10
-167.0677
 20
-256.2217
 30
0.0
 10
-128.4448
 20
-250.517
 30
0.0
 10
-128.4448
 20
-250.517
 30
0.0
 10
-125.3028
 20
-250.0529
 30
0.0
 10
-126.038
 20
-254.5168
 30
0.0
 10
-126.038
 20
-257.5141
 30
0.0
  0
SPLINE
  5
4C
330
1F
100
AcDbEntity
  8
Plan 1
 62
     1
370
     9
100
AcDbSpline
210
0.0
220
0.0
230
1.0
 70
     8
 71
     3
 72
    20
 73
    16
 74
     0
 42
0.0000000001
 43
0.0000000001
 40
0.0
 40
0.0
 40
0.0
 40
0.0
 40
0.2
 40
0.2
 40
0.2
 40
0.2
 40
0.4
 40
0.4
 40
0.4
 40
0.4
 40
0.6
 40
0.6
 40
0.6
 40
0.6
 40
1.0
 40
1.0
 40
1.0
 40
1.0
 10
-103.0054
 20
-146.5339
 30
0.0
 10
-81.9939
 20
-147.4935
 30
0.0
 10
-67.0139
 20
-173.94
 30
0.0
 10
-101.4879
 20
-188.2046
 30
0.0
 10
-101.4879
 20
-188.2046
 30
0.0
 10
-101.4879
 20
-188.2046
 30
0.0
 10
-101.4879
 20
-188.5168
 30
0.0
 10
-101.4879
 20
-188.5168
 30
0.0
 10
-101.4879
 20
-188.5168
 30
0.0
 10
-61.3892
 20
-190.6963
 30
0.0
 10
-84.2279
 20
-230.712
 30
0.0
 10
-113.2991
 20
-245.4917
 30
0.0
 10
-113.2991
 20
-245.4917
 30
0.0
 10
-119.1228
 20
-248.4524
 30
0.0
 10
-118.038
 20
-247.1242
 30
0.0
 10
-118.038
 20
-257.5141
 30
0.0
  0
SPLINE
  5
4D
330
1F
100
AcDbEntity
  8
Plan 1
 62
     1
370
     9
100
AcDbSpline
210
0.0
220
0.0
230
1.0
 70
     8
 71
     3
 72
    44
 73
    40
 74
     0
 42
0.0000000001
 43
0.0000000001
 40
0.0
 40
0.0
 40
0.0
 40
0.0
 40
0.0909090909090909
 40
0.0909090909090909
 40
0.0909090909090909
 40
0.0909090909090909
 40
0.1818181818181818
 40
0.1818181818181818
 40
0.1818181818181818
 40
0.1818181818181818
 40
0.2727272727272727
 40
0.2727272727272727
 40
0.2727272727272727
 40
0.2727272727272727
 40
0.3636363636363636
 40
0.3636363636363636
 40
0.3636363636363636
 40
0.3636363636363636
 40
0.4545454545454545
 40
0.4545454545454545
 40
0.4545454545454545
 40
0.4545454545454545
 40
0.5454545454545454
 40
0.5454545454545454
 40
0.5454545454545454
 40
0.5454545454545454
 40
0.6363636363636364
 40
0.6363636363636364
 40
0.6363636363636364
 40
0.6363636363636364
 40
0.7272727272727273
 40
0.7272727272727273
 40
0.7272727272727273
 40
0.7272727272727273
 40
0.8181818181818182
 40
0.8181818181818182
 40
0.8181818181818182
 40
0.8181818181818182
 40
1.0
 40
1.0
 40
1.0
 40
1.0
 10
1.1166
 20
-119.025
 30
0.0
 10
4.2571
 20
-126.6001
 30
0.0
 10
2.8331
 20
-131.705
 30
0.0
 10
3.265
 20
-135.0405
 30
0.0
 10
3.265
 20
-135.0405
 30
0.0
 10
5.0431
 20
-133.6966
 30
0.0
 10
5.2779
 20
-129.5703
 30
0.0
 10
5.3679
 20
-127.3512
 30
0.0
 10
5.3679
 20
-127.3512
 30
0.0
 10
5.4479
 20
-128.5968
 30
0.0
 10
7.9571
 20
-135.3849
 30
0.0
 10
6.7342
 20
-142.0098
 30
0.0
 10
6.7342
 20
-142.0098
 30
0.0
 10
5.3859
 20
-149.3142
 30
0.0
 10
-5.3761
 20
-149.9103
 30
0.0
 10
-1.6615
 20
-128.7675
 30
0.0
 10
-1.6615
 20
-128.7675
 30
0.0
 10
-0.1567
 20
-120.2019
 30
0.0
 10
-0.9452
 20
-121.0753
 30
0.0
 10
-1.1875
 20
-114.7118
 30
0.0
 10
-1.1875
 20
-114.7118
 30
0.0
 10
-0.813
 20
-115.38
 30
0.0
 10
-0.2009
 20
-116.1166
 30
0.0
 10
0.3655
 20
-117.2255
 30
0.0
 10
0.3655
 20
-117.2255
 30
0.0
 10
3.4398
 20
-115.7674
 30
0.0
 10
-2.2732
 20
-107.5021
 30
0.0
 10
-2.8907
 20
-100.0335
 30
0.0
 10
-2.8907
 20
-100.0335
 30
0.0
 10
-9.3462
 20
-103.2569
 30
0.0
 10
-2.078
 20
-122.1392
 30
0.0
 10
-3.2022
 20
-125.6129
 30
0.0
 10
-3.2022
 20
-125.6129
 30
0.0
 10
-4.0147
 20
-123.3116
 30
0.0
 10
-4.5158
 20
-121.2407
 30
0.0
 10
-5.0438
 20
-118.7753
 30
0.0
 10
-5.0438
 20
-118.7753
 30
0.0
 10
-6.4553
 20
-127.2376
 30
0.0
 10
-9.4492
 20
-145.7565
 30
0.0
 10
-0.8837
 20
-150.1051
 30
0.0
  0
SPLINE
  5
4E
330
1F
100
AcDbEntity
  8
Plan 1
 62
     1
370
     9
100
AcDbSpline
210
0.0
220
0.0
230
1.0
 70
     8
 71
     3
 72
    20
 73
    16
 74
     0
 42
0.0000000001
 43
0.0000000001
 40
0.0
 40
0.0
 40
0.0
 40
0.0
 40
0.2
 40
0.2
 40
0.2
 40
0.2
 40
0.4
 40
0.4
 40
0.4
 40
0.4
 40
0.6
 40
0.6
 40
0.6
 40
0.6
 40
1.0
 40
1.0
 40
1.0
 40
1.0
 10
9.6716
 20
-147.5691
 30
0.0
 10
16.0152
 20
-137.4451
 30
0.0
 10
8.5975
 20
-112.7696
 30
0.0
 10
3.2076
 20
-110.9975
 30
0.0
 10
3.2076
 20
-110.9975
 30
0.0
 10
3.6174
 20
-113.0726
 30
0.0
 10
5.3099
 20
-119.3687
 30
0.0
 10
4.7319
 20
-121.0334
 30
0.0
 10
4.7319
 20
-121.0334
 30
0.0
 10
4.0756
 20
-117.8473
 30
0.0
 10
2.8847
 20
-115.4018
 30
0.0
 10
1.609
 20
-113.0176
 30
0.0
 10
1.609
 20
-113.0176
 30
0.0
 10
2.2119
 20
-115.8105
 30
0.0
 10
1.9872
 20
-117.6844
 30
0.0
 10
1.1028
 20
-118.8259
 30
0.0
  0
SPLINE
  5
4F
330
1F
100
AcDbEntity
  8
Plan 1
 62
     1
370
     9
100
AcDbSpline
210
0.0
220
0.0
230
1.0
 70
     8
 71
     3
 72
    24
 73
    20
 74
     0
 42
0.0000000001
 43
0.0000000001
 40
0.0
 40
0.0
 40
0.0
 40
0.0
 40
0.1666666666666667
 40
0.1666666666666667
 40
0.1666666666666667
 40
0.1666666666666667
 40
0.3333333333333333
 40
0.3333333333333333
 40
0.3333333333333333
 40
0.3333333333333333
 40
0.5
 40
0.5
 40
0.5
 40
0.5
 40
0.6666666666666666
 40
0.6666666666666666
 40
0.6666666666666666
 40
0.6666666666666666
 40
1.0
 40
1.0
 40
1.0
 40
1.0
 10
-0.8837
 20
-150.1051
 30
0.0
 10
-13.0152
 20
-155.8371
 30
0.0
 10
-16.413
 20
-166.0711
 30
0.0
 10
-21.2027
 20
-179.1251
 30
0.0
 10
-21.2027
 20
-179.1251
 30
0.0
 10
-34.0822
 20
-214.2275
 30
0.0
 10
-39.1391
 20
-213.3674
 30
0.0
 10
0.2084
 20
-210.9946
 30
0.0
 10
0.2084
 20
-210.9946
 30
0.0
 10
-2.5617
 20
-216.6859
 30
0.0
 10
-11.2126
 20
-237.354
 30
0.0
 10
-11.2126
 20
-242.9942
 30
0.0
 10
-11.2126
 20
-242.9942
 30
0.0
 10
-11.2126
 20
-244.1538
 30
0.0
 10
-10.642
 20
-245.1846
 30
0.0
 10
-9.501
 20
-246.0867
 30
0.0
 10
-9.501
 20
-246.0867
 30
0.0
 10
-9.501
 20
-246.0867
 30
0.0
 10
-9.501
 20
-258.0155
 30
0.0
 10
-9.501
 20
-258.0155
 30
0.0
  0
SPLINE
  5
50
330
1F
100
AcDbEntity
  8
Plan 1
 62
     1
370
     9
100
AcDbSpline
210
0.0
220
0.0
230
1.0
 70
     8
 71
     3
 72
    52
 73
    48
 74
     0
 42
0.0000000001
 43
0.0000000001
 40
0.0
 40
0.0
 40
0.0
 40
0.0
 40
0.0769230769230769
 40
0.0769230769230769
 40
0.0769230769230769
 40
0.0769230769230769
 40
0.1538461538461539
 40
0.1538461538461539
 40
0.1538461538461539
 40
0.1538461538461539
 40
0.2307692307692308
 40
0.2307692307692308
 40
0.2307692307692308
 40
0.2307692307692308
 40
0.3076923076923077
 40
0.3076923076923077
 40
0.3076923076923077
 40
0.3076923076923077
 40
0.3846153846153846
 40
0.3846153846153846
 40
0.3846153846153846
 40
0.3846153846153846
 40
0.4615384615384616
 40
0.4615384615384616
 40
0.4615384615384616
 40
0.4615384615384616
 40
0.5384615384615384
 40
0.5384615384615384
 40
0.5384615384615384
 40
0.5384615384615384
 40
0.6153846153846154
 40
0.6153846153846154
 40
0.6153846153846154
 40
0.6153846153846154
 40
0.6923076923076923
 40
0.6923076923076923
 40
0.6923076923076923
 40
0.6923076923076923
 40
0.7692307692307693
 40
0.7692307692307693
 40
0.7692307692307693
 40
0.7692307692307693
 40
0.8461538461538461
 40
0.8461538461538461
 40
0.8461538461538461
 40
0.8461538461538461
 40
1.0
 40
1.0
 40
1.0
 40
1.0
 10
9.6716
 20
-147.5691
 30
0.0
 10
13.3701
 20
-147.6067
 30
0.0
 10
15.2196
 20
-148.5677
 30
0.0
 10
15.2196
 20
-150.4035
 30
0.0
 10
15.2196
 20
-150.4035
 30
0.0
 10
15.2196
 20
-154.7751
 30
0.0
 10
-6.183
 20
-184.4594
 30
0.0
 10
-11.6809
 20
-193.4599
 30
0.0
 10
-11.6809
 20
-193.4599
 30
0.0
 10
-11.6809
 20
-193.4599
 30
0.0
 10
6.166
 20
-192.5493
 30
0.0
 10
6.166
 20
-192.5493
 30
0.0
 10
6.166
 20
-192.5493
 30
0.0
 10
9.8511
 20
-180.1123
 30
0.0
 10
17.2381
 20
-174.104
 30
0.0
 10
30.3088
 20
-174.104
 30
0.0
 10
30.3088
 20
-174.104
 30
0.0
 10
37.2662
 20
-174.104
 30
0.0
 10
36.9968
 20
-176.3063
 30
0.0
 10
35.1217
 20
-182.4811
 30
0.0
 10
35.1217
 20
-182.4811
 30
0.0
 10
34.2993
 20
-185.1893
 30
0.0
 10
32.8476
 20
-189.4342
 30
0.0
 10
31.4535
 20
-192.8615
 30
0.0
 10
31.4535
 20
-192.8615
 30
0.0
 10
39.5794
 20
-192.0279
 30
0.0
 10
41.1558
 20
-191.1137
 30
0.0
 10
34.8095
 20
-200.3541
 30
0.0
 10
34.8095
 20
-200.3541
 30
0.0
 10
32.4778
 20
-203.7491
 30
0.0
 10
29.7606
 20
-207.5948
 30
0.0
 10
26.1202
 20
-208.6271
 30
0.0
 10
26.1202
 20
-208.6271
 30
0.0
 10
25.5724
 20
-210.4234
 30
0.0
 10
20.6017
 20
-225.6267
 30
0.0
 10
19.252
 20
-233.1081
 30
0.0
 10
19.252
 20
-233.1081
 30
0.0
 10
18.4976
 20
-237.3227
 30
0.0
 10
17.509
 20
-239.9763
 30
0.0
 10
16.2862
 20
-241.095
 30
0.0
 10
16.2862
 20
-241.095
 30
0.0
 10
8.7155
 20
-246.7287
 30
0.0
 10
-1.501
 20
-247.1727
 30
0.0
 10
-1.501
 20
-250.1431
 30
0.0
 10
-1.501
 20
-250.1431
 30
0.0
 10
-1.501
 20
-250.1431
 30
0.0
 10
-1.501
 20
-258.0155
 30
0.0
 10
-1.501
 20
-258.0155
 30
0.0
  0
SPLINE
  5
51
330
1F
100
AcDbEntity
  8
Plan 1
 62
     1
370
     9
100
AcDbSpline
210
0.0
220
0.0
230
1.0
 70
     8
 71
     3
 72
    44
 73
    40
 74
     0
 42
0.0000000001
 43
0.0000000001
 40
0.0
 40
0.0
 40
0.0
 40
0.0
 40
0.0909090909090909
 40
0.0909090909090909
 40
0.0909090909090909
 40
0.0909090909090909
 40
0.1818181818181818
 40
0.1818181818181818
 40
0.1818181818181818
 40
0.1818181818181818
 40
0.2727272727272727
 40
0.2727272727272727
 40
0.2727272727272727
 40
0.2727272727272727
 40
0.3636363636363636
 40
0.3636363636363636
 40
0.3636363636363636
 40
0.3636363636363636
 40
0.4545454545454545
 40
0.4545454545454545
 40
0.4545454545454545
 40
0.4545454545454545
 40
0.5454545454545454
 40
0.5454545454545454
 40
0.5454545454545454
 40
0.5454545454545454
 40
0.6363636363636364
 40
0.6363636363636364
 40
0.6363636363636364
 40
0.6363636363636364
 40
0.7272727272727273
 40
0.7272727272727273
 40
0.7272727272727273
 40
0.7272727272727273
 40
0.8181818181818182
 40
0.8181818181818182
 40
0.8181818181818182
 40
0.8181818181818182
 40
1.0
 40
1.0
 40
1.0
 40
1.0
 10
131.914
 20
-117.0197
 30
0.0
 10
128.7735
 20
-124.5948
 30
0.0
 10
130.1975
 20
-129.6997
 30
0.0
 10
129.7656
 20
-133.0352
 30
0.0
 10
129.7656
 20
-133.0352
 30
0.0
 10
127.9875
 20
-131.6913
 30
0.0
 10
127.7527
 20
-127.565
 30
0.0
 10
127.6627
 20
-125.3459
 30
0.0
 10
127.6627
 20
-125.3459
 30
0.0
 10
127.5827
 20
-126.5915
 30
0.0
 10
125.0735
 20
-133.3796
 30
0.0
 10
126.2964
 20
-140.0045
 30
0.0
 10
126.2964
 20
-140.0045
 30
0.0
 10
127.6447
 20
-147.3089
 30
0.0
 10
138.4067
 20
-147.905
 30
0.0
 10
134.6921
 20
-126.7622
 30
0.0
 10
134.6921
 20
-126.7622
 30
0.0
 10
133.1873
 20
-118.1966
 30
0.0
 10
133.9758
 20
-119.07
 30
0.0
 10
134.2181
 20
-112.7065
 30
0.0
 10
134.2181
 20
-112.7065
 30
0.0
 10
133.8436
 20
-113.3747
 30
0.0
 10
133.2315
 20
-114.1113
 30
0.0
 10
132.6651
 20
-115.2202
 30
0.0
 10
132.6651
 20
-115.2202
 30
0.0
 10
129.5908
 20
-113.7621
 30
0.0
 10
135.3038
 20
-105.4968
 30
0.0
 10
135.9213
 20
-98.0282
 30
0.0
 10
135.9213
 20
-98.0282
 30
0.0
 10
142.3768
 20
-101.2516
 30
0.0
 10
135.1086
 20
-120.1339
 30
0.0
 10
136.2328
 20
-123.6076
 30
0.0
 10
136.2328
 20
-123.6076
 30
0.0
 10
137.0453
 20
-121.3063
 30
0.0
 10
137.5464
 20
-119.2354
 30
0.0
 10
138.0744
 20
-116.77
 30
0.0
 10
138.0744
 20
-116.77
 30
0.0
 10
139.5333
 20
-125.5166
 30
0.0
 10
142.3226
 20
-142.5868
 30
0.0
 10
134.5593
 20
-147.7239
 30
0.0
  0
SPLINE
  5
52
330
1F
100
AcDbEntity
  8
Plan 1
 62
     1
370
     9
100
AcDbSpline
210
0.0
220
0.0
230
1.0
 70
     8
 71
     3
 72
    28
 73
    24
 74
     0
 42
0.0000000001
 43
0.0000000001
 40
0.0
 40
0.0
 40
0.0
 40
0.0
 40
0.1428571428571428
 40
0.1428571428571428
 40
0.1428571428571428
 40
0.1428571428571428
 40
0.2857142857142857
 40
0.2857142857142857
 40
0.2857142857142857
 40
0.2857142857142857
 40
0.4285714285714285
 40
0.4285714285714285
 40
0.4285714285714285
 40
0.4285714285714285
 40
0.5714285714285714
 40
0.5714285714285714
 40
0.5714285714285714
 40
0.5714285714285714
 40
0.7142857142857143
 40
0.7142857142857143
 40
0.7142857142857143
 40
0.7142857142857143
 40
1.0
 40
1.0
 40
1.0
 40
1.0
 10
127.6863
 20
-147.6132
 30
0.0
 10
124.617
 20
-145.5044
 30
0.0
 10
124.5351
 20
-142.3324
 30
0.0
 10
123.8168
 20
-141.0834
 30
0.0
 10
123.8168
 20
-141.0834
 30
0.0
 10
123.501
 20
-142.9043
 30
0.0
 10
123.9033
 20
-145.1663
 30
0.0
 10
124.1308
 20
-146.6438
 30
0.0
 10
124.1308
 20
-146.6438
 30
0.0
 10
116.4525
 20
-137.329
 30
0.0
 10
124.2306
 20
-110.8309
 30
0.0
 10
129.823
 20
-108.9922
 30
0.0
 10
129.823
 20
-108.9922
 30
0.0
 10
129.4132
 20
-111.0673
 30
0.0
 10
127.7207
 20
-117.3634
 30
0.0
 10
128.2987
 20
-119.0281
 30
0.0
 10
128.2987
 20
-119.0281
 30
0.0
 10
128.955
 20
-115.842
 30
0.0
 10
130.1459
 20
-113.3965
 30
0.0
 10
131.4216
 20
-111.0123
 30
0.0
 10
131.4216
 20
-111.0123
 30
0.0
 10
130.8187
 20
-113.8052
 30
0.0
 10
131.0434
 20
-115.6791
 30
0.0
 10
131.9278
 20
-116.8206
 30
0.0
  0
SPLINE
  5
53
330
1F
100
AcDbEntity
  8
Plan 1
 62
     1
370
     9
100
AcDbSpline
210
0.0
220
0.0
230
1.0
 70
     8
 71
     3
 72
    28
 73
    24
 74
     0
 42
0.0000000001
 43
0.0000000001
 40
0.0
 40
0.0
 40
0.0
 40
0.0
 40
0.1428571428571428
 40
0.1428571428571428
 40
0.1428571428571428
 40
0.1428571428571428
 40
0.2857142857142857
 40
0.2857142857142857
 40
0.2857142857142857
 40
0.2857142857142857
 40
0.4285714285714285
 40
0.4285714285714285
 40
0.4285714285714285
 40
0.4285714285714285
 40
0.5714285714285714
 40
0.5714285714285714
 40
0.5714285714285714
 40
0.5714285714285714
 40
0.7142857142857143
 40
0.7142857142857143
 40
0.7142857142857143
 40
0.7142857142857143
 40
1.0
 40
1.0
 40
1.0
 40
1.0
 10
127.6863
 20
-147.6132
 30
0.0
 10
110.4958
 20
-147.4381
 30
0.0
 10
110.4564
 20
-142.981
 30
0.0
 10
98.9908
 20
-178.6828
 30
0.0
 10
98.9908
 20
-178.6828
 30
0.0
 10
88.8168
 20
-210.363
 30
0.0
 10
130.2359
 20
-171.0386
 30
0.0
 10
130.2359
 20
-205.3491
 30
0.0
 10
130.2359
 20
-205.3491
 30
0.0
 10
130.2359
 20
-221.1413
 30
0.0
 10
105.5468
 20
-251.7025
 30
0.0
 10
105.5468
 20
-229.2057
 30
0.0
 10
105.5468
 20
-229.2057
 30
0.0
 10
105.5468
 20
-200.9189
 30
0.0
 10
125.0664
 20
-195.0728
 30
0.0
 10
112.7012
 20
-195.0728
 30
0.0
 10
112.7012
 20
-195.0728
 30
0.0
 10
85.9092
 20
-195.0728
 30
0.0
 10
73.8161
 20
-243.5831
 30
0.0
 10
105.2231
 20
-247.9146
 30
0.0
 10
105.2231
 20
-247.9146
 30
0.0
 10
107.9533
 20
-248.2911
 30
0.0
 10
107.036
 20
-253.5811
 30
0.0
 10
107.036
 20
-258.3759
 30
0.0
  0
SPLINE
  5
54
330
1F
100
AcDbEntity
  8
Plan 1
 62
     1
370
     9
100
AcDbSpline
210
0.0
220
0.0
230
1.0
 70
     8
 71
     3
 72
    28
 73
    24
 74
     0
 42
0.0000000001
 43
0.0000000001
 40
0.0
 40
0.0
 40
0.0
 40
0.0
 40
0.1428571428571428
 40
0.1428571428571428
 40
0.1428571428571428
 40
0.1428571428571428
 40
0.2857142857142857
 40
0.2857142857142857
 40
0.2857142857142857
 40
0.2857142857142857
 40
0.4285714285714285
 40
0.4285714285714285
 40
0.4285714285714285
 40
0.4285714285714285
 40
0.5714285714285714
 40
0.5714285714285714
 40
0.5714285714285714
 40
0.5714285714285714
 40
0.7142857142857143
 40
0.7142857142857143
 40
0.7142857142857143
 40
0.7142857142857143
 40
1.0
 40
1.0
 40
1.0
 40
1.0
 10
134.5593
 20
-147.7239
 30
0.0
 10
148.8355
 20
-148.0605
 30
0.0
 10
160.6356
 20
-147.0894
 30
0.0
 10
147.2243
 20
-160.0814
 30
0.0
 10
147.2243
 20
-160.0814
 30
0.0
 10
134.4775
 20
-172.4296
 30
0.0
 10
128.3227
 20
-168.2244
 30
0.0
 10
121.6247
 20
-168.2244
 30
0.0
 10
121.6247
 20
-168.2244
 30
0.0
 10
121.6247
 20
-168.2244
 30
0.0
 10
115.9792
 20
-178.2145
 30
0.0
 10
115.9792
 20
-178.2145
 30
0.0
 10
115.9792
 20
-178.2145
 30
0.0
 10
115.9792
 20
-178.2145
 30
0.0
 10
116.2914
 20
-178.5267
 30
0.0
 10
116.2914
 20
-178.5267
 30
0.0
 10
116.2914
 20
-178.5267
 30
0.0
 10
156.2951
 20
-161.4241
 30
0.0
 10
171.6695
 20
-196.5567
 30
0.0
 10
136.6359
 20
-232.0415
 30
0.0
 10
136.6359
 20
-232.0415
 30
0.0
 10
114.7611
 20
-254.198
 30
0.0
 10
115.036
 20
-237.8059
 30
0.0
 10
115.036
 20
-258.3759
 30
0.0
  0
SPLINE
  5
55
330
1F
100
AcDbEntity
  8
Plan 1
 62
     1
370
     9
100
AcDbSpline
210
0.0
220
0.0
230
1.0
 70
     8
 71
     3
 72
    44
 73
    40
 74
     0
 42
0.0000000001
 43
0.0000000001
 40
0.0
 40
0.0
 40
0.0
 40
0.0
 40
0.0909090909090909
 40
0.0909090909090909
 40
0.0909090909090909
 40
0.0909090909090909
 40
0.1818181818181818
 40
0.1818181818181818
 40
0.1818181818181818
 40
0.1818181818181818
 40
0.2727272727272727
 40
0.2727272727272727
 40
0.2727272727272727
 40
0.2727272727272727
 40
0.3636363636363636
 40
0.3636363636363636
 40
0.3636363636363636
 40
0.3636363636363636
 40
0.4545454545454545
 40
0.4545454545454545
 40
0.4545454545454545
 40
0.4545454545454545
 40
0.5454545454545454
 40
0.5454545454545454
 40
0.5454545454545454
 40
0.5454545454545454
 40
0.6363636363636364
 40
0.6363636363636364
 40
0.6363636363636364
 40
0.6363636363636364
 40
0.7272727272727273
 40
0.7272727272727273
 40
0.7272727272727273
 40
0.7272727272727273
 40
0.8181818181818182
 40
0.8181818181818182
 40
0.8181818181818182
 40
0.8181818181818182
 40
1.0
 40
1.0
 40
1.0
 40
1.0
 10
250.9545
 20
-115.664
 30
0.0
 10
254.095
 20
-123.2391
 30
0.0
 10
252.671
 20
-128.344
 30
0.0
 10
253.1029
 20
-131.6795
 30
0.0
 10
253.1029
 20
-131.6795
 30
0.0
 10
254.881
 20
-130.3356
 30
0.0
 10
255.1158
 20
-126.2093
 30
0.0
 10
255.2058
 20
-123.9902
 30
0.0
 10
255.2058
 20
-123.9902
 30
0.0
 10
255.2858
 20
-125.2358
 30
0.0
 10
257.795
 20
-132.0239
 30
0.0
 10
256.5721
 20
-138.6488
 30
0.0
 10
256.5721
 20
-138.6488
 30
0.0
 10
255.2238
 20
-145.9532
 30
0.0
 10
244.4618
 20
-146.5493
 30
0.0
 10
248.1764
 20
-125.4065
 30
0.0
 10
248.1764
 20
-125.4065
 30
0.0
 10
249.6812
 20
-116.8409
 30
0.0
 10
248.8927
 20
-117.7143
 30
0.0
 10
248.6504
 20
-111.3508
 30
0.0
 10
248.6504
 20
-111.3508
 30
0.0
 10
249.0249
 20
-112.019
 30
0.0
 10
249.637
 20
-112.7556
 30
0.0
 10
250.2034
 20
-113.8645
 30
0.0
 10
250.2034
 20
-113.8645
 30
0.0
 10
253.2777
 20
-112.4064
 30
0.0
 10
247.5647
 20
-104.1411
 30
0.0
 10
246.9472
 20
-96.6725
 30
0.0
 10
246.9472
 20
-96.6725
 30
0.0
 10
240.4917
 20
-99.8959
 30
0.0
 10
247.7599
 20
-118.7782
 30
0.0
 10
246.6357
 20
-122.2519
 30
0.0
 10
246.6357
 20
-122.2519
 30
0.0
 10
245.8232
 20
-119.9506
 30
0.0
 10
245.3221
 20
-117.8797
 30
0.0
 10
244.7941
 20
-115.4143
 30
0.0
 10
244.7941
 20
-115.4143
 30
0.0
 10
243.3784
 20
-123.9022
 30
0.0
 10
240.4051
 20
-142.268
 30
0.0
 10
248.8837
 20
-146.7068
 30
0.0
  0
SPLINE
  5
56
330
1F
100
AcDbEntity
  8
Plan 1
 62
     1
370
     9
100
AcDbSpline
210
0.0
220
0.0
230
1.0
 70
     8
 71
     3
 72
    28
 73
    24
 74
     0
 42
0.0000000001
 43
0.0000000001
 40
0.0
 40
0.0
 40
0.0
 40
0.0
 40
0.1428571428571428
 40
0.1428571428571428
 40
0.1428571428571428
 40
0.1428571428571428
 40
0.2857142857142857
 40
0.2857142857142857
 40
0.2857142857142857
 40
0.2857142857142857
 40
0.4285714285714285
 40
0.4285714285714285
 40
0.4285714285714285
 40
0.4285714285714285
 40
0.5714285714285714
 40
0.5714285714285714
 40
0.5714285714285714
 40
0.5714285714285714
 40
0.7142857142857143
 40
0.7142857142857143
 40
0.7142857142857143
 40
0.7142857142857143
 40
1.0
 40
1.0
 40
1.0
 40
1.0
 10
255.3572
 20
-146.1328
 30
0.0
 10
258.2754
 20
-143.9939
 30
0.0
 10
258.3366
 20
-140.9711
 30
0.0
 10
259.0517
 20
-139.7277
 30
0.0
 10
259.0517
 20
-139.7277
 30
0.0
 10
259.3675
 20
-141.5486
 30
0.0
 10
258.9652
 20
-143.8106
 30
0.0
 10
258.7377
 20
-145.2881
 30
0.0
 10
258.7377
 20
-145.2881
 30
0.0
 10
266.416
 20
-135.9733
 30
0.0
 10
258.6379
 20
-109.4752
 30
0.0
 10
253.0455
 20
-107.6365
 30
0.0
 10
253.0455
 20
-107.6365
 30
0.0
 10
253.4553
 20
-109.7116
 30
0.0
 10
255.1478
 20
-116.0077
 30
0.0
 10
254.5698
 20
-117.6724
 30
0.0
 10
254.5698
 20
-117.6724
 30
0.0
 10
253.9135
 20
-114.4863
 30
0.0
 10
252.7226
 20
-112.0408
 30
0.0
 10
251.4469
 20
-109.6566
 30
0.0
 10
251.4469
 20
-109.6566
 30
0.0
 10
252.0498
 20
-112.4495
 30
0.0
 10
251.8251
 20
-114.3234
 30
0.0
 10
250.9407
 20
-115.4649
 30
0.0
  0
SPLINE
  5
57
330
1F
100
AcDbEntity
  8
Plan 1
 62
     1
370
     9
100
AcDbSpline
210
0.0
220
0.0
230
1.0
 70
    11
 71
     3
 72
    16
 73
    12
 74
     0
 42
0.0000000001
 43
0.0000000001
 40
0.0
 40
0.0
 40
0.0
 40
0.0
 40
0.25
 40
0.25
 40
0.25
 40
0.25
 40
0.5
 40
0.5
 40
0.5
 40
0.5
 40
1.0
 40
1.0
 40
1.0
 40
1.0
 10
238.5402
 20
-188.6729
 30
0.0
 10
229.0161
 20
-188.6729
 30
0.0
 10
219.0166
 20
-216.739
 30
0.0
 10
235.6785
 20
-229.5439
 30
0.0
 10
235.6785
 20
-229.5439
 30
0.0
 10
239.2979
 20
-232.3255
 30
0.0
 10
245.6366
 20
-234.2856
 30
0.0
 10
248.3742
 20
-231.4171
 30
0.0
 10
248.3742
 20
-231.4171
 30
0.0
 10
254.1118
 20
-225.4051
 30
0.0
 10
260.7338
 20
-188.6729
 30
0.0
 10
238.5402
 20
-188.6729
 30
0.0
  0
SPLINE
  5
58
330
1F
100
AcDbEntity
  8
Plan 1
 62
     1
370
     9
100
AcDbSpline
210
0.0
220
0.0
230
1.0
 70
     8
 71
     3
 72
    32
 73
    28
 74
     0
 42
0.0000000001
 43
0.0000000001
 40
0.0
 40
0.0
 40
0.0
 40
0.0
 40
0.125
 40
0.125
 40
0.125
 40
0.125
 40
0.25
 40
0.25
 40
0.25
 40
0.25
 40
0.375
 40
0.375
 40
0.375
 40
0.375
 40
0.5
 40
0.5
 40
0.5
 40
0.5
 40
0.625
 40
0.625
 40
0.625
 40
0.625
 40
0.75
 40
0.75
 40
0.75
 40
0.75
 40
1.0
 40
1.0
 40
1.0
 40
1.0
 10
231.573
 20
-258.8068
 30
0.0
 10
231.573
 20
-253.2714
 30
0.0
 10
230.5343
 20
-247.741
 30
0.0
 10
233.5868
 20
-247.6157
 30
0.0
 10
233.5868
 20
-247.6157
 30
0.0
 10
243.0468
 20
-247.2274
 30
0.0
 10
253.1863
 20
-243.1795
 30
0.0
 10
259.8733
 20
-236.7503
 30
0.0
 10
259.8733
 20
-236.7503
 30
0.0
 10
275.202
 20
-222.0126
 30
0.0
 10
288.8638
 20
-188.4112
 30
0.0
 10
269.9674
 20
-176.6276
 30
0.0
 10
269.9674
 20
-176.6276
 30
0.0
 10
261.5065
 20
-171.3515
 30
0.0
 10
252.2043
 20
-174.4394
 30
0.0
 10
242.7288
 20
-180.66
 30
0.0
 10
242.7288
 20
-180.66
 30
0.0
 10
242.7288
 20
-180.66
 30
0.0
 10
242.4166
 20
-180.3478
 30
0.0
 10
242.4166
 20
-180.3478
 30
0.0
 10
242.4166
 20
-180.3478
 30
0.0
 10
247.4765
 20
-174.4323
 30
0.0
 10
257.8296
 20
-161.868
 30
0.0
 10
261.9285
 20
-158.3384
 30
0.0
 10
261.9285
 20
-158.3384
 30
0.0
 10
272.5042
 20
-149.2315
 30
0.0
 10
267.2303
 20
-145.6004
 30
0.0
 10
255.3572
 20
-146.1328
 30
0.0
  0
SPLINE
  5
59
330
1F
100
AcDbEntity
  8
Plan 1
 62
     1
370
     9
100
AcDbSpline
210
0.0
220
0.0
230
1.0
 70
     8
 71
     3
 72
    20
 73
    16
 74
     0
 42
0.0000000001
 43
0.0000000001
 40
0.0
 40
0.0
 40
0.0
 40
0.0
 40
0.2
 40
0.2
 40
0.2
 40
0.2
 40
0.4
 40
0.4
 40
0.4
 40
0.4
 40
0.6
 40
0.6
 40
0.6
 40
0.6
 40
1.0
 40
1.0
 40
1.0
 40
1.0
 10
223.5709
 20
-258.7894
 30
0.0
 10
223.5719
 20
-253.1182
 30
0.0
 10
224.6003
 20
-247.2544
 30
0.0
 10
221.9053
 20
-246.6871
 30
0.0
 10
221.9053
 20
-246.6871
 30
0.0
 10
197.5688
 20
-241.564
 30
0.0
 10
201.2484
 20
-218.6621
 30
0.0
 10
209.7926
 20
-199.1834
 30
0.0
 10
209.7926
 20
-199.1834
 30
0.0
 10
214.1633
 20
-189.2193
 30
0.0
 10
220.9274
 20
-177.2259
 30
0.0
 10
230.085
 20
-163.2033
 30
0.0
 10
230.085
 20
-163.2033
 30
0.0
 10
238.3878
 20
-150.3474
 30
0.0
 10
239.3612
 20
-147.9702
 30
0.0
 10
248.8837
 20
-146.7068
 30
0.0
  0
SPLINE
  5
5A
330
1F
100
AcDbEntity
  8
Plan 1
 62
     1
370
     9
100
AcDbSpline
210
0.0
220
0.0
230
1.0
 70
     8
 71
     3
 72
    44
 73
    40
 74
     0
 42
0.0000000001
 43
0.0000000001
 40
0.0
 40
0.0
 40
0.0
 40
0.0
 40
0.0909090909090909
 40
0.0909090909090909
 40
0.0909090909090909
 40
0.0909090909090909
 40
0.1818181818181818
 40
0.1818181818181818
 40
0.1818181818181818
 40
0.1818181818181818
 40
0.2727272727272727
 40
0.2727272727272727
 40
0.2727272727272727
 40
0.2727272727272727
 40
0.3636363636363636
 40
0.3636363636363636
 40
0.3636363636363636
 40
0.3636363636363636
 40
0.4545454545454545
 40
0.4545454545454545
 40
0.4545454545454545
 40
0.4545454545454545
 40
0.5454545454545454
 40
0.5454545454545454
 40
0.5454545454545454
 40
0.5454545454545454
 40
0.6363636363636364
 40
0.6363636363636364
 40
0.6363636363636364
 40
0.6363636363636364
 40
0.7272727272727273
 40
0.7272727272727273
 40
0.7272727272727273
 40
0.7272727272727273
 40
0.8181818181818182
 40
0.8181818181818182
 40
0.8181818181818182
 40
0.8181818181818182
 40
1.0
 40
1.0
 40
1.0
 40
1.0
 10
363.3107
 20
-117.6898
 30
0.0
 10
360.1702
 20
-125.2649
 30
0.0
 10
361.5942
 20
-130.3698
 30
0.0
 10
361.1623
 20
-133.7053
 30
0.0
 10
361.1623
 20
-133.7053
 30
0.0
 10
359.3842
 20
-132.3614
 30
0.0
 10
359.1494
 20
-128.2351
 30
0.0
 10
359.0594
 20
-126.016
 30
0.0
 10
359.0594
 20
-126.016
 30
0.0
 10
358.9794
 20
-127.2616
 30
0.0
 10
356.4702
 20
-134.0497
 30
0.0
 10
357.6931
 20
-140.6746
 30
0.0
 10
357.6931
 20
-140.6746
 30
0.0
 10
359.0414
 20
-147.979
 30
0.0
 10
369.8034
 20
-148.5751
 30
0.0
 10
366.0888
 20
-127.4323
 30
0.0
 10
366.0888
 20
-127.4323
 30
0.0
 10
364.584
 20
-118.8667
 30
0.0
 10
365.3725
 20
-119.7401
 30
0.0
 10
365.6148
 20
-113.3766
 30
0.0
 10
365.6148
 20
-113.3766
 30
0.0
 10
365.2403
 20
-114.0448
 30
0.0
 10
364.6282
 20
-114.7814
 30
0.0
 10
364.0618
 20
-115.8903
 30
0.0
 10
364.0618
 20
-115.8903
 30
0.0
 10
360.9875
 20
-114.4322
 30
0.0
 10
366.7005
 20
-106.1669
 30
0.0
 10
367.318
 20
-98.6983
 30
0.0
 10
367.318
 20
-98.6983
 30
0.0
 10
373.7735
 20
-101.9217
 30
0.0
 10
366.5053
 20
-120.804
 30
0.0
 10
367.6295
 20
-124.2777
 30
0.0
 10
367.6295
 20
-124.2777
 30
0.0
 10
368.442
 20
-121.9764
 30
0.0
 10
368.9431
 20
-119.9055
 30
0.0
 10
369.4711
 20
-117.4401
 30
0.0
 10
369.4711
 20
-117.4401
 30
0.0
 10
370.9482
 20
-126.2958
 30
0.0
 10
373.6046
 20
-142.4926
 30
0.0
 10
366.374
 20
-148.0936
 30
0.0
  0
SPLINE
  5
5B
330
1F
100
AcDbEntity
  8
Plan 1
 62
     1
370
     9
100
AcDbSpline
210
0.0
220
0.0
230
1.0
 70
     8
 71
     3
 72
    28
 73
    24
 74
     0
 42
0.0000000001
 43
0.0000000001
 40
0.0
 40
0.0
 40
0.0
 40
0.0
 40
0.1428571428571428
 40
0.1428571428571428
 40
0.1428571428571428
 40
0.1428571428571428
 40
0.2857142857142857
 40
0.2857142857142857
 40
0.2857142857142857
 40
0.2857142857142857
 40
0.4285714285714285
 40
0.4285714285714285
 40
0.4285714285714285
 40
0.4285714285714285
 40
0.5714285714285714
 40
0.5714285714285714
 40
0.5714285714285714
 40
0.5714285714285714
 40
0.7142857142857143
 40
0.7142857142857143
 40
0.7142857142857143
 40
0.7142857142857143
 40
1.0
 40
1.0
 40
1.0
 40
1.0
 10
358.6103
 20
-147.9282
 30
0.0
 10
355.952
 20
-145.7556
 30
0.0
 10
355.9197
 20
-142.9814
 30
0.0
 10
355.2135
 20
-141.7535
 30
0.0
 10
355.2135
 20
-141.7535
 30
0.0
 10
354.8977
 20
-143.5744
 30
0.0
 10
355.3
 20
-145.8364
 30
0.0
 10
355.5275
 20
-147.3139
 30
0.0
 10
355.5275
 20
-147.3139
 30
0.0
 10
347.8492
 20
-137.9991
 30
0.0
 10
355.6273
 20
-111.501
 30
0.0
 10
361.2197
 20
-109.6623
 30
0.0
 10
361.2197
 20
-109.6623
 30
0.0
 10
360.8099
 20
-111.7374
 30
0.0
 10
359.1174
 20
-118.0335
 30
0.0
 10
359.6954
 20
-119.6982
 30
0.0
 10
359.6954
 20
-119.6982
 30
0.0
 10
360.3517
 20
-116.5121
 30
0.0
 10
361.5426
 20
-114.0666
 30
0.0
 10
362.8183
 20
-111.6824
 30
0.0
 10
362.8183
 20
-111.6824
 30
0.0
 10
362.2154
 20
-114.4753
 30
0.0
 10
362.4401
 20
-116.3492
 30
0.0
 10
363.3245
 20
-117.4907
 30
0.0
  0
SPLINE
  5
5C
330
1F
100
AcDbEntity
  8
Plan 1
 62
     1
370
     9
100
AcDbSpline
210
0.0
220
0.0
230
1.0
 70
     8
 71
     3
 72
    36
 73
    32
 74
     0
 42
0.0000000001
 43
0.0000000001
 40
0.0
 40
0.0
 40
0.0
 40
0.0
 40
0.1111111111111111
 40
0.1111111111111111
 40
0.1111111111111111
 40
0.1111111111111111
 40
0.2222222222222222
 40
0.2222222222222222
 40
0.2222222222222222
 40
0.2222222222222222
 40
0.3333333333333333
 40
0.3333333333333333
 40
0.3333333333333333
 40
0.3333333333333333
 40
0.4444444444444444
 40
0.4444444444444444
 40
0.4444444444444444
 40
0.4444444444444444
 40
0.5555555555555556
 40
0.5555555555555556
 40
0.5555555555555556
 40
0.5555555555555556
 40
0.6666666666666666
 40
0.6666666666666666
 40
0.6666666666666666
 40
0.6666666666666666
 40
0.7777777777777778
 40
0.7777777777777778
 40
0.7777777777777778
 40
0.7777777777777778
 40
1.0
 40
1.0
 40
1.0
 40
1.0
 10
358.6103
 20
-147.9282
 30
0.0
 10
341.8933
 20
-147.6238
 30
0.0
 10
338.4871
 20
-144.7904
 30
0.0
 10
331.1569
 20
-160.0294
 30
0.0
 10
331.1569
 20
-160.0294
 30
0.0
 10
319.8525
 20
-183.5306
 30
0.0
 10
355.4561
 20
-160.4843
 30
0.0
 10
365.68
 20
-162.8912
 30
0.0
 10
365.68
 20
-162.8912
 30
0.0
 10
365.68
 20
-162.8912
 30
0.0
 10
351.5794
 20
-192.2371
 30
0.0
 10
351.5794
 20
-192.2371
 30
0.0
 10
351.5794
 20
-192.2371
 30
0.0
 10
339.141
 20
-193.6321
 30
0.0
 10
338.1033
 20
-189.5718
 30
0.0
 10
332.6919
 20
-202.6955
 30
0.0
 10
332.6919
 20
-202.6955
 30
0.0
 10
328.178
 20
-213.6428
 30
0.0
 10
336.8888
 20
-212.3734
 30
0.0
 10
341.5893
 20
-212.3734
 30
0.0
 10
341.5893
 20
-212.3734
 30
0.0
 10
339.8994
 20
-215.4487
 30
0.0
 10
325.8237
 20
-239.7384
 30
0.0
 10
325.8237
 20
-243.1503
 30
0.0
 10
325.8237
 20
-243.1503
 30
0.0
 10
325.8237
 20
-248.2948
 30
0.0
 10
334.013
 20
-248.0215
 30
0.0
 10
337.7168
 20
-247.4994
 30
0.0
 10
337.7168
 20
-247.4994
 30
0.0
 10
341.2592
 20
-247.0001
 30
0.0
 10
340.11
 20
-253.4653
 30
0.0
 10
340.11
 20
-259.2377
 30
0.0
  0
SPLINE
  5
5D
330
1F
100
AcDbEntity
  8
Plan 1
 62
     1
370
     9
100
AcDbSpline
210
0.0
220
0.0
230
1.0
 70
     8
 71
     3
 72
    28
 73
    24
 74
     0
 42
0.0000000001
 43
0.0000000001
 40
0.0
 40
0.0
 40
0.0
 40
0.0
 40
0.1428571428571428
 40
0.1428571428571428
 40
0.1428571428571428
 40
0.1428571428571428
 40
0.2857142857142857
 40
0.2857142857142857
 40
0.2857142857142857
 40
0.2857142857142857
 40
0.4285714285714285
 40
0.4285714285714285
 40
0.4285714285714285
 40
0.4285714285714285
 40
0.5714285714285714
 40
0.5714285714285714
 40
0.5714285714285714
 40
0.5714285714285714
 40
0.7142857142857143
 40
0.7142857142857143
 40
0.7142857142857143
 40
0.7142857142857143
 40
1.0
 40
1.0
 40
1.0
 40
1.0
 10
366.374
 20
-148.0936
 30
0.0
 10
393.5911
 20
-149.06
 30
0.0
 10
393.1858
 20
-152.142
 30
0.0
 10
388.1058
 20
-162.8912
 30
0.0
 10
388.1058
 20
-162.8912
 30
0.0
 10
388.1058
 20
-162.8912
 30
0.0
 10
374.5255
 20
-192.081
 30
0.0
 10
374.5255
 20
-192.081
 30
0.0
 10
374.5255
 20
-192.081
 30
0.0
 10
385.9766
 20
-192.081
 30
0.0
 10
388.0885
 20
-190.8961
 30
0.0
 10
384.2554
 20
-197.7785
 30
0.0
 10
384.2554
 20
-197.7785
 30
0.0
 10
380.5582
 20
-204.4168
 30
0.0
 10
375.174
 20
-207.6404
 30
0.0
 10
366.4605
 20
-209.5377
 30
0.0
 10
366.4605
 20
-209.5377
 30
0.0
 10
364.9459
 20
-213.2362
 30
0.0
 10
354.8992
 20
-239.3032
 30
0.0
 10
353.0363
 20
-241.095
 30
0.0
 10
353.0363
 20
-241.095
 30
0.0
 10
347.1961
 20
-246.7125
 30
0.0
 10
348.0878
 20
-239.1608
 30
0.0
 10
348.0878
 20
-260.8781
 30
0.0
  0
SPLINE
  5
5E
330
1F
100
AcDbEntity
  8
Plan 1
 62
     1
370
     9
100
AcDbSpline
210
0.0
220
0.0
230
1.0
 70
     8
 71
     3
 72
    44
 73
    40
 74
     0
 42
0.0000000001
 43
0.0000000001
 40
0.0
 40
0.0
 40
0.0
 40
0.0
 40
0.0909090909090909
 40
0.0909090909090909
 40
0.0909090909090909
 40
0.0909090909090909
 40
0.1818181818181818
 40
0.1818181818181818
 40
0.1818181818181818
 40
0.1818181818181818
 40
0.2727272727272727
 40
0.2727272727272727
 40
0.2727272727272727
 40
0.2727272727272727
 40
0.3636363636363636
 40
0.3636363636363636
 40
0.3636363636363636
 40
0.3636363636363636
 40
0.4545454545454545
 40
0.4545454545454545
 40
0.4545454545454545
 40
0.4545454545454545
 40
0.5454545454545454
 40
0.5454545454545454
 40
0.5454545454545454
 40
0.5454545454545454
 40
0.6363636363636364
 40
0.6363636363636364
 40
0.6363636363636364
 40
0.6363636363636364
 40
0.7272727272727273
 40
0.7272727272727273
 40
0.7272727272727273
 40
0.7272727272727273
 40
0.8181818181818182
 40
0.8181818181818182
 40
0.8181818181818182
 40
0.8181818181818182
 40
1.0
 40
1.0
 40
1.0
 40
1.0
 10
499.9963
 20
-122.4553
 30
0.0
 10
503.1368
 20
-130.0304
 30
0.0
 10
501.7128
 20
-135.1353
 30
0.0
 10
502.1447
 20
-138.4708
 30
0.0
 10
502.1447
 20
-138.4708
 30
0.0
 10
503.9228
 20
-137.1269
 30
0.0
 10
504.1576
 20
-133.0006
 30
0.0
 10
504.2476
 20
-130.7815
 30
0.0
 10
504.2476
 20
-130.7815
 30
0.0
 10
504.3276
 20
-132.0271
 30
0.0
 10
506.8368
 20
-138.8152
 30
0.0
 10
505.6139
 20
-145.4401
 30
0.0
 10
505.6139
 20
-145.4401
 30
0.0
 10
504.2656
 20
-152.7445
 30
0.0
 10
493.5036
 20
-153.3406
 30
0.0
 10
497.2182
 20
-132.1978
 30
0.0
 10
497.2182
 20
-132.1978
 30
0.0
 10
498.723
 20
-123.6322
 30
0.0
 10
497.9345
 20
-124.5056
 30
0.0
 10
497.6922
 20
-118.1421
 30
0.0
 10
497.6922
 20
-118.1421
 30
0.0
 10
498.0667
 20
-118.8103
 30
0.0
 10
498.6788
 20
-119.5469
 30
0.0
 10
499.2452
 20
-120.6558
 30
0.0
 10
499.2452
 20
-120.6558
 30
0.0
 10
502.3195
 20
-119.1977
 30
0.0
 10
496.6065
 20
-110.9324
 30
0.0
 10
495.989
 20
-103.4638
 30
0.0
 10
495.989
 20
-103.4638
 30
0.0
 10
489.5335
 20
-106.6872
 30
0.0
 10
496.8017
 20
-125.5695
 30
0.0
 10
495.6775
 20
-129.0432
 30
0.0
 10
495.6775
 20
-129.0432
 30
0.0
 10
494.865
 20
-126.7419
 30
0.0
 10
494.3639
 20
-124.671
 30
0.0
 10
493.8359
 20
-122.2056
 30
0.0
 10
493.8359
 20
-122.2056
 30
0.0
 10
492.3611
 20
-131.0475
 30
0.0
 10
489.6914
 20
-147.3296
 30
0.0
 10
496.9726
 20
-152.889
 30
0.0
  0
SPLINE
  5
5F
330
1F
100
AcDbEntity
  8
Plan 1
 62
     1
370
     9
100
AcDbSpline
210
0.0
220
0.0
230
1.0
 70
     8
 71
     3
 72
     8
 73
     4
 74
     0
 42
0.0000000001
 43
0.0000000001
 40
0.0
 40
0.0
 40
0.0
 40
0.0
 40
1.0
 40
1.0
 40
1.0
 40
1.0
 10
491.2329
 20
-191.9509
 30
0.0
 10
485.5701
 20
-196.9286
 30
0.0
 10
479.9073
 20
-201.9064
 30
0.0
 10
474.2445
 20
-206.8841
 30
0.0
  0
SPLINE
  5
60
330
1F
100
AcDbEntity
  8
Plan 1
 62
     1
370
     9
100
AcDbSpline
210
0.0
220
0.0
230
1.0
 70
     8
 71
     3
 72
     8
 73
     4
 74
     0
 42
0.0000000001
 43
0.0000000001
 40
0.0
 40
0.0
 40
0.0
 40
0.0
 40
1.0
 40
1.0
 40
1.0
 40
1.0
 10
474.5885
 20
-207.0805
 30
0.0
 10
480.234
 20
-202.134
 30
0.0
 10
485.8795
 20
-197.1874
 30
0.0
 10
491.525
 20
-192.2409
 30
0.0
  0
SPLINE
  5
61
330
1F
100
AcDbEntity
  8
Plan 1
 62
     1
370
     9
100
AcDbSpline
210
0.0
220
0.0
230
1.0
 70
     8
 71
     3
 72
    28
 73
    24
 74
     0
 42
0.0000000001
 43
0.0000000001
 40
0.0
 40
0.0
 40
0.0
 40
0.0
 40
0.1428571428571428
 40
0.1428571428571428
 40
0.1428571428571428
 40
0.1428571428571428
 40
0.2857142857142857
 40
0.2857142857142857
 40
0.2857142857142857
 40
0.2857142857142857
 40
0.4285714285714285
 40
0.4285714285714285
 40
0.4285714285714285
 40
0.4285714285714285
 40
0.5714285714285714
 40
0.5714285714285714
 40
0.5714285714285714
 40
0.5714285714285714
 40
0.7142857142857143
 40
0.7142857142857143
 40
0.7142857142857143
 40
0.7142857142857143
 40
1.0
 40
1.0
 40
1.0
 40
1.0
 10
503.671
 20
-153.3911
 30
0.0
 10
507.2101
 20
-151.4264
 30
0.0
 10
507.3731
 20
-147.7716
 30
0.0
 10
508.0935
 20
-146.519
 30
0.0
 10
508.0935
 20
-146.519
 30
0.0
 10
508.4093
 20
-148.3399
 30
0.0
 10
508.007
 20
-150.6019
 30
0.0
 10
507.7795
 20
-152.0794
 30
0.0
 10
507.7795
 20
-152.0794
 30
0.0
 10
515.4578
 20
-142.7646
 30
0.0
 10
507.6797
 20
-116.2665
 30
0.0
 10
502.0873
 20
-114.4278
 30
0.0
 10
502.0873
 20
-114.4278
 30
0.0
 10
502.4971
 20
-116.5029
 30
0.0
 10
504.1896
 20
-122.799
 30
0.0
 10
503.6116
 20
-124.4637
 30
0.0
 10
503.6116
 20
-124.4637
 30
0.0
 10
502.9553
 20
-121.2776
 30
0.0
 10
501.7644
 20
-118.8321
 30
0.0
 10
500.4887
 20
-116.4479
 30
0.0
 10
500.4887
 20
-116.4479
 30
0.0
 10
501.0916
 20
-119.2408
 30
0.0
 10
500.8669
 20
-121.1147
 30
0.0
 10
499.9825
 20
-122.2562
 30
0.0
  0
SPLINE
  5
62
330
1F
100
AcDbEntity
  8
Plan 1
 62
     1
370
     9
100
AcDbSpline
210
0.0
220
0.0
230
1.0
 70
     8
 71
     3
 72
    12
 73
     8
 74
     0
 42
0.0000000001
 43
0.0000000001
 40
0.0
 40
0.0
 40
0.0
 40
0.0
 40
0.3333333333333333
 40
0.3333333333333333
 40
0.3333333333333333
 40
0.3333333333333333
 40
1.0
 40
1.0
 40
1.0
 40
1.0
 10
491.525
 20
-192.2409
 30
0.0
 10
521.4868
 20
-221.8286
 30
0.0
 10
486.1453
 20
-247.8906
 30
0.0
 10
466.5997
 20
-249.2646
 30
0.0
 10
466.5997
 20
-249.2646
 30
0.0
 10
463.6773
 20
-249.47
 30
0.0
 10
464.647
 20
-254.5172
 30
0.0
 10
464.647
 20
-259.6686
 30
0.0
  0
SPLINE
  5
63
330
1F
100
AcDbEntity
  8
Plan 1
 62
     1
370
     9
100
AcDbSpline
210
0.0
220
0.0
230
1.0
 70
     8
 71
     3
 72
    40
 73
    36
 74
     0
 42
0.0000000001
 43
0.0000000001
 40
0.0
 40
0.0
 40
0.0
 40
0.0
 40
0.1
 40
0.1
 40
0.1
 40
0.1
 40
0.2
 40
0.2
 40
0.2
 40
0.2
 40
0.3
 40
0.3
 40
0.3
 40
0.3
 40
0.4
 40
0.4
 40
0.4
 40
0.4
 40
0.5
 40
0.5
 40
0.5
 40
0.5
 40
0.6
 40
0.6
 40
0.6
 40
0.6
 40
0.7
 40
0.7
 40
0.7
 40
0.7
 40
0.8
 40
0.8
 40
0.8
 40
0.8
 40
1.0
 40
1.0
 40
1.0
 40
1.0
 10
496.9726
 20
-152.889
 30
0.0
 10
494.4605
 20
-153.3995
 30
0.0
 10
488.7094
 20
-156.0745
 30
0.0
 10
488.7094
 20
-158.1823
 30
0.0
 10
488.7094
 20
-158.1823
 30
0.0
 10
488.7094
 20
-158.3483
 30
0.0
 10
498.4572
 20
-167.8989
 30
0.0
 10
482.4655
 20
-184.7705
 30
0.0
 10
482.4655
 20
-184.7705
 30
0.0
 10
469.6298
 20
-175.3845
 30
0.0
 10
479.2241
 20
-153.5687
 30
0.0
 10
489.3337
 20
-152.1466
 30
0.0
 10
489.3337
 20
-152.1466
 30
0.0
 10
493.8711
 20
-151.5083
 30
0.0
 10
492.5759
 20
-147.5678
 30
0.0
 10
481.9973
 20
-147.5678
 30
0.0
 10
481.9973
 20
-147.5678
 30
0.0
 10
459.9222
 20
-147.5678
 30
0.0
 10
442.4768
 20
-167.5253
 30
0.0
 10
453.874
 20
-186.9038
 30
0.0
 10
453.874
 20
-186.9038
 30
0.0
 10
456.2675
 20
-190.9623
 30
0.0
 10
460.1439
 20
-195.385
 30
0.0
 10
465.4771
 20
-200.172
 30
0.0
 10
465.4771
 20
-200.172
 30
0.0
 10
452.5305
 20
-208.9965
 30
0.0
 10
440.1637
 20
-215.899
 30
0.0
 10
440.1637
 20
-229.8301
 30
0.0
 10
440.1637
 20
-229.8301
 30
0.0
 10
440.1637
 20
-246.9629
 30
0.0
 10
456.647
 20
-246.2718
 30
0.0
 10
456.647
 20
-250.1556
 30
0.0
 10
456.647
 20
-250.1556
 30
0.0
 10
456.647
 20
-250.1556
 30
0.0
 10
456.647
 20
-259.6686
 30
0.0
 10
456.647
 20
-259.6686
 30
0.0
  0
SPLINE
  5
64
330
1F
100
AcDbEntity
  8
Plan 1
 62
     1
370
     9
100
AcDbSpline
210
0.0
220
0.0
230
1.0
 70
     8
 71
     3
 72
    12
 73
     8
 74
     0
 42
0.0000000001
 43
0.0000000001
 40
0.0
 40
0.0
 40
0.0
 40
0.0
 40
0.3333333333333333
 40
0.3333333333333333
 40
0.3333333333333333
 40
0.3333333333333333
 40
1.0
 40
1.0
 40
1.0
 40
1.0
 10
503.671
 20
-153.3911
 30
0.0
 10
512.7581
 20
-157.1344
 30
0.0
 10
510.7616
 20
-169.5765
 30
0.0
 10
505.7758
 20
-177.0438
 30
0.0
 10
505.7758
 20
-177.0438
 30
0.0
 10
502.9921
 20
-181.2324
 30
0.0
 10
498.1531
 20
-186.2014
 30
0.0
 10
491.2329
 20
-191.9509
 30
0.0
  0
SPLINE
  5
65
330
1F
100
AcDbEntity
  8
Plan 1
 62
     1
370
     9
100
AcDbSpline
210
0.0
220
0.0
230
1.0
 70
     8
 71
     3
 72
    12
 73
     8
 74
     0
 42
0.0000000001
 43
0.0000000001
 40
0.0
 40
0.0
 40
0.0
 40
0.0
 40
0.3333333333333333
 40
0.3333333333333333
 40
0.3333333333333333
 40
0.3333333333333333
 40
1.0
 40
1.0
 40
1.0
 40
1.0
 10
474.2445
 20
-206.8841
 30
0.0
 10
458.7784
 20
-220.3386
 30
0.0
 10
462.9968
 20
-247.9211
 30
0.0
 10
472.7876
 20
-238.4414
 30
0.0
 10
472.7876
 20
-238.4414
 30
0.0
 10
481.8001
 20
-229.7153
 30
0.0
 10
484.6797
 20
-212.6183
 30
0.0
 10
474.5885
 20
-207.0805
 30
0.0
  0
SPLINE
  5
66
330
1F
100
AcDbEntity
  8
Plan 1
 62
     1
370
     9
100
AcDbSpline
210
0.0
220
0.0
230
1.0
 70
     8
 71
     3
 72
    44
 73
    40
 74
     0
 42
0.0000000001
 43
0.0000000001
 40
0.0
 40
0.0
 40
0.0
 40
0.0
 40
0.0909090909090909
 40
0.0909090909090909
 40
0.0909090909090909
 40
0.0909090909090909
 40
0.1818181818181818
 40
0.1818181818181818
 40
0.1818181818181818
 40
0.1818181818181818
 40
0.2727272727272727
 40
0.2727272727272727
 40
0.2727272727272727
 40
0.2727272727272727
 40
0.3636363636363636
 40
0.3636363636363636
 40
0.3636363636363636
 40
0.3636363636363636
 40
0.4545454545454545
 40
0.4545454545454545
 40
0.4545454545454545
 40
0.4545454545454545
 40
0.5454545454545454
 40
0.5454545454545454
 40
0.5454545454545454
 40
0.5454545454545454
 40
0.6363636363636364
 40
0.6363636363636364
 40
0.6363636363636364
 40
0.6363636363636364
 40
0.7272727272727273
 40
0.7272727272727273
 40
0.7272727272727273
 40
0.7272727272727273
 40
0.8181818181818182
 40
0.8181818181818182
 40
0.8181818181818182
 40
0.8181818181818182
 40
1.0
 40
1.0
 40
1.0
 40
1.0
 10
609.5563
 20
-119.4041
 30
0.0
 10
612.6968
 20
-126.9792
 30
0.0
 10
611.2728
 20
-132.0841
 30
0.0
 10
611.7047
 20
-135.4196
 30
0.0
 10
611.7047
 20
-135.4196
 30
0.0
 10
613.4828
 20
-134.0757
 30
0.0
 10
613.7176
 20
-129.9494
 30
0.0
 10
613.8076
 20
-127.7303
 30
0.0
 10
613.8076
 20
-127.7303
 30
0.0
 10
613.8876
 20
-128.9759
 30
0.0
 10
616.3968
 20
-135.764
 30
0.0
 10
615.1739
 20
-142.3889
 30
0.0
 10
615.1739
 20
-142.3889
 30
0.0
 10
613.8256
 20
-149.6933
 30
0.0
 10
603.0636
 20
-150.2894
 30
0.0
 10
606.7782
 20
-129.1466
 30
0.0
 10
606.7782
 20
-129.1466
 30
0.0
 10
608.283
 20
-120.581
 30
0.0
 10
607.4945
 20
-121.4544
 30
0.0
 10
607.2522
 20
-115.0909
 30
0.0
 10
607.2522
 20
-115.0909
 30
0.0
 10
607.6267
 20
-115.7591
 30
0.0
 10
608.2388
 20
-116.4957
 30
0.0
 10
608.8052
 20
-117.6046
 30
0.0
 10
608.8052
 20
-117.6046
 30
0.0
 10
611.8795
 20
-116.1465
 30
0.0
 10
606.1665
 20
-107.8812
 30
0.0
 10
605.549
 20
-100.4126
 30
0.0
 10
605.549
 20
-100.4126
 30
0.0
 10
599.0935
 20
-103.636
 30
0.0
 10
606.3617
 20
-122.5183
 30
0.0
 10
605.2375
 20
-125.992
 30
0.0
 10
605.2375
 20
-125.992
 30
0.0
 10
604.425
 20
-123.6907
 30
0.0
 10
603.9239
 20
-121.6198
 30
0.0
 10
603.3959
 20
-119.1544
 30
0.0
 10
603.3959
 20
-119.1544
 30
0.0
 10
601.7632
 20
-128.9428
 30
0.0
 10
599.9007
 20
-139.9639
 30
0.0
 10
604.4506
 20
-147.4616
 30
0.0
  0
SPLINE
  5
67
330
1F
100
AcDbEntity
  8
Plan 1
 62
     1
370
     9
100
AcDbSpline
210
0.0
220
0.0
230
1.0
 70
     8
 71
     3
 72
    28
 73
    24
 74
     0
 42
0.0000000001
 43
0.0000000001
 40
0.0
 40
0.0
 40
0.0
 40
0.0
 40
0.1428571428571428
 40
0.1428571428571428
 40
0.1428571428571428
 40
0.1428571428571428
 40
0.2857142857142857
 40
0.2857142857142857
 40
0.2857142857142857
 40
0.2857142857142857
 40
0.4285714285714285
 40
0.4285714285714285
 40
0.4285714285714285
 40
0.4285714285714285
 40
0.5714285714285714
 40
0.5714285714285714
 40
0.5714285714285714
 40
0.5714285714285714
 40
0.7142857142857143
 40
0.7142857142857143
 40
0.7142857142857143
 40
0.7142857142857143
 40
1.0
 40
1.0
 40
1.0
 40
1.0
 10
613.0841
 20
-150.4188
 30
0.0
 10
616.7461
 20
-148.5037
 30
0.0
 10
616.9345
 20
-144.7181
 30
0.0
 10
617.6535
 20
-143.4678
 30
0.0
 10
617.6535
 20
-143.4678
 30
0.0
 10
617.9693
 20
-145.2887
 30
0.0
 10
617.567
 20
-147.5507
 30
0.0
 10
617.3395
 20
-149.0282
 30
0.0
 10
617.3395
 20
-149.0282
 30
0.0
 10
625.0178
 20
-139.7134
 30
0.0
 10
617.2397
 20
-113.2153
 30
0.0
 10
611.6473
 20
-111.3766
 30
0.0
 10
611.6473
 20
-111.3766
 30
0.0
 10
612.0571
 20
-113.4517
 30
0.0
 10
613.7496
 20
-119.7478
 30
0.0
 10
613.1716
 20
-121.4125
 30
0.0
 10
613.1716
 20
-121.4125
 30
0.0
 10
612.5153
 20
-118.2264
 30
0.0
 10
611.3244
 20
-115.7809
 30
0.0
 10
610.0487
 20
-113.3967
 30
0.0
 10
610.0487
 20
-113.3967
 30
0.0
 10
610.6516
 20
-116.1896
 30
0.0
 10
610.4269
 20
-118.0635
 30
0.0
 10
609.5425
 20
-119.205
 30
0.0
  0
SPLINE
  5
68
330
1F
100
AcDbEntity
  8
Plan 1
 62
     1
370
     9
100
AcDbSpline
210
0.0
220
0.0
230
1.0
 70
     8
 71
     3
 72
    32
 73
    28
 74
     0
 42
0.0000000001
 43
0.0000000001
 40
0.0
 40
0.0
 40
0.0
 40
0.0
 40
0.125
 40
0.125
 40
0.125
 40
0.125
 40
0.25
 40
0.25
 40
0.25
 40
0.25
 40
0.375
 40
0.375
 40
0.375
 40
0.375
 40
0.5
 40
0.5
 40
0.5
 40
0.5
 40
0.625
 40
0.625
 40
0.625
 40
0.625
 40
0.75
 40
0.75
 40
0.75
 40
0.75
 40
1.0
 40
1.0
 40
1.0
 40
1.0
 10
604.4506
 20
-147.4616
 30
0.0
 10
573.9091
 20
-142.7313
 30
0.0
 10
544.9038
 20
-183.1978
 30
0.0
 10
562.3084
 20
-202.4093
 30
0.0
 10
562.3084
 20
-202.4093
 30
0.0
 10
573.411
 20
-214.6646
 30
0.0
 10
592.7959
 20
-203.1645
 30
0.0
 10
594.5357
 20
-200.9618
 30
0.0
 10
594.5357
 20
-200.9618
 30
0.0
 10
594.5357
 20
-200.9618
 30
0.0
 10
596.31
 20
-195.9498
 30
0.0
 10
596.31
 20
-195.9498
 30
0.0
 10
596.31
 20
-195.9498
 30
0.0
 10
565.1976
 20
-189.9863
 30
0.0
 10
593.3899
 20
-142.2698
 30
0.0
 10
601.9306
 20
-158.4684
 30
0.0
 10
601.9306
 20
-158.4684
 30
0.0
 10
610.024
 20
-173.8187
 30
0.0
 10
589.0828
 20
-231.5195
 30
0.0
 10
563.4791
 20
-242.786
 30
0.0
 10
563.4791
 20
-242.786
 30
0.0
 10
558.5844
 20
-244.9398
 30
0.0
 10
557.7908
 20
-249.355
 30
0.0
 10
569.0082
 20
-248.0075
 30
0.0
 10
569.0082
 20
-248.0075
 30
0.0
 10
572.5304
 20
-247.5844
 30
0.0
 10
571.3408
 20
-254.3125
 30
0.0
 10
571.3161
 20
-260.179
 30
0.0
  0
SPLINE
  5
69
330
1F
100
AcDbEntity
  8
Plan 1
 62
     1
370
     9
100
AcDbSpline
210
0.0
220
0.0
230
1.0
 70
     8
 71
     3
 72
    12
 73
     8
 74
     0
 42
0.0000000001
 43
0.0000000001
 40
0.0
 40
0.0
 40
0.0
 40
0.0
 40
0.3333333333333333
 40
0.3333333333333333
 40
0.3333333333333333
 40
0.3333333333333333
 40
1.0
 40
1.0
 40
1.0
 40
1.0
 10
613.0841
 20
-150.4188
 30
0.0
 10
641.4977
 20
-166.2827
 30
0.0
 10
629.7494
 20
-216.4004
 30
0.0
 10
586.8154
 20
-242.1356
 30
0.0
 10
586.8154
 20
-242.1356
 30
0.0
 10
578.5606
 20
-247.0836
 30
0.0
 10
579.384
 20
-240.1251
 30
0.0
 10
579.384
 20
-260.0995
 30
0.0
  0
SPLINE
  5
6A
330
1F
100
AcDbEntity
  8
Plan 1
 62
     1
370
     9
100
AcDbSpline
210
0.0
220
0.0
230
1.0
 70
     8
 71
     3
 72
    44
 73
    40
 74
     0
 42
0.0000000001
 43
0.0000000001
 40
0.0
 40
0.0
 40
0.0
 40
0.0
 40
0.0909090909090909
 40
0.0909090909090909
 40
0.0909090909090909
 40
0.0909090909090909
 40
0.1818181818181818
 40
0.1818181818181818
 40
0.1818181818181818
 40
0.1818181818181818
 40
0.2727272727272727
 40
0.2727272727272727
 40
0.2727272727272727
 40
0.2727272727272727
 40
0.3636363636363636
 40
0.3636363636363636
 40
0.3636363636363636
 40
0.3636363636363636
 40
0.4545454545454545
 40
0.4545454545454545
 40
0.4545454545454545
 40
0.4545454545454545
 40
0.5454545454545454
 40
0.5454545454545454
 40
0.5454545454545454
 40
0.5454545454545454
 40
0.6363636363636364
 40
0.6363636363636364
 40
0.6363636363636364
 40
0.6363636363636364
 40
0.7272727272727273
 40
0.7272727272727273
 40
0.7272727272727273
 40
0.7272727272727273
 40
0.8181818181818182
 40
0.8181818181818182
 40
0.8181818181818182
 40
0.8181818181818182
 40
1.0
 40
1.0
 40
1.0
 40
1.0
 10
700.1791
 20
-115.2592
 30
0.0
 10
697.0386
 20
-122.8343
 30
0.0
 10
698.4626
 20
-127.9392
 30
0.0
 10
698.0307
 20
-131.2747
 30
0.0
 10
698.0307
 20
-131.2747
 30
0.0
 10
696.2526
 20
-129.9308
 30
0.0
 10
696.0178
 20
-125.8045
 30
0.0
 10
695.9278
 20
-123.5854
 30
0.0
 10
695.9278
 20
-123.5854
 30
0.0
 10
695.8478
 20
-124.831
 30
0.0
 10
693.3386
 20
-131.6191
 30
0.0
 10
694.5615
 20
-138.244
 30
0.0
 10
694.5615
 20
-138.244
 30
0.0
 10
695.9098
 20
-145.5484
 30
0.0
 10
706.6718
 20
-146.1445
 30
0.0
 10
702.9572
 20
-125.0017
 30
0.0
 10
702.9572
 20
-125.0017
 30
0.0
 10
701.4524
 20
-116.4361
 30
0.0
 10
702.2409
 20
-117.3095
 30
0.0
 10
702.4832
 20
-110.946
 30
0.0
 10
702.4832
 20
-110.946
 30
0.0
 10
702.1087
 20
-111.6142
 30
0.0
 10
701.4966
 20
-112.3508
 30
0.0
 10
700.9302
 20
-113.4597
 30
0.0
 10
700.9302
 20
-113.4597
 30
0.0
 10
697.8559
 20
-112.0016
 30
0.0
 10
703.5689
 20
-103.7363
 30
0.0
 10
704.1864
 20
-96.2677
 30
0.0
 10
704.1864
 20
-96.2677
 30
0.0
 10
710.6419
 20
-99.4911
 30
0.0
 10
703.3737
 20
-118.3734
 30
0.0
 10
704.4979
 20
-121.8471
 30
0.0
 10
704.4979
 20
-121.8471
 30
0.0
 10
705.3104
 20
-119.5458
 30
0.0
 10
705.8115
 20
-117.4749
 30
0.0
 10
706.3395
 20
-115.0095
 30
0.0
 10
706.3395
 20
-115.0095
 30
0.0
 10
707.8047
 20
-123.7941
 30
0.0
 10
710.5219
 20
-140.3974
 30
0.0
 10
703.0607
 20
-145.8
 30
0.0
  0
SPLINE
  5
6B
330
1F
100
AcDbEntity
  8
Plan 1
 62
     1
370
     9
100
AcDbSpline
210
0.0
220
0.0
230
1.0
 70
     8
 71
     3
 72
    28
 73
    24
 74
     0
 42
0.0000000001
 43
0.0000000001
 40
0.0
 40
0.0
 40
0.0
 40
0.0
 40
0.1428571428571428
 40
0.1428571428571428
 40
0.1428571428571428
 40
0.1428571428571428
 40
0.2857142857142857
 40
0.2857142857142857
 40
0.2857142857142857
 40
0.2857142857142857
 40
0.4285714285714285
 40
0.4285714285714285
 40
0.4285714285714285
 40
0.4285714285714285
 40
0.5714285714285714
 40
0.5714285714285714
 40
0.5714285714285714
 40
0.5714285714285714
 40
0.7142857142857143
 40
0.7142857142857143
 40
0.7142857142857143
 40
0.7142857142857143
 40
1.0
 40
1.0
 40
1.0
 40
1.0
 10
697.1813
 20
-146.5221
 30
0.0
 10
693.0851
 20
-144.828
 30
0.0
 10
692.7897
 20
-140.5536
 30
0.0
 10
692.0819
 20
-139.3229
 30
0.0
 10
692.0819
 20
-139.3229
 30
0.0
 10
691.7661
 20
-141.1438
 30
0.0
 10
692.1684
 20
-143.4058
 30
0.0
 10
692.3959
 20
-144.8833
 30
0.0
 10
692.3959
 20
-144.8833
 30
0.0
 10
684.7176
 20
-135.5685
 30
0.0
 10
692.4957
 20
-109.0704
 30
0.0
 10
698.0881
 20
-107.2317
 30
0.0
 10
698.0881
 20
-107.2317
 30
0.0
 10
697.6783
 20
-109.3068
 30
0.0
 10
695.9858
 20
-115.6029
 30
0.0
 10
696.5638
 20
-117.2676
 30
0.0
 10
696.5638
 20
-117.2676
 30
0.0
 10
697.2201
 20
-114.0815
 30
0.0
 10
698.411
 20
-111.636
 30
0.0
 10
699.6867
 20
-109.2518
 30
0.0
 10
699.6867
 20
-109.2518
 30
0.0
 10
699.0838
 20
-112.0447
 30
0.0
 10
699.3085
 20
-113.9186
 30
0.0
 10
700.1929
 20
-115.0601
 30
0.0
  0
SPLINE
  5
6C
330
1F
100
AcDbEntity
  8
Plan 1
 62
     1
370
     9
100
AcDbSpline
210
0.0
220
0.0
230
1.0
 70
     8
 71
     3
 72
    12
 73
     8
 74
     0
 42
0.0000000001
 43
0.0000000001
 40
0.0
 40
0.0
 40
0.0
 40
0.0
 40
0.3333333333333333
 40
0.3333333333333333
 40
0.3333333333333333
 40
0.3333333333333333
 40
1.0
 40
1.0
 40
1.0
 40
1.0
 10
697.1813
 20
-146.5221
 30
0.0
 10
656.5958
 20
-155.3698
 30
0.0
 10
635.6531
 20
-235.2984
 30
0.0
 10
673.8905
 20
-246.0708
 30
0.0
 10
673.8905
 20
-246.0708
 30
0.0
 10
676.5374
 20
-246.8165
 30
0.0
 10
675.421
 20
-254.4394
 30
0.0
 10
675.421
 20
-260.5304
 30
0.0
  0
SPLINE
  5
6D
330
1F
100
AcDbEntity
  8
Plan 1
 62
     1
370
     9
100
AcDbSpline
210
0.0
220
0.0
230
1.0
 70
     8
 71
     3
 72
    44
 73
    40
 74
     0
 42
0.0000000001
 43
0.0000000001
 40
0.0
 40
0.0
 40
0.0
 40
0.0
 40
0.0909090909090909
 40
0.0909090909090909
 40
0.0909090909090909
 40
0.0909090909090909
 40
0.1818181818181818
 40
0.1818181818181818
 40
0.1818181818181818
 40
0.1818181818181818
 40
0.2727272727272727
 40
0.2727272727272727
 40
0.2727272727272727
 40
0.2727272727272727
 40
0.3636363636363636
 40
0.3636363636363636
 40
0.3636363636363636
 40
0.3636363636363636
 40
0.4545454545454545
 40
0.4545454545454545
 40
0.4545454545454545
 40
0.4545454545454545
 40
0.5454545454545454
 40
0.5454545454545454
 40
0.5454545454545454
 40
0.5454545454545454
 40
0.6363636363636364
 40
0.6363636363636364
 40
0.6363636363636364
 40
0.6363636363636364
 40
0.7272727272727273
 40
0.7272727272727273
 40
0.7272727272727273
 40
0.7272727272727273
 40
0.8181818181818182
 40
0.8181818181818182
 40
0.8181818181818182
 40
0.8181818181818182
 40
1.0
 40
1.0
 40
1.0
 40
1.0
 10
703.0607
 20
-145.8
 30
0.0
 10
707.3547
 20
-145.6772
 30
0.0
 10
710.7808
 20
-146.3927
 30
0.0
 10
713.848
 20
-148.7074
 30
0.0
 10
713.848
 20
-148.7074
 30
0.0
 10
710.596
 20
-148.7594
 30
0.0
 10
701.7369
 20
-153.1228
 30
0.0
 10
698.3028
 20
-156.3488
 30
0.0
 10
698.3028
 20
-156.3488
 30
0.0
 10
683.4249
 20
-170.325
 30
0.0
 10
671.601
 20
-207.0096
 30
0.0
 10
687.4021
 20
-227.7365
 30
0.0
 10
687.4021
 20
-227.7365
 30
0.0
 10
700.8399
 20
-245.3634
 30
0.0
 10
708.9025
 20
-201.8976
 30
0.0
 10
709.6978
 20
-196.2572
 30
0.0
 10
709.6978
 20
-196.2572
 30
0.0
 10
713.7294
 20
-167.6642
 30
0.0
 10
700.8523
 20
-160.6669
 30
0.0
 10
700.8523
 20
-159.3666
 30
0.0
 10
700.8523
 20
-159.3666
 30
0.0
 10
700.8523
 20
-156.551
 30
0.0
 10
712.0922
 20
-148.9082
 30
0.0
 10
714.8749
 20
-148.9082
 30
0.0
 10
714.8749
 20
-148.9082
 30
0.0
 10
725.1725
 20
-148.9082
 30
0.0
 10
730.9528
 20
-164.9505
 30
0.0
 10
730.9528
 20
-175.7567
 30
0.0
 10
730.9528
 20
-175.7567
 30
0.0
 10
730.9528
 20
-195.2837
 30
0.0
 10
719.8572
 20
-221.1196
 30
0.0
 10
705.9515
 20
-235.0469
 30
0.0
 10
705.9515
 20
-235.0469
 30
0.0
 10
698.5521
 20
-242.4577
 30
0.0
 10
683.421
 20
-239.3501
 30
0.0
 10
683.421
 20
-247.0303
 30
0.0
 10
683.421
 20
-247.0303
 30
0.0
 10
683.421
 20
-247.0303
 30
0.0
 10
683.421
 20
-260.5304
 30
0.0
 10
683.421
 20
-260.5304
 30
0.0
  0
ENDSEC
  0
SECTION
  2
OBJECTS
  0
DICTIONARY
  5
C
330
0
100
AcDbDictionary
281
     1
  3
ACAD_GROUP
350
D
  3
ACAD_LAYOUT
350
1A
  3
ACAD_MATERIAL
350
3B
  3
ACAD_MLEADERSTYLE
350
8F
  3
ACAD_MLINESTYLE
350
17
  3
ACAD_PLOTSETTINGS
350
19
  3
ACAD_PLOTSTYLENAME
350
E
  3
ACAD_TABLESTYLE
350
8E
  3
ACAD_VISUALSTYLE
350
2A
  0
DICTIONARY
  5
D
102
{ACAD_REACTORS
330
C
102
}
330
C
100
AcDbDictionary
281
     1
  0
DICTIONARY
  5
1A
102
{ACAD_REACTORS
330
C
102
}
330
C
100
AcDbDictionary
281
     1
  3
Layout1
350
1E
  3
Layout2
350
26
  3
Model
350
22
  0
DICTIONARY
  5
3B
102
{ACAD_REACTORS
330
C
102
}
330
C
100
AcDbDictionary
281
     1
  3
ByBlock
350
3D
  3
ByLayer
350
3C
  3
Global
350
3E
  0
DICTIONARY
  5
8F
102
{ACAD_REACTORS
330
C
102
}
330
C
100
AcDbDictionary
281
     1
  0
DICTIONARY
  5
17
102
{ACAD_REACTORS
330
C
102
}
330
C
100
AcDbDictionary
281
     1
  3
Standard
350
18
  0
DICTIONARY
  5
19
102
{ACAD_REACTORS
330
C
102
}
330
C
100
AcDbDictionary
281
     1
  0
ACDBDICTIONARYWDFLT
  5
E
102
{ACAD_REACTORS
330
C
102
}
330
C
100
AcDbDictionary
281
     1
  3
Normal
350
F
100
AcDbDictionaryWithDefault
340
F
  0
DICTIONARY
  5
8E
102
{ACAD_REACTORS
330
C
102
}
330
C
100
AcDbDictionary
281
     1
  0
DICTIONARY
  5
2A
102
{ACAD_REACTORS
330
C
102
}
330
C
100
AcDbDictionary
281
     1
  3
2dWireframe
350
2F
  3
3D Hidden
350
31
  3
3dWireframe
350
30
  3
Basic
350
32
  3
Brighten
350
36
  3
ColorChange
350
3A
  3
Conceptual
350
34
  3
Dim
350
35
  3
Facepattern
350
39
  3
Flat
350
2B
  3
FlatWithEdges
350
2C
  3
Gouraud
350
2D
  3
GouraudWithEdges
350
2E
  3
Linepattern
350
38
  3
Realistic
350
33
  3
Thicken
350
37
  0
LAYOUT
  5
1E
102
{ACAD_REACTORS
330
1A
102
}
330
1A
100
AcDbPlotSettings
  1

  2
none_device
  4

  6

 40
0.0
 41
0.0
 42
0.0
 43
0.0
 44
0.0
 45
0.0
 46
0.0
 47
0.0
 48
0.0
 49
0.0
140
0.0
141
0.0
142
1.0
143
1.0
 70
   688
 72
     0
 73
     0
 74
     5
  7

 75
    16
 76
     0
 77
     2
 78
   300
147
1.0
148
0.0
149
0.0
100
AcDbLayout
  1
Layout1
 70
     1
 71
     1
 10
0.0
 20
0.0
 11
12.0
 21
9.0
 12
0.0
 22
0.0
 32
0.0
 14
1.000000000000000E+20
 24
1.000000000000000E+20
 34
1.000000000000000E+20
 15
-1.000000000000000E+20
 25
-1.000000000000000E+20
 35
-1.000000000000000E+20
146
0.0
 13
0.0
 23
0.0
 33
0.0
 16
1.0
 26
0.0
 36
0.0
 17
0.0
 27
1.0
 37
0.0
 76
     0
330
1B
  0
LAYOUT
  5
26
102
{ACAD_REACTORS
330
1A
102
}
330
1A
100
AcDbPlotSettings
  1

  2
none_device
  4

  6

 40
0.0
 41
0.0
 42
0.0
 43
0.0
 44
0.0
 45
0.0
 46
0.0
 47
0.0
 48
0.0
 49
0.0
140
0.0
141
0.0
142
1.0
143
1.0
 70
   688
 72
     0
 73
     0
 74
     5
  7

 75
    16
 76
     0
 77
     2
 78
   300
147
1.0
148
0.0
149
0.0
100
AcDbLayout
  1
Layout2
 70
     1
 71
     2
 10
0.0
 20
0.0
 11
0.0
 21
0.0
 12
0.0
 22
0.0
 32
0.0
 14
0.0
 24
0.0
 34
0.0
 15
0.0
 25
0.0
 35
0.0
146
0.0
 13
0.0
 23
0.0
 33
0.0
 16
1.0
 26
0.0
 36
0.0
 17
0.0
 27
1.0
 37
0.0
 76
     0
330
23
  0
LAYOUT
  5
22
102
{ACAD_REACTORS
330
1A
102
}
330
1A
100
AcDbPlotSettings
  1

  2
none_device
  4

  6

 40
0.0
 41
0.0
 42
0.0
 43
0.0
 44
0.0
 45
0.0
 46
0.0
 47
0.0
 48
0.0
 49
0.0
140
0.0
141
0.0
142
1.0
143
1.0
 70
  1712
 72
     0
 73
     0
 74
     0
  7

 75
     0
 76
     0
 77
     2
 78
   300
147
1.0
148
0.0
149
0.0
100
AcDbLayout
  1
Model
 70
     1
 71
     0
 10
0.0
 20
0.0
 11
12.0
 21
9.0
 12
0.0
 22
0.0
 32
0.0
 14
-368.8302
 24
-260.8781
 34
0.0
 15
730.9528
 25
-89.8152
 35
0.0
146
0.0
 13
0.0
 23
0.0
 33
0.0
 16
1.0
 26
0.0
 36
0.0
 17
0.0
 27
1.0
 37
0.0
 76
     0
330
1F
331
29
  0
MATERIAL
  5
3D
102
{ACAD_REACTORS
330
3B
102
}
330
3B
100
AcDbMaterial
  1
ByBlock
 72
     1
 94
      127
  0
MATERIAL
  5
3C
102
{ACAD_REACTORS
330
3B
102
}
330
3B
100
AcDbMaterial
  1
ByLayer
 72
     1
 94
      127
  0
MATERIAL
  5
3E
102
{ACAD_REACTORS
330
3B
102
}
330
3B
100
AcDbMaterial
  1
Global
 72
     1
 94
      127
  0
MLINESTYLE
  5
18
102
{ACAD_REACTORS
330
17
102
}
330
17
100
AcDbMlineStyle
  2
Standard
 70
     0
  3

 62
   256
 51
90.0
 52
90.0
 71
     2
 49
0.5
 62
   256
  6
BYLAYER
 49
-0.5
 62
   256
  6
BYLAYER
  0
ACDBPLACEHOLDER
  5
F
102
{ACAD_REACTORS
330
E
102
}
330
E
  0
VISUALSTYLE
  5
2F
102
{ACAD_REACTORS
330
2A
102
}
102
{ACAD_XDICTIONARY
360
76
102
}
330
2A
100
AcDbVisualStyle
  2
2dWireframe
 70
     4
 71
     0
 72
     2
 73
     0
 90
        0
 40
-0.6
 41
-30.0
 62
     5
 63
     7
421
 16777215
 74
     1
 91
        4
 64
     7
 65
   257
 75
     1
175
     1
 42
1.0
 92
        0
 66
   257
 43
1.0
 76
     1
 77
     6
 78
     2
 67
     7
 79
     5
170
     0
171
     0
290
     0
174
     0
 93
        1
 44
0.0
173
     0
291
     0
 45
0.0
  0
VISUALSTYLE
  5
31
102
{ACAD_REACTORS
330
2A
102
}
102
{ACAD_XDICTIONARY
360
7A
102
}
330
2A
100
AcDbVisualStyle
  2
3D Hidden
 70
     6
 71
     1
 72
     2
 73
     2
 90
        0
 40
-0.6
 41
-30.0
 62
     5
 63
     7
421
 16777215
 74
     2
 91
        2
 64
     7
 65
   257
 75
     2
175
     1
 42
40.0
 92
        0
 66
   257
 43
1.0
 76
     1
 77
     6
 78
     2
 67
     7
 79
     3
170
     0
171
     0
290
     0
174
     0
 93
        1
 44
0.0
173
     0
291
     0
 45
0.0
  0
VISUALSTYLE
  5
30
102
{ACAD_REACTORS
330
2A
102
}
102
{ACAD_XDICTIONARY
360
78
102
}
330
2A
100
AcDbVisualStyle
  2
3dWireframe
 70
     5
 71
     0
 72
     2
 73
     0
 90
        0
 40
-0.6
 41
-30.0
 62
     5
 63
     7
421
 16777215
 74
     1
 91
        4
 64
     7
 65
   257
 75
     1
175
     1
 42
1.0
 92
        0
 66
   257
 43
1.0
 76
     1
 77
     6
 78
     2
 67
     7
 79
     5
170
     0
171
     0
290
     0
174
     0
 93
        1
 44
0.0
173
     0
291
     0
 45
0.0
  0
VISUALSTYLE
  5
32
102
{ACAD_REACTORS
330
2A
102
}
102
{ACAD_XDICTIONARY
360
7C
102
}
330
2A
100
AcDbVisualStyle
  2
Basic
 70
     7
 71
     1
 72
     0
 73
     1
 90
        0
 40
-0.6
 41
-30.0
 62
     5
 63
     7
421
 16777215
 74
     0
 91
        4
 64
     7
 65
   257
 75
     1
175
     1
 42
1.0
 92
        8
 66
     7
 43
1.0
 76
     1
 77
     6
 78
     2
 67
     7
 79
     5
170
     0
171
     0
290
     0
174
     0
 93
        1
 44
0.0
173
     0
291
     1
 45
0.0
  0
VISUALSTYLE
  5
36
102
{ACAD_REACTORS
330
2A
102
}
102
{ACAD_XDICTIONARY
360
84
102
}
330
2A
100
AcDbVisualStyle
  2
Brighten
 70
    12
 71
     2
 72
     2
 73
     0
 90
        0
 40
-0.6
 41
-30.0
 62
     5
 63
     7
421
 16777215
 74
     1
 91
        4
 64
     7
 65
   257
 75
     1
175
     1
 42
1.0
 92
        8
 66
     7
 43
1.0
 76
     1
 77
     6
 78
     2
 67
     7
 79
     5
170
     0
171
     0
290
     0
174
     0
 93
        1
 44
50.0
173
     0
291
     1
 45
0.0
  0
VISUALSTYLE
  5
3A
102
{ACAD_REACTORS
330
2A
102
}
102
{ACAD_XDICTIONARY
360
8C
102
}
330
2A
100
AcDbVisualStyle
  2
ColorChange
 70
    16
 71
     2
 72
     2
 73
     3
 90
        0
 40
-0.6
 41
-30.0
 62
     5
 63
     8
421
  8421504
 74
     1
 91
        4
 64
     7
 65
   257
 75
     1
175
     1
 42
1.0
 92
        8
 66
     8
424
  8421504
 43
1.0
 76
     1
 77
     6
 78
     2
 67
     7
 79
     5
170
     0
171
     0
290
     0
174
     0
 93
        1
 44
0.0
173
     0
291
     1
 45
0.0
  0
VISUALSTYLE
  5
34
102
{ACAD_REACTORS
330
2A
102
}
102
{ACAD_XDICTIONARY
360
80
102
}
330
2A
100
AcDbVisualStyle
  2
Conceptual
 70
     9
 71
     3
 72
     2
 73
     0
 90
        0
 40
-0.6
 41
-30.0
 62
     5
 63
     7
421
 16777215
 74
     2
 91
        2
 64
     7
 65
   257
 75
     1
175
     1
 42
40.0
 92
        8
 66
     7
 43
1.0
 76
     1
 77
     6
 78
     2
 67
     7
 79
     3
170
     0
171
     0
290
     0
174
     0
 93
        1
 44
0.0
173
     0
291
     0
 45
0.0
  0
VISUALSTYLE
  5
35
102
{ACAD_REACTORS
330
2A
102
}
102
{ACAD_XDICTIONARY
360
82
102
}
330
2A
100
AcDbVisualStyle
  2
Dim
 70
    11
 71
     2
 72
     2
 73
     0
 90
        0
 40
-0.6
 41
-30.0
 62
     5
 63
     7
421
 16777215
 74
     1
 91
        4
 64
     7
 65
   257
 75
     1
175
     1
 42
1.0
 92
        8
 66
     7
 43
1.0
 76
     1
 77
     6
 78
     2
 67
     7
 79
     5
170
     0
171
     0
290
     0
174
     0
 93
        1
 44
-50.0
173
     0
291
     1
 45
0.0
  0
VISUALSTYLE
  5
39
102
{ACAD_REACTORS
330
2A
102
}
102
{ACAD_XDICTIONARY
360
8A
102
}
330
2A
100
AcDbVisualStyle
  2
Facepattern
 70
    15
 71
     2
 72
     2
 73
     0
 90
        0
 40
-0.6
 41
-30.0
 62
     5
 63
     7
421
 16777215
 74
     1
 91
        4
 64
     7
 65
   257
 75
     1
175
     1
 42
1.0
 92
        8
 66
     7
 43
1.0
 76
     1
 77
     6
 78
     2
 67
     7
 79
     5
170
     0
171
     0
290
     0
174
     0
 93
        1
 44
0.0
173
     0
291
     1
 45
0.0
  0
VISUALSTYLE
  5
2B
102
{ACAD_REACTORS
330
2A
102
}
102
{ACAD_XDICTIONARY
360
6E
102
}
330
2A
100
AcDbVisualStyle
  2
Flat
 70
     0
 71
     2
 72
     1
 73
     1
 90
        2
 40
-0.6
 41
30.0
 62
     5
 63
     7
421
 16777215
 74
     0
 91
        4
 64
     7
 65
   257
 75
     1
175
     1
 42
1.0
 92
        8
 66
     7
 43
1.0
 76
     1
 77
     6
 78
     2
 67
     7
 79
     5
170
     0
171
     0
290
     0
174
     0
 93
       13
 44
0.0
173
     0
291
     1
 45
0.0
  0
VISUALSTYLE
  5
2C
102
{ACAD_REACTORS
330
2A
102
}
102
{ACAD_XDICTIONARY
360
70
102
}
330
2A
100
AcDbVisualStyle
  2
FlatWithEdges
 70
     1
 71
     2
 72
     1
 73
     1
 90
        2
 40
-0.6
 41
30.0
 62
     5
 63
     7
421
 16777215
 74
     1
 91
        4
 64
     7
 65
   257
 75
     1
175
     1
 42
1.0
 92
        0
 66
   257
 43
1.0
 76
     1
 77
     6
 78
     2
 67
     7
 79
     5
170
     0
171
     0
290
     0
174
     0
 93
       13
 44
0.0
173
     0
291
     1
 45
0.0
  0
VISUALSTYLE
  5
2D
102
{ACAD_REACTORS
330
2A
102
}
102
{ACAD_XDICTIONARY
360
72
102
}
330
2A
100
AcDbVisualStyle
  2
Gouraud
 70
     2
 71
     2
 72
     2
 73
     1
 90
        2
 40
-0.6
 41
30.0
 62
     5
 63
     7
421
 16777215
 74
     0
 91
        4
 64
     7
 65
   257
 75
     1
175
     1
 42
1.0
 92
        0
 66
     7
 43
1.0
 76
     1
 77
     6
 78
     2
 67
     7
 79
     5
170
     0
171
     0
290
     0
174
     0
 93
       13
 44
0.0
173
     0
291
     1
 45
0.0
  0
VISUALSTYLE
  5
2E
102
{ACAD_REACTORS
330
2A
102
}
102
{ACAD_XDICTIONARY
360
74
102
}
330
2A
100
AcDbVisualStyle
  2
GouraudWithEdges
 70
     3
 71
     2
 72
     2
 73
     1
 90
        2
 40
-0.6
 41
30.0
 62
     5
 63
     7
421
 16777215
 74
     1
 91
        4
 64
     7
 65
   257
 75
     1
175
     1
 42
1.0
 92
        0
 66
   257
 43
1.0
 76
     1
 77
     6
 78
     2
 67
     7
 79
     5
170
     0
171
     0
290
     0
174
     0
 93
       13
 44
0.0
173
     0
291
     1
 45
0.0
  0
VISUALSTYLE
  5
38
102
{ACAD_REACTORS
330
2A
102
}
102
{ACAD_XDICTIONARY
360
88
102
}
330
2A
100
AcDbVisualStyle
  2
Linepattern
 70
    14
 71
     2
 72
     2
 73
     0
 90
        0
 40
-0.6
 41
-30.0
 62
     5
 63
     7
421
 16777215
 74
     1
 91
        4
 64
     7
 65
   257
 75
     7
175
     7
 42
1.0
 92
        8
 66
     7
 43
1.0
 76
     1
 77
     6
 78
     2
 67
     7
 79
     5
170
     0
171
     0
290
     0
174
     0
 93
        1
 44
0.0
173
     0
291
     1
 45
0.0
  0
VISUALSTYLE
  5
33
102
{ACAD_REACTORS
330
2A
102
}
102
{ACAD_XDICTIONARY
360
7E
102
}
330
2A
100
AcDbVisualStyle
  2
Realistic
 70
     8
 71
     2
 72
     2
 73
     0
 90
        0
 40
-0.6
 41
-30.0
 62
     5
 63
     7
421
 16777215
 74
     1
 91
        0
 64
     7
 65
   257
 75
     1
175
     1
 42
1.0
 92
        8
 66
     8
424
  7895160
 43
1.0
 76
     1
 77
     6
 78
     2
 67
     7
 79
     5
170
     0
171
     0
290
     0
174
     0
 93
       13
 44
0.0
173
     0
291
     0
 45
0.0
  0
VISUALSTYLE
  5
37
102
{ACAD_REACTORS
330
2A
102
}
102
{ACAD_XDICTIONARY
360
86
102
}
330
2A
100
AcDbVisualStyle
  2
Thicken
 70
    13
 71
     2
 72
     2
 73
     0
 90
        0
 40
-0.6
 41
-30.0
 62
     5
 63
     7
421
 16777215
 74
     1
 91
        4
 64
     7
 65
   257
 75
     1
175
     1
 42
1.0
 92
       12
 66
     7
 43
1.0
 76
     1
 77
     6
 78
     2
 67
     7
 79
     5
170
     0
171
     0
290
     0
174
     0
 93
        1
 44
0.0
173
     0
291
     1
 45
0.0
  0
DICTIONARY
  5
76
330
2F
100
AcDbDictionary
280
     1
281
     1
  3
ACAD_XREC_ROUNDTRIP
360
77
  0
DICTIONARY
  5
7A
330
31
100
AcDbDictionary
280
     1
281
     1
  3
ACAD_XREC_ROUNDTRIP
360
7B
  0
DICTIONARY
  5
78
330
30
100
AcDbDictionary
280
     1
281
     1
  3
ACAD_XREC_ROUNDTRIP
360
79
  0
DICTIONARY
  5
7C
330
32
100
AcDbDictionary
280
     1
281
     1
  3
ACAD_XREC_ROUNDTRIP
360
7D
  0
DICTIONARY
  5
84
330
36
100
AcDbDictionary
280
     1
281
     1
  3
ACAD_XREC_ROUNDTRIP
360
85
  0
DICTIONARY
  5
8C
330
3A
100
AcDbDictionary
280
     1
281
     1
  3
ACAD_XREC_ROUNDTRIP
360
8D
  0
DICTIONARY
  5
80
330
34
100
AcDbDictionary
280
     1
281
     1
  3
ACAD_XREC_ROUNDTRIP
360
81
  0
DICTIONARY
  5
82
330
35
100
AcDbDictionary
280
     1
281
     1
  3
ACAD_XREC_ROUNDTRIP
360
83
  0
DICTIONARY
  5
8A
330
39
100
AcDbDictionary
280
     1
281
     1
  3
ACAD_XREC_ROUNDTRIP
360
8B
  0
DICTIONARY
  5
6E
330
2B
100
AcDbDictionary
280
     1
281
     1
  3
ACAD_XREC_ROUNDTRIP
360
6F
  0
DICTIONARY
  5
70
330
2C
100
AcDbDictionary
280
     1
281
     1
  3
ACAD_XREC_ROUNDTRIP
360
71
  0
DICTIONARY
  5
72
330
2D
100
AcDbDictionary
280
     1
281
     1
  3
ACAD_XREC_ROUNDTRIP
360
73
  0
DICTIONARY
  5
74
330
2E
100
AcDbDictionary
280
     1
281
     1
  3
ACAD_XREC_ROUNDTRIP
360
75
  0
DICTIONARY
  5
88
330
38
100
AcDbDictionary
280
     1
281
     1
  3
ACAD_XREC_ROUNDTRIP
360
89
  0
DICTIONARY
  5
7E
330
33
100
AcDbDictionary
280
     1
281
     1
  3
ACAD_XREC_ROUNDTRIP
360
7F
  0
DICTIONARY
  5
86
330
37
100
AcDbDictionary
280
     1
281
     1
  3
ACAD_XREC_ROUNDTRIP
360
87
  0
XRECORD
  5
77
102
{ACAD_REACTORS
330
76
102
}
330
76
100
AcDbXrecord
280
     1
102
RTVSPropertyOp0
 70
     1
102
RTVSPropertyOp1
 70
     1
102
RTVSPropertyOp2
 70
     1
102
RTVSPropertyOp3
 70
     1
102
RTVSPropertyOp4
 70
     1
102
RTVSPropertyOp5
 70
     1
102
RTVSPropertyOp6
 70
     1
102
RTVSPropertyOp7
 70
     1
102
RTVSPropertyOp8
 70
     1
102
RTVSPropertyOp9
 70
     1
102
RTVSPropertyOp10
 70
     1
102
RTVSPropertyOp11
 70
     1
102
RTVSPropertyOp12
 70
     1
102
RTVSPropertyOp13
 70
     1
102
RTVSPropertyOp14
 70
     1
102
RTVSPropertyOp15
 70
     1
102
RTVSPropertyOp16
 70
     1
102
RTVSPropertyOp17
 70
     1
102
RTVSPropertyOp18
 70
     1
102
RTVSPropertyOp19
 70
     1
102
RTVSPropertyOp20
 70
     1
102
RTVSPropertyOp21
 70
     1
102
RTVSPropertyOp22
 70
     1
102
RTVSPropertyOp23
 70
     1
102
RTVSPropertyOp24
 70
     1
102
RTVSPropertyOp25
 70
     1
102
RTVSPropertyOp26
 70
     1
102
RTVSPropertyOp27
 70
     1
  0
XRECORD
  5
7B
102
{ACAD_REACTORS
330
7A
102
}
330
7A
100
AcDbXrecord
280
     1
102
RTVSPropertyOp0
 70
     1
102
RTVSPropertyOp1
 70
     1
102
RTVSPropertyOp2
 70
     1
102
RTVSPropertyOp3
 70
     1
102
RTVSPropertyOp4
 70
     1
102
RTVSPropertyOp5
 70
     1
102
RTVSPropertyOp6
 70
     1
102
RTVSPropertyOp7
 70
     1
102
RTVSPropertyOp8
 70
     1
102
RTVSPropertyOp9
 70
     1
102
RTVSPropertyOp10
 70
     1
102
RTVSPropertyOp11
 70
     1
102
RTVSPropertyOp12
 70
     1
102
RTVSPropertyOp13
 70
     1
102
RTVSPropertyOp14
 70
     1
102
RTVSPropertyOp15
 70
     1
102
RTVSPropertyOp16
 70
     1
102
RTVSPropertyOp17
 70
     1
102
RTVSPropertyOp18
 70
     1
102
RTVSPropertyOp19
 70
     1
102
RTVSPropertyOp20
 70
     1
102
RTVSPropertyOp21
 70
     1
102
RTVSPropertyOp22
 70
     1
102
RTVSPropertyOp23
 70
     1
102
RTVSPropertyOp24
 70
     1
102
RTVSPropertyOp25
 70
     1
102
RTVSPropertyOp26
 70
     1
102
RTVSPropertyOp27
 70
     1
  0
XRECORD
  5
79
102
{ACAD_REACTORS
330
78
102
}
330
78
100
AcDbXrecord
280
     1
102
RTVSPropertyOp0
 70
     1
102
RTVSPropertyOp1
 70
     1
102
RTVSPropertyOp2
 70
     1
102
RTVSPropertyOp3
 70
     1
102
RTVSPropertyOp4
 70
     1
102
RTVSPropertyOp5
 70
     1
102
RTVSPropertyOp6
 70
     1
102
RTVSPropertyOp7
 70
     1
102
RTVSPropertyOp8
 70
     1
102
RTVSPropertyOp9
 70
     1
102
RTVSPropertyOp10
 70
     1
102
RTVSPropertyOp11
 70
     1
102
RTVSPropertyOp12
 70
     1
102
RTVSPropertyOp13
 70
     1
102
RTVSPropertyOp14
 70
     1
102
RTVSPropertyOp15
 70
     1
102
RTVSPropertyOp16
 70
     1
102
RTVSPropertyOp17
 70
     1
102
RTVSPropertyOp18
 70
     1
102
RTVSPropertyOp19
 70
     1
102
RTVSPropertyOp20
 70
     1
102
RTVSPropertyOp21
 70
     1
102
RTVSPropertyOp22
 70
     1
102
RTVSPropertyOp23
 70
     1
102
RTVSPropertyOp24
 70
     1
102
RTVSPropertyOp25
 70
     1
102
RTVSPropertyOp26
 70
     1
102
RTVSPropertyOp27
 70
     1
  0
XRECORD
  5
7D
102
{ACAD_REACTORS
330
7C
102
}
330
7C
100
AcDbXrecord
280
     1
102
RTVSPropertyOp0
 70
     1
102
RTVSPropertyOp1
 70
     1
102
RTVSPropertyOp2
 70
     1
102
RTVSPropertyOp3
 70
     1
102
RTVSPropertyOp4
 70
     1
102
RTVSPropertyOp5
 70
     1
102
RTVSPropertyOp6
 70
     1
102
RTVSPropertyOp7
 70
     1
102
RTVSPropertyOp8
 70
     1
102
RTVSPropertyOp9
 70
     1
102
RTVSPropertyOp10
 70
     1
102
RTVSPropertyOp11
 70
     1
102
RTVSPropertyOp12
 70
     1
102
RTVSPropertyOp13
 70
     1
102
RTVSPropertyOp14
 70
     1
102
RTVSPropertyOp15
 70
     1
102
RTVSPropertyOp16
 70
     1
102
RTVSPropertyOp17
 70
     1
102
RTVSPropertyOp18
 70
     1
102
RTVSPropertyOp19
 70
     1
102
RTVSPropertyOp20
 70
     1
102
RTVSPropertyOp21
 70
     1
102
RTVSPropertyOp22
 70
     1
102
RTVSPropertyOp23
 70
     1
102
RTVSPropertyOp24
 70
     1
102
RTVSPropertyOp25
 70
     1
102
RTVSPropertyOp26
 70
     1
102
RTVSPropertyOp27
 70
     1
  0
XRECORD
  5
85
102
{ACAD_REACTORS
330
84
102
}
330
84
100
AcDbXrecord
280
     1
102
RTVSPropertyOp0
 70
     1
102
RTVSPropertyOp1
 70
     1
102
RTVSPropertyOp2
 70
     1
102
RTVSPropertyOp3
 70
     1
102
RTVSPropertyOp4
 70
     1
102
RTVSPropertyOp5
 70
     1
102
RTVSPropertyOp6
 70
     1
102
RTVSPropertyOp7
 70
     1
102
RTVSPropertyOp8
 70
     1
102
RTVSPropertyOp9
 70
     1
102
RTVSPropertyOp10
 70
     1
102
RTVSPropertyOp11
 70
     1
102
RTVSPropertyOp12
 70
     1
102
RTVSPropertyOp13
 70
     1
102
RTVSPropertyOp14
 70
     1
102
RTVSPropertyOp15
 70
     1
102
RTVSPropertyOp16
 70
     1
102
RTVSPropertyOp17
 70
     1
102
RTVSPropertyOp18
 70
     1
102
RTVSPropertyOp19
 70
     1
102
RTVSPropertyOp20
 70
     1
102
RTVSPropertyOp21
 70
     1
102
RTVSPropertyOp22
 70
     1
102
RTVSPropertyOp23
 70
     1
102
RTVSPropertyOp24
 70
     1
102
RTVSPropertyOp25
 70
     1
102
RTVSPropertyOp26
 70
     1
102
RTVSPropertyOp27
 70
     1
  0
XRECORD
  5
8D
102
{ACAD_REACTORS
330
8C
102
}
330
8C
100
AcDbXrecord
280
     1
102
RTVSPropertyOp0
 70
     1
102
RTVSPropertyOp1
 70
     1
102
RTVSPropertyOp2
 70
     1
102
RTVSPropertyOp3
 70
     1
102
RTVSPropertyOp4
 70
     1
102
RTVSPropertyOp5
 70
     1
102
RTVSPropertyOp6
 70
     1
102
RTVSPropertyOp7
 70
     1
102
RTVSPropertyOp8
 70
     1
102
RTVSPropertyOp9
 70
     1
102
RTVSPropertyOp10
 70
     1
102
RTVSPropertyOp11
 70
     1
102
RTVSPropertyOp12
 70
     1
102
RTVSPropertyOp13
 70
     1
102
RTVSPropertyOp14
 70
     1
102
RTVSPropertyOp15
 70
     1
102
RTVSPropertyOp16
 70
     1
102
RTVSPropertyOp17
 70
     1
102
RTVSPropertyOp18
 70
     1
102
RTVSPropertyOp19
 70
     1
102
RTVSPropertyOp20
 70
     1
102
RTVSPropertyOp21
 70
     1
102
RTVSPropertyOp22
 70
     1
102
RTVSPropertyOp23
 70
     1
102
RTVSPropertyOp24
 70
     1
102
RTVSPropertyOp25
 70
     1
102
RTVSPropertyOp26
 70
     1
102
RTVSPropertyOp27
 70
     1
  0
XRECORD
  5
81
102
{ACAD_REACTORS
330
80
102
}
330
80
100
AcDbXrecord
280
     1
102
RTVSPropertyOp0
 70
     1
102
RTVSPropertyOp1
 70
     1
102
RTVSPropertyOp2
 70
     1
102
RTVSPropertyOp3
 70
     1
102
RTVSPropertyOp4
 70
     1
102
RTVSPropertyOp5
 70
     1
102
RTVSPropertyOp6
 70
     1
102
RTVSPropertyOp7
 70
     1
102
RTVSPropertyOp8
 70
     1
102
RTVSPropertyOp9
 70
     1
102
RTVSPropertyOp10
 70
     1
102
RTVSPropertyOp11
 70
     1
102
RTVSPropertyOp12
 70
     1
102
RTVSPropertyOp13
 70
     1
102
RTVSPropertyOp14
 70
     1
102
RTVSPropertyOp15
 70
     1
102
RTVSPropertyOp16
 70
     1
102
RTVSPropertyOp17
 70
     1
102
RTVSPropertyOp18
 70
     1
102
RTVSPropertyOp19
 70
     1
102
RTVSPropertyOp20
 70
     1
102
RTVSPropertyOp21
 70
     1
102
RTVSPropertyOp22
 70
     1
102
RTVSPropertyOp23
 70
     1
102
RTVSPropertyOp24
 70
     1
102
RTVSPropertyOp25
 70
     1
102
RTVSPropertyOp26
 70
     1
102
RTVSPropertyOp27
 70
     1
  0
XRECORD
  5
83
102
{ACAD_REACTORS
330
82
102
}
330
82
100
AcDbXrecord
280
     1
102
RTVSPropertyOp0
 70
     1
102
RTVSPropertyOp1
 70
     1
102
RTVSPropertyOp2
 70
     1
102
RTVSPropertyOp3
 70
     1
102
RTVSPropertyOp4
 70
     1
102
RTVSPropertyOp5
 70
     1
102
RTVSPropertyOp6
 70
     1
102
RTVSPropertyOp7
 70
     1
102
RTVSPropertyOp8
 70
     1
102
RTVSPropertyOp9
 70
     1
102
RTVSPropertyOp10
 70
     1
102
RTVSPropertyOp11
 70
     1
102
RTVSPropertyOp12
 70
     1
102
RTVSPropertyOp13
 70
     1
102
RTVSPropertyOp14
 70
     1
102
RTVSPropertyOp15
 70
     1
102
RTVSPropertyOp16
 70
     1
102
RTVSPropertyOp17
 70
     1
102
RTVSPropertyOp18
 70
     1
102
RTVSPropertyOp19
 70
     1
102
RTVSPropertyOp20
 70
     1
102
RTVSPropertyOp21
 70
     1
102
RTVSPropertyOp22
 70
     1
102
RTVSPropertyOp23
 70
     1
102
RTVSPropertyOp24
 70
     1
102
RTVSPropertyOp25
 70
     1
102
RTVSPropertyOp26
 70
     1
102
RTVSPropertyOp27
 70
     1
  0
XRECORD
  5
8B
102
{ACAD_REACTORS
330
8A
102
}
330
8A
100
AcDbXrecord
280
     1
102
RTVSPropertyOp0
 70
     1
102
RTVSPropertyOp1
 70
     1
102
RTVSPropertyOp2
 70
     1
102
RTVSPropertyOp3
 70
     1
102
RTVSPropertyOp4
 70
     1
102
RTVSPropertyOp5
 70
     1
102
RTVSPropertyOp6
 70
     1
102
RTVSPropertyOp7
 70
     1
102
RTVSPropertyOp8
 70
     1
102
RTVSPropertyOp9
 70
     1
102
RTVSPropertyOp10
 70
     1
102
RTVSPropertyOp11
 70
     1
102
RTVSPropertyOp12
 70
     1
102
RTVSPropertyOp13
 70
     1
102
RTVSPropertyOp14
 70
     1
102
RTVSPropertyOp15
 70
     1
102
RTVSPropertyOp16
 70
     1
102
RTVSPropertyOp17
 70
     1
102
RTVSPropertyOp18
 70
     1
102
RTVSPropertyOp19
 70
     1
102
RTVSPropertyOp20
 70
     1
102
RTVSPropertyOp21
 70
     1
102
RTVSPropertyOp22
 70
     1
102
RTVSPropertyOp23
 70
     1
102
RTVSPropertyOp24
 70
     1
102
RTVSPropertyOp25
 70
     1
102
RTVSPropertyOp26
 70
     1
102
RTVSPropertyOp27
 70
     1
  0
XRECORD
  5
6F
102
{ACAD_REACTORS
330
6E
102
}
330
6E
100
AcDbXrecord
280
     1
102
RTVSPropertyOp0
 70
     1
102
RTVSPropertyOp1
 70
     1
102
RTVSPropertyOp2
 70
     1
102
RTVSPropertyOp3
 70
     1
102
RTVSPropertyOp4
 70
     1
102
RTVSPropertyOp5
 70
     1
102
RTVSPropertyOp6
 70
     1
102
RTVSPropertyOp7
 70
     1
102
RTVSPropertyOp8
 70
     1
102
RTVSPropertyOp9
 70
     1
102
RTVSPropertyOp10
 70
     1
102
RTVSPropertyOp11
 70
     1
102
RTVSPropertyOp12
 70
     1
102
RTVSPropertyOp13
 70
     1
102
RTVSPropertyOp14
 70
     1
102
RTVSPropertyOp15
 70
     1
102
RTVSPropertyOp16
 70
     1
102
RTVSPropertyOp17
 70
     1
102
RTVSPropertyOp18
 70
     1
102
RTVSPropertyOp19
 70
     1
102
RTVSPropertyOp20
 70
     1
102
RTVSPropertyOp21
 70
     1
102
RTVSPropertyOp22
 70
     1
102
RTVSPropertyOp23
 70
     1
102
RTVSPropertyOp24
 70
     1
102
RTVSPropertyOp25
 70
     1
102
RTVSPropertyOp26
 70
     1
102
RTVSPropertyOp27
 70
     1
  0
XRECORD
  5
71
102
{ACAD_REACTORS
330
70
102
}
330
70
100
AcDbXrecord
280
     1
102
RTVSPropertyOp0
 70
     1
102
RTVSPropertyOp1
 70
     1
102
RTVSPropertyOp2
 70
     1
102
RTVSPropertyOp3
 70
     1
102
RTVSPropertyOp4
 70
     1
102
RTVSPropertyOp5
 70
     1
102
RTVSPropertyOp6
 70
     1
102
RTVSPropertyOp7
 70
     1
102
RTVSPropertyOp8
 70
     1
102
RTVSPropertyOp9
 70
     1
102
RTVSPropertyOp10
 70
     1
102
RTVSPropertyOp11
 70
     1
102
RTVSPropertyOp12
 70
     1
102
RTVSPropertyOp13
 70
     1
102
RTVSPropertyOp14
 70
     1
102
RTVSPropertyOp15
 70
     1
102
RTVSPropertyOp16
 70
     1
102
RTVSPropertyOp17
 70
     1
102
RTVSPropertyOp18
 70
     1
102
RTVSPropertyOp19
 70
     1
102
RTVSPropertyOp20
 70
     1
102
RTVSPropertyOp21
 70
     1
102
RTVSPropertyOp22
 70
     1
102
RTVSPropertyOp23
 70
     1
102
RTVSPropertyOp24
 70
     1
102
RTVSPropertyOp25
 70
     1
102
RTVSPropertyOp26
 70
     1
102
RTVSPropertyOp27
 70
     1
  0
XRECORD
  5
73
102
{ACAD_REACTORS
330
72
102
}
330
72
100
AcDbXrecord
280
     1
102
RTVSPropertyOp0
 70
     1
102
RTVSPropertyOp1
 70
     1
102
RTVSPropertyOp2
 70
     1
102
RTVSPropertyOp3
 70
     1
102
RTVSPropertyOp4
 70
     1
102
RTVSPropertyOp5
 70
     1
102
RTVSPropertyOp6
 70
     1
102
RTVSPropertyOp7
 70
     1
102
RTVSPropertyOp8
 70
     1
102
RTVSPropertyOp9
 70
     1
102
RTVSPropertyOp10
 70
     1
102
RTVSPropertyOp11
 70
     1
102
RTVSPropertyOp12
 70
     1
102
RTVSPropertyOp13
 70
     1
102
RTVSPropertyOp14
 70
     1
102
RTVSPropertyOp15
 70
     1
102
RTVSPropertyOp16
 70
     1
102
RTVSPropertyOp17
 70
     1
102
RTVSPropertyOp18
 70
     1
102
RTVSPropertyOp19
 70
     1
102
RTVSPropertyOp20
 70
     1
102
RTVSPropertyOp21
 70
     1
102
RTVSPropertyOp22
 70
     1
102
RTVSPropertyOp23
 70
     1
102
RTVSPropertyOp24
 70
     1
102
RTVSPropertyOp25
 70
     1
102
RTVSPropertyOp26
 70
     1
102
RTVSPropertyOp27
 70
     1
  0
XRECORD
  5
75
102
{ACAD_REACTORS
330
74
102
}
330
74
100
AcDbXrecord
280
     1
102
RTVSPropertyOp0
 70
     1
102
RTVSPropertyOp1
 70
     1
102
RTVSPropertyOp2
 70
     1
102
RTVSPropertyOp3
 70
     1
102
RTVSPropertyOp4
 70
     1
102
RTVSPropertyOp5
 70
     1
102
RTVSPropertyOp6
 70
     1
102
RTVSPropertyOp7
 70
     1
102
RTVSPropertyOp8
 70
     1
102
RTVSPropertyOp9
 70
     1
102
RTVSPropertyOp10
 70
     1
102
RTVSPropertyOp11
 70
     1
102
RTVSPropertyOp12
 70
     1
102
RTVSPropertyOp13
 70
     1
102
RTVSPropertyOp14
 70
     1
102
RTVSPropertyOp15
 70
     1
102
RTVSPropertyOp16
 70
     1
102
RTVSPropertyOp17
 70
     1
102
RTVSPropertyOp18
 70
     1
102
RTVSPropertyOp19
 70
     1
102
RTVSPropertyOp20
 70
     1
102
RTVSPropertyOp21
 70
     1
102
RTVSPropertyOp22
 70
     1
102
RTVSPropertyOp23
 70
     1
102
RTVSPropertyOp24
 70
     1
102
RTVSPropertyOp25
 70
     1
102
RTVSPropertyOp26
 70
     1
102
RTVSPropertyOp27
 70
     1
  0
XRECORD
  5
89
102
{ACAD_REACTORS
330
88
102
}
330
88
100
AcDbXrecord
280
     1
102
RTVSPropertyOp0
 70
     1
102
RTVSPropertyOp1
 70
     1
102
RTVSPropertyOp2
 70
     1
102
RTVSPropertyOp3
 70
     1
102
RTVSPropertyOp4
 70
     1
102
RTVSPropertyOp5
 70
     1
102
RTVSPropertyOp6
 70
     1
102
RTVSPropertyOp7
 70
     1
102
RTVSPropertyOp8
 70
     1
102
RTVSPropertyOp9
 70
     1
102
RTVSPropertyOp10
 70
     1
102
RTVSPropertyOp11
 70
     1
102
RTVSPropertyOp12
 70
     1
102
RTVSPropertyOp13
 70
     1
102
RTVSPropertyOp14
 70
     1
102
RTVSPropertyOp15
 70
     1
102
RTVSPropertyOp16
 70
     1
102
RTVSPropertyOp17
 70
     1
102
RTVSPropertyOp18
 70
     1
102
RTVSPropertyOp19
 70
     1
102
RTVSPropertyOp20
 70
     1
102
RTVSPropertyOp21
 70
     1
102
RTVSPropertyOp22
 70
     1
102
RTVSPropertyOp23
 70
     1
102
RTVSPropertyOp24
 70
     1
102
RTVSPropertyOp25
 70
     1
102
RTVSPropertyOp26
 70
     1
102
RTVSPropertyOp27
 70
     1
  0
XRECORD
  5
7F
102
{ACAD_REACTORS
330
7E
102
}
330
7E
100
AcDbXrecord
280
     1
102
RTVSPropertyOp0
 70
     1
102
RTVSPropertyOp1
 70
     1
102
RTVSPropertyOp2
 70
     1
102
RTVSPropertyOp3
 70
     1
102
RTVSPropertyOp4
 70
     1
102
RTVSPropertyOp5
 70
     1
102
RTVSPropertyOp6
 70
     1
102
RTVSPropertyOp7
 70
     1
102
RTVSPropertyOp8
 70
     1
102
RTVSPropertyOp9
 70
     1
102
RTVSPropertyOp10
 70
     1
102
RTVSPropertyOp11
 70
     1
102
RTVSPropertyOp12
 70
     1
102
RTVSPropertyOp13
 70
     1
102
RTVSPropertyOp14
 70
     1
102
RTVSPropertyOp15
 70
     1
102
RTVSPropertyOp16
 70
     1
102
RTVSPropertyOp17
 70
     1
102
RTVSPropertyOp18
 70
     1
102
RTVSPropertyOp19
 70
     1
102
RTVSPropertyOp20
 70
     1
102
RTVSPropertyOp21
 70
     1
102
RTVSPropertyOp22
 70
     1
102
RTVSPropertyOp23
 70
     1
102
RTVSPropertyOp24
 70
     1
102
RTVSPropertyOp25
 70
     1
102
RTVSPropertyOp26
 70
     1
102
RTVSPropertyOp27
 70
     1
  0
XRECORD
  5
87
102
{ACAD_REACTORS
330
86
102
}
330
86
100
AcDbXrecord
280
     1
102
RTVSPropertyOp0
 70
     1
102
RTVSPropertyOp1
 70
     1
102
RTVSPropertyOp2
 70
     1
102
RTVSPropertyOp3
 70
     1
102
RTVSPropertyOp4
 70
     1
102
RTVSPropertyOp5
 70
     1
102
RTVSPropertyOp6
 70
     1
102
RTVSPropertyOp7
 70
     1
102
RTVSPropertyOp8
 70
     1
102
RTVSPropertyOp9
 70
     1
102
RTVSPropertyOp10
 70
     1
102
RTVSPropertyOp11
 70
     1
102
RTVSPropertyOp12
 70
     1
102
RTVSPropertyOp13
 70
     1
102
RTVSPropertyOp14
 70
     1
102
RTVSPropertyOp15
 70
     1
102
RTVSPropertyOp16
 70
     1
102
RTVSPropertyOp17
 70
     1
102
RTVSPropertyOp18
 70
     1
102
RTVSPropertyOp19
 70
     1
102
RTVSPropertyOp20
 70
     1
102
RTVSPropertyOp21
 70
     1
102
RTVSPropertyOp22
 70
     1
102
RTVSPropertyOp23
 70
     1
102
RTVSPropertyOp24
 70
     1
102
RTVSPropertyOp25
 70
     1
102
RTVSPropertyOp26
 70
     1
102
RTVSPropertyOp27
 70
     1
  0
ENDSEC
  0
EOF
