  0
SECTION
  2
HEADER
  9
$ACADVER
  1
AC1015
  9
$ACADMAINTVER
 70
     6
  9
$DWGCODEPAGE
  3
ANSI_1252
  9
$INSBASE
 10
0.0
 20
0.0
 30
0.0
  9
$EXTMIN
 10
0.0
 20
0.040419
 30
0.0
  9
$EXTMAX
 10
285.10498
 20
169.018692
 30
0.0
  9
$LIMMIN
 10
0.0
 20
0.040419
  9
$LIMMAX
 10
285.10498
 20
169.018692
  9
$ORTHOMODE
 70
     0
  9
$REGENMODE
 70
     1
  9
$FILLMODE
 70
     1
  9
$QTEXTMODE
 70
     0
  9
$MIRRTEXT
 70
     1
  9
$LTSCALE
 40
1.0
  9
$ATTMODE
 70
     1
  9
$TEXTSIZE
 40
0.2
  9
$TRACEWID
 40
0.05
  9
$TEXTSTYLE
  7
STANDARD
  9
$CLAYER
  8
0
  9
$CELTYPE
  6
Continuous
  9
$CECOLOR
 62
     7
  9
$CELTSCALE
 40
1.0
  9
$DISPSILH
 70
     0
  9
$DIMSCALE
 40
1.0
  9
$DIMASZ
 40
0.18
  9
$DIMEXO
 40
0.0625
  9
$DIMDLI
 40
0.38
  9
$DIMRND
 40
0.0
  9
$DIMDLE
 40
0.0
  9
$DIMEXE
 40
0.18
  9
$DIMTP
 40
0.0
  9
$DIMTM
 40
0.0
  9
$DIMTXT
 40
0.18
  9
$DIMCEN
 40
0.09
  9
$DIMTSZ
 40
0.0
  9
$DIMTOL
 70
     0
  9
$DIMLIM
 70
     0
  9
$DIMTIH
 70
     1
  9
$DIMTOH
 70
     1
  9
$DIMSE1
 70
     0
  9
$DIMSE2
 70
     0
  9
$DIMTAD
 70
     0
  9
$DIMZIN
 70
     0
  9
$DIMBLK
  1

  9
$DIMASO
 70
     0
  9
$DIMSHO
 70
     1
  9
$DIMPOST
  1

  9
$DIMAPOST
  1

  9
$DIMALT
 70
     0
  9
$DIMALTD
 70
     2
  9
$DIMALTF
 40
25.4
  9
$DIMLFAC
 40
1.0
  9
$DIMTOFL
 70
     0
  9
$DIMTVP
 40
0.0
  9
$DIMTIX
 70
     0
  9
$DIMSOXD
 70
     0
  9
$DIMSAH
 70
     0
  9
$DIMBLK1
  1

  9
$DIMBLK2
  1

  9
$DIMSTYLE
  2
STANDARD
  9
$DIMCLRD
 70
     0
  9
$DIMCLRE
 70
     0
  9
$DIMCLRT
 70
     0
  9
$DIMTFAC
 40
1.0
  9
$DIMGAP
 40
0.09
  9
$DIMJUST
 70
     0
  9
$DIMSD1
 70
     0
  9
$DIMSD2
 70
     0
  9
$DIMTOLJ
 70
     1
  9
$DIMTZIN
 70
     0
  9
$DIMALTZ
 70
     0
  9
$DIMALTTZ
 70
     0
  9
$DIMUPT
 70
     0
  9
$DIMDEC
 70
     4
  9
$DIMTDEC
 70
     4
  9
$DIMALTU
 70
     2
  9
$DIMALTTD
 70
     2
  9
$DIMTXSTY
  7
STANDARD
  9
$DIMAUNIT
 70
     0
  9
$DIMADEC
 70
     4
  9
$DIMALTRND
 40
0.0
  9
$DIMAZIN
 70
     0
  9
$DIMDSEP
 70
     0
  9
$DIMATFIT
 70
     0
  9
$DIMFRAC
 70
     0
  9
$DIMLDRBLK
  1

  9
$DIMLUNIT
 70
     2
  9
$DIMLWD
 70
     0
  9
$DIMLWE
 70
     0
  9
$DIMTMOVE
 70
     0
  9
$LUNITS
 70
     2
  9
$LUPREC
 70
     4
  9
$SKETCHINC
 40
0.1
  9
$FILLETRAD
 40
0.0
  9
$AUNITS
 70
     0
  9
$AUPREC
 70
     0
  9
$MENU
  1
acad
  9
$ELEVATION
 40
0.0
  9
$PELEVATION
 40
0.0
  9
$THICKNESS
 40
0.0
  9
$LIMCHECK
 70
     0
  9
$CHAMFERA
 40
0.0
  9
$CHAMFERB
 40
0.0
  9
$CHAMFERC
 40
0.0
  9
$CHAMFERD
 40
0.0
  9
$SKPOLY
 70
     0
  9
$TDCREATE
 40
0.000000000
  9
$TDUCREATE
 40
0.000000000
  9
$TDUPDATE
 40
0.000000000
  9
$TDUUPDATE
 40
0.000000000
  9
$TDINDWG
 40
0.0000000000
  9
$TDUSRTIMER
 40
0.0000000000
  9
$USRTIMER
 70
     1
  9
$ANGBASE
 50
0.0
  9
$ANGDIR
 70
     0
  9
$PDMODE
 70
     0
  9
$PDSIZE
 40
0.0
  9
$PLINEWID
 40
0.0
  9
$SPLFRAME
 70
     0
  9
$SPLINETYPE
 70
     6
  9
$SPLINESEGS
 70
    20
  9
$HANDSEED
  5
1E9
  9
$SURFTAB1
 70
     6
  9
$SURFTAB2
 70
     6
  9
$SURFTYPE
 70
     6
  9
$SURFU
 70
     6
  9
$SURFV
 70
     6
  9
$UCSBASE
  2

  9
$UCSNAME
  2

  9
$UCSORG
 10
0.0
 20
0.0
 30
0.0
  9
$UCSXDIR
 10
1.0
 20
0.0
 30
0.0
  9
$UCSYDIR
 10
0.0
 20
1.0
 30
0.0
  9
$UCSORTHOREF
  2

  9
$UCSORTHOVIEW
 70
     0
  9
$UCSORGTOP
 10
0.0
 20
0.0
 30
0.0
  9
$UCSORGBOTTOM
 10
0.0
 20
0.0
 30
0.0
  9
$UCSORGLEFT
 10
0.0
 20
0.0
 30
0.0
  9
$UCSORGRIGHT
 10
0.0
 20
0.0
 30
0.0
  9
$UCSORGFRONT
 10
0.0
 20
0.0
 30
0.0
  9
$UCSORGBACK
 10
0.0
 20
0.0
 30
0.0
  9
$PUCSBASE
  2

  9
$PUCSNAME
  2

  9
$PUCSORG
 10
0.0
 20
0.0
 30
0.0
  9
$PUCSXDIR
 10
1.0
 20
0.0
 30
0.0
  9
$PUCSYDIR
 10
0.0
 20
1.0
 30
0.0
  9
$PUCSORTHOREF
  2

  9
$PUCSORTHOVIEW
 70
     0
  9
$PUCSORGTOP
 10
0.0
 20
0.0
 30
0.0
  9
$PUCSORGBOTTOM
 10
0.0
 20
0.0
 30
0.0
  9
$PUCSORGLEFT
 10
0.0
 20
0.0
 30
0.0
  9
$PUCSORGRIGHT
 10
0.0
 20
0.0
 30
0.0
  9
$PUCSORGFRONT
 10
0.0
 20
0.0
 30
0.0
  9
$PUCSORGBACK
 10
0.0
 20
0.0
 30
0.0
  9
$USERI1
 70
     0
  9
$USERI2
 70
     0
  9
$USERI3
 70
     0
  9
$USERI4
 70
     0
  9
$USERI5
 70
     0
  9
$USERR1
 40
0.0
  9
$USERR2
 40
0.0
  9
$USERR3
 40
0.0
  9
$USERR4
 40
0.0
  9
$USERR5
 40
0.0
  9
$WORLDVIEW
 70
     1
  9
$SHADEDGE
 70
     3
  9
$SHADEDIF
 70
    70
  9
$TILEMODE
 70
     1
  9
$MAXACTVP
 70
    16
  9
$PINSBASE
 10
0.0
 20
0.0
 30
0.0
  9
$PLIMCHECK
 70
     0
  9
$PEXTMIN
 10
0.0
 20
0.0
 30
0.0
  9
$PEXTMAX
 10
12.0
 20
9.0
 30
0.0
  9
$PLIMMIN
 10
0.0
 20
0.0
  9
$PLIMMAX
 10
12.0
 20
9.0
  9
$UNITMODE
 70
     0
  9
$VISRETAIN
 70
     0
  9
$PLINEGEN
 70
     1
  9
$PSLTSCALE
 70
     0
  9
$TREEDEPTH
 70
  3020
  9
$CMLSTYLE
  2
STANDARD
  9
$CMLJUST
 70
     0
  9
$CMLSCALE
 40
1.0
  9
$PROXYGRAPHICS
 70
     0
  9
$MEASUREMENT
 70
     0
  9
$CELWEIGHT
370
     0
  9
$ENDCAPS
280
     0
  9
$JOINSTYLE
280
     0
  9
$LWDISPLAY
290
     0
  9
$INSUNITS
 70
     0
  9
$HYPERLINKBASE
  1

  9
$XEDIT
290
     1
  9
$CEPSNTYPE
380
     0
  9
$PSTYLEMODE
290
     1
  9
$FINGERPRINTGUID
  2

  9
$VERSIONGUID
  2

  9
$EXTNAMES
290
     1
  9
$PSVPSCALE
 40
0.0
  0
ENDSEC
  0
SECTION
  2
CLASSES
  0
CLASS
  1
LWPOLYLINE
  2
AcDbPolyline
  3
AutoCAD 2000
 90
    32768
280
     0
281
     1
  0
CLASS
  1
IMAGE
  2
AcDbRasterImage
  3
ISM
 90
    32895
280
     0
281
     1
  0
CLASS
  1
OLE2FRAME
  2
AcDbOle2Frame
  3
AutoCAD 2000
 90
    32768
280
     0
281
     1
  0
CLASS
  1
HATCH
  2
AcDbHatch
  3
AutoCAD 2000
 90
    32768
280
     0
281
     1
  0
CLASS
  1
DICTIONARYVAR
  2
AcDbDictionaryVar
  3
AutoCAD 2000
 90
    32768
280
     0
281
     0
  0
CLASS
  1
RASTERVARIABLES
  2
AcDbRasterVariables
  3
ISM
 90
    32768
280
     0
281
     0
  0
CLASS
  1
IMAGEDEF
  2
AcDbRasterImageDef
  3
ISM
 90
    32768
280
     0
281
     0
  0
CLASS
  1
IMAGEDEF_REACTOR
  2
AcDbRasterImageDefReactor
  3
ISM
 90
    32769
280
     0
281
     0
  0
CLASS
  1
IDBUFFER
  2
AcDbIdBuffer
  3
AutoCAD 2000
 90
    32768
280
     0
281
     0
  0
CLASS
  1
SPATIAL_FILTER
  2
AcDbSpatialFilter
  3
AutoCAD 2000
 90
    32768
280
     0
281
     0
  0
CLASS
  1
XRECORD
  2
AcDbXrecord
  3
AutoCAD 2000
 90
    32768
280
     0
281
     0
  0
CLASS
  1
SORTENTSTABLE
  2
AcDbSortentsTable
  3
AutoCAD 2000
 90
    32768
280
     0
281
     0
  0
CLASS
  1
LAYER_INDEX
  2
AcDbLayerIndex
  3
AutoCAD 2000
 90
    32768
280
     0
281
     0
  0
CLASS
  1
SPATIAL_INDEX
  2
AcDbSpatialIndex
  3
AutoCAD 2000
 90
    32768
280
     0
281
     0
  0
CLASS
  1
OBJECT_PTR
  2
CAseDLPNTableRecord
  3
"ASE-LPNTableRecord"
 90
    32769
280
     0
281
     0
  0
CLASS
  1
LAYOUT
  2
AcDbLayout
  3
AutoCAD 2000
 90
        0
280
     0
281
     0
  0
CLASS
  1
PLOTSETTINGS
  2
AcDbPlotSettings
  3
AutoCAD 2000
 90
    32768
280
     0
281
     0
  0
CLASS
  1
ACDBDICTIONARYWDFLT
  2
AcDbDictionaryWithDefault
  3
AutoCAD 2000
 90
        0
280
     0
281
     0
  0
CLASS
  1
ACDBPLACEHOLDER
  2
AcDbPlaceHolder
  3
AutoCAD 2000
 90
        0
280
     0
281
     0
  0
ENDSEC
  0
SECTION
  2
TABLES
  0
TABLE
  2
VPORT
  5
7
100
AcDbSymbolTable
 70
     1
  0
VPORT
  5
15
100
AcDbSymbolTableRecord
100
AcDbViewportTableRecord
  2
*ACTIVE
 70
     0
 10
0.0
 20
0.0
 11
1.0
 21
1.0
 12
0.0
 22
0.0
 13
0.0
 23
0.0
 14
0.0
 24
0.0
 15
0.0
 25
0.0
 16
0.0
 26
0.0
 36
1.0
 17
142.552493
 27
84.529551
 37
2.0
 40
172.357834
 41
2.008696
 42
50.0
 43
0.0
 44
0.0
 50
0.0
 51
0.0
 71
     0
 72
   100
 73
     1
 74
     1
 75
     0
 76
     0
 77
     0
 78
     0
281
     0
 65
     0
110
0.0
120
0.0
130
0.0
111
1.0
121
0.0
131
0.0
112
0.0
122
1.0
132
0.0
345
0
346
0
 79
     0
146
0.0
  0
ENDTAB
  0
TABLE
  2
LTYPE
  5
4
100
AcDbSymbolTable
 70
    14
  0
LTYPE
  5
11
100
AcDbSymbolTableRecord
100
AcDbLinetypeTableRecord
  2
ByBlock
 70
    64
  3

 72
    65
 73
     0
 40
0.0
  0
LTYPE
  5
12
100
AcDbSymbolTableRecord
100
AcDbLinetypeTableRecord
  2
ByLayer
 70
    64
  3

 72
    65
 73
     0
 40
0.0
  0
LTYPE
  5
13
100
AcDbSymbolTableRecord
100
AcDbLinetypeTableRecord
  2
Continuous
 70
    64
  3
Solid line
 72
    65
 73
     0
 40
0.0
  0
LTYPE
  5
24
100
AcDbSymbolTableRecord
100
AcDbLinetypeTableRecord
  2
BORDER
 70
     0
  3
BORDER
 72
    65
 73
     6
 40
1.75
 49
0.5
 74
     0
 49
-0.25
 74
     0
 49
0.5
 74
     0
 49
-0.25
 74
     0
 49
0.0
 74
     0
 49
-0.25
 74
     0
  0
LTYPE
  5
25
100
AcDbSymbolTableRecord
100
AcDbLinetypeTableRecord
  2
CENTER
 70
     0
  3
CENTER
 72
    65
 73
     4
 40
2.0
 49
1.25
 74
     0
 49
-0.25
 74
     0
 49
0.25
 74
     0
 49
-0.25
 74
     0
  0
LTYPE
  5
26
100
AcDbSymbolTableRecord
100
AcDbLinetypeTableRecord
  2
DASHDOT
 70
     0
  3
DASHDOT
 72
    65
 73
     4
 40
1.0
 49
0.5
 74
     0
 49
-0.25
 74
     0
 49
0.0
 74
     0
 49
-0.25
 74
     0
  0
LTYPE
  5
27
100
AcDbSymbolTableRecord
100
AcDbLinetypeTableRecord
  2
DASHED
 70
     0
  3
DASHED
 72
    65
 73
     2
 40
0.75
 49
0.5
 74
     0
 49
-0.25
 74
     0
  0
LTYPE
  5
28
100
AcDbSymbolTableRecord
100
AcDbLinetypeTableRecord
  2
DIVIDE
 70
     0
  3
DIVIDE
 72
    65
 73
     6
 40
1.25
 49
0.5
 74
     0
 49
-0.25
 74
     0
 49
0.0
 74
     0
 49
-0.25
 74
     0
 49
0.0
 74
     0
 49
-0.25
 74
     0
  0
LTYPE
  5
29
100
AcDbSymbolTableRecord
100
AcDbLinetypeTableRecord
  2
DOT
 70
     0
  3
DOT
 72
    65
 73
     2
 40
0.25
 49
0.0
 74
     0
 49
-0.25
 74
     0
  0
LTYPE
  5
2A
100
AcDbSymbolTableRecord
100
AcDbLinetypeTableRecord
  2
HIDDEN
 70
     0
  3
HIDDEN
 72
    65
 73
     2
 40
0.375
 49
0.25
 74
     0
 49
-0.125
 74
     0
  0
LTYPE
  5
2B
100
AcDbSymbolTableRecord
100
AcDbLinetypeTableRecord
  2
PHANTOM
 70
     0
  3
PHANTOM
 72
    65
 73
     6
 40
2.5
 49
1.25
 74
     0
 49
-0.25
 74
     0
 49
0.25
 74
     0
 49
-0.25
 74
     0
 49
0.25
 74
     0
 49
-0.25
 74
     0
  0
LTYPE
  5
2C
100
AcDbSymbolTableRecord
100
AcDbLinetypeTableRecord
  2
$INVISIBLE
 70
     0
  3
$INVISIBLE
 72
    65
 73
     2
 40
200.0
 49
-100.0
 74
     0
 49
-100.0
 74
     0
  0
LTYPE
  5
2D
100
AcDbSymbolTableRecord
100
AcDbLinetypeTableRecord
  2
$SNAPEXT
 70
     0
  3
$SNAPEXT
 72
    65
 73
     2
 40
0.04
 49
0.02
 74
     0
 49
-0.02
 74
     0
  0
LTYPE
  5
2E
100
AcDbSymbolTableRecord
100
AcDbLinetypeTableRecord
  2
$AUXILIARY
 70
     0
  3
$AUXILIARY
 72
    65
 73
     2
 40
0.1
 49
0.05
 74
     0
 49
-0.05
 74
     0
  0
ENDTAB
  0
TABLE
  2
LAYER
  5
2
100
AcDbSymbolTable
 70
     1
  0
LAYER
  5
14
100
AcDbSymbolTableRecord
100
AcDbLayerTableRecord
  2
0
 70
     0
 62
     7
  6
Continuous
290
     1
370
    -3
390
0
1001
TCAD
1000
TCW_LAYER_ORDER
1002
{
1071
        0
1002
}
  0
ENDTAB
  0
TABLE
  2
STYLE
  5
3
100
AcDbSymbolTable
 70
     1
  0
STYLE
  5
17
100
AcDbSymbolTableRecord
100
AcDbTextStyleTableRecord
  2
STANDARD
 70
     0
 40
0.0
 41
1.0
 50
0.0
 71
     0
 42
0.0
  3
TXT.SHX
  4

  0
ENDTAB
  0
TABLE
  2
VIEW
  5
5
100
AcDbSymbolTable
 70
     1
  0
VIEW
  5
2F
100
AcDbSymbolTableRecord
100
AcDbViewTableRecord
  2
Vue_0
 70
     0
 40
210.0
 10
148.5
 20
105.0
 41
297.0
 11
0.0
 21
0.0
 31
1.0
 12
0.0
 22
0.0
 32
0.0
 42
50.0
 43
0.0
 44
0.0
 50
0.0
 71
     0
281
     0
 72
     0
110
0.0
120
0.0
130
0.0
111
1.0
121
0.0
131
0.0
112
0.0
122
1.0
132
0.0
  0
ENDTAB
  0
TABLE
  2
UCS
  5
6
100
AcDbSymbolTable
 70
     0
  0
ENDTAB
  0
TABLE
  2
APPID
  5
8
100
AcDbSymbolTable
 70
     2
  0
APPID
  5
16
100
AcDbSymbolTableRecord
100
AcDbRegAppTableRecord
  2
ACAD
 70
     0
  0
APPID
  5
23
100
AcDbSymbolTableRecord
100
AcDbRegAppTableRecord
  2
TCAD
 70
     0
  0
ENDTAB
  0
TABLE
  2
DIMSTYLE
  5
9
100
AcDbSymbolTable
 70
     1
100
AcDbDimStyleTable
 71
     0
  0
DIMSTYLE
105
18
100
AcDbSymbolTableRecord
100
AcDbDimStyleTableRecord
  2
STANDARD
 70
     0
  3

  4

 40
1.0
 41
0.18
 42
0.0625
 43
0.38
 44
0.18
 45
0.0
 46
0.0
 47
0.0
 48
0.0
 71
     0
 72
     0
 73
     1
 74
     1
 75
     0
 76
     0
 77
     0
 78
     0
 79
     0
140
0.18
141
0.09
142
0.0
143
25.4
144
1.0
145
0.0
146
1.0
147
0.09
148
0.01
170
     0
171
     2
172
     0
173
     0
174
     0
175
     0
176
     0
177
     0
178
     0
179
     4
271
     4
272
     4
273
     2
274
     2
275
     0
276
     0
277
     2
278
    46
279
     0
280
     0
281
     0
282
     0
283
     1
284
     0
285
     0
286
     0
288
     0
340
17
341
0
342
0
343
0
344
0
371
    -2
372
    -2
  0
ENDTAB
  0
TABLE
  2
BLOCK_RECORD
  5
1
100
AcDbSymbolTable
 70
     4
  0
BLOCK_RECORD
  5
A
100
AcDbSymbolTableRecord
100
AcDbBlockTableRecord
  2
*MODEL_SPACE
340
1E7
  0
BLOCK_RECORD
  5
B
100
AcDbSymbolTableRecord
100
AcDbBlockTableRecord
  2
*PAPER_SPACE
340
1E8
  0
BLOCK_RECORD
  5
175
100
AcDbSymbolTableRecord
100
AcDbBlockTableRecord
  2
*E0
340
0
102
{BLKREFS
331
18F
102
}
  0
BLOCK_RECORD
  5
192
100
AcDbSymbolTableRecord
100
AcDbBlockTableRecord
  2
*E1
340
0
102
{BLKREFS
331
1AC
102
}
  0
BLOCK_RECORD
  5
1AF
100
AcDbSymbolTableRecord
100
AcDbBlockTableRecord
  2
*E2
340
0
102
{BLKREFS
331
1C9
102
}
  0
BLOCK_RECORD
  5
1CB
100
AcDbSymbolTableRecord
100
AcDbBlockTableRecord
  2
*E3
340
0
102
{BLKREFS
331
1E5
102
}
  0
ENDTAB
  0
ENDSEC
  0
SECTION
  2
BLOCKS
  0
BLOCK
  5
D
100
AcDbEntity
  8
0
100
AcDbBlockBegin
  2
*MODEL_SPACE
 70
     0
 10
0.0
 20
0.0
 30
0.0
  3
*MODEL_SPACE
  1

  0
ENDBLK
  5
E
100
AcDbEntity
  8
0
100
AcDbBlockEnd
  0
BLOCK
  5
F
100
AcDbEntity
 67
     1
  8
0
100
AcDbBlockBegin
  2
*PAPER_SPACE
 70
     0
 10
0.0
 20
0.0
 30
0.0
  3
*PAPER_SPACE
  1

  0
ENDBLK
  5
10
100
AcDbEntity
 67
     1
  8
0
100
AcDbBlockEnd
  0
BLOCK
  5
176
100
AcDbEntity
  8
0
100
AcDbBlockBegin
  2
*E0
 70
     1
 10
0.0
 20
0.0
 30
0.0
  3
*E0
  1

  0
POLYLINE
  5
177
100
AcDbEntity
  8
0
370
     0
  6
Continuous
 62
     7
100
AcDb2dPolyline
 66
     1
 10
0.0
 20
0.0
 30
0.0
 70
   128
  0
VERTEX
  5
178
100
AcDbEntity
  8
0
  6
Continuous
 62
     7
100
AcDbVertex
100
AcDb2dVertex
 10
77.915732
 20
91.997778
 30
0.0
  0
VERTEX
  5
179
100
AcDbEntity
  8
0
  6
Continuous
 62
     7
100
AcDbVertex
100
AcDb2dVertex
 10
77.731462
 20
91.319486
 30
0.0
  0
VERTEX
  5
17A
100
AcDbEntity
  8
0
  6
Continuous
 62
     7
100
AcDbVertex
100
AcDb2dVertex
 10
77.420608
 20
90.630963
 30
0.0
  0
VERTEX
  5
17B
100
AcDbEntity
  8
0
  6
Continuous
 62
     7
100
AcDbVertex
100
AcDb2dVertex
 10
76.989592
 20
89.943056
 30
0.0
  0
VERTEX
  5
17C
100
AcDbEntity
  8
0
  6
Continuous
 62
     7
100
AcDbVertex
100
AcDb2dVertex
 10
76.444834
 20
89.266611
 30
0.0
  0
VERTEX
  5
17D
100
AcDbEntity
  8
0
  6
Continuous
 62
     7
100
AcDbVertex
100
AcDb2dVertex
 10
75.792756
 20
88.612474
 30
0.0
  0
VERTEX
  5
17E
100
AcDbEntity
  8
0
  6
Continuous
 62
     7
100
AcDbVertex
100
AcDb2dVertex
 10
75.039779
 20
87.991492
 30
0.0
  0
VERTEX
  5
17F
100
AcDbEntity
  8
0
  6
Continuous
 62
     7
100
AcDbVertex
100
AcDb2dVertex
 10
74.192322
 20
87.414512
 30
0.0
  0
VERTEX
  5
180
100
AcDbEntity
  8
0
  6
Continuous
 62
     7
100
AcDbVertex
100
AcDb2dVertex
 10
73.256809
 20
86.892379
 30
0.0
  0
VERTEX
  5
181
100
AcDbEntity
  8
0
  6
Continuous
 62
     7
100
AcDbVertex
100
AcDb2dVertex
 10
72.239658
 20
86.43594
 30
0.0
  0
VERTEX
  5
182
100
AcDbEntity
  8
0
  6
Continuous
 62
     7
100
AcDbVertex
100
AcDb2dVertex
 10
71.147292
 20
86.056042
 30
0.0
  0
VERTEX
  5
183
100
AcDbEntity
  8
0
  6
Continuous
 62
     7
100
AcDbVertex
100
AcDb2dVertex
 10
69.986131
 20
85.763531
 30
0.0
  0
VERTEX
  5
184
100
AcDbEntity
  8
0
  6
Continuous
 62
     7
100
AcDbVertex
100
AcDb2dVertex
 10
68.762596
 20
85.569253
 30
0.0
  0
VERTEX
  5
185
100
AcDbEntity
  8
0
  6
Continuous
 62
     7
100
AcDbVertex
100
AcDb2dVertex
 10
67.483109
 20
85.484055
 30
0.0
  0
VERTEX
  5
186
100
AcDbEntity
  8
0
  6
Continuous
 62
     7
100
AcDbVertex
100
AcDb2dVertex
 10
66.15409
 20
85.518784
 30
0.0
  0
VERTEX
  5
187
100
AcDbEntity
  8
0
  6
Continuous
 62
     7
100
AcDbVertex
100
AcDb2dVertex
 10
64.78196
 20
85.684285
 30
0.0
  0
VERTEX
  5
188
100
AcDbEntity
  8
0
  6
Continuous
 62
     7
100
AcDbVertex
100
AcDb2dVertex
 10
63.37314
 20
85.991405
 30
0.0
  0
VERTEX
  5
189
100
AcDbEntity
  8
0
  6
Continuous
 62
     7
100
AcDbVertex
100
AcDb2dVertex
 10
61.934051
 20
86.45099
 30
0.0
  0
VERTEX
  5
18A
100
AcDbEntity
  8
0
  6
Continuous
 62
     7
100
AcDbVertex
100
AcDb2dVertex
 10
60.471114
 20
87.073888
 30
0.0
  0
VERTEX
  5
18B
100
AcDbEntity
  8
0
  6
Continuous
 62
     7
100
AcDbVertex
100
AcDb2dVertex
 10
58.99075
 20
87.870943
 30
0.0
  0
VERTEX
  5
18C
100
AcDbEntity
  8
0
  6
Continuous
 62
     7
100
AcDbVertex
100
AcDb2dVertex
 10
57.49938
 20
88.853004
 30
0.0
  0
SEQEND
  5
18D
100
AcDbEntity
  8
0
  6
Continuous
 62
     7
  0
ENDBLK
  5
18E
100
AcDbEntity
  8
0
100
AcDbBlockEnd
  0
BLOCK
  5
193
100
AcDbEntity
  8
0
100
AcDbBlockBegin
  2
*E1
 70
     1
 10
0.0
 20
0.0
 30
0.0
  3
*E1
  1

  0
POLYLINE
  5
194
100
AcDbEntity
  8
0
370
     0
  6
Continuous
 62
     7
100
AcDb2dPolyline
 66
     1
 10
0.0
 20
0.0
 30
0.0
 70
   128
  0
VERTEX
  5
195
100
AcDbEntity
  8
0
  6
Continuous
 62
     7
100
AcDbVertex
100
AcDb2dVertex
 10
105.963126
 20
113.812415
 30
0.0
  0
VERTEX
  5
196
100
AcDbEntity
  8
0
  6
Continuous
 62
     7
100
AcDbVertex
100
AcDb2dVertex
 10
105.778856
 20
113.134123
 30
0.0
  0
VERTEX
  5
197
100
AcDbEntity
  8
0
  6
Continuous
 62
     7
100
AcDbVertex
100
AcDb2dVertex
 10
105.468002
 20
112.4456
 30
0.0
  0
VERTEX
  5
198
100
AcDbEntity
  8
0
  6
Continuous
 62
     7
100
AcDbVertex
100
AcDb2dVertex
 10
105.036986
 20
111.757693
 30
0.0
  0
VERTEX
  5
199
100
AcDbEntity
  8
0
  6
Continuous
 62
     7
100
AcDbVertex
100
AcDb2dVertex
 10
104.492228
 20
111.081248
 30
0.0
  0
VERTEX
  5
19A
100
AcDbEntity
  8
0
  6
Continuous
 62
     7
100
AcDbVertex
100
AcDb2dVertex
 10
103.84015
 20
110.427111
 30
0.0
  0
VERTEX
  5
19B
100
AcDbEntity
  8
0
  6
Continuous
 62
     7
100
AcDbVertex
100
AcDb2dVertex
 10
103.087173
 20
109.806129
 30
0.0
  0
VERTEX
  5
19C
100
AcDbEntity
  8
0
  6
Continuous
 62
     7
100
AcDbVertex
100
AcDb2dVertex
 10
102.239716
 20
109.229149
 30
0.0
  0
VERTEX
  5
19D
100
AcDbEntity
  8
0
  6
Continuous
 62
     7
100
AcDbVertex
100
AcDb2dVertex
 10
101.304203
 20
108.707016
 30
0.0
  0
VERTEX
  5
19E
100
AcDbEntity
  8
0
  6
Continuous
 62
     7
100
AcDbVertex
100
AcDb2dVertex
 10
100.287052
 20
108.250577
 30
0.0
  0
VERTEX
  5
19F
100
AcDbEntity
  8
0
  6
Continuous
 62
     7
100
AcDbVertex
100
AcDb2dVertex
 10
99.194686
 20
107.870679
 30
0.0
  0
VERTEX
  5
1A0
100
AcDbEntity
  8
0
  6
Continuous
 62
     7
100
AcDbVertex
100
AcDb2dVertex
 10
98.033525
 20
107.578168
 30
0.0
  0
VERTEX
  5
1A1
100
AcDbEntity
  8
0
  6
Continuous
 62
     7
100
AcDbVertex
100
AcDb2dVertex
 10
96.80999
 20
107.38389
 30
0.0
  0
VERTEX
  5
1A2
100
AcDbEntity
  8
0
  6
Continuous
 62
     7
100
AcDbVertex
100
AcDb2dVertex
 10
95.530503
 20
107.298692
 30
0.0
  0
VERTEX
  5
1A3
100
AcDbEntity
  8
0
  6
Continuous
 62
     7
100
AcDbVertex
100
AcDb2dVertex
 10
94.201484
 20
107.333421
 30
0.0
  0
VERTEX
  5
1A4
100
AcDbEntity
  8
0
  6
Continuous
 62
     7
100
AcDbVertex
100
AcDb2dVertex
 10
92.829354
 20
107.498922
 30
0.0
  0
VERTEX
  5
1A5
100
AcDbEntity
  8
0
  6
Continuous
 62
     7
100
AcDbVertex
100
AcDb2dVertex
 10
91.420534
 20
107.806042
 30
0.0
  0
VERTEX
  5
1A6
100
AcDbEntity
  8
0
  6
Continuous
 62
     7
100
AcDbVertex
100
AcDb2dVertex
 10
89.981445
 20
108.265627
 30
0.0
  0
VERTEX
  5
1A7
100
AcDbEntity
  8
0
  6
Continuous
 62
     7
100
AcDbVertex
100
AcDb2dVertex
 10
88.518508
 20
108.888525
 30
0.0
  0
VERTEX
  5
1A8
100
AcDbEntity
  8
0
  6
Continuous
 62
     7
100
AcDbVertex
100
AcDb2dVertex
 10
87.038144
 20
109.68558
 30
0.0
  0
VERTEX
  5
1A9
100
AcDbEntity
  8
0
  6
Continuous
 62
     7
100
AcDbVertex
100
AcDb2dVertex
 10
85.546774
 20
110.667641
 30
0.0
  0
SEQEND
  5
1AA
100
AcDbEntity
  8
0
  6
Continuous
 62
     7
  0
ENDBLK
  5
1AB
100
AcDbEntity
  8
0
100
AcDbBlockEnd
  0
BLOCK
  5
1B0
100
AcDbEntity
  8
0
100
AcDbBlockBegin
  2
*E2
 70
     1
 10
0.0
 20
0.0
 30
0.0
  3
*E2
  1

  0
POLYLINE
  5
1B1
100
AcDbEntity
  8
0
370
     0
  6
Continuous
 62
     7
100
AcDb2dPolyline
 66
     1
 10
0.0
 20
0.0
 30
0.0
 70
   128
  0
VERTEX
  5
1B2
100
AcDbEntity
  8
0
  6
Continuous
 62
     7
100
AcDbVertex
100
AcDb2dVertex
 10
235.292754
 20
116.149703
 30
0.0
  0
VERTEX
  5
1B3
100
AcDbEntity
  8
0
  6
Continuous
 62
     7
100
AcDbVertex
100
AcDb2dVertex
 10
235.108484
 20
115.471411
 30
0.0
  0
VERTEX
  5
1B4
100
AcDbEntity
  8
0
  6
Continuous
 62
     7
100
AcDbVertex
100
AcDb2dVertex
 10
234.79763
 20
114.782888
 30
0.0
  0
VERTEX
  5
1B5
100
AcDbEntity
  8
0
  6
Continuous
 62
     7
100
AcDbVertex
100
AcDb2dVertex
 10
234.366614
 20
114.094981
 30
0.0
  0
VERTEX
  5
1B6
100
AcDbEntity
  8
0
  6
Continuous
 62
     7
100
AcDbVertex
100
AcDb2dVertex
 10
233.821856
 20
113.418536
 30
0.0
  0
VERTEX
  5
1B7
100
AcDbEntity
  8
0
  6
Continuous
 62
     7
100
AcDbVertex
100
AcDb2dVertex
 10
233.169778
 20
112.764399
 30
0.0
  0
VERTEX
  5
1B8
100
AcDbEntity
  8
0
  6
Continuous
 62
     7
100
AcDbVertex
100
AcDb2dVertex
 10
232.416801
 20
112.143417
 30
0.0
  0
VERTEX
  5
1B9
100
AcDbEntity
  8
0
  6
Continuous
 62
     7
100
AcDbVertex
100
AcDb2dVertex
 10
231.569344
 20
111.566437
 30
0.0
  0
VERTEX
  5
1BA
100
AcDbEntity
  8
0
  6
Continuous
 62
     7
100
AcDbVertex
100
AcDb2dVertex
 10
230.633831
 20
111.044304
 30
0.0
  0
VERTEX
  5
1BB
100
AcDbEntity
  8
0
  6
Continuous
 62
     7
100
AcDbVertex
100
AcDb2dVertex
 10
229.61668
 20
110.587865
 30
0.0
  0
VERTEX
  5
1BC
100
AcDbEntity
  8
0
  6
Continuous
 62
     7
100
AcDbVertex
100
AcDb2dVertex
 10
228.524314
 20
110.207967
 30
0.0
  0
VERTEX
  5
1BD
100
AcDbEntity
  8
0
  6
Continuous
 62
     7
100
AcDbVertex
100
AcDb2dVertex
 10
227.363153
 20
109.915456
 30
0.0
  0
VERTEX
  5
1BE
100
AcDbEntity
  8
0
  6
Continuous
 62
     7
100
AcDbVertex
100
AcDb2dVertex
 10
226.139618
 20
109.721178
 30
0.0
  0
VERTEX
  5
1BF
100
AcDbEntity
  8
0
  6
Continuous
 62
     7
100
AcDbVertex
100
AcDb2dVertex
 10
224.860131
 20
109.63598
 30
0.0
  0
VERTEX
  5
1C0
100
AcDbEntity
  8
0
  6
Continuous
 62
     7
100
AcDbVertex
100
AcDb2dVertex
 10
223.531112
 20
109.670709
 30
0.0
  0
VERTEX
  5
1C1
100
AcDbEntity
  8
0
  6
Continuous
 62
     7
100
AcDbVertex
100
AcDb2dVertex
 10
222.158982
 20
109.83621
 30
0.0
  0
VERTEX
  5
1C2
100
AcDbEntity
  8
0
  6
Continuous
 62
     7
100
AcDbVertex
100
AcDb2dVertex
 10
220.750162
 20
110.14333
 30
0.0
  0
VERTEX
  5
1C3
100
AcDbEntity
  8
0
  6
Continuous
 62
     7
100
AcDbVertex
100
AcDb2dVertex
 10
219.311073
 20
110.602915
 30
0.0
  0
VERTEX
  5
1C4
100
AcDbEntity
  8
0
  6
Continuous
 62
     7
100
AcDbVertex
100
AcDb2dVertex
 10
217.848136
 20
111.225813
 30
0.0
  0
VERTEX
  5
1C5
100
AcDbEntity
  8
0
  6
Continuous
 62
     7
100
AcDbVertex
100
AcDb2dVertex
 10
216.367772
 20
112.022868
 30
0.0
  0
VERTEX
  5
1C6
100
AcDbEntity
  8
0
  6
Continuous
 62
     7
100
AcDbVertex
100
AcDb2dVertex
 10
214.876402
 20
113.004929
 30
0.0
  0
SEQEND
  5
1C7
100
AcDbEntity
  8
0
  6
Continuous
 62
     7
  0
ENDBLK
  5
1C8
100
AcDbEntity
  8
0
100
AcDbBlockEnd
  0
BLOCK
  5
1CC
100
AcDbEntity
  8
0
100
AcDbBlockBegin
  2
*E3
 70
     1
 10
0.0
 20
0.0
 30
0.0
  3
*E3
  1

  0
POLYLINE
  5
1CD
100
AcDbEntity
  8
0
370
     0
  6
Continuous
 62
     7
100
AcDb2dPolyline
 66
     1
 10
0.0
 20
0.0
 30
0.0
 70
   128
  0
VERTEX
  5
1CE
100
AcDbEntity
  8
0
  6
Continuous
 62
     7
100
AcDbVertex
100
AcDb2dVertex
 10
214.197654
 20
91.34583
 30
0.0
  0
VERTEX
  5
1CF
100
AcDbEntity
  8
0
  6
Continuous
 62
     7
100
AcDbVertex
100
AcDb2dVertex
 10
213.741547
 20
90.811038
 30
0.0
  0
VERTEX
  5
1D0
100
AcDbEntity
  8
0
  6
Continuous
 62
     7
100
AcDbVertex
100
AcDb2dVertex
 10
213.166596
 20
90.321012
 30
0.0
  0
VERTEX
  5
1D1
100
AcDbEntity
  8
0
  6
Continuous
 62
     7
100
AcDbVertex
100
AcDb2dVertex
 10
212.483237
 20
89.882822
 30
0.0
  0
VERTEX
  5
1D2
100
AcDbEntity
  8
0
  6
Continuous
 62
     7
100
AcDbVertex
100
AcDb2dVertex
 10
211.701904
 20
89.503537
 30
0.0
  0
VERTEX
  5
1D3
100
AcDbEntity
  8
0
  6
Continuous
 62
     7
100
AcDbVertex
100
AcDb2dVertex
 10
210.833033
 20
89.190225
 30
0.0
  0
VERTEX
  5
1D4
100
AcDbEntity
  8
0
  6
Continuous
 62
     7
100
AcDbVertex
100
AcDb2dVertex
 10
209.88706
 20
88.949956
 30
0.0
  0
VERTEX
  5
1D5
100
AcDbEntity
  8
0
  6
Continuous
 62
     7
100
AcDbVertex
100
AcDb2dVertex
 10
208.874421
 20
88.789798
 30
0.0
  0
VERTEX
  5
1D6
100
AcDbEntity
  8
0
  6
Continuous
 62
     7
100
AcDbVertex
100
AcDb2dVertex
 10
207.805551
 20
88.716822
 30
0.0
  0
VERTEX
  5
1D7
100
AcDbEntity
  8
0
  6
Continuous
 62
     7
100
AcDbVertex
100
AcDb2dVertex
 10
206.690886
 20
88.738095
 30
0.0
  0
VERTEX
  5
1D8
100
AcDbEntity
  8
0
  6
Continuous
 62
     7
100
AcDbVertex
100
AcDb2dVertex
 10
205.540861
 20
88.860687
 30
0.0
  0
VERTEX
  5
1D9
100
AcDbEntity
  8
0
  6
Continuous
 62
     7
100
AcDbVertex
100
AcDb2dVertex
 10
204.365912
 20
89.091668
 30
0.0
  0
VERTEX
  5
1DA
100
AcDbEntity
  8
0
  6
Continuous
 62
     7
100
AcDbVertex
100
AcDb2dVertex
 10
203.176474
 20
89.438106
 30
0.0
  0
VERTEX
  5
1DB
100
AcDbEntity
  8
0
  6
Continuous
 62
     7
100
AcDbVertex
100
AcDb2dVertex
 10
201.982984
 20
89.90707
 30
0.0
  0
VERTEX
  5
1DC
100
AcDbEntity
  8
0
  6
Continuous
 62
     7
100
AcDbVertex
100
AcDb2dVertex
 10
200.795876
 20
90.50563
 30
0.0
  0
VERTEX
  5
1DD
100
AcDbEntity
  8
0
  6
Continuous
 62
     7
100
AcDbVertex
100
AcDb2dVertex
 10
199.625587
 20
91.240854
 30
0.0
  0
VERTEX
  5
1DE
100
AcDbEntity
  8
0
  6
Continuous
 62
     7
100
AcDbVertex
100
AcDb2dVertex
 10
198.482551
 20
92.119811
 30
0.0
  0
VERTEX
  5
1DF
100
AcDbEntity
  8
0
  6
Continuous
 62
     7
100
AcDbVertex
100
AcDb2dVertex
 10
197.377205
 20
93.149572
 30
0.0
  0
VERTEX
  5
1E0
100
AcDbEntity
  8
0
  6
Continuous
 62
     7
100
AcDbVertex
100
AcDb2dVertex
 10
196.319984
 20
94.337204
 30
0.0
  0
VERTEX
  5
1E1
100
AcDbEntity
  8
0
  6
Continuous
 62
     7
100
AcDbVertex
100
AcDb2dVertex
 10
195.321324
 20
95.689776
 30
0.0
  0
VERTEX
  5
1E2
100
AcDbEntity
  8
0
  6
Continuous
 62
     7
100
AcDbVertex
100
AcDb2dVertex
 10
194.39166
 20
97.214359
 30
0.0
  0
SEQEND
  5
1E3
100
AcDbEntity
  8
0
  6
Continuous
 62
     7
  0
ENDBLK
  5
1E4
100
AcDbEntity
  8
0
100
AcDbBlockEnd
  0
ENDSEC
  0
SECTION
  2
ENTITIES
  0
LINE
  5
30
100
AcDbEntity
  8
0
  6
Continuous
100
AcDbLine
 10
285.10498
 20
1.643222
 30
0.0
 11
285.10498
 21
20.786963
 31
0.0
  0
LINE
  5
31
100
AcDbEntity
  8
0
  6
Continuous
100
AcDbLine
 10
285.10498
 20
20.786963
 30
0.0
 11
262.166626
 21
37.729443
 31
0.0
  0
LINE
  5
32
100
AcDbEntity
  8
0
  6
Continuous
100
AcDbLine
 10
262.166626
 20
37.729443
 30
0.0
 11
264.834869
 21
40.753468
 31
0.0
  0
LINE
  5
33
100
AcDbEntity
  8
0
  6
Continuous
100
AcDbLine
 10
264.834869
 20
40.753468
 30
0.0
 11
267.101807
 21
39.277843
 31
0.0
  0
LINE
  5
34
100
AcDbEntity
  8
0
  6
Continuous
100
AcDbLine
 10
267.101807
 20
39.277843
 30
0.0
 11
270.188049
 21
37.798889
 31
0.0
  0
LINE
  5
35
100
AcDbEntity
  8
0
  6
Continuous
100
AcDbLine
 10
270.188049
 20
37.798889
 30
0.0
 11
273.588776
 21
36.656052
 31
0.0
  0
LINE
  5
36
100
AcDbEntity
  8
0
  6
Continuous
100
AcDbLine
 10
273.588776
 20
36.656052
 30
0.0
 11
277.237366
 21
35.863316
 31
0.0
  0
LINE
  5
37
100
AcDbEntity
  8
0
  6
Continuous
100
AcDbLine
 10
277.237366
 20
35.863316
 30
0.0
 11
281.067139
 21
35.434647
 31
0.0
  0
LINE
  5
38
100
AcDbEntity
  8
0
  6
Continuous
100
AcDbLine
 10
281.067139
 20
35.434647
 30
0.0
 11
283.688019
 21
35.358032
 31
0.0
  0
LINE
  5
39
100
AcDbEntity
  8
0
  6
Continuous
100
AcDbLine
 10
283.688019
 20
35.358032
 30
0.0
 11
265.492676
 21
86.608582
 31
0.0
  0
LINE
  5
3A
100
AcDbEntity
  8
0
  6
Continuous
100
AcDbLine
 10
265.492676
 20
86.608582
 30
0.0
 11
283.533661
 21
137.913666
 31
0.0
  0
LINE
  5
3B
100
AcDbEntity
  8
0
  6
Continuous
100
AcDbLine
 10
283.533661
 20
137.913666
 30
0.0
 11
279.620728
 21
137.723694
 31
0.0
  0
LINE
  5
3C
100
AcDbEntity
  8
0
  6
Continuous
100
AcDbLine
 10
279.620728
 20
137.723694
 30
0.0
 11
275.845612
 21
137.160751
 31
0.0
  0
LINE
  5
3D
100
AcDbEntity
  8
0
  6
Continuous
100
AcDbLine
 10
275.845612
 20
137.160751
 30
0.0
 11
272.274994
 21
136.239014
 31
0.0
  0
LINE
  5
3E
100
AcDbEntity
  8
0
  6
Continuous
100
AcDbLine
 10
272.274994
 20
136.239014
 30
0.0
 11
268.975494
 21
134.972641
 31
0.0
  0
LINE
  5
3F
100
AcDbEntity
  8
0
  6
Continuous
100
AcDbLine
 10
268.975494
 20
134.972641
 30
0.0
 11
266.013672
 21
133.375824
 31
0.0
  0
LINE
  5
40
100
AcDbEntity
  8
0
  6
Continuous
100
AcDbLine
 10
266.013672
 20
133.375824
 30
0.0
 11
263.456238
 21
131.462753
 31
0.0
  0
LINE
  5
41
100
AcDbEntity
  8
0
  6
Continuous
100
AcDbLine
 10
263.456238
 20
131.462753
 30
0.0
 11
262.00882
 21
130.018646
 31
0.0
  0
LINE
  5
42
100
AcDbEntity
  8
0
  6
Continuous
100
AcDbLine
 10
262.00882
 20
130.018646
 30
0.0
 11
252.779175
 21
117.509483
 31
0.0
  0
LINE
  5
43
100
AcDbEntity
  8
0
  6
Continuous
100
AcDbLine
 10
252.779175
 20
117.509483
 30
0.0
 11
245.498016
 21
121.502373
 31
0.0
  0
LINE
  5
44
100
AcDbEntity
  8
0
  6
Continuous
100
AcDbLine
 10
245.498016
 20
121.502373
 30
0.0
 11
245.498016
 21
130.696487
 31
0.0
  0
LINE
  5
45
100
AcDbEntity
  8
0
  6
Continuous
100
AcDbLine
 10
245.498016
 20
130.696487
 30
0.0
 11
240.794846
 21
131.415985
 31
0.0
  0
LINE
  5
46
100
AcDbEntity
  8
0
  6
Continuous
100
AcDbLine
 10
240.794846
 20
131.415985
 30
0.0
 11
235.210709
 21
131.822678
 31
0.0
  0
LINE
  5
47
100
AcDbEntity
  8
0
  6
Continuous
100
AcDbLine
 10
235.210709
 20
131.822678
 30
0.0
 11
228.536911
 21
131.83992
 31
0.0
  0
LINE
  5
48
100
AcDbEntity
  8
0
  6
Continuous
100
AcDbLine
 10
228.536911
 20
131.83992
 30
0.0
 11
224.534348
 21
131.528015
 31
0.0
  0
LINE
  5
49
100
AcDbEntity
  8
0
  6
Continuous
100
AcDbLine
 10
224.534348
 20
131.528015
 30
0.0
 11
223.978409
 21
130.92598
 31
0.0
  0
LINE
  5
4A
100
AcDbEntity
  8
0
  6
Continuous
100
AcDbLine
 10
223.978409
 20
130.92598
 30
0.0
 11
222.638779
 21
128.522125
 31
0.0
  0
LINE
  5
4B
100
AcDbEntity
  8
0
  6
Continuous
100
AcDbLine
 10
222.638779
 20
128.522125
 30
0.0
 11
220.741409
 21
127.891045
 31
0.0
  0
LINE
  5
4C
100
AcDbEntity
  8
0
  6
Continuous
100
AcDbLine
 10
220.741409
 20
127.891045
 30
0.0
 11
220.741409
 21
127.049583
 31
0.0
  0
LINE
  5
4D
100
AcDbEntity
  8
0
  6
Continuous
100
AcDbLine
 10
220.741409
 20
127.049583
 30
0.0
 11
216.788879
 21
125.2089
 31
0.0
  0
LINE
  5
4E
100
AcDbEntity
  8
0
  6
Continuous
100
AcDbLine
 10
216.788879
 20
125.2089
 30
0.0
 11
220.741409
 21
123.368217
 31
0.0
  0
LINE
  5
4F
100
AcDbEntity
  8
0
  6
Continuous
100
AcDbLine
 10
220.741409
 20
123.368217
 30
0.0
 11
220.741409
 21
122.471581
 31
0.0
  0
LINE
  5
50
100
AcDbEntity
  8
0
  6
Continuous
100
AcDbLine
 10
220.741409
 20
122.471581
 30
0.0
 11
210.407166
 21
122.471581
 31
0.0
  0
LINE
  5
51
100
AcDbEntity
  8
0
  6
Continuous
100
AcDbLine
 10
210.407166
 20
122.471581
 30
0.0
 11
198.532578
 21
116.004929
 31
0.0
  0
LINE
  5
52
100
AcDbEntity
  8
0
  6
Continuous
100
AcDbLine
 10
198.532578
 20
116.004929
 30
0.0
 11
226.683975
 21
116.004929
 31
0.0
  0
LINE
  5
53
100
AcDbEntity
  8
0
  6
Continuous
100
AcDbLine
 10
226.683975
 20
116.004929
 30
0.0
 11
226.683975
 21
113.004929
 31
0.0
  0
LINE
  5
54
100
AcDbEntity
  8
0
  6
Continuous
100
AcDbLine
 10
235.292754
 20
116.149703
 30
0.0
 11
235.983337
 21
116.177399
 31
0.0
  0
LINE
  5
55
100
AcDbEntity
  8
0
  6
Continuous
100
AcDbLine
 10
235.983337
 20
116.177399
 30
0.0
 11
240.18364
 21
116.71228
 31
0.0
  0
LINE
  5
56
100
AcDbEntity
  8
0
  6
Continuous
100
AcDbLine
 10
240.18364
 20
116.71228
 30
0.0
 11
244.208557
 21
117.63575
 31
0.0
  0
LINE
  5
57
100
AcDbEntity
  8
0
  6
Continuous
100
AcDbLine
 10
244.208557
 20
117.63575
 30
0.0
 11
245.498016
 21
118.034454
 31
0.0
  0
LINE
  5
58
100
AcDbEntity
  8
0
  6
Continuous
100
AcDbLine
 10
245.498016
 20
118.034454
 30
0.0
 11
245.498016
 21
120.361877
 31
0.0
  0
LINE
  5
59
100
AcDbEntity
  8
0
  6
Continuous
100
AcDbLine
 10
245.498016
 20
120.361877
 30
0.0
 11
252.180084
 21
116.697525
 31
0.0
  0
LINE
  5
5A
100
AcDbEntity
  8
0
  6
Continuous
100
AcDbLine
 10
252.180084
 20
116.697525
 30
0.0
 11
232.599976
 21
90.160103
 31
0.0
  0
LINE
  5
5B
100
AcDbEntity
  8
0
  6
Continuous
100
AcDbLine
 10
232.599976
 20
90.160103
 30
0.0
 11
226.577682
 21
93.728867
 31
0.0
  0
LINE
  5
5C
100
AcDbEntity
  8
0
  6
Continuous
100
AcDbLine
 10
226.577682
 20
93.728867
 30
0.0
 11
229.615036
 21
100.207077
 31
0.0
  0
LINE
  5
5D
100
AcDbEntity
  8
0
  6
Continuous
100
AcDbLine
 10
229.615036
 20
100.207077
 30
0.0
 11
225.662109
 21
102.85508
 31
0.0
  0
LINE
  5
5E
100
AcDbEntity
  8
0
  6
Continuous
100
AcDbLine
 10
225.662109
 20
102.85508
 30
0.0
 11
220.778763
 21
105.593849
 31
0.0
  0
LINE
  5
5F
100
AcDbEntity
  8
0
  6
Continuous
100
AcDbLine
 10
220.778763
 20
105.593849
 30
0.0
 11
214.743469
 21
108.442558
 31
0.0
  0
LINE
  5
60
100
AcDbEntity
  8
0
  6
Continuous
100
AcDbLine
 10
214.743469
 20
108.442558
 30
0.0
 11
210.987061
 21
109.859291
 31
0.0
  0
LINE
  5
61
100
AcDbEntity
  8
0
  6
Continuous
100
AcDbLine
 10
210.987061
 20
109.859291
 30
0.0
 11
210.228119
 21
109.550217
 31
0.0
  0
LINE
  5
62
100
AcDbEntity
  8
0
  6
Continuous
100
AcDbLine
 10
210.228119
 20
109.550217
 30
0.0
 11
207.994736
 21
107.942398
 31
0.0
  0
LINE
  5
63
100
AcDbEntity
  8
0
  6
Continuous
100
AcDbLine
 10
207.994736
 20
107.942398
 30
0.0
 11
206.008896
 21
108.176453
 31
0.0
  0
LINE
  5
64
100
AcDbEntity
  8
0
  6
Continuous
100
AcDbLine
 10
206.008896
 20
108.176453
 30
0.0
 11
205.651688
 21
107.414581
 31
0.0
  0
LINE
  5
65
100
AcDbEntity
  8
0
  6
Continuous
100
AcDbLine
 10
205.651688
 20
107.414581
 30
0.0
 11
201.291595
 21
107.42588
 31
0.0
  0
LINE
  5
66
100
AcDbEntity
  8
0
  6
Continuous
100
AcDbLine
 10
201.291595
 20
107.42588
 30
0.0
 11
204.088898
 21
104.08139
 31
0.0
  0
LINE
  5
67
100
AcDbEntity
  8
0
  6
Continuous
100
AcDbLine
 10
204.088898
 20
104.08139
 30
0.0
 11
203.708267
 21
103.269554
 31
0.0
  0
LINE
  5
68
100
AcDbEntity
  8
0
  6
Continuous
100
AcDbLine
 10
203.708267
 20
103.269554
 30
0.0
 11
194.351425
 21
107.656563
 31
0.0
  0
LINE
  5
69
100
AcDbEntity
  8
0
  6
Continuous
100
AcDbLine
 10
194.351425
 20
107.656563
 30
0.0
 11
180.854736
 21
106.84243
 31
0.0
  0
LINE
  5
6A
100
AcDbEntity
  8
0
  6
Continuous
100
AcDbLine
 10
180.854736
 20
106.84243
 30
0.0
 11
206.343643
 21
94.891808
 31
0.0
  0
LINE
  5
6B
100
AcDbEntity
  8
0
  6
Continuous
100
AcDbLine
 10
206.343643
 20
94.891808
 30
0.0
 11
205.070099
 21
92.175537
 31
0.0
  0
LINE
  5
6C
100
AcDbEntity
  8
0
  6
Continuous
100
AcDbLine
 10
214.836685
 20
91.100281
 30
0.0
 11
218.866806
 21
89.801491
 31
0.0
  0
LINE
  5
6D
100
AcDbEntity
  8
0
  6
Continuous
100
AcDbLine
 10
218.866806
 20
89.801491
 30
0.0
 11
222.903076
 21
88.928993
 31
0.0
  0
LINE
  5
6E
100
AcDbEntity
  8
0
  6
Continuous
100
AcDbLine
 10
222.903076
 20
88.928993
 30
0.0
 11
224.239838
 21
88.742592
 31
0.0
  0
LINE
  5
6F
100
AcDbEntity
  8
0
  6
Continuous
100
AcDbLine
 10
224.239838
 20
88.742592
 30
0.0
 11
226.151184
 21
92.819206
 31
0.0
  0
LINE
  5
70
100
AcDbEntity
  8
0
  6
Continuous
100
AcDbLine
 10
226.151184
 20
92.819206
 30
0.0
 11
232.003235
 21
89.351326
 31
0.0
  0
LINE
  5
71
100
AcDbEntity
  8
0
  6
Continuous
100
AcDbLine
 10
232.003235
 20
89.351326
 30
0.0
 11
229.940063
 21
86.555069
 31
0.0
  0
LINE
  5
72
100
AcDbEntity
  8
0
  6
Continuous
100
AcDbLine
 10
229.940063
 20
86.555069
 30
0.0
 11
262.139496
 21
43.188213
 31
0.0
  0
LINE
  5
73
100
AcDbEntity
  8
0
  6
Continuous
100
AcDbLine
 10
262.139496
 20
43.188213
 30
0.0
 11
264.045807
 21
41.37064
 31
0.0
  0
LINE
  5
74
100
AcDbEntity
  8
0
  6
Continuous
100
AcDbLine
 10
264.045807
 20
41.37064
 30
0.0
 11
261.359192
 21
38.325806
 31
0.0
  0
LINE
  5
75
100
AcDbEntity
  8
0
  6
Continuous
100
AcDbLine
 10
261.359192
 20
38.325806
 30
0.0
 11
231.09668
 21
60.677982
 31
0.0
  0
LINE
  5
76
100
AcDbEntity
  8
0
  6
Continuous
100
AcDbLine
 10
231.09668
 20
60.677982
 30
0.0
 11
231.09668
 21
57.89381
 31
0.0
  0
LINE
  5
77
100
AcDbEntity
  8
0
  6
Continuous
100
AcDbLine
 10
231.09668
 20
57.89381
 30
0.0
 11
228.09668
 21
57.89381
 31
0.0
  0
LINE
  5
78
100
AcDbEntity
  8
0
  6
Continuous
100
AcDbLine
 10
228.09668
 20
57.89381
 30
0.0
 11
228.09668
 21
62.89381
 31
0.0
  0
LINE
  5
79
100
AcDbEntity
  8
0
  6
Continuous
100
AcDbLine
 10
228.09668
 20
62.89381
 30
0.0
 11
189.732529
 21
91.229919
 31
0.0
  0
LINE
  5
7A
100
AcDbEntity
  8
0
  6
Continuous
100
AcDbLine
 10
189.732529
 20
91.229919
 30
0.0
 11
189.732529
 21
88.445747
 31
0.0
  0
LINE
  5
7B
100
AcDbEntity
  8
0
  6
Continuous
100
AcDbLine
 10
189.732529
 20
88.445747
 30
0.0
 11
186.732529
 21
88.445747
 31
0.0
  0
LINE
  5
7C
100
AcDbEntity
  8
0
  6
Continuous
100
AcDbLine
 10
186.732529
 20
88.445747
 30
0.0
 11
186.732529
 21
93.445747
 31
0.0
  0
LINE
  5
7D
100
AcDbEntity
  8
0
  6
Continuous
100
AcDbLine
 10
186.732529
 20
93.445747
 30
0.0
 11
142.55249
 21
126.07753
 31
0.0
  0
LINE
  5
7E
100
AcDbEntity
  8
0
  6
Continuous
100
AcDbLine
 10
142.55249
 20
126.07753
 30
0.0
 11
118.265999
 21
108.139305
 31
0.0
  0
LINE
  5
7F
100
AcDbEntity
  8
0
  6
Continuous
100
AcDbLine
 10
118.265999
 20
108.139305
 30
0.0
 11
112.837395
 21
114.774269
 31
0.0
  0
LINE
  5
80
100
AcDbEntity
  8
0
  6
Continuous
100
AcDbLine
 10
112.837395
 20
114.774269
 30
0.0
 11
116.168381
 21
115.697166
 31
0.0
  0
LINE
  5
81
100
AcDbEntity
  8
0
  6
Continuous
100
AcDbLine
 10
116.168381
 20
115.697166
 30
0.0
 11
116.168381
 21
128.359207
 31
0.0
  0
LINE
  5
82
100
AcDbEntity
  8
0
  6
Continuous
100
AcDbLine
 10
116.168381
 20
128.359207
 30
0.0
 11
111.465202
 21
129.078705
 31
0.0
  0
LINE
  5
83
100
AcDbEntity
  8
0
  6
Continuous
100
AcDbLine
 10
111.465202
 20
129.078705
 30
0.0
 11
105.881081
 21
129.485397
 31
0.0
  0
LINE
  5
84
100
AcDbEntity
  8
0
  6
Continuous
100
AcDbLine
 10
105.881081
 20
129.485397
 30
0.0
 11
99.207275
 21
129.502625
 31
0.0
  0
LINE
  5
85
100
AcDbEntity
  8
0
  6
Continuous
100
AcDbLine
 10
99.207275
 20
129.502625
 30
0.0
 11
95.204712
 21
129.19072
 31
0.0
  0
LINE
  5
86
100
AcDbEntity
  8
0
  6
Continuous
100
AcDbLine
 10
95.204712
 20
129.19072
 30
0.0
 11
94.648766
 21
128.588699
 31
0.0
  0
LINE
  5
87
100
AcDbEntity
  8
0
  6
Continuous
100
AcDbLine
 10
94.648766
 20
128.588699
 30
0.0
 11
93.309151
 21
126.184845
 31
0.0
  0
LINE
  5
88
100
AcDbEntity
  8
0
  6
Continuous
100
AcDbLine
 10
93.309151
 20
126.184845
 30
0.0
 11
91.411766
 21
125.553757
 31
0.0
  0
LINE
  5
89
100
AcDbEntity
  8
0
  6
Continuous
100
AcDbLine
 10
91.411766
 20
125.553757
 30
0.0
 11
91.411766
 21
124.712303
 31
0.0
  0
LINE
  5
8A
100
AcDbEntity
  8
0
  6
Continuous
100
AcDbLine
 10
91.411766
 20
124.712303
 30
0.0
 11
87.459236
 21
122.871613
 31
0.0
  0
LINE
  5
8B
100
AcDbEntity
  8
0
  6
Continuous
100
AcDbLine
 10
87.459236
 20
122.871613
 30
0.0
 11
91.411766
 21
121.03093
 31
0.0
  0
LINE
  5
8C
100
AcDbEntity
  8
0
  6
Continuous
100
AcDbLine
 10
91.411766
 20
121.03093
 30
0.0
 11
91.411766
 21
120.134293
 31
0.0
  0
LINE
  5
8D
100
AcDbEntity
  8
0
  6
Continuous
100
AcDbLine
 10
91.411766
 20
120.134293
 30
0.0
 11
81.077538
 21
120.134293
 31
0.0
  0
LINE
  5
8E
100
AcDbEntity
  8
0
  6
Continuous
100
AcDbLine
 10
81.077538
 20
120.134293
 30
0.0
 11
69.202942
 21
113.667641
 31
0.0
  0
LINE
  5
8F
100
AcDbEntity
  8
0
  6
Continuous
100
AcDbLine
 10
69.202942
 20
113.667641
 30
0.0
 11
78.100044
 21
113.667641
 31
0.0
  0
LINE
  5
90
100
AcDbEntity
  8
0
  6
Continuous
100
AcDbLine
 10
78.100044
 20
113.667641
 30
0.0
 11
78.100044
 21
107.659706
 31
0.0
  0
LINE
  5
91
100
AcDbEntity
  8
0
  6
Continuous
100
AcDbLine
 10
78.100044
 20
107.659706
 30
0.0
 11
71.510376
 21
107.699318
 31
0.0
  0
LINE
  5
92
100
AcDbEntity
  8
0
  6
Continuous
100
AcDbLine
 10
71.510376
 20
107.699318
 30
0.0
 11
67.19474
 21
107.391823
 31
0.0
  0
LINE
  5
93
100
AcDbEntity
  8
0
  6
Continuous
100
AcDbLine
 10
67.19474
 20
107.391823
 30
0.0
 11
66.681709
 21
106.894577
 31
0.0
  0
LINE
  5
94
100
AcDbEntity
  8
0
  6
Continuous
100
AcDbLine
 10
66.681709
 20
106.894577
 30
0.0
 11
65.261757
 21
104.370216
 31
0.0
  0
LINE
  5
95
100
AcDbEntity
  8
0
  6
Continuous
100
AcDbLine
 10
65.261757
 20
104.370216
 30
0.0
 11
63.364376
 21
103.73912
 31
0.0
  0
LINE
  5
96
100
AcDbEntity
  8
0
  6
Continuous
100
AcDbLine
 10
63.364376
 20
103.73912
 30
0.0
 11
63.364376
 21
102.897667
 31
0.0
  0
LINE
  5
97
100
AcDbEntity
  8
0
  6
Continuous
100
AcDbLine
 10
63.364376
 20
102.897667
 30
0.0
 11
59.41185
 21
101.056984
 31
0.0
  0
LINE
  5
98
100
AcDbEntity
  8
0
  6
Continuous
100
AcDbLine
 10
59.41185
 20
101.056984
 30
0.0
 11
63.364376
 21
99.216301
 31
0.0
  0
LINE
  5
99
100
AcDbEntity
  8
0
  6
Continuous
100
AcDbLine
 10
63.364376
 20
99.216301
 30
0.0
 11
63.364376
 21
98.319656
 31
0.0
  0
LINE
  5
9A
100
AcDbEntity
  8
0
  6
Continuous
100
AcDbLine
 10
63.364376
 20
98.319656
 30
0.0
 11
53.030148
 21
98.319656
 31
0.0
  0
LINE
  5
9B
100
AcDbEntity
  8
0
  6
Continuous
100
AcDbLine
 10
53.030148
 20
98.319656
 30
0.0
 11
47.834549
 21
95.49025
 31
0.0
  0
LINE
  5
9C
100
AcDbEntity
  8
0
  6
Continuous
100
AcDbLine
 10
47.834549
 20
95.49025
 30
0.0
 11
38.923397
 21
103.678871
 31
0.0
  0
LINE
  5
9D
100
AcDbEntity
  8
0
  6
Continuous
100
AcDbLine
 10
38.923397
 20
103.678871
 30
0.0
 11
65.4105
 21
131.224915
 31
0.0
  0
LINE
  5
9E
100
AcDbEntity
  8
0
  6
Continuous
100
AcDbLine
 10
65.4105
 20
131.224915
 30
0.0
 11
67.43383
 21
132.85582
 31
0.0
  0
LINE
  5
9F
100
AcDbEntity
  8
0
  6
Continuous
100
AcDbLine
 10
67.43383
 20
132.85582
 30
0.0
 11
69.964722
 21
134.348801
 31
0.0
  0
LINE
  5
A0
100
AcDbEntity
  8
0
  6
Continuous
100
AcDbLine
 10
69.964722
 20
134.348801
 30
0.0
 11
72.979836
 21
135.657639
 31
0.0
  0
LINE
  5
A1
100
AcDbEntity
  8
0
  6
Continuous
100
AcDbLine
 10
72.979836
 20
135.657639
 30
0.0
 11
86.215042
 21
135.183121
 31
0.0
  0
LINE
  5
A2
100
AcDbEntity
  8
0
  6
Continuous
100
AcDbLine
 10
86.215042
 20
135.183121
 30
0.0
 11
100.72847
 21
135.03476
 31
0.0
  0
LINE
  5
A3
100
AcDbEntity
  8
0
  6
Continuous
100
AcDbLine
 10
100.72847
 20
135.03476
 30
0.0
 11
234.220917
 21
135.03476
 31
0.0
  0
LINE
  5
A4
100
AcDbEntity
  8
0
  6
Continuous
100
AcDbLine
 10
234.220917
 20
135.03476
 30
0.0
 11
239.271667
 21
135.261475
 31
0.0
  0
LINE
  5
A5
100
AcDbEntity
  8
0
  6
Continuous
100
AcDbLine
 10
239.271667
 20
135.261475
 30
0.0
 11
244.193542
 21
135.813004
 31
0.0
  0
LINE
  5
A6
100
AcDbEntity
  8
0
  6
Continuous
100
AcDbLine
 10
244.193542
 20
135.813004
 30
0.0
 11
248.943619
 21
136.672836
 31
0.0
  0
LINE
  5
A7
100
AcDbEntity
  8
0
  6
Continuous
100
AcDbLine
 10
248.943619
 20
136.672836
 30
0.0
 11
252.399841
 21
137.5298
 31
0.0
  0
LINE
  5
A8
100
AcDbEntity
  8
0
  6
Continuous
100
AcDbLine
 10
252.399841
 20
137.5298
 30
0.0
 11
250.201294
 21
142.213699
 31
0.0
  0
LINE
  5
A9
100
AcDbEntity
  8
0
  6
Continuous
100
AcDbLine
 10
250.201294
 20
142.213699
 30
0.0
 11
248.162933
 21
141.645309
 31
0.0
  0
LINE
  5
AA
100
AcDbEntity
  8
0
  6
Continuous
100
AcDbLine
 10
248.162933
 20
141.645309
 30
0.0
 11
246.051071
 21
141.511353
 31
0.0
  0
LINE
  5
AB
100
AcDbEntity
  8
0
  6
Continuous
100
AcDbLine
 10
246.051071
 20
141.511353
 30
0.0
 11
243.957245
 21
141.817612
 31
0.0
  0
LINE
  5
AC
100
AcDbEntity
  8
0
  6
Continuous
100
AcDbLine
 10
243.957245
 20
141.817612
 30
0.0
 11
241.972229
 21
142.550827
 31
0.0
  0
LINE
  5
AD
100
AcDbEntity
  8
0
  6
Continuous
100
AcDbLine
 10
241.972229
 20
142.550827
 30
0.0
 11
240.182053
 21
143.679199
 31
0.0
  0
LINE
  5
AE
100
AcDbEntity
  8
0
  6
Continuous
100
AcDbLine
 10
240.182053
 20
143.679199
 30
0.0
 11
238.664352
 21
145.153824
 31
0.0
  0
LINE
  5
AF
100
AcDbEntity
  8
0
  6
Continuous
100
AcDbLine
 10
238.664352
 20
145.153824
 30
0.0
 11
237.484924
 21
146.910751
 31
0.0
  0
LINE
  5
B0
100
AcDbEntity
  8
0
  6
Continuous
100
AcDbLine
 10
237.484924
 20
146.910751
 30
0.0
 11
236.69487
 21
148.873856
 31
0.0
  0
LINE
  5
B1
100
AcDbEntity
  8
0
  6
Continuous
100
AcDbLine
 10
236.69487
 20
148.873856
 30
0.0
 11
236.328461
 21
150.957993
 31
0.0
  0
LINE
  5
B2
100
AcDbEntity
  8
0
  6
Continuous
100
AcDbLine
 10
236.328461
 20
150.957993
 30
0.0
 11
236.401581
 21
153.072845
 31
0.0
  0
LINE
  5
B3
100
AcDbEntity
  8
0
  6
Continuous
100
AcDbLine
 10
236.401581
 20
153.072845
 30
0.0
 11
236.911041
 21
155.126709
 31
0.0
  0
LINE
  5
B4
100
AcDbEntity
  8
0
  6
Continuous
100
AcDbLine
 10
236.911041
 20
155.126709
 30
0.0
 11
237.834778
 21
157.030548
 31
0.0
  0
LINE
  5
B5
100
AcDbEntity
  8
0
  6
Continuous
100
AcDbLine
 10
237.834778
 20
157.030548
 30
0.0
 11
239.132736
 21
158.701843
 31
0.0
  0
LINE
  5
B6
100
AcDbEntity
  8
0
  6
Continuous
100
AcDbLine
 10
239.132736
 20
158.701843
 30
0.0
 11
240.748657
 21
160.06813
 31
0.0
  0
LINE
  5
B7
100
AcDbEntity
  8
0
  6
Continuous
100
AcDbLine
 10
240.748657
 20
160.06813
 30
0.0
 11
242.612473
 21
161.070175
 31
0.0
  0
LINE
  5
B8
100
AcDbEntity
  8
0
  6
Continuous
100
AcDbLine
 10
242.612473
 20
161.070175
 30
0.0
 11
244.643387
 21
161.664551
 31
0.0
  0
LINE
  5
B9
100
AcDbEntity
  8
0
  6
Continuous
100
AcDbLine
 10
244.643387
 20
161.664551
 30
0.0
 11
246.753372
 21
161.825485
 31
0.0
  0
LINE
  5
BA
100
AcDbEntity
  8
0
  6
Continuous
100
AcDbLine
 10
246.753372
 20
161.825485
 30
0.0
 11
248.850937
 21
161.54599
 31
0.0
  0
LINE
  5
BB
100
AcDbEntity
  8
0
  6
Continuous
100
AcDbLine
 10
248.850937
 20
161.54599
 30
0.0
 11
250.845169
 21
160.838196
 31
0.0
  0
LINE
  5
BC
100
AcDbEntity
  8
0
  6
Continuous
100
AcDbLine
 10
250.845169
 20
160.838196
 30
0.0
 11
252.649597
 21
159.732773
 31
0.0
  0
LINE
  5
BD
100
AcDbEntity
  8
0
  6
Continuous
100
AcDbLine
 10
252.649597
 20
159.732773
 30
0.0
 11
254.18602
 21
158.277664
 31
0.0
  0
LINE
  5
BE
100
AcDbEntity
  8
0
  6
Continuous
100
AcDbLine
 10
254.18602
 20
158.277664
 30
0.0
 11
255.387802
 21
156.535934
 31
0.0
  0
LINE
  5
BF
100
AcDbEntity
  8
0
  6
Continuous
100
AcDbLine
 10
255.387802
 20
156.535934
 30
0.0
 11
256.20285
 21
154.583099
 31
0.0
  0
LINE
  5
C0
100
AcDbEntity
  8
0
  6
Continuous
100
AcDbLine
 10
256.20285
 20
154.583099
 30
0.0
 11
256.595856
 21
152.503799
 31
0.0
  0
LINE
  5
C1
100
AcDbEntity
  8
0
  6
Continuous
100
AcDbLine
 10
256.595856
 20
152.503799
 30
0.0
 11
256.549774
 21
150.388199
 31
0.0
  0
LINE
  5
C2
100
AcDbEntity
  8
0
  6
Continuous
100
AcDbLine
 10
256.549774
 20
150.388199
 30
0.0
 11
256.066589
 21
148.327988
 31
0.0
  0
LINE
  5
C3
100
AcDbEntity
  8
0
  6
Continuous
100
AcDbLine
 10
256.066589
 20
148.327988
 30
0.0
 11
255.167236
 21
146.412491
 31
0.0
  0
LINE
  5
C4
100
AcDbEntity
  8
0
  6
Continuous
100
AcDbLine
 10
255.167236
 20
146.412491
 30
0.0
 11
253.890732
 21
144.724762
 31
0.0
  0
LINE
  5
C5
100
AcDbEntity
  8
0
  6
Continuous
100
AcDbLine
 10
253.890732
 20
144.724762
 30
0.0
 11
252.292404
 21
143.337952
 31
0.0
  0
LINE
  5
C6
100
AcDbEntity
  8
0
  6
Continuous
100
AcDbLine
 10
252.292404
 20
143.337952
 30
0.0
 11
251.850388
 21
143.045639
 31
0.0
  0
LINE
  5
C7
100
AcDbEntity
  8
0
  6
Continuous
100
AcDbLine
 10
251.850388
 20
143.045639
 30
0.0
 11
254.195816
 21
138.048843
 31
0.0
  0
LINE
  5
C8
100
AcDbEntity
  8
0
  6
Continuous
100
AcDbLine
 10
254.195816
 20
138.048843
 30
0.0
 11
257.75647
 21
139.251587
 31
0.0
  0
LINE
  5
C9
100
AcDbEntity
  8
0
  6
Continuous
100
AcDbLine
 10
257.75647
 20
139.251587
 30
0.0
 11
261.733337
 21
140.937531
 31
0.0
  0
LINE
  5
CA
100
AcDbEntity
  8
0
  6
Continuous
100
AcDbLine
 10
261.733337
 20
140.937531
 30
0.0
 11
265.366608
 21
142.865891
 31
0.0
  0
LINE
  5
CB
100
AcDbEntity
  8
0
  6
Continuous
100
AcDbLine
 10
265.366608
 20
142.865891
 30
0.0
 11
268.613251
 21
145.020203
 31
0.0
  0
LINE
  5
CC
100
AcDbEntity
  8
0
  6
Continuous
100
AcDbLine
 10
268.613251
 20
145.020203
 30
0.0
 11
271.430359
 21
147.383987
 31
0.0
  0
LINE
  5
CD
100
AcDbEntity
  8
0
  6
Continuous
100
AcDbLine
 10
271.430359
 20
147.383987
 30
0.0
 11
272.664398
 21
148.639267
 31
0.0
  0
LINE
  5
CE
100
AcDbEntity
  8
0
  6
Continuous
100
AcDbLine
 10
272.664398
 20
148.639267
 30
0.0
 11
273.774963
 21
149.94075
 31
0.0
  0
LINE
  5
CF
100
AcDbEntity
  8
0
  6
Continuous
100
AcDbLine
 10
273.774963
 20
149.94075
 30
0.0
 11
275.713348
 21
151.151276
 31
0.0
  0
LINE
  5
D0
100
AcDbEntity
  8
0
  6
Continuous
100
AcDbLine
 10
275.713348
 20
151.151276
 30
0.0
 11
277.310089
 21
152.526505
 31
0.0
  0
LINE
  5
D1
100
AcDbEntity
  8
0
  6
Continuous
100
AcDbLine
 10
277.310089
 20
152.526505
 30
0.0
 11
278.576263
 21
153.98143
 31
0.0
  0
LINE
  5
D2
100
AcDbEntity
  8
0
  6
Continuous
100
AcDbLine
 10
278.576263
 20
153.98143
 30
0.0
 11
279.769592
 21
155.898346
 31
0.0
  0
LINE
  5
D3
100
AcDbEntity
  8
0
  6
Continuous
100
AcDbLine
 10
279.769592
 20
155.898346
 30
0.0
 11
280.421478
 21
157.604309
 31
0.0
  0
LINE
  5
D4
100
AcDbEntity
  8
0
  6
Continuous
100
AcDbLine
 10
280.421478
 20
157.604309
 30
0.0
 11
280.570892
 21
158.6241
 31
0.0
  0
LINE
  5
D5
100
AcDbEntity
  8
0
  6
Continuous
100
AcDbLine
 10
280.570892
 20
158.6241
 30
0.0
 11
280.486664
 21
159.385635
 31
0.0
  0
LINE
  5
D6
100
AcDbEntity
  8
0
  6
Continuous
100
AcDbLine
 10
280.486664
 20
159.385635
 30
0.0
 11
280.224213
 21
160.126434
 31
0.0
  0
LINE
  5
D7
100
AcDbEntity
  8
0
  6
Continuous
100
AcDbLine
 10
280.224213
 20
160.126434
 30
0.0
 11
279.785492
 21
160.844635
 31
0.0
  0
LINE
  5
D8
100
AcDbEntity
  8
0
  6
Continuous
100
AcDbLine
 10
279.785492
 20
160.844635
 30
0.0
 11
279.172546
 21
161.538376
 31
0.0
  0
LINE
  5
D9
100
AcDbEntity
  8
0
  6
Continuous
100
AcDbLine
 10
279.172546
 20
161.538376
 30
0.0
 11
278.387329
 21
162.20578
 31
0.0
  0
LINE
  5
DA
100
AcDbEntity
  8
0
  6
Continuous
100
AcDbLine
 10
278.387329
 20
162.20578
 30
0.0
 11
276.308044
 21
163.454132
 31
0.0
  0
LINE
  5
DB
100
AcDbEntity
  8
0
  6
Continuous
100
AcDbLine
 10
276.308044
 20
163.454132
 30
0.0
 11
273.563477
 21
164.574783
 31
0.0
  0
LINE
  5
DC
100
AcDbEntity
  8
0
  6
Continuous
100
AcDbLine
 10
273.563477
 20
164.574783
 30
0.0
 11
270.169525
 21
165.552795
 31
0.0
  0
LINE
  5
DD
100
AcDbEntity
  8
0
  6
Continuous
100
AcDbLine
 10
270.169525
 20
165.552795
 30
0.0
 11
266.142059
 21
166.373245
 31
0.0
  0
LINE
  5
DE
100
AcDbEntity
  8
0
  6
Continuous
100
AcDbLine
 10
266.142059
 20
166.373245
 30
0.0
 11
261.496979
 21
167.02124
 31
0.0
  0
LINE
  5
DF
100
AcDbEntity
  8
0
  6
Continuous
100
AcDbLine
 10
261.496979
 20
167.02124
 30
0.0
 11
256.250122
 21
167.481842
 31
0.0
  0
LINE
  5
E0
100
AcDbEntity
  8
0
  6
Continuous
100
AcDbLine
 10
256.250122
 20
167.481842
 30
0.0
 11
250.417389
 21
167.740112
 31
0.0
  0
LINE
  5
E1
100
AcDbEntity
  8
0
  6
Continuous
100
AcDbLine
 10
250.417389
 20
167.740112
 30
0.0
 11
215.230484
 21
167.800461
 31
0.0
  0
LINE
  5
E2
100
AcDbEntity
  8
0
  6
Continuous
100
AcDbLine
 10
215.230484
 20
167.800461
 30
0.0
 11
209.34407
 21
167.893219
 31
0.0
  0
LINE
  5
E3
100
AcDbEntity
  8
0
  6
Continuous
100
AcDbLine
 10
209.34407
 20
167.893219
 30
0.0
 11
208.696991
 21
157.555771
 31
0.0
  0
LINE
  5
E4
100
AcDbEntity
  8
0
  6
Continuous
100
AcDbLine
 10
208.696991
 20
157.555771
 30
0.0
 11
139.447998
 21
159.973999
 31
0.0
  0
LINE
  5
E5
100
AcDbEntity
  8
0
  6
Continuous
100
AcDbLine
 10
139.447998
 20
159.973999
 30
0.0
 11
139.552704
 21
162.972183
 31
0.0
  0
LINE
  5
E6
100
AcDbEntity
  8
0
  6
Continuous
100
AcDbLine
 10
139.552704
 20
162.972183
 30
0.0
 11
207.984436
 21
160.582489
 31
0.0
  0
LINE
  5
E7
100
AcDbEntity
  8
0
  6
Continuous
100
AcDbLine
 10
207.984436
 20
160.582489
 30
0.0
 11
208.485657
 21
167.907547
 31
0.0
  0
LINE
  5
E8
100
AcDbEntity
  8
0
  6
Continuous
100
AcDbLine
 10
208.485657
 20
167.907547
 30
0.0
 11
147.903717
 21
168.918869
 31
0.0
  0
LINE
  5
E9
100
AcDbEntity
  8
0
  6
Continuous
100
AcDbLine
 10
147.903717
 20
168.918869
 30
0.0
 11
117.969246
 21
169.018692
 31
0.0
  0
LINE
  5
EA
100
AcDbEntity
  8
0
  6
Continuous
100
AcDbLine
 10
117.969246
 20
169.018692
 30
0.0
 11
114.843246
 21
168.93634
 31
0.0
  0
LINE
  5
EB
100
AcDbEntity
  8
0
  6
Continuous
100
AcDbLine
 10
114.843246
 20
168.93634
 30
0.0
 11
107.091789
 21
168.306335
 31
0.0
  0
LINE
  5
EC
100
AcDbEntity
  8
0
  6
Continuous
100
AcDbLine
 10
107.091789
 20
168.306335
 30
0.0
 11
97.64048
 21
167.120071
 31
0.0
  0
LINE
  5
ED
100
AcDbEntity
  8
0
  6
Continuous
100
AcDbLine
 10
97.64048
 20
167.120071
 30
0.0
 11
86.848663
 21
165.454498
 31
0.0
  0
LINE
  5
EE
100
AcDbEntity
  8
0
  6
Continuous
100
AcDbLine
 10
86.848663
 20
165.454498
 30
0.0
 11
68.933525
 21
162.225723
 31
0.0
  0
LINE
  5
EF
100
AcDbEntity
  8
0
  6
Continuous
100
AcDbLine
 10
68.933525
 20
162.225723
 30
0.0
 11
50.023483
 21
158.351273
 31
0.0
  0
LINE
  5
F0
100
AcDbEntity
  8
0
  6
Continuous
100
AcDbLine
 10
50.023483
 20
158.351273
 30
0.0
 11
31.331293
 21
154.090851
 31
0.0
  0
LINE
  5
F1
100
AcDbEntity
  8
0
  6
Continuous
100
AcDbLine
 10
31.331293
 20
154.090851
 30
0.0
 11
14.069698
 21
149.704147
 31
0.0
  0
LINE
  5
F2
100
AcDbEntity
  8
0
  6
Continuous
100
AcDbLine
 10
14.069698
 20
149.704147
 30
0.0
 11
8.843354
 21
148.258713
 31
0.0
  0
LINE
  5
F3
100
AcDbEntity
  8
0
  6
Continuous
100
AcDbLine
 10
8.80614
 20
147.871686
 30
0.0
 11
8.340818
 21
143.032333
 31
0.0
  0
LINE
  5
F4
100
AcDbEntity
  8
0
  6
Continuous
100
AcDbLine
 10
8.340818
 20
143.032333
 30
0.0
 11
17.895294
 21
141.256348
 31
0.0
  0
LINE
  5
F5
100
AcDbEntity
  8
0
  6
Continuous
100
AcDbLine
 10
17.895294
 20
141.256348
 30
0.0
 11
19.044231
 21
147.287201
 31
0.0
  0
LINE
  5
F6
100
AcDbEntity
  8
0
  6
Continuous
100
AcDbLine
 10
19.044231
 20
147.287201
 30
0.0
 11
54.095554
 21
147.593094
 31
0.0
  0
LINE
  5
F7
100
AcDbEntity
  8
0
  6
Continuous
100
AcDbLine
 10
54.095554
 20
147.593094
 30
0.0
 11
54.121735
 21
144.593201
 31
0.0
  0
LINE
  5
F8
100
AcDbEntity
  8
0
  6
Continuous
100
AcDbLine
 10
54.121735
 20
144.593201
 30
0.0
 11
19.07041
 21
144.287308
 31
0.0
  0
LINE
  5
F9
100
AcDbEntity
  8
0
  6
Continuous
100
AcDbLine
 10
19.07041
 20
144.287308
 30
0.0
 11
18.422085
 21
141.169235
 31
0.0
  0
LINE
  5
FA
100
AcDbEntity
  8
0
  6
Continuous
100
AcDbLine
 10
18.422085
 20
141.169235
 30
0.0
 11
27.444855
 21
139.762787
 31
0.0
  0
LINE
  5
FB
100
AcDbEntity
  8
0
  6
Continuous
100
AcDbLine
 10
27.444855
 20
139.762787
 30
0.0
 11
1.40812
 21
83.649132
 31
0.0
  0
LINE
  5
FC
100
AcDbEntity
  8
0
  6
Continuous
100
AcDbLine
 10
1.40812
 20
83.649132
 30
0.0
 11
15.338789
 21
83.667465
 31
0.0
  0
LINE
  5
FD
100
AcDbEntity
  8
0
  6
Continuous
100
AcDbLine
 10
15.338789
 20
83.667465
 30
0.0
 11
16.948921
 21
83.971535
 31
0.0
  0
LINE
  5
FE
100
AcDbEntity
  8
0
  6
Continuous
100
AcDbLine
 10
16.948921
 20
83.971535
 30
0.0
 11
19.145971
 21
84.855713
 31
0.0
  0
LINE
  5
FF
100
AcDbEntity
  8
0
  6
Continuous
100
AcDbLine
 10
19.145971
 20
84.855713
 30
0.0
 11
21.290836
 21
86.126091
 31
0.0
  0
LINE
  5
100
100
AcDbEntity
  8
0
  6
Continuous
100
AcDbLine
 10
21.290836
 20
86.126091
 30
0.0
 11
23.716461
 21
87.989639
 31
0.0
  0
LINE
  5
101
100
AcDbEntity
  8
0
  6
Continuous
100
AcDbLine
 10
23.716461
 20
87.989639
 30
0.0
 11
24.945951
 21
89.123047
 31
0.0
  0
LINE
  5
102
100
AcDbEntity
  8
0
  6
Continuous
100
AcDbLine
 10
24.945951
 20
89.123047
 30
0.0
 11
38.230598
 21
102.957405
 31
0.0
  0
LINE
  5
103
100
AcDbEntity
  8
0
  6
Continuous
100
AcDbLine
 10
38.230598
 20
102.957405
 30
0.0
 11
46.90657
 21
94.984894
 31
0.0
  0
LINE
  5
104
100
AcDbEntity
  8
0
  6
Continuous
100
AcDbLine
 10
46.90657
 20
94.984894
 30
0.0
 11
41.155548
 21
91.853004
 31
0.0
  0
LINE
  5
105
100
AcDbEntity
  8
0
  6
Continuous
100
AcDbLine
 10
41.155548
 20
91.853004
 30
0.0
 11
69.306953
 21
91.853004
 31
0.0
  0
LINE
  5
106
100
AcDbEntity
  8
0
  6
Continuous
100
AcDbLine
 10
69.306953
 20
91.853004
 30
0.0
 11
69.306953
 21
88.853004
 31
0.0
  0
LINE
  5
107
100
AcDbEntity
  8
0
  6
Continuous
100
AcDbLine
 10
69.306953
 20
88.853004
 30
0.0
 11
57.49938
 21
88.853004
 31
0.0
  0
LINE
  5
108
100
AcDbEntity
  8
0
  6
Continuous
100
AcDbLine
 10
78.606308
 20
92.025482
 30
0.0
 11
82.806618
 21
92.560364
 31
0.0
  0
LINE
  5
109
100
AcDbEntity
  8
0
  6
Continuous
100
AcDbLine
 10
82.806618
 20
92.560364
 30
0.0
 11
86.831528
 21
93.483833
 31
0.0
  0
LINE
  5
10A
100
AcDbEntity
  8
0
  6
Continuous
100
AcDbLine
 10
86.831528
 20
93.483833
 30
0.0
 11
88.120995
 21
93.882538
 31
0.0
  0
LINE
  5
10B
100
AcDbEntity
  8
0
  6
Continuous
100
AcDbLine
 10
88.120995
 20
93.882538
 30
0.0
 11
88.120995
 21
106.544571
 31
0.0
  0
LINE
  5
10C
100
AcDbEntity
  8
0
  6
Continuous
100
AcDbLine
 10
88.120995
 20
106.544571
 30
0.0
 11
83.417816
 21
107.264061
 31
0.0
  0
LINE
  5
10D
100
AcDbEntity
  8
0
  6
Continuous
100
AcDbLine
 10
83.417816
 20
107.264061
 30
0.0
 11
79.100044
 21
107.61348
 31
0.0
  0
LINE
  5
10E
100
AcDbEntity
  8
0
  6
Continuous
100
AcDbLine
 10
79.100044
 20
107.61348
 30
0.0
 11
79.100044
 21
113.667641
 31
0.0
  0
LINE
  5
10F
100
AcDbEntity
  8
0
  6
Continuous
100
AcDbLine
 10
79.100044
 20
113.667641
 30
0.0
 11
97.354347
 21
113.667641
 31
0.0
  0
LINE
  5
110
100
AcDbEntity
  8
0
  6
Continuous
100
AcDbLine
 10
97.354347
 20
113.667641
 30
0.0
 11
97.354347
 21
110.667641
 31
0.0
  0
LINE
  5
111
100
AcDbEntity
  8
0
  6
Continuous
100
AcDbLine
 10
106.653694
 20
113.840118
 30
0.0
 11
110.854004
 21
114.375
 31
0.0
  0
LINE
  5
112
100
AcDbEntity
  8
0
  6
Continuous
100
AcDbLine
 10
110.854004
 20
114.375
 30
0.0
 11
111.736198
 21
114.540985
 31
0.0
  0
LINE
  5
113
100
AcDbEntity
  8
0
  6
Continuous
100
AcDbLine
 10
111.736198
 20
114.540985
 30
0.0
 11
117.460632
 21
107.544456
 31
0.0
  0
LINE
  5
114
100
AcDbEntity
  8
0
  6
Continuous
100
AcDbLine
 10
117.460632
 20
107.544456
 30
0.0
 11
98.372452
 21
93.445747
 31
0.0
  0
LINE
  5
115
100
AcDbEntity
  8
0
  6
Continuous
100
AcDbLine
 10
98.372452
 20
93.445747
 30
0.0
 11
98.372452
 21
88.445747
 31
0.0
  0
LINE
  5
116
100
AcDbEntity
  8
0
  6
Continuous
100
AcDbLine
 10
98.372452
 20
88.445747
 30
0.0
 11
95.372452
 21
88.445747
 31
0.0
  0
LINE
  5
117
100
AcDbEntity
  8
0
  6
Continuous
100
AcDbLine
 10
95.372452
 20
88.445747
 30
0.0
 11
95.372452
 21
91.229919
 31
0.0
  0
LINE
  5
118
100
AcDbEntity
  8
0
  6
Continuous
100
AcDbLine
 10
95.372452
 20
91.229919
 30
0.0
 11
57.008301
 21
62.89381
 31
0.0
  0
LINE
  5
119
100
AcDbEntity
  8
0
  6
Continuous
100
AcDbLine
 10
57.008301
 20
62.89381
 30
0.0
 11
57.008301
 21
57.89381
 31
0.0
  0
LINE
  5
11A
100
AcDbEntity
  8
0
  6
Continuous
100
AcDbLine
 10
57.008301
 20
57.89381
 30
0.0
 11
54.008301
 21
57.89381
 31
0.0
  0
LINE
  5
11B
100
AcDbEntity
  8
0
  6
Continuous
100
AcDbLine
 10
54.008301
 20
57.89381
 30
0.0
 11
54.008301
 21
60.677982
 31
0.0
  0
LINE
  5
11C
100
AcDbEntity
  8
0
  6
Continuous
100
AcDbLine
 10
54.008301
 20
60.677982
 30
0.0
 11
0.0
 21
20.786963
 31
0.0
  0
LINE
  5
11D
100
AcDbEntity
  8
0
  6
Continuous
100
AcDbLine
 10
0.0
 20
20.786963
 30
0.0
 11
0.0
 21
1.643222
 31
0.0
  0
LINE
  5
11E
100
AcDbEntity
  8
0
  6
Continuous
100
AcDbLine
 10
0.0
 20
1.643222
 30
0.0
 11
109.050949
 21
48.135162
 31
0.0
  0
LINE
  5
11F
100
AcDbEntity
  8
0
  6
Continuous
100
AcDbLine
 10
109.050949
 20
48.135162
 30
0.0
 11
127.705948
 21
52.894089
 31
0.0
  0
LINE
  5
120
100
AcDbEntity
  8
0
  6
Continuous
100
AcDbLine
 10
127.705948
 20
52.894089
 30
0.0
 11
129.288162
 21
47.868252
 31
0.0
  0
LINE
  5
121
100
AcDbEntity
  8
0
  6
Continuous
100
AcDbLine
 10
129.288162
 20
47.868252
 30
0.0
 11
124.452934
 21
45.933186
 31
0.0
  0
LINE
  5
122
100
AcDbEntity
  8
0
  6
Continuous
100
AcDbLine
 10
124.452934
 20
45.933186
 30
0.0
 11
119.604668
 21
43.998878
 31
0.0
  0
LINE
  5
123
100
AcDbEntity
  8
0
  6
Continuous
100
AcDbLine
 10
119.604668
 20
43.998878
 30
0.0
 11
86.744408
 21
31.416109
 31
0.0
  0
LINE
  5
124
100
AcDbEntity
  8
0
  6
Continuous
100
AcDbLine
 10
86.744408
 20
31.416109
 30
0.0
 11
81.385735
 21
29.098324
 31
0.0
  0
LINE
  5
125
100
AcDbEntity
  8
0
  6
Continuous
100
AcDbLine
 10
81.385735
 20
29.098324
 30
0.0
 11
76.646584
 21
26.800049
 31
0.0
  0
LINE
  5
126
100
AcDbEntity
  8
0
  6
Continuous
100
AcDbLine
 10
76.646584
 20
26.800049
 30
0.0
 11
72.536484
 21
24.54088
 31
0.0
  0
LINE
  5
127
100
AcDbEntity
  8
0
  6
Continuous
100
AcDbLine
 10
72.536484
 20
24.54088
 30
0.0
 11
69.064957
 21
22.340412
 31
0.0
  0
LINE
  5
128
100
AcDbEntity
  8
0
  6
Continuous
100
AcDbLine
 10
69.064957
 20
22.340412
 30
0.0
 11
66.241524
 21
20.218241
 31
0.0
  0
LINE
  5
129
100
AcDbEntity
  8
0
  6
Continuous
100
AcDbLine
 10
66.241524
 20
20.218241
 30
0.0
 11
64.075706
 21
18.193962
 31
0.0
  0
LINE
  5
12A
100
AcDbEntity
  8
0
  6
Continuous
100
AcDbLine
 10
64.075706
 20
18.193962
 30
0.0
 11
62.57703
 21
16.28717
 31
0.0
  0
LINE
  5
12B
100
AcDbEntity
  8
0
  6
Continuous
100
AcDbLine
 10
62.57703
 20
16.28717
 30
0.0
 11
62.080849
 21
15.383957
 31
0.0
  0
LINE
  5
12C
100
AcDbEntity
  8
0
  6
Continuous
100
AcDbLine
 10
62.080849
 20
15.383957
 30
0.0
 11
61.75502
 21
14.517463
 31
0.0
  0
LINE
  5
12D
100
AcDbEntity
  8
0
  6
Continuous
100
AcDbLine
 10
61.75502
 20
14.517463
 30
0.0
 11
61.600742
 21
13.69014
 31
0.0
  0
LINE
  5
12E
100
AcDbEntity
  8
0
  6
Continuous
100
AcDbLine
 10
61.600742
 20
13.69014
 30
0.0
 11
61.619202
 21
12.904435
 31
0.0
  0
LINE
  5
12F
100
AcDbEntity
  8
0
  6
Continuous
100
AcDbLine
 10
61.619202
 20
12.904435
 30
0.0
 11
61.93866
 21
11.880648
 31
0.0
  0
LINE
  5
130
100
AcDbEntity
  8
0
  6
Continuous
100
AcDbLine
 10
61.93866
 20
11.880648
 30
0.0
 11
62.846924
 21
10.594849
 31
0.0
  0
LINE
  5
131
100
AcDbEntity
  8
0
  6
Continuous
100
AcDbLine
 10
62.846924
 20
10.594849
 30
0.0
 11
64.359825
 21
9.205808
 31
0.0
  0
LINE
  5
132
100
AcDbEntity
  8
0
  6
Continuous
100
AcDbLine
 10
64.359825
 20
9.205808
 30
0.0
 11
66.430283
 21
7.911225
 31
0.0
  0
LINE
  5
133
100
AcDbEntity
  8
0
  6
Continuous
100
AcDbLine
 10
66.430283
 20
7.911225
 30
0.0
 11
68.320686
 21
7.121204
 31
0.0
  0
LINE
  5
134
100
AcDbEntity
  8
0
  6
Continuous
100
AcDbLine
 10
68.320686
 20
7.121204
 30
0.0
 11
70.478355
 21
6.578926
 31
0.0
  0
LINE
  5
135
100
AcDbEntity
  8
0
  6
Continuous
100
AcDbLine
 10
70.478355
 20
6.578926
 30
0.0
 11
71.253532
 21
6.467636
 31
0.0
  0
LINE
  5
136
100
AcDbEntity
  8
0
  6
Continuous
100
AcDbLine
 10
71.253532
 20
6.467636
 30
0.0
 11
72.754654
 21
5.646771
 31
0.0
  0
LINE
  5
137
100
AcDbEntity
  8
0
  6
Continuous
100
AcDbLine
 10
72.754654
 20
5.646771
 30
0.0
 11
74.354736
 21
4.913033
 31
0.0
  0
LINE
  5
138
100
AcDbEntity
  8
0
  6
Continuous
100
AcDbLine
 10
74.354736
 20
4.913033
 30
0.0
 11
77.828781
 21
3.706989
 31
0.0
  0
LINE
  5
139
100
AcDbEntity
  8
0
  6
Continuous
100
AcDbLine
 10
77.828781
 20
3.706989
 30
0.0
 11
81.629662
 21
2.849607
 31
0.0
  0
LINE
  5
13A
100
AcDbEntity
  8
0
  6
Continuous
100
AcDbLine
 10
81.629662
 20
2.849607
 30
0.0
 11
85.711372
 21
2.340992
 31
0.0
  0
LINE
  5
13B
100
AcDbEntity
  8
0
  6
Continuous
100
AcDbLine
 10
85.711372
 20
2.340992
 30
0.0
 11
90.027916
 21
2.181246
 31
0.0
  0
LINE
  5
13C
100
AcDbEntity
  8
0
  6
Continuous
100
AcDbLine
 10
90.027916
 20
2.181246
 30
0.0
 11
94.533272
 21
2.370475
 31
0.0
  0
LINE
  5
13D
100
AcDbEntity
  8
0
  6
Continuous
100
AcDbLine
 10
94.533272
 20
2.370475
 30
0.0
 11
99.181435
 21
2.908783
 31
0.0
  0
LINE
  5
13E
100
AcDbEntity
  8
0
  6
Continuous
100
AcDbLine
 10
99.181435
 20
2.908783
 30
0.0
 11
103.926414
 21
3.796273
 31
0.0
  0
LINE
  5
13F
100
AcDbEntity
  8
0
  6
Continuous
100
AcDbLine
 10
103.926414
 20
3.796273
 30
0.0
 11
108.722191
 21
5.03305
 31
0.0
  0
LINE
  5
140
100
AcDbEntity
  8
0
  6
Continuous
100
AcDbLine
 10
108.722191
 20
5.03305
 30
0.0
 11
113.522766
 21
6.619218
 31
0.0
  0
LINE
  5
141
100
AcDbEntity
  8
0
  6
Continuous
100
AcDbLine
 10
113.522766
 20
6.619218
 30
0.0
 11
137.367706
 21
15.703004
 31
0.0
  0
LINE
  5
142
100
AcDbEntity
  8
0
  6
Continuous
100
AcDbLine
 10
137.367706
 20
15.703004
 30
0.0
 11
139.250381
 21
40.921024
 31
0.0
  0
LINE
  5
143
100
AcDbEntity
  8
0
  6
Continuous
100
AcDbLine
 10
139.250381
 20
40.921024
 30
0.0
 11
129.280838
 21
36.719063
 31
0.0
  0
LINE
  5
144
100
AcDbEntity
  8
0
  6
Continuous
100
AcDbLine
 10
129.280838
 20
36.719063
 30
0.0
 11
128.115677
 21
39.483543
 31
0.0
  0
LINE
  5
145
100
AcDbEntity
  8
0
  6
Continuous
100
AcDbLine
 10
128.115677
 20
39.483543
 30
0.0
 11
139.501328
 21
44.282375
 31
0.0
  0
LINE
  5
146
100
AcDbEntity
  8
0
  6
Continuous
100
AcDbLine
 10
139.501328
 20
44.282375
 30
0.0
 11
140.093063
 21
52.20853
 31
0.0
  0
LINE
  5
147
100
AcDbEntity
  8
0
  6
Continuous
100
AcDbLine
 10
140.093063
 20
52.20853
 30
0.0
 11
130.218979
 21
48.24168
 31
0.0
  0
LINE
  5
148
100
AcDbEntity
  8
0
  6
Continuous
100
AcDbLine
 10
130.218979
 20
48.24168
 30
0.0
 11
128.676392
 21
53.141651
 31
0.0
  0
LINE
  5
149
100
AcDbEntity
  8
0
  6
Continuous
100
AcDbLine
 10
128.676392
 20
53.141651
 30
0.0
 11
142.55249
 21
56.681473
 31
0.0
  0
LINE
  5
14A
100
AcDbEntity
  8
0
  6
Continuous
100
AcDbLine
 10
142.55249
 20
56.681473
 30
0.0
 11
161.59137
 21
51.824619
 31
0.0
  0
LINE
  5
14B
100
AcDbEntity
  8
0
  6
Continuous
100
AcDbLine
 10
161.59137
 20
51.824619
 30
0.0
 11
159.365143
 21
46.461449
 31
0.0
  0
LINE
  5
14C
100
AcDbEntity
  8
0
  6
Continuous
100
AcDbLine
 10
159.365143
 20
46.461449
 30
0.0
 11
147.016251
 21
51.986855
 31
0.0
  0
LINE
  5
14D
100
AcDbEntity
  8
0
  6
Continuous
100
AcDbLine
 10
147.016251
 20
51.986855
 30
0.0
 11
147.299026
 21
44.043674
 31
0.0
  0
LINE
  5
14E
100
AcDbEntity
  8
0
  6
Continuous
100
AcDbLine
 10
147.299026
 20
44.043674
 30
0.0
 11
158.489273
 21
38.805321
 31
0.0
  0
LINE
  5
14F
100
AcDbEntity
  8
0
  6
Continuous
100
AcDbLine
 10
158.489273
 20
38.805321
 30
0.0
 11
157.217377
 21
36.088284
 31
0.0
  0
LINE
  5
150
100
AcDbEntity
  8
0
  6
Continuous
100
AcDbLine
 10
157.217377
 20
36.088284
 30
0.0
 11
147.418945
 21
40.675106
 31
0.0
  0
LINE
  5
151
100
AcDbEntity
  8
0
  6
Continuous
100
AcDbLine
 10
147.418945
 20
40.675106
 30
0.0
 11
148.318649
 21
15.402915
 31
0.0
  0
LINE
  5
152
100
AcDbEntity
  8
0
  6
Continuous
100
AcDbLine
 10
148.318649
 20
15.402915
 30
0.0
 11
171.791946
 21
5.397901
 31
0.0
  0
LINE
  5
153
100
AcDbEntity
  8
0
  6
Continuous
100
AcDbLine
 10
171.791946
 20
5.397901
 30
0.0
 11
176.527145
 21
3.626083
 31
0.0
  0
LINE
  5
154
100
AcDbEntity
  8
0
  6
Continuous
100
AcDbLine
 10
176.527145
 20
3.626083
 30
0.0
 11
181.271149
 21
2.203578
 31
0.0
  0
LINE
  5
155
100
AcDbEntity
  8
0
  6
Continuous
100
AcDbLine
 10
181.271149
 20
2.203578
 30
0.0
 11
185.977997
 21
1.132073
 31
0.0
  0
LINE
  5
156
100
AcDbEntity
  8
0
  6
Continuous
100
AcDbLine
 10
185.977997
 20
1.132073
 30
0.0
 11
190.601685
 21
0.413253
 31
0.0
  0
LINE
  5
157
100
AcDbEntity
  8
0
  6
Continuous
100
AcDbLine
 10
190.601685
 20
0.413253
 30
0.0
 11
195.096268
 21
0.048806
 31
0.0
  0
LINE
  5
158
100
AcDbEntity
  8
0
  6
Continuous
100
AcDbLine
 10
195.096268
 20
0.048806
 30
0.0
 11
199.415741
 21
0.040419
 31
0.0
  0
LINE
  5
159
100
AcDbEntity
  8
0
  6
Continuous
100
AcDbLine
 10
199.415741
 20
0.040419
 30
0.0
 11
203.51416
 21
0.389778
 31
0.0
  0
LINE
  5
15A
100
AcDbEntity
  8
0
  6
Continuous
100
AcDbLine
 10
203.51416
 20
0.389778
 30
0.0
 11
207.345535
 21
1.098569
 31
0.0
  0
LINE
  5
15B
100
AcDbEntity
  8
0
  6
Continuous
100
AcDbLine
 10
207.345535
 20
1.098569
 30
0.0
 11
210.863892
 21
2.16848
 31
0.0
  0
LINE
  5
15C
100
AcDbEntity
  8
0
  6
Continuous
100
AcDbLine
 10
210.863892
 20
2.16848
 30
0.0
 11
212.491318
 21
2.839382
 31
0.0
  0
LINE
  5
15D
100
AcDbEntity
  8
0
  6
Continuous
100
AcDbLine
 10
212.491318
 20
2.839382
 30
0.0
 11
214.023254
 21
3.601196
 31
0.0
  0
LINE
  5
15E
100
AcDbEntity
  8
0
  6
Continuous
100
AcDbLine
 10
214.023254
 20
3.601196
 30
0.0
 11
216.281067
 21
3.954747
 31
0.0
  0
LINE
  5
15F
100
AcDbEntity
  8
0
  6
Continuous
100
AcDbLine
 10
216.281067
 20
3.954747
 30
0.0
 11
218.289154
 21
4.593778
 31
0.0
  0
LINE
  5
160
100
AcDbEntity
  8
0
  6
Continuous
100
AcDbLine
 10
218.289154
 20
4.593778
 30
0.0
 11
220.024429
 21
5.435721
 31
0.0
  0
LINE
  5
161
100
AcDbEntity
  8
0
  6
Continuous
100
AcDbLine
 10
220.024429
 20
5.435721
 30
0.0
 11
221.873825
 21
6.731243
 31
0.0
  0
LINE
  5
162
100
AcDbEntity
  8
0
  6
Continuous
100
AcDbLine
 10
221.873825
 20
6.731243
 30
0.0
 11
223.142395
 21
8.044995
 31
0.0
  0
LINE
  5
163
100
AcDbEntity
  8
0
  6
Continuous
100
AcDbLine
 10
223.142395
 20
8.044995
 30
0.0
 11
223.679718
 21
8.924537
 31
0.0
  0
LINE
  5
164
100
AcDbEntity
  8
0
  6
Continuous
100
AcDbLine
 10
223.679718
 20
8.924537
 30
0.0
 11
223.900818
 21
9.658123
 31
0.0
  0
LINE
  5
165
100
AcDbEntity
  8
0
  6
Continuous
100
AcDbLine
 10
223.900818
 20
9.658123
 30
0.0
 11
223.949844
 21
10.442514
 31
0.0
  0
LINE
  5
166
100
AcDbEntity
  8
0
  6
Continuous
100
AcDbLine
 10
223.949844
 20
10.442514
 30
0.0
 11
223.827881
 21
11.275215
 31
0.0
  0
LINE
  5
167
100
AcDbEntity
  8
0
  6
Continuous
100
AcDbLine
 10
223.827881
 20
11.275215
 30
0.0
 11
223.536041
 21
12.153734
 31
0.0
  0
LINE
  5
168
100
AcDbEntity
  8
0
  6
Continuous
100
AcDbLine
 10
223.536041
 20
12.153734
 30
0.0
 11
223.075378
 21
13.075577
 31
0.0
  0
LINE
  5
169
100
AcDbEntity
  8
0
  6
Continuous
100
AcDbLine
 10
223.075378
 20
13.075577
 30
0.0
 11
221.652069
 21
15.039255
 31
0.0
  0
LINE
  5
16A
100
AcDbEntity
  8
0
  6
Continuous
100
AcDbLine
 10
221.652069
 20
15.039255
 30
0.0
 11
219.566681
 21
17.146299
 31
0.0
  0
LINE
  5
16B
100
AcDbEntity
  8
0
  6
Continuous
100
AcDbLine
 10
219.566681
 20
17.146299
 30
0.0
 11
216.827988
 21
19.376759
 31
0.0
  0
LINE
  5
16C
100
AcDbEntity
  8
0
  6
Continuous
100
AcDbLine
 10
216.827988
 20
19.376759
 30
0.0
 11
213.444733
 21
21.710682
 31
0.0
  0
LINE
  5
16D
100
AcDbEntity
  8
0
  6
Continuous
100
AcDbLine
 10
213.444733
 20
21.710682
 30
0.0
 11
209.42569
 21
24.128115
 31
0.0
  0
LINE
  5
16E
100
AcDbEntity
  8
0
  6
Continuous
100
AcDbLine
 10
209.42569
 20
24.128115
 30
0.0
 11
204.779587
 21
26.60911
 31
0.0
  0
LINE
  5
16F
100
AcDbEntity
  8
0
  6
Continuous
100
AcDbLine
 10
204.779587
 20
26.60911
 30
0.0
 11
199.515182
 21
29.133713
 31
0.0
  0
LINE
  5
170
100
AcDbEntity
  8
0
  6
Continuous
100
AcDbLine
 10
199.515182
 20
29.133713
 30
0.0
 11
167.169586
 21
42.985958
 31
0.0
  0
LINE
  5
171
100
AcDbEntity
  8
0
  6
Continuous
100
AcDbLine
 10
167.169586
 20
42.985958
 30
0.0
 11
160.278717
 21
46.053917
 31
0.0
  0
LINE
  5
172
100
AcDbEntity
  8
0
  6
Continuous
100
AcDbLine
 10
160.278717
 20
46.053917
 30
0.0
 11
162.570419
 21
51.57486
 31
0.0
  0
LINE
  5
173
100
AcDbEntity
  8
0
  6
Continuous
100
AcDbLine
 10
162.570419
 20
51.57486
 30
0.0
 11
176.054031
 21
48.135162
 31
0.0
  0
LINE
  5
174
100
AcDbEntity
  8
0
  6
Continuous
100
AcDbLine
 10
176.054031
 20
48.135162
 30
0.0
 11
285.10498
 21
1.643222
 31
0.0
  0
INSERT
  5
18F
100
AcDbEntity
  8
0
  6
Continuous
 62
     7
100
AcDbBlockReference
  2
*E0
 10
0.0
 20
0.0
 30
0.0
1001
TCAD
1000
TC25ExternalObject
1002
{
1000
TCW30CURVE
1000

1070
     0
1071
        0
1040
1.0
1040
0.0
1000
Continuous
1000
0
1070
    21
1071
        4
1071
      162
1010
77.915732
1020
91.997778
1030
0.0
1071
     6274
1010
77.123477
1020
87.534037
1030
0.0
1071
     6274
1010
67.464264
1020
81.665148
1030
0.0
1071
      162
1010
57.49938
1020
88.853004
1030
0.0
1070
     3
1071
        5
1000
$SPLINESEGS
1070
    18
1070
    20
1000
$SPLFRAME
1070
    18
1070
     0
1000
$SPLINETYPE
1070
    18
1070
     1
1000
$SHOWCONTRPTS
1070
    18
1070
     1
1000
$CURVESMOOTH
1070
    18
1070
     1
1002
}
  0
LINE
  5
190
100
AcDbEntity
  8
0
370
     0
  6
Continuous
 62
     7
100
AcDbLine
 10
77.915732
 20
91.997778
 30
0.0
 11
78.606308
 21
92.025482
 31
0.0
  0
LINE
  5
191
100
AcDbEntity
  8
0
  6
Continuous
100
AcDbLine
 10
97.354347
 20
110.667641
 30
0.0
 11
85.546774
 21
110.667641
 31
0.0
  0
INSERT
  5
1AC
100
AcDbEntity
  8
0
  6
Continuous
 62
     7
100
AcDbBlockReference
  2
*E1
 10
0.0
 20
0.0
 30
0.0
1001
TCAD
1000
TC25ExternalObject
1002
{
1000
TCW30CURVE
1000

1070
     0
1071
        0
1040
1.0
1040
0.0
1000
Continuous
1000
0
1070
    21
1071
        4
1071
      162
1010
105.963126
1020
113.812415
1030
0.0
1071
     6274
1010
105.170871
1020
109.348674
1030
0.0
1071
     6274
1010
95.511658
1020
103.479785
1030
0.0
1071
      162
1010
85.546774
1020
110.667641
1030
0.0
1070
     3
1071
        5
1000
$SPLINESEGS
1070
    18
1070
    20
1000
$SPLFRAME
1070
    18
1070
     0
1000
$SPLINETYPE
1070
    18
1070
     1
1000
$SHOWCONTRPTS
1070
    18
1070
     1
1000
$CURVESMOOTH
1070
    18
1070
     1
1002
}
  0
LINE
  5
1AD
100
AcDbEntity
  8
0
370
     0
  6
Continuous
 62
     7
100
AcDbLine
 10
105.963126
 20
113.812415
 30
0.0
 11
106.653694
 21
113.840118
 31
0.0
  0
LINE
  5
1AE
100
AcDbEntity
  8
0
  6
Continuous
100
AcDbLine
 10
226.683975
 20
113.004929
 30
0.0
 11
214.876402
 21
113.004929
 31
0.0
  0
INSERT
  5
1C9
100
AcDbEntity
  8
0
  6
Continuous
 62
     7
100
AcDbBlockReference
  2
*E2
 10
0.0
 20
0.0
 30
0.0
1001
TCAD
1000
TC25ExternalObject
1002
{
1000
TCW30CURVE
1000

1070
     0
1071
        0
1040
1.0
1040
0.0
1000
Continuous
1000
0
1070
    21
1071
        4
1071
      162
1010
235.292754
1020
116.149703
1030
0.0
1071
     6274
1010
234.500499
1020
111.685962
1030
0.0
1071
     6274
1010
224.841286
1020
105.817073
1030
0.0
1071
      162
1010
214.876402
1020
113.004929
1030
0.0
1070
     3
1071
        5
1000
$SPLINESEGS
1070
    18
1070
    20
1000
$SPLFRAME
1070
    18
1070
     0
1000
$SPLINETYPE
1070
    18
1070
     1
1000
$SHOWCONTRPTS
1070
    18
1070
     1
1000
$CURVESMOOTH
1070
    18
1070
     1
1002
}
  0
LINE
  5
1CA
100
AcDbEntity
  8
0
  6
Continuous
100
AcDbLine
 10
205.070099
 20
92.175537
 30
0.0
 11
194.39166
 21
97.214359
 31
0.0
  0
INSERT
  5
1E5
100
AcDbEntity
  8
0
  6
Continuous
 62
     7
100
AcDbBlockReference
  2
*E3
 10
0.0
 20
0.0
 30
0.0
1001
TCAD
1000
TC25ExternalObject
1002
{
1000
TCW30CURVE
1000

1070
     0
1071
        0
1040
1.0
1040
0.0
1000
Continuous
1000
0
1070
    21
1071
        4
1071
      162
1010
214.197654
1020
91.34583
1030
0.0
1071
     6274
1010
211.576282
1020
87.647038
1030
0.0
1071
     6274
1010
200.336242
1020
86.461399
1030
0.0
1071
      162
1010
194.39166
1020
97.214359
1030
0.0
1070
     3
1071
        5
1000
$SPLINESEGS
1070
    18
1070
    20
1000
$SPLFRAME
1070
    18
1070
     0
1000
$SPLINETYPE
1070
    18
1070
     1
1000
$SHOWCONTRPTS
1070
    18
1070
     1
1000
$CURVESMOOTH
1070
    18
1070
     1
1002
}
  0
LINE
  5
1E6
100
AcDbEntity
  8
0
370
     0
  6
Continuous
 62
     7
100
AcDbLine
 10
214.197654
 20
91.34583
 30
0.0
 11
214.836685
 21
91.100281
 31
0.0
  0
ENDSEC
  0
SECTION
  2
OBJECTS
  0
DICTIONARY
  5
19
100
AcDbDictionary
280
     0
281
     1
  3
ACAD_GROUP
350
1A
  3
ACAD_MLINESTYLE
350
1B
  3
ACAD_LAYOUT
350
1E
  3
ACAD_PLOTSETTINGS
350
22
  3
ACAD_PLOTSTYLENAME
350
1F
  0
DICTIONARY
  5
1A
102
{ACAD_REACTORS
330
19
102
}
100
AcDbDictionary
280
     0
281
     1
  0
DICTIONARY
  5
1B
102
{ACAD_REACTORS
330
19
102
}
100
AcDbDictionary
280
     0
281
     1
  3
Standard
350
1C
  0
MLINESTYLE
  5
1C
100
AcDbMlineStyle
  2
STANDARD
 70
     0
  3

 62
   256
 51
90.0
 52
90.0
 71
     2
 49
0.5
 62
   256
  6
BYLAYER
 49
-0.5
 62
   256
  6
BYLAYER
  0
ACDBDICTIONARYWDFLT
  5
1F
102
{ACAD_REACTORS
330
19
102
}
100
AcDbDictionary
281
     1
  3
Normal
350
1D
100
AcDbDictionaryWithDefault
340
1D
  0
ACDBPLACEHOLDER
  5
1D
102
{ACAD_REACTORS
330
1F
102
}
  0
LAYOUT
  5
21
102
{ACAD_REACTORS
330
1E
102
}
100
AcDbPlotSettings
  1

  2

  4

  6

 40
0.0
 41
0.0
 42
0.0
 43
0.0
 44
0.0
 45
0.0
 46
0.0
 47
0.0
 48
0.0
 49
0.0
140
0.0
141
0.0
142
1.0
143
1.0
 70
     0
 72
     0
 73
     0
 74
     0
  7

 75
     0
147
1.0
148
0.0
149
0.0
100
AcDbLayout
  1
Layout1
 70
     0
 71
     0
 10
0.0
 20
0.0
 11
0.0
 21
0.0
 12
0.0
 22
0.0
 32
0.0
 14
0.0
 24
0.0
 34
0.0
 15
0.0
 25
0.0
 35
0.0
146
0.0
 13
0.0
 23
0.0
 33
0.0
 16
0.0
 26
0.0
 36
0.0
 17
0.0
 27
0.0
 37
0.0
 76
     0
330
B
331
0
345
0
346
0
  0
DICTIONARY
  5
1E
102
{ACAD_REACTORS
330
19
102
}
100
AcDbDictionary
280
     0
281
     1
  3
Model
350
1E7
  3
_Paper_Space
350
1E8
  0
DICTIONARY
  5
22
102
{ACAD_REACTORS
330
19
102
}
100
AcDbDictionary
280
     0
281
     1
  0
LAYOUT
  5
1E7
100
AcDbPlotSettings
  1

  2

  4

  6

 40
0.0
 41
0.0
 42
0.0
 43
0.0
 44
0.0
 45
0.0
 46
0.0
 47
0.0
 48
0.0
 49
0.0
140
0.0
141
0.0
142
1.0
143
1.0
 70
     0
 72
     0
 73
     0
 74
     0
  7

 75
     0
147
1.0
148
0.0
149
0.0
100
AcDbLayout
  1
Model
 70
     0
 71
     0
 10
0.0
 20
0.0
 11
0.0
 21
0.0
 12
0.0
 22
0.0
 32
0.0
 14
0.0
 24
0.0
 34
0.0
 15
0.0
 25
0.0
 35
0.0
146
0.0
 13
0.0
 23
0.0
 33
0.0
 16
0.0
 26
0.0
 36
0.0
 17
0.0
 27
0.0
 37
0.0
 76
     0
330
A
331
0
345
0
346
0
  0
LAYOUT
  5
1E8
100
AcDbPlotSettings
  1

  2

  4

  6

 40
0.0
 41
0.0
 42
0.0
 43
0.0
 44
12.0
 45
9.0
 46
0.0
 47
0.0
 48
0.0
 49
0.0
140
0.0
141
0.0
142
1.0
143
1.0
 70
     0
 72
     0
 73
     0
 74
     0
  7

 75
     0
147
1.0
148
0.0
149
0.0
100
AcDbLayout
  1
_Paper_Space
 70
     1
 71
     1
 10
0.0
 20
0.0
 11
12.0
 21
9.0
 12
0.0
 22
0.0
 32
0.0
 14
0.0
 24
0.0
 34
0.0
 15
0.0
 25
0.0
 35
0.0
146
0.0
 13
0.0
 23
0.0
 33
0.0
 16
0.0
 26
0.0
 36
0.0
 17
0.0
 27
0.0
 37
0.0
 76
     0
330
B
331
0
345
0
346
0
  0
ENDSEC
  0
EOF
