   0
SECTION
   2
ENTITIES
   0
POLYLINE
   8
0
  66
 1
   6
Continuous
  10
 0.0
  20
 0.0
  30
 0.0
  70
 128
   0
VERTEX
   8
0
   6
Continuous
  10
 72.294342
  20
 197.838058
  30
 0.0
   0
VERTEX
   8
0
   6
Continuous
  10
 70.700043
  20
 194.272263
  30
 0.0
   0
VERTEX
   8
0
   6
Continuous
  10
 67.782166
  20
 188.486145
  30
 0.0
   0
VERTEX
   8
0
   6
Continuous
  10
 59.864685
  20
 173.981049
  30
 0.0
   0
VERTEX
   8
0
   6
Continuous
  10
 57.994324
  20
 170.199753
  30
 0.0
   0
VERTEX
   8
0
   6
Continuous
  10
 57.403900
  20
 168.550461
  30
 0.0
   0
VERTEX
   8
0
   6
Continuous
  10
 56.872070
  20
 165.859360
  30
 0.0
   0
VERTEX
   8
0
   6
Continuous
  10
 56.390930
  20
 162.196854
  30
 0.0
   0
VERTEX
   8
0
   6
Continuous
  10
 56.237946
  20
 159.427063
  30
 0.0
   0
VERTEX
   8
0
   6
Continuous
  10
 56.294861
  20
 156.665756
  30
 0.0
   0
VERTEX
   8
0
   6
Continuous
  10
 56.590118
  20
 153.938156
  30
 0.0
   0
VERTEX
   8
0
   6
Continuous
  10
 57.152283
  20
 151.269455
  30
 0.0
   0
VERTEX
   8
0
   6
Continuous
  10
 57.634247
  20
 149.749863
  30
 0.0
   0
VERTEX
   8
0
   6
Continuous
  10
 58.234985
  20
 148.533463
  30
 0.0
   0
VERTEX
   8
0
   6
Continuous
  10
 58.994141
  20
 147.405350
  30
 0.0
   0
VERTEX
   8
0
   6
Continuous
  10
 60.355621
  20
 145.836349
  30
 0.0
   0
VERTEX
   8
0
   6
Continuous
  10
 62.408417
  20
 143.870453
  30
 0.0
   0
VERTEX
   8
0
   6
Continuous
  10
 64.973907
  20
 141.393753
  30
 0.0
   0
VERTEX
   8
0
   6
Continuous
  10
 66.309143
  20
 139.779556
  30
 0.0
   0
VERTEX
   8
0
   6
Continuous
  10
 66.587250
  20
 139.190353
  30
 0.0
   0
VERTEX
   8
0
   6
Continuous
  10
 66.673492
  20
 138.408249
  30
 0.0
   0
VERTEX
   8
0
   6
Continuous
  10
 66.490845
  20
 137.668350
  30
 0.0
   0
VERTEX
   8
0
   6
Continuous
  10
 60.320587
  20
 138.756058
  30
 0.0
   0
VERTEX
   8
0
   6
Continuous
  10
 58.575714
  20
 139.276352
  30
 0.0
   0
VERTEX
   8
0
   6
Continuous
  10
 57.273102
  20
 139.606552
  30
 0.0
   0
VERTEX
   8
0
   6
Continuous
  10
 56.439331
  20
 139.576050
  30
 0.0
   0
VERTEX
   8
0
   6
Continuous
  10
 55.776672
  20
 139.312759
  30
 0.0
   0
VERTEX
   8
0
   6
Continuous
  10
 54.513000
  20
 138.490753
  30
 0.0
   0
VERTEX
   8
0
   6
Continuous
  10
 53.420135
  20
 137.413559
  30
 0.0
   0
VERTEX
   8
0
   6
Continuous
  10
 52.750549
  20
 136.410263
  30
 0.0
   0
VERTEX
   8
0
   6
Continuous
  10
 52.330353
  20
 135.315552
  30
 0.0
   0
VERTEX
   8
0
   6
Continuous
  10
 52.027100
  20
 133.379150
  30
 0.0
   0
VERTEX
   8
0
   6
Continuous
  10
 51.741577
  20
 130.045456
  30
 0.0
   0
VERTEX
   8
0
   6
Continuous
  10
 51.699646
  20
 126.689552
  30
 0.0
   0
VERTEX
   8
0
   6
Continuous
  10
 51.939240
  20
 122.494057
  30
 0.0
   0
VERTEX
   8
0
   6
Continuous
  10
 52.442841
  20
 118.334045
  30
 0.0
   0
VERTEX
   8
0
   6
Continuous
  10
 52.948273
  20
 115.474747
  30
 0.0
   0
VERTEX
   8
0
   6
Continuous
  10
 53.461609
  20
 113.852448
  30
 0.0
   0
VERTEX
   8
0
   6
Continuous
  10
 54.014465
  20
 112.863052
  30
 0.0
   0
VERTEX
   8
0
   6
Continuous
  10
 54.481537
  20
 112.379456
  30
 0.0
   0
VERTEX
   8
0
   6
Continuous
  10
 55.038971
  20
 112.078751
  30
 0.0
   0
VERTEX
   8
0
   6
Continuous
  10
 55.696686
  20
 111.997551
  30
 0.0
   0
VERTEX
   8
0
   6
Continuous
  10
 56.225800
  20
 112.170845
  30
 0.0
   0
VERTEX
   8
0
   6
Continuous
  10
 57.888611
  20
 113.642845
  30
 0.0
   0
VERTEX
   8
0
   6
Continuous
  10
 58.457306
  20
 113.928047
  30
 0.0
   0
VERTEX
   8
0
   6
Continuous
  10
 58.791687
  20
 113.733849
  30
 0.0
   0
VERTEX
   8
0
   6
Continuous
  10
 59.081238
  20
 113.228546
  30
 0.0
   0
VERTEX
   8
0
   6
Continuous
  10
 59.116455
  20
 27.436588
  30
 0.0
   0
VERTEX
   8
0
   6
Continuous
  10
 57.187561
  20
 27.284790
  30
 0.0
   0
VERTEX
   8
0
   6
Continuous
  10
 55.306183
  20
 26.833099
  30
 0.0
   0
VERTEX
   8
0
   6
Continuous
  10
 53.518585
  20
 26.092670
  30
 0.0
   0
VERTEX
   8
0
   6
Continuous
  10
 51.868866
  20
 25.081711
  30
 0.0
   0
VERTEX
   8
0
   6
Continuous
  10
 50.397583
  20
 23.825119
  30
 0.0
   0
VERTEX
   8
0
   6
Continuous
  10
 49.140991
  20
 22.353851
  30
 0.0
   0
VERTEX
   8
0
   6
Continuous
  10
 48.130035
  20
 20.704113
  30
 0.0
   0
VERTEX
   8
0
   6
Continuous
  10
 47.389618
  20
 18.916538
  30
 0.0
   0
VERTEX
   8
0
   6
Continuous
  10
 46.937927
  20
 17.035149
  30
 0.0
   0
VERTEX
   8
0
   6
Continuous
  10
 46.786102
  20
 15.106259
  30
 0.0
   0
VERTEX
   8
0
   6
Continuous
  10
 16.132019
  20
 15.106259
  30
 0.0
   0
VERTEX
   8
0
   6
Continuous
  10
 16.063507
  20
 15.976979
  30
 0.0
   0
VERTEX
   8
0
   6
Continuous
  10
 15.741150
  20
 17.155251
  30
 0.0
   0
VERTEX
   8
0
   6
Continuous
  10
 15.169556
  20
 18.234833
  30
 0.0
   0
VERTEX
   8
0
   6
Continuous
  10
 14.376221
  20
 19.163708
  30
 0.0
   0
VERTEX
   8
0
   6
Continuous
  10
 13.399353
  20
 19.897171
  30
 0.0
   0
VERTEX
   8
0
   6
Continuous
  10
 12.286011
  20
 20.399857
  30
 0.0
   0
VERTEX
   8
0
   6
Continuous
  10
 11.089813
  20
 20.647579
  30
 0.0
   0
VERTEX
   8
0
   6
Continuous
  10
 9.868408
  20
 20.628391
  30
 0.0
   0
VERTEX
   8
0
   6
Continuous
  10
 8.680573
  20
 20.343220
  30
 0.0
   0
VERTEX
   8
0
   6
Continuous
  10
 7.583588
  20
 19.805809
  30
 0.0
   0
VERTEX
   8
0
   6
Continuous
  10
 6.630249
  20
 19.042030
  30
 0.0
   0
VERTEX
   8
0
   6
Continuous
  10
 5.866455
  20
 18.088676
  30
 0.0
   0
VERTEX
   8
0
   6
Continuous
  10
 5.329041
  20
 16.991680
  30
 0.0
   0
VERTEX
   8
0
   6
Continuous
  10
 5.043884
  20
 15.803872
  30
 0.0
   0
VERTEX
   8
0
   6
Continuous
  10
 5.000000
  20
 10.799998
  30
 0.0
   0
VERTEX
   8
0
   6
Continuous
  10
 5.096008
  20
 9.579810
  30
 0.0
   0
VERTEX
   8
0
   6
Continuous
  10
 5.461121
  20
 8.157850
  30
 0.0
   0
VERTEX
   8
0
   6
Continuous
  10
 6.086212
  20
 6.829478
  30
 0.0
   0
VERTEX
   8
0
   6
Continuous
  10
 6.949127
  20
 5.641769
  30
 0.0
   0
VERTEX
   8
0
   6
Continuous
  10
 8.019318
  20
 4.636793
  30
 0.0
   0
VERTEX
   8
0
   6
Continuous
  10
 9.258850
  20
 3.850149
  30
 0.0
   0
VERTEX
   8
0
   6
Continuous
  10
 10.623840
  20
 3.309709
  30
 0.0
   0
VERTEX
   8
0
   6
Continuous
  10
 12.065948
  20
 3.034619
  30
 0.0
   0
VERTEX
   8
0
   6
Continuous
  10
 134.888702
  20
 3.000000
  30
 0.0
   0
VERTEX
   8
0
   6
Continuous
  10
 136.108948
  20
 3.096030
  30
 0.0
   0
VERTEX
   8
0
   6
Continuous
  10
 137.530975
  20
 3.461133
  30
 0.0
   0
VERTEX
   8
0
   6
Continuous
  10
 138.859253
  20
 4.086216
  30
 0.0
   0
VERTEX
   8
0
   6
Continuous
  10
 140.046967
  20
 4.949137
  30
 0.0
   0
VERTEX
   8
0
   6
Continuous
  10
 141.051819
  20
 6.019327
  30
 0.0
   0
VERTEX
   8
0
   6
Continuous
  10
 141.838562
  20
 7.258881
  30
 0.0
   0
VERTEX
   8
0
   6
Continuous
  10
 142.378967
  20
 8.623869
  30
 0.0
   0
VERTEX
   8
0
   6
Continuous
  10
 142.654114
  20
 10.065959
  30
 0.0
   0
VERTEX
   8
0
   6
Continuous
  10
 142.677734
  20
 15.455749
  30
 0.0
   0
VERTEX
   8
0
   6
Continuous
  10
 142.467651
  20
 16.659130
  30
 0.0
   0
VERTEX
   8
0
   6
Continuous
  10
 142.000153
  20
 17.787712
  30
 0.0
   0
VERTEX
   8
0
   6
Continuous
  10
 141.297852
  20
 18.787132
  30
 0.0
   0
VERTEX
   8
0
   6
Continuous
  10
 140.394348
  20
 19.609261
  30
 0.0
   0
VERTEX
   8
0
   6
Continuous
  10
 139.333221
  20
 20.214497
  30
 0.0
   0
VERTEX
   8
0
   6
Continuous
  10
 138.165680
  20
 20.573689
  30
 0.0
   0
VERTEX
   8
0
   6
Continuous
  10
 136.947815
  20
 20.669529
  30
 0.0
   0
VERTEX
   8
0
   6
Continuous
  10
 135.738434
  20
 20.497410
  30
 0.0
   0
VERTEX
   8
0
   6
Continuous
  10
 134.595734
  20
 20.065617
  30
 0.0
   0
VERTEX
   8
0
   6
Continuous
  10
 133.574829
  20
 19.394951
  30
 0.0
   0
VERTEX
   8
0
   6
Continuous
  10
 132.724731
  20
 18.517708
  30
 0.0
   0
VERTEX
   8
0
   6
Continuous
  10
 132.086334
  20
 17.476158
  30
 0.0
   0
VERTEX
   8
0
   6
Continuous
  10
 131.690704
  20
 16.320446
  30
 0.0
   0
VERTEX
   8
0
   6
Continuous
  10
 131.556763
  20
 15.106259
  30
 0.0
   0
VERTEX
   8
0
   6
Continuous
  10
 100.902649
  20
 15.106259
  30
 0.0
   0
VERTEX
   8
0
   6
Continuous
  10
 100.750854
  20
 17.035149
  30
 0.0
   0
VERTEX
   8
0
   6
Continuous
  10
 100.299133
  20
 18.916538
  30
 0.0
   0
VERTEX
   8
0
   6
Continuous
  10
 99.558655
  20
 20.704113
  30
 0.0
   0
VERTEX
   8
0
   6
Continuous
  10
 98.547729
  20
 22.353851
  30
 0.0
   0
VERTEX
   8
0
   6
Continuous
  10
 97.291107
  20
 23.825119
  30
 0.0
   0
VERTEX
   8
0
   6
Continuous
  10
 95.819824
  20
 25.081711
  30
 0.0
   0
VERTEX
   8
0
   6
Continuous
  10
 94.170105
  20
 26.092670
  30
 0.0
   0
VERTEX
   8
0
   6
Continuous
  10
 92.382507
  20
 26.833099
  30
 0.0
   0
VERTEX
   8
0
   6
Continuous
  10
 90.501129
  20
 27.284790
  30
 0.0
   0
VERTEX
   8
0
   6
Continuous
  10
 88.572235
  20
 27.436588
  30
 0.0
   0
VERTEX
   8
0
   6
Continuous
  10
 88.589722
  20
 106.481438
  30
 0.0
   0
VERTEX
   8
0
   6
Continuous
  10
 88.853302
  20
 107.192955
  30
 0.0
   0
VERTEX
   8
0
   6
Continuous
  10
 89.246643
  20
 107.571159
  30
 0.0
   0
VERTEX
   8
0
   6
Continuous
  10
 89.728180
  20
 107.657951
  30
 0.0
   0
VERTEX
   8
0
   6
Continuous
  10
 90.074463
  20
 107.521149
  30
 0.0
   0
VERTEX
   8
0
   6
Continuous
  10
 91.457245
  20
 106.242546
  30
 0.0
   0
VERTEX
   8
0
   6
Continuous
  10
 92.259125
  20
 105.707146
  30
 0.0
   0
VERTEX
   8
0
   6
Continuous
  10
 92.830139
  20
 105.596848
  30
 0.0
   0
VERTEX
   8
0
   6
Continuous
  10
 93.537811
  20
 105.698448
  30
 0.0
   0
VERTEX
   8
0
   6
Continuous
  10
 94.229492
  20
 105.999260
  30
 0.0
   0
VERTEX
   8
0
   6
Continuous
  10
 95.066650
  20
 106.640045
  30
 0.0
   0
VERTEX
   8
0
   6
Continuous
  10
 95.731079
  20
 107.465851
  30
 0.0
   0
VERTEX
   8
0
   6
Continuous
  10
 96.140289
  20
 108.380249
  30
 0.0
   0
VERTEX
   8
0
   6
Continuous
  10
 96.555115
  20
 111.040245
  30
 0.0
   0
VERTEX
   8
0
   6
Continuous
  10
 96.812439
  20
 114.314041
  30
 0.0
   0
VERTEX
   8
0
   6
Continuous
  10
 96.831085
  20
 117.606750
  30
 0.0
   0
VERTEX
   8
0
   6
Continuous
  10
 96.550232
  20
 121.714645
  30
 0.0
   0
VERTEX
   8
0
   6
Continuous
  10
 96.034149
  20
 125.357552
  30
 0.0
   0
VERTEX
   8
0
   6
Continuous
  10
 95.583099
  20
 126.888252
  30
 0.0
   0
VERTEX
   8
0
   6
Continuous
  10
 94.914795
  20
 128.355759
  30
 0.0
   0
VERTEX
   8
0
   6
Continuous
  10
 93.845337
  20
 130.086563
  30
 0.0
   0
VERTEX
   8
0
   6
Continuous
  10
 92.339844
  20
 131.987549
  30
 0.0
   0
VERTEX
   8
0
   6
Continuous
  10
 91.729889
  20
 132.507553
  30
 0.0
   0
VERTEX
   8
0
   6
Continuous
  10
 90.810669
  20
 132.949249
  30
 0.0
   0
VERTEX
   8
0
   6
Continuous
  10
 88.972900
  20
 133.439163
  30
 0.0
   0
VERTEX
   8
0
   6
Continuous
  10
 84.692169
  20
 134.404251
  30
 0.0
   0
VERTEX
   8
0
   6
Continuous
  10
 80.761322
  20
 134.999161
  30
 0.0
   0
VERTEX
   8
0
   6
Continuous
  10
 80.539612
  20
 135.796555
  30
 0.0
   0
VERTEX
   8
0
   6
Continuous
  10
 80.378815
  20
 137.191055
  30
 0.0
   0
VERTEX
   8
0
   6
Continuous
  10
 80.475708
  20
 138.602463
  30
 0.0
   0
VERTEX
   8
0
   6
Continuous
  10
 80.826477
  20
 139.956161
  30
 0.0
   0
VERTEX
   8
0
   6
Continuous
  10
 81.357056
  20
 141.033157
  30
 0.0
   0
VERTEX
   8
0
   6
Continuous
  10
 82.260498
  20
 142.120255
  30
 0.0
   0
VERTEX
   8
0
   6
Continuous
  10
 85.489258
  20
 145.007156
  30
 0.0
   0
VERTEX
   8
0
   6
Continuous
  10
 86.914063
  20
 146.435364
  30
 0.0
   0
VERTEX
   8
0
   6
Continuous
  10
 88.269409
  20
 148.137955
  30
 0.0
   0
VERTEX
   8
0
   6
Continuous
  10
 88.890747
  20
 149.116562
  30
 0.0
   0
VERTEX
   8
0
   6
Continuous
  10
 89.458313
  20
 150.193161
  30
 0.0
   0
VERTEX
   8
0
   6
Continuous
  10
 89.959991
  20
 151.377457
  30
 0.0
   0
VERTEX
   8
0
   6
Continuous
  10
 90.383636
  20
 152.679459
  30
 0.0
   0
VERTEX
   8
0
   6
Continuous
  10
 90.717133
  20
 154.108963
  30
 0.0
   0
VERTEX
   8
0
   6
Continuous
  10
 90.948364
  20
 155.675552
  30
 0.0
   0
VERTEX
   8
0
   6
Continuous
  10
 91.065186
  20
 157.389252
  30
 0.0
   0
VERTEX
   8
0
   6
Continuous
  10
 91.055420
  20
 159.259750
  30
 0.0
   0
VERTEX
   8
0
   6
Continuous
  10
 90.836212
  20
 162.318649
  30
 0.0
   0
VERTEX
   8
0
   6
Continuous
  10
 90.436249
  20
 165.280960
  30
 0.0
   0
VERTEX
   8
0
   6
Continuous
  10
 89.874054
  20
 168.145859
  30
 0.0
   0
VERTEX
   8
0
   6
Continuous
  10
 89.168274
  20
 170.912552
  30
 0.0
   0
VERTEX
   8
0
   6
Continuous
  10
 88.337433
  20
 173.580063
  30
 0.0
   0
VERTEX
   8
0
   6
Continuous
  10
 87.400146
  20
 176.147354
  30
 0.0
   0
VERTEX
   8
0
   6
Continuous
  10
 86.374969
  20
 178.613953
  30
 0.0
   0
VERTEX
   8
0
   6
Continuous
  10
 85.280487
  20
 180.978561
  30
 0.0
   0
VERTEX
   8
0
   6
Continuous
  10
 82.957855
  20
 185.398758
  30
 0.0
   0
VERTEX
   8
0
   6
Continuous
  10
 80.580902
  20
 189.400955
  30
 0.0
   0
VERTEX
   8
0
   6
Continuous
  10
 75.394348
  20
 197.502457
  30
 0.0
   0
VERTEX
   8
0
   6
Continuous
  10
 75.394348
  20
 83.403824
  30
 0.0
   0
VERTEX
   8
0
   6
Continuous
  10
 72.294342
  20
 83.403824
  30
 0.0
   0
VERTEX
   8
0
   6
Continuous
  10
 72.294342
  20
 197.838058
  30
 0.0
   0
VERTEX
   8
0
   6
Continuous
  10
 73.346619
  20
 208.492050
  30
 0.0
   0
VERTEX
   8
0
   6
Continuous
  10
 217.135132
  20
 209.217758
  30
 0.0
   0
VERTEX
   8
0
   6
Continuous
  10
 217.728333
  20
 201.990173
  30
 0.0
   0
VERTEX
   8
0
   6
Continuous
  10
 216.532837
  20
 198.766953
  30
 0.0
   0
VERTEX
   8
0
   6
Continuous
  10
 214.926636
  20
 195.173660
  30
 0.0
   0
VERTEX
   8
0
   6
Continuous
  10
 212.008850
  20
 189.387558
  30
 0.0
   0
VERTEX
   8
0
   6
Continuous
  10
 204.091248
  20
 174.882462
  30
 0.0
   0
VERTEX
   8
0
   6
Continuous
  10
 202.220947
  20
 171.101059
  30
 0.0
   0
VERTEX
   8
0
   6
Continuous
  10
 201.630432
  20
 169.451859
  30
 0.0
   0
VERTEX
   8
0
   6
Continuous
  10
 201.098633
  20
 166.760757
  30
 0.0
   0
VERTEX
   8
0
   6
Continuous
  10
 200.617432
  20
 163.098251
  30
 0.0
   0
VERTEX
   8
0
   6
Continuous
  10
 200.464661
  20
 160.328552
  30
 0.0
   0
VERTEX
   8
0
   6
Continuous
  10
 200.521545
  20
 157.567154
  30
 0.0
   0
VERTEX
   8
0
   6
Continuous
  10
 200.816650
  20
 154.839554
  30
 0.0
   0
VERTEX
   8
0
   6
Continuous
  10
 201.378967
  20
 152.170853
  30
 0.0
   0
VERTEX
   8
0
   6
Continuous
  10
 201.860718
  20
 150.651260
  30
 0.0
   0
VERTEX
   8
0
   6
Continuous
  10
 202.461548
  20
 149.434860
  30
 0.0
   0
VERTEX
   8
0
   6
Continuous
  10
 203.220764
  20
 148.306763
  30
 0.0
   0
VERTEX
   8
0
   6
Continuous
  10
 204.582214
  20
 146.737762
  30
 0.0
   0
VERTEX
   8
0
   6
Continuous
  10
 206.634949
  20
 144.771851
  30
 0.0
   0
VERTEX
   8
0
   6
Continuous
  10
 209.200562
  20
 142.295151
  30
 0.0
   0
VERTEX
   8
0
   6
Continuous
  10
 210.535767
  20
 140.680954
  30
 0.0
   0
VERTEX
   8
0
   6
Continuous
  10
 210.813721
  20
 140.091751
  30
 0.0
   0
VERTEX
   8
0
   6
Continuous
  10
 210.900146
  20
 139.309662
  30
 0.0
   0
VERTEX
   8
0
   6
Continuous
  10
 210.717468
  20
 138.569763
  30
 0.0
   0
VERTEX
   8
0
   6
Continuous
  10
 204.547119
  20
 139.657455
  30
 0.0
   0
VERTEX
   8
0
   6
Continuous
  10
 201.713562
  20
 140.476456
  30
 0.0
   0
VERTEX
   8
0
   6
Continuous
  10
 200.870667
  20
 140.512161
  30
 0.0
   0
VERTEX
   8
0
   6
Continuous
  10
 200.265747
  20
 140.342453
  30
 0.0
   0
VERTEX
   8
0
   6
Continuous
  10
 198.982452
  20
 139.578949
  30
 0.0
   0
VERTEX
   8
0
   6
Continuous
  10
 197.845764
  20
 138.547852
  30
 0.0
   0
VERTEX
   8
0
   6
Continuous
  10
 197.123535
  20
 137.572250
  30
 0.0
   0
VERTEX
   8
0
   6
Continuous
  10
 196.635162
  20
 136.497360
  30
 0.0
   0
VERTEX
   8
0
   6
Continuous
  10
 196.253632
  20
 134.280563
  30
 0.0
   0
VERTEX
   8
0
   6
Continuous
  10
 195.968231
  20
 130.946854
  30
 0.0
   0
VERTEX
   8
0
   6
Continuous
  10
 195.926147
  20
 127.590950
  30
 0.0
   0
VERTEX
   8
0
   6
Continuous
  10
 196.165833
  20
 123.395447
  30
 0.0
   0
VERTEX
   8
0
   6
Continuous
  10
 196.669464
  20
 119.235359
  30
 0.0
   0
VERTEX
   8
0
   6
Continuous
  10
 197.174805
  20
 116.376152
  30
 0.0
   0
VERTEX
   8
0
   6
Continuous
  10
 197.688202
  20
 114.753845
  30
 0.0
   0
VERTEX
   8
0
   6
Continuous
  10
 198.241119
  20
 113.764351
  30
 0.0
   0
VERTEX
   8
0
   6
Continuous
  10
 198.708130
  20
 113.280846
  30
 0.0
   0
VERTEX
   8
0
   6
Continuous
  10
 199.265533
  20
 112.980247
  30
 0.0
   0
VERTEX
   8
0
   6
Continuous
  10
 199.923218
  20
 112.899048
  30
 0.0
   0
VERTEX
   8
0
   6
Continuous
  10
 200.452332
  20
 113.072357
  30
 0.0
   0
VERTEX
   8
0
   6
Continuous
  10
 202.115234
  20
 114.544456
  30
 0.0
   0
VERTEX
   8
0
   6
Continuous
  10
 202.683960
  20
 114.829445
  30
 0.0
   0
VERTEX
   8
0
   6
Continuous
  10
 203.018250
  20
 114.635246
  30
 0.0
   0
VERTEX
   8
0
   6
Continuous
  10
 203.307861
  20
 114.129860
  30
 0.0
   0
VERTEX
   8
0
   6
Continuous
  10
 203.343018
  20
 28.337990
  30
 0.0
   0
VERTEX
   8
0
   6
Continuous
  10
 201.414246
  20
 28.186180
  30
 0.0
   0
VERTEX
   8
0
   6
Continuous
  10
 199.532806
  20
 27.734497
  30
 0.0
   0
VERTEX
   8
0
   6
Continuous
  10
 197.745148
  20
 26.994061
  30
 0.0
   0
VERTEX
   8
0
   6
Continuous
  10
 196.095551
  20
 25.983101
  30
 0.0
   0
VERTEX
   8
0
   6
Continuous
  10
 194.624237
  20
 24.726521
  30
 0.0
   0
VERTEX
   8
0
   6
Continuous
  10
 193.367615
  20
 23.255241
  30
 0.0
   0
VERTEX
   8
0
   6
Continuous
  10
 192.356537
  20
 21.605511
  30
 0.0
   0
VERTEX
   8
0
   6
Continuous
  10
 191.616119
  20
 19.817936
  30
 0.0
   0
VERTEX
   8
0
   6
Continuous
  10
 191.164581
  20
 17.936550
  30
 0.0
   0
VERTEX
   8
0
   6
Continuous
  10
 191.012634
  20
 16.007656
  30
 0.0
   0
VERTEX
   8
0
   6
Continuous
  10
 160.358582
  20
 16.007656
  30
 0.0
   0
VERTEX
   8
0
   6
Continuous
  10
 160.290131
  20
 16.878372
  30
 0.0
   0
VERTEX
   8
0
   6
Continuous
  10
 159.967651
  20
 18.056641
  30
 0.0
   0
VERTEX
   8
0
   6
Continuous
  10
 159.396149
  20
 19.136219
  30
 0.0
   0
VERTEX
   8
0
   6
Continuous
  10
 158.602844
  20
 20.065109
  30
 0.0
   0
VERTEX
   8
0
   6
Continuous
  10
 157.625946
  20
 20.798561
  30
 0.0
   0
VERTEX
   8
0
   6
Continuous
  10
 156.512634
  20
 21.301250
  30
 0.0
   0
VERTEX
   8
0
   6
Continuous
  10
 155.316406
  20
 21.548973
  30
 0.0
   0
VERTEX
   8
0
   6
Continuous
  10
 154.095062
  20
 21.529789
  30
 0.0
   0
VERTEX
   8
0
   6
Continuous
  10
 152.907135
  20
 21.244610
  30
 0.0
   0
VERTEX
   8
0
   6
Continuous
  10
 151.810150
  20
 20.707199
  30
 0.0
   0
VERTEX
   8
0
   6
Continuous
  10
 150.856750
  20
 19.943428
  30
 0.0
   0
VERTEX
   8
0
   6
Continuous
  10
 150.093048
  20
 18.990078
  30
 0.0
   0
VERTEX
   8
0
   6
Continuous
  10
 149.555634
  20
 17.893078
  30
 0.0
   0
VERTEX
   8
0
   6
Continuous
  10
 149.270447
  20
 16.705261
  30
 0.0
   0
VERTEX
   8
0
   6
Continuous
  10
 149.226501
  20
 11.701400
  30
 0.0
   0
VERTEX
   8
0
   6
Continuous
  10
 149.322662
  20
 10.481209
  30
 0.0
   0
VERTEX
   8
0
   6
Continuous
  10
 149.687653
  20
 9.059239
  30
 0.0
   0
VERTEX
   8
0
   6
Continuous
  10
 150.312836
  20
 7.730870
  30
 0.0
   0
VERTEX
   8
0
   6
Continuous
  10
 151.175751
  20
 6.543159
  30
 0.0
   0
VERTEX
   8
0
   6
Continuous
  10
 152.245819
  20
 5.538189
  30
 0.0
   0
VERTEX
   8
0
   6
Continuous
  10
 153.485352
  20
 4.751545
  30
 0.0
   0
VERTEX
   8
0
   6
Continuous
  10
 154.850403
  20
 4.211107
  30
 0.0
   0
VERTEX
   8
0
   6
Continuous
  10
 156.292450
  20
 3.936014
  30
 0.0
   0
VERTEX
   8
0
   6
Continuous
  10
 216.520935
  20
 3.901398
  30
 0.0
   0
VERTEX
   8
0
   6
Continuous
  10
 216.520935
  20
 84.505211
  30
 0.0
   0
VERTEX
   8
0
   6
Continuous
  10
 219.620850
  20
 84.505211
  30
 0.0
   0
VERTEX
   8
0
   6
Continuous
  10
 219.620850
  20
 3.901398
  30
 0.0
   0
VERTEX
   8
0
   6
Continuous
  10
 279.115234
  20
 3.901398
  30
 0.0
   0
VERTEX
   8
0
   6
Continuous
  10
 280.335510
  20
 3.997429
  30
 0.0
   0
VERTEX
   8
0
   6
Continuous
  10
 281.757324
  20
 4.362528
  30
 0.0
   0
VERTEX
   8
0
   6
Continuous
  10
 283.085754
  20
 4.987608
  30
 0.0
   0
VERTEX
   8
0
   6
Continuous
  10
 284.273560
  20
 5.850529
  30
 0.0
   0
VERTEX
   8
0
   6
Continuous
  10
 285.278503
  20
 6.920719
  30
 0.0
   0
VERTEX
   8
0
   6
Continuous
  10
 286.065125
  20
 8.160270
  30
 0.0
   0
VERTEX
   8
0
   6
Continuous
  10
 286.605530
  20
 9.525270
  30
 0.0
   0
VERTEX
   8
0
   6
Continuous
  10
 286.880737
  20
 10.967348
  30
 0.0
   0
VERTEX
   8
0
   6
Continuous
  10
 286.904236
  20
 16.357151
  30
 0.0
   0
VERTEX
   8
0
   6
Continuous
  10
 286.694336
  20
 17.560520
  30
 0.0
   0
VERTEX
   8
0
   6
Continuous
  10
 286.226807
  20
 18.689110
  30
 0.0
   0
VERTEX
   8
0
   6
Continuous
  10
 285.524414
  20
 19.688530
  30
 0.0
   0
VERTEX
   8
0
   6
Continuous
  10
 284.620911
  20
 20.510662
  30
 0.0
   0
VERTEX
   8
0
   6
Continuous
  10
 283.559814
  20
 21.115891
  30
 0.0
   0
VERTEX
   8
0
   6
Continuous
  10
 282.392334
  20
 21.475082
  30
 0.0
   0
VERTEX
   8
0
   6
Continuous
  10
 281.174438
  20
 21.570930
  30
 0.0
   0
VERTEX
   8
0
   6
Continuous
  10
 279.965027
  20
 21.398811
  30
 0.0
   0
VERTEX
   8
0
   6
Continuous
  10
 278.822327
  20
 20.967010
  30
 0.0
   0
VERTEX
   8
0
   6
Continuous
  10
 277.801331
  20
 20.296349
  30
 0.0
   0
VERTEX
   8
0
   6
Continuous
  10
 276.951233
  20
 19.419109
  30
 0.0
   0
VERTEX
   8
0
   6
Continuous
  10
 276.312927
  20
 18.377548
  30
 0.0
   0
VERTEX
   8
0
   6
Continuous
  10
 275.917236
  20
 17.221848
  30
 0.0
   0
VERTEX
   8
0
   6
Continuous
  10
 275.783203
  20
 16.007656
  30
 0.0
   0
VERTEX
   8
0
   6
Continuous
  10
 245.129150
  20
 16.007656
  30
 0.0
   0
VERTEX
   8
0
   6
Continuous
  10
 244.977417
  20
 17.936543
  30
 0.0
   0
VERTEX
   8
0
   6
Continuous
  10
 244.525635
  20
 19.817936
  30
 0.0
   0
VERTEX
   8
0
   6
Continuous
  10
 243.785217
  20
 21.605511
  30
 0.0
   0
VERTEX
   8
0
   6
Continuous
  10
 242.774353
  20
 23.255241
  30
 0.0
   0
VERTEX
   8
0
   6
Continuous
  10
 241.517761
  20
 24.726521
  30
 0.0
   0
VERTEX
   8
0
   6
Continuous
  10
 240.046448
  20
 25.983101
  30
 0.0
   0
VERTEX
   8
0
   6
Continuous
  10
 238.396667
  20
 26.994061
  30
 0.0
   0
VERTEX
   8
0
   6
Continuous
  10
 236.609131
  20
 27.734497
  30
 0.0
   0
VERTEX
   8
0
   6
Continuous
  10
 234.727722
  20
 28.186180
  30
 0.0
   0
VERTEX
   8
0
   6
Continuous
  10
 232.798767
  20
 28.337990
  30
 0.0
   0
VERTEX
   8
0
   6
Continuous
  10
 232.816345
  20
 107.382751
  30
 0.0
   0
VERTEX
   8
0
   6
Continuous
  10
 233.079834
  20
 108.094345
  30
 0.0
   0
VERTEX
   8
0
   6
Continuous
  10
 233.473267
  20
 108.472649
  30
 0.0
   0
VERTEX
   8
0
   6
Continuous
  10
 233.954834
  20
 108.559448
  30
 0.0
   0
VERTEX
   8
0
   6
Continuous
  10
 234.301147
  20
 108.422546
  30
 0.0
   0
VERTEX
   8
0
   6
Continuous
  10
 235.683838
  20
 107.143852
  30
 0.0
   0
VERTEX
   8
0
   6
Continuous
  10
 236.485718
  20
 106.608452
  30
 0.0
   0
VERTEX
   8
0
   6
Continuous
  10
 237.056763
  20
 106.498245
  30
 0.0
   0
VERTEX
   8
0
   6
Continuous
  10
 237.764465
  20
 106.599838
  30
 0.0
   0
VERTEX
   8
0
   6
Continuous
  10
 238.456116
  20
 106.900749
  30
 0.0
   0
VERTEX
   8
0
   6
Continuous
  10
 239.293335
  20
 107.541351
  30
 0.0
   0
VERTEX
   8
0
   6
Continuous
  10
 239.957764
  20
 108.367340
  30
 0.0
   0
VERTEX
   8
0
   6
Continuous
  10
 240.366821
  20
 109.281639
  30
 0.0
   0
VERTEX
   8
0
   6
Continuous
  10
 240.781616
  20
 111.941559
  30
 0.0
   0
VERTEX
   8
0
   6
Continuous
  10
 241.039063
  20
 115.215355
  30
 0.0
   0
VERTEX
   8
0
   6
Continuous
  10
 241.057617
  20
 118.508247
  30
 0.0
   0
VERTEX
   8
0
   6
Continuous
  10
 240.858337
  20
 121.797043
  30
 0.0
   0
VERTEX
   8
0
   6
Continuous
  10
 240.334045
  20
 125.867546
  30
 0.0
   0
VERTEX
   8
0
   6
Continuous
  10
 239.944763
  20
 127.412544
  30
 0.0
   0
VERTEX
   8
0
   6
Continuous
  10
 239.326233
  20
 128.896652
  30
 0.0
   0
VERTEX
   8
0
   6
Continuous
  10
 238.302734
  20
 130.651657
  30
 0.0
   0
VERTEX
   8
0
   6
Continuous
  10
 236.828064
  20
 132.586655
  30
 0.0
   0
VERTEX
   8
0
   6
Continuous
  10
 236.121521
  20
 133.295059
  30
 0.0
   0
VERTEX
   8
0
   6
Continuous
  10
 235.231445
  20
 133.776962
  30
 0.0
   0
VERTEX
   8
0
   6
Continuous
  10
 233.403564
  20
 134.292557
  30
 0.0
   0
VERTEX
   8
0
   6
Continuous
  10
 228.918762
  20
 135.305649
  30
 0.0
   0
VERTEX
   8
0
   6
Continuous
  10
 224.987915
  20
 135.900558
  30
 0.0
   0
VERTEX
   8
0
   6
Continuous
  10
 224.766235
  20
 136.697952
  30
 0.0
   0
VERTEX
   8
0
   6
Continuous
  10
 224.605347
  20
 138.092453
  30
 0.0
   0
VERTEX
   8
0
   6
Continuous
  10
 224.702332
  20
 139.503860
  30
 0.0
   0
VERTEX
   8
0
   6
Continuous
  10
 225.053162
  20
 140.857559
  30
 0.0
   0
VERTEX
   8
0
   6
Continuous
  10
 225.583618
  20
 141.934464
  30
 0.0
   0
VERTEX
   8
0
   6
Continuous
  10
 226.487122
  20
 143.021652
  30
 0.0
   0
VERTEX
   8
0
   6
Continuous
  10
 229.715820
  20
 145.908554
  30
 0.0
   0
VERTEX
   8
0
   6
Continuous
  10
 231.140747
  20
 147.336853
  30
 0.0
   0
VERTEX
   8
0
   6
Continuous
  10
 232.496033
  20
 149.039352
  30
 0.0
   0
VERTEX
   8
0
   6
Continuous
  10
 233.117249
  20
 150.017960
  30
 0.0
   0
VERTEX
   8
0
   6
Continuous
  10
 233.684937
  20
 151.094559
  30
 0.0
   0
VERTEX
   8
0
   6
Continuous
  10
 234.186646
  20
 152.278854
  30
 0.0
   0
VERTEX
   8
0
   6
Continuous
  10
 234.610229
  20
 153.580856
  30
 0.0
   0
VERTEX
   8
0
   6
Continuous
  10
 234.943848
  20
 155.010361
  30
 0.0
   0
VERTEX
   8
0
   6
Continuous
  10
 235.175049
  20
 156.576859
  30
 0.0
   0
VERTEX
   8
0
   6
Continuous
  10
 235.291748
  20
 158.290649
  30
 0.0
   0
VERTEX
   8
0
   6
Continuous
  10
 235.281921
  20
 160.161163
  30
 0.0
   0
VERTEX
   8
0
   6
Continuous
  10
 235.062866
  20
 163.220062
  30
 0.0
   0
VERTEX
   8
0
   6
Continuous
  10
 234.662720
  20
 166.182358
  30
 0.0
   0
VERTEX
   8
0
   6
Continuous
  10
 234.100647
  20
 169.047256
  30
 0.0
   0
VERTEX
   8
0
   6
Continuous
  10
 233.394836
  20
 171.813950
  30
 0.0
   0
VERTEX
   8
0
   6
Continuous
  10
 232.564148
  20
 174.481461
  30
 0.0
   0
VERTEX
   8
0
   6
Continuous
  10
 231.626831
  20
 177.048752
  30
 0.0
   0
VERTEX
   8
0
   6
Continuous
  10
 230.601563
  20
 179.515350
  30
 0.0
   0
VERTEX
   8
0
   6
Continuous
  10
 229.507019
  20
 181.879959
  30
 0.0
   0
VERTEX
   8
0
   6
Continuous
  10
 227.184448
  20
 186.300140
  30
 0.0
   0
VERTEX
   8
0
   6
Continuous
  10
 224.807434
  20
 190.302338
  30
 0.0
   0
VERTEX
   8
0
   6
Continuous
  10
 219.602661
  20
 198.433060
  30
 0.0
   0
VERTEX
   8
0
   6
Continuous
  10
 218.205750
  20
 200.916565
  30
 0.0
   0
VERTEX
   8
0
   6
Continuous
  10
 217.728333
  20
 201.990173
  30
 0.0
   0
SEQEND
   0
ENDSEC
   0
EOF
